<svg width="393" height="399" viewBox="0 0 393 399" fill="none" xmlns="http://www.w3.org/2000/svg">
<path d="M40.8942 67.5991C-14.9078 112.744 -27.294 224.862 21.1017 278.316C31.7002 289.975 44.9803 299.276 59.6651 305.354C74.8606 311.555 86.2253 308.082 102.059 307.958C124.789 307.71 131.556 330.034 142.283 344.917C156.457 364.389 177.143 379.768 199.745 388.822C319.265 436.323 446.065 308.454 423.335 193.732C415.163 152.308 393.838 124.278 353.998 106.419C319.776 91.0397 281.468 86.6988 243.799 83.5982C227.071 82.234 208.3 80.6216 193.871 71.3198C187.741 67.351 179.808 61.4028 173.934 57.806C167.805 54.0853 162.203 50.7318 155.307 48.0033C144.07 43.6624 132.067 41.43 119.936 41.0579C96.313 40.3138 72.4344 46.763 52.5142 59.1654C48.6834 61.77 44.725 64.6225 40.8942 67.5991Z" fill="#E6F2FF"/>
<path fill-rule="evenodd" clip-rule="evenodd" d="M337.389 232.064C335.869 230.772 333.794 229.912 331.008 229.597C330.639 229.555 330.397 229.168 330.468 228.733C330.539 228.298 330.897 227.979 331.266 228.021C334.216 228.355 336.52 229.277 338.259 230.756C338.549 231.002 338.588 231.494 338.348 231.856C338.108 232.217 337.678 232.31 337.389 232.064ZM324.479 228.926C324.488 229.36 324.19 229.754 323.813 229.805C321.626 230.102 319.189 230.595 316.48 231.3C316.107 231.397 315.765 231.13 315.717 230.704C315.668 230.278 315.931 229.854 316.304 229.757C319.051 229.041 321.537 228.537 323.782 228.232C324.159 228.181 324.47 228.492 324.479 228.926ZM341.296 237.496C341.663 237.363 342.026 237.593 342.107 238.01C342.595 240.552 342.644 243.484 342.39 246.712C342.355 247.15 342.024 247.505 341.649 247.506C341.274 247.507 340.998 247.154 341.033 246.717C341.279 243.583 341.224 240.826 340.775 238.491C340.695 238.075 340.928 237.629 341.296 237.496ZM309.834 232.473C309.906 232.892 309.665 233.332 309.295 233.456C308.108 233.853 306.88 234.282 305.61 234.743C304.437 235.169 303.274 235.606 302.122 236.053C301.756 236.195 301.388 235.975 301.3 235.562C301.212 235.148 301.437 234.698 301.803 234.556C302.964 234.105 304.136 233.665 305.319 233.235C306.598 232.771 307.836 232.339 309.035 231.938C309.404 231.814 309.762 232.054 309.834 232.473ZM295.707 237.878C295.811 238.285 295.601 238.744 295.239 238.903C292.932 239.918 290.667 240.975 288.44 242.071C288.082 242.247 287.697 242.065 287.579 241.665C287.461 241.265 287.654 240.798 288.012 240.622C290.256 239.517 292.54 238.451 294.865 237.428C295.227 237.269 295.604 237.47 295.707 237.878ZM340.673 254.51C341.041 254.561 341.275 254.954 341.196 255.389C340.703 258.099 340.1 260.954 339.435 263.923C339.338 264.354 338.965 264.645 338.601 264.573C338.238 264.501 338.021 264.093 338.118 263.662C338.78 260.706 339.377 257.879 339.864 255.204C339.943 254.769 340.305 254.459 340.673 254.51ZM-3.99188 162.696C-3.86383 162.273 -3.47319 162.019 -3.11936 162.128C-0.776162 162.853 1.53001 163.647 3.78798 164.517C4.13394 164.651 4.29443 165.096 4.14644 165.513C3.99845 165.929 3.59802 166.158 3.25207 166.025C1.01939 165.165 -1.26263 164.378 -3.58307 163.661C-3.93689 163.551 -4.11993 163.12 -3.99188 162.696ZM-9.71065 161.118C-9.82096 161.546 -10.202 161.822 -10.5618 161.733C-12.9007 161.16 -15.2659 160.649 -17.647 160.196C-18.0113 160.126 -18.23 159.72 -18.1356 159.289C-18.0412 158.857 -17.6694 158.563 -17.3052 158.633C-14.9059 159.089 -12.5214 159.604 -10.1623 160.183C-9.80256 160.271 -9.60035 160.69 -9.71065 161.118ZM282.127 244.49C282.259 244.883 282.081 245.357 281.729 245.548C279.485 246.77 277.278 248.029 275.105 249.324C274.758 249.53 274.359 249.385 274.213 249C274.067 248.615 274.23 248.135 274.577 247.928C276.766 246.625 278.989 245.356 281.25 244.126C281.602 243.934 281.995 244.097 282.127 244.49ZM9.61278 167.862C9.78333 167.455 10.1935 167.256 10.5289 167.417C12.7657 168.487 14.9383 169.645 17.0339 170.895C17.3551 171.087 17.4565 171.561 17.2605 171.954C17.0644 172.347 16.6451 172.51 16.3239 172.318C14.2605 171.087 12.1189 169.946 9.91128 168.889C9.57587 168.728 9.44222 168.269 9.61278 167.862ZM-23.9996 158.317C-24.0796 158.751 -24.4425 159.061 -24.8102 159.009C-27.2177 158.666 -29.6306 158.378 -32.0383 158.14C-32.4086 158.103 -32.6546 157.72 -32.5879 157.284C-32.5211 156.849 -32.1668 156.525 -31.7965 156.562C-29.3735 156.802 -26.9447 157.092 -24.5205 157.437C-24.1529 157.489 -23.9196 157.883 -23.9996 158.317ZM-38.5412 156.814C-38.5957 157.25 -38.9416 157.586 -39.314 157.564C-41.77 157.417 -44.2091 157.318 -46.6201 157.263C-46.9939 157.254 -47.2623 156.893 -47.2194 156.456C-47.1766 156.019 -46.8389 155.672 -46.465 155.68C-44.0405 155.736 -41.5873 155.835 -39.1168 155.983C-38.7444 156.005 -38.4867 156.377 -38.5412 156.814ZM22.2559 175.294C22.4804 174.92 22.9072 174.801 23.2092 175.027C25.2272 176.542 27.1468 178.166 28.953 179.903C29.229 180.169 29.2455 180.665 28.9898 181.013C28.7341 181.36 28.303 181.426 28.027 181.161C26.2591 179.46 24.3775 177.869 22.396 176.381C22.0941 176.154 22.0313 175.668 22.2559 175.294ZM-53.208 156.424C-53.2396 156.861 -53.5691 157.219 -53.9441 157.223C-56.4521 157.253 -58.9141 157.328 -61.316 157.44C-61.6917 157.457 -61.9798 157.118 -61.9594 156.681C-61.9391 156.244 -61.618 155.876 -61.2422 155.858C-58.8271 155.745 -56.3515 155.671 -53.8297 155.64C-53.4548 155.636 -53.1764 155.987 -53.208 156.424ZM337.002 271.458C337.364 271.535 337.576 271.947 337.474 272.377L337.425 272.588C336.792 275.27 336.145 278.017 335.509 280.816C335.411 281.246 335.037 281.536 334.674 281.463C334.31 281.389 334.095 280.98 334.193 280.549C334.832 277.74 335.481 274.984 336.114 272.3L336.162 272.096C336.263 271.666 336.639 271.38 337.002 271.458ZM268.918 252.285C269.076 252.663 268.928 253.147 268.586 253.367C266.417 254.766 264.28 256.196 262.17 257.655C261.834 257.887 261.424 257.775 261.255 257.405C261.086 257.034 261.221 256.546 261.558 256.314C263.68 254.847 265.831 253.407 268.014 252C268.355 251.78 268.76 251.907 268.918 252.285ZM33.1533 185.596C33.4415 185.284 33.8712 185.281 34.1131 185.588C35.7213 187.628 37.1925 189.796 38.5104 192.1C38.7092 192.448 38.6115 192.944 38.2921 193.209C37.9727 193.474 37.5525 193.407 37.3536 193.06C36.0714 190.818 34.6383 188.705 33.0694 186.715C32.8275 186.408 32.865 185.907 33.1533 185.596ZM-67.9745 157.067C-67.9833 157.503 -68.2954 157.882 -68.6716 157.913C-71.2358 158.124 -73.7031 158.376 -76.0533 158.66C-76.4295 158.705 -76.7376 158.39 -76.7413 157.955C-76.7451 157.52 -76.4431 157.131 -76.0668 157.085C-73.7012 156.799 -71.2186 156.546 -68.6395 156.334C-68.2634 156.303 -67.9656 156.631 -67.9745 157.067ZM-82.7393 158.812C-82.7205 159.245 -83.01 159.646 -83.3858 159.709C-84.6616 159.922 -85.8837 160.144 -87.0472 160.373C-87.4225 160.447 -87.7495 160.157 -87.7778 159.726C-87.806 159.295 -87.5247 158.886 -87.1495 158.812C-85.9738 158.581 -84.7403 158.357 -83.4537 158.142C-83.0779 158.08 -82.7581 158.379 -82.7393 158.812ZM41.078 199.071C41.4239 198.861 41.8244 199.003 41.9726 199.387C42.9416 201.897 43.7494 204.539 44.3811 207.321C44.4745 207.732 44.2548 208.186 43.8903 208.334C43.5258 208.482 43.1545 208.268 43.0611 207.857C42.4468 205.152 41.6617 202.583 40.7201 200.145C40.5719 199.761 40.7321 199.28 41.078 199.071ZM256.127 261.059C256.306 261.422 256.182 261.914 255.851 262.157C253.749 263.697 251.672 265.262 249.613 266.847C249.286 267.099 248.87 267.013 248.684 266.656C248.497 266.298 248.611 265.804 248.937 265.553C251.005 263.961 253.092 262.389 255.204 260.84C255.535 260.597 255.948 260.695 256.127 261.059ZM333.173 288.378C333.539 288.44 333.764 288.841 333.676 289.274C333.106 292.077 332.571 294.911 332.098 297.762C332.026 298.197 331.668 298.515 331.299 298.472C330.93 298.429 330.689 298.041 330.761 297.606C331.239 294.728 331.777 291.871 332.352 289.05C332.44 288.617 332.808 288.316 333.173 288.378ZM243.687 270.582C243.88 270.934 243.775 271.43 243.452 271.688C241.405 273.327 239.373 274.981 237.352 276.645C237.032 276.909 236.612 276.84 236.414 276.492C236.217 276.143 236.316 275.646 236.636 275.383C238.662 273.714 240.7 272.056 242.753 270.412C243.076 270.153 243.494 270.229 243.687 270.582ZM44.9505 215.087C45.3247 215 45.66 215.277 45.6994 215.706C45.9517 218.447 46.0505 221.304 45.9858 224.28C45.9763 224.716 45.6636 225.094 45.2875 225.124C44.9113 225.154 44.6141 224.825 44.6236 224.389C44.6869 221.48 44.5901 218.691 44.3443 216.019C44.3049 215.591 44.5763 215.173 44.9505 215.087ZM330.312 305.453C330.685 305.47 330.946 305.837 330.897 306.274C330.572 309.118 330.332 311.962 330.201 314.793C330.18 315.23 329.859 315.598 329.483 315.616C329.108 315.633 328.82 315.294 328.84 314.857C328.974 311.979 329.218 309.093 329.546 306.213C329.596 305.777 329.939 305.436 330.312 305.453ZM231.506 280.575C231.707 280.921 231.612 281.418 231.294 281.685C229.277 283.376 227.266 285.074 225.257 286.772C224.939 287.041 224.518 286.978 224.316 286.633C224.114 286.288 224.208 285.791 224.525 285.523C226.535 283.824 228.548 282.125 230.567 280.431C230.885 280.164 231.306 280.229 231.506 280.575ZM44.787 232.107C45.1597 232.126 45.4199 232.495 45.3682 232.932C45.198 234.37 44.9929 235.832 44.752 237.32C44.5283 238.701 44.3185 240.071 44.1225 241.429C44.0596 241.865 43.7079 242.193 43.3369 242.16C42.9659 242.128 42.7161 241.749 42.779 241.313C42.9766 239.944 43.188 238.563 43.4134 237.171C43.6501 235.709 43.8515 234.273 44.0185 232.863C44.0702 232.426 44.4142 232.088 44.787 232.107ZM219.433 290.76C219.635 291.106 219.541 291.603 219.223 291.871C217.21 293.567 215.194 295.261 213.17 296.945C212.851 297.211 212.43 297.145 212.231 296.797C212.031 296.45 212.128 295.953 212.448 295.688C214.468 294.006 216.482 292.315 218.493 290.62C218.811 290.352 219.232 290.415 219.433 290.76ZM329.443 322.585C329.819 322.524 330.138 322.826 330.155 323.259C330.21 324.658 330.298 326.05 330.422 327.432C330.572 328.706 330.751 329.959 330.96 331.187C331.031 331.606 330.789 332.046 330.42 332.169C330.051 332.292 329.693 332.052 329.622 331.632C329.407 330.37 329.224 329.084 329.07 327.777L329.069 327.766L329.068 327.754C328.94 326.336 328.85 324.911 328.794 323.479C328.777 323.046 329.068 322.646 329.443 322.585ZM405.298 344.832C405.454 345.211 405.303 345.695 404.961 345.913C403.904 346.586 402.859 347.236 401.828 347.864C401.482 348.075 401.081 347.935 400.932 347.552C400.783 347.169 400.942 346.687 401.287 346.477C402.31 345.853 403.347 345.208 404.396 344.541C404.738 344.323 405.142 344.453 405.298 344.832ZM395.943 350.451C396.077 350.842 395.901 351.317 395.549 351.511C393.34 352.728 391.194 353.839 389.11 354.846C388.752 355.019 388.368 354.834 388.252 354.433C388.137 354.031 388.333 353.566 388.691 353.392C390.751 352.397 392.875 351.298 395.063 350.092C395.415 349.898 395.809 350.059 395.943 350.451ZM42.5038 248.776C42.8772 248.79 43.142 249.154 43.0953 249.591C42.7986 252.367 42.563 255.09 42.3875 257.758C42.3587 258.195 42.0313 258.556 41.6561 258.564C41.2809 258.572 41 258.224 41.0288 257.787C41.2061 255.092 41.4439 252.344 41.7432 249.544C41.7899 249.107 42.1304 248.763 42.5038 248.776ZM207.307 300.852C207.502 301.202 207.4 301.698 207.079 301.959C205.044 303.614 202.996 305.255 200.93 306.878C200.605 307.133 200.188 307.052 199.998 306.697C199.808 306.342 199.917 305.848 200.242 305.593C202.3 303.976 204.341 302.34 206.371 300.69C206.692 300.429 207.111 300.501 207.307 300.852ZM331.783 338.07C332.14 337.891 332.527 338.071 332.647 338.47C333.373 340.879 334.246 343.148 335.274 345.249C335.452 345.613 335.327 346.105 334.996 346.347C334.664 346.589 334.251 346.49 334.073 346.126C333.006 343.945 332.104 341.598 331.356 339.115C331.235 338.716 331.427 338.248 331.783 338.07ZM383.069 356.741C383.162 357.152 382.942 357.605 382.577 357.753C380.274 358.684 378.055 359.478 375.918 360.141C375.547 360.256 375.194 360.007 375.13 359.585C375.066 359.163 375.314 358.728 375.685 358.613C377.785 357.962 379.969 357.181 382.24 356.262C382.605 356.115 382.976 356.329 383.069 356.741ZM41.3683 265.174C41.7445 265.143 42.0423 265.472 42.0334 265.908C41.9774 268.674 41.9905 271.377 42.0715 274.014C42.0848 274.447 41.7908 274.844 41.4147 274.901C41.0387 274.957 40.723 274.652 40.7097 274.218C40.6278 271.55 40.6145 268.817 40.6712 266.02C40.68 265.584 40.9921 265.205 41.3683 265.174ZM338.008 351.209C338.297 350.898 338.727 350.895 338.968 351.203C340.381 353.002 341.971 354.592 343.75 355.945C344.05 356.173 344.111 356.661 343.885 357.033C343.658 357.406 343.231 357.522 342.931 357.294C341.065 355.876 339.4 354.209 337.923 352.328C337.681 352.021 337.72 351.52 338.008 351.209ZM369.76 360.952C369.788 361.383 369.505 361.791 369.13 361.864C366.727 362.33 364.444 362.609 362.276 362.712C361.9 362.729 361.612 362.39 361.632 361.953C361.652 361.516 361.973 361.148 362.349 361.13C364.455 361.03 366.681 360.759 369.031 360.303C369.406 360.231 369.733 360.521 369.76 360.952ZM194.971 310.565C195.153 310.926 195.035 311.418 194.706 311.666C192.625 313.23 190.522 314.772 188.393 316.287C188.059 316.525 187.647 316.42 187.474 316.053C187.3 315.686 187.43 315.195 187.763 314.958C189.881 313.451 191.973 311.917 194.044 310.36C194.373 310.113 194.788 310.205 194.971 310.565ZM356.263 361.724C356.182 362.158 355.819 362.467 355.452 362.414C353.099 362.075 350.915 361.488 348.896 360.676C348.551 360.538 348.396 360.09 348.548 359.675C348.7 359.26 349.103 359.036 349.447 359.175C351.379 359.952 353.475 360.515 355.743 360.842C356.111 360.895 356.344 361.29 356.263 361.724ZM182.304 319.617C182.467 319.991 182.325 320.478 181.986 320.704C179.846 322.131 177.676 323.527 175.473 324.889C175.128 325.101 174.726 324.965 174.575 324.583C174.424 324.201 174.58 323.719 174.924 323.506C177.112 322.154 179.268 320.767 181.395 319.349C181.734 319.123 182.141 319.243 182.304 319.617ZM41.801 281.46C42.1754 281.375 42.5097 281.654 42.5477 282.083C42.7895 284.808 43.1103 287.454 43.5085 290.019C43.5739 290.441 43.3266 290.876 42.956 290.993C42.5855 291.109 42.232 290.861 42.1666 290.44C41.7624 287.836 41.4371 285.152 41.1921 282.39C41.154 281.961 41.4266 281.545 41.801 281.46ZM169.233 327.748C169.372 328.138 169.2 328.614 168.85 328.812C166.643 330.063 164.4 331.277 162.119 332.45C161.763 332.633 161.375 332.459 161.251 332.061C161.126 331.664 161.314 331.194 161.669 331.012C163.933 329.848 166.158 328.643 168.349 327.402C168.699 327.203 169.095 327.358 169.233 327.748ZM44.1681 297.289C44.5321 297.139 44.9045 297.35 45 297.761C45.605 300.363 46.2992 302.869 47.0803 305.277C47.2085 305.672 47.0256 306.144 46.6718 306.331C46.3181 306.518 45.9274 306.349 45.7992 305.954C45.0035 303.501 44.2971 300.951 43.6819 298.305C43.5865 297.894 43.8041 297.44 44.1681 297.289ZM155.756 334.739C155.866 335.144 155.662 335.606 155.302 335.772C153.041 336.814 150.74 337.815 148.397 338.771C148.033 338.919 147.661 338.706 147.567 338.295C147.473 337.884 147.692 337.43 148.057 337.282C150.381 336.334 152.663 335.341 154.906 334.307C155.266 334.141 155.647 334.335 155.756 334.739ZM48.8745 312.169C49.2137 311.944 49.6208 312.064 49.7837 312.439C50.8082 314.793 51.9294 317.033 53.1447 319.158C53.3436 319.506 53.2459 320.003 52.9264 320.267C52.607 320.532 52.1868 320.465 51.9879 320.118C50.7458 317.946 49.6009 315.658 48.5555 313.256C48.3925 312.881 48.5354 312.395 48.8745 312.169ZM141.938 340.445C142.016 340.862 141.782 341.306 141.414 341.437C140.245 341.853 139.066 342.258 137.876 342.651C136.693 343.042 135.52 343.414 134.355 343.766C133.984 343.879 133.632 343.627 133.57 343.205C133.509 342.782 133.759 342.349 134.13 342.236C135.285 341.887 136.448 341.519 137.62 341.131C138.8 340.741 139.97 340.34 141.129 339.927C141.497 339.796 141.859 340.028 141.938 340.445ZM127.927 344.749C127.97 345.177 127.703 345.597 127.329 345.688C124.933 346.272 122.577 346.771 120.263 347.187C119.887 347.254 119.564 346.959 119.542 346.527C119.519 346.095 119.805 345.69 120.18 345.623C122.469 345.212 124.8 344.718 127.172 344.14C127.545 344.049 127.884 344.322 127.927 344.749ZM56.2113 325.296C56.5056 324.992 56.9342 325.002 57.1687 325.316C58.6267 327.273 60.1836 329.105 61.8366 330.808C62.1046 331.084 62.1078 331.582 61.8437 331.921C61.5796 332.26 61.1482 332.311 60.8802 332.035C59.1881 330.292 57.5948 328.418 56.1029 326.415C55.8685 326.1 55.917 325.599 56.2113 325.296ZM113.848 347.351C113.847 347.786 113.542 348.172 113.166 348.213C110.741 348.476 108.366 348.64 106.043 348.708C105.668 348.718 105.385 348.373 105.411 347.936C105.437 347.499 105.763 347.136 106.138 347.125C108.428 347.058 110.772 346.896 113.167 346.636C113.543 346.596 113.848 346.915 113.848 347.351ZM66.1405 335.788C66.3704 335.418 66.7982 335.308 67.0961 335.541C68.9264 336.975 70.8492 338.28 72.8621 339.454C73.1849 339.643 73.2898 340.115 73.0965 340.51C72.9031 340.904 72.4846 341.071 72.1618 340.883C70.1037 339.682 68.1367 338.347 66.2636 336.88C65.9657 336.647 65.9106 336.158 66.1405 335.788ZM99.7409 347.854C99.6862 348.291 99.3401 348.627 98.9678 348.604C96.5765 348.46 94.2479 348.204 91.984 347.837C91.6176 347.777 91.3904 347.378 91.4764 346.945C91.5624 346.512 91.929 346.209 92.2954 346.268C94.5206 346.629 96.8112 346.881 99.1657 347.023C99.538 347.046 99.7955 347.418 99.7409 347.854ZM78.1521 343.024C78.3083 342.611 78.7125 342.392 79.0548 342.536C81.1407 343.408 83.3065 344.16 85.55 344.789C85.9066 344.889 86.0983 345.315 85.9782 345.74C85.8581 346.166 85.4716 346.43 85.115 346.33C82.8282 345.689 80.6188 344.922 78.4891 344.031C78.1468 343.888 77.9959 343.437 78.1521 343.024Z" fill="#007AFF"/>
<path fill-rule="evenodd" clip-rule="evenodd" d="M446.274 15.7099C446.63 15.8121 446.835 16.1835 446.733 16.5394C446.464 17.4774 446.022 18.5738 445.43 19.8027C445.269 20.1363 444.868 20.2763 444.534 20.1155C444.201 19.9547 444.061 19.5539 444.222 19.2203C444.795 18.0309 445.203 17.009 445.444 16.1693C445.546 15.8134 445.918 15.6077 446.274 15.7099ZM441.731 25.0141C442.044 25.2127 442.136 25.627 441.938 25.9396C440.803 27.7254 439.493 29.6585 438.024 31.7107C437.808 32.0118 437.389 32.081 437.088 31.8654C436.787 31.6498 436.718 31.2309 436.933 30.9299C438.391 28.8946 439.687 26.9823 440.806 25.2205C441.004 24.9079 441.419 24.8155 441.731 25.0141ZM433.703 36.3959C433.995 36.6229 434.049 37.0441 433.822 37.3367C432.453 39.1003 430.994 40.9235 429.45 42.7927C429.214 43.0783 428.792 43.1186 428.506 42.8828C428.221 42.647 428.18 42.2243 428.416 41.9388C429.951 40.0796 431.403 38.2671 432.762 36.5147C432.989 36.2221 433.41 36.1689 433.703 36.3959ZM424.878 47.157C425.157 47.4003 425.186 47.8239 424.943 48.103C423.452 49.8134 421.901 51.5497 420.296 53.3028C420.046 53.5759 419.622 53.5945 419.348 53.3444C419.075 53.0943 419.057 52.6701 419.307 52.397C420.905 50.652 422.448 48.9239 423.932 47.2219C424.175 46.9427 424.599 46.9137 424.878 47.157ZM415.504 57.4432C415.771 57.6998 415.779 58.1242 415.523 58.3913C413.934 60.0453 412.302 61.7061 410.63 63.3663C410.367 63.6272 409.943 63.6257 409.682 63.363C409.421 63.1002 409.422 62.6756 409.685 62.4147C411.349 60.7621 412.974 59.1088 414.555 57.4623C414.812 57.1952 415.236 57.1867 415.504 57.4432ZM405.655 67.2672C405.91 67.5362 405.898 67.9606 405.629 68.2152C403.954 69.8009 402.246 71.3793 400.509 72.9439C400.233 73.1917 399.809 73.1695 399.562 72.8943C399.314 72.6191 399.336 72.1952 399.611 71.9474C401.34 70.3904 403.04 68.8195 404.707 67.2412C404.976 66.9866 405.401 66.9983 405.655 67.2672ZM395.34 76.5985C395.58 76.8801 395.547 77.3034 395.265 77.5439C393.5 79.0521 391.709 80.5405 389.897 82.0027C389.608 82.2353 389.186 82.1901 388.954 81.9019C388.721 81.6137 388.766 81.1915 389.054 80.959C390.857 79.5049 392.638 78.0246 394.394 76.5242C394.676 76.2837 395.099 76.317 395.34 76.5985ZM384.527 85.365C384.751 85.6602 384.693 86.0808 384.398 86.3044C382.537 87.7142 380.658 89.0912 378.764 90.4291C378.462 90.6428 378.043 90.5708 377.83 90.2683C377.616 89.9658 377.688 89.5474 377.99 89.3337C379.872 88.0049 381.739 86.6367 383.588 85.2355C383.883 85.0119 384.304 85.0699 384.527 85.365ZM243.443 52.1862C241.063 51.3441 238.714 50.7503 236.398 50.3828C236.032 50.3247 235.783 49.9811 235.841 49.6154C235.899 49.2497 236.242 49.0002 236.608 49.0583C239.006 49.4389 241.435 50.0533 243.891 50.922C244.24 51.0454 244.423 51.4286 244.299 51.7777C244.176 52.1268 243.792 52.3097 243.443 52.1862ZM249.874 54.2763C250.05 53.9507 250.457 53.8298 250.783 54.0063C252.873 55.1394 254.981 56.4627 257.105 57.9878C257.406 58.2038 257.474 58.6228 257.258 58.9236C257.042 59.2244 256.623 59.2931 256.323 59.0771C254.242 57.5828 252.182 56.2899 250.144 55.1853C249.818 55.0089 249.697 54.6019 249.874 54.2763ZM229.758 49.255C229.773 49.625 229.484 49.9369 229.114 49.9517C226.67 50.049 224.262 50.3874 221.894 50.9405C221.533 51.0247 221.173 50.8007 221.089 50.4401C221.004 50.0794 221.228 49.7188 221.589 49.6346C224.036 49.0631 226.527 48.7126 229.061 48.6117C229.431 48.5969 229.743 48.8849 229.758 49.255ZM373.184 93.4246C373.386 93.7348 373.299 94.1502 372.988 94.3525C371.024 95.6331 369.047 96.866 367.061 98.0443C366.743 98.2334 366.332 98.1284 366.143 97.8099C365.954 97.4915 366.059 97.0801 366.377 96.8911C368.345 95.7229 370.306 94.4999 372.256 93.229C372.566 93.0268 372.982 93.1144 373.184 93.4246ZM262.006 62.7299C262.252 62.4525 262.675 62.4264 262.953 62.6718C264.742 64.2536 266.541 65.9825 268.351 67.8654C268.607 68.1324 268.599 68.5569 268.332 68.8135C268.065 69.0701 267.64 69.0616 267.384 68.7946C265.598 66.9363 263.824 65.2327 262.065 63.6764C261.787 63.4311 261.761 63.0073 262.006 62.7299ZM215.303 52.3272C215.446 52.6689 215.284 53.0616 214.943 53.2042C212.718 54.1326 210.532 55.2395 208.387 56.501C208.068 56.6888 207.657 56.5822 207.469 56.263C207.281 55.9438 207.388 55.5328 207.707 55.3451C209.9 54.0556 212.14 52.9205 214.426 51.9666C214.768 51.824 215.161 51.9854 215.303 52.3272ZM272.398 73.3452C272.681 73.1067 273.104 73.143 273.343 73.4263C274.883 75.2552 276.43 77.198 277.983 79.259C278.206 79.5547 278.147 79.9752 277.851 80.1981C277.556 80.421 277.135 80.3619 276.912 80.0662C275.372 78.0234 273.841 76.0995 272.317 74.29C272.079 74.0068 272.115 73.5838 272.398 73.3452ZM361.252 100.56C361.425 100.888 361.3 101.293 360.973 101.467C358.89 102.571 356.802 103.609 354.712 104.572C354.376 104.727 353.977 104.58 353.822 104.243C353.668 103.907 353.815 103.509 354.151 103.354C356.217 102.402 358.283 101.376 360.345 100.282C360.672 100.109 361.078 100.233 361.252 100.56ZM202.41 59.6404C202.632 59.9373 202.57 60.3574 202.274 60.5787C200.331 62.0274 198.427 63.5918 196.565 65.2513C196.288 65.4976 195.865 65.4732 195.618 65.1968C195.372 64.9203 195.396 64.4964 195.673 64.2501C197.561 62.5672 199.495 60.9778 201.472 59.5036C201.769 59.2823 202.189 59.3435 202.41 59.6404ZM281.393 85.1315C281.698 84.9222 282.115 85.0001 282.325 85.3055C283.032 86.3371 283.74 87.3936 284.45 88.4754C285.109 89.4809 285.78 90.4484 286.461 91.3789C286.68 91.6776 286.615 92.0972 286.317 92.316C286.018 92.5348 285.598 92.4699 285.379 92.1711C284.684 91.2216 284 90.2352 283.329 89.211C282.624 88.1366 281.92 87.0876 281.219 86.0637C281.009 85.7583 281.087 85.3409 281.393 85.1315ZM348.654 106.429C348.786 106.775 348.613 107.163 348.268 107.296C346.052 108.145 343.839 108.902 341.634 109.556C341.279 109.661 340.906 109.459 340.801 109.104C340.696 108.749 340.898 108.376 341.253 108.27C343.422 107.627 345.602 106.882 347.787 106.043C348.133 105.911 348.521 106.084 348.654 106.429ZM289.867 96.6402C290.139 96.3886 290.563 96.4048 290.814 96.6765C292.426 98.4165 294.086 99.9811 295.789 101.379C296.076 101.614 296.117 102.037 295.882 102.323C295.647 102.609 295.225 102.651 294.938 102.416C293.186 100.977 291.482 99.3707 289.831 97.5878C289.579 97.3161 289.595 96.8919 289.867 96.6402ZM335.348 110.458C335.419 110.822 335.183 111.174 334.82 111.246C332.482 111.708 330.158 112.041 327.855 112.232C327.486 112.263 327.162 111.989 327.132 111.62C327.101 111.251 327.375 110.927 327.744 110.896C329.993 110.709 332.267 110.383 334.56 109.931C334.923 109.859 335.276 110.095 335.348 110.458ZM191.224 69.4115C191.489 69.67 191.494 70.0945 191.236 70.3597C189.527 72.1127 187.858 73.9343 186.233 75.8058C185.99 76.0854 185.566 76.1151 185.287 75.8722C185.007 75.6294 184.977 75.2058 185.22 74.9263C186.861 73.0372 188.547 71.1966 190.276 69.4235C190.534 69.1584 190.959 69.153 191.224 69.4115ZM300.469 105.539C300.657 105.22 301.068 105.114 301.387 105.302C303.389 106.481 305.44 107.466 307.534 108.269C307.88 108.402 308.053 108.789 307.92 109.135C307.788 109.481 307.4 109.654 307.054 109.521C304.891 108.691 302.772 107.674 300.707 106.457C300.387 106.269 300.281 105.858 300.469 105.539ZM321.517 111.726C321.499 112.096 321.184 112.381 320.814 112.363C318.45 112.246 316.117 111.959 313.822 111.491C313.459 111.417 313.225 111.062 313.299 110.699C313.373 110.337 313.727 110.103 314.09 110.177C316.315 110.631 318.581 110.909 320.881 111.023C321.25 111.042 321.535 111.356 321.517 111.726ZM181.405 80.568C181.696 80.7974 181.746 81.219 181.517 81.5098C179.982 83.4548 178.492 85.4307 177.048 87.4191C176.83 87.7187 176.411 87.7851 176.111 87.5675C175.812 87.3499 175.745 86.9305 175.963 86.6309C177.417 84.6296 178.917 82.6395 180.464 80.6792C180.693 80.3885 181.115 80.3387 181.405 80.568ZM172.618 92.5553C172.925 92.7629 173.005 93.1798 172.797 93.4865C171.388 95.5697 170.03 97.6457 168.727 99.6935C168.528 100.006 168.113 100.098 167.801 99.8991C167.488 99.7002 167.396 99.2857 167.595 98.9734C168.905 96.9162 170.269 94.8296 171.687 92.7349C171.894 92.4282 172.311 92.3478 172.618 92.5553ZM164.595 105.07C164.912 105.262 165.014 105.674 164.822 105.991C164.172 107.065 163.539 108.125 162.923 109.166C162.295 110.227 161.643 111.258 160.967 112.259C160.759 112.566 160.343 112.646 160.036 112.439C159.729 112.232 159.648 111.815 159.855 111.508C160.517 110.529 161.155 109.521 161.769 108.483C162.387 107.438 163.022 106.375 163.675 105.297C163.866 104.98 164.278 104.879 164.595 105.07ZM156.452 117.095C156.731 117.339 156.759 117.763 156.515 118.042C154.891 119.896 153.171 121.616 151.363 123.204C151.085 123.448 150.661 123.421 150.417 123.143C150.172 122.864 150.2 122.441 150.478 122.196C152.242 120.647 153.921 118.968 155.506 117.158C155.75 116.879 156.174 116.851 156.452 117.095ZM28.5987 90.0003C28.8943 89.7772 29.3148 89.8361 29.5378 90.1317C30.266 91.0969 31.0027 92.0472 31.7472 92.9825C31.9779 93.2723 31.93 93.6941 31.6402 93.9248C31.3505 94.1554 30.9287 94.1075 30.698 93.8178C29.9462 92.8733 29.2025 91.9139 28.4673 90.9394C28.2442 90.6438 28.3031 90.2233 28.5987 90.0003ZM145.752 126.72C145.957 127.028 145.873 127.444 145.565 127.65C143.534 129.002 141.422 130.215 139.237 131.287C138.905 131.451 138.503 131.314 138.34 130.981C138.176 130.649 138.314 130.247 138.646 130.084C140.779 129.037 142.84 127.853 144.822 126.534C145.13 126.328 145.546 126.412 145.752 126.72ZM35.4179 98.4225C35.6951 98.1768 36.1189 98.2024 36.3645 98.4795C37.9689 100.29 39.6041 102.036 41.2666 103.717C41.527 103.98 41.5246 104.405 41.2613 104.665C40.9979 104.926 40.5734 104.923 40.313 104.66C38.6333 102.961 36.9814 101.197 35.3609 99.369C35.1153 99.0919 35.1408 98.6681 35.4179 98.4225ZM132.91 133.23C133.03 133.58 132.843 133.962 132.493 134.082C130.207 134.865 127.862 135.514 125.467 136.027C125.105 136.105 124.748 135.874 124.67 135.512C124.593 135.15 124.823 134.794 125.186 134.716C127.53 134.213 129.824 133.579 132.058 132.813C132.409 132.693 132.79 132.88 132.91 133.23ZM45.5109 108.729C45.7591 108.454 46.1831 108.433 46.4579 108.681C48.256 110.305 50.0802 111.859 51.9265 113.341C52.2153 113.572 52.2616 113.994 52.0298 114.283C51.798 114.572 51.3759 114.618 51.0871 114.386C49.2203 112.888 47.3762 111.318 45.5589 109.676C45.2841 109.428 45.2626 109.004 45.5109 108.729ZM56.7207 117.822C56.9346 117.52 57.3531 117.448 57.6553 117.662C59.6289 119.059 61.6222 120.377 63.6307 121.617C63.9459 121.811 64.0436 122.225 63.8491 122.54C63.6546 122.855 63.2414 122.953 62.9263 122.758C60.8937 121.503 58.8769 120.169 56.8807 118.757C56.5784 118.543 56.5067 118.124 56.7207 117.822ZM118.866 136.419C118.903 136.787 118.634 137.116 118.266 137.153C115.874 137.394 113.444 137.51 110.985 137.504C110.615 137.503 110.315 137.202 110.316 136.832C110.317 136.461 110.618 136.162 110.989 136.163C113.403 136.169 115.787 136.055 118.132 135.819C118.5 135.782 118.829 136.05 118.866 136.419ZM68.9557 125.466C69.1291 125.139 69.5349 125.014 69.8622 125.188C72.0016 126.321 74.1526 127.368 76.31 128.327C76.6484 128.477 76.8008 128.873 76.6504 129.212C76.5 129.55 76.1037 129.703 75.7653 129.552C73.5794 128.581 71.4006 127.521 69.2343 126.373C68.9071 126.199 68.7823 125.794 68.9557 125.466ZM104.454 136.533C104.418 136.902 104.09 137.171 103.722 137.135C101.334 136.901 98.9277 136.556 96.5096 136.101C96.1456 136.032 95.9062 135.681 95.9747 135.317C96.0433 134.954 96.3938 134.714 96.7578 134.783C99.1379 135.231 101.505 135.57 103.852 135.8C104.221 135.836 104.49 136.164 104.454 136.533ZM82.0966 131.402C82.2221 131.053 82.6062 130.873 82.9547 130.998C85.2347 131.819 87.5157 132.542 89.7915 133.168C90.1486 133.266 90.3584 133.636 90.2602 133.993C90.1621 134.35 89.793 134.56 89.4359 134.461C87.1263 133.826 84.8124 133.092 82.5004 132.26C82.1519 132.134 81.9712 131.75 82.0966 131.402Z" fill="#007AFF"/>
<path d="M201.7 48.7007C202.609 55.5236 197.815 61.7914 190.992 62.7003C184.169 63.6091 177.901 58.8149 176.992 51.992C176.084 45.1691 180.878 38.9013 187.701 37.9924C194.524 37.0836 200.791 41.8778 201.7 48.7007Z" fill="#E5F2FF" stroke="#007AFF" stroke-width="1.5"/>
<path d="M193.891 46.2852C193.509 43.4232 190.774 41.4179 187.889 41.9996C185.338 42.4876 183.585 44.8934 183.83 47.4773C183.93 48.5995 184.412 49.6214 185.159 50.4106C186.138 51.4649 186.769 52.862 186.963 54.3173L186.969 54.3658L192.693 53.6033L192.687 53.5548C192.486 52.051 192.778 50.5312 193.441 49.2086C193.865 48.3129 194.026 47.3039 193.891 46.2852Z" fill="#FFBC00"/>
<path d="M188.913 49.3183C188.761 49.2892 188.499 49.1759 188.396 49.1404C188.648 48.8105 188.729 48.3061 188.483 47.9438C188.15 47.297 187.106 47.2387 186.973 48.0957C186.934 48.5452 187.138 48.9623 187.523 49.2567C187.335 49.331 187.135 49.3084 186.928 49.2372C186.41 49.0593 186.152 48.6 185.99 48.1279C185.909 47.8918 185.515 47.895 185.553 48.186C185.725 49.1012 186.429 49.9454 187.448 49.8097C187.642 49.7838 187.781 49.7159 187.962 49.5931C188.121 49.6707 188.328 49.7419 188.528 49.7645L189.162 54.5184C189.2 54.8094 189.637 54.7513 189.598 54.4602C189.598 54.4602 189.072 49.3959 188.913 49.3183ZM188.111 48.4871C188.137 48.6811 188.06 48.8396 187.975 48.9495C187.865 48.8654 187.81 48.8234 187.701 48.7393C187.584 48.6067 187.4 48.335 187.477 48.1766C187.642 47.5621 188.121 48.1896 188.111 48.4871Z" fill="white"/>
<path d="M190.132 54.389C190.171 54.68 190.607 54.6219 190.569 54.3308L189.929 49.5284C190.117 49.4541 190.249 49.3377 190.43 49.2148C190.589 49.2925 190.783 49.2666 190.983 49.2893C192.002 49.1536 192.468 48.2029 192.387 47.2262C192.348 46.9352 191.967 47.0354 191.95 47.2844C191.967 47.7759 191.795 48.3418 191.336 48.6005C191.155 48.7234 190.961 48.7492 190.767 48.7751C191.012 48.3967 191.148 47.9343 190.993 47.5106C190.689 46.7118 189.654 47.0965 189.496 47.7595C189.408 48.2154 189.564 48.6391 189.893 48.8914C189.761 49.0078 189.531 49.1371 189.441 49.1985C189.363 49.357 190.132 54.389 190.132 54.389ZM190.527 47.7208C190.644 47.8534 190.537 48.1638 190.459 48.3223C190.424 48.4258 190.34 48.5357 190.249 48.5971C190.139 48.513 190.023 48.3804 189.997 48.1864C189.916 47.9503 190.214 47.2195 190.527 47.7208Z" fill="white"/>
<path d="M193.809 53.4544L185.854 54.5142L186.112 56.4545L194.067 55.3948L193.809 53.4544Z" fill="white"/>
<path d="M192.12 58.5669L188.822 59.0063C188.191 59.0903 187.641 58.6699 187.557 58.0392L187.196 55.3228L192.726 54.5861L193.087 57.3026C193.171 57.9332 192.702 58.4894 192.12 58.5669Z" fill="white"/>
<path d="M193.891 46.2854C193.51 43.4234 190.774 41.418 187.889 41.9998C185.338 42.4878 183.585 44.8935 183.83 47.4774C183.869 47.7685 183.908 48.0595 183.995 48.3441C184.024 45.9705 185.719 43.8687 188.077 43.4065C188.368 43.3677 188.61 43.3354 188.853 43.3031C188.824 43.4551 188.795 43.6071 188.814 43.7526C188.859 44.0922 189.098 44.4059 189.38 44.6646C189.771 45.0075 190.198 45.2468 190.66 45.3827C190.971 45.4895 191.317 45.4928 191.601 45.4055C191.983 45.3053 192.326 44.914 192.426 44.5551C193.154 45.1987 193.658 46.0202 193.933 46.971C193.955 46.7705 193.923 46.5279 193.891 46.2854Z" fill="#FFD75D"/>
<path d="M322.185 78.1905C316.329 72.1405 306.676 71.9837 300.626 77.8404C294.576 83.6971 294.419 93.3494 300.276 99.3994C306.133 105.449 315.785 105.606 321.835 99.7495C327.885 93.8929 328.042 84.2405 322.185 78.1905Z" fill="#131313"/>
<path d="M321.146 76.0484C315.289 69.9984 305.637 69.8416 299.587 75.6983C293.537 81.555 293.38 91.2073 299.237 97.2573C305.094 103.307 314.746 103.464 320.796 97.6074C326.846 91.7507 327.003 82.0984 321.146 76.0484Z" fill="#E5F2FF"/>
<path d="M317.761 79.2424C321.841 83.4212 321.761 90.1153 317.583 94.1954C313.404 98.2756 306.71 98.1957 302.63 94.0169C298.55 89.8382 298.629 83.1441 302.808 79.0639C306.987 74.9838 313.681 75.0637 317.761 79.2424Z" fill="#D53F36"/>
<path d="M316.442 80.5305C319.792 83.9615 319.725 89.5254 316.294 92.8755C312.863 96.2255 307.299 96.1591 303.949 92.7281C300.599 89.2971 300.666 83.7332 304.097 80.3832C307.528 77.0331 313.049 77.0556 316.442 80.5305Z" fill="white"/>
<path d="M315.034 81.9049C317.654 84.5881 317.603 88.848 314.92 91.4679C312.237 94.0878 307.977 94.0369 305.357 91.3537C302.737 88.6705 302.788 84.4106 305.471 81.7907C308.154 79.1708 312.414 79.2217 315.034 81.9049Z" fill="#D53F36"/>
<path d="M313.627 83.2797C315.473 85.1712 315.437 88.214 313.546 90.0608C311.654 91.9076 308.611 91.8712 306.765 89.9798C304.918 88.0884 304.954 85.0456 306.846 83.1988C308.737 81.352 311.78 81.3883 313.627 83.2797Z" fill="white"/>
<path d="M312.263 84.6107C313.379 85.7544 313.358 87.5801 312.214 88.6967C311.07 89.8134 309.245 89.7916 308.128 88.648C307.011 87.5043 307.033 85.6786 308.177 84.562C309.32 83.4453 311.146 83.4671 312.263 84.6107Z" fill="#D53F36"/>
<path d="M315.585 86.6938L318.248 89.421L322.856 89.476L320.193 86.7488L315.585 86.6938Z" fill="#FFBC00"/>
<path d="M315.585 86.6938L318.313 84.031L322.92 84.086L320.193 86.7489L315.585 86.6938Z" fill="#FFBC00"/>
<path d="M322.012 87.3793C321.836 87.5511 321.661 87.636 321.4 87.6329L309.706 87.5368C309.185 87.5305 308.841 87.1786 308.848 86.657C308.81 86.1783 309.206 85.7918 309.727 85.798L321.464 85.9381C321.942 85.9004 322.329 86.2963 322.323 86.8179C322.277 87.0347 322.188 87.2075 322.012 87.3793Z" fill="#131313"/>
<path d="M73.1578 97.9903C70.8853 105.905 62.6269 110.479 54.7122 108.206C46.7975 105.934 42.2237 97.6753 44.4962 89.7606C46.7688 81.8459 55.0272 77.2721 62.9419 79.5446C70.8566 81.8172 75.4304 90.0756 73.1578 97.9903Z" fill="#E5F2FF" stroke="#007AFF" stroke-width="1.5"/>
<path d="M68.8269 86.3292L54.2817 82.1528L48.7756 101.329L59.2683 104.342L64.4427 101.598L68.8269 86.3292Z" fill="#B8DAFF"/>
<path d="M59.2684 104.342L64.4428 101.598L60.3904 100.435L59.2684 104.342Z" fill="#007AFF"/>
<path d="M65.722 88.414L55.8081 85.5674L55.4757 86.7252L65.3895 89.5718L65.722 88.414Z" fill="#007AFF"/>
<path d="M64.9947 90.9467L55.0808 88.1001L54.7484 89.2579L64.6622 92.1045L64.9947 90.9467Z" fill="#007AFF"/>
<path d="M64.2881 93.4071L54.3743 90.5605L54.0418 91.7184L63.9557 94.565L64.2881 93.4071Z" fill="#007AFF"/>
<path d="M63.5818 95.8676L53.668 93.021L53.3355 94.1788L63.2494 97.0254L63.5818 95.8676Z" fill="#007AFF"/>
<path d="M62.8753 98.328L52.9614 95.4814L52.629 96.6393L62.5428 99.4858L62.8753 98.328Z" fill="#007AFF"/>
<path d="M87.0083 259.254C84.2864 268.734 74.4342 274.13 65.0269 271.428C55.5472 268.707 50.1515 258.854 52.8526 249.447C55.5745 239.967 65.4268 234.572 74.8341 237.273C84.3345 239.922 89.7303 249.775 87.0083 259.254Z" fill="#131313"/>
<path d="M85.1047 259.883C82.3828 269.362 72.5305 274.758 63.1232 272.057C53.6435 269.335 48.2478 259.483 50.9489 250.075C53.6709 240.596 63.5231 235.2 72.9304 237.901C82.3377 240.602 87.8266 250.403 85.1047 259.883Z" fill="#E5F2FF"/>
<path d="M62.8567 254.435C61.1622 253.244 60.1921 251.712 59.9772 250.005C59.5158 246.974 61.4531 244.319 61.4947 244.174L62.0127 243.462L65.5757 247.148L64.5712 248.191L62.1546 245.696C61.6674 246.574 61.0655 248.124 61.322 249.686C61.5477 251.083 62.3115 252.242 63.6856 253.185L62.8567 254.435Z" fill="#EC8B1E"/>
<path d="M72.2332 256.971C74.2601 257.004 75.9983 256.407 77.2306 255.116C79.4259 252.926 79.5026 249.658 79.4718 249.493L79.4832 248.635L74.3941 249.445L74.6198 250.841L78.0023 250.246C77.8769 251.228 77.4198 252.82 76.229 253.967C75.2453 254.937 73.9313 255.422 72.2146 255.399L72.2332 256.971Z" fill="#FFBC00"/>
<path d="M67.0535 263.551C65.9674 263.787 65.099 263.538 64.5409 263.299C64.0551 263.081 63.828 262.781 63.828 262.781C65.0804 261.966 67.0435 255.402 67.0435 255.402L69.5662 255.891C69.2968 256.284 69.1514 256.79 68.9336 257.276C68.0824 259.695 67.0535 263.551 67.0535 263.551Z" fill="#FFBC00"/>
<path d="M68.8611 257.255C67.2461 258.515 64.9778 261.232 64.4683 263.279C63.9826 263.061 63.7555 262.761 63.7555 262.761C65.0079 261.945 66.971 255.381 66.971 255.381L69.4937 255.87C69.2243 256.263 69.0789 256.77 68.8611 257.255Z" fill="#EC8B1E"/>
<path d="M70.1416 266.709C63.8209 268.263 59.8459 263.283 59.8459 263.283C60.0321 263.18 60.2184 263.077 60.4563 263.067C66.0541 260.758 68.8519 264.381 69.8013 265.985C70.0592 266.451 70.1416 266.709 70.1416 266.709Z" fill="#FFBC00"/>
<path d="M70.1415 266.71C63.8208 268.263 59.8458 263.284 59.8458 263.284C60.0321 263.181 60.2184 263.077 60.4563 263.067C61.675 264.279 63.1215 265.243 64.9098 265.834C66.5019 266.291 68.1977 266.387 69.7804 266.058C70.0591 266.451 70.1415 266.71 70.1415 266.71Z" fill="#EC8B1E"/>
<path d="M66.8545 265.609C67.3095 265.661 67.7337 265.548 67.9615 265.3C68.1893 265.052 68.0761 264.628 67.9214 264.349C67.5187 263.842 66.6711 263.52 66.0406 263.261C65.2654 262.96 64.397 262.71 63.6318 262.647C62.3393 262.511 62.09 263.379 63.1024 264.218C64.1147 265.057 65.4689 265.525 66.8545 265.609Z" fill="#FFCC5E"/>
<path d="M74.5286 257.16C74.1969 257.77 71.0823 259.069 68.1147 258.765C67.7321 258.733 67.4426 258.65 67.0808 258.546C67.0085 258.525 67.0085 258.525 66.9361 258.505C63.6797 257.57 61.7596 254.982 61.8441 253.596C61.9287 252.21 66.2003 243.881 66.2003 243.881C69.6021 244.309 76.4867 246.521 76.4867 246.521C76.4867 246.521 76.476 246.831 76.3305 247.338C76.1951 248.082 75.9866 249.354 75.7574 250.698C75.3504 253.479 74.7256 256.746 74.5286 257.16Z" fill="#FFBC00"/>
<path d="M66.4052 245.35C66.4052 245.35 60.5315 252.984 67.1016 258.474C67.0292 258.453 67.0292 258.453 66.9569 258.432C63.7005 257.497 61.7803 254.909 61.8649 253.524C61.9494 252.138 66.2211 243.808 66.2211 243.808C69.6229 244.237 76.5075 246.449 76.5075 246.449C76.5075 246.449 76.4967 246.759 76.3513 247.265C74.3538 248.493 70.4017 249.709 66.4052 245.35Z" fill="#EC8B1E"/>
<path d="M66.2004 243.881C66.2004 243.881 71.8089 241.262 76.4868 246.521C76.4868 246.521 70.4347 248.23 66.2004 243.881Z" fill="#FFBC00"/>
<path d="M75.1731 246.458C75.1731 246.458 74.3456 246.612 73.1978 246.517C71.9777 246.402 70.4165 246.11 68.9076 245.364C68.4426 245.074 67.9052 244.763 67.461 244.4C67.4094 244.307 71.4546 243.04 75.1731 246.458Z" fill="#EC8B1E"/>
<path d="M73.198 246.517C71.9778 246.401 70.4166 246.11 68.9078 245.363C70.0247 245.292 71.6067 245.512 73.198 246.517Z" fill="#D1730C"/>
<path d="M74.5286 257.16C74.1969 257.77 71.0824 259.069 68.1147 258.765C67.4749 257.72 67.0938 256.592 66.8265 255.34C66.6517 254.585 66.5493 253.851 66.6847 253.106C66.914 251.762 67.8669 250.626 69.0777 249.955C70.2678 249.357 71.695 249.297 72.9667 249.505C74.0006 249.724 74.9206 250.066 75.7574 250.698C75.3504 253.48 74.7257 256.747 74.5286 257.16Z" fill="#FFCC5E"/>
<path d="M54.0059 158.68C54.2416 160.314 54.1879 161.865 53.7515 163.385C52.5772 167.747 49.0049 171.186 44.2468 171.935C39.4887 172.684 35.0551 170.392 32.6299 166.563C31.8353 165.238 31.2478 163.738 30.9913 162.176C30.8888 161.442 30.8795 160.656 30.8494 159.942C31.0737 154.523 35.0924 149.802 40.7504 148.92C46.3153 148.09 51.6265 151.417 53.4607 156.486C53.7286 157.19 53.9242 157.873 54.0059 158.68Z" fill="#131313"/>
<path d="M53.222 157.045C53.4577 158.679 53.4039 160.23 52.9676 161.75C51.7933 166.112 48.2209 169.552 43.4628 170.3C38.7255 170.977 34.2712 168.758 31.8459 164.928C31.0514 163.603 30.4638 162.103 30.2074 160.541C30.1049 159.807 30.0956 159.021 30.0655 158.307C30.2898 152.888 34.3085 148.168 39.9665 147.286C45.5314 146.455 50.8426 149.782 52.6767 154.852C52.8516 155.607 53.0471 156.29 53.222 157.045Z" fill="#D53F36"/>
<path d="M52.6559 154.924L30.1379 158.328C30.3621 152.909 34.3808 148.189 40.0389 147.307C45.5313 146.455 50.8426 149.782 52.6559 154.924Z" fill="#131313"/>
<path d="M52.9675 161.75C51.7932 166.112 48.2208 169.552 43.4627 170.3C38.7254 170.977 34.2711 168.758 31.8458 164.928L52.9675 161.75Z" fill="#FDDA5F"/>
<path d="M261.798 73.2626C261.75 74.814 261.409 76.2357 260.777 77.5278C258.952 81.377 255.017 83.9404 250.531 83.8121C246.044 83.6838 242.292 80.8526 240.68 76.8748C240.166 75.5399 239.906 74.0264 239.884 72.5021C239.922 71.7616 239.986 71.0913 240.121 70.394C241.249 65.3612 245.827 61.7436 251.124 61.8824C256.448 62.0915 260.774 65.9927 261.602 71.0789C261.759 71.9059 261.765 72.5491 261.798 73.2626Z" fill="#131313"/>
<path d="M261.014 72.2737C260.545 77.1333 256.93 80.9452 252.444 81.8656C251.995 81.9576 251.617 82.0226 251.141 82.0444C250.455 82.1473 249.714 82.1097 249.044 82.0451C247.536 81.8996 246.06 81.419 244.838 80.76C241.146 78.7125 238.836 74.5998 239.273 70.0754C239.736 65.6212 242.789 62.0257 246.805 60.7217C248.167 60.278 249.707 60.0883 251.215 60.2338C251.956 60.2714 252.583 60.4333 253.307 60.6385C253.961 60.8707 254.615 61.103 255.199 61.3622C259.059 63.4258 261.493 67.652 261.014 72.2737Z" fill="white"/>
<path d="M261.014 72.2733C260.545 77.1329 256.93 80.9448 252.444 81.8652L254.502 61.2269C254.767 61.2863 254.961 61.3727 255.156 61.4591C259.059 63.4254 261.493 67.6516 261.014 72.2733Z" fill="#D53F36"/>
<path d="M244.838 80.76C241.146 78.7125 238.836 74.5998 239.273 70.0754C239.736 65.6212 242.789 62.0257 246.805 60.7217L244.838 80.76Z" fill="#007AFF"/>
<path d="M335.797 227.092C335.164 228.477 334.263 229.706 333.134 230.636C329.966 233.486 325.26 234.328 321.198 232.378C317.116 230.501 314.701 226.361 314.831 222.09C314.864 220.611 315.207 219.143 315.84 217.758C316.099 217.128 316.524 216.467 316.907 215.95C319.922 211.724 325.622 210.149 330.459 212.4C335.296 214.65 337.74 220.052 336.472 225.014C336.316 225.831 336.129 226.482 335.797 227.092Z" fill="#131313"/>
<path d="M328.035 231.208C327.445 231.352 326.856 231.496 326.215 231.547C325.573 231.598 324.932 231.649 324.332 231.555C323.95 231.523 323.64 231.513 323.278 231.409C322.006 231.2 320.797 230.775 319.722 230.153C317.428 228.867 315.672 226.797 314.735 224.334C314.518 223.724 314.374 223.134 314.23 222.544C314.148 222.286 314.158 221.976 314.076 221.717C314.014 221.386 314.025 221.076 314.057 220.693C314.057 220.145 314.058 219.597 314.131 219.07C314.559 216.216 315.979 213.725 318.194 212.012C319.209 211.206 320.327 210.587 321.548 210.154C321.734 210.051 321.899 210.021 322.137 210.01C322.727 209.866 323.316 209.722 323.958 209.672C324.599 209.621 325.24 209.57 325.84 209.664C330.379 209.949 334.274 213.025 335.623 217.329C335.757 217.681 335.798 218.084 335.911 218.509C335.973 218.84 336.035 219.171 336.096 219.502C336.137 219.905 336.157 220.381 336.198 220.784C336.218 221.26 336.166 221.715 336.113 222.17C335.363 226.419 332.297 230.004 328.035 231.208Z" fill="#007AFF"/>
<path d="M323.35 231.43C322.078 231.221 320.869 230.795 319.794 230.174L319.122 222.148L318.858 218.704L318.288 211.96C319.302 211.155 320.42 210.536 321.641 210.103L322.323 218.367L322.587 221.811L323.35 231.43Z" fill="#FDDA5F"/>
<path d="M336.126 220.764L322.566 221.883L319.122 222.148L314.303 222.565C314.22 222.307 314.231 221.997 314.148 221.738C314.087 221.407 314.098 221.097 314.129 220.714C314.13 220.166 314.131 219.618 314.204 219.09L318.786 218.683L322.23 218.418L335.623 217.329C335.757 217.681 335.798 218.085 335.911 218.509C335.973 218.84 336.035 219.171 336.096 219.502C336.065 219.884 336.106 220.288 336.126 220.764Z" fill="#FDDA5F"/>
<path d="M196.5 332.642C279.81 332.642 347.346 328.699 347.346 323.835C347.346 318.971 279.81 315.028 196.5 315.028C113.19 315.028 45.6536 318.971 45.6536 323.835C45.6536 328.699 113.19 332.642 196.5 332.642Z" fill="#F5F5F5"/>
<path d="M75.9099 321.874H317.09L292.972 280.104H100.028L75.9099 321.874Z" fill="#007AFF"/>
<path opacity="0.4" d="M75.9099 321.874H317.09L292.972 280.104H100.028L75.9099 321.874Z" fill="white"/>
<path d="M100.028 280.103H292.972L268.854 238.325H124.146L100.028 280.103Z" fill="#007AFF"/>
<path opacity="0.3" d="M100.028 280.103H292.972L268.854 238.325H124.146L100.028 280.103Z" fill="white"/>
<path d="M148.264 196.554L124.146 238.325H268.854L244.736 196.554H148.264Z" fill="#007AFF"/>
<path opacity="0.2" d="M148.264 196.554L124.146 238.325H268.854L244.736 196.554H148.264Z" fill="white"/>
<path d="M220.618 154.783H172.382L148.264 196.554H244.736L220.618 154.783Z" fill="#007AFF"/>
<path opacity="0.1" d="M220.618 154.783H172.382L148.264 196.554H244.736L220.618 154.783Z" fill="black"/>
<path d="M142.421 94.8461C142.025 95.1417 141.488 95.5619 141.013 95.9509C140.539 96.3399 140.056 96.7289 139.582 97.1879C138.648 98.0437 137.722 98.915 136.851 99.8331C135.128 101.658 133.591 103.649 132.261 105.777C131.973 106.252 131.483 107.053 131.568 106.944C131.469 107.218 131.44 107.512 131.483 107.8C131.648 108.882 131.981 109.932 132.471 110.912C133.613 113.231 134.943 115.453 136.446 117.556L134.26 119.657C132 117.809 130.017 115.648 128.371 113.238C127.427 111.88 126.732 110.365 126.317 108.765C126.053 107.714 126.037 106.617 126.27 105.559C126.336 105.25 126.43 104.948 126.55 104.657C126.634 104.444 126.73 104.236 126.838 104.034L127.328 103.031C128.693 100.396 130.384 97.9443 132.362 95.733C133.331 94.6427 134.357 93.6039 135.435 92.621C135.979 92.1309 136.54 91.6485 137.108 91.1817C137.675 90.7149 138.236 90.2948 138.959 89.7969L142.421 94.8461Z" fill="#B55B52"/>
<path d="M142.942 85.8292C139.115 86.0003 133.35 93.7025 133.35 93.7025L139.504 101C139.504 101 147.284 96.8067 148.139 91.2596C148.552 88.4899 146.708 85.658 142.942 85.8292Z" fill="#007AFF"/>
<path d="M135.482 116.646L140.041 120.536L135.762 121.617C135.762 121.617 133.101 120.061 133.879 117.89L135.482 116.646Z" fill="#B55B52"/>
<path d="M140.072 122.815L137.847 124.97L135.761 121.656L140.04 120.574L140.072 122.815Z" fill="#B55B52"/>
<path d="M171.651 75.9951C171.464 76.3919 171.526 76.8276 171.791 76.9598C172.055 77.0921 172.413 76.8665 172.569 76.4697C172.724 76.0729 172.693 75.6372 172.436 75.505C172.18 75.3727 171.837 75.5905 171.651 75.9951Z" fill="#263238"/>
<path d="M172.335 75.4658L173.432 75.6681C173.432 75.6681 172.584 76.1738 172.335 75.4658Z" fill="#263238"/>
<path d="M171.806 76.5552C171.737 77.6525 171.815 78.7542 172.04 79.8306C171.764 79.8732 171.482 79.8556 171.213 79.779C170.945 79.7025 170.696 79.5688 170.484 79.3871L171.806 76.5552Z" fill="#A02724"/>
<path d="M173.44 73.5834C173.399 73.5734 173.361 73.5518 173.331 73.5212C173.096 73.2836 172.81 73.1031 172.494 72.9939C172.179 72.8846 171.842 72.8494 171.511 72.891C171.477 72.8989 171.442 72.9 171.408 72.894C171.374 72.8881 171.341 72.8753 171.312 72.8563C171.283 72.8374 171.258 72.8128 171.238 72.784C171.219 72.7552 171.206 72.7228 171.199 72.6887C171.186 72.6207 171.199 72.5499 171.237 72.4917C171.275 72.4334 171.334 72.3924 171.402 72.3775C171.817 72.3206 172.24 72.3613 172.637 72.4963C173.034 72.6314 173.394 72.8571 173.689 73.1555C173.713 73.1794 173.732 73.2078 173.746 73.2392C173.759 73.2706 173.766 73.3043 173.766 73.3383C173.766 73.3723 173.759 73.406 173.746 73.4374C173.732 73.4688 173.713 73.4973 173.689 73.5212C173.656 73.5518 173.616 73.5736 173.573 73.5845C173.529 73.5954 173.483 73.595 173.44 73.5834Z" fill="#263238"/>
<path d="M156.534 76.3608C156.643 79.6985 155.211 85.0822 152.597 86.786C152.597 86.786 154.286 90.396 160.292 91.5552C166.897 92.8389 163.987 88.91 163.987 88.91C160.525 87.354 161.054 84.7088 162.097 82.3359L156.534 76.3608Z" fill="#B55B52"/>
<path d="M173.627 94.9624C173.93 96.6584 174.249 98.4634 174.623 100.206C174.996 101.949 175.338 103.73 175.751 105.473C176.163 107.216 176.591 108.951 177.05 110.67C177.276 111.534 177.532 112.382 177.781 113.23L178.443 115.292C178.715 115.723 179.079 116.09 179.508 116.365C180.134 116.793 180.795 117.165 181.484 117.478C183.039 118.196 184.643 118.802 186.285 119.29C187.957 119.827 189.692 120.286 191.443 120.699C193.193 121.111 194.967 121.477 196.71 121.858L196.43 124.884C192.649 124.828 188.88 124.446 185.164 123.741C183.234 123.381 181.337 122.86 179.493 122.185C178.486 121.813 177.517 121.347 176.599 120.792C175.44 120.134 174.456 119.208 173.728 118.092C173.618 117.919 173.516 117.74 173.424 117.556L173.292 117.26L173.191 117.011L172.934 116.342L172.429 115.011C172.11 114.117 171.783 113.23 171.487 112.327C170.888 110.538 170.344 108.733 169.877 106.881C168.888 103.247 168.109 99.558 167.543 95.8338L173.627 94.9624Z" fill="#B55B52"/>
<path d="M216.907 102.136L186.184 139.324L233.751 147.338L216.907 102.136Z" fill="#007AFF"/>
<path d="M195.722 122.146L200.087 120.66L200.592 124.737C200.592 124.737 196.609 126.869 195.146 123.959L195.722 122.146Z" fill="#B55B52"/>
<path d="M202.343 121.983L203.79 125.818L200.561 124.745L200.055 120.668L202.343 121.983Z" fill="#B55B52"/>
<path d="M140.974 246.851L146.49 247.256L148.132 234.59L142.616 234.186L140.974 246.851Z" fill="#B55B52"/>
<path d="M106.057 231.572L111.13 233.929L117.922 223.177L112.849 220.82L106.057 231.572Z" fill="#B55B52"/>
<path d="M112.476 232.715L107.489 228.88C107.409 228.808 107.305 228.768 107.197 228.768C107.089 228.768 106.985 228.808 106.905 228.88L103.397 232.28C103.312 232.371 103.247 232.478 103.206 232.596C103.166 232.714 103.151 232.839 103.162 232.963C103.173 233.087 103.21 233.207 103.27 233.316C103.331 233.425 103.414 233.52 103.513 233.594C105.279 234.901 106.197 235.446 108.391 237.126C109.737 238.161 111.612 239.818 113.472 241.25C115.331 242.681 116.809 240.962 116.164 240.207C113.238 236.808 113.456 235.384 113.052 233.524C112.953 233.199 112.751 232.915 112.476 232.715Z" fill="#263238"/>
<path d="M146.84 246.47H140.616C140.508 246.469 140.402 246.507 140.32 246.577C140.237 246.647 140.182 246.744 140.165 246.851L139.333 251.761C139.315 251.883 139.323 252.008 139.358 252.126C139.393 252.245 139.453 252.355 139.535 252.448C139.616 252.541 139.716 252.616 139.829 252.666C139.942 252.717 140.065 252.742 140.188 252.741C142.351 252.702 143.394 252.578 146.125 252.578C147.805 252.578 151.267 252.749 153.586 252.749C155.904 252.749 156.083 250.461 155.142 250.251C150.839 249.318 149.167 248.034 147.743 246.813C147.491 246.597 147.172 246.476 146.84 246.47Z" fill="#263238"/>
<path opacity="0.2" d="M148.132 234.598L147.221 241.631L141.768 240.721L142.608 234.186L148.132 234.598Z" fill="black"/>
<path opacity="0.2" d="M112.849 220.828L117.922 223.185L114.911 227.946L109.948 225.41L112.849 220.828Z" fill="black"/>
<path d="M141.386 119.431L163.521 123.702C173.977 92.9164 171.472 91.9206 171.472 91.9206C169.848 91.042 168.172 90.2625 166.454 89.5866L166.158 89.4699C164.742 88.9564 164.446 88.8786 162.548 88.3262C159.288 87.5482 156.254 86.9258 152.504 86.389C152.263 86.389 152.022 86.3112 151.788 86.2879C151.104 86.2023 150.427 86.1322 149.781 86.07C149.338 86.0155 148.902 85.9922 148.482 85.9611L147.05 85.8833C144.631 85.7666 142.904 85.7977 142.904 85.7977C144.164 105.03 143.238 110.554 141.386 119.431Z" fill="#007AFF"/>
<path opacity="0.2" d="M166.998 101.311C166.364 104.53 166.587 107.86 167.644 110.966C169.48 104.944 170.53 100.852 171.091 98.0124C169.395 97.7946 167.59 98.3392 166.998 101.311Z" fill="black"/>
<path d="M171.285 91.843C174.973 94.247 177.33 99.623 177.952 102.681L169.394 109.683C169.394 109.683 164.726 99.2651 166.282 96.6044C167.846 93.8036 169.892 90.925 171.285 91.843Z" fill="#007AFF"/>
<path d="M158.767 68.1917C156.775 73.272 155.818 75.3804 157.126 79.1537C159.086 84.8253 165.738 86.3658 169.2 82.0245C172.312 78.1345 175.066 70.4712 171.161 66.1067C170.343 65.1362 169.287 64.3957 168.096 63.9582C166.905 63.5207 165.62 63.4014 164.369 63.6119C163.117 63.8224 161.943 64.3555 160.96 65.1587C159.978 65.9618 159.222 67.0072 158.767 68.1917Z" fill="#B55B52"/>
<path d="M168.173 73.7542C167.926 74.7403 167.991 75.7789 168.36 76.7262C168.866 78.0644 169.916 78.0332 170.422 77.0841C170.927 76.1349 171.2 74.5011 170.367 73.443C169.535 72.385 168.492 72.665 168.173 73.7542Z" fill="#B55B52"/>
<path d="M159.397 59.517C157.928 59.3138 156.433 59.5941 155.138 60.3155C153.843 61.0369 152.817 62.1603 152.216 63.5159C150.341 67.2892 148.544 72.2684 145.86 71.2336C146.366 72.0116 147.961 72.8752 148.505 72.5173C146.692 74.3301 146.335 75.8005 145.946 79.5193C145.463 84.1173 142.919 83.1059 142.919 83.1059C142.919 83.1059 145.891 87.9217 155.624 89.6256C164.275 91.1816 168.282 89.2054 169.449 87.5872C168.251 87.1982 166.384 82.9192 168.025 80.4918C169.667 78.0645 172.507 71.3503 172.04 68.6585C173.09 70.3234 173.144 72.9686 174.024 70.3078C174.903 67.6471 175.3 64.8618 172.04 61.5553C169.138 58.5756 160.665 57.1207 159.397 59.517Z" fill="#263238"/>
<path d="M157.678 122.589C157.678 122.589 146.895 158.712 141.628 179.484C136.073 201.416 117.144 227.176 117.144 227.176L110.142 223.286C110.142 223.286 121.625 198.678 127.009 178.208C137.901 136.655 132.681 127.849 141.394 119.407L157.678 122.589Z" fill="#263238"/>
<path d="M117.797 227.861L109.099 223.006L110.367 220.438L120.629 225.161L117.797 227.861Z" fill="#007AFF"/>
<path opacity="0.2" d="M152.613 130.276C145.541 135.722 145.066 156.518 145.23 165.909C148.824 152.784 153.08 138.181 155.569 129.724C154.893 129.148 153.912 129.273 152.613 130.276Z" fill="black"/>
<path d="M114.608 235.011C114.545 235.034 114.48 235.05 114.413 235.057C113.713 235.12 112.803 234.163 112.328 233.579C112.315 233.558 112.308 233.534 112.308 233.509C112.308 233.484 112.315 233.46 112.328 233.439C112.344 233.416 112.368 233.399 112.395 233.392C112.422 233.385 112.451 233.388 112.476 233.4C112.709 233.4 114.717 233.61 115.043 234.233C115.083 234.3 115.104 234.376 115.104 234.454C115.104 234.532 115.083 234.609 115.043 234.676C114.944 234.837 114.789 234.956 114.608 235.011ZM112.74 233.665C113.402 234.443 114.009 234.832 114.39 234.801C114.471 234.79 114.548 234.759 114.613 234.71C114.679 234.661 114.73 234.595 114.763 234.52C114.78 234.491 114.789 234.457 114.789 234.423C114.789 234.389 114.78 234.356 114.763 234.326C114.6 233.999 113.542 233.766 112.74 233.665Z" fill="#007AFF"/>
<path d="M163.186 123.702C163.186 123.702 164.563 167.387 161.474 183.834C158.269 200.95 148.489 239.85 148.489 239.85L140.538 238.846C140.538 238.846 145.564 199.518 147.704 182.519C150.038 163.979 146.98 120.559 146.98 120.559L163.186 123.702Z" fill="#263238"/>
<path d="M150.186 240.347L138.842 238.885L138.982 236.193L151.321 236.73L150.186 240.347Z" fill="#007AFF"/>
<path d="M114.125 233.345C113.581 233.568 112.993 233.663 112.406 233.626C112.384 233.622 112.363 233.613 112.345 233.6C112.328 233.586 112.314 233.568 112.305 233.548C112.295 233.527 112.29 233.504 112.29 233.482C112.29 233.459 112.295 233.436 112.305 233.415C112.351 233.369 113.301 232.14 114.094 232.085C114.198 232.074 114.303 232.086 114.401 232.121C114.5 232.156 114.589 232.213 114.662 232.287C114.745 232.352 114.802 232.443 114.825 232.545C114.848 232.647 114.834 232.754 114.787 232.848C114.629 233.084 114.396 233.259 114.125 233.345ZM112.686 233.384C113.363 233.384 114.405 233.073 114.569 232.731C114.569 232.676 114.615 232.591 114.491 232.474C114.445 232.427 114.389 232.39 114.327 232.368C114.265 232.345 114.199 232.336 114.133 232.342C113.659 232.373 113.028 232.995 112.686 233.4V233.384Z" fill="#007AFF"/>
<path d="M148.887 247.404C148.303 247.393 147.723 247.328 147.152 247.209C147.125 247.204 147.101 247.191 147.083 247.172C147.065 247.152 147.053 247.127 147.05 247.1C147.047 247.074 147.052 247.047 147.065 247.023C147.077 247 147.097 246.981 147.12 246.968C147.377 246.836 149.61 245.708 150.271 246.089C150.335 246.121 150.388 246.17 150.425 246.23C150.462 246.291 150.482 246.36 150.481 246.431C150.497 246.55 150.482 246.671 150.438 246.782C150.395 246.893 150.324 246.992 150.232 247.069C149.835 247.331 149.36 247.449 148.887 247.404ZM147.595 247.023C148.809 247.225 149.719 247.17 150.061 246.875C150.119 246.822 150.163 246.756 150.192 246.684C150.22 246.611 150.231 246.533 150.225 246.455C150.224 246.427 150.217 246.399 150.203 246.375C150.19 246.351 150.17 246.33 150.147 246.315C149.82 246.143 148.513 246.626 147.595 247.054V247.023Z" fill="#007AFF"/>
<path d="M147.183 247.241C147.157 247.249 147.13 247.249 147.105 247.241C147.085 247.229 147.07 247.211 147.06 247.191C147.05 247.17 147.047 247.147 147.05 247.124C147.05 247.023 147.315 244.79 148.552 244.79H148.661C149.019 244.829 149.12 245.008 149.143 245.156C149.244 245.778 147.906 246.968 147.237 247.272L147.183 247.241ZM148.56 245.008C147.782 245.008 147.447 246.315 147.346 246.875C148.038 246.471 148.941 245.529 148.902 245.156C148.902 245.156 148.902 245.031 148.645 245.008H148.56Z" fill="#007AFF"/>
<path d="M141.262 118.077L139.939 119.859C139.838 119.991 139.994 120.186 140.251 120.232L163.458 124.729C163.661 124.768 163.84 124.729 163.871 124.581L164.4 122.652C164.439 122.512 164.283 122.364 164.065 122.325L141.651 117.984C141.584 117.965 141.512 117.964 141.444 117.98C141.376 117.996 141.314 118.03 141.262 118.077Z" fill="#007AFF"/>
<path opacity="0.3" d="M141.262 118.077L139.939 119.859C139.838 119.991 139.994 120.186 140.251 120.232L163.458 124.729C163.661 124.768 163.84 124.729 163.871 124.581L164.4 122.652C164.439 122.512 164.283 122.364 164.065 122.325L141.651 117.984C141.584 117.965 141.512 117.964 141.444 117.98C141.376 117.996 141.314 118.03 141.262 118.077Z" fill="black"/>
<path d="M143.868 121.15L143.269 121.041C143.153 121.041 143.067 120.932 143.09 120.862L143.798 118.357C143.798 118.287 143.931 118.241 144.047 118.264L144.654 118.381C144.771 118.381 144.849 118.482 144.833 118.56L144.125 121.065C144.102 121.135 143.993 121.174 143.868 121.15Z" fill="#263238"/>
<path d="M159.024 124.122L158.425 124.005C158.308 124.005 158.23 123.904 158.246 123.834L158.954 121.329C158.954 121.259 159.086 121.212 159.203 121.236L159.809 121.352C159.926 121.352 160.004 121.453 159.988 121.531L159.28 124.036C159.265 124.106 159.156 124.145 159.024 124.122Z" fill="#263238"/>
<path d="M125.873 323.259H127.802L133.311 296.122L134.275 291.369L140.282 261.805H163.31L175.758 323.267H177.688L164.968 260.676C164.931 260.458 164.817 260.26 164.648 260.117C164.478 259.975 164.263 259.897 164.042 259.898H139.511C139.29 259.897 139.075 259.975 138.905 260.117C138.736 260.26 138.622 260.458 138.586 260.676L133.311 286.646L132.346 291.392L125.873 323.259Z" fill="#263238"/>
<path d="M88.9026 323.259H90.832L103.28 261.797H126.301L132.307 291.361L133.272 296.099L138.78 323.235H140.71L134.237 291.337L133.272 286.607L128.036 260.669C127.999 260.45 127.886 260.252 127.716 260.109C127.546 259.967 127.332 259.889 127.11 259.891H102.549C102.327 259.889 102.112 259.967 101.943 260.109C101.773 260.252 101.66 260.45 101.623 260.669L88.9026 323.259Z" fill="#263238"/>
<path d="M166.796 252.749H99.8257C99.0642 252.748 98.31 252.897 97.6064 253.188C96.9027 253.479 96.2633 253.906 95.7249 254.444C95.1865 254.983 94.7596 255.622 94.4687 256.326C94.1778 257.03 94.0285 257.784 94.0296 258.545V258.74C94.0285 259.017 94.0823 259.292 94.1878 259.549C94.2933 259.806 94.4484 260.039 94.6443 260.236C94.8402 260.432 95.073 260.588 95.3293 260.695C95.5856 260.801 95.8604 260.856 96.1379 260.856H170.484C170.761 260.856 171.036 260.801 171.292 260.695C171.549 260.588 171.781 260.432 171.977 260.236C172.173 260.039 172.328 259.806 172.434 259.549C172.539 259.292 172.593 259.017 172.592 258.74V258.545C172.593 257.784 172.444 257.03 172.153 256.326C171.862 255.622 171.435 254.983 170.897 254.444C170.358 253.906 169.719 253.479 169.015 253.188C168.311 252.897 167.557 252.748 166.796 252.749Z" fill="#007AFF"/>
<path d="M292.972 165.208C294.614 168.234 296.131 171.261 297.586 174.357C299.041 177.454 300.402 180.581 301.67 183.81L302.137 185.024L302.37 185.638L302.503 185.996L302.697 186.611C303.056 187.949 303.104 189.351 302.837 190.711C302.451 192.712 301.75 194.64 300.76 196.421C299.907 198.028 298.935 199.567 297.85 201.027C296.798 202.468 295.652 203.838 294.419 205.127L290.934 202.63C292.331 199.752 293.555 196.793 294.598 193.768C295.044 192.493 295.319 191.164 295.415 189.816C295.415 189.303 295.33 188.89 295.267 188.906L295.166 188.688L294.894 188.136L294.357 187.031C292.894 184.074 291.377 181.11 289.852 178.146L285.317 169.238L292.972 165.208Z" fill="#FF8B7B"/>
<path d="M291.572 201.875L288.304 203.68L293.213 207.881C293.213 207.881 295.252 205.866 294.902 203.439L291.572 201.875Z" fill="#FF8B7B"/>
<path d="M285.153 206.862L289.378 210.138L293.198 207.874L288.288 203.68L285.153 206.862Z" fill="#FF8B7B"/>
<path d="M267.695 143.494C267.625 143.899 267.36 144.194 267.104 144.147C266.847 144.101 266.676 143.751 266.738 143.369C266.8 142.988 267.065 142.669 267.329 142.716C267.594 142.763 267.757 143.089 267.695 143.494Z" fill="#263238"/>
<path d="M267.399 144.194C266.724 145.34 265.894 146.388 264.933 147.306C265.177 147.548 265.472 147.732 265.796 147.847C266.121 147.961 266.466 148.002 266.808 147.968L267.399 144.194Z" fill="#FF5652"/>
<path d="M269.508 141.487C269.476 141.487 269.444 141.481 269.415 141.469C269.386 141.457 269.359 141.439 269.336 141.417C269.129 141.2 268.872 141.035 268.588 140.936C268.304 140.837 268 140.808 267.703 140.849C267.641 140.861 267.577 140.848 267.525 140.813C267.472 140.778 267.436 140.724 267.423 140.662C267.416 140.632 267.415 140.601 267.42 140.571C267.426 140.54 267.437 140.511 267.453 140.485C267.47 140.459 267.492 140.436 267.517 140.419C267.543 140.401 267.571 140.389 267.602 140.382C267.979 140.32 268.365 140.351 268.727 140.473C269.09 140.595 269.416 140.805 269.679 141.082C269.701 141.104 269.719 141.13 269.731 141.159C269.743 141.188 269.749 141.219 269.749 141.25C269.749 141.281 269.743 141.312 269.731 141.341C269.719 141.369 269.701 141.395 269.679 141.417C269.656 141.439 269.63 141.457 269.6 141.469C269.571 141.481 269.539 141.487 269.508 141.487Z" fill="#263238"/>
<path d="M281.139 147.937C280.415 151.64 279.692 158.416 282.282 160.882C282.282 160.882 281.271 164.64 274.393 164.64C266.831 164.64 270.784 160.882 270.784 160.882C274.907 159.902 274.798 156.837 274.082 153.966L281.139 147.937Z" fill="#FF8B7B"/>
<path d="M286.367 164.64C286.262 164.432 286.188 164.209 286.149 163.979C285.48 160.377 282.663 157.545 279.015 157.405C275.125 157.265 270.822 157.918 268.247 160.945C267.119 162.267 268.372 164.204 268.372 164.204L286.367 164.64Z" fill="#007AFF"/>
<path d="M298.348 315.626H298.301C298.212 315.576 298.141 315.498 298.099 315.404C298.057 315.31 298.046 315.206 298.068 315.105C298.072 315.024 298.095 314.945 298.134 314.873C298.173 314.802 298.228 314.74 298.294 314.693C298.893 314.234 300.558 314.514 300.628 314.529C300.65 314.534 300.671 314.545 300.689 314.56C300.707 314.574 300.72 314.594 300.729 314.615C300.734 314.638 300.732 314.662 300.723 314.684C300.715 314.706 300.701 314.725 300.682 314.739C300.278 315.035 298.939 315.868 298.348 315.626ZM300.301 314.701C299.679 314.57 299.031 314.627 298.441 314.864C298.401 314.891 298.367 314.926 298.343 314.968C298.319 315.01 298.304 315.057 298.301 315.105C298.301 315.323 298.379 315.377 298.41 315.393C298.729 315.564 299.671 315.128 300.301 314.701Z" fill="#007AFF"/>
<path d="M299.764 314.522C299.188 314.296 298.574 313.923 298.488 313.565C298.467 313.477 298.478 313.385 298.518 313.304C298.557 313.223 298.624 313.159 298.706 313.122C298.783 313.073 298.869 313.041 298.958 313.027C299.048 313.014 299.14 313.019 299.227 313.044C299.959 313.231 300.682 314.514 300.713 314.6C300.724 314.617 300.73 314.637 300.73 314.658C300.73 314.679 300.724 314.699 300.713 314.716C300.702 314.735 300.686 314.75 300.667 314.761C300.648 314.772 300.626 314.778 300.604 314.779C300.314 314.732 300.031 314.645 299.764 314.522ZM299.251 313.301H299.173C299.116 313.284 299.056 313.28 298.997 313.288C298.938 313.296 298.881 313.316 298.83 313.347C298.698 313.425 298.714 313.495 298.722 313.526C298.799 313.861 299.733 314.351 300.371 314.491C300.106 314.004 299.72 313.594 299.251 313.301Z" fill="#007AFF"/>
<path d="M260.078 318.926C259.432 318.926 258.802 318.84 258.592 318.544C258.539 318.468 258.511 318.377 258.511 318.284C258.511 318.191 258.539 318.1 258.592 318.023C258.633 317.953 258.688 317.892 258.754 317.844C258.82 317.796 258.894 317.761 258.973 317.743C259.814 317.517 261.587 318.521 261.657 318.568C261.679 318.578 261.697 318.594 261.708 318.615C261.72 318.637 261.724 318.661 261.72 318.684C261.716 318.71 261.705 318.734 261.686 318.752C261.668 318.771 261.644 318.782 261.619 318.785C261.11 318.876 260.595 318.923 260.078 318.926ZM259.3 317.945C259.223 317.934 259.144 317.934 259.067 317.945C258.971 317.967 258.887 318.026 258.833 318.109C258.748 318.256 258.779 318.334 258.833 318.373C259.067 318.7 260.35 318.708 261.292 318.575C260.668 318.236 259.983 318.022 259.277 317.945H259.3Z" fill="#007AFF"/>
<path d="M261.603 318.785H261.556C260.95 318.513 259.736 317.416 259.829 316.848C259.829 316.708 259.946 316.545 260.273 316.513C260.392 316.499 260.513 316.51 260.628 316.545C260.744 316.579 260.85 316.638 260.942 316.716C261.4 317.269 261.672 317.952 261.72 318.669C261.72 318.689 261.715 318.709 261.706 318.726C261.696 318.744 261.682 318.759 261.665 318.77C261.647 318.782 261.625 318.788 261.603 318.785ZM260.374 316.739H260.296C260.078 316.739 260.063 316.848 260.063 316.879C260 317.221 260.841 318.077 261.448 318.435C261.395 317.859 261.16 317.314 260.778 316.879C260.665 316.785 260.521 316.735 260.374 316.739Z" fill="#007AFF"/>
<path d="M267.166 318.669H262.109L261.611 306.952H266.668L267.166 318.669Z" fill="#FF8B7B"/>
<path d="M306.128 313.394L301.39 314.475L295.858 303.248L300.596 302.159L306.128 313.394Z" fill="#FF8B7B"/>
<path d="M300.705 313.938L305.871 311.604C305.962 311.562 306.065 311.552 306.163 311.576C306.26 311.6 306.347 311.657 306.408 311.736L309.193 315.409C309.254 315.501 309.295 315.605 309.313 315.714C309.331 315.823 309.325 315.934 309.297 316.041C309.268 316.148 309.217 316.247 309.147 316.333C309.077 316.418 308.989 316.488 308.89 316.537C307.077 317.315 306.151 317.626 303.88 318.668C302.487 319.306 297.547 322.792 295.469 323.235C293.392 323.679 292.684 321.679 293.493 321.321C296.378 319.876 298.7 317.511 300.091 314.599C300.204 314.309 300.424 314.073 300.705 313.938Z" fill="#263238"/>
<path d="M262.148 318.085H267.672C267.771 318.086 267.867 318.12 267.945 318.182C268.022 318.244 268.077 318.331 268.1 318.427L269.095 322.924C269.122 323.033 269.122 323.146 269.098 323.255C269.074 323.364 269.025 323.466 268.955 323.553C268.885 323.64 268.796 323.71 268.695 323.757C268.594 323.805 268.483 323.829 268.372 323.827C266.38 323.788 263.502 323.671 260.996 323.671C258.063 323.671 255.55 323.834 252.104 323.834C250.027 323.834 249.451 321.734 250.322 321.547C254.274 320.676 257.503 320.582 260.926 318.474C261.289 318.233 261.712 318.098 262.148 318.085Z" fill="#263238"/>
<path d="M283.877 170.615C284.406 171.977 284.982 173.299 285.573 174.505C286.577 176.653 287.581 178.528 288.312 179.827C288.965 180.994 289.393 181.686 289.393 181.686L300.441 176.24C300.441 176.24 295.991 163.442 291.338 162.018C286.686 160.595 281.489 164.516 283.877 170.615Z" fill="#263238"/>
<path opacity="0.2" d="M288.771 171.883C287.814 172.591 287.121 174.497 286.631 176.73C287.262 177.959 287.845 179.064 288.312 179.842C288.965 181.009 289.385 181.702 289.385 181.702L290.654 181.071C290.626 177.916 289.987 174.795 288.771 171.883Z" fill="black"/>
<path d="M260.514 178.776C260.514 180.496 260.553 182.394 260.654 184.479C260.903 190.151 261.518 197.223 262.708 206.006H289.759C289.946 201.86 287.332 181.593 291.315 162.026C288.324 161.452 285.299 161.07 282.259 160.882C278.429 160.664 274.59 160.664 270.76 160.882C268.135 161.152 265.534 161.623 262.98 162.29C262.98 162.29 260.506 165.107 260.514 178.776Z" fill="#263238"/>
<path opacity="0.2" d="M261.308 175.127C261.059 175.672 260.794 176.224 260.53 176.816C260.53 177.446 260.53 178.099 260.53 178.776C260.53 179.049 260.53 179.329 260.53 179.609C263.891 177.563 266.092 173.268 266.092 173.268L261.308 175.127Z" fill="black"/>
<path d="M268.652 171.447L267.874 171.93L267.189 172.327C266.73 172.599 266.302 172.793 265.867 173.035C264.995 173.463 264.139 173.867 263.276 174.256C261.556 175.034 259.798 175.688 258.032 176.31C254.387 177.603 250.599 178.455 246.751 178.846C246.23 178.846 245.748 178.947 245.195 178.94H243.803H243.515C242.246 178.844 241 178.545 239.827 178.053C237.969 177.273 236.203 176.292 234.56 175.127C231.509 173.002 228.692 170.559 226.157 167.838L228.865 164.508C231.868 166.173 234.933 167.915 237.929 169.3C239.318 169.972 240.763 170.524 242.247 170.95C242.731 171.091 243.235 171.157 243.74 171.144L244.721 171.051C245.063 171.051 245.452 170.942 245.818 170.895C248.992 170.298 252.1 169.394 255.099 168.195C256.655 167.612 258.211 166.958 259.72 166.297C260.498 165.955 261.222 165.612 261.938 165.255L262.965 164.718L263.439 164.469L263.813 164.251L268.652 171.447Z" fill="#FF8B7B"/>
<path d="M229.806 165.558L226.647 161.481L223.442 166.873C223.442 166.873 226.391 169.067 228.748 168.67L229.806 165.558Z" fill="#FF8B7B"/>
<path d="M221.925 159.824L220.245 164.274L223.442 166.873L226.648 161.481L221.925 159.824Z" fill="#FF8B7B"/>
<path d="M273.219 170.32C270.597 174.381 256.336 178.823 256.336 178.823L250.843 167.527C254.658 165.296 258.721 163.52 262.949 162.236C272.052 159.747 276.369 165.442 273.219 170.32Z" fill="#263238"/>
<path opacity="0.2" d="M261.611 306.959L261.868 312.997H266.925L266.668 306.959H261.611Z" fill="black"/>
<path opacity="0.2" d="M300.596 302.167L295.858 303.256L298.714 309.045L303.452 307.955L300.596 302.167Z" fill="black"/>
<path d="M281.302 144.747C280.221 149.648 279.839 152.573 276.937 154.721C272.581 157.957 266.823 154.721 266.419 149.609C266.053 144.988 267.881 137.752 273.032 136.539C274.167 136.265 275.353 136.287 276.478 136.602C277.602 136.916 278.628 137.513 279.457 138.336C280.285 139.158 280.89 140.179 281.213 141.301C281.536 142.423 281.567 143.609 281.302 144.747Z" fill="#FF8B7B"/>
<path d="M285.807 132.734C290.109 132.851 291.673 140.001 290.389 142.133C290.389 142.133 289.012 142.911 287.339 145.532C284.803 149.531 281.567 153.857 277.77 153.6C273.055 153.274 272.324 147.828 272.487 142.763C269.998 140.429 268.636 140.242 267.415 136.858C263.642 126.425 270.893 121.197 285.807 132.734Z" fill="#263238"/>
<path d="M274.518 144.272C274.385 145.538 273.838 146.725 272.962 147.649C271.787 148.855 270.628 148.045 270.488 146.521C270.356 145.151 270.807 142.88 272.207 142.242C273.608 141.604 274.658 142.74 274.518 144.272Z" fill="#FF8B7B"/>
<path d="M272.301 206.006C272.301 206.006 271.717 242.004 276.237 256.117C283.403 278.469 295.687 308.539 295.687 308.539L304.93 306.205C304.93 306.205 294.746 275.723 291.439 256.895C288.468 239.982 289.728 219.847 289.728 206.03L272.301 206.006Z" fill="#007AFF"/>
<path opacity="0.2" d="M277.35 212.191C278.307 218.68 274.923 236.737 273.756 242.65C272.526 231.595 272.301 218.478 272.285 211.32C274.759 209.64 276.906 209.204 277.35 212.191Z" fill="black"/>
<path d="M293.244 305.816C293.205 305.816 295.508 308.742 295.508 308.742L305.622 306.166L304.502 302.735L293.244 305.816Z" fill="#007AFF"/>
<path opacity="0.2" d="M293.244 305.816C293.205 305.816 295.508 308.742 295.508 308.742L305.622 306.166L304.502 302.735L293.244 305.816Z" fill="white"/>
<path d="M262.7 206.006C262.7 206.006 255.083 238.301 254.547 253.729C253.948 271.024 259.993 311.83 259.993 311.83H268.551C268.551 311.83 269.632 270.744 269.99 254.95C270.41 237.772 280.524 206.006 280.524 206.006H262.7Z" fill="#007AFF"/>
<path d="M258.336 308.415C258.297 308.415 258.818 311.97 258.818 311.97H269.243L269.523 308.796L258.336 308.415Z" fill="#007AFF"/>
<path opacity="0.2" d="M258.336 308.415C258.297 308.415 258.818 311.97 258.818 311.97H269.243L269.523 308.796L258.336 308.415Z" fill="white"/>
</svg>
