<svg width="600" height="500" viewBox="0 0 600 500" fill="none" xmlns="http://www.w3.org/2000/svg">
<g clip-path="url(#clip0_500_30617)">
<path d="M93.9559 74.0175C31.1544 127.111 17.2144 258.968 71.6808 321.834C83.6088 335.545 98.5547 346.484 115.081 353.631C132.183 360.924 144.973 356.84 162.793 356.695C188.374 356.403 195.991 382.658 208.062 400.161C224.014 423.061 247.295 441.148 272.732 451.795C407.245 507.66 549.95 357.278 524.369 222.357C515.172 173.64 491.172 140.676 446.334 119.672C407.82 101.585 364.707 96.48 322.312 92.8335C303.486 91.229 282.361 89.3329 266.121 78.3933C259.223 73.7258 250.295 66.7303 243.684 62.5003C236.786 58.1245 230.481 54.1805 222.721 50.9716C210.074 45.8665 196.565 43.241 182.913 42.8035C156.326 41.9283 129.452 49.513 107.034 64.099C102.722 67.1621 98.2673 70.5169 93.9559 74.0175Z" fill="#00254C"/>
<path fill-rule="evenodd" clip-rule="evenodd" d="M504.713 255.65C502.573 254.827 499.945 254.573 496.69 255.039C496.258 255.101 495.859 254.796 495.798 254.357C495.737 253.919 496.038 253.514 496.47 253.452C499.917 252.959 502.824 253.21 505.272 254.152C505.68 254.308 505.885 254.771 505.731 255.185C505.576 255.599 505.12 255.807 504.713 255.65ZM489.083 256.197C489.234 256.613 489.025 257.073 488.616 257.226C486.236 258.116 483.639 259.264 480.803 260.69C480.412 260.886 479.939 260.724 479.745 260.328C479.552 259.931 479.711 259.45 480.102 259.254C482.979 257.807 485.628 256.636 488.07 255.722C488.479 255.569 488.933 255.782 489.083 256.197ZM510.899 259.796C511.272 259.567 511.757 259.688 511.983 260.066C513.363 262.376 514.37 265.183 515.132 268.359C515.235 268.789 514.975 269.222 514.551 269.327C514.128 269.432 513.701 269.168 513.598 268.738C512.858 265.656 511.9 263.019 510.633 260.897C510.407 260.518 510.526 260.026 510.899 259.796ZM473.663 263.654C473.881 264.037 473.751 264.527 473.373 264.748C472.158 265.458 470.908 266.21 469.621 267.003C468.431 267.737 467.257 268.479 466.099 269.227C465.731 269.465 465.243 269.355 465.009 268.982C464.775 268.608 464.883 268.113 465.251 267.875C466.419 267.121 467.602 266.374 468.801 265.634C470.098 264.834 471.359 264.076 472.585 263.359C472.963 263.138 473.445 263.27 473.663 263.654ZM459.432 272.754C459.682 273.117 459.594 273.616 459.236 273.869C456.955 275.482 454.735 277.125 452.57 278.795C452.223 279.062 451.728 278.994 451.464 278.641C451.2 278.289 451.268 277.786 451.615 277.519C453.796 275.836 456.034 274.18 458.333 272.554C458.691 272.301 459.183 272.39 459.432 272.754ZM515.722 276.333C516.155 276.281 516.548 276.594 516.6 277.034C516.923 279.777 517.168 282.689 517.38 285.729C517.411 286.17 517.083 286.553 516.648 286.584C516.213 286.616 515.836 286.283 515.805 285.842C515.594 282.816 515.351 279.931 515.032 277.224C514.98 276.784 515.29 276.385 515.722 276.333ZM95.8463 283.211C95.8537 282.769 96.2131 282.416 96.6491 282.423C99.5361 282.473 102.404 282.601 105.242 282.814C105.677 282.846 106.003 283.231 105.971 283.672C105.939 284.113 105.56 284.445 105.126 284.412C102.319 284.201 99.4814 284.075 96.6224 284.026C96.1864 284.018 95.839 283.653 95.8463 283.211ZM88.8617 283.272C88.876 283.714 88.5343 284.085 88.0985 284.099C85.2652 284.193 82.4226 284.355 79.5808 284.577C79.146 284.611 78.7665 284.281 78.7331 283.839C78.6997 283.398 79.025 283.013 79.4597 282.979C82.3233 282.755 85.1891 282.593 88.0467 282.497C88.4825 282.483 88.8474 282.83 88.8617 283.272ZM446.213 282.864C446.49 283.206 446.443 283.711 446.106 283.992C443.964 285.787 441.876 287.608 439.837 289.453C439.512 289.747 439.013 289.718 438.722 289.388C438.432 289.058 438.461 288.551 438.786 288.257C440.839 286.399 442.943 284.564 445.101 282.756C445.438 282.475 445.935 282.523 446.213 282.864ZM112.921 284.422C112.982 283.984 113.381 283.679 113.813 283.741C116.692 284.153 119.527 284.666 122.304 285.29C122.73 285.386 122.999 285.813 122.905 286.246C122.811 286.678 122.389 286.95 121.963 286.855C119.228 286.241 116.434 285.734 113.592 285.328C113.16 285.266 112.86 284.86 112.921 284.422ZM71.7815 284.525C71.832 284.964 71.5219 285.362 71.0888 285.413C68.2531 285.749 65.4289 286.138 62.6267 286.574C62.1957 286.641 61.7928 286.34 61.7269 285.903C61.6609 285.466 61.9567 285.057 62.3877 284.99C65.2077 284.551 68.0506 284.16 70.9059 283.822C71.339 283.77 71.731 284.085 71.7815 284.525ZM54.8368 287.094C54.917 287.529 54.6346 287.948 54.2061 288.029C51.379 288.567 48.5866 289.145 45.8402 289.758C45.4144 289.853 44.9933 289.579 44.8997 289.147C44.8062 288.715 45.0756 288.288 45.5014 288.193C48.2633 287.577 51.0718 286.995 53.9155 286.454C54.3441 286.373 54.7565 286.659 54.8368 287.094ZM129.643 288.079C129.776 287.657 130.22 287.425 130.635 287.559C133.411 288.459 136.111 289.49 138.72 290.663C139.118 290.842 139.298 291.315 139.122 291.72C138.945 292.124 138.479 292.307 138.08 292.128C135.527 290.98 132.881 289.969 130.155 289.086C129.74 288.951 129.511 288.5 129.643 288.079ZM38.1123 290.77C38.2186 291.199 37.962 291.635 37.5391 291.742C34.7107 292.464 31.9486 293.215 29.267 293.987C28.8475 294.107 28.411 293.86 28.2922 293.434C28.1733 293.008 28.417 292.565 28.8365 292.445C31.5329 291.669 34.3102 290.914 37.1542 290.188C37.577 290.08 38.006 290.341 38.1123 290.77ZM517.075 293.648C517.51 293.623 517.883 293.96 517.908 294.402L517.921 294.618C518.077 297.373 518.237 300.194 518.426 303.061C518.455 303.503 518.126 303.885 517.691 303.914C517.256 303.944 516.88 303.61 516.851 303.169C516.661 300.29 516.5 297.459 516.344 294.704L516.332 294.494C516.307 294.052 516.64 293.673 517.075 293.648ZM433.798 294.01C434.099 294.33 434.089 294.837 433.774 295.143C431.774 297.087 429.82 299.053 427.906 301.039C427.601 301.355 427.101 301.361 426.789 301.051C426.478 300.742 426.472 300.234 426.777 299.918C428.703 297.921 430.669 295.942 432.681 293.986C432.996 293.68 433.496 293.691 433.798 294.01ZM145.323 294.978C145.548 294.599 146.033 294.477 146.406 294.705C148.889 296.223 151.259 297.903 153.499 299.755C153.837 300.034 153.887 300.539 153.612 300.882C153.337 301.225 152.839 301.277 152.501 300.997C150.322 299.195 148.014 297.559 145.592 296.078C145.218 295.85 145.098 295.357 145.323 294.978ZM21.6108 295.467C21.7425 295.889 21.5123 296.34 21.0966 296.473C18.2634 297.384 15.553 298.308 12.9858 299.23C12.5748 299.378 12.1237 299.159 11.9781 298.742C11.8326 298.325 12.0479 297.867 12.4589 297.72C15.043 296.791 17.7701 295.862 20.6198 294.945C21.0355 294.812 21.4792 295.045 21.6108 295.467ZM5.46897 301.223C5.63077 301.634 5.43372 302.1 5.02884 302.265C3.65438 302.822 2.34352 303.373 1.10103 303.914C0.700356 304.089 0.236148 303.901 0.0641916 303.494C-0.107764 303.087 0.0776483 302.616 0.478322 302.442C1.7337 301.895 3.05684 301.339 4.4429 300.776C4.84778 300.612 5.30717 300.812 5.46897 301.223ZM158.669 305.75C158.993 305.454 159.492 305.479 159.784 305.807C161.697 307.954 163.469 310.273 165.088 312.774C165.327 313.144 165.226 313.64 164.862 313.883C164.497 314.126 164.008 314.024 163.768 313.654C162.194 311.222 160.471 308.968 158.613 306.882C158.321 306.554 158.346 306.047 158.669 305.75ZM422.174 305.982C422.494 306.282 422.513 306.789 422.218 307.114C420.34 309.176 418.497 311.256 416.683 313.349C416.395 313.681 415.896 313.713 415.569 313.421C415.241 313.129 415.209 312.622 415.497 312.29C417.32 310.188 419.171 308.099 421.058 306.027C421.354 305.702 421.853 305.682 422.174 305.982ZM518.241 310.98C518.675 310.939 519.06 311.262 519.101 311.703C519.366 314.557 519.682 317.43 520.073 320.304C520.133 320.742 519.831 321.146 519.399 321.207C518.968 321.268 518.569 320.961 518.509 320.523C518.114 317.623 517.795 314.725 517.529 311.853C517.488 311.413 517.807 311.022 518.241 310.98ZM411.191 318.577C411.523 318.863 411.565 319.369 411.284 319.707C409.5 321.848 407.738 324 405.991 326.159C405.714 326.501 405.217 326.551 404.88 326.27C404.543 325.99 404.494 325.485 404.771 325.143C406.521 322.978 408.288 320.82 410.078 318.672C410.359 318.334 410.858 318.292 411.191 318.577ZM168.256 320.086C168.651 319.899 169.121 320.073 169.305 320.475C170.481 323.042 171.521 325.762 172.415 328.643C172.546 329.065 172.315 329.515 171.899 329.647C171.483 329.78 171.039 329.546 170.909 329.124C170.035 326.308 169.019 323.653 167.873 321.15C167.689 320.749 167.86 320.273 168.256 320.086ZM520.55 328.194C520.978 328.108 521.394 328.389 521.479 328.823C522.036 331.647 522.689 334.45 523.459 337.209C523.578 337.635 523.335 338.078 522.915 338.198C522.496 338.319 522.059 338.072 521.94 337.646C521.157 334.841 520.495 331.998 519.931 329.137C519.845 328.703 520.123 328.281 520.55 328.194ZM400.653 331.553C400.992 331.831 401.046 332.335 400.773 332.68C399.04 334.864 397.316 337.051 395.594 339.24C395.322 339.586 394.825 339.643 394.485 339.366C394.144 339.09 394.088 338.586 394.36 338.24C396.083 336.051 397.808 333.861 399.543 331.675C399.816 331.33 400.313 331.276 400.653 331.553ZM173.601 336.502C174.029 336.417 174.444 336.701 174.527 337.135C174.802 338.565 175.045 340.029 175.255 341.526C175.451 342.916 175.659 344.292 175.878 345.653C175.949 346.089 175.657 346.501 175.227 346.573C174.797 346.644 174.391 346.348 174.32 345.912C174.099 344.54 173.89 343.154 173.692 341.753C173.485 340.281 173.247 338.845 172.977 337.442C172.894 337.007 173.173 336.587 173.601 336.502ZM390.3 344.684C390.64 344.961 390.695 345.465 390.422 345.811C388.696 347.999 386.965 350.184 385.221 352.364C384.946 352.707 384.449 352.76 384.111 352.481C383.772 352.202 383.721 351.697 383.995 351.354C385.736 349.178 387.465 346.995 389.19 344.809C389.462 344.464 389.959 344.408 390.3 344.684ZM525.135 344.913C525.54 344.751 525.999 344.953 526.159 345.365C526.675 346.695 527.227 348.009 527.817 349.305C528.401 350.489 529.01 351.644 529.646 352.768C529.863 353.152 529.732 353.641 529.354 353.862C528.976 354.082 528.493 353.949 528.276 353.566C527.623 352.411 526.998 351.225 526.399 350.01L526.394 349.999L526.389 349.988C525.784 348.66 525.218 347.314 524.69 345.952C524.53 345.541 524.729 345.075 525.135 344.913ZM618.205 345.362C618.505 345.684 618.491 346.191 618.174 346.495C617.197 347.434 616.226 348.347 615.263 349.237C614.941 349.535 614.441 349.511 614.148 349.184C613.854 348.856 613.878 348.35 614.2 348.052C615.156 347.169 616.119 346.262 617.089 345.331C617.406 345.027 617.906 345.041 618.205 345.362ZM609.444 353.35C609.723 353.69 609.678 354.195 609.343 354.478C607.239 356.259 605.171 357.92 603.14 359.465C602.791 359.73 602.296 359.658 602.035 359.304C601.773 358.95 601.844 358.448 602.193 358.182C604.201 356.655 606.247 355.012 608.332 353.247C608.667 352.964 609.165 353.01 609.444 353.35ZM176.434 353.167C176.861 353.076 177.279 353.354 177.368 353.787C177.934 356.539 178.552 359.223 179.221 361.838C179.33 362.266 179.077 362.704 178.655 362.815C178.233 362.926 177.802 362.669 177.693 362.24C177.018 359.6 176.394 356.891 175.823 354.115C175.733 353.682 176.007 353.257 176.434 353.167ZM379.856 357.74C380.191 358.023 380.236 358.529 379.957 358.869C378.192 361.022 376.408 363.166 374.598 365.298C374.313 365.633 373.814 365.67 373.484 365.381C373.154 365.092 373.117 364.587 373.402 364.251C375.205 362.128 376.983 359.991 378.744 357.844C379.023 357.504 379.521 357.457 379.856 357.74ZM532.814 359.161C533.16 358.891 533.655 358.956 533.921 359.307C535.526 361.424 537.251 363.365 539.097 365.102C539.417 365.403 539.435 365.91 539.139 366.235C538.843 366.559 538.343 366.579 538.023 366.278C536.107 364.474 534.323 362.466 532.67 360.284C532.404 359.933 532.469 359.43 532.814 359.161ZM596.919 362.955C597.158 363.326 597.056 363.822 596.691 364.065C594.387 365.597 592.134 366.973 589.931 368.201C589.548 368.414 589.068 368.272 588.859 367.884C588.649 367.496 588.789 367.009 589.171 366.796C591.336 365.59 593.554 364.235 595.826 362.724C596.19 362.482 596.68 362.585 596.919 362.955ZM180.477 369.253C180.893 369.119 181.337 369.352 181.468 369.774C182.304 372.451 183.197 375.047 184.145 377.56C184.301 377.974 184.097 378.437 183.69 378.595C183.283 378.754 182.827 378.547 182.671 378.134C181.711 375.589 180.808 372.964 179.963 370.258C179.831 369.837 180.062 369.386 180.477 369.253ZM544.128 370.08C544.354 369.701 544.839 369.58 545.212 369.809C547.395 371.149 549.712 372.239 552.164 373.049C552.579 373.186 552.805 373.638 552.67 374.059C552.536 374.48 552.09 374.71 551.675 374.573C549.104 373.724 546.677 372.581 544.395 371.18C544.022 370.951 543.902 370.458 544.128 370.08ZM583.226 370.682C583.397 371.089 583.211 371.56 582.81 371.733C580.242 372.845 577.748 373.744 575.328 374.441C574.909 374.562 574.472 374.315 574.353 373.889C574.234 373.464 574.477 373.021 574.897 372.9C577.248 372.222 579.679 371.346 582.19 370.259C582.591 370.086 583.055 370.275 583.226 370.682ZM369.052 370.49C369.376 370.786 369.402 371.293 369.11 371.622C367.263 373.701 365.384 375.765 363.467 377.811C363.166 378.131 362.667 378.144 362.351 377.839C362.035 377.534 362.022 377.027 362.323 376.706C364.229 374.672 366.098 372.619 367.937 370.549C368.229 370.22 368.728 370.194 369.052 370.49ZM568.203 375.152C568.253 375.592 567.942 375.989 567.509 376.04C564.736 376.363 562.075 376.402 559.525 376.179C559.091 376.141 558.769 375.753 558.806 375.312C558.844 374.871 559.226 374.544 559.661 374.582C562.1 374.796 564.655 374.759 567.328 374.448C567.762 374.397 568.153 374.712 568.203 375.152ZM357.659 382.695C357.965 383.01 357.962 383.517 357.652 383.828C355.693 385.792 353.692 387.734 351.641 389.652C351.32 389.952 350.821 389.931 350.526 389.606C350.23 389.28 350.251 388.774 350.571 388.474C352.608 386.569 354.596 384.639 356.542 382.688C356.852 382.377 357.352 382.38 357.659 382.695ZM186.259 384.798C186.655 384.612 187.124 384.788 187.306 385.19C188.465 387.745 189.688 390.201 190.972 392.559C191.183 392.946 191.045 393.434 190.663 393.648C190.282 393.862 189.801 393.721 189.59 393.334C188.287 390.941 187.047 388.449 185.872 385.861C185.689 385.459 185.863 384.983 186.259 384.798ZM345.509 394.126C345.792 394.462 345.753 394.968 345.421 395.256C343.33 397.068 341.187 398.855 338.986 400.613C338.643 400.887 338.147 400.827 337.877 400.479C337.607 400.132 337.666 399.628 338.009 399.354C340.193 397.61 342.32 395.836 344.396 394.037C344.727 393.749 345.226 393.789 345.509 394.126ZM194.081 399.37C194.444 399.125 194.934 399.225 195.176 399.593C196.706 401.929 198.306 404.148 199.972 406.248C200.245 406.592 200.192 407.097 199.852 407.374C199.513 407.652 199.016 407.598 198.742 407.253C197.045 405.114 195.417 402.856 193.861 400.48C193.619 400.112 193.718 399.615 194.081 399.37ZM332.529 404.573C332.785 404.931 332.705 405.432 332.351 405.691C330.131 407.318 327.853 408.916 325.511 410.483C325.147 410.726 324.658 410.624 324.418 410.255C324.178 409.885 324.278 409.388 324.642 409.145C326.965 407.591 329.225 406.006 331.427 404.392C331.781 404.133 332.274 404.214 332.529 404.573ZM204.242 412.382C204.553 412.071 205.052 412.075 205.359 412.39C207.283 414.371 209.28 416.217 211.345 417.925C211.683 418.204 211.734 418.709 211.459 419.052C211.183 419.395 210.686 419.447 210.348 419.167C208.237 417.422 206.198 415.537 204.234 413.515C203.928 413.2 203.932 412.693 204.242 412.382ZM318.746 413.877C318.97 414.256 318.849 414.748 318.475 414.976C317.288 415.699 316.085 416.414 314.866 417.121C313.655 417.823 312.447 418.505 311.243 419.166C310.86 419.376 310.381 419.231 310.173 418.842C309.966 418.453 310.109 417.967 310.492 417.756C311.685 417.101 312.882 416.426 314.082 415.73C315.292 415.028 316.485 414.319 317.662 413.602C318.036 413.374 318.521 413.497 318.746 413.877ZM304.289 421.886C304.477 422.286 304.31 422.764 303.917 422.955C301.395 424.178 298.892 425.309 296.408 426.348C296.004 426.516 295.543 426.321 295.377 425.912C295.211 425.503 295.403 425.035 295.806 424.866C298.263 423.839 300.74 422.72 303.236 421.509C303.629 421.318 304.101 421.487 304.289 421.886ZM216.81 422.982C217.044 422.608 217.533 422.499 217.9 422.737C220.186 424.217 222.543 425.548 224.967 426.73C225.36 426.921 225.526 427.4 225.337 427.799C225.148 428.198 224.676 428.366 224.283 428.174C221.802 426.965 219.39 425.602 217.051 424.088C216.683 423.85 216.576 423.355 216.81 422.982ZM289.201 428.277C289.342 428.696 289.122 429.151 288.709 429.295C286.05 430.217 283.417 431.031 280.81 431.738C280.389 431.852 279.956 431.598 279.844 431.17C279.731 430.743 279.982 430.304 280.403 430.189C282.973 429.493 285.573 428.689 288.199 427.778C288.611 427.635 289.06 427.858 289.201 428.277ZM231.456 430.331C231.596 429.912 232.044 429.688 232.457 429.83C234.994 430.703 237.594 431.428 240.254 432.001C240.68 432.093 240.952 432.519 240.862 432.952C240.771 433.385 240.352 433.661 239.925 433.569C237.206 432.982 234.546 432.241 231.95 431.348C231.537 431.205 231.316 430.75 231.456 430.331ZM273.401 432.658C273.481 433.093 273.198 433.511 272.769 433.592C270.017 434.114 267.298 434.511 264.617 434.783C264.183 434.827 263.796 434.506 263.753 434.066C263.709 433.625 264.026 433.233 264.46 433.188C267.095 432.921 269.769 432.531 272.48 432.017C272.908 431.936 273.321 432.223 273.401 432.658ZM247.4 433.974C247.443 433.534 247.829 433.212 248.263 433.255C250.907 433.518 253.602 433.643 256.345 433.628C256.781 433.626 257.137 433.983 257.139 434.425C257.141 434.868 256.79 435.228 256.354 435.231C253.558 435.246 250.808 435.119 248.109 434.85C247.675 434.807 247.358 434.415 247.4 433.974Z" fill="#007AFF"/>
<path fill-rule="evenodd" clip-rule="evenodd" d="M461.316 -57.6924C461.752 -57.6924 462.105 -57.3336 462.105 -56.8911C462.105 -55.725 461.962 -54.3201 461.691 -52.7131C461.617 -52.2769 461.209 -51.9839 460.779 -52.0586C460.35 -52.1333 460.061 -52.5475 460.134 -52.9837C460.397 -54.5389 460.526 -55.8472 460.526 -56.8911C460.526 -57.3336 460.88 -57.6924 461.316 -57.6924ZM459.199 -45.5077C459.617 -45.3827 459.856 -44.9372 459.733 -44.5127C459.03 -42.0874 458.175 -39.4351 457.179 -36.5934C457.033 -36.1764 456.581 -35.9587 456.171 -36.1071C455.76 -36.2554 455.545 -36.7137 455.691 -37.1306C456.68 -39.9489 457.524 -42.5727 458.218 -44.9653C458.342 -45.3899 458.78 -45.6327 459.199 -45.5077ZM453.812 -29.7869C454.216 -29.6227 454.414 -29.1565 454.252 -28.7455C453.277 -26.2686 452.217 -23.6932 451.078 -21.0372C450.904 -20.6314 450.438 -20.4457 450.039 -20.6224C449.639 -20.7991 449.456 -21.2712 449.63 -21.677C450.763 -24.3187 451.816 -26.8791 452.786 -29.3402C452.947 -29.7511 453.407 -29.9511 453.812 -29.7869ZM447.321 -14.5165C447.716 -14.3291 447.887 -13.8522 447.702 -13.4513C446.571 -10.9952 445.381 -8.48948 444.133 -5.94639C443.939 -5.55023 443.465 -5.38896 443.075 -5.58618C442.684 -5.7834 442.525 -6.26443 442.72 -6.66059C443.961 -9.19194 445.146 -11.6858 446.272 -14.1299C446.457 -14.5308 446.926 -14.7039 447.321 -14.5165ZM440.055 0.389708C440.441 0.596285 440.588 1.08101 440.385 1.47237C439.124 3.89603 437.817 6.34194 436.465 8.80016C436.252 9.18654 435.771 9.32486 435.39 9.1091C435.01 8.89335 434.873 8.40523 435.086 8.01885C436.432 5.57181 437.734 3.13699 438.989 0.724293C439.192 0.332932 439.67 0.183132 440.055 0.389708ZM432.103 14.9214C432.478 15.1463 432.603 15.6376 432.381 16.0187C431.001 18.3925 429.581 20.7688 428.123 23.1388C427.892 23.5142 427.405 23.6285 427.035 23.3942C426.665 23.1599 426.553 22.6656 426.783 22.2902C428.234 19.9317 429.647 17.5668 431.021 15.2041C431.243 14.823 431.727 14.6964 432.103 14.9214ZM423.461 29.0411C423.825 29.2852 423.925 29.7824 423.684 30.1515C422.176 32.4661 420.633 34.7662 419.057 37.0435C418.807 37.4056 418.314 37.493 417.957 37.2386C417.601 36.9843 417.514 36.4845 417.765 36.1224C419.332 33.8579 420.867 31.5701 422.367 29.2675C422.608 28.8984 423.097 28.797 423.461 29.0411ZM414.074 42.6761C414.423 42.9413 414.494 43.4435 414.232 43.7978C412.585 46.0306 410.906 48.2319 409.197 50.3933C408.924 50.7384 408.427 50.7937 408.087 50.5167C407.747 50.2398 407.693 49.7355 407.966 49.3903C409.663 47.2436 411.331 45.0564 412.969 42.8372C413.23 42.4829 413.725 42.4108 414.074 42.6761ZM243.634 51.0963C240.666 50.9142 237.815 51.0068 235.075 51.3484C234.642 51.4023 234.248 51.09 234.195 50.6508C234.142 50.2115 234.449 49.8117 234.882 49.7578C237.72 49.404 240.668 49.3088 243.729 49.4967C244.164 49.5234 244.496 49.9031 244.469 50.3448C244.443 50.7866 244.069 51.123 243.634 51.0963ZM251.59 51.3763C251.684 50.9441 252.105 50.671 252.531 50.7663C255.265 51.3783 258.08 52.203 260.979 53.2544C261.39 53.4033 261.604 53.8618 261.457 54.2786C261.31 54.6953 260.858 54.9124 260.448 54.7635C257.608 53.7334 254.856 52.9279 252.191 52.3313C251.765 52.236 251.496 51.8084 251.59 51.3763ZM227.194 52.2429C227.331 52.6631 227.106 53.1163 226.692 53.2553C223.957 54.1734 221.343 55.356 218.843 56.7723C218.462 56.9879 217.981 56.8495 217.769 56.4631C217.556 56.0767 217.692 55.5886 218.073 55.3729C220.656 53.9097 223.362 52.6853 226.196 51.7338C226.61 51.5948 227.057 51.8228 227.194 52.2429ZM403.855 55.6742C404.185 55.9638 404.221 56.4699 403.936 56.8045C402.129 58.9232 400.292 60.9913 398.428 62.9995C398.129 63.3216 397.63 63.3368 397.312 63.0333C396.995 62.7299 396.98 62.2228 397.279 61.9006C399.127 59.9097 400.948 57.8583 402.742 55.7556C403.027 55.421 403.526 55.3846 403.855 55.6742ZM268.067 57.0845C268.254 56.685 268.725 56.5154 269.119 56.7056C271.657 57.9326 274.256 59.325 276.915 60.8908C277.292 61.1128 277.42 61.6032 277.202 61.986C276.983 62.3688 276.5 62.4991 276.123 62.277C273.498 60.7315 270.937 59.3596 268.44 58.1525C268.046 57.9622 267.879 57.4841 268.067 57.0845ZM211.835 60.5386C212.107 60.8841 212.052 61.3884 211.712 61.6649C209.495 63.4649 207.381 65.4573 205.364 67.6136C205.064 67.9345 204.564 67.9477 204.248 67.6429C203.932 67.3382 203.919 66.831 204.219 66.5101C206.281 64.306 208.448 62.2634 210.725 60.4137C211.065 60.1372 211.562 60.1931 211.835 60.5386ZM283.276 65.8501C283.519 65.4827 284.01 65.3848 284.372 65.6315C286.708 67.2243 289.09 68.9457 291.518 70.8006C291.866 71.0668 291.936 71.5691 291.674 71.9227C291.412 72.2762 290.917 72.3471 290.568 72.0809C288.162 70.2424 285.803 68.5378 283.491 66.962C283.129 66.7153 283.033 66.2174 283.276 65.8501ZM392.671 67.8055C392.973 68.1241 392.964 68.6313 392.65 68.9385C390.652 70.8939 388.626 72.7744 386.574 74.5695C386.244 74.8584 385.745 74.8209 385.46 74.4857C385.176 74.1504 385.213 73.6445 385.543 73.3556C387.571 71.5811 389.576 69.7209 391.555 67.7848C391.868 67.4776 392.368 67.4869 392.671 67.8055ZM199.62 73.1905C199.967 73.4585 200.035 73.9612 199.771 74.3134C198.043 76.6181 196.397 79.0427 194.829 81.5628C194.596 81.937 194.108 82.0488 193.74 81.8125C193.371 81.5762 193.261 81.0813 193.494 80.7071C195.084 78.1515 196.756 75.6882 198.514 73.3429C198.778 72.9907 199.274 72.9225 199.62 73.1905ZM297.285 76.4212C297.562 76.08 298.06 76.0319 298.396 76.3137C299.531 77.2653 300.676 78.2452 301.831 79.2537C302.904 80.1911 303.977 81.0812 305.051 81.9252C305.395 82.1962 305.458 82.6995 305.191 83.0493C304.924 83.3992 304.428 83.463 304.084 83.192C302.988 82.3307 301.894 81.4232 300.801 80.4684C299.654 79.4668 298.517 78.4939 297.39 77.5493C297.054 77.2675 297.007 76.7625 297.285 76.4212ZM380.321 78.7013C380.584 79.0547 380.514 79.5572 380.166 79.8235C377.935 81.5303 375.677 83.1292 373.394 84.6075C373.026 84.8456 372.538 84.7361 372.304 84.3631C372.069 83.99 372.177 83.4946 372.545 83.2566C374.79 81.8022 377.015 80.2273 379.216 78.5437C379.564 78.2774 380.059 78.3479 380.321 78.7013ZM310.614 86.8452C310.84 86.4665 311.325 86.3453 311.698 86.5743C314.088 88.0413 316.474 89.2909 318.856 90.3353C319.257 90.5109 319.441 90.9825 319.268 91.3887C319.095 91.795 318.63 91.982 318.23 91.8065C315.78 90.732 313.329 89.4487 310.881 87.9455C310.508 87.7165 310.388 87.2238 310.614 86.8452ZM366.573 87.7173C366.772 88.1109 366.619 88.594 366.231 88.7962C363.736 90.0977 361.214 91.2462 358.671 92.2258C358.263 92.3827 357.807 92.1746 357.652 91.7609C357.498 91.3471 357.703 90.8844 358.11 90.7274C360.595 89.7706 363.062 88.647 365.51 87.3708C365.897 87.1685 366.373 87.3237 366.573 87.7173ZM190.136 88.1027C190.52 88.3122 190.664 88.798 190.458 89.1878C189.094 91.765 187.797 94.4074 186.566 97.0932C186.382 97.4944 185.912 97.6683 185.517 97.4815C185.121 97.2947 184.95 96.8181 185.134 96.4169C186.378 93.7059 187.687 91.0359 189.067 88.4293C189.273 88.0395 189.752 87.8932 190.136 88.1027ZM325.504 93.5699C325.613 93.1415 326.043 92.8838 326.465 92.9944C329.114 93.6885 331.755 94.1433 334.386 94.3751C334.82 94.4134 335.142 94.8018 335.104 95.2427C335.067 95.6836 334.684 96.01 334.249 95.9717C331.532 95.7321 328.804 95.2624 326.071 94.5461C325.649 94.4355 325.395 93.9984 325.504 93.5699ZM351.333 93.7346C351.433 94.1654 351.169 94.5966 350.744 94.6975C348.032 95.3424 345.298 95.7834 342.548 96.002C342.113 96.0365 341.733 95.7069 341.699 95.2657C341.665 94.8245 341.99 94.4389 342.425 94.4043C345.091 94.1924 347.745 93.7646 350.384 93.1371C350.809 93.0362 351.234 93.3037 351.333 93.7346ZM182.65 104.155C183.054 104.323 183.247 104.79 183.082 105.2C181.978 107.94 180.934 110.701 179.945 113.461C179.796 113.877 179.343 114.092 178.934 113.94C178.524 113.789 178.312 113.33 178.461 112.914C179.456 110.136 180.508 107.355 181.621 104.593C181.786 104.184 182.247 103.987 182.65 104.155ZM176.601 120.822C177.015 120.959 177.242 121.411 177.107 121.832C176.188 124.689 175.327 127.522 174.517 130.304C174.393 130.728 173.954 130.97 173.536 130.845C173.118 130.72 172.879 130.274 173.002 129.85C173.816 127.055 174.682 124.208 175.606 121.335C175.741 120.914 176.186 120.684 176.601 120.822ZM171.589 137.842C172.01 137.957 172.258 138.397 172.144 138.824C171.758 140.273 171.386 141.698 171.027 143.097C170.661 144.523 170.258 145.922 169.818 147.295C169.683 147.716 169.238 147.946 168.823 147.809C168.409 147.672 168.182 147.22 168.317 146.799C168.747 145.457 169.141 144.088 169.499 142.693C169.859 141.29 170.233 139.86 170.62 138.406C170.734 137.979 171.168 137.726 171.589 137.842ZM166.281 154.339C166.675 154.528 166.845 155.005 166.659 155.405C165.424 158.071 164.036 160.614 162.507 163.034C162.271 163.406 161.783 163.514 161.416 163.275C161.049 163.036 160.942 162.541 161.178 162.168C162.67 159.808 164.024 157.325 165.23 154.723C165.416 154.323 165.886 154.151 166.281 154.339ZM12.7902 165.384C13.0522 165.03 13.5472 164.959 13.8956 165.225C15.0334 166.093 16.1757 166.942 17.3223 167.771C17.6774 168.027 17.7603 168.528 17.5074 168.888C17.2544 169.249 16.7615 169.333 16.4063 169.076C15.2486 168.239 14.0952 167.382 12.9466 166.506C12.5981 166.24 12.5281 165.737 12.7902 165.384ZM157.299 168.923C157.631 169.209 157.672 169.715 157.39 170.052C155.531 172.276 153.534 174.365 151.411 176.318C151.088 176.615 150.588 176.59 150.296 176.262C150.003 175.934 150.027 175.427 150.351 175.13C152.424 173.224 154.372 171.185 156.186 169.015C156.468 168.678 156.966 168.636 157.299 168.923ZM23.2439 172.808C23.4777 172.435 23.9656 172.324 24.3336 172.562C26.7374 174.112 29.1552 175.578 31.583 176.961C31.9632 177.177 32.0985 177.666 31.885 178.052C31.6716 178.438 31.1904 178.575 30.8102 178.358C28.3573 176.961 25.9149 175.48 23.4869 173.914C23.1189 173.677 23.0101 173.182 23.2439 172.808ZM144.882 180.635C145.132 180.998 145.044 181.498 144.687 181.751C142.355 183.405 139.911 184.923 137.367 186.303C136.983 186.512 136.505 186.364 136.299 185.974C136.093 185.584 136.239 185.098 136.623 184.89C139.113 183.539 141.503 182.054 143.783 180.438C144.14 180.184 144.632 180.273 144.882 180.635ZM38.0146 181.318C38.2063 180.92 38.6791 180.756 39.0708 180.95C41.6333 182.223 44.2024 183.405 46.7734 184.499C47.1755 184.67 47.365 185.139 47.1965 185.547C47.028 185.955 46.5654 186.148 46.1633 185.977C43.5638 184.871 40.9668 183.676 38.3768 182.39C37.9851 182.195 37.823 181.715 38.0146 181.318ZM53.6549 188.065C53.7988 187.647 54.2491 187.427 54.6607 187.573C57.3479 188.526 60.032 189.383 62.7078 190.145C63.1276 190.264 63.3725 190.706 63.2548 191.132C63.137 191.559 62.7013 191.807 62.2815 191.688C59.5735 190.917 56.8578 190.05 54.1397 189.086C53.7281 188.94 53.5111 188.483 53.6549 188.065ZM130.025 188.929C130.186 189.34 129.989 189.807 129.584 189.971C126.956 191.036 124.244 191.972 121.459 192.775C121.04 192.896 120.603 192.649 120.484 192.223C120.365 191.798 120.608 191.355 121.027 191.234C123.761 190.445 126.422 189.527 128.999 188.482C129.404 188.318 129.863 188.518 130.025 188.929ZM69.9847 192.81C70.0746 192.377 70.4933 192.1 70.92 192.191C73.7094 192.787 76.4837 193.28 79.2366 193.67C79.6685 193.731 79.9697 194.136 79.9094 194.574C79.8492 195.012 79.4503 195.318 79.0184 195.257C76.229 194.862 73.419 194.363 70.5945 193.759C70.1679 193.668 69.8949 193.243 69.9847 192.81ZM113.753 193.814C113.832 194.249 113.548 194.667 113.119 194.747C110.341 195.265 107.506 195.663 104.622 195.937C104.188 195.978 103.803 195.655 103.762 195.214C103.721 194.773 104.04 194.383 104.474 194.341C107.314 194.071 110.103 193.68 112.834 193.171C113.262 193.091 113.674 193.378 113.753 193.814ZM86.7844 195.293C86.8131 194.852 87.1891 194.518 87.6242 194.547C90.4712 194.738 93.2876 194.816 96.0663 194.785C96.5023 194.78 96.8597 195.134 96.8646 195.577C96.8695 196.019 96.5201 196.382 96.0841 196.387C93.264 196.419 90.4069 196.339 87.5201 196.146C87.085 196.117 86.7556 195.735 86.7844 195.293Z" fill="#007AFF"/>
<path d="M122.88 315.765C124.398 319.103 125.157 322.569 125.157 325.907C125.41 335.921 119.844 345.55 110.357 349.915C100.87 354.281 90.118 352.355 82.7813 345.679C80.2515 343.368 78.2276 340.543 76.7097 337.205C76.0772 335.665 75.4447 334.124 75.0652 332.455C72.2824 320.644 77.9746 308.19 89.2325 302.926C100.49 297.663 113.519 301.514 120.476 311.4C121.362 312.812 122.247 314.224 122.88 315.765Z" fill="white"/>
<path d="M116.934 307.934C118.452 311.272 119.211 314.738 119.211 318.076C119.464 328.09 113.899 337.719 104.412 342.084C94.9246 346.45 84.1727 344.524 76.836 337.848C74.3062 335.537 72.2823 332.712 70.7643 329.374C70.1319 327.834 69.4994 326.293 69.1199 324.624C66.3371 312.813 72.0293 300.359 83.2872 295.095C94.5451 289.831 107.574 293.683 114.531 303.569C115.417 304.981 116.302 306.393 116.934 307.934Z" fill="#D53F36"/>
<path d="M114.531 303.568L69.1199 324.624C66.3371 312.812 72.0293 300.359 83.2872 295.095C94.5451 289.96 107.574 293.811 114.531 303.568Z" fill="#131313"/>
<path d="M119.211 318.076C119.464 328.09 113.899 337.719 104.412 342.084C94.9245 346.449 84.1726 344.524 76.8359 337.848L119.211 318.076Z" fill="#FDDA5F"/>
<path d="M247.922 118.653C246.961 120.958 245.564 122.908 243.992 124.503C239.189 129.201 231.853 130.796 225.304 127.96C218.754 125.124 214.824 118.742 214.737 111.917C214.737 109.612 215.173 107.219 216.134 104.915C216.571 103.851 217.095 102.876 217.706 101.901C222.247 95.0762 231.067 92.2398 238.752 95.5194C246.525 98.8875 250.629 107.219 248.97 115.285C248.708 116.526 248.359 117.678 247.922 118.653Z" fill="white"/>
<path d="M248.621 113.069C245.127 120.071 237.704 123.705 230.456 122.553C229.757 122.464 229.146 122.287 228.447 122.11C227.4 121.844 226.352 121.401 225.304 120.869C223.12 119.717 221.286 118.21 219.802 116.437C215.523 111.208 214.387 103.762 217.619 97.292C220.85 90.8216 227.4 87.2762 234.037 87.6307C236.307 87.808 238.578 88.3398 240.761 89.4921C241.809 90.0239 242.682 90.6443 243.555 91.2648C244.429 91.9738 245.215 92.6829 245.913 93.4806C250.629 98.7101 251.852 106.421 248.621 113.069Z" fill="white"/>
<path d="M248.621 113.07C245.127 120.072 237.704 123.706 230.456 122.554L245.215 92.7725C245.477 93.0384 245.826 93.2156 246.088 93.4815C250.629 98.711 251.852 106.422 248.621 113.07Z" fill="#D53F36"/>
<path d="M219.889 116.437C215.61 111.208 214.475 103.762 217.706 97.292C220.937 90.8216 227.487 87.2762 234.124 87.6307L219.889 116.437Z" fill="#4887FC"/>
<path d="M496.353 324.19C496.037 326.327 495.3 328.25 494.247 329.852C491.195 334.767 485.405 337.652 479.405 336.69C473.405 335.728 468.774 331.241 467.3 325.579C466.774 323.656 466.668 321.626 466.984 319.489C467.09 318.528 467.405 317.566 467.721 316.711C470.037 310.087 476.879 305.814 483.932 306.989C491.09 308.164 496.247 314.254 496.458 321.305C496.563 322.267 496.563 323.228 496.353 324.19Z" fill="white"/>
<path d="M487.826 329.318C487.09 329.745 486.353 330.173 485.616 330.493C484.879 330.814 484.037 331.027 483.195 331.241C482.774 331.348 482.247 331.455 481.826 331.455C480.142 331.668 478.353 331.562 476.669 331.134C473.3 330.28 470.142 328.25 468.037 325.365C467.511 324.724 467.09 323.976 466.774 323.121C466.563 322.801 466.458 322.48 466.353 322.053C466.142 321.626 466.037 321.198 465.932 320.771C465.721 320.023 465.511 319.275 465.405 318.527C464.879 314.681 465.826 310.728 468.037 307.63C468.984 306.241 470.247 304.959 471.721 303.997C471.932 303.891 472.142 303.677 472.353 303.57C473.09 303.143 473.826 302.715 474.563 302.395C475.405 302.074 476.142 301.861 476.984 301.647C482.984 300.258 489.195 302.929 492.563 308.057C492.879 308.485 493.09 309.019 493.405 309.446C493.616 309.874 493.826 310.301 493.932 310.728C494.142 311.262 494.353 311.903 494.458 312.438C494.669 313.079 494.774 313.72 494.879 314.361C495.511 320.344 492.879 326.22 487.826 329.318Z" fill="#007AFF"/>
<path d="M481.826 331.454C480.142 331.668 478.353 331.561 476.669 331.134L472.774 320.771L471.09 316.283L467.826 307.63C468.774 306.241 470.037 304.959 471.511 303.997L475.511 314.574L477.195 319.061L481.826 331.454Z" fill="#FDDA5F"/>
<path d="M494.353 312.544L477.195 319.168L472.774 320.878L466.668 323.228C466.458 322.908 466.353 322.587 466.247 322.16C466.037 321.732 465.932 321.305 465.826 320.878C465.616 320.13 465.405 319.382 465.3 318.634L471.09 316.391L475.511 314.681L492.458 308.164C492.774 308.591 492.984 309.126 493.3 309.553C493.511 309.98 493.721 310.408 493.826 310.835C494.037 311.369 494.247 312.01 494.353 312.544Z" fill="#FDDA5F"/>
<path d="M301.053 499.53C413.771 499.53 505.148 494.115 505.148 487.436C505.148 480.756 413.771 475.342 301.053 475.342C188.334 475.342 96.958 480.756 96.958 487.436C96.958 494.115 188.334 499.53 301.053 499.53Z" fill="#F5F5F5"/>
<path d="M404.368 165.983C402.126 163.707 397.81 155.086 401.947 151.026C406.084 146.966 409.768 150.652 410.052 152.628C410.337 154.605 409.579 171.261 404.368 165.983Z" fill="#263238"/>
<path d="M403.421 476.122L394.021 476.207L391.463 454.156L400.853 454.07L403.421 476.122Z" fill="#FF8B7B"/>
<path d="M394.01 475.107L404.263 475.011C404.452 475.014 404.636 475.077 404.787 475.192C404.938 475.307 405.05 475.468 405.105 475.652L407.589 484.103C407.655 484.299 407.674 484.509 407.643 484.715C407.612 484.92 407.533 485.115 407.412 485.283C407.291 485.45 407.132 485.586 406.949 485.678C406.765 485.77 406.563 485.816 406.358 485.812C402.663 485.812 397.295 485.609 392.674 485.652C387.242 485.652 384.821 486.036 378.442 486.1C374.589 486.1 373.179 482.19 374.81 481.827C382.042 480.128 385.779 479.904 391.831 475.876C392.468 475.41 393.226 475.142 394.01 475.107Z" fill="#263238"/>
<path opacity="0.2" d="M391.463 454.167L392.789 465.534L402.179 465.449L400.863 454.081L391.463 454.167Z" fill="black"/>
<path d="M390.126 476.805C391.14 476.787 392.149 476.662 393.137 476.431C393.183 476.424 393.226 476.402 393.259 476.367C393.291 476.332 393.311 476.287 393.316 476.239C393.32 476.193 393.31 476.147 393.287 476.107C393.265 476.066 393.231 476.034 393.189 476.015C392.747 475.79 388.8 473.878 387.716 474.551C387.615 474.616 387.534 474.706 387.478 474.813C387.423 474.92 387.396 475.039 387.4 475.16C387.397 475.366 387.442 475.569 387.529 475.754C387.617 475.939 387.746 476.102 387.905 476.228C388.563 476.662 389.344 476.865 390.126 476.805ZM392.379 476.122C390.347 476.485 388.8 476.41 388.168 475.897C388.059 475.811 387.972 475.698 387.915 475.57C387.858 475.441 387.833 475.301 387.842 475.16C387.836 475.116 387.842 475.072 387.861 475.032C387.88 474.992 387.91 474.958 387.947 474.936C388.537 474.572 390.768 475.427 392.379 476.122Z" fill="#007AFF"/>
<path d="M393.095 476.495C393.144 476.491 393.192 476.473 393.231 476.442C393.263 476.417 393.287 476.384 393.3 476.346C393.313 476.308 393.315 476.267 393.305 476.228C393.305 476.057 392.568 471.954 390.337 472.211C389.747 472.275 389.579 472.585 389.547 472.82C389.389 473.888 391.8 475.961 393 476.474L393.095 476.495ZM390.526 472.649C391.873 472.649 392.547 474.882 392.779 475.854C391.537 475.149 389.895 473.525 389.989 472.884C389.989 472.884 389.989 472.702 390.389 472.659L390.526 472.649Z" fill="#007AFF"/>
<path d="M396.779 214.134L395.81 215.202L394.905 216.111C394.305 216.709 393.684 217.275 393.063 217.831C391.828 218.956 390.565 220.024 389.274 221.036C386.668 223.138 383.925 225.058 381.063 226.784C379.621 227.649 378.137 228.472 376.631 229.252C375.126 230.031 373.537 230.705 371.937 231.388C368.656 232.717 365.238 233.667 361.747 234.219L360.968 234.337C360.462 234.403 359.952 234.435 359.442 234.433C358.27 234.422 357.11 234.19 356.021 233.749C354.941 233.309 353.952 232.668 353.105 231.858C352.43 231.205 351.843 230.466 351.358 229.658C350.686 228.485 350.179 227.223 349.852 225.908C349.597 224.889 349.411 223.854 349.295 222.809C349.103 221.003 349.05 219.185 349.137 217.371C349.21 215.64 349.347 213.974 349.537 212.339C349.937 209.059 350.505 205.929 351.2 202.724C351.895 199.519 352.684 196.559 353.705 193.461L360.621 194.85C360.368 200.854 360.084 207.008 360.274 212.82C360.308 215.519 360.59 218.208 361.116 220.854C361.22 221.343 361.364 221.822 361.547 222.286C361.695 222.649 361.874 222.873 361.863 222.777C361.802 222.614 361.705 222.468 361.579 222.35C361.292 222.069 360.957 221.844 360.589 221.687C360.211 221.526 359.809 221.429 359.4 221.399C359.21 221.399 359.126 221.399 359.01 221.399H359.126L359.347 221.335C361.841 220.685 364.266 219.79 366.589 218.664C369.02 217.473 371.372 216.124 373.631 214.625C375.916 213.087 378.168 211.42 380.337 209.658C381.389 208.781 382.495 207.863 383.495 206.933L385.031 205.523L385.768 204.828L386.41 204.209L396.779 214.134Z" fill="#FF8B7B"/>
<path d="M402.347 210.363C401.989 200.288 393.842 196.783 383.632 203.653C379.13 206.55 374.797 209.707 370.653 213.108L377.253 234.625C377.253 234.625 389.884 230.555 397.189 222.563C402.105 217.136 402.474 213.792 402.347 210.363Z" fill="#263238"/>
<path opacity="0.2" d="M389.916 214.658C389.916 214.658 383.821 223.504 381.663 232.906C384.66 231.609 387.546 230.066 390.295 228.291L389.916 214.658Z" fill="black"/>
<path d="M360.273 198.045L363.81 189.936L353.8 186.966C353.8 186.966 352.084 190.844 353.063 197.5L360.273 198.045Z" fill="#FF8B7B"/>
<path d="M364.874 180.428L356.168 181.485L353.8 186.966L363.81 189.936L364.874 180.428Z" fill="#FF8B7B"/>
<path d="M389.979 283.397C389.979 283.397 383.516 338.376 382.8 367.799C382.063 398.365 387.968 460.021 387.968 460.021L404.926 459.658C404.926 459.658 406.968 393.654 409.431 363.408C412.105 330.438 418.842 282.799 418.842 282.799L389.979 283.397Z" fill="#007AFF"/>
<path opacity="0.6" d="M389.979 283.397C389.979 283.397 383.516 338.376 382.8 367.799C382.063 398.365 387.968 460.021 387.968 460.021L404.926 459.658C404.926 459.658 406.968 393.654 409.431 363.408C412.105 330.438 418.842 282.799 418.842 282.799L389.979 283.397Z" fill="white"/>
<path opacity="0.2" d="M410.179 298.964C402.6 315.919 404.631 353.793 408.937 370.032C409.094 367.671 409.263 365.438 409.431 363.376C411.189 341.645 414.695 313.558 416.916 296.923C414.852 293.889 412.547 293.654 410.179 298.964Z" fill="black"/>
<path d="M407.01 460.395L387.074 460.801L385.6 454.081L406.768 454.027L407.01 460.395Z" fill="#007AFF"/>
<path d="M445.305 476.122L435.916 476.207L433.358 454.156L442.747 454.07L445.305 476.122Z" fill="#FF8B7B"/>
<path d="M435.895 475.107L446.158 475.011C446.347 475.015 446.529 475.079 446.68 475.194C446.831 475.309 446.943 475.469 447 475.652L449.484 484.103C449.548 484.299 449.564 484.508 449.532 484.713C449.5 484.917 449.421 485.111 449.301 485.278C449.18 485.445 449.022 485.581 448.84 485.674C448.658 485.766 448.456 485.814 448.253 485.812C444.547 485.812 439.189 485.609 434.568 485.652C429.137 485.652 426.705 486.036 420.337 486.1C416.484 486.1 415.074 482.19 416.705 481.827C423.926 480.128 427.663 479.904 433.726 475.876C434.359 475.41 435.113 475.143 435.895 475.107Z" fill="#263238"/>
<path opacity="0.2" d="M433.358 454.167L434.673 465.534L444.073 465.449L442.758 454.081L433.358 454.167Z" fill="black"/>
<path d="M432.021 476.805C433.034 476.786 434.043 476.66 435.031 476.431C435.077 476.424 435.119 476.401 435.15 476.366C435.18 476.331 435.198 476.286 435.2 476.239C435.207 476.194 435.199 476.148 435.178 476.108C435.157 476.067 435.124 476.035 435.084 476.015C434.631 475.79 430.684 473.878 429.61 474.551C429.509 474.614 429.426 474.704 429.37 474.811C429.314 474.919 429.288 475.039 429.295 475.16C429.292 475.364 429.336 475.567 429.422 475.752C429.507 475.937 429.633 476.1 429.789 476.228C430.452 476.661 431.235 476.863 432.021 476.805ZM434.274 476.122C432.242 476.485 430.695 476.41 430.063 475.897C429.954 475.809 429.867 475.697 429.809 475.569C429.75 475.441 429.722 475.301 429.726 475.16C429.72 475.116 429.727 475.072 429.745 475.032C429.764 474.992 429.794 474.958 429.831 474.936C430.421 474.572 432.631 475.427 434.274 476.122Z" fill="#007AFF"/>
<path d="M434.979 476.495C435.011 476.494 435.043 476.486 435.072 476.471C435.101 476.457 435.127 476.436 435.148 476.411C435.169 476.386 435.184 476.357 435.193 476.325C435.202 476.294 435.204 476.26 435.2 476.228C435.2 476.057 434.463 471.954 432.232 472.211C431.642 472.275 431.474 472.585 431.432 472.82C431.284 473.888 433.695 475.961 434.895 476.474L434.979 476.495ZM432.421 472.649C433.758 472.649 434.442 474.882 434.674 475.854C433.432 475.149 431.779 473.525 431.874 472.884C431.874 472.884 431.874 472.702 432.274 472.659L432.421 472.649Z" fill="#007AFF"/>
<path d="M406.526 283.033C406.526 283.033 411.211 342.189 414.632 371.377C418.179 401.74 429.863 459.988 429.863 459.988L446.821 459.625C446.821 459.625 442.168 393.493 440.368 363.193C438.4 330.127 437.895 282.307 437.895 282.307L406.526 283.033Z" fill="#007AFF"/>
<path opacity="0.6" d="M406.526 283.033C406.526 283.033 411.211 342.189 414.632 371.377C418.179 401.74 429.863 459.988 429.863 459.988L446.821 459.625C446.821 459.625 442.168 393.493 440.368 363.193C438.4 330.127 437.895 282.307 437.895 282.307L406.526 283.033Z" fill="white"/>
<path d="M448.905 460.395L428.958 460.801L427.495 454.081L448.663 454.027L448.905 460.395Z" fill="#007AFF"/>
<path d="M388.81 201.015C388.81 201.015 381.874 227.147 389.979 283.397C405.116 283.066 430.537 282.468 437.895 282.329C438.084 274.498 432.389 236.1 439.052 199.081C434.259 198.241 429.41 197.762 424.547 197.649C417.428 197.386 410.301 197.543 403.2 198.12C398.336 198.704 393.525 199.672 388.81 201.015Z" fill="#263238"/>
<path opacity="0.2" d="M436.147 225.427L428.305 218.835C428.821 223.985 433.41 236.602 435.831 242.991C435.789 237.393 435.842 231.485 436.147 225.427Z" fill="black"/>
<path d="M408.095 216.164L399.537 233.354C399.356 233.715 399.293 234.125 399.356 234.524C399.42 234.924 399.606 235.293 399.89 235.578C400.173 235.863 400.538 236.05 400.932 236.111C401.327 236.172 401.73 236.104 402.084 235.918L407.674 232.798C407.978 232.632 408.321 232.557 408.665 232.579C409.01 232.602 409.341 232.722 409.621 232.927L415.126 236.954C415.442 237.188 415.824 237.312 416.215 237.308C416.606 237.304 416.986 237.173 417.297 236.933C417.609 236.693 417.836 236.358 417.946 235.977C418.055 235.596 418.041 235.19 417.905 234.818L411.474 216.463C411.362 216.114 411.151 215.806 410.868 215.577C410.585 215.349 410.242 215.21 409.882 215.178C409.521 215.146 409.16 215.223 408.842 215.398C408.524 215.573 408.264 215.84 408.095 216.164Z" fill="white"/>
<path d="M421.916 173.247C420.716 180.256 419.642 193.055 424.547 197.595C424.547 197.595 423.116 203.942 410.053 206.142C401.274 203.279 403.2 198.108 403.2 198.108C410.821 196.078 410.495 190.32 409.053 184.935L421.916 173.247Z" fill="#FF8B7B"/>
<path opacity="0.2" d="M416.674 178.002L409.052 184.882C409.407 186.137 409.654 187.42 409.789 188.718C412.716 188.226 416.663 184.872 416.905 181.763C417.054 180.505 416.976 179.231 416.674 178.002Z" fill="black"/>
<path d="M426.095 164.626C423.558 173.728 422.537 179.188 416.937 182.916C408.516 188.515 398.189 181.848 397.989 172.136C397.8 163.418 401.968 149.989 411.674 148.279C413.805 147.896 415.998 148.071 418.045 148.788C420.091 149.505 421.923 150.741 423.368 152.378C424.812 154.015 425.82 155.999 426.298 158.142C426.775 160.286 426.705 162.517 426.095 164.626Z" fill="#FF8B7B"/>
<path d="M420.695 170.202C419.516 167.296 418.663 157.724 423.579 155.373C428.495 153.023 433.6 158.76 432.305 161.474C430.316 165.683 423.431 176.933 420.695 170.202Z" fill="#263238"/>
<path d="M423.632 158.749C422.421 155.544 407.989 153.728 405.968 150.277C403.568 146.174 413.411 145.683 420.179 147.766C426.126 149.604 430.095 151.377 429.4 155.865C429.011 158.407 423.632 158.749 423.632 158.749Z" fill="#263238"/>
<path d="M426.768 155.448C426.768 155.448 429.926 156.324 431.653 153.974C431.105 156.303 428.421 158.653 426.768 155.448Z" fill="#263238"/>
<path d="M412.316 145.566C407.979 142.147 402.074 146.164 402.632 150.619C403.189 155.074 417.81 158.461 417.81 158.461C417.81 158.461 418.074 150.107 412.316 145.566Z" fill="#263238"/>
<path d="M402.642 150.64C403.305 153.76 405.547 156.206 410.084 158.023C407.458 156.052 405.469 153.334 404.368 150.213L402.642 150.64Z" fill="#263238"/>
<path d="M411.747 164.167C411.589 164.925 411.074 165.449 410.589 165.342C410.105 165.235 409.842 164.53 410 163.782C410.158 163.034 410.684 162.511 411.168 162.617C411.653 162.724 411.916 163.461 411.747 164.167Z" fill="#263238"/>
<path d="M403.389 162.329C403.221 163.077 402.705 163.6 402.221 163.494C401.737 163.387 401.474 162.692 401.632 161.944C401.789 161.197 402.316 160.673 402.8 160.769C403.284 160.865 403.547 161.581 403.389 162.329Z" fill="#263238"/>
<path d="M405.969 163.291C404.594 165.393 402.94 167.291 401.053 168.932C402.105 170.46 404.453 170.385 404.453 170.385L405.969 163.291Z" fill="#FF5652"/>
<path d="M406.158 172.937C407.146 173.187 408.18 173.19 409.169 172.946C410.159 172.702 411.076 172.219 411.842 171.538C411.863 171.517 411.88 171.492 411.891 171.465C411.903 171.437 411.908 171.408 411.908 171.378C411.908 171.348 411.903 171.318 411.891 171.291C411.88 171.263 411.863 171.238 411.842 171.217C411.799 171.177 411.743 171.154 411.684 171.154C411.626 171.154 411.569 171.177 411.526 171.217C410.808 171.831 409.957 172.266 409.043 172.487C408.129 172.708 407.177 172.708 406.263 172.489C406.205 172.476 406.143 172.487 406.093 172.52C406.043 172.554 406.007 172.606 405.995 172.665C405.982 172.725 405.993 172.787 406.026 172.838C406.059 172.889 406.11 172.925 406.168 172.937H406.158Z" fill="#263238"/>
<path d="M414.852 161.987C414.933 162.003 415.017 161.997 415.094 161.969C415.172 161.941 415.24 161.891 415.292 161.827C415.344 161.762 415.378 161.684 415.389 161.601C415.401 161.518 415.39 161.434 415.358 161.357C415.073 160.699 414.639 160.119 414.089 159.666C413.54 159.212 412.892 158.898 412.2 158.75C412.083 158.735 411.965 158.766 411.87 158.838C411.776 158.91 411.713 159.016 411.695 159.135C411.686 159.193 411.688 159.252 411.702 159.309C411.715 159.367 411.74 159.421 411.774 159.468C411.808 159.516 411.851 159.556 411.901 159.587C411.951 159.618 412.006 159.638 412.063 159.647C412.609 159.769 413.119 160.022 413.549 160.384C413.979 160.747 414.318 161.208 414.537 161.731C414.566 161.795 414.61 161.852 414.665 161.897C414.72 161.941 414.784 161.972 414.852 161.987Z" fill="#263238"/>
<path d="M400.337 158.601C400.419 158.624 400.507 158.621 400.588 158.592C400.669 158.564 400.739 158.511 400.789 158.44C401.123 157.986 401.556 157.618 402.056 157.366C402.555 157.114 403.105 156.984 403.663 156.987C403.78 156.999 403.897 156.962 403.988 156.886C404.079 156.81 404.136 156.7 404.147 156.581C404.159 156.462 404.123 156.344 404.048 156.251C403.973 156.159 403.865 156.101 403.747 156.09C403.041 156.069 402.34 156.221 401.704 156.533C401.068 156.846 400.516 157.309 400.095 157.885C400.057 157.93 400.03 157.983 400.013 158.04C399.996 158.097 399.991 158.157 399.998 158.216C400.005 158.275 400.024 158.332 400.053 158.383C400.082 158.435 400.122 158.48 400.168 158.515C400.216 158.558 400.274 158.587 400.337 158.601Z" fill="#263238"/>
<path d="M441.347 206.367C443.263 209.765 444.863 213.055 446.526 216.442C448.189 219.829 449.684 223.237 451.105 226.72C452.526 230.203 453.905 233.739 455.105 237.404C456.353 241.058 457.407 244.778 458.263 248.547L458.905 251.463C459.186 252.833 459.306 254.232 459.263 255.63C459.174 258.228 458.606 260.787 457.589 263.173C455.802 267.194 453.26 270.823 450.105 273.857C447.291 276.614 444.225 279.093 440.947 281.26C439.358 282.329 437.716 283.312 436.063 284.252C434.41 285.192 432.768 286.057 430.926 286.88L427.431 280.673C428.705 279.604 430.105 278.536 431.41 277.382C432.716 276.228 433.989 275.053 435.252 273.878C437.692 271.581 439.954 269.099 442.021 266.453C443.859 264.183 445.284 261.6 446.231 258.824C446.557 257.79 446.686 256.702 446.61 255.619C446.58 255.184 446.498 254.753 446.368 254.337L445.652 251.944C443.525 245.306 440.994 238.809 438.074 232.489C436.631 229.284 435.095 226.079 433.558 222.874C432.021 219.668 430.4 216.463 428.831 213.418L441.347 206.367Z" fill="#FF8B7B"/>
<path d="M439.411 199.134C448.189 201.057 454.295 224.305 454.295 224.305L438.6 238.76C433.61 233.126 429.685 226.607 427.021 219.53C422.863 207.895 430.021 197.062 439.411 199.134Z" fill="#263238"/>
<path d="M429.337 279.572L419.242 279.679L425.558 290.01C425.558 290.01 432.747 288.205 433.389 284.54L429.337 279.572Z" fill="#FF8B7B"/>
<path d="M412.958 285.779L418.526 294.07L425.505 290.01L419.242 279.679L412.958 285.779Z" fill="#FF8B7B"/>
<path d="M428.852 172.959C427.731 175.054 425.839 176.613 423.589 177.297C420.6 178.184 419.074 175.481 419.874 172.607C420.6 170.021 423.031 166.442 426.021 166.816C429.01 167.19 430.189 170.385 428.852 172.959Z" fill="#FF8B7B"/>
<path d="M339.383 349.729L328.159 350.556L328.236 351.621L339.459 350.795L339.383 349.729Z" fill="#007AFF"/>
<path d="M349.467 348.992L343.955 349.397L344.031 350.463L349.543 350.057L349.467 348.992Z" fill="#007AFF"/>
<path d="M397.895 223.579L212.042 237.18C208.174 237.486 204.581 239.328 202.043 242.306C199.504 245.284 198.226 249.158 198.484 253.088L204.8 341.998C205.099 345.93 206.916 349.583 209.855 352.162C212.794 354.741 216.618 356.037 220.495 355.769L231.021 355C231.786 354.944 232.541 355.198 233.121 355.707C233.702 356.216 234.059 356.938 234.116 357.714L235.295 374.188C235.314 374.507 235.427 374.813 235.619 375.066C235.81 375.32 236.073 375.509 236.371 375.61C236.67 375.712 236.992 375.72 237.295 375.634C237.599 375.548 237.87 375.372 238.074 375.128L255.695 354.455C256.436 353.589 257.484 353.055 258.61 352.97L406.316 342.169C410.186 341.865 413.781 340.024 416.322 337.046C418.862 334.067 420.142 330.192 419.884 326.261L413.568 237.35C413.269 233.423 411.455 229.773 408.521 227.195C405.586 224.616 401.768 223.317 397.895 223.579Z" fill="#007AFF"/>
<path opacity="0.2" d="M212.042 237.18C208.174 237.486 204.581 239.328 202.043 242.306C199.504 245.284 198.226 249.159 198.484 253.088L204.8 341.998C205.099 345.93 206.916 349.583 209.855 352.162C212.794 354.741 216.618 356.037 220.495 355.769L222.042 355.652C224.613 355.463 227.051 354.418 228.977 352.68C230.903 350.941 232.21 348.606 232.695 346.036L253.863 234.113L212.042 237.18Z" fill="black"/>
<path d="M401.561 291.242L399.371 271.215L406.05 270.796L406.252 290.947L401.561 291.242ZM404.456 300.322C403.422 300.387 402.54 300.101 401.811 299.464C401.108 298.825 400.724 297.975 400.661 296.913C400.598 295.852 400.877 294.96 401.5 294.238C402.147 293.486 402.987 293.078 404.02 293.014C405.081 292.947 405.963 293.247 406.668 293.913C407.371 294.552 407.754 295.402 407.817 296.464C407.882 297.552 407.604 298.458 406.982 299.18C406.358 299.875 405.516 300.256 404.456 300.322Z" fill="white"/>
<path d="M397.009 291.387L381.927 292.336C382.199 293.793 382.796 294.888 383.716 295.622C384.634 296.329 385.808 296.637 387.237 296.547C388.137 296.491 388.932 296.25 389.624 295.824C390.341 295.369 390.835 294.751 391.107 293.97L396.783 293.612C396.304 295.827 395.205 297.671 393.487 299.144C391.793 300.588 389.756 301.385 387.374 301.535C384.305 301.728 381.729 300.839 379.646 298.868C377.564 296.897 376.424 294.265 376.228 290.974C376.039 287.791 376.86 285.078 378.692 282.833C380.524 280.588 382.961 279.37 386.004 279.178C389.047 278.987 391.584 279.892 393.616 281.894C395.672 283.867 396.796 286.458 396.987 289.668L397.009 291.387ZM386.241 283.832C384.971 283.912 383.948 284.345 383.171 285.131C382.393 285.89 381.922 286.902 381.759 288.169L391.205 287.574C390.92 286.364 390.346 285.417 389.482 284.734C388.618 284.051 387.538 283.751 386.241 283.832Z" fill="white"/>
<path d="M359.5 290.564L360.223 302.717L354.588 303.072L353.834 290.389C353.667 287.588 352.473 286.258 350.25 286.398C348.954 286.479 347.973 286.95 347.308 287.811C346.668 288.67 346.392 289.82 346.477 291.261L347.208 303.536L341.573 303.89L340.301 282.521L345.5 282.194L345.655 284.804C346.617 282.669 348.552 281.51 351.462 281.327C354.213 281.154 356.284 282.034 357.673 283.966C359.326 281.843 361.568 280.692 364.398 280.514C366.832 280.361 368.743 281.018 370.132 282.487C371.52 283.955 372.291 285.98 372.445 288.563L373.239 301.899L367.604 302.253L366.849 289.57C366.682 286.77 365.488 285.439 363.266 285.579C361.943 285.662 360.963 286.147 360.325 287.033C359.686 287.892 359.411 289.069 359.5 290.564Z" fill="white"/>
<path d="M334.551 301.563C332.668 303.838 330.1 305.078 326.845 305.283C323.59 305.488 320.894 304.579 318.755 302.557C316.615 300.507 315.451 297.919 315.265 294.791C315.079 291.663 315.928 288.961 317.811 286.686C319.692 284.383 322.26 283.129 325.515 282.925C328.769 282.72 331.467 283.642 333.607 285.692C335.746 287.714 336.908 290.289 337.094 293.417C337.281 296.545 336.433 299.261 334.551 301.563ZM322.105 289.896C321.191 291.046 320.789 292.559 320.901 294.436C321.013 296.313 321.591 297.764 322.634 298.791C323.704 299.816 325.007 300.28 326.542 300.183C328.076 300.087 329.301 299.464 330.215 298.314C331.156 297.163 331.57 295.649 331.459 293.772C331.347 291.895 330.756 290.444 329.686 289.42C328.642 288.393 327.353 287.928 325.818 288.025C324.283 288.121 323.046 288.745 322.105 289.896Z" fill="white"/>
<path d="M296.329 303.987C294.243 301.961 293.106 299.357 292.916 296.174C292.727 292.991 293.548 290.278 295.38 288.033C297.237 285.759 299.673 284.527 302.69 284.337C305.654 284.151 308.033 284.861 309.829 286.469C311.65 288.074 312.744 289.93 313.108 292.037L307.313 292.401C307.046 291.49 306.512 290.759 305.709 290.209C304.906 289.659 303.988 289.416 302.956 289.481C301.474 289.574 300.343 290.205 299.563 291.374C298.781 292.515 298.444 293.997 298.553 295.82C298.661 297.642 299.172 299.084 300.085 300.146C300.996 301.181 302.193 301.652 303.675 301.559C304.707 301.494 305.589 301.138 306.32 300.491C307.052 299.845 307.496 299.052 307.653 298.114L313.448 297.749C313.336 299.886 312.471 301.865 310.853 303.687C309.262 305.508 306.984 306.511 304.02 306.697C301.004 306.887 298.44 305.984 296.329 303.987Z" fill="white"/>
<path d="M289.702 307.098L284.053 307.452L282.229 276.827L287.878 276.472L289.702 307.098Z" fill="white"/>
<path d="M279.649 298.653L264.566 299.602C264.839 301.059 265.435 302.155 266.356 302.889C267.274 303.596 268.448 303.904 269.877 303.814C270.776 303.757 271.572 303.516 272.264 303.091C272.98 302.636 273.475 302.018 273.747 301.236L279.423 300.879C278.944 303.093 277.845 304.937 276.127 306.411C274.433 307.855 272.395 308.652 270.014 308.802C266.945 308.995 264.369 308.106 262.286 306.135C260.203 304.163 259.064 301.532 258.868 298.241C258.679 295.058 259.5 292.344 261.332 290.099C263.164 287.854 265.601 286.636 268.644 286.445C271.687 286.253 274.224 287.159 276.255 289.16C278.312 291.133 279.435 293.725 279.626 296.935L279.649 298.653ZM268.881 291.099C267.611 291.179 266.588 291.612 265.811 292.398C265.033 293.157 264.562 294.169 264.398 295.435L273.845 294.841C273.56 293.63 272.986 292.684 272.122 292.001C271.258 291.318 270.178 291.017 268.881 291.099Z" fill="white"/>
<path d="M237.912 289.741L233.417 310.573L227.306 310.958L216.932 282.546L223.44 282.137L229.896 302.28L229.975 302.275L234.392 281.448L240.661 281.053L247.514 301.172L247.594 301.167L251.613 280.365L257.962 279.965L251.035 309.465L244.924 309.85L237.992 289.736L237.912 289.741Z" fill="white"/>
<path d="M209.474 207.906C209.427 209.47 209.508 211.035 209.716 212.585C200.177 215.818 190.005 216.636 180.084 214.968C180.56 213.14 180.85 211.268 180.947 209.38C180.615 211.281 179.964 213.109 179.021 214.786C177.147 214.423 176.095 214.113 176.095 214.113C176.095 214.113 178.01 203.6 174.558 195.95C171.105 188.301 172.832 184.027 175.442 182.82C180.284 167.713 198.484 170.096 204.642 176.228C212.453 184.006 212.495 205.918 213.884 210.929C212.737 211.431 211.611 211.891 210.484 212.297C209.92 210.897 209.579 209.414 209.474 207.906Z" fill="#263238"/>
<path d="M217 231.42L217.948 234.465C218.295 235.533 218.642 236.602 219 237.617C219.705 239.753 220.442 241.89 221.232 243.941C222.021 245.993 222.779 248.151 223.6 250.245L224.821 253.45L225.127 254.24L225.2 254.422C225.07 254.306 224.92 254.216 224.758 254.155C224.527 254.069 224.432 254.155 224.579 254.155C224.833 254.154 225.085 254.114 225.327 254.037C226.15 253.773 226.941 253.414 227.684 252.969C229.48 251.907 231.196 250.715 232.821 249.401C234.527 248.055 236.2 246.612 237.842 245.127C239.484 243.642 241.137 242.093 242.727 240.576L245.958 243.354C244.611 245.319 243.19 247.114 241.748 248.941C240.305 250.768 238.684 252.478 237.021 254.176C235.309 255.95 233.446 257.566 231.453 259.005C230.312 259.816 229.088 260.497 227.8 261.035C226.983 261.368 226.127 261.591 225.253 261.698C224.067 261.848 222.862 261.682 221.758 261.217C220.554 260.696 219.529 259.827 218.811 258.717C218.653 258.471 218.505 258.225 218.39 258.001L218.105 257.424L217.727 256.644C217.232 255.576 216.674 254.508 216.242 253.503C215.284 251.367 214.327 249.23 213.453 247.093C212.579 244.956 211.727 242.755 210.916 240.555C210.537 239.486 210.158 238.322 209.8 237.2C209.442 236.078 209.095 234.978 208.748 233.664L217 231.42Z" fill="#FFC3BD"/>
<path d="M214.505 221.933C218.137 222.874 220.674 238.023 220.674 238.023L210.674 244.925C210.674 244.925 201.095 229.636 203.884 225.587C206.79 221.378 209.211 220.566 214.505 221.933Z" fill="#007AFF"/>
<path d="M214.505 221.933C218.137 222.874 220.674 238.023 220.674 238.023L210.674 244.925C210.674 244.925 201.095 229.636 203.884 225.587C206.79 221.378 209.211 220.566 214.505 221.933Z" fill="#007AFF"/>
<path opacity="0.4" d="M214.505 221.933C218.137 222.874 220.674 238.023 220.674 238.023L210.674 244.925C210.674 244.925 201.095 229.636 203.884 225.587C206.79 221.378 209.211 220.566 214.505 221.933Z" fill="white"/>
<path opacity="0.3" d="M214.179 225.319L216.968 240.586L211.347 244.454L214.179 225.319Z" fill="black"/>
<path d="M242.558 240.94L245.895 232.777L250.01 240.94C250.01 240.94 247.337 245 243.81 244.006L242.558 240.94Z" fill="#FFC3BD"/>
<path d="M249.568 231.934L254.853 234.092L250.011 240.94L245.884 232.778L249.568 231.934Z" fill="#FFC3BD"/>
<path d="M194.874 476.977H203.684L204.274 456.282H195.463L194.874 476.977Z" fill="#FFC3BD"/>
<path d="M135.8 450.32L143.895 453.824L154.495 435.918L146.39 432.414L135.8 450.32Z" fill="#FFC3BD"/>
<path d="M145.453 452.607L137.032 447.35C136.888 447.256 136.715 447.22 136.546 447.247C136.377 447.275 136.224 447.365 136.116 447.5L131.053 453.664C130.927 453.826 130.836 454.013 130.787 454.212C130.738 454.412 130.732 454.62 130.769 454.823C130.806 455.025 130.885 455.217 131.001 455.386C131.117 455.555 131.268 455.696 131.442 455.801C134.411 457.585 135.926 458.29 139.632 460.598C141.916 462.03 145.095 464.337 148.242 466.303C151.39 468.269 153.505 465.235 152.337 464.113C147.232 459.167 147.379 456.816 146.421 453.889C146.262 453.356 145.918 452.901 145.453 452.607Z" fill="#263238"/>
<path d="M203.979 475.939H194.095C193.925 475.938 193.759 475.998 193.63 476.11C193.5 476.222 193.415 476.378 193.39 476.548L192.263 484.497C192.236 484.701 192.252 484.909 192.311 485.105C192.371 485.302 192.471 485.484 192.607 485.637C192.742 485.79 192.908 485.912 193.094 485.994C193.28 486.076 193.482 486.115 193.684 486.11C197.137 486.057 198.8 485.843 203.158 485.843C205.832 485.843 211.368 486.132 215.063 486.132C218.758 486.132 218.947 482.425 217.411 482.083C210.516 480.576 207.8 478.504 205.474 476.527C205.062 476.154 204.531 475.946 203.979 475.939Z" fill="#263238"/>
<path opacity="0.2" d="M204.263 456.292L203.968 466.954H195.158L195.463 456.292H204.263Z" fill="black"/>
<path opacity="0.2" d="M146.389 432.425L154.484 435.918L149.021 445.149L140.926 441.645L146.389 432.425Z" fill="black"/>
<path d="M214.505 221.933C214.505 221.933 218.716 223.428 210.295 275.854H174.505C175.105 261.089 175.127 251.986 168.19 221.676C173.194 220.627 178.267 219.948 183.369 219.646C188.776 219.251 194.204 219.251 199.611 219.646C206.6 220.287 214.505 221.933 214.505 221.933Z" fill="#007AFF"/>
<path opacity="0.4" d="M214.505 221.933C214.505 221.933 218.716 223.428 210.295 275.854H174.505C175.105 261.089 175.127 251.986 168.19 221.676C173.194 220.627 178.267 219.948 183.369 219.646C188.776 219.251 194.204 219.251 199.611 219.646C206.6 220.287 214.505 221.933 214.505 221.933Z" fill="white"/>
<path d="M183.389 219.637C188.797 219.251 194.224 219.251 199.631 219.637C200.505 219.722 201.4 219.818 202.284 219.925C202.652 220.487 202.888 221.126 202.974 221.795C203.06 222.464 202.993 223.144 202.779 223.782C201.631 226.656 197.516 226.987 194.526 226.987C183.463 226.987 181.589 220.427 181.516 220.149L181.41 219.754L183.389 219.637Z" fill="white"/>
<path d="M185 201.09C186.053 206.432 187.053 216.111 183.39 219.648C183.39 219.648 184.821 224.989 194.526 224.989C205.2 224.989 199.632 219.648 199.632 219.648C193.8 218.237 193.958 213.846 194.969 209.733L185 201.09Z" fill="#FFC3BD"/>
<path d="M186.063 197.317C184.811 201.516 186.547 211.452 189.126 215.298C184.042 212.339 182.326 203.322 182.326 203.322L186.063 197.317Z" fill="#263238"/>
<path opacity="0.2" d="M189.063 204.615L194.968 209.722C194.709 210.679 194.54 211.66 194.463 212.649C192.242 212.318 189.2 209.84 188.947 207.478C188.817 206.525 188.856 205.555 189.063 204.615Z" fill="black"/>
<path d="M180.179 191.624C182.221 200.245 182.895 203.942 188.011 207.649C195.705 213.216 205.695 208.792 206.232 199.722C206.716 191.56 203.305 178.835 194.305 176.869C192.322 176.425 190.261 176.502 188.315 177.094C186.37 177.686 184.606 178.772 183.191 180.251C181.776 181.729 180.756 183.549 180.229 185.54C179.702 187.53 179.685 189.625 180.179 191.624Z" fill="#FFC3BD"/>
<path d="M210.305 275.854C210.305 275.854 217.242 344.679 216.621 371.923C216.021 400.256 205.789 464.871 205.789 464.871H193.895C193.895 464.871 195.779 401.891 194.726 374.06C193.579 343.718 184.084 275.833 184.084 275.833L210.305 275.854Z" fill="#007AFF"/>
<path opacity="0.4" d="M210.305 275.854C210.305 275.854 217.242 344.679 216.621 371.923C216.021 400.256 205.789 464.871 205.789 464.871H193.895C193.895 464.871 195.779 401.891 194.726 374.06C193.579 343.718 184.084 275.833 184.084 275.833L210.305 275.854Z" fill="black"/>
<path d="M192.905 465.321H206.863L207.895 460.802L192.253 460.246L192.905 465.321Z" fill="#007AFF"/>
<path opacity="0.2" d="M194.884 292.981C203.663 310.908 196.642 343.611 193.537 355.78C191.947 337.51 189.263 315.181 187.168 298.76C188.495 289.53 190.832 284.711 194.884 292.981Z" fill="black"/>
<path d="M200.863 275.854C200.863 275.854 192.758 347.436 186.642 370.374C179.389 397.649 151.779 444.092 151.779 444.092L140.737 439.327C140.737 439.327 157.821 386.592 163.379 372.222C175.221 341.56 165.084 295.865 174.547 275.854H200.863Z" fill="#007AFF"/>
<path opacity="0.4" d="M200.863 275.854C200.863 275.854 192.758 347.436 186.642 370.374C179.389 397.649 151.779 444.092 151.779 444.092L140.737 439.327C140.737 439.327 157.821 386.592 163.379 372.222C175.221 341.56 165.084 295.865 174.547 275.854H200.863Z" fill="black"/>
<path d="M139.211 439.358L152.916 445.277L156.211 441.538L140.4 433.835L139.211 439.358Z" fill="#007AFF"/>
<path d="M193.684 191.742C193.81 192.447 194.274 192.959 194.737 192.874C195.2 192.789 195.463 192.148 195.337 191.442C195.21 190.737 194.747 190.224 194.284 190.299C193.821 190.374 193.505 191.026 193.684 191.742Z" fill="#263238"/>
<path d="M201.537 190.33C201.653 191.036 202.126 191.548 202.59 191.463C203.053 191.377 203.326 190.736 203.2 190.031C203.074 189.326 202.611 188.813 202.147 188.888C201.684 188.963 201.411 189.615 201.537 190.33Z" fill="#263238"/>
<path d="M201.948 188.974L203.537 188.173C203.537 188.173 202.905 189.658 201.948 188.974Z" fill="#263238"/>
<path d="M199.653 191.923C200.556 193.431 201.662 194.804 202.937 196.004C202.624 196.325 202.247 196.573 201.831 196.732C201.415 196.891 200.97 196.956 200.526 196.923L199.653 191.923Z" fill="#ED847E"/>
<path d="M197.358 200.266C197.757 200.266 198.155 200.23 198.547 200.16C198.577 200.158 198.607 200.151 198.634 200.137C198.661 200.123 198.684 200.104 198.703 200.08C198.722 200.056 198.736 200.028 198.743 199.999C198.75 199.969 198.751 199.938 198.746 199.908C198.741 199.878 198.729 199.85 198.712 199.825C198.695 199.799 198.673 199.778 198.647 199.763C198.621 199.747 198.592 199.737 198.562 199.734C198.533 199.73 198.502 199.733 198.474 199.743C197.607 199.918 196.712 199.883 195.861 199.64C195.01 199.396 194.228 198.952 193.579 198.343C193.54 198.304 193.487 198.282 193.432 198.282C193.377 198.282 193.324 198.304 193.284 198.343C193.264 198.362 193.248 198.385 193.236 198.411C193.225 198.437 193.219 198.465 193.219 198.493C193.219 198.521 193.225 198.549 193.236 198.575C193.248 198.6 193.264 198.623 193.284 198.642C194.383 199.7 195.844 200.282 197.358 200.266Z" fill="#263238"/>
<path d="M183.158 186.57C183.388 188.842 183.739 191.1 184.211 193.333C184.211 193.333 189.474 186.57 190.347 182.948C190.139 184.374 189.731 185.763 189.137 187.072C189.137 187.072 196.221 185.502 196.916 180.758C196.904 182.882 196.671 184.998 196.221 187.072C196.221 187.072 202.979 184.38 202.358 179.829C201.737 175.278 191.358 173.515 186.568 175.053C181.779 176.592 177.095 181.581 178.505 188.44C179.916 195.299 182.621 197.874 182.621 197.874C182.621 197.874 180.674 190.961 183.158 186.57Z" fill="#263238"/>
<path d="M179.81 198.12C180.46 199.703 181.702 200.959 183.263 201.614C185.368 202.468 186.621 200.641 186.253 198.526C185.926 196.614 184.442 193.879 182.263 193.921C181.786 193.943 181.322 194.084 180.913 194.333C180.504 194.583 180.162 194.931 179.918 195.348C179.675 195.764 179.538 196.236 179.519 196.72C179.5 197.204 179.6 197.685 179.81 198.12Z" fill="#FFC3BD"/>
<path d="M184.432 183.279C183.379 187.553 185.569 197.382 188.326 201.089C183.063 198.386 180.958 189.455 180.958 189.455L184.432 183.279Z" fill="#263238"/>
<path d="M190.8 189.305C190.854 189.288 190.904 189.261 190.948 189.224C190.991 189.188 191.027 189.142 191.053 189.091C191.275 188.609 191.606 188.188 192.02 187.861C192.433 187.534 192.917 187.311 193.432 187.211C193.541 187.195 193.639 187.137 193.708 187.05C193.776 186.963 193.809 186.852 193.8 186.741C193.795 186.685 193.779 186.631 193.752 186.582C193.726 186.532 193.69 186.489 193.647 186.454C193.604 186.419 193.554 186.393 193.501 186.378C193.447 186.363 193.392 186.36 193.337 186.367C192.684 186.482 192.068 186.755 191.54 187.162C191.013 187.569 190.589 188.099 190.305 188.707C190.27 188.781 190.256 188.864 190.266 188.946C190.276 189.028 190.309 189.106 190.361 189.169C190.414 189.232 190.483 189.279 190.561 189.303C190.639 189.327 190.722 189.328 190.8 189.305Z" fill="#263238"/>
<path d="M204.411 185.993C204.464 185.995 204.516 185.986 204.565 185.965C204.614 185.945 204.659 185.914 204.695 185.875C204.772 185.795 204.815 185.688 204.815 185.576C204.815 185.464 204.772 185.357 204.695 185.277C204.246 184.784 203.689 184.405 203.069 184.171C202.449 183.937 201.784 183.855 201.126 183.931C201.072 183.941 201.019 183.962 200.973 183.993C200.926 184.024 200.886 184.064 200.855 184.11C200.823 184.157 200.802 184.21 200.79 184.265C200.779 184.32 200.779 184.377 200.79 184.433C200.812 184.541 200.876 184.636 200.966 184.697C201.056 184.759 201.167 184.783 201.274 184.764C201.792 184.705 202.317 184.771 202.805 184.957C203.293 185.143 203.732 185.443 204.084 185.832C204.123 185.882 204.173 185.922 204.23 185.95C204.286 185.978 204.348 185.992 204.411 185.993Z" fill="#263238"/>
<path d="M172.558 234.358C171.095 239.049 169.695 243.974 168.505 248.824C167.308 253.612 166.432 258.478 165.884 263.386L165.8 264.284C165.8 264.572 165.8 264.636 165.8 264.893C165.812 265.397 165.85 265.899 165.916 266.399C166.05 267.569 166.243 268.732 166.495 269.882C166.989 272.264 167.547 274.722 168.263 277.158C168.979 279.593 169.589 282.072 170.305 284.529L172.411 291.901L168.505 293.536C166.105 288.878 164.021 284.134 162.074 279.241C161.137 276.784 160.221 274.305 159.463 271.687C159.084 270.384 158.726 269.049 158.411 267.596C158.261 266.826 158.155 266.048 158.095 265.267C158.095 264.871 158.095 264.284 158.095 263.931V262.863C158.184 260.14 158.43 257.426 158.832 254.732C159.179 252.061 159.695 249.455 160.253 246.858C161.348 241.659 162.754 236.532 164.463 231.506L172.558 234.358Z" fill="#FFC3BD"/>
<path d="M168.211 221.677C164.632 222.746 160.326 235.299 160.326 235.299L174.221 245.385C174.221 245.385 179.295 234.936 177.79 230.235C176.221 225.342 172.305 220.417 168.211 221.677Z" fill="#007AFF"/>
<path opacity="0.4" d="M168.211 221.677C164.632 222.746 160.326 235.299 160.326 235.299L174.221 245.385C174.221 245.385 179.295 234.936 177.79 230.235C176.221 225.342 172.305 220.417 168.211 221.677Z" fill="white"/>
<path d="M149.011 456.005C149.182 455.944 149.338 455.845 149.467 455.716C149.596 455.586 149.695 455.43 149.758 455.257C149.819 455.146 149.851 455.021 149.851 454.894C149.851 454.766 149.819 454.641 149.758 454.53C149.126 453.59 145.937 453.665 145.547 453.676C145.507 453.676 145.468 453.689 145.434 453.711C145.401 453.734 145.374 453.766 145.358 453.804C145.338 453.838 145.327 453.876 145.327 453.916C145.327 453.956 145.338 453.994 145.358 454.028C146.19 454.872 147.747 456.25 148.842 456.037L149.011 456.005ZM146.053 454.06C147.326 454.06 149.032 454.242 149.369 454.744C149.397 454.792 149.413 454.848 149.413 454.904C149.413 454.961 149.397 455.016 149.369 455.065C149.322 455.193 149.245 455.309 149.144 455.4C149.043 455.491 148.921 455.556 148.79 455.588C148.211 455.738 147.2 455.129 146.053 454.06Z" fill="#007AFF"/>
<path d="M146.99 453.835C147.958 453.525 148.99 452.98 149.211 452.371C149.266 452.213 149.266 452.04 149.213 451.881C149.159 451.722 149.055 451.586 148.916 451.495C148.793 451.391 148.649 451.317 148.494 451.278C148.339 451.239 148.177 451.237 148.021 451.271C146.769 451.495 145.421 453.675 145.369 453.771C145.35 453.803 145.34 453.84 145.34 453.878C145.34 453.915 145.35 453.952 145.369 453.984C145.387 454.016 145.414 454.042 145.445 454.06C145.476 454.079 145.511 454.09 145.547 454.091C146.038 454.077 146.524 453.991 146.99 453.835ZM147.958 451.698H148.095C148.194 451.677 148.296 451.679 148.394 451.703C148.493 451.727 148.585 451.773 148.663 451.837C148.874 452.008 148.853 452.136 148.821 452.232C148.611 452.82 147.011 453.525 145.947 453.664C146.431 452.842 147.126 452.17 147.958 451.719V451.698Z" fill="#007AFF"/>
<path d="M207.284 477.5C208.026 477.562 208.767 477.37 209.389 476.955C209.534 476.822 209.644 476.655 209.71 476.469C209.776 476.283 209.796 476.083 209.768 475.887C209.76 475.771 209.723 475.659 209.66 475.562C209.598 475.465 209.512 475.385 209.411 475.331C208.358 474.733 204.832 476.549 204.432 476.752C204.393 476.768 204.36 476.796 204.337 476.831C204.313 476.866 204.301 476.908 204.301 476.95C204.301 476.992 204.313 477.034 204.337 477.069C204.36 477.104 204.393 477.131 204.432 477.148C205.368 477.362 206.324 477.481 207.284 477.5ZM208.853 475.652C208.987 475.643 209.12 475.669 209.242 475.727C209.284 475.75 209.318 475.784 209.342 475.825C209.366 475.866 209.379 475.914 209.379 475.962C209.399 476.085 209.388 476.21 209.347 476.328C209.307 476.446 209.238 476.551 209.147 476.635C208.611 477.126 207.158 477.212 205.21 476.88C206.347 476.265 207.579 475.849 208.853 475.652Z" fill="#007AFF"/>
<path d="M204.558 477.19H204.642C205.695 476.709 207.8 474.786 207.61 473.771C207.61 473.525 207.4 473.237 206.821 473.173C206.614 473.149 206.404 473.169 206.205 473.232C206.005 473.294 205.821 473.398 205.663 473.536C204.61 474.476 204.358 476.88 204.347 476.976C204.346 477.014 204.354 477.051 204.371 477.084C204.387 477.118 204.412 477.147 204.442 477.168C204.476 477.19 204.518 477.198 204.558 477.19ZM206.663 473.568H206.789C207.168 473.568 207.2 473.771 207.2 473.814C207.305 474.423 205.895 475.95 204.821 476.602C204.905 475.587 205.299 474.623 205.947 473.846C206.14 473.668 206.392 473.569 206.653 473.568H206.663Z" fill="#007AFF"/>
<path d="M174.01 273.729L173.105 276.934C172.979 277.18 173.274 277.436 173.684 277.436H210.526C210.853 277.436 211.116 277.276 211.137 277.073L211.463 273.868C211.463 273.644 211.2 273.451 210.853 273.451H174.6C174.486 273.442 174.373 273.463 174.269 273.512C174.166 273.56 174.077 273.635 174.01 273.729Z" fill="#263238"/>
<path d="M178.874 277.831H177.895C177.705 277.831 177.558 277.734 177.568 277.606L178.021 273.333C178.021 273.215 178.21 273.108 178.4 273.108H179.368C179.568 273.108 179.705 273.215 179.695 273.333L179.242 277.606C179.242 277.777 179.074 277.831 178.874 277.831Z" fill="#007AFF"/>
<path opacity="0.4" d="M178.874 277.831H177.895C177.705 277.831 177.558 277.734 177.568 277.606L178.021 273.333C178.021 273.215 178.21 273.108 178.4 273.108H179.368C179.568 273.108 179.705 273.215 179.695 273.333L179.242 277.606C179.242 277.777 179.074 277.831 178.874 277.831Z" fill="black"/>
<path d="M207.747 277.831H206.779C206.59 277.831 206.442 277.734 206.453 277.606L206.916 273.333C206.916 273.215 207.095 273.108 207.284 273.108H208.253C208.453 273.108 208.6 273.215 208.579 273.333L208.126 277.606C208.116 277.777 207.947 277.831 207.747 277.831Z" fill="#007AFF"/>
<path opacity="0.4" d="M207.747 277.831H206.779C206.59 277.831 206.442 277.734 206.453 277.606L206.916 273.333C206.916 273.215 207.095 273.108 207.284 273.108H208.253C208.453 273.108 208.6 273.215 208.579 273.333L208.126 277.606C208.116 277.777 207.947 277.831 207.747 277.831Z" fill="black"/>
<path d="M193.316 277.831H192.347C192.147 277.831 192 277.734 192.021 277.606L192.474 273.333C192.474 273.215 192.653 273.108 192.853 273.108H193.821C194.011 273.108 194.158 273.215 194.147 273.333L193.695 277.606C193.684 277.777 193.505 277.831 193.316 277.831Z" fill="#007AFF"/>
<path opacity="0.4" d="M193.316 277.831H192.347C192.147 277.831 192 277.734 192.021 277.606L192.474 273.333C192.474 273.215 192.653 273.108 192.853 273.108H193.821C194.011 273.108 194.158 273.215 194.147 273.333L193.695 277.606C193.684 277.777 193.505 277.831 193.316 277.831Z" fill="black"/>
<path d="M194.042 190.374L195.631 189.583C195.631 189.583 195 191.068 194.042 190.374Z" fill="#263238"/>
<path d="M172.116 290.694L179.663 296.57L170.916 298.526C170.916 298.526 167.2 294.252 168.484 290.726L172.116 290.694Z" fill="#FFC3BD"/>
<path d="M181.516 303.846L174.105 305.075L170.063 297.361L179.663 296.57L181.516 303.846Z" fill="#FFC3BD"/>
</g>
<defs>
<clipPath id="clip0_500_30617">
<rect width="600" height="500" fill="white"/>
</clipPath>
</defs>
</svg>
