<svg width="393" height="395" viewBox="0 0 393 395" fill="none" xmlns="http://www.w3.org/2000/svg">
<path d="M17.2582 29.2801C-42.4033 78.9753 -55.6463 202.394 -3.90322 261.236C7.42837 274.07 21.627 284.309 37.3274 290.999C53.5739 297.825 65.7246 294.002 82.6537 293.866C106.955 293.593 114.191 318.167 125.659 334.55C140.813 355.985 162.931 372.914 187.095 382.88C314.883 435.169 450.452 294.412 426.151 168.126C417.413 122.527 394.614 91.6721 352.018 72.0125C315.429 55.0834 274.472 50.305 234.197 46.8919C216.312 45.3901 196.243 43.6153 180.815 33.3759C174.262 29.0071 165.78 22.4592 159.5 18.5C152.947 14.4042 146.957 10.7127 139.585 7.70915C127.571 2.93077 114.737 0.47332 101.767 0.063745C76.5101 -0.755406 50.9799 6.3439 29.682 19.9964C25.5862 22.8634 21.3539 26.0035 17.2582 29.2801Z" fill="#E6F2FF"/>
<path d="M275.22 298.22C318.891 254.549 318.891 183.744 275.22 140.073C231.549 96.4023 160.744 96.4023 117.073 140.073C73.4024 183.744 73.4024 254.549 117.073 298.22C160.744 341.891 231.549 341.891 275.22 298.22Z" fill="#007AFF"/>
<path d="M299.54 218.681C299.54 227.676 298.332 236.536 296.184 244.859C287.323 278.69 261.816 305.673 228.792 316.547C218.589 319.903 207.715 321.783 196.438 321.783C184.356 321.783 172.676 319.769 161.937 315.876C155.627 313.728 149.586 310.909 143.948 307.553C143.545 307.284 143.008 307.016 142.605 306.747C141.128 305.807 139.786 305.002 138.443 304.062C137.906 303.794 137.504 303.391 137.101 303.123C136.161 302.451 135.222 301.78 134.282 301.109C134.013 300.84 133.745 300.706 133.476 300.438C133.074 300.169 132.805 299.901 132.402 299.632C131.865 299.229 131.463 298.827 130.926 298.424C130.523 298.021 130.12 297.753 129.717 297.35C128.643 296.41 127.704 295.605 126.764 294.665C126.227 294.262 125.824 293.725 125.287 293.323C124.885 292.92 124.482 292.517 124.079 292.249C123.542 291.712 123.139 291.309 122.602 290.772C122.2 290.369 121.931 290.101 121.528 289.698C120.052 288.221 118.709 286.61 117.367 285.133C117.098 284.865 116.964 284.596 116.695 284.328C110.923 277.347 106.09 269.561 102.331 261.103V260.969C101.391 258.955 100.586 256.807 99.7803 254.659C99.6461 254.257 99.5119 253.988 99.3776 253.585C99.2434 253.183 99.1091 252.78 98.9749 252.377C98.5721 251.169 98.1694 249.826 97.7666 248.618C97.7666 248.484 97.6324 248.216 97.6324 248.081C97.4981 247.813 97.4981 247.544 97.3639 247.41C97.2297 246.739 96.9612 245.933 96.8269 245.262C96.6927 244.859 96.5584 244.322 96.4242 243.92C96.2899 243.383 96.1557 242.98 96.0214 242.443C96.0214 242.309 96.0214 242.309 96.0214 242.174C95.8872 241.235 95.6187 240.429 95.4844 239.489C95.3502 238.952 95.216 238.415 95.216 237.744C94.679 234.791 94.2762 231.703 94.0077 228.615C94.0077 228.481 94.0077 228.481 94.0077 228.347C93.8735 227.541 93.8735 226.736 93.8735 225.931C93.7392 223.648 93.605 221.232 93.605 218.95C93.605 216.667 93.7392 214.52 93.8735 212.237C94.0077 209.955 94.2762 207.673 94.5447 205.391C94.679 204.854 94.679 204.317 94.8132 203.78C95.2159 201.095 95.7529 198.544 96.2899 195.993C97.0954 192.771 97.9009 189.415 98.9749 186.328C100.317 182.434 101.794 178.541 103.539 174.917C108.104 165.385 114.011 156.659 120.991 149.007C122.065 147.933 123.005 146.859 124.079 145.785C125.153 144.711 126.227 143.637 127.301 142.697L128.375 141.758C128.778 141.489 129.18 141.086 129.449 140.818C133.342 137.462 137.504 134.508 141.8 131.689L141.934 131.555C143.008 130.884 144.082 130.212 145.022 129.675C145.022 129.675 145.022 129.675 145.156 129.675C145.827 129.273 146.498 128.87 147.304 128.467C147.707 128.333 148.109 128.064 148.378 127.93C149.854 127.125 151.331 126.319 152.942 125.648C153.748 125.245 154.419 124.977 155.224 124.574C155.627 124.44 156.03 124.306 156.433 124.037C156.835 123.903 157.238 123.634 157.775 123.5C158.178 123.366 158.581 123.232 158.849 123.097C165.964 120.278 173.482 118.264 181.268 117.19C186.235 116.385 191.337 116.116 196.572 116.116C209.594 116.116 222.079 118.533 233.49 122.963C235.773 123.769 237.921 124.708 240.068 125.782C240.605 126.051 241.008 126.185 241.545 126.453C244.633 127.93 247.721 129.675 250.674 131.555C251.211 131.823 251.748 132.226 252.285 132.629C252.419 132.629 252.419 132.763 252.553 132.763C252.822 132.897 252.956 133.032 253.225 133.166C254.299 133.837 255.373 134.508 256.312 135.314C256.849 135.717 257.252 135.985 257.789 136.388C258.326 136.79 258.729 137.059 259.266 137.462C259.669 137.73 259.937 137.999 260.34 138.267C260.743 138.67 261.28 138.938 261.682 139.341C262.219 139.744 262.756 140.281 263.293 140.684C263.427 140.818 263.562 140.952 263.696 141.086C264.099 141.489 264.636 141.892 265.038 142.295C265.307 142.429 265.441 142.697 265.71 142.966C266.247 143.369 266.649 143.906 267.186 144.308C267.858 144.98 268.529 145.651 269.2 146.322C269.603 146.591 269.871 146.993 270.14 147.396C270.811 148.067 271.482 148.738 272.154 149.41C272.825 150.081 273.362 150.752 274.033 151.558C278.732 156.928 282.893 162.7 286.384 169.01C286.786 169.815 287.323 170.621 287.726 171.56C288.129 172.366 288.666 173.306 289.069 174.111C289.471 174.782 289.74 175.588 290.143 176.259C290.277 176.528 290.411 176.796 290.545 177.065C290.948 177.87 291.217 178.541 291.485 179.347C291.888 180.287 292.291 181.092 292.559 182.032C292.693 182.434 292.828 182.703 292.962 183.106C293.096 183.508 293.23 183.777 293.365 184.18C293.499 184.582 293.633 184.851 293.767 185.254C294.036 185.925 294.17 186.462 294.439 187.133C294.573 187.67 294.707 188.073 294.841 188.61C295.11 189.415 295.244 190.087 295.512 190.892C295.781 191.698 296.049 192.503 296.184 193.443C296.318 193.711 296.318 193.98 296.452 194.382C296.586 195.188 296.855 195.993 296.989 196.665C297.123 197.067 297.123 197.47 297.258 197.739V197.873C297.392 198.544 297.526 199.35 297.66 200.021C297.795 200.692 297.929 201.229 298.063 201.9C298.197 202.437 298.197 202.974 298.332 203.511C298.332 203.914 298.466 204.317 298.466 204.719C298.466 204.988 298.6 205.256 298.6 205.525C298.6 205.928 298.734 206.33 298.734 206.733C299.271 210.224 299.54 214.52 299.54 218.681Z" fill="#E6F2FF"/>
<g opacity="0.4">
<path d="M273.63 289.027C267.455 295.873 260.608 301.78 253.225 306.747C223.422 326.482 185.43 329.704 152.942 315.608C142.874 311.312 133.342 305.271 124.616 297.484C115.353 289.295 107.97 279.764 102.331 269.427C97.901 261.506 94.6791 253.049 92.5311 244.322C91.3229 239.355 90.3832 234.254 89.8462 229.153C94.2763 231.838 98.975 234.657 103.942 237.744C207.984 303.123 278.463 235.462 299.943 209.552C301.285 224.991 299.272 240.698 293.633 255.599C289.337 267.547 282.625 278.958 273.63 289.027Z" fill="#007AFF"/>
</g>
<path d="M298.6 204.988C298.6 204.719 298.466 204.451 298.466 204.182C298.466 203.78 298.332 203.377 298.332 202.974C298.197 202.437 298.197 201.9 298.063 201.363C297.929 200.692 297.795 200.155 297.66 199.484C297.526 198.813 297.392 198.007 297.258 197.336V197.202C297.123 196.799 297.123 196.396 296.989 196.128C296.855 195.322 296.586 194.517 296.452 193.845C296.318 193.577 296.318 193.174 296.184 192.906C295.915 192.1 295.781 191.16 295.512 190.355C295.244 189.549 295.11 188.878 294.841 188.073C294.707 187.536 294.573 187.133 294.438 186.596C294.304 185.925 294.036 185.388 293.767 184.717C293.633 184.314 293.499 184.045 293.364 183.643C293.23 183.24 293.096 182.971 292.962 182.569C292.827 182.166 292.693 181.897 292.559 181.495C292.156 180.555 291.888 179.749 291.485 178.81C291.216 178.004 290.814 177.333 290.545 176.528C290.411 176.259 290.277 175.991 290.142 175.722C289.874 175.051 289.471 174.245 289.068 173.574C288.666 172.769 288.263 171.829 287.726 171.023C287.323 170.218 286.786 169.278 286.384 168.473C282.893 162.163 278.731 156.39 274.033 151.021C273.362 150.349 272.825 149.544 272.153 148.873C271.482 148.201 270.811 147.53 270.14 146.859C269.871 146.456 269.468 146.188 269.2 145.785C268.529 145.114 267.857 144.442 267.186 143.771C266.649 143.369 266.247 142.832 265.71 142.429C265.441 142.16 265.307 142.026 265.038 141.758C264.636 141.355 264.099 140.952 263.696 140.549C263.562 140.415 263.427 140.281 263.293 140.147C262.756 139.744 262.219 139.207 261.682 138.804C261.279 138.401 260.742 138.133 260.34 137.73C259.937 137.462 259.668 137.193 259.266 136.925C258.729 136.522 258.326 136.119 257.789 135.851C257.252 135.448 256.849 135.179 256.312 134.777C255.641 135.314 255.238 135.851 253.896 135.716C253.762 135.716 253.762 135.716 253.627 135.851C253.493 135.985 253.225 136.388 253.09 136.656C252.822 136.253 252.688 135.985 252.419 135.582C251.211 136.79 249.197 136.656 247.452 136.656C247.318 137.059 247.183 137.327 247.183 137.73C246.109 137.193 245.304 136.79 244.498 136.388C245.035 136.119 245.572 135.985 245.975 135.851C245.304 134.24 243.961 134.642 242.351 134.642C242.753 134.911 243.022 135.179 243.156 135.314C243.022 135.448 242.753 135.716 242.619 135.716C242.888 136.119 243.693 136.925 243.559 137.059C243.559 137.059 241.679 137.059 240.471 137.596C240.471 136.656 240.337 135.985 240.337 135.448C237.518 133.971 233.356 134.777 231.745 134.105C230.537 133.568 229.329 133.568 228.255 132.629C227.986 132.36 226.912 133.3 226.107 132.629C226.107 132.629 225.435 132.897 225.033 133.031C223.556 133.434 222.079 133.971 220.468 133.971C218.857 134.105 217.246 135.045 215.904 135.045C215.501 135.045 214.427 136.119 215.233 136.656C213.353 139.61 209.729 140.684 205.701 141.758C206.775 142.295 204.224 142.832 205.701 143.503C205.433 144.308 204.761 145.382 204.761 145.919C204.896 147.53 209.192 146.993 211.474 146.053C212.011 147.127 212.413 148.067 212.95 149.007C212.548 149.41 212.279 149.544 211.742 149.947C211.339 149.007 210.937 148.201 210.668 147.396C209.729 147.933 208.118 148.47 207.983 148.873C207.715 149.275 208.386 150.886 208.655 152.229C207.178 152.632 205.835 152.9 204.09 153.303C202.882 154.377 201.405 155.719 199.391 156.39C198.72 157.867 197.109 157.867 196.035 158.538C195.633 158.136 195.364 158.001 195.096 157.733C194.827 158.538 194.693 159.21 194.424 159.881C194.022 159.612 193.753 159.344 193.485 159.075C192.679 159.478 191.874 159.881 191.068 160.149C192.276 161.223 193.35 162.297 194.29 163.103C194.156 164.848 194.29 167.13 194.022 167.399C193.35 167.936 186.907 165.654 183.953 168.07C185.027 170.621 183.953 172.903 182.476 174.917C182.745 175.991 183.013 177.87 183.282 178.139C184.222 178.81 187.578 181.763 184.49 183.508C182.611 184.582 181.268 186.462 180.194 188.61C180.463 189.013 181 189.549 181 189.684C180.865 190.892 171.334 199.081 169.186 204.719C170.26 208.747 171.468 212.908 168.649 216.399C168.783 217.07 168.783 217.741 168.917 218.278C169.052 219.487 169.186 220.695 169.454 221.366C170.528 223.38 173.482 226.333 174.69 229.018C174.824 229.287 175.093 229.824 175.361 229.958C178.449 231.435 181.268 237.61 184.759 234.656C185.967 233.583 187.846 233.314 188.92 234.12C192.411 236.67 194.29 231.032 200.6 232.374C201.405 233.583 201.942 234.522 202.613 235.596C203.956 235.596 205.433 235.596 206.909 235.596C207.446 236.67 208.52 237.878 208.52 238.55C209.057 243.92 212.145 254.525 214.427 261.103C214.427 261.103 214.427 261.103 214.427 261.237C214.561 261.64 214.561 262.714 214.159 263.117C210.265 267.815 213.756 273.588 215.77 277.213C216.709 278.958 216.172 282.583 217.783 284.059C219.394 285.536 219.931 287.684 221.542 289.161C221.676 289.295 221.274 289.832 221.005 290.235C221.811 290.906 222.616 291.98 223.153 292.248C224.764 292.92 229.06 291.846 229.463 291.846C229.597 291.846 231.611 291.711 232.416 291.174C234.833 289.832 237.249 287.684 238.592 286.073C239.666 284.865 241.142 283.388 241.142 281.643C242.485 281.106 243.559 280.569 244.633 280.166C244.498 278.153 245.304 276.005 244.096 273.991C245.17 272.783 247.318 272.783 247.586 271.037C247.586 270.903 247.989 270.635 248.123 270.635C250.674 270.635 251.614 268.487 253.09 267.547C253.225 264.996 253.896 261.774 253.493 260.432C253.225 259.895 251.882 259.224 252.151 258.015C252.285 257.478 251.748 256.941 251.748 256.405C251.748 255.868 252.419 255.062 252.151 254.659C251.345 253.317 251.345 252.243 252.285 250.9C253.225 249.692 252.688 247.813 254.03 247.007C254.97 246.336 255.775 245.396 256.581 244.457C257.923 242.711 259.131 240.698 260.742 239.489C266.112 235.596 270.945 222.306 269.737 221.232C269.334 220.963 257.52 227.004 258.46 220.963C263.427 218.815 268.663 217.339 272.825 213.177H274.973C275.644 212.64 275.241 211.163 276.584 211.432C279.268 209.284 281.819 204.182 281.819 202.84C281.685 201.9 275.241 200.424 276.181 196.933C280.074 198.141 288.129 197.604 289.203 197.739C290.411 197.873 294.707 203.377 296.586 206.599C296.989 206.33 297.66 205.928 298.197 205.659C298.734 205.793 298.6 205.391 298.6 204.988ZM244.767 162.297C244.767 162.969 244.767 163.506 244.767 164.311C243.693 164.311 242.753 164.311 241.277 164.311C242.753 163.506 243.693 162.969 244.767 162.297ZM239.666 138.401C239.666 138.804 239.666 139.341 239.666 140.012C238.994 139.744 238.457 139.61 237.786 139.475C237.518 139.744 237.115 140.012 236.578 140.415C236.309 139.744 236.041 139.073 235.638 138.401C236.981 138.401 238.189 138.401 239.666 138.401ZM235.907 163.908C236.981 163.908 237.92 163.908 238.994 163.908C238.592 164.177 238.457 164.445 238.189 164.714C238.994 165.251 239.934 165.922 240.874 166.593C241.277 166.191 241.679 165.654 242.082 165.385C243.693 164.58 246.646 166.459 248.929 167.801C249.331 168.07 249.734 168.204 250.003 168.338C250.942 168.741 251.211 169.815 250.808 171.023C249.734 170.889 248.526 171.023 247.452 171.023C245.975 171.023 244.633 170.755 243.156 169.815C242.216 169.144 240.471 169.547 239.263 169.412C238.726 169.949 238.323 170.352 237.786 170.889C235.772 171.158 234.027 170.621 232.551 169.01C233.893 167.264 234.967 165.519 235.907 163.908ZM215.367 150.349C216.709 149.678 217.918 149.141 219.126 148.604C218.723 148.067 218.589 147.799 218.186 147.396C218.992 146.725 219.797 145.919 220.871 145.114C220.334 144.845 219.931 144.577 219.394 144.174C219.394 143.771 219.394 143.234 219.529 142.429C221.005 141.355 222.482 140.281 224.496 138.938H227.046C225.301 140.012 222.75 141.221 222.482 141.758C222.079 142.697 226.912 145.114 226.912 145.248C226.912 145.248 223.422 149.275 221.945 151.826C220.468 151.826 219.663 150.484 218.052 151.558C217.515 151.96 215.904 153.034 214.83 151.692C214.83 151.155 215.098 150.618 215.367 150.349ZM192.276 178.81C193.35 177.602 194.424 176.393 195.633 175.051C195.633 175.051 195.364 174.648 195.096 174.245C196.17 171.56 199.123 171.158 200.6 169.144C200.465 168.875 199.66 168.204 199.66 168.07C199.66 168.07 207.178 166.191 208.52 166.325C209.46 166.325 210.4 170.889 213.756 170.889C214.83 172.097 215.904 173.306 216.978 174.514C216.844 174.648 216.441 175.051 215.904 175.588C214.696 175.588 211.608 175.319 211.474 175.588C211.474 175.588 214.159 177.736 216.172 178.81C216.038 176.393 218.455 175.722 218.723 173.708C218.589 173.44 218.32 173.037 217.783 172.097C218.857 172.5 219.931 173.037 220.066 172.903C220.468 172.634 212.145 165.117 213.085 164.445C213.353 164.311 216.978 168.473 219.663 168.607C220.066 168.607 221.005 169.547 221.005 169.949C220.871 172.903 223.959 175.185 225.301 178.273C225.704 178.273 226.241 178.273 227.046 178.273C227.181 177.602 227.315 176.796 227.315 176.125C227.718 176.393 228.12 176.528 229.194 177.065C228.12 175.051 227.315 173.843 226.509 172.366C227.583 171.963 228.792 171.56 230.268 171.023C230.268 172.769 230.268 174.245 230.268 175.588C232.148 176.125 233.222 177.467 233.893 179.078C234.967 177.87 236.175 180.018 237.115 178.944C238.457 177.333 239.263 179.615 240.471 179.212C241.277 178.944 242.082 178.81 243.022 178.675C243.425 178.675 243.827 178.541 244.23 178.407C244.633 181.226 244.498 186.328 243.29 187.133C242.351 187.804 239.397 187.804 236.175 187.402C233.893 187.133 231.477 186.596 229.463 185.791C227.718 185.119 225.838 184.18 223.287 184.851C223.019 185.925 222.616 187.133 222.213 188.744C220.066 187.267 216.978 187.402 215.501 184.717C214.427 184.717 213.219 184.717 212.279 184.717C211.339 183.777 210.534 182.837 209.997 182.3C210.266 180.689 210.937 178.004 210.668 177.602C210.534 177.333 208.655 176.796 208.252 176.93C203.419 179.212 198.318 176.393 192.276 180.958C190.8 180.286 189.86 180.018 188.249 180.152C189.189 178.273 190.8 179.078 192.276 178.81ZM243.827 242.711C245.304 244.457 243.693 245.531 243.425 246.873C242.619 246.873 241.545 247.007 241.411 246.873C240.74 246.47 242.485 244.188 243.827 242.711ZM257.923 220.963C257.923 220.963 254.97 217.204 253.762 215.996C252.151 214.385 252.151 210.626 249.466 210.089C250.271 204.988 246.646 203.377 245.841 199.618C245.438 198.007 243.156 194.919 243.29 194.114C243.559 192.771 249.331 200.021 250.003 200.424C250.271 200.558 251.345 202.303 251.077 203.645C250.808 204.988 251.748 206.33 252.285 206.733C254.299 208.21 257.52 212.908 257.386 215.593C257.118 217.876 258.057 220.963 257.923 220.963ZM258.057 165.385C261.414 162.029 262.219 161.76 265.307 163.64C263.964 164.311 261.011 165.654 261.011 165.922C261.011 165.922 263.159 166.862 263.159 167.13C263.159 168.204 264.099 168.07 264.501 168.338C267.052 169.949 265.441 174.245 268.797 175.185C268.797 175.991 268.931 176.93 268.931 177.87C266.783 178.273 264.77 177.87 262.756 175.991C262.89 174.782 262.89 173.44 263.025 171.829C261.279 170.218 259.131 168.338 258.057 165.385ZM272.422 200.424C271.616 200.424 270.14 200.692 269.871 200.424C269.334 200.155 270.14 197.202 268.26 196.53C268.126 196.933 267.857 197.873 267.723 197.873C267.723 197.873 267.186 197.604 267.186 197.47C267.589 194.651 263.293 193.443 263.964 190.086C265.575 189.549 266.515 189.952 267.052 191.429C268.26 194.517 274.167 195.591 275.912 195.456C276.584 195.456 273.093 199.215 272.422 200.424Z" fill="#007AFF"/>
<path d="M127.704 142.831C128.241 142.563 129.046 142.429 129.315 142.16C129.583 141.758 129.583 141.086 129.315 140.415C128.912 140.684 128.509 141.086 128.241 141.355L127.167 142.294C126.093 143.368 125.019 144.308 123.945 145.382C122.871 146.456 121.797 147.53 120.857 148.604C120.857 148.604 120.857 148.604 120.991 148.604C121.126 149.544 121.394 150.349 121.663 151.423C122.334 151.558 123.274 151.96 124.213 152.229C124.616 151.826 125.153 151.423 125.556 151.021C125.69 151.155 125.824 151.423 126.361 151.96C126.63 149.947 126.898 148.738 127.032 147.53C127.435 147.664 127.704 147.799 128.106 148.067C129.18 147.127 130.389 146.456 131.194 145.382C129.717 144.577 128.778 143.637 127.704 142.831ZM145.827 250.229C145.022 250.229 144.35 250.229 143.948 250.095C142.337 248.618 140.726 246.739 139.92 246.336C137.906 245.53 134.282 244.993 131.597 242.98C130.12 241.772 127.972 241.772 126.764 240.026C126.898 239.624 127.301 239.221 127.301 239.087C127.435 235.328 121.931 232.24 118.038 230.361C117.098 229.958 116.695 227.541 115.487 227.139C114.01 226.602 114.01 224.319 112.668 223.245C111.46 223.111 110.386 223.111 109.446 223.917C108.506 222.708 107.432 223.38 106.358 222.977C106.224 222.574 106.09 222.171 105.956 221.5C105.15 221.5 104.479 221.5 103.673 221.5C103.539 220.963 103.405 220.561 103.271 219.889C101.794 220.829 100.317 221.634 98.9748 222.44C98.4378 223.648 98.0351 224.722 97.6324 225.93C96.6926 225.259 96.0214 224.722 95.3502 224.185C94.4104 223.648 94.1419 225.528 93.4707 225.528C93.4707 226.333 93.6049 227.139 93.6049 227.944C93.6049 228.078 93.6049 228.078 93.6049 228.213C93.7392 228.347 94.0077 228.481 94.1419 228.615C94.1419 228.481 94.1419 228.481 94.2762 228.347C94.6789 227.273 94.9474 225.528 95.3502 225.796C95.6187 225.93 96.8269 228.347 96.9611 229.958C96.9611 230.495 96.8269 230.898 96.5584 231.032C97.3639 231.837 97.0954 232.911 97.0954 234.119C96.1556 234.925 95.7529 236.402 94.9474 237.476C95.0817 238.013 95.2159 238.55 95.2159 239.221C95.3502 240.161 95.6187 240.966 95.7529 241.906C95.7529 242.04 95.7529 242.04 95.7529 242.174C95.8871 242.711 96.0214 243.114 96.1556 243.651C96.2899 244.054 96.4241 244.591 96.5584 244.993C96.6926 245.665 96.9611 246.47 97.0954 247.141C97.2296 247.41 97.2296 247.678 97.3639 247.813C97.3639 247.947 97.4981 248.215 97.4981 248.35C97.9009 249.692 98.3036 250.9 98.7063 252.109C98.8406 252.511 98.9748 252.914 99.1091 253.317C99.2433 253.72 99.3776 253.988 99.5118 254.391C100.317 256.539 101.123 258.552 102.063 260.7V260.835C102.063 260.969 102.197 260.969 102.331 261.103C103.808 262.58 105.284 263.922 106.761 264.728C109.043 266.07 110.654 267.95 111.326 270.5C112.534 274.796 114.547 279.763 116.024 282.985C116.024 282.985 116.024 283.12 116.158 283.12C116.293 283.388 116.427 283.657 116.561 283.925C116.83 284.194 116.964 284.462 117.232 284.731C118.575 286.342 119.917 287.818 121.394 289.295C121.797 289.698 122.065 290.1 122.468 290.369C123.005 290.906 123.408 291.309 123.945 291.846C124.348 292.248 124.75 292.651 125.153 292.92C125.69 293.322 126.093 293.859 126.63 294.262C127.569 295.202 128.643 296.007 129.583 296.947C129.986 297.35 130.389 297.618 130.791 298.021C131.328 298.424 131.731 298.827 132.268 299.229C132.537 299.498 132.939 299.766 133.342 300.035C133.611 300.303 133.879 300.437 134.148 300.706C135.087 301.377 136.027 302.048 136.967 302.72C136.967 302.585 136.967 302.317 137.101 302.048C137.101 301.78 137.235 301.511 137.369 301.377C136.564 301.109 135.759 300.84 134.953 300.572C134.55 300.437 134.282 300.303 133.879 300.169C133.745 300.035 133.745 299.766 133.611 299.498C133.611 299.364 133.476 299.229 133.476 299.229C133.879 299.095 134.148 299.095 134.416 299.095C133.611 298.155 133.611 297.35 134.282 296.813C134.282 296.813 134.148 296.544 134.013 296.276C133.342 296.142 132.805 296.007 132 295.873C132 295.605 132 295.336 131.865 295.068C132.268 295.336 132.671 295.47 132.939 295.605C134.55 295.47 133.342 294.262 133.208 293.457C135.49 293.591 137.235 292.785 136.564 291.174C136.296 290.503 134.55 290.235 134.819 289.161C135.624 289.161 136.43 289.295 137.369 289.429C137.504 288.087 138.846 287.416 137.638 285.402C140.054 285.536 138.041 282.851 139.652 282.583C139.115 280.972 137.906 278.421 138.175 277.884C138.309 277.347 140.994 275.87 142.739 275.736C144.082 275.602 144.753 274.931 144.887 273.588C145.156 270.635 143.679 265.265 143.679 263.385C143.679 262.311 145.29 258.552 146.767 256.807C147.035 256.404 147.304 256.002 147.304 255.465C147.572 254.257 146.498 251.974 145.827 250.229ZM144.082 307.016C143.545 307.016 143.142 306.881 142.605 306.881C143.008 307.15 143.545 307.418 143.948 307.687C144.216 307.553 144.35 307.418 144.485 307.284C144.485 307.284 144.619 307.15 144.619 307.016C144.485 307.016 144.216 307.016 144.082 307.016Z" fill="#007AFF"/>
<path d="M170.529 124.842C169.589 123.768 165.696 125.245 165.562 124.977C165.562 124.842 163.951 122.426 162.205 122.426C161.131 122.426 159.923 122.292 158.715 122.695C158.312 122.829 157.91 122.963 157.641 123.097C157.373 123.232 157.104 123.366 156.836 123.634C156.701 123.634 156.433 123.634 156.299 123.634C155.896 123.768 155.493 123.903 155.09 124.171C154.285 124.574 153.479 124.842 152.808 125.245C151.331 125.916 149.72 126.722 148.244 127.527C147.841 127.662 147.438 127.93 147.17 128.064C146.499 128.467 145.693 128.87 145.022 129.273C145.022 129.273 145.022 129.273 144.888 129.273C142.74 130.481 140.592 131.823 138.444 133.3C138.712 133.3 138.846 133.434 138.981 133.569C139.249 133.837 139.786 134.777 139.518 135.179C138.846 135.985 139.652 136.656 138.846 137.327C137.772 138.267 138.041 139.341 137.907 139.744C137.638 140.147 137.101 140.952 136.564 141.758C137.504 141.623 138.175 141.623 139.383 141.489C138.175 142.16 137.504 142.563 136.698 143.1C136.296 144.174 135.893 145.248 135.625 146.322C136.564 148.336 136.161 151.155 137.638 153.169C139.652 151.96 140.592 154.914 141.666 153.84C142.874 152.632 144.619 147.262 147.304 146.322C151.734 144.845 149.855 143.369 154.688 141.758C156.97 141.086 159.118 139.744 160.594 137.999C161.4 137.059 160.863 136.656 160.863 135.985C160.863 135.582 161.131 134.777 161.4 134.508C163.279 132.226 162.742 132.897 163.951 131.958C164.219 131.689 164.219 131.152 164.353 130.749C164.756 130.615 165.159 130.481 165.83 130.347C165.427 129.675 164.488 128.736 164.622 128.467C164.756 127.796 168.784 125.916 170.529 124.842Z" fill="#007AFF"/>
<path d="M255.775 281.106C255.373 280.166 256.447 278.958 255.373 278.018C255.104 277.75 255.507 276.81 255.91 276.407C257.521 274.394 256.984 270.098 257.923 269.158C259.534 267.547 265.173 263.385 266.247 263.251C266.918 263.117 267.992 267.144 267.992 268.084C267.992 268.621 266.247 270.098 265.978 271.44C265.575 274.125 262.219 279.226 260.742 280.703C260.205 281.106 258.729 281.509 257.655 282.046C256.849 281.643 256.312 281.374 255.775 281.106Z" fill="#007AFF"/>
<path d="M199.392 156.256C198.721 155.719 198.049 157.196 197.11 156.659C195.767 155.854 191.471 157.599 191.471 157.599C191.471 157.33 192.545 154.914 193.351 153.571C193.485 153.437 192.948 153.169 192.679 152.766C193.485 152.632 194.156 152.497 195.23 152.363C194.156 151.692 193.485 151.155 192.545 150.618C192.411 151.826 192.277 152.9 192.142 153.974C190.397 155.317 188.786 155.451 187.041 155.182C187.846 151.155 188.518 150.484 191.605 150.081C191.74 149.275 191.874 148.336 192.008 147.262C191.74 146.859 191.203 146.188 190.8 145.517C192.411 145.114 194.156 144.308 194.827 145.248C195.499 146.188 196.975 146.322 197.244 147.53C196.975 147.933 196.707 148.336 196.17 148.873C197.647 150.349 199.123 151.96 200.734 153.706C200.063 154.377 199.66 155.451 199.392 156.256Z" fill="#007AFF"/>
<path d="M215.501 124.171C216.307 124.171 217.247 124.171 218.052 124.171C219.394 122.963 222.616 122.963 225.838 124.306C224.899 125.111 224.899 125.111 221.811 124.977C223.019 125.648 223.959 126.185 224.899 126.588C223.153 127.393 223.019 127.393 221.14 125.514C220.2 126.185 219.26 127.662 218.992 127.796C218.723 127.93 217.247 127.259 216.173 126.856C216.173 126.722 216.173 126.454 216.173 126.051C213.756 125.38 213.756 125.245 215.501 124.171Z" fill="#007AFF"/>
<path d="M254.03 133.3C253.762 133.3 253.359 133.3 253.09 133.166C251.882 132.897 250.674 132.495 249.466 132.092C249.869 131.689 250.271 131.421 250.54 131.018C251.077 131.286 251.614 131.689 252.151 132.092C252.285 132.092 252.285 132.226 252.419 132.226C252.688 132.36 252.822 132.495 253.09 132.629C253.359 132.763 253.762 133.032 254.03 133.3Z" fill="#007AFF"/>
<path d="M167.844 142.966C167.709 143.503 167.575 144.04 167.441 144.577C166.233 145.382 164.89 146.054 163.682 146.859C162.474 146.59 161.265 146.456 160.057 146.322C160.057 146.054 159.923 145.651 159.923 145.382C159.52 145.651 159.252 145.785 158.983 146.054C158.849 145.382 158.581 144.845 158.446 144.174C158.983 143.771 159.386 143.369 159.789 143.1C160.997 143.906 162.608 142.563 163.548 142.966C164.219 142.429 164.622 142.16 165.024 141.892C165.964 142.026 166.904 142.429 167.844 142.966Z" fill="#007AFF"/>
<path d="M101.257 208.21C99.7805 209.955 99.6462 209.955 97.7668 209.821C97.901 209.552 98.0353 209.284 98.3037 208.881C96.9613 208.21 95.4846 205.793 94.1421 205.256C94.2763 204.719 94.2763 204.182 94.4106 203.646C94.9476 203.646 95.3503 203.646 95.8873 203.646C97.6325 205.122 99.3777 206.599 101.257 208.21Z" fill="#007AFF"/>
<path d="M102.599 210.358C102.331 209.687 102.197 209.15 101.928 208.613C103.002 208.613 104.21 208.613 105.418 208.613C105.955 209.418 107.164 210.089 106.627 211.969C105.016 210.895 104.344 211.432 104.344 211.432C104.076 211.432 102.733 211.029 101.66 211.432C101.391 211.566 101.123 212.237 100.988 211.834C100.988 211.7 100.988 211.297 100.988 210.895C101.391 210.76 101.928 210.626 102.599 210.358Z" fill="#007AFF"/>
<path d="M241.411 125.916C241.142 126.051 240.874 126.185 240.471 126.319C239.934 126.185 239.129 125.916 238.055 125.648C238.726 125.514 239.263 125.379 239.8 125.245C240.337 125.514 240.874 125.648 241.411 125.916Z" fill="#007AFF"/>
<path d="M249.734 135.582C248.929 135.582 248.123 135.582 247.049 135.582C247.049 135.045 247.049 134.642 247.049 133.971C248.258 134.374 249.063 134.777 249.869 135.179C249.869 135.314 249.869 135.448 249.734 135.582Z" fill="#007AFF"/>
<path d="M148.512 305.136C147.975 305.673 147.975 305.673 145.559 305.539C146.23 305.002 146.23 305.002 148.512 305.136Z" fill="#007AFF"/>
<path d="M206.641 174.648C206.373 172.5 206.91 169.681 207.178 169.01C207.178 168.876 208.118 168.473 208.789 167.936C209.46 169.01 209.326 169.949 208.386 170.621C209.997 171.963 208.252 175.051 207.447 175.051C207.312 175.051 206.91 174.782 206.641 174.648Z" fill="#007AFF"/>
<path d="M227.583 180.287C229.06 180.421 230.805 179.347 232.014 181.226C230 181.898 230 181.898 227.583 180.287Z" fill="#007AFF"/>
<path d="M239.934 181.361C240.74 180.287 241.679 179.75 242.888 180.421C243.693 182.3 241.277 181.495 241.142 182.569C240.605 182.166 240.337 181.898 239.934 181.361Z" fill="#007AFF"/>
<g opacity="0.4">
<path d="M254.03 143.234C254.03 151.826 252.285 160.015 249.063 167.667C248.66 168.741 248.123 169.815 247.586 170.889C246.244 173.574 244.767 176.259 243.022 178.81C242.753 179.212 242.485 179.749 242.082 180.152C241.545 180.823 241.142 181.495 240.605 182.166C239.263 184.045 237.786 185.791 236.175 187.536C220.737 204.854 196.438 216.533 168.783 218.278C166.501 218.413 164.085 218.547 161.668 218.547C135.758 218.547 112.265 209.687 95.4844 195.591C96.2899 192.369 97.0953 189.012 98.1693 185.925C99.5118 182.032 100.989 178.138 102.734 174.514C107.298 164.982 113.205 156.256 120.186 148.604C121.26 147.53 122.2 146.456 123.274 145.382C124.347 144.308 125.421 143.234 126.495 142.295L127.569 141.355C127.972 141.086 128.375 140.684 128.643 140.415C132.537 137.059 136.698 134.105 140.994 131.286L141.128 131.152C142.202 130.481 143.276 129.81 144.216 129.273C144.216 129.273 144.216 129.273 144.35 129.273C145.022 128.87 145.693 128.467 146.498 128.064C146.901 127.93 147.304 127.662 147.572 127.527C149.049 126.722 150.526 125.916 152.137 125.245C152.942 124.842 153.613 124.574 154.419 124.171C154.822 124.037 155.224 123.903 155.627 123.634C156.03 123.5 156.433 123.231 156.97 123.097C157.372 122.963 157.775 122.694 158.043 122.694C165.159 119.875 172.676 117.862 180.463 116.788C185.43 115.982 190.531 115.714 195.767 115.714C208.789 115.714 221.274 118.13 232.685 122.56C234.967 123.366 237.115 124.305 239.263 125.379C239.8 125.648 240.203 125.782 240.74 126.051C243.827 127.527 246.915 129.273 249.868 131.152C250.405 131.421 250.942 131.823 251.479 132.226C251.614 132.226 251.614 132.36 251.748 132.36C252.016 132.495 252.151 132.629 252.419 132.763C252.419 132.897 252.419 133.166 252.553 133.3C252.688 134.24 252.822 135.179 252.956 135.985C253.896 138.267 254.03 140.818 254.03 143.234Z" fill="#E6F2FF"/>
</g>
<path d="M267.7 242.6C267.7 242.6 275.7 242.4 289.3 233C288.1 228.4 287.7 223.5 288.5 218.6C291.8 196.9 314.7 182.4 339.7 186.1C364.7 189.9 382.2 210.5 379 232.3C375.7 254 352.8 268.6 327.8 264.8C315.8 263 305.6 257.3 298.5 249.5C290.7 250.4 279.9 249.6 267.7 242.6Z" fill="#131313"/>
<path d="M268.3 241C268.3 241 276.1 239.6 288.2 228.3C286.3 223.9 285.2 219.1 285.2 214.2C285.2 192.2 305.7 174.4 330.9 174.4C356.2 174.4 376.6 192.2 376.6 214.2C376.6 236.2 356.1 254 330.9 254C318.8 254 307.8 249.9 299.6 243.2C292.2 245.2 281.4 246.1 268.3 241Z" fill="#007AFF"/>
<path d="M362.635 205.6C362.635 206.68 362.575 208.26 362.455 210.34C362.335 212.34 362.275 213.87 362.275 214.93C362.275 215.21 362.295 215.79 362.335 216.67C362.315 217.01 362.195 217.27 361.975 217.45C361.755 217.61 361.495 217.69 361.195 217.69C360.875 217.69 360.585 217.61 360.325 217.45C360.065 217.29 359.905 217.08 359.845 216.82C359.605 215.18 359.485 213.22 359.485 210.94L359.515 206.26C359.515 205.52 359.605 204.92 359.785 204.46C359.985 203.98 360.405 203.74 361.045 203.74C361.585 203.74 361.985 203.92 362.245 204.28C362.505 204.62 362.635 205.06 362.635 205.6ZM361.045 219.25C362.405 219.25 363.085 219.76 363.085 220.78C363.085 221.3 362.915 221.78 362.575 222.22C362.255 222.64 361.845 222.85 361.345 222.85C360.745 222.85 360.255 222.67 359.875 222.31C359.495 221.93 359.305 221.49 359.305 220.99C359.305 220.55 359.465 220.15 359.785 219.79C360.125 219.43 360.545 219.25 361.045 219.25Z" fill="white"/>
<path d="M357.271 213.37C357.431 213.65 357.561 214.06 357.661 214.6C357.761 215.12 357.811 215.59 357.811 216.01C357.811 216.55 357.751 217.15 357.631 217.81C357.511 218.47 357.401 218.98 357.301 219.34C355.921 221.86 353.881 223.12 351.181 223.12C350.181 223.12 349.161 222.79 348.121 222.13C347.081 221.47 346.361 220.71 345.961 219.85C345.421 218.15 345.151 217.06 345.151 216.58C345.151 215.78 345.321 214.93 345.661 214.03C346.021 213.13 346.471 212.35 347.011 211.69C347.371 211.23 347.991 210.84 348.871 210.52C349.751 210.18 350.551 210.01 351.271 210.01C352.671 210.01 353.851 210.28 354.811 210.82C355.791 211.34 356.611 212.19 357.271 213.37ZM354.661 218.2C354.761 218 354.811 217.33 354.811 216.19C354.811 215.61 354.701 215.04 354.481 214.48C354.281 213.92 353.981 213.44 353.581 213.04C353.541 213 353.431 212.94 353.251 212.86C353.071 212.76 352.821 212.67 352.501 212.59C352.201 212.49 351.851 212.44 351.451 212.44C350.331 212.44 349.511 212.89 348.991 213.79C348.471 214.69 348.211 215.71 348.211 216.85C348.211 217.03 348.271 217.4 348.391 217.96C348.511 218.52 348.601 218.88 348.661 219.04C348.821 219.32 349.141 219.65 349.621 220.03C350.121 220.39 350.661 220.57 351.241 220.57C352.141 220.57 352.851 220.36 353.371 219.94C353.911 219.5 354.341 218.92 354.661 218.2Z" fill="white"/>
<path d="M342.115 218.35C342.115 219.11 342.225 219.7 342.445 220.12C342.685 220.52 342.985 220.72 343.345 220.72C343.545 220.72 343.735 220.71 343.915 220.69C344.095 220.65 344.275 220.63 344.455 220.63C344.655 220.63 344.825 220.73 344.965 220.93C345.125 221.13 345.205 221.35 345.205 221.59C345.205 222.07 344.975 222.45 344.515 222.73C344.075 222.99 343.475 223.12 342.715 223.12C342.175 223.12 341.625 222.96 341.065 222.64C340.525 222.3 340.075 221.78 339.715 221.08C339.355 220.36 339.175 219.47 339.175 218.41C339.175 216.13 339.215 214.2 339.295 212.62C339.395 210.74 339.445 208.37 339.445 205.51C339.445 204.61 339.495 203.98 339.595 203.62C339.715 203.34 339.905 203.13 340.165 202.99C340.445 202.83 340.735 202.75 341.035 202.75C341.335 202.75 341.595 202.8 341.815 202.9C342.055 203 342.215 203.16 342.295 203.38C342.375 203.62 342.425 203.86 342.445 204.1C342.485 204.32 342.505 204.64 342.505 205.06C342.505 205.88 342.475 206.67 342.415 207.43C342.375 208.35 342.355 209.02 342.355 209.44C342.195 212.96 342.115 215.93 342.115 218.35Z" fill="white"/>
<path d="M335.419 218.35C335.419 219.11 335.529 219.7 335.749 220.12C335.989 220.52 336.289 220.72 336.649 220.72C336.849 220.72 337.039 220.71 337.219 220.69C337.399 220.65 337.579 220.63 337.759 220.63C337.959 220.63 338.129 220.73 338.269 220.93C338.429 221.13 338.509 221.35 338.509 221.59C338.509 222.07 338.279 222.45 337.819 222.73C337.379 222.99 336.779 223.12 336.019 223.12C335.479 223.12 334.929 222.96 334.369 222.64C333.829 222.3 333.379 221.78 333.019 221.08C332.659 220.36 332.479 219.47 332.479 218.41C332.479 216.13 332.519 214.2 332.599 212.62C332.699 210.74 332.749 208.37 332.749 205.51C332.749 204.61 332.799 203.98 332.899 203.62C333.019 203.34 333.209 203.13 333.469 202.99C333.749 202.83 334.039 202.75 334.339 202.75C334.639 202.75 334.899 202.8 335.119 202.9C335.359 203 335.519 203.16 335.599 203.38C335.679 203.62 335.729 203.86 335.749 204.1C335.789 204.32 335.809 204.64 335.809 205.06C335.809 205.88 335.779 206.67 335.719 207.43C335.679 208.35 335.659 209.02 335.659 209.44C335.499 212.96 335.419 215.93 335.419 218.35Z" fill="white"/>
<path d="M319.322 216.64C319.322 215.88 319.462 215.12 319.742 214.36C320.022 213.58 320.392 212.87 320.852 212.23C321.312 211.59 322.042 211.07 323.042 210.67C324.042 210.25 324.932 210.04 325.712 210.04C326.512 210.04 327.322 210.15 328.142 210.37C328.982 210.59 329.562 210.93 329.882 211.39C330.622 212.43 330.992 213.45 330.992 214.45C330.992 214.99 330.872 215.45 330.632 215.83C330.412 216.21 330.092 216.62 329.672 217.06C329.332 217.42 328.792 217.66 328.052 217.78C327.332 217.9 326.612 217.96 325.892 217.96C325.432 217.96 324.872 217.92 324.212 217.84C323.552 217.74 322.912 217.62 322.292 217.48C322.332 217.88 322.432 218.27 322.592 218.65C322.752 219.03 322.942 219.32 323.162 219.52C323.562 219.9 323.972 220.14 324.392 220.24C324.832 220.34 325.392 220.39 326.072 220.39C326.792 220.39 327.462 220.27 328.082 220.03C328.582 219.85 328.992 219.76 329.312 219.76C329.692 219.76 329.982 219.88 330.182 220.12C330.382 220.34 330.482 220.63 330.482 220.99C330.482 221.49 330.192 221.9 329.612 222.22C329.032 222.54 328.362 222.78 327.602 222.94C326.862 223.08 326.262 223.15 325.802 223.15C324.862 223.15 323.952 222.98 323.072 222.64C322.192 222.3 321.462 221.82 320.882 221.2C320.402 220.64 320.022 219.97 319.742 219.19C319.462 218.39 319.322 217.54 319.322 216.64ZM325.862 212.59C325.422 212.59 324.982 212.68 324.542 212.86C324.102 213.02 323.742 213.25 323.462 213.55C323.102 213.93 322.852 214.24 322.712 214.48C322.592 214.7 322.512 215.01 322.472 215.41C322.972 215.57 324.012 215.65 325.592 215.65C326.452 215.65 327.112 215.52 327.572 215.26C328.052 215 328.292 214.66 328.292 214.24C328.292 213.82 328.032 213.44 327.512 213.1C326.992 212.76 326.442 212.59 325.862 212.59Z" fill="white"/>
<path d="M314.39 212.26C314.37 211.94 314.36 211.46 314.36 210.82V209.68C314.36 208.92 314.34 208.35 314.3 207.97C314.26 207.65 314.24 206.82 314.24 205.48C314.24 205 314.38 204.63 314.66 204.37C314.96 204.09 315.36 203.95 315.86 203.95C316.5 203.95 316.93 204.09 317.15 204.37C317.37 204.65 317.48 205.11 317.48 205.75V206.89L317.45 210.19C317.43 210.83 317.42 211.79 317.42 213.07L317.45 215.53C317.47 215.91 317.48 216.44 317.48 217.12C317.48 217.66 317.5 218.43 317.54 219.43C317.58 220.35 317.6 221.04 317.6 221.5C317.6 221.88 317.49 222.23 317.27 222.55C317.07 222.87 316.79 223.03 316.43 223.03C315.03 223.03 314.33 222.56 314.33 221.62C314.33 221.1 314.35 220.52 314.39 219.88C314.43 219.42 314.45 218.72 314.45 217.78C314.45 217.12 314.43 216.17 314.39 214.93C313.45 215.01 311.83 215.05 309.53 215.05C308.09 215.05 306.97 215.05 306.17 215.05C305.37 215.03 304.79 214.98 304.43 214.9L304.4 218.35C304.4 218.57 304.45 219.16 304.55 220.12C304.65 220.76 304.7 221.32 304.7 221.8C304.7 222.1 304.52 222.39 304.16 222.67C303.82 222.93 303.5 223.06 303.2 223.06C302.48 223.06 301.99 222.89 301.73 222.55C301.47 222.19 301.34 221.65 301.34 220.93L301.31 218.56C301.29 218.28 301.28 217.89 301.28 217.39C301.28 216.65 301.26 215.64 301.22 214.36C301.18 213.2 301.16 212.36 301.16 211.84C301.16 211.06 301.18 209.97 301.22 208.57C301.26 207.25 301.28 206.27 301.28 205.63C301.28 204.99 301.44 204.56 301.76 204.34C302.08 204.12 302.44 204.01 302.84 204.01C303.96 204.01 304.52 204.38 304.52 205.12C304.52 206.44 304.49 207.7 304.43 208.9C304.39 210.42 304.37 211.53 304.37 212.23C304.95 212.37 305.56 212.46 306.2 212.5C306.84 212.54 307.74 212.56 308.9 212.56C311.26 212.56 313.09 212.46 314.39 212.26Z" fill="white"/>
<path d="M96.2876 131.962C95.0635 129.269 94.4515 126.331 94.8187 123.516C95.1859 119.966 96.7772 116.661 102.285 120.333C112.2 126.821 106.202 138.817 98.7357 137.348L96.2876 131.962Z" fill="#C86858"/>
<path d="M101.674 123.638C100.205 123.516 98.6134 124.251 97.879 125.475C97.0221 126.699 97.0221 128.412 97.879 129.636C98.3686 130.371 98.9806 130.983 99.715 131.35C99.9598 131.472 100.327 131.228 100.449 130.983C100.572 130.738 100.449 130.371 100.082 130.248C98.9806 129.759 98.2462 128.412 98.3686 127.311C98.491 127.311 98.491 127.311 98.6134 127.311C98.7358 127.311 98.9806 127.188 99.103 127.188C99.2254 127.188 99.2254 127.188 99.3478 127.188H99.4702C99.5926 127.188 99.8374 127.188 99.9598 127.188C100.082 127.188 100.082 127.188 100.205 127.188H100.327C100.449 127.188 100.572 127.311 100.817 127.311H100.939H101.061L101.184 127.433C101.306 127.555 101.429 127.555 101.551 127.678C101.551 127.678 101.551 127.678 101.674 127.8C101.796 127.923 101.796 127.923 101.796 128.045C102.041 128.29 102.408 128.29 102.53 128.167C102.775 127.923 102.775 127.555 102.653 127.433C101.674 126.331 100.205 125.842 98.7358 126.087C99.3478 125.23 100.449 124.618 101.551 124.74C102.286 124.863 102.408 123.761 101.674 123.638Z" fill="#992B1E"/>
<path d="M55.5269 164.644C68.6242 169.907 80.2527 164.399 86.985 161.339C90.6571 159.625 102.163 154.24 103.754 145.059C103.877 144.447 103.877 143.835 103.999 143.346C104.122 142.366 104.122 140.897 103.754 138.939C103.51 137.47 103.142 135.756 102.408 133.676C101.674 131.595 100.817 129.269 99.3479 126.576C99.2255 126.209 98.9807 125.964 98.8582 125.597C98.0014 123.883 97.0222 122.292 96.0429 120.823C94.9413 119.109 93.8396 117.518 92.738 116.172C88.9434 111.275 85.6385 108.46 84.6593 107.603C82.456 105.767 80.4975 104.421 79.151 103.686C77.927 102.952 76.9478 102.585 76.3357 102.34C76.3357 102.34 71.6843 100.504 64.9521 100.626C62.3815 100.749 61.0351 101.116 61.0351 101.116C40.9607 105.767 33.9836 117.028 33.7388 129.514C33.7388 132.574 34.106 135.634 34.718 138.817C34.718 138.939 34.8404 139.061 34.8404 139.306C35.6973 142.978 40.1038 158.524 55.5269 164.644Z" fill="#C86858"/>
<path d="M74.6223 128.29C75.2343 129.391 74.8671 130.738 75.4791 131.84C75.7239 132.329 76.2135 132.696 76.8255 132.696C77.3152 132.696 77.8048 132.574 78.2944 132.819C79.0288 133.308 79.2737 134.41 78.9064 135.267C78.4168 136.491 77.0704 136.858 75.8463 137.225C75.4791 137.348 75.2343 136.736 75.7239 136.613C76.7031 136.369 78.172 136.001 78.4168 134.777C78.4168 134.41 78.4168 133.92 78.0496 133.676C77.6824 133.308 77.1928 133.553 76.7031 133.553C75.7239 133.676 75.1119 132.941 74.7447 132.084C74.3774 130.983 74.6223 129.881 74.0102 128.779C73.8878 128.29 74.4999 127.923 74.6223 128.29Z" fill="#992B1E"/>
<path d="M79.6408 128.045C80.1304 128.167 80.4976 125.352 82.9457 124.006C85.2714 122.782 87.4747 123.761 87.5971 123.394C87.7195 122.904 84.0474 120.089 81.2321 121.68C78.5392 123.271 79.0288 127.8 79.6408 128.045Z" fill="#131313"/>
<path d="M56.7512 139.306C57.2408 139.429 57.608 136.613 60.0561 135.267C62.3818 134.043 64.5851 135.022 64.7075 134.655C64.8299 134.165 61.1577 131.35 58.3424 132.941C55.6495 134.655 56.1391 139.184 56.7512 139.306Z" fill="#131313"/>
<path d="M66.7881 145.916C66.7881 145.916 79.763 149.099 85.6385 137.47" stroke="#992B1E" stroke-miterlimit="10"/>
<path d="M31.0459 113.968C31.6579 112.622 32.27 111.398 33.1268 110.174C34.7181 107.848 36.6765 105.523 48.5498 98.5454C60.9127 91.3235 71.6844 86.3049 79.2735 83C79.5183 83.2448 79.8855 83.612 80.2527 84.1016C81.844 85.9377 83.6801 88.753 84.0473 92.4252C84.1697 93.4044 84.1697 94.2613 84.0473 95.1181C83.6801 98.0558 82.2112 100.626 80.62 102.707C80.2527 103.197 79.8855 103.564 79.5183 103.931C77.315 106.257 74.9893 107.848 73.8877 108.583C73.3981 108.95 72.786 109.195 72.0516 109.562C70.7052 110.174 68.7467 110.786 66.6658 111.153C66.0538 111.276 65.4417 111.153 64.9521 111.031C65.8089 119.477 55.8941 126.331 48.5498 121.313C52.7116 127.8 48.0602 137.103 40.3487 137.715C45.2449 141.632 48.6722 147.63 49.5291 153.873C49.2843 153.995 49.0395 154.117 48.9171 154.24C46.9586 155.464 45.4897 155.586 43.4088 153.995C42.4296 153.26 41.4503 152.404 40.4711 151.547C40.2263 151.302 39.9815 151.057 39.7367 150.812C35.3301 146.406 32.0252 140.775 30.3115 134.655C29.0874 130.493 28.7202 126.087 29.2098 121.925C29.4546 120.089 29.8219 118.375 30.3115 116.661C30.3115 115.805 30.6787 114.825 31.0459 113.968Z" fill="#131313"/>
<path d="M51.8549 158.279C50.386 155.709 48.4275 153.505 45.9794 152.037C42.9193 150.2 39.3695 149.466 39.0023 156.198C38.2679 167.949 51.61 170.397 54.7926 163.42L51.8549 158.279Z" fill="#C86858"/>
<path d="M41.94 157.667C42.6744 156.321 44.2657 155.586 45.7345 155.709C47.2034 155.831 48.5498 156.81 49.0395 158.157C49.4067 159.013 49.4067 159.748 49.2843 160.605C49.1619 160.85 48.9171 161.094 48.5498 160.972C48.1826 160.85 48.0602 160.605 48.1826 160.238C48.4274 159.013 47.8154 157.667 46.8362 157.055L46.7138 157.177C46.5914 157.3 46.469 157.422 46.3465 157.545L46.2241 157.667C46.2241 157.667 46.2241 157.667 46.1017 157.789C45.9793 157.912 45.9793 158.034 45.8569 158.157C45.8569 158.279 45.7345 158.279 45.7345 158.401V158.524C45.7345 158.646 45.6121 158.769 45.6121 159.013V159.136V159.258C45.6121 159.381 45.6121 159.381 45.6121 159.503C45.6121 159.625 45.6121 159.87 45.6121 159.993V160.115C45.6121 160.238 45.6121 160.238 45.6121 160.36C45.6121 160.605 45.4897 160.972 45.2449 161.094C45.0001 161.094 44.6329 160.972 44.5105 160.727C44.2657 159.381 44.6329 157.789 45.7345 156.81C44.6329 156.81 43.5312 157.3 43.0416 158.279C42.4296 158.891 41.5728 158.279 41.94 157.667Z" fill="#992B1E"/>
<path d="M66.9104 105.4C67.1552 105.89 67.4 106.257 67.6449 106.624C68.7465 108.093 70.3378 108.95 72.0514 109.439C74.1323 110.051 76.2132 110.296 77.1924 110.296C80.987 110.541 84.1695 109.439 86.0056 108.583C86.128 109.562 86.4952 111.031 87.1072 112.622C87.3521 113.356 88.3313 115.56 89.8002 117.028C91.269 118.497 93.2275 119.354 95.3084 119.599C95.5532 119.599 95.798 119.599 96.0428 119.721C97.1445 119.844 98.3685 119.721 99.4702 119.354C99.1029 119.232 98.6133 119.109 98.2461 118.987C98.2461 118.865 98.2461 118.865 98.2461 118.742C97.2669 114.213 94.574 103.931 87.1072 97.3212C86.3728 96.7092 85.6384 96.0972 84.904 95.4852C84.6592 95.3628 84.4143 95.1179 84.1695 94.9955C82.0886 93.6491 80.375 93.0371 79.0285 92.6698C77.9269 92.425 77.07 92.425 76.5804 92.5474C73.1531 92.7923 69.4809 94.8731 67.6449 98.3005C67.5224 98.5453 67.4 98.7901 67.2776 99.1573C67.1552 99.5245 66.9104 100.014 66.788 100.626C66.2984 101.973 66.0536 103.686 66.9104 105.4Z" fill="#131313"/>
<path d="M31.0459 113.968C33.3716 114.825 35.9421 114.948 38.3902 114.336C39.2471 114.091 39.9815 113.846 40.7159 113.479C43.6536 112.132 45.8569 109.562 46.9586 106.624C47.2034 106.012 47.3258 105.4 47.4482 104.788C47.9378 105.033 48.4274 105.278 48.9171 105.522C51.61 106.624 54.7925 106.502 57.363 105.278C59.1991 104.421 60.7903 102.83 61.892 101.116C62.6264 99.8918 63.116 98.5454 63.2384 97.1989C64.5849 97.9333 66.0538 98.3006 67.5226 98.423C70.95 98.7902 74.4997 97.6885 77.0702 95.2404C77.8046 94.506 78.4167 93.7716 78.9063 92.7923C80.3751 90.2218 80.9872 87.0393 80.2527 84.1016C81.844 85.9376 83.6801 88.753 84.0473 92.4251C84.1697 93.4043 84.1697 94.2612 84.0473 95.118C84.2921 95.2404 84.5369 95.4852 84.7817 95.6076C85.5162 96.2197 86.2506 96.8317 86.985 97.4437C85.2713 99.7694 83.0681 101.483 80.62 102.83C80.0079 103.197 79.3959 103.442 78.7839 103.686C75.7238 104.788 72.4188 105.155 69.1139 104.666C68.7467 105.522 68.257 106.257 67.7674 106.991C63.8505 112.377 56.6286 115.315 50.2635 113.724C50.6307 116.906 48.4274 120.211 45.8569 122.17C43.164 124.128 39.6143 124.495 36.5541 123.149C35.9421 125.597 35.0853 127.923 33.8612 130.126C32.882 131.962 31.6579 133.553 30.3115 135.022C29.0874 130.86 28.7202 126.454 29.2098 122.292C29.9443 120.701 30.3115 118.865 30.3115 117.029C30.3115 115.804 30.6787 114.825 31.0459 113.968Z" fill="#131313"/>
<path d="M288.9 97.3349C284.8 97.3349 280.7 99.4349 278 102.935C276.3 105.135 275.2 108.635 277 110.835C274.1 111.635 271.5 113.835 270.1 116.835C268.7 119.835 268.5 123.435 269.5 126.535C269.7 127.235 270 127.835 270.6 128.135C271.2 128.435 272 128.235 272.1 127.535C270.1 126.935 266.2 128.135 264.6 129.535C263 130.935 262 133.235 262 135.535C262 136.935 262.5 138.535 263.7 139.135C262.4 141.935 262.9 145.635 264.9 147.735C266.9 149.835 270.2 150.435 272.6 148.835C272.6 149.135 273.2 154.535 277.7 156.835C281.7 158.835 286.9 157.435 290 153.435C290.5 154.635 294 162.035 302.5 164.635C309.5 166.735 317.2 164.635 322.6 159.235C323 162.935 324.5 166.335 327.7 166.935C331 167.435 334.4 165.335 335.7 161.935C338.5 166.335 344.3 166.835 347.1 164.335C349.5 162.135 349.9 157.535 347.2 154.135C350.1 152.535 353.1 151.235 353.1 147.635C353.1 144.035 351.2 140.435 348.3 138.935C350.7 137.235 352.1 133.935 351.7 130.835C351.3 127.735 349.2 124.935 346.5 124.035C348.7 120.835 349.4 116.535 348.3 112.735C347.6 110.235 346 109.335 341.1 104.635C333.8 97.6349 334.6 97.6349 332.1 95.7349C325.8 91.0349 319 90.1349 316.3 89.8349C302.5 88.1349 291.8 95.3349 288.9 97.3349Z" fill="#992B1E"/>
<path d="M282.4 120.435C283.1 117.635 283.1 114.735 282.3 111.935C281.3 108.535 279.2 105.635 274.4 110.135C266 118.235 274 128.835 281 126.035L282.4 120.435Z" fill="#F29E79"/>
<path d="M275.6 113.235C277 112.835 278.6 113.335 279.7 114.335C280.7 115.435 281 117.035 280.5 118.335C280.2 119.135 279.7 119.835 279 120.335C278.8 120.535 278.4 120.335 278.2 120.135C278 119.835 278.2 119.535 278.4 119.335C279.4 118.635 279.8 117.235 279.5 116.135C279.4 116.135 279.4 116.135 279.3 116.135C279.1 116.135 279 116.135 278.8 116.135C278.7 116.135 278.6 116.135 278.6 116.135C278.6 116.135 278.6 116.135 278.5 116.135H278.4C278.2 116.135 278.1 116.235 277.9 116.235C277.8 116.235 277.8 116.335 277.7 116.335C277.7 116.335 277.6 116.335 277.6 116.435C277.5 116.535 277.3 116.635 277.2 116.635C277.2 116.635 277.1 116.635 277.1 116.735L277 116.835L276.9 116.935C276.8 117.035 276.7 117.135 276.6 117.235C276.6 117.235 276.6 117.335 276.5 117.335C276.5 117.435 276.4 117.435 276.4 117.535C276.3 117.735 275.9 117.935 275.6 117.735C275.3 117.535 275.2 117.235 275.4 116.935C276.1 115.735 277.5 114.935 278.9 114.935C278.2 114.135 277 113.835 276 114.135C275.2 114.535 274.9 113.435 275.6 113.235Z" fill="#E66239"/>
<path d="M327.9 144.735C316.1 152.235 303.8 149.035 296.7 147.235C292.8 146.235 280.6 143.035 277.4 134.435C277.2 133.835 277 133.335 276.9 132.735C276.7 131.835 276.4 130.435 276.3 128.435C276.3 126.935 276.3 125.235 276.6 123.035C276.9 120.935 277.4 118.535 278.3 115.635C278.4 115.235 278.5 114.935 278.6 114.635C279.2 112.835 279.8 111.035 280.5 109.535C281.3 107.635 282.1 105.935 282.8 104.435C285.6 99.0347 288.3 95.6347 289.1 94.6347C291 92.3347 292.5 90.8347 293.8 89.8347C294.9 88.9347 295.7 88.3347 296.3 88.0347C296.3 88.0347 300.5 85.3347 307.1 84.3347C309.6 83.9347 311 84.1347 311 84.1347C331.4 85.0347 340.3 94.6347 342.7 106.835C343.3 109.735 343.5 112.835 343.4 116.035C343.4 116.135 343.4 116.335 343.4 116.535C343.3 120.035 341.8 136.035 327.9 144.735Z" fill="#F29E79"/>
<path d="M317.8 85.8348C316.2 88.0348 314.4 90.1348 312.4 92.1348C312.2 92.4348 311.9 92.6348 311.7 92.8348C309.8 94.8348 307.7 96.6348 305.5 98.3348C297.8 104.335 288.7 108.535 279.2 110.535C278.9 107.835 278.8 102.335 281.7 96.5348C282.3 95.4348 282.9 94.3348 283.6 93.2348C285.4 90.6348 287.6 88.4348 290.2 86.6348C294 83.9348 298.6 82.2348 303.5 82.0348C308.9 81.7348 313.3 83.4348 316.1 84.8348C316.7 85.2348 317.3 85.5348 317.8 85.8348Z" fill="#992B1E"/>
<path d="M348.4 115.835C348.4 116.035 348.4 116.235 348.4 116.435C348.3 120.335 347.4 124.335 345.3 127.635C343.1 131.135 341.6 132.735 337.5 133.035C326 126.435 317.6 115.035 314.1 102.235C313.3 99.3348 312.8 96.3348 312.5 93.3348C312.5 92.9348 312.4 92.5348 312.4 92.0348C312.3 89.7348 312.3 87.4348 312.5 85.1348C313.7 84.9348 314.9 84.8348 316 84.7348C323.9 84.1348 331.3 85.4348 337.4 90.8348C340.2 93.2348 342.5 96.2348 344.2 99.4348C347 104.535 348.5 110.135 348.4 115.835Z" fill="#992B1E"/>
<path d="M302.7 112.835C302.3 114.035 302.9 115.235 302.5 116.435C302.3 117.035 302 117.435 301.4 117.435C300.9 117.435 300.4 117.435 299.9 117.835C299.2 118.435 299.3 119.535 299.7 120.235C300.4 121.335 301.8 121.435 303 121.535C303.4 121.535 303.5 120.935 303 120.835C302 120.735 300.5 120.635 300.1 119.535C300 119.135 300 118.735 300.2 118.335C300.5 117.935 301.1 118.035 301.5 118.035C302.4 117.935 303 117.135 303.2 116.235C303.4 115.135 303 114.035 303.3 112.935C303.5 112.635 302.8 112.435 302.7 112.835Z" fill="#DD541D"/>
<path d="M297.9 113.435C297.5 113.635 296.6 111.035 293.9 110.135C291.5 109.335 289.4 110.735 289.3 110.335C289.1 109.835 292.2 106.535 295.1 107.535C298 108.635 298.4 113.235 297.9 113.435Z" fill="#131313"/>
<path d="M322.2 120.335C321.8 120.535 320.9 117.935 318.2 117.035C315.8 116.235 313.7 117.635 313.6 117.235C313.4 116.735 316.5 113.435 319.4 114.435C322.4 115.535 322.7 120.035 322.2 120.335Z" fill="#131313"/>
<path d="M318.6 128.935C318.3 129.135 318.1 129.235 317.8 129.435C297.2 141.535 288 123.135 288 123.135C288.4 123.235 288.9 123.335 289.4 123.435L318.6 128.935Z" fill="#E66239"/>
<path d="M318.6 128.935C318.3 129.135 318.1 129.235 317.8 129.435C317.8 129.435 317.8 129.435 317.7 129.435C295.4 131.835 288 123.135 288 123.135C288.4 123.235 288.9 123.335 289.4 123.435L318.6 128.935Z" fill="#FFF7E6"/>
<path d="M330.4 137.935C331.3 135.235 332.9 132.735 335 130.735C337.6 128.335 341 127.135 342.6 133.435C345.4 144.735 332.9 149.535 328.6 143.335L330.4 137.935Z" fill="#F29E79"/>
<path d="M339.9 135.435C338.9 134.335 337.3 133.835 335.9 134.235C334.5 134.635 333.4 135.835 333.1 137.235C332.9 138.035 333 138.935 333.3 139.735C333.4 140.035 333.8 140.135 334.1 139.935C334.4 139.835 334.5 139.435 334.3 139.135C333.8 138.035 334.2 136.635 335.1 135.835C335.1 135.935 335.2 135.935 335.2 135.935C335.3 136.035 335.5 136.135 335.6 136.235C335.7 136.235 335.7 136.335 335.8 136.335C335.8 136.335 335.9 136.335 335.9 136.435C336 136.535 336.1 136.635 336.2 136.735C336.2 136.835 336.3 136.835 336.3 136.935C336.3 136.935 336.3 137.035 336.4 137.035C336.5 137.135 336.6 137.335 336.6 137.435V137.535V137.635C336.6 137.735 336.6 137.735 336.7 137.835C336.7 138.035 336.8 138.135 336.8 138.335V138.435C336.8 138.535 336.8 138.635 336.8 138.735C336.8 139.035 337 139.335 337.3 139.335C337.6 139.335 337.9 139.135 337.9 138.835C337.9 137.435 337.2 136.035 336 135.235C337 135.035 338.2 135.335 338.9 136.135C339.6 136.735 340.4 136.035 339.9 135.435Z" fill="#E66239"/>
<g opacity="0.38">
<path d="M284.1 112.235C284.1 112.435 283.9 112.535 283.7 112.535C283.5 112.535 283.4 112.335 283.4 112.135C283.4 111.935 283.6 111.835 283.8 111.835C284 111.935 284.1 112.035 284.1 112.235Z" fill="#DD541D"/>
<path d="M304.4 117.135C304.4 117.335 304.2 117.435 304 117.435C303.8 117.435 303.7 117.235 303.7 117.035C303.7 116.835 303.9 116.735 304.1 116.735C304.3 116.835 304.4 116.935 304.4 117.135Z" fill="#DD541D"/>
<path d="M294.5 118.335C294.5 118.535 294.3 118.635 294.1 118.635C293.9 118.635 293.8 118.435 293.8 118.235C293.8 118.035 294 117.935 294.2 117.935C294.4 118.035 294.5 118.235 294.5 118.335Z" fill="#DD541D"/>
<path d="M291 116.735C291 116.935 290.8 117.035 290.6 117.035C290.4 117.035 290.3 116.835 290.3 116.635C290.3 116.435 290.5 116.335 290.7 116.335C290.9 116.435 291.1 116.535 291 116.735Z" fill="#DD541D"/>
<path d="M294.6 115.635C294.6 115.835 294.4 115.935 294.2 115.935C294 115.935 293.9 115.735 293.9 115.535C293.9 115.335 294.1 115.235 294.3 115.235C294.6 115.335 294.7 115.435 294.6 115.635Z" fill="#DD541D"/>
<path d="M287.7 114.635C287.7 114.835 287.5 114.935 287.3 114.935C287.1 114.935 287 114.735 287 114.535C287 114.335 287.2 114.235 287.4 114.235C287.6 114.335 287.7 114.535 287.7 114.635Z" fill="#DD541D"/>
<path d="M307.8 120.035C307.8 120.235 307.6 120.335 307.4 120.335C307.2 120.335 307.1 120.135 307.1 119.935C307.1 119.735 307.3 119.635 307.5 119.635C307.8 119.735 307.9 119.835 307.8 120.035Z" fill="#DD541D"/>
<path d="M322.7 124.535C322.7 124.735 322.5 124.835 322.3 124.835C322.1 124.835 322 124.635 322 124.435C322 124.235 322.2 124.135 322.4 124.135C322.6 124.235 322.7 124.435 322.7 124.535Z" fill="#DD541D"/>
<path d="M321.9 120.935C321.9 121.135 321.7 121.235 321.5 121.235C321.3 121.235 321.2 121.035 321.2 120.835C321.2 120.635 321.4 120.535 321.6 120.535C321.8 120.635 321.9 120.735 321.9 120.935Z" fill="#DD541D"/>
<path d="M307.9 117.135C307.9 117.335 307.7 117.435 307.5 117.435C307.3 117.435 307.2 117.235 307.2 117.035C307.2 116.835 307.4 116.735 307.6 116.735C307.8 116.735 307.9 116.935 307.9 117.135Z" fill="#DD541D"/>
<path d="M318.3 124.135C318.3 124.335 318.1 124.435 317.9 124.435C317.7 124.435 317.6 124.235 317.6 124.035C317.6 123.835 317.8 123.735 318 123.735C318.2 123.735 318.4 123.935 318.3 124.135Z" fill="#DD541D"/>
<path d="M311.3 121.735C311.3 121.935 311.1 122.035 310.9 122.035C310.7 122.035 310.6 121.835 310.6 121.635C310.6 121.435 310.8 121.335 311 121.335C311.3 121.335 311.4 121.535 311.3 121.735Z" fill="#DD541D"/>
<path d="M297.9 114.235C297.9 114.435 297.7 114.535 297.5 114.535C297.3 114.535 297.2 114.335 297.2 114.135C297.2 113.935 297.4 113.835 297.6 113.835C297.9 113.935 298 114.135 297.9 114.235Z" fill="#DD541D"/>
</g>
<path d="M311.7 92.8348C309.8 94.8348 307.7 96.6348 305.5 98.3348C305.3 98.1348 305 97.9348 304.8 97.7348C304.1 97.1348 303.4 96.4348 302.8 95.7348C299.3 96.8348 295.5 97.0348 292 96.4348C291.3 96.3348 290.5 96.1348 289.8 95.9348C287.6 95.3348 285.5 94.4348 283.6 93.2348C285.4 90.6348 287.6 88.4348 290.2 86.6348C290.8 87.1348 291.4 87.5348 292 87.9348C295.2 89.8348 299.4 90.3348 303 89.4348C304.6 89.0348 306.1 88.3348 307.3 87.4348C307.8 88.7348 308.6 90.0348 309.6 91.0348C310.2 91.8348 310.9 92.4348 311.7 92.8348Z" fill="#992B1E"/>
<path d="M348.4 115.835C348.4 116.035 348.4 116.235 348.4 116.435C347.8 115.935 347.3 115.335 346.7 114.735C344.9 112.835 343.5 110.635 342.299 108.335C339.399 110.135 335.3 110.435 332 108.935C328.7 107.535 325.699 104.635 325.299 101.335C321.799 102.735 317.8 102.935 314.1 102.135C313.3 99.2349 312.8 96.2349 312.5 93.2349C313.4 93.7349 314.4 94.1349 315.4 94.4349C318.5 95.2349 322 94.7349 324.7 93.2349C325.2 92.9349 325.7 92.6349 326.2 92.2349C326.5 92.8349 326.8 93.4349 327.2 94.0349C329.1 96.7349 332.1 98.8349 335.5 99.7349C336.4 99.9349 337.3 100.135 338.2 100.135C340.2 100.235 342.3 100.035 344.2 99.3349C347 104.535 348.5 110.135 348.4 115.835Z" fill="#992B1E"/>
<path d="M290.5 120.435C285.3 119.235 282 113.835 283.2 108.335C284.4 102.835 289.7 99.3349 294.9 100.435C300.1 101.635 303.4 107.035 302.2 112.535C301 118.035 295.7 121.535 290.5 120.435ZM294.5 102.235C290.2 101.335 286 104.235 284.9 108.735C283.9 113.235 286.5 117.735 290.8 118.635C295.1 119.535 299.3 116.635 300.4 112.135C301.4 107.635 298.8 103.135 294.5 102.235Z" fill="url(#paint0_linear_85_74615)"/>
<path d="M315.3 128.135C310.1 126.935 306.8 121.535 308 116.035C309.2 110.535 314.5 107.035 319.7 108.135C324.9 109.335 328.2 114.735 327 120.235C325.8 125.835 320.5 129.335 315.3 128.135ZM319.3 110.035C315 109.135 310.8 112.035 309.7 116.535C308.7 121.035 311.3 125.535 315.6 126.435C319.9 127.335 324.1 124.435 325.2 119.935C326.2 115.435 323.6 110.935 319.3 110.035Z" fill="url(#paint1_linear_85_74615)"/>
<path d="M308.6 118.035C308.4 117.935 308.1 117.835 308 117.635C306.7 115.435 303.6 114.335 301.2 115.235C300.7 115.435 300.2 115.135 300 114.735C299.8 114.235 300.1 113.735 300.5 113.535C303.8 112.335 307.7 113.735 309.5 116.635C309.8 117.035 309.6 117.635 309.2 117.935C309 118.035 308.8 118.135 308.6 118.035Z" fill="url(#paint2_linear_85_74615)"/>
<path d="M340 129.035C339.7 128.935 339.5 128.835 339.4 128.535C338.2 126.135 336.1 124.135 333.5 123.135C331 122.135 328.1 122.135 325.5 123.035C325 123.235 324.5 122.935 324.3 122.535C324.1 122.035 324.4 121.535 324.8 121.335C327.8 120.235 331.1 120.235 334.1 121.435C337 122.635 339.5 124.935 340.9 127.735C341.1 128.235 340.9 128.735 340.5 128.935C340.4 129.035 340.2 129.035 340 129.035Z" fill="url(#paint3_linear_85_74615)"/>
<path d="M235.3 143.8C235.3 143.8 228.2 143.4 216.2 134.8C217.4 130.7 217.8 126.3 217.2 121.9C214.7 102.4 194.5 88.8998 172 91.6998C149.5 94.5998 133.4 112.7 135.9 132.3C138.4 151.8 158.6 165.3 181.1 162.5C191.9 161.1 201.2 156.2 207.7 149.4C214.5 150.2 224.2 149.8 235.3 143.8Z" fill="#131313"/>
<path d="M236.2 139.8C236.2 139.8 229.2 138.5 218.4 128.4C220.1 124.5 221.1 120.2 221.1 115.7C221.1 96 202.7 80 180.1 80C157.5 80 139.1 96 139.1 115.7C139.1 135.4 157.5 151.4 180.1 151.4C191 151.4 200.8 147.7 208.1 141.7C214.8 143.6 224.5 144.3 236.2 139.8Z" fill="#007AFF"/>
<path d="M176.4 79.8999C176.4 80.3999 176.3 80.8999 176.2 81.2999C174.3 93.6999 161.2 102.1 146.9 99.8999C145.7 99.6999 144.6 99.4999 143.5 99.1999C149.7 88.4999 162 80.9999 176.4 79.8999Z" fill="#131313"/>
<path d="M205.883 121.041C205.857 121.268 205.763 121.468 205.603 121.641C205.443 121.814 205.237 121.901 204.983 121.901C204.583 121.901 204.29 121.828 204.103 121.681C203.917 121.521 203.823 121.234 203.823 120.821C203.823 120.261 203.857 119.648 203.923 118.981C203.977 118.208 204.003 117.614 204.003 117.201C204.003 116.988 203.99 116.721 203.963 116.401C203.937 116.108 203.923 115.888 203.923 115.741C203.883 115.514 203.79 115.334 203.643 115.201C203.51 115.068 203.297 114.954 203.003 114.861C202.883 114.808 202.783 114.721 202.703 114.601C202.623 114.468 202.583 114.348 202.583 114.241C202.583 113.934 202.703 113.701 202.943 113.541C203.183 113.381 203.477 113.301 203.823 113.301C204.21 113.301 204.543 113.434 204.823 113.701C205.103 113.968 205.317 114.301 205.463 114.701C205.77 114.261 206.143 113.908 206.583 113.641C207.037 113.374 207.477 113.241 207.903 113.241C208.45 113.241 208.91 113.334 209.283 113.521C209.67 113.694 209.863 114.001 209.863 114.441C209.863 114.694 209.75 114.961 209.523 115.241C209.31 115.508 209.09 115.641 208.863 115.641C208.69 115.641 208.483 115.561 208.243 115.401C208.15 115.334 208.043 115.281 207.923 115.241C207.817 115.188 207.703 115.161 207.583 115.161C207.37 115.161 207.17 115.194 206.983 115.261C206.797 115.328 206.67 115.408 206.603 115.501C206.39 115.834 206.23 116.134 206.123 116.401C206.03 116.668 205.983 116.954 205.983 117.261C205.983 117.488 205.977 117.668 205.963 117.801L205.943 118.941L205.963 119.701C205.963 120.261 205.937 120.708 205.883 121.041Z" fill="white"/>
<path d="M192.97 115.101C192.864 115.101 192.77 115.061 192.69 114.981C192.61 114.888 192.57 114.781 192.57 114.661C192.57 114.274 192.697 113.981 192.95 113.781C193.204 113.568 193.517 113.461 193.89 113.461C194.41 113.461 194.857 113.601 195.23 113.881C195.617 114.148 195.81 114.534 195.81 115.041C195.81 115.174 195.784 115.681 195.73 116.561C195.677 117.574 195.65 118.248 195.65 118.581C195.65 119.048 195.737 119.428 195.91 119.721C196.097 120.001 196.384 120.141 196.77 120.141C197.517 120.141 198.09 119.728 198.49 118.901C198.904 118.061 199.177 117.034 199.31 115.821C199.364 115.288 199.444 114.728 199.55 114.141C199.604 113.821 199.677 113.588 199.77 113.441C199.864 113.294 200.044 113.221 200.31 113.221C200.484 113.221 200.684 113.261 200.91 113.341C201.15 113.421 201.304 113.528 201.37 113.661C201.45 113.861 201.49 114.081 201.49 114.321C201.49 114.654 201.444 115.088 201.35 115.621C201.244 116.154 201.17 116.734 201.13 117.361C201.104 117.921 201.19 118.508 201.39 119.121C201.59 119.734 201.877 120.134 202.25 120.321C202.677 120.534 202.89 120.728 202.89 120.901C202.89 121.181 202.79 121.401 202.59 121.561C202.39 121.721 202.197 121.801 202.01 121.801C201.517 121.801 201.07 121.621 200.67 121.261C200.284 120.901 200.004 120.454 199.83 119.921C199.55 120.348 199.277 120.701 199.01 120.981C198.757 121.248 198.43 121.474 198.03 121.661C197.63 121.834 197.137 121.921 196.55 121.921C195.857 121.921 195.224 121.674 194.65 121.181C194.09 120.688 193.81 119.841 193.81 118.641C193.81 118.308 193.817 117.954 193.83 117.581C193.857 117.208 193.87 116.941 193.87 116.781C193.91 116.301 193.93 115.861 193.93 115.461C193.93 115.341 193.884 115.241 193.79 115.161C193.71 115.081 193.617 115.041 193.51 115.041C193.43 115.041 193.337 115.054 193.23 115.081C193.137 115.094 193.05 115.101 192.97 115.101Z" fill="white"/>
<path d="M192.114 115.421C192.221 115.608 192.308 115.881 192.374 116.241C192.441 116.588 192.474 116.901 192.474 117.181C192.474 117.541 192.434 117.941 192.354 118.381C192.274 118.821 192.201 119.161 192.134 119.401C191.214 121.081 189.854 121.921 188.054 121.921C187.388 121.921 186.708 121.701 186.014 121.261C185.321 120.821 184.841 120.314 184.574 119.741C184.214 118.608 184.034 117.881 184.034 117.561C184.034 117.028 184.148 116.461 184.374 115.861C184.614 115.261 184.914 114.741 185.274 114.301C185.514 113.994 185.928 113.734 186.514 113.521C187.101 113.294 187.634 113.181 188.114 113.181C189.048 113.181 189.834 113.361 190.474 113.721C191.128 114.068 191.674 114.634 192.114 115.421ZM190.374 118.641C190.441 118.508 190.474 118.061 190.474 117.301C190.474 116.914 190.401 116.534 190.254 116.161C190.121 115.788 189.921 115.468 189.654 115.201C189.628 115.174 189.554 115.134 189.434 115.081C189.314 115.014 189.148 114.954 188.934 114.901C188.734 114.834 188.501 114.801 188.234 114.801C187.488 114.801 186.941 115.101 186.594 115.701C186.248 116.301 186.074 116.981 186.074 117.741C186.074 117.861 186.114 118.108 186.194 118.481C186.274 118.854 186.334 119.094 186.374 119.201C186.481 119.388 186.694 119.608 187.014 119.861C187.348 120.101 187.708 120.221 188.094 120.221C188.694 120.221 189.168 120.081 189.514 119.801C189.874 119.508 190.161 119.121 190.374 118.641Z" fill="white"/>
<path d="M181.373 109.001C181.839 109.041 182.233 109.154 182.553 109.341C182.873 109.528 183.033 109.828 183.033 110.241C183.033 110.548 182.899 110.794 182.633 110.981C182.379 111.154 182.059 111.241 181.673 111.241C181.273 111.241 180.993 111.148 180.833 110.961C180.686 110.774 180.613 110.581 180.613 110.381C180.613 109.994 180.659 109.668 180.753 109.401C180.846 109.121 181.053 108.988 181.373 109.001ZM182.033 113.161C182.353 113.161 182.599 113.254 182.773 113.441C182.946 113.614 183.033 113.801 183.033 114.001C183.033 114.121 183.019 114.328 182.993 114.621C182.953 115.061 182.933 115.501 182.933 115.941C182.933 116.501 182.953 117.054 182.993 117.601C183.019 118.161 183.033 118.568 183.033 118.821C183.086 120.474 183.113 121.821 183.113 122.861C183.113 123.874 182.859 124.634 182.353 125.141C181.859 125.661 181.173 125.921 180.293 125.921C180.026 125.921 179.739 125.814 179.433 125.601C179.126 125.401 178.973 125.181 178.973 124.941C178.973 124.741 179.026 124.581 179.133 124.461C179.239 124.341 179.366 124.281 179.513 124.281C179.606 124.281 179.726 124.301 179.873 124.341C180.033 124.381 180.153 124.401 180.233 124.401C180.459 124.401 180.639 124.368 180.773 124.301C180.906 124.234 181.013 124.068 181.093 123.801C181.173 123.534 181.213 123.121 181.213 122.561C181.213 119.614 181.139 117.341 180.993 115.741C180.913 114.941 180.873 114.334 180.873 113.921C180.873 113.734 180.966 113.561 181.153 113.401C181.353 113.241 181.646 113.161 182.033 113.161Z" fill="white"/>
<path d="M179.504 120.301C179.571 120.328 179.677 120.361 179.824 120.401C179.971 120.441 180.077 120.481 180.144 120.521C180.211 120.561 180.244 120.621 180.244 120.701C180.257 121.021 180.137 121.288 179.884 121.501C179.644 121.701 179.357 121.801 179.024 121.801C178.504 121.801 178.097 121.661 177.804 121.381C177.511 121.101 177.297 120.674 177.164 120.101C177.111 119.874 177.084 119.561 177.084 119.161C177.084 118.934 177.097 118.568 177.124 118.061C177.151 117.528 177.164 117.101 177.164 116.781C177.164 116.314 177.031 115.908 176.764 115.561C176.511 115.201 176.151 115.021 175.684 115.021C175.404 115.021 175.111 115.108 174.804 115.281C174.497 115.441 174.284 115.641 174.164 115.881C173.964 116.268 173.824 116.688 173.744 117.141C173.597 117.941 173.524 118.774 173.524 119.641C173.524 120.054 173.531 120.374 173.544 120.601C173.544 120.654 173.544 120.761 173.544 120.921C173.557 121.068 173.544 121.208 173.504 121.341C173.477 121.461 173.424 121.574 173.344 121.681C173.277 121.748 173.171 121.801 173.024 121.841C172.891 121.894 172.764 121.921 172.644 121.921C172.457 121.921 172.224 121.841 171.944 121.681C171.664 121.521 171.504 121.341 171.464 121.141L171.444 120.801C171.444 120.681 171.457 120.541 171.484 120.381C171.644 119.448 171.724 118.634 171.724 117.941C171.724 117.634 171.717 117.394 171.704 117.221L171.684 116.281C171.684 115.961 171.604 115.654 171.444 115.361C171.284 115.054 171.097 114.901 170.884 114.901C170.817 114.901 170.724 114.928 170.604 114.981C170.484 115.021 170.384 115.041 170.304 115.041C170.171 115.041 170.024 114.974 169.864 114.841C169.717 114.708 169.644 114.568 169.644 114.421C169.644 114.141 169.737 113.914 169.924 113.741C170.124 113.581 170.317 113.454 170.504 113.361C170.704 113.268 170.931 113.221 171.184 113.221C171.397 113.221 171.571 113.241 171.704 113.281C171.837 113.321 172.017 113.408 172.244 113.541C172.364 113.608 172.504 113.754 172.664 113.981C172.824 114.208 172.957 114.528 173.064 114.941C173.411 114.301 173.837 113.854 174.344 113.601C174.864 113.334 175.524 113.201 176.324 113.201C176.631 113.201 176.957 113.301 177.304 113.501C177.664 113.701 177.971 113.934 178.224 114.201C178.464 114.494 178.664 114.861 178.824 115.301C178.984 115.728 179.064 116.114 179.064 116.461C179.064 116.661 179.051 116.988 179.024 117.441C178.984 117.801 178.964 118.181 178.964 118.581C178.964 119.514 179.144 120.088 179.504 120.301Z" fill="white"/>
<path d="M169.269 115.421C169.376 115.608 169.463 115.881 169.529 116.241C169.596 116.588 169.629 116.901 169.629 117.181C169.629 117.701 169.516 118.441 169.289 119.401C168.369 121.081 167.009 121.921 165.209 121.921C164.543 121.921 163.863 121.701 163.169 121.261C162.476 120.821 161.996 120.314 161.729 119.741C161.369 118.594 161.189 117.868 161.189 117.561C161.189 117.028 161.303 116.461 161.529 115.861C161.769 115.261 162.069 114.741 162.429 114.301C162.656 113.994 163.063 113.734 163.649 113.521C164.236 113.294 164.769 113.181 165.249 113.181C166.183 113.181 166.976 113.361 167.629 113.721C168.283 114.068 168.829 114.634 169.269 115.421ZM167.529 118.641C167.596 118.468 167.629 118.021 167.629 117.301C167.629 116.914 167.556 116.534 167.409 116.161C167.276 115.788 167.076 115.468 166.809 115.201C166.783 115.174 166.709 115.134 166.589 115.081C166.469 115.014 166.303 114.954 166.089 114.901C165.889 114.834 165.656 114.801 165.389 114.801C164.643 114.801 164.096 115.101 163.749 115.701C163.403 116.301 163.229 116.981 163.229 117.741C163.229 117.874 163.263 118.128 163.329 118.501C163.409 118.874 163.476 119.108 163.529 119.201C163.569 119.294 163.669 119.428 163.829 119.601C164.003 119.761 164.209 119.908 164.449 120.041C164.703 120.161 164.963 120.221 165.229 120.221C165.829 120.221 166.309 120.081 166.669 119.801C167.029 119.508 167.316 119.121 167.529 118.641Z" fill="white"/>
<path d="M157.82 115.081C158.793 115.201 159.513 115.514 159.98 116.021C160.46 116.514 160.7 117.127 160.7 117.861C160.7 118.594 160.427 119.287 159.88 119.941C159.347 120.594 158.66 121.101 157.82 121.461C157.447 121.607 156.953 121.714 156.34 121.781C155.74 121.847 155.12 121.881 154.48 121.881C153.413 121.881 152.32 121.781 151.2 121.581C151 121.541 150.787 121.441 150.56 121.281C150.347 121.121 150.24 120.887 150.24 120.581C150.227 119.354 150.18 117.647 150.1 115.461L150.08 114.361C150.027 112.654 150 111.314 150 110.341C150 110.167 150.1 109.967 150.3 109.741C150.513 109.501 150.767 109.367 151.06 109.341C151.233 109.341 151.4 109.334 151.56 109.321C153.067 109.174 154.073 109.101 154.58 109.101C155.58 109.101 156.46 109.201 157.22 109.401C157.993 109.587 158.633 109.934 159.14 110.441C159.327 110.654 159.48 110.927 159.6 111.261C159.72 111.581 159.78 111.894 159.78 112.201C159.793 112.854 159.62 113.454 159.26 114.001C158.913 114.547 158.433 114.907 157.82 115.081ZM154.7 110.801C154.247 110.801 153.773 110.827 153.28 110.881C152.8 110.934 152.393 111.001 152.06 111.081L152.18 114.861L152.9 114.841C154.06 114.721 154.913 114.621 155.46 114.541C155.807 114.461 156.147 114.307 156.48 114.081C156.813 113.841 157.087 113.594 157.3 113.341C157.527 113.074 157.64 112.874 157.64 112.741C157.64 112.541 157.6 112.341 157.52 112.141C157.44 111.927 157.353 111.774 157.26 111.681C156.9 111.334 156.533 111.101 156.16 110.981C155.787 110.861 155.3 110.801 154.7 110.801ZM152.24 120.121C152.92 120.214 153.567 120.261 154.18 120.261C155.527 120.261 156.587 120.087 157.36 119.741C158.147 119.381 158.54 118.701 158.54 117.701C158.54 117.301 158.24 116.967 157.64 116.701C157.04 116.434 156.393 116.301 155.7 116.301C155.233 116.301 154.64 116.354 153.92 116.461C153.347 116.541 152.787 116.594 152.24 116.621C152.267 117.421 152.28 117.927 152.28 118.141C152.28 118.554 152.273 118.867 152.26 119.081L152.24 120.121Z" fill="white"/>
<path d="M100.5 84.2C100.5 84.2 106.1 83.2 114.6 75.2C113.2 72.1 112.5 68.7 112.5 65.2C112.4 49.6 126.9 37 144.8 37C162.7 37 177.2 49.6 177.2 65.2C177.2 80.8 162.7 93.4 144.8 93.4C136.2 93.4 128.4 90.5 122.6 85.8C117.4 87.1 109.7 87.7 100.5 84.2Z" fill="#007AFF"/>
<path d="M163.858 60.3999C163.858 61.1199 163.818 62.1732 163.738 63.5599C163.658 64.8932 163.618 65.9132 163.618 66.6199C163.618 66.8066 163.631 67.1932 163.658 67.7799C163.644 68.0066 163.564 68.1799 163.418 68.2999C163.271 68.4066 163.098 68.4599 162.898 68.4599C162.684 68.4599 162.491 68.4066 162.318 68.2999C162.144 68.1932 162.038 68.0532 161.998 67.8799C161.838 66.7866 161.758 65.4799 161.758 63.9599L161.778 60.8399C161.778 60.3466 161.838 59.9466 161.958 59.6399C162.091 59.3199 162.371 59.1599 162.798 59.1599C163.158 59.1599 163.424 59.2799 163.598 59.5199C163.771 59.7466 163.858 60.0399 163.858 60.3999ZM162.798 69.4999C163.704 69.4999 164.158 69.8399 164.158 70.5199C164.158 70.8666 164.044 71.1866 163.818 71.4799C163.604 71.7599 163.331 71.8999 162.998 71.8999C162.598 71.8999 162.271 71.7799 162.018 71.5399C161.764 71.2866 161.638 70.9932 161.638 70.6599C161.638 70.3666 161.744 70.0999 161.958 69.8599C162.184 69.6199 162.464 69.4999 162.798 69.4999Z" fill="white"/>
<path d="M160.281 65.5801C160.388 65.7668 160.475 66.0401 160.541 66.4001C160.608 66.7468 160.641 67.0601 160.641 67.3401C160.641 67.7001 160.601 68.1001 160.521 68.5401C160.441 68.9801 160.368 69.3201 160.301 69.5601C159.381 71.2401 158.021 72.0801 156.221 72.0801C155.555 72.0801 154.875 71.8601 154.181 71.4201C153.488 70.9801 153.008 70.4734 152.741 69.9001C152.381 68.7668 152.201 68.0401 152.201 67.7201C152.201 67.1868 152.315 66.6201 152.541 66.0201C152.781 65.4201 153.081 64.9001 153.441 64.4601C153.681 64.1534 154.095 63.8934 154.681 63.6801C155.268 63.4534 155.801 63.3401 156.281 63.3401C157.215 63.3401 158.001 63.5201 158.641 63.8801C159.295 64.2268 159.841 64.7934 160.281 65.5801ZM158.541 68.8001C158.608 68.6668 158.641 68.2201 158.641 67.4601C158.641 67.0734 158.568 66.6934 158.421 66.3201C158.288 65.9468 158.088 65.6268 157.821 65.3601C157.795 65.3334 157.721 65.2934 157.601 65.2401C157.481 65.1734 157.315 65.1134 157.101 65.0601C156.901 64.9934 156.668 64.9601 156.401 64.9601C155.655 64.9601 155.108 65.2601 154.761 65.8601C154.415 66.4601 154.241 67.1401 154.241 67.9001C154.241 68.0201 154.281 68.2668 154.361 68.6401C154.441 69.0134 154.501 69.2534 154.541 69.3601C154.648 69.5468 154.861 69.7668 155.181 70.0201C155.515 70.2601 155.875 70.3801 156.261 70.3801C156.861 70.3801 157.335 70.2401 157.681 69.9601C158.041 69.6668 158.328 69.2801 158.541 68.8001Z" fill="white"/>
<path d="M150.177 68.9C150.177 69.4067 150.251 69.8 150.397 70.08C150.557 70.3467 150.757 70.48 150.997 70.48C151.131 70.48 151.257 70.4733 151.377 70.46C151.497 70.4333 151.617 70.42 151.737 70.42C151.871 70.42 151.984 70.4867 152.077 70.62C152.184 70.7533 152.237 70.9 152.237 71.06C152.237 71.38 152.084 71.6333 151.777 71.82C151.484 71.9933 151.084 72.08 150.577 72.08C150.217 72.08 149.851 71.9733 149.477 71.76C149.117 71.5333 148.817 71.1867 148.577 70.72C148.337 70.24 148.217 69.6467 148.217 68.94C148.217 67.42 148.244 66.1333 148.297 65.08C148.364 63.8267 148.397 62.2467 148.397 60.34C148.397 59.74 148.431 59.32 148.497 59.08C148.577 58.8933 148.704 58.7533 148.877 58.66C149.064 58.5533 149.257 58.5 149.457 58.5C149.657 58.5 149.831 58.5333 149.977 58.6C150.137 58.6667 150.244 58.7733 150.297 58.92C150.351 59.08 150.384 59.24 150.397 59.4C150.424 59.5467 150.437 59.76 150.437 60.04C150.437 60.5867 150.417 61.1133 150.377 61.62C150.351 62.2333 150.337 62.68 150.337 62.96C150.231 65.3067 150.177 67.2867 150.177 68.9Z" fill="white"/>
<path d="M147.808 71.0401C147.808 71.3334 147.648 71.5801 147.328 71.7801C147.021 71.9801 146.734 72.0801 146.468 72.0801C145.961 72.0801 145.554 72.0201 145.248 71.9001C144.954 71.7668 144.681 71.5268 144.428 71.1801C144.081 71.4868 143.608 71.7201 143.008 71.8801C142.408 72.0268 141.854 72.1001 141.348 72.1001C140.521 72.1001 139.841 71.8801 139.308 71.4401C138.774 70.9868 138.508 70.3268 138.508 69.4601C138.508 69.0868 138.608 68.7468 138.808 68.4401C139.008 68.1201 139.281 67.8401 139.628 67.6001C140.014 67.3468 140.454 67.1534 140.948 67.0201C141.441 66.8734 141.954 66.8001 142.488 66.8001C142.768 66.8001 143.101 66.8534 143.488 66.9601C143.874 67.0668 144.174 67.1801 144.388 67.3001V66.9801C144.388 66.2601 144.214 65.7668 143.868 65.5001C143.521 65.2201 142.961 65.0801 142.188 65.0801C141.961 65.0801 141.734 65.1268 141.508 65.2201C141.294 65.3134 141.048 65.4401 140.768 65.6001C140.394 65.8001 140.041 65.9001 139.708 65.9001C139.588 65.9001 139.474 65.8201 139.368 65.6601C139.261 65.4868 139.208 65.3334 139.208 65.2001C139.208 64.8134 139.388 64.4801 139.748 64.2001C140.121 63.9201 140.561 63.7134 141.068 63.5801C141.574 63.4334 142.028 63.3601 142.428 63.3601C142.828 63.3601 143.288 63.4401 143.808 63.6001C144.328 63.7468 144.754 63.9534 145.088 64.2201C145.488 64.5668 145.794 64.9734 146.008 65.4401C146.234 65.8934 146.348 66.3934 146.348 66.9401C146.348 67.1134 146.334 67.3734 146.308 67.7201C146.281 68.0934 146.268 68.4134 146.268 68.6801C146.268 68.8001 146.254 68.9801 146.228 69.2201C146.201 69.5134 146.188 69.7468 146.188 69.9201C146.188 70.0801 146.248 70.2201 146.368 70.3401C146.488 70.4468 146.628 70.5001 146.788 70.5001L147.348 70.4801C147.494 70.4801 147.608 70.5334 147.688 70.6401C147.768 70.7468 147.808 70.8801 147.808 71.0401ZM141.368 70.5201C141.941 70.5201 142.421 70.4601 142.808 70.3401C143.194 70.2201 143.661 70.0001 144.208 69.6801C144.261 69.4534 144.294 69.1534 144.308 68.7801C143.574 68.4334 142.968 68.2601 142.488 68.2601C141.941 68.2601 141.454 68.3601 141.028 68.5601C140.601 68.7601 140.388 69.1134 140.388 69.6201C140.388 69.8734 140.494 70.0868 140.708 70.2601C140.921 70.4334 141.141 70.5201 141.368 70.5201Z" fill="white"/>
<path d="M135.26 64.84C135.247 64.6267 135.24 64.3067 135.24 63.88V63.12C135.24 62.6134 135.227 62.2334 135.2 61.98C135.173 61.7667 135.16 61.2134 135.16 60.32C135.16 60 135.253 59.7534 135.44 59.58C135.64 59.3934 135.907 59.3 136.24 59.3C136.667 59.3 136.953 59.3934 137.1 59.58C137.247 59.7667 137.32 60.0734 137.32 60.5V61.26L137.3 63.46C137.287 63.8867 137.28 64.5267 137.28 65.38L137.3 67.02C137.313 67.2734 137.32 67.6267 137.32 68.08C137.32 68.44 137.333 68.9534 137.36 69.6201C137.387 70.2334 137.4 70.6934 137.4 71C137.4 71.2534 137.327 71.4867 137.18 71.7001C137.047 71.9134 136.86 72.0201 136.62 72.0201C135.687 72.0201 135.22 71.7067 135.22 71.08C135.22 70.7334 135.233 70.3467 135.26 69.92C135.287 69.6134 135.3 69.1467 135.3 68.52C135.3 68.08 135.287 67.4467 135.26 66.62C134.633 66.6734 133.553 66.7 132.02 66.7C131.06 66.7 130.313 66.7 129.78 66.7C129.247 66.6867 128.86 66.6534 128.62 66.6L128.6 68.9C128.6 69.0467 128.633 69.44 128.7 70.08C128.767 70.5067 128.8 70.8801 128.8 71.2001C128.8 71.4001 128.68 71.5934 128.44 71.7801C128.213 71.9534 128 72.0401 127.8 72.0401C127.32 72.0401 126.993 71.9267 126.82 71.7001C126.647 71.4601 126.56 71.1 126.56 70.62L126.54 69.0401C126.527 68.8534 126.52 68.5934 126.52 68.26C126.52 67.7667 126.507 67.0934 126.48 66.24C126.453 65.4667 126.44 64.9067 126.44 64.56C126.44 64.04 126.453 63.3134 126.48 62.38C126.507 61.5 126.52 60.8467 126.52 60.42C126.52 59.9934 126.627 59.7067 126.84 59.56C127.053 59.4134 127.293 59.34 127.56 59.34C128.307 59.34 128.68 59.5867 128.68 60.08C128.68 60.96 128.66 61.8 128.62 62.6C128.593 63.6134 128.58 64.3534 128.58 64.82C128.967 64.9134 129.373 64.9734 129.8 65C130.227 65.0267 130.827 65.04 131.6 65.04C133.173 65.04 134.393 64.9734 135.26 64.84Z" fill="white"/>
<path d="M97.7356 294.467C99.1777 297.592 99.8987 300.836 99.8987 303.961C100.139 313.334 94.8516 322.347 85.8389 326.432C76.8262 330.518 66.6119 328.716 59.6421 322.467C57.2387 320.304 55.316 317.66 53.874 314.536C53.2731 313.094 52.6723 311.652 52.3118 310.089C49.6681 299.034 55.0757 287.378 65.7707 282.451C76.4657 277.524 88.8431 281.129 95.4524 290.382C96.2936 291.704 97.1348 293.025 97.7356 294.467Z" fill="#E6F2FF"/>
<path d="M92.0877 287.137C93.5297 290.262 94.2507 293.506 94.2507 296.631C94.4911 306.004 89.2036 315.016 80.191 319.102C71.1783 323.188 60.9639 321.385 53.9941 315.137C51.5908 312.973 49.6681 310.33 48.226 307.205C47.6252 305.763 47.0244 304.321 46.6638 302.759C44.0201 291.704 49.4277 280.047 60.1228 275.12C70.8178 270.193 83.1952 273.798 89.8045 283.051C90.6457 284.373 91.4868 285.695 92.0877 287.137Z" fill="#D53F36"/>
<path d="M89.8045 283.051L46.6638 302.759C44.0201 291.704 49.4277 280.047 60.1228 275.12C70.8178 270.314 83.1952 273.919 89.8045 283.051Z" fill="#131313"/>
<path d="M94.2507 296.631C94.491 306.004 89.2036 315.016 80.191 319.102C71.1783 323.188 60.9639 321.385 53.9941 315.137L94.2507 296.631Z" fill="#FDDA5F"/>
<path d="M290.526 81.0598C289.613 83.2168 288.286 85.042 286.793 86.5353C282.23 90.9323 275.261 92.4257 269.038 89.7708C262.816 87.116 259.083 81.1427 259 74.7546C259 72.5976 259.415 70.3576 260.327 68.2005C260.742 67.205 261.24 66.2924 261.821 65.3798C266.135 58.9917 274.514 56.3369 281.815 59.4065C289.198 62.5591 293.098 70.3576 291.521 77.9072C291.273 79.0687 290.941 80.1472 290.526 81.0598Z" fill="#131313"/>
<path d="M291.19 75.833C287.871 82.3871 280.819 85.7886 273.933 84.71C273.27 84.6271 272.689 84.4612 272.025 84.2952C271.03 84.0463 270.034 83.6315 269.039 83.1337C266.964 82.0552 265.222 80.6449 263.812 78.9856C259.747 74.0908 258.668 67.1219 261.738 61.0657C264.807 55.0094 271.03 51.6909 277.335 52.0227C279.492 52.1886 281.649 52.6864 283.723 53.7649C284.718 54.2627 285.548 54.8434 286.378 55.4242C287.207 56.0879 287.954 56.7516 288.618 57.4983C293.098 62.3931 294.259 69.6108 291.19 75.833Z" fill="white"/>
<path d="M291.189 75.8329C287.871 82.387 280.819 85.7885 273.933 84.71L287.954 56.8345C288.203 57.0834 288.535 57.2493 288.783 57.4982C293.098 62.393 294.259 69.6107 291.189 75.8329Z" fill="#D53F36"/>
<path d="M263.895 78.9856C259.83 74.0908 258.751 67.1219 261.821 61.0657C264.89 55.0094 271.113 51.6909 277.418 52.0227L263.895 78.9856Z" fill="#4887FC"/>
<path d="M292.9 293.8C292.6 295.8 291.9 297.6 290.9 299.1C288 303.7 282.5 306.4 276.8 305.5C271.1 304.6 266.7 300.4 265.3 295.1C264.8 293.3 264.7 291.4 265 289.4C265.1 288.5 265.4 287.6 265.7 286.8C267.9 280.6 274.4 276.6 281.1 277.7C287.9 278.8 292.8 284.5 293 291.1C293.1 292 293.1 292.9 292.9 293.8Z" fill="#131313"/>
<path d="M284.8 298.6C284.1 299 283.4 299.4 282.7 299.7C282 300 281.2 300.2 280.4 300.4C280 300.5 279.5 300.6 279.1 300.6C277.5 300.8 275.8 300.7 274.2 300.3C271 299.5 268 297.6 266 294.9C265.5 294.3 265.1 293.6 264.8 292.8C264.6 292.5 264.5 292.2 264.4 291.8C264.2 291.4 264.1 291 264 290.6C263.8 289.9 263.6 289.2 263.5 288.5C263 284.9 263.9 281.2 266 278.3C266.9 277 268.1 275.8 269.5 274.9C269.7 274.8 269.9 274.6 270.1 274.5C270.8 274.1 271.5 273.7 272.2 273.4C273 273.1 273.7 272.9 274.5 272.7C280.2 271.4 286.1 273.9 289.3 278.7C289.6 279.1 289.8 279.6 290.1 280C290.3 280.4 290.5 280.8 290.6 281.2C290.8 281.7 291 282.3 291.1 282.8C291.3 283.4 291.4 284 291.5 284.6C292.1 290.2 289.6 295.7 284.8 298.6Z" fill="#007AFF"/>
<path d="M279.1 300.6C277.5 300.8 275.8 300.7 274.2 300.3L270.5 290.6L268.9 286.4L265.8 278.3C266.7 277 267.9 275.8 269.3 274.9L273.1 284.8L274.7 289L279.1 300.6Z" fill="#FDDA5F"/>
<path d="M291 282.9L274.7 289.1L270.5 290.7L264.7 292.9C264.5 292.6 264.4 292.3 264.3 291.9C264.1 291.5 264 291.1 263.9 290.7C263.7 290 263.5 289.3 263.4 288.6L268.9 286.5L273.1 284.9L289.2 278.8C289.5 279.2 289.7 279.7 290 280.1C290.2 280.5 290.4 280.9 290.5 281.3C290.7 281.8 290.9 282.4 291 282.9Z" fill="#FDDA5F"/>
<g clip-path="url(#clip0_85_74615)">
<path d="M131.317 335.3C131.317 335.3 115.017 402.6 113.817 414.8C112.617 427 120.217 432.8 124.817 432.8C129.517 432.8 139.317 426.5 141.217 418.7C143.217 410.9 151.317 366.5 150.317 361.2C149.317 355.9 131.317 335.3 131.317 335.3Z" fill="#FF8E77"/>
<path d="M272.217 378.2C272.217 378.2 270.617 428.7 271.417 437.5C272.117 446.2 273.717 448.1 274.417 458.7C275.117 469.3 274.417 491.2 274.417 491.2H255.617C255.617 491.2 249.517 461.4 249.517 454.3C249.517 447.1 250.117 438.8 249.517 433C248.917 427.1 242.017 380.8 242.017 380.8L272.217 378.2Z" fill="#FFA07F"/>
<path d="M260.117 323.1C246.617 309.7 212.817 297.9 212.817 297.9L197.217 297.4L181.617 297.9C181.617 297.9 147.817 309.7 134.317 323.1C120.817 336.5 114.717 385.7 115.217 387.2C115.717 388.7 146.617 394 146.617 394C146.617 394 142.417 446.5 144.917 450.1C147.417 453.7 165.817 455.2 197.217 455.2C228.617 455.2 247.117 453.7 249.517 450.1C252.017 446.5 247.817 394 247.817 394C247.817 394 278.717 388.7 279.217 387.2C279.817 385.8 273.617 336.5 260.117 323.1Z" fill="#007AFF"/>
<path fill-rule="evenodd" clip-rule="evenodd" d="M132.334 325.544C132.334 325.545 132.335 325.545 132.718 324.9C133.1 324.255 133.101 324.255 133.101 324.255L133.102 324.256L133.105 324.258L133.115 324.263L133.147 324.283C133.175 324.3 133.214 324.325 133.265 324.357C133.366 324.422 133.512 324.517 133.698 324.644C134.068 324.897 134.596 325.278 135.236 325.791C136.518 326.818 138.253 328.378 140.088 330.525C143.759 334.821 147.83 341.467 149.457 350.872L149.457 350.876C151.024 360.227 150.491 371.058 149.576 379.518C149.117 383.755 148.562 387.411 148.121 390.008C147.9 391.307 147.708 392.342 147.571 393.053C147.503 393.408 147.448 393.683 147.41 393.869C147.391 393.962 147.377 394.033 147.367 394.081L147.355 394.136L147.351 394.155C147.351 394.155 147.351 394.156 146.618 394L145.884 393.844L145.885 393.84L145.887 393.828L145.898 393.776C145.908 393.731 145.922 393.662 145.94 393.571C145.977 393.389 146.031 393.12 146.098 392.769C146.234 392.068 146.424 391.044 146.642 389.757C147.079 387.183 147.63 383.557 148.084 379.357C148.994 370.942 149.511 360.274 147.978 351.126C146.405 342.032 142.476 335.628 138.947 331.5C137.182 329.434 135.517 327.938 134.299 326.962C133.689 326.474 133.192 326.115 132.85 325.881C132.679 325.764 132.547 325.678 132.459 325.622C132.415 325.594 132.383 325.574 132.362 325.561L132.339 325.547L132.334 325.544C132.334 325.544 132.334 325.544 132.334 325.544Z" fill="#E6F2FF"/>
<path fill-rule="evenodd" clip-rule="evenodd" d="M261.433 324.255C261.434 324.255 261.434 324.255 261.817 324.9C262.2 325.545 262.2 325.545 262.2 325.544L262.196 325.547L262.173 325.561C262.152 325.574 262.119 325.594 262.075 325.622C261.988 325.678 261.856 325.764 261.685 325.881C261.343 326.115 260.845 326.474 260.236 326.962C259.017 327.938 257.352 329.434 255.587 331.5C252.059 335.628 248.13 342.032 246.556 351.126C245.024 360.274 245.54 370.942 246.45 379.357C246.905 383.557 247.455 387.183 247.892 389.757C248.111 391.044 248.301 392.068 248.436 392.769C248.504 393.12 248.558 393.389 248.594 393.571C248.613 393.662 248.627 393.731 248.637 393.776L248.647 393.828L248.65 393.84L248.651 393.843L247.917 394C247.183 394.156 247.183 394.155 247.183 394.155L247.179 394.136L247.168 394.081C247.158 394.033 247.143 393.962 247.124 393.869C247.087 393.683 247.032 393.408 246.963 393.053C246.826 392.342 246.634 391.307 246.414 390.008C245.973 387.411 245.417 383.755 244.959 379.518C244.044 371.058 243.51 360.227 245.077 350.876L245.078 350.872C246.705 341.467 250.775 334.821 254.447 330.525C256.282 328.378 258.017 326.818 259.298 325.791C259.939 325.278 260.467 324.897 260.837 324.644C261.022 324.517 261.168 324.422 261.27 324.357C261.32 324.325 261.36 324.3 261.388 324.283L261.42 324.263L261.429 324.258L261.432 324.256L261.433 324.255Z" fill="#E6F2FF"/>
<path d="M211.917 297.9C209.017 289.3 210.817 278.6 210.817 278.6H197.217H196.317H182.717C182.717 278.6 184.617 289.3 181.617 297.9C181.617 297.9 186.317 307.2 196.317 307.7C196.517 307.7 196.617 307.7 196.817 307.7C197.017 307.7 197.117 307.7 197.317 307.7C207.217 307.2 211.917 297.9 211.917 297.9Z" fill="#FFA07F"/>
<path d="M197.317 278.6H196.417H182.817C182.817 278.6 183.117 280.6 183.317 283.6C186.517 287 191.717 291.7 197.317 291.9C202.017 292.1 206.817 289 210.317 286.1C210.317 281.8 210.917 278.6 210.917 278.6H197.317Z" fill="#FF8E77"/>
<path d="M197.317 199.6C194.317 199.7 180.417 199.9 170.117 210.8C159.417 222.2 160.517 237.8 161.117 244.2C161.517 248.6 162.817 261.7 173.017 273C177.017 277.4 185.417 286.7 197.317 286.3C208.517 286 215.917 277.4 221.217 271.2C231.117 259.6 233.117 247.2 233.517 244.2C234.417 237.3 236.417 222.6 226.317 211.1C215.917 199.2 200.417 199.5 197.317 199.6Z" fill="#FFA07F"/>
<path d="M186.517 247.1C186.517 249.2 185.417 250.9 184.117 250.9C182.817 250.9 181.717 249.2 181.717 247.1C181.717 245 182.817 243.3 184.117 243.3C185.417 243.3 186.517 245 186.517 247.1Z" fill="#131313"/>
<path d="M214.317 247.1C214.317 249.2 213.217 250.9 211.917 250.9C210.617 250.9 209.517 249.2 209.517 247.1C209.517 245 210.617 243.3 211.917 243.3C213.217 243.3 214.317 245 214.317 247.1Z" fill="#131313"/>
<path d="M174.417 241.1C174.317 239.4 175.117 237.6 176.017 236.3C177.017 234.8 178.517 233.5 180.117 232.6C181.817 231.7 183.617 231.2 185.617 231.1C186.617 231.1 187.617 231.2 188.517 231.6C188.817 231.7 190.017 232.1 190.217 232.4C190.517 232.6 189.017 232.8 188.917 232.8C188.017 232.9 187.017 233 186.117 233.3C184.417 233.8 182.917 234.4 181.417 235.3C179.817 236.2 178.417 237.3 177.117 238.6C176.417 239.2 175.817 239.9 175.217 240.7C175.117 240.5 174.417 241.7 174.417 241.1Z" fill="#131313"/>
<path d="M207.217 232.2C208.417 231.3 210.117 231.1 211.517 231.2C213.317 231.3 215.017 231.9 216.517 232.8C218.117 233.7 219.417 235.1 220.317 236.7C220.717 237.4 221.117 238.2 221.317 239C221.417 239.5 221.817 240.6 221.617 241.1C221.417 241.6 221.117 240.9 220.917 240.7C220.417 240.1 219.917 239.5 219.317 238.9C218.117 237.6 216.717 236.4 215.217 235.5C213.617 234.6 212.117 233.8 210.317 233.2C209.617 233 208.917 232.8 208.117 232.7C207.917 232.6 206.717 232.6 207.217 232.2Z" fill="#131313"/>
<path d="M226.217 264.1L232.217 246C235.817 241.7 237.717 241 238.817 241.4C242.017 242.6 243.317 255.4 236.317 261.2C232.617 264.3 227.917 264.2 226.217 264.1Z" fill="#FFA07F"/>
<path d="M168.617 264.1L162.617 246C159.017 241.7 157.117 241 156.017 241.4C152.817 242.6 151.517 255.4 158.517 261.2C162.217 264.3 166.817 264.2 168.617 264.1Z" fill="#FFA07F"/>
<path d="M216.217 347.7C216.117 349.6 214.517 351.2 212.617 351.2H183.817C181.917 351.2 180.317 349.6 180.317 347.7L178.917 298.3C178.817 296 180.517 294.1 182.617 294.1H214.517C216.617 294.1 218.317 296 218.217 298.3L216.217 347.7Z" fill="#F8F8F8"/>
<path d="M216.117 350.7C216.017 352.6 214.417 354.1 212.517 354.1H183.917C182.017 354.1 180.417 352.6 180.417 350.7L179.017 301.2C178.917 298.9 180.617 297 182.717 297H214.417C216.517 297 218.117 298.9 218.017 301.2L216.117 350.7Z" fill="white"/>
<path d="M214.117 315.5C214.017 317.4 212.617 318.9 210.817 318.9C209.017 318.9 207.617 317.4 207.717 315.5L207.917 304.3C207.917 302.3 209.517 300.7 211.317 300.7C213.117 300.7 214.617 302.3 214.517 304.3L214.117 315.5Z" fill="#131313"/>
<path d="M213.217 304.4C213.217 305.6 212.317 306.6 211.217 306.6C210.117 306.6 209.317 305.6 209.317 304.4C209.317 303.2 210.217 302.2 211.317 302.2C212.417 302.2 213.217 303.2 213.217 304.4Z" fill="#F8F8F8"/>
<path d="M212.117 304.4C212.117 304.9 211.717 305.3 211.217 305.3C210.717 305.3 210.417 304.9 210.417 304.4C210.417 303.9 210.817 303.5 211.317 303.5C211.717 303.5 212.117 303.9 212.117 304.4Z" fill="#003644"/>
<path d="M213.017 310C213.017 311.2 212.117 312.1 211.017 312.1C209.917 312.1 209.117 311.2 209.117 310C209.117 308.8 210.017 307.9 211.117 307.9C212.217 307.8 213.017 308.8 213.017 310Z" fill="#F8F8F8"/>
<path d="M211.917 310C211.917 310.5 211.517 310.9 211.017 310.9C210.517 310.9 210.217 310.5 210.217 310C210.217 309.5 210.617 309.1 211.117 309.1C211.517 309 211.917 309.5 211.917 310Z" fill="#003644"/>
<path d="M212.117 315.3C212.117 316 211.517 316.6 210.917 316.6C210.317 316.6 209.717 316 209.817 315.3C209.817 314.6 210.417 314 211.017 314C211.617 314 212.117 314.6 212.117 315.3Z" fill="#FFB875"/>
<path d="M183.917 359.4C180.717 363.1 146.417 421.5 131.517 430.5C116.617 439.5 111.617 421.1 113.317 409.1C115.017 397.1 139.317 379.1 146.817 370.7C156.417 359.9 167.417 347.1 169.017 342.9C170.517 338.7 167.117 329 170.717 325C174.317 321 179.117 309.9 179.117 309.9L179.817 325.7C179.817 325.7 189.817 320.7 195.517 318.1C201.217 315.5 207.417 315.1 208.817 314.2C210.217 313.3 218.317 305 219.517 304.6C220.717 304.2 222.417 308.2 219.517 312.6C219.517 312.6 222.117 314.7 218.917 320.8C218.917 320.8 221.217 323.4 218.317 328.9C218.317 328.9 219.917 330.9 219.517 333.5C219.117 336.1 216.217 341.9 214.617 343.5C212.817 345 186.517 356.3 183.917 359.4Z" fill="#FFA07F"/>
<path d="M219.417 312.4C219.417 312.4 214.317 319.1 213.017 321.1C211.717 323.1 211.117 325.7 209.117 326.2C207.117 326.7 205.317 327 205.317 327" stroke="#FF8E77" stroke-width="1.5" stroke-miterlimit="10" stroke-linecap="round" stroke-linejoin="round"/>
<path d="M218.917 320.7C218.917 320.7 215.417 326.1 214.517 328.1C213.617 330 213.017 331.6 212.417 332.2C211.717 332.8 207.717 333.9 207.717 333.9" stroke="#FF8E77" stroke-width="1.5" stroke-miterlimit="10" stroke-linecap="round" stroke-linejoin="round"/>
<path d="M218.317 328.8C218.317 328.8 215.117 335.5 214.517 337C214.017 338.5 213.817 339.1 212.117 339.6" stroke="#FF8E77" stroke-width="1.5" stroke-miterlimit="10" stroke-linecap="round" stroke-linejoin="round"/>
<path d="M211.517 261.1C200.817 259.3 182.017 261.1 182.017 265.5C182.017 269.8 193.217 277.6 198.517 276.8C203.717 276.1 222.317 262.9 211.517 261.1Z" fill="#691205"/>
<mask id="mask0_85_74615" style="mask-type:luminance" maskUnits="userSpaceOnUse" x="182" y="260" width="33" height="17">
<path d="M211.517 261.1C200.817 259.3 182.017 261.1 182.017 265.5C182.017 269.8 193.217 277.6 198.517 276.8C203.717 276.1 222.317 262.9 211.517 261.1Z" fill="white"/>
</mask>
<g mask="url(#mask0_85_74615)">
<path d="M202.063 286.204C209.906 286.161 216.243 282.5 216.219 278.027C216.195 273.553 209.818 269.961 201.975 270.004C194.133 270.046 187.795 273.707 187.819 278.181C187.843 282.654 194.221 286.246 202.063 286.204Z" fill="#D53F36"/>
</g>
<mask id="mask1_85_74615" style="mask-type:luminance" maskUnits="userSpaceOnUse" x="182" y="260" width="33" height="17">
<path d="M211.517 261.1C200.817 259.3 182.017 261.1 182.017 265.5C182.017 269.8 193.217 277.6 198.517 276.8C203.717 276.1 222.317 262.9 211.517 261.1Z" fill="white"/>
</mask>
<g mask="url(#mask1_85_74615)">
<path d="M196.264 265.103C204.106 265.061 210.444 261.4 210.42 256.926C210.396 252.453 204.019 248.861 196.176 248.903C188.334 248.946 181.996 252.606 182.02 257.08C182.044 261.553 188.421 265.146 196.264 265.103Z" fill="white"/>
</g>
<path d="M192.017 255.7C192.217 256.8 197.517 256.8 198.117 256.8C198.717 256.8 204.017 256.8 204.217 255.7C204.317 254.8 201.217 253.3 198.117 253.3C195.017 253.3 191.917 254.9 192.017 255.7Z" fill="#FF8E77"/>
<path d="M161.217 247.1C163.017 245 164.817 242.3 166.417 238.9C171.117 228.7 170.017 219.1 169.117 214.5C174.717 216.2 181.417 217.6 189.117 218.3C204.117 219.6 216.617 217.3 225.217 214.9C224.617 218.3 224.217 223.2 225.217 228.9C226.717 237.6 230.717 243.8 233.017 247C235.017 243.4 237.717 237.8 239.317 230.6C241.217 222.2 243.717 210.8 237.217 204C236.117 202.8 231.717 198.7 222.217 198.9C222.017 196.4 221.017 190.9 216.717 186.8C212.217 182.6 206.717 182.3 199.917 182C190.717 181.5 183.817 183.7 178.417 185.5C169.617 188.3 165.517 191.4 164.517 192.1C162.517 193.6 159.417 196 157.117 200C154.517 204.4 153.917 209.2 154.317 216.2C154.817 223 156.117 233.8 161.217 247.1Z" fill="#131313"/>
<path d="M232.317 188.9C232.317 188.9 221.517 189.2 222.317 199L232.317 188.9Z" fill="#131313"/>
<path d="M222.217 199.1L233.317 197.6C233.317 197.6 226.517 192.6 222.217 199.1Z" fill="#131313"/>
<path d="M237.217 246.7L231.317 253.3L234.217 257.7" stroke="#FF8E77" stroke-width="1.5" stroke-miterlimit="10" stroke-linecap="round"/>
<path d="M157.017 246.7L163.017 253.3L160.017 257.7" stroke="#FF8E77" stroke-width="1.5" stroke-miterlimit="10" stroke-linecap="round"/>
</g>
<defs>
<linearGradient id="paint0_linear_85_74615" x1="292.7" y1="100.233" x2="292.7" y2="120.637" gradientUnits="userSpaceOnUse">
<stop stop-color="#007AFF"/>
<stop offset="1" stop-color="#004999"/>
</linearGradient>
<linearGradient id="paint1_linear_85_74615" x1="317.5" y1="107.933" x2="317.5" y2="128.37" gradientUnits="userSpaceOnUse">
<stop stop-color="#007AFF"/>
<stop offset="1" stop-color="#004999"/>
</linearGradient>
<linearGradient id="paint2_linear_85_74615" x1="304.791" y1="113.105" x2="304.791" y2="118.076" gradientUnits="userSpaceOnUse">
<stop stop-color="#007AFF"/>
<stop offset="1" stop-color="#004999"/>
</linearGradient>
<linearGradient id="paint3_linear_85_74615" x1="332.607" y1="120.522" x2="332.607" y2="129.035" gradientUnits="userSpaceOnUse">
<stop stop-color="#007AFF"/>
<stop offset="1" stop-color="#004999"/>
</linearGradient>
<clipPath id="clip0_85_74615">
<rect width="171" height="219" fill="white" transform="translate(110 175)"/>
</clipPath>
</defs>
</svg>
