<svg width="393" height="369" viewBox="0 0 393 369" fill="none" xmlns="http://www.w3.org/2000/svg">
<path d="M24.0002 54.5C25.5005 80.5 50.0002 112.5 -20.4998 103.5C-90.9999 94.5 -104.5 220.5 -34.4998 248.5C35.5 276.5 22.4002 243.7 92.0002 320.5C179 416.5 285 345.5 303 293.5C321 241.5 375.524 260.496 396.5 216.5C418.721 169.894 405 114.5 389 84.5C373 54.5 301.5 7.49999 251.5 36.5C201.5 65.5 148.5 37 131.5 20.5C117.9 7.29999 99.6492 -1.53224 77.5002 1.49999C48.3625 5.48898 22.4999 28.5 24.0002 54.5Z" fill="#00254C"/>
<path d="M175.1 199.6L198.9 216.2C194.4 222.7 189.5 228.9 184.3 234.9C172.1 248.4 153.9 267.2 134 267.4C128.4 267.5 121.8 265.2 117.4 261.4C106.9 252.5 110.4 238.1 116.3 228C122.2 217.4 129.9 208.2 137.7 199.5C147.9 188.2 158.6 177.8 170.3 167.9L180.6 177.9C167.5 195 153.8 212.1 142.9 230.5C140.2 235.4 137 240.5 136.3 245.8C136.3 246 136.4 246 136.4 245.7C136.4 244.2 135.5 242.6 134.4 241.5C134.3 241.4 134 241.2 133.9 241.1C133.9 241 133.9 241 133.8 240.9C133.6 240.7 133.4 240.6 133.6 240.6C136 239.9 138.4 238.5 141.3 236.4C154.3 226.5 165 212.7 175.1 199.6Z" fill="#FFA07F"/>
<path d="M210.1 161.6L210.9 169.6C211.2 172.7 209.2 175.6 206.2 176.4L199.6 178.2C198.7 178.4 197.9 178.9 197.2 179.4C194.2 181.9 184.3 188.6 172.7 181.3L169.6 168.3L188.2 156.3C189.3 155.6 190.6 155.2 192 155.3L204 155.9C207.2 156.1 209.8 158.5 210.1 161.6Z" fill="#FFA07F"/>
<path d="M155.3 211.8C155.3 211.8 164.5 198.1 172 196.2C172 196.2 196 234.1 192 244.8C190.8 248 186.8 251.9 181.7 255.8C173 262.6 161.2 269.4 155.4 272.7C153.2 273.9 151.8 274.7 151.8 274.7L139.8 236.3C142.8 229.5 155.3 211.8 155.3 211.8Z" fill="#007AFF"/>
<path opacity="0.2" d="M180.5 239.8C181.6 245.5 182 250.9 181.7 255.9C173 262.7 161.2 269.5 155.4 272.8C161.2 250.7 180.5 239.8 180.5 239.8Z" fill="#131313"/>
<path fill-rule="evenodd" clip-rule="evenodd" d="M197.671 168.466L199.195 172.218C199.351 172.601 199.166 173.039 198.782 173.195C198.399 173.351 197.961 173.166 197.805 172.782L196.732 170.14C191.868 171.018 188.798 172.919 186.94 174.594C185.971 175.468 185.326 176.286 184.926 176.878C184.726 177.173 184.588 177.412 184.502 177.573C184.459 177.653 184.428 177.714 184.41 177.752C184.401 177.771 184.395 177.785 184.391 177.792L184.388 177.798C184.224 178.178 183.784 178.353 183.403 178.189C183.023 178.025 182.847 177.584 183.011 177.203L183.676 177.49C183.011 177.203 183.012 177.203 183.012 177.202L183.012 177.201L183.013 177.199L183.016 177.192L183.026 177.17C183.034 177.153 183.045 177.13 183.058 177.101C183.086 177.043 183.127 176.963 183.181 176.862C183.289 176.66 183.454 176.378 183.683 176.038C184.143 175.358 184.867 174.444 185.935 173.481C188.079 171.547 191.587 169.432 197.082 168.559L197.671 168.466ZM184.388 177.798C184.388 177.798 184.389 177.797 184.389 177.797L183.7 177.5C184.389 177.797 184.388 177.798 184.388 177.798Z" fill="#FF8E77"/>
<path fill-rule="evenodd" clip-rule="evenodd" d="M200.688 165.131C201.003 165.4 201.039 165.874 200.77 166.188L197.77 169.688C197.5 170.003 197.027 170.039 196.712 169.769C196.398 169.5 196.361 169.026 196.631 168.712L199.631 165.212C199.9 164.897 200.374 164.861 200.688 165.131Z" fill="#FF8E77"/>
<path d="M172 196.3C172 196.3 186.8 192.2 202.5 190.7C214.4 189.6 234.1 189.7 247.7 190.6C282 192.9 286.3 198.2 286.3 198.2C282.7 215.8 280.4 233.5 278.8 250.3C277.7 262.6 277 274.4 276.6 285.7C276.5 288.9 276.4 292 276.4 295C276.3 299.1 276.3 303.1 276.2 307C276.2 310.4 276.2 313.6 276.2 316.8C276.2 320.9 276.3 324.7 276.4 328.4C276.5 331.7 276.5 334.9 276.6 337.9C276.7 342 276.8 345.8 277 349.3C277.3 357.9 277.5 364.3 277.4 367.9C261.8 367.9 203.1 368.1 171.1 368.2C170 362.8 169 357.5 168.1 352.3C167.2 347.3 166.5 342.5 165.8 337.8C165.3 333.9 164.8 330 164.3 326.3C163.7 321.7 163.3 317.2 162.9 312.8C162.6 309.1 162.3 305.5 162.1 302.1C161.8 297.8 161.6 293.6 161.5 289.5C159.5 228.4 172 196.3 172 196.3Z" fill="#4C4C4C"/>
<path d="M173.4 303.2L189.4 284.3L205.4 303.2L221.4 284.3L237.4 303.2L253.4 284.3L269.4 303.2L276.4 294.9C276.3 299 276.3 303 276.2 306.9L269.3 315L253.3 296.1L237.3 315L221.3 296.1L205.3 315L189.3 296.1L173.3 315L162.1 301.9C161.8 297.6 161.6 293.4 161.5 289.3L173.4 303.2Z" fill="#393939"/>
<path d="M173.4 324.8L189.4 305.9L205.4 324.8L221.4 305.9L237.4 324.8L253.4 305.9L269.4 324.8L276.3 316.7C276.3 320.8 276.4 324.6 276.5 328.3L269.5 336.6L253.5 317.7L237.5 336.6L221.5 317.7L205.5 336.6L189.5 317.7L173.5 336.6L164.6 326.1C164 321.5 163.6 317 163.2 312.6L173.4 324.8Z" fill="#393939"/>
<path d="M173.4 346.4L189.4 327.5L205.4 346.4L221.4 327.5L237.4 346.4L253.4 327.5L269.4 346.4L276.7 337.8C276.8 341.9 276.9 345.7 277.1 349.2L269.5 358.2L253.5 339.4L237.5 358.2L221.5 339.4L205.5 358.2L189.5 339.4L173.5 358.2L168.3 352.1C167.4 347.1 166.7 342.3 166 337.6L173.4 346.4Z" fill="#393939"/>
<path d="M217.8 163.2C221.7 170.5 221 179 216.3 184.5C211.8 189.7 205.4 190.4 203.9 190.5C203.9 190.5 208 202.5 211.3 211.8C224.1 202.3 234.4 199.3 248.8 194.7C239.6 184.1 244.9 157.8 249.1 143.6C238.7 150.2 228.2 156.7 217.8 163.2Z" fill="#FFA07F"/>
<path opacity="0.5" d="M237.8 155C238.9 161.6 232.6 167.2 231.4 168.2C227.3 171.8 222.8 172.9 220.3 173.3C220.3 171.6 220.1 169.4 219.4 166.9C218.9 165.4 218.4 164.1 217.8 163.1C224.2 159.4 230.5 155.8 236.9 152.1C237.2 152.9 237.6 153.8 237.8 155Z" fill="#FF8E77"/>
<path d="M236.2 208.9L230.3 203.2L209.2 215.6L199.8 200.2L192 204L190.3 192.2L201.1 185.6L207.3 191.2L211.7 209.8L223.7 191.4L251 182.1L261.1 191.6L236.2 208.9Z" fill="#007AFF"/>
<path opacity="0.2" d="M199.8 200.2L192 204L203.7 196.3L209.2 215.6L199.8 200.2Z" fill="#131313"/>
<path opacity="0.2" d="M230.3 203.2L236.2 208.9L227.8 197.4L209.2 215.6L230.3 203.2Z" fill="#131313"/>
<path d="M254.2 228.9L277.1 246.7C275.1 249.4 273.2 251.8 271.2 254.3C265.2 261.7 259 268.9 252.4 275.9C245.7 283 238.7 289.9 231 296.2C226.1 300.1 220.9 304 214.8 306.6C198.9 312.6 172.7 300.4 158.4 293.6C152.7 290.8 147.1 287.8 141.6 284.5L147.4 271.3C162 275.1 176.4 279.2 191 281.7C195.8 282.3 200.8 283.4 205.3 282.4C205.3 282.4 205.4 282.4 205.3 282.3C205.3 282.3 205.1 282.3 205 282.4C204.8 282.4 204.4 282.7 204.8 282.4C214.8 275.4 223 265.6 231.2 256.4C238 248.5 247.4 237.1 254.2 228.9Z" fill="#FFA07F"/>
<path d="M253.4 209.6C239.5 229.8 227.1 252.6 227.1 252.6L255 284.4C255 284.4 307.3 248.3 295.7 211.4C289.6 191.9 268 188.4 253.4 209.6Z" fill="#007AFF"/>
<path d="M142.8 284.4C126.8 288.6 115.1 272.4 115.1 272.4L130 252.6L149.7 273L142.8 284.4Z" fill="#FFA07F"/>
<path d="M130 252.6L115.1 272.4C108.2 267.3 105.7 258.2 109.1 250.3L110.8 246.3L130 252.6Z" fill="#FFA07F"/>
<path d="M206.3 129.1C194 122.5 200.9 94.9 211.1 90.9C230.3 83.4 218.6 135.7 206.3 129.1Z" fill="#131313"/>
<path d="M223.2 90.3999C204.3 94.4999 197.4 119.1 195.6 127C195.4 128 195.2 129 195.2 129C194.8 131.1 193.7 136.6 194.6 142.3C194.8 143.6 196.3 152.9 203.8 159.5C205.2 160.7 207.2 162.4 210.3 163.4C214.1 164.6 217.2 164.2 220.1 163.7C225.7 162.8 229.6 160.6 232.5 158.9C235.4 157.2 238.5 155.4 241.3 152C244 148.7 245 145.6 245.9 143.1C250.8 129.3 253.5 129.7 254.8 123.3C256.7 113.2 253.2 83.9999 223.2 90.3999Z" fill="#FFA07F"/>
<path d="M246.2 110C243.8 117.3 243.5 137.6 249.2 140.8C255.4 146.4 265.1 141.5 274.7 130.5C281.6 122.6 287.6 109.8 278.4 105.1C288.5 94.3999 273.8 80.4999 253.4 83.9999C249 84.7999 244.2 83.6999 239.7 81.3999L237.6 98.3999C237.4 98.4999 249.8 98.8999 246.2 110Z" fill="#131313"/>
<path d="M256.9 131C251.5 129.3 244.5 135.4 241.5 140.3C238.1 145.6 239.2 151.4 245.4 150.7C249.5 150.2 254.5 148 258.2 144C262.4 139.4 262.3 132.7 256.9 131Z" fill="#FFA07F"/>
<path d="M223.8 120.5C222.8 120.3 221.6 121.5 221.3 123.1C221 124.7 221.6 126.1 222.6 126.3C223.6 126.5 224.8 125.3 225.1 123.7C225.4 122.1 224.8 120.7 223.8 120.5Z" fill="#131313"/>
<path d="M205.7 117.4C204.7 117.2 203.5 118.4 203.2 120C202.9 121.6 203.5 123 204.5 123.2C205.5 123.4 206.7 122.2 207 120.6C207.3 119 206.7 117.6 205.7 117.4Z" fill="#131313"/>
<path d="M208.2 137.4C208.2 137.4 205.7 135.6 203.5 132.5C207 128 211.3 122.4 211.3 122.4L208.2 137.4Z" fill="#FF8E77"/>
<path d="M200 113.08C200 113.08 205.6 104.58 209.7 107.68C213.8 110.78 212.1 111.18 212.1 111.18L200 113.08Z" fill="#131313"/>
<path d="M236.2 119.6C236.2 119.6 223.3 111 219.7 115.2C217.6 117.6 219.7 118.8 219.7 118.8L236.2 119.6Z" fill="#131313"/>
<path d="M246.4 95.8999C240.4 102.1 216.2 102.8 216.2 102.8L221 105.3C207 108.6 197.6 96.8999 197.6 96.8999L196.3 101.3C189.4 92.4999 195.3 79.0999 195.3 79.0999L190.9 81.6999C198.1 65.5999 221 67.5999 221 67.5999C218.9 65.6999 213.8 64.5999 213.8 64.5999C240.1 58.9999 254.3 86.2999 254.3 86.2999C254.3 86.2999 252.4 89.6999 246.4 95.8999Z" fill="#131313"/>
<path d="M205.3 145.5C205 145.2 205 144.7 205.3 144.4C209.5 139.9 216.4 141.5 216.7 141.6C217.1 141.7 217.4 142.1 217.3 142.5C217.2 142.9 216.8 143.2 216.4 143.1C216.3 143.1 210.1 141.6 206.5 145.5C206.3 145.7 206.1 145.7 205.9 145.7C205.6 145.7 205.4 145.7 205.3 145.5Z" fill="#FF8E77"/>
<path fill-rule="evenodd" clip-rule="evenodd" d="M111.944 250.698C111.944 250.698 111.944 250.698 111.944 250.698L111.943 250.704L111.94 250.731C111.937 250.755 111.932 250.793 111.927 250.843C111.916 250.944 111.901 251.095 111.885 251.292C111.854 251.684 111.82 252.257 111.809 252.967C111.788 254.389 111.861 256.353 112.239 258.521C112.996 262.87 114.957 267.94 119.722 271.18C120.064 271.413 120.153 271.879 119.92 272.222C119.687 272.564 119.221 272.653 118.878 272.42C113.643 268.86 111.554 263.33 110.761 258.779C110.364 256.496 110.287 254.435 110.309 252.945C110.321 252.199 110.357 251.594 110.39 251.172C110.407 250.962 110.423 250.797 110.435 250.683C110.441 250.627 110.447 250.583 110.45 250.552L110.455 250.517L110.456 250.507L110.456 250.504L110.456 250.503C110.456 250.502 110.456 250.502 111.2 250.6L110.456 250.503C110.511 250.092 110.887 249.802 111.298 249.856C111.709 249.911 111.997 250.288 111.944 250.698Z" fill="#FF8E77"/>
<path fill-rule="evenodd" clip-rule="evenodd" d="M255.534 137C255.755 137.35 255.651 137.813 255.3 138.034L249.44 141.731L250.831 143.894C251.055 144.243 250.954 144.707 250.606 144.931C250.257 145.155 249.793 145.054 249.569 144.706L247.36 141.269L254.5 136.766C254.85 136.545 255.313 136.65 255.534 137Z" fill="#FF8E77"/>
<path d="M196.5 49.0999C196.5 59.4999 188 68 177.6 68C167.2 68 158.7 59.4999 158.7 49.0999C158.7 38.6999 167.2 30.2 177.6 30.2C188 30.2 196.5 38.5999 196.5 49.0999Z" fill="white"/>
<path d="M196.8 45.9C196.8 56.3 188.3 64.8 177.9 64.8C167.5 64.8 159 56.3 159 45.9C159 35.5 167.5 27 177.9 27C188.3 27 196.8 35.5 196.8 45.9Z" fill="#007AFF"/>
<path d="M184.75 42.2199C184.616 44.8333 184.55 46.9133 184.55 48.4599C184.55 49.2599 184.57 50.0199 184.61 50.7399C184.716 50.8199 184.923 50.8599 185.23 50.8599L185.69 50.8399C185.876 50.8133 186.05 50.7999 186.21 50.7999C186.556 50.7999 186.823 50.8599 187.01 50.9799C187.21 51.0999 187.31 51.3333 187.31 51.6799C187.31 52.0133 187.21 52.2733 187.01 52.4599C186.823 52.6466 186.43 52.7399 185.83 52.7399C185.323 52.7399 184.71 52.6999 183.99 52.6199C183.816 52.6066 183.65 52.5933 183.49 52.5799C183.33 52.5666 183.183 52.5599 183.05 52.5599C182.316 52.5733 181.77 52.5999 181.41 52.6399C181.05 52.6799 180.643 52.6999 180.19 52.6999C179.776 52.6999 179.57 52.3866 179.57 51.7599C179.57 51.1599 179.956 50.8599 180.73 50.8599C180.85 50.8599 181.043 50.8733 181.31 50.8999C181.536 50.9399 181.776 50.9599 182.03 50.9599C182.176 50.9599 182.296 50.9533 182.39 50.9399C182.403 50.0466 182.45 48.7466 182.53 47.0399C182.61 45.0399 182.65 43.5599 182.65 42.5999C182.583 42.6133 182.35 42.7066 181.95 42.8799C181.336 43.1866 180.883 43.3399 180.59 43.3399C180.43 43.3399 180.283 43.2599 180.15 43.0999C180.016 42.9266 179.95 42.7266 179.95 42.4999C179.95 42.2733 180.09 42.0533 180.37 41.8399C180.65 41.6266 181.103 41.3466 181.73 40.9999C182.076 40.8266 182.41 40.6333 182.73 40.4199C182.81 40.3666 182.923 40.3133 183.07 40.2599C183.23 40.2066 183.35 40.1799 183.43 40.1799C183.776 40.1799 184.09 40.2533 184.37 40.3999C184.663 40.5333 184.81 40.7133 184.81 40.9399L184.75 42.2199Z" fill="white"/>
<path d="M174.82 45.98C175.793 46.1 176.513 46.4133 176.98 46.92C177.46 47.4133 177.7 48.0267 177.7 48.76C177.7 49.4933 177.427 50.1867 176.88 50.84C176.347 51.4933 175.66 52 174.82 52.36C174.447 52.5067 173.953 52.6133 173.34 52.68C172.74 52.7467 172.12 52.78 171.48 52.78C170.413 52.78 169.32 52.68 168.2 52.48C168 52.44 167.787 52.34 167.56 52.18C167.347 52.02 167.24 51.7867 167.24 51.48C167.227 50.2533 167.18 48.5467 167.1 46.36L167.08 45.26C167.027 43.5533 167 42.2133 167 41.24C167 41.0667 167.1 40.8667 167.3 40.64C167.513 40.4 167.767 40.2667 168.06 40.24C168.233 40.24 168.4 40.2333 168.56 40.22C170.067 40.0733 171.073 40 171.58 40C172.58 40 173.46 40.1 174.22 40.3C174.993 40.4867 175.633 40.8333 176.14 41.34C176.327 41.5533 176.48 41.8267 176.6 42.16C176.72 42.48 176.78 42.7933 176.78 43.1C176.793 43.7533 176.62 44.3533 176.26 44.9C175.913 45.4467 175.433 45.8067 174.82 45.98ZM171.7 41.7C171.247 41.7 170.773 41.7267 170.28 41.78C169.8 41.8333 169.393 41.9 169.06 41.98L169.18 45.76L169.9 45.74C171.06 45.62 171.913 45.52 172.46 45.44C172.807 45.36 173.147 45.2067 173.48 44.98C173.813 44.74 174.087 44.4933 174.3 44.24C174.527 43.9733 174.64 43.7733 174.64 43.64C174.64 43.44 174.6 43.24 174.52 43.04C174.44 42.8267 174.353 42.6733 174.26 42.58C173.9 42.2333 173.533 42 173.16 41.88C172.787 41.76 172.3 41.7 171.7 41.7ZM169.24 51.02C169.92 51.1133 170.567 51.16 171.18 51.16C172.527 51.16 173.587 50.9867 174.36 50.64C175.147 50.28 175.54 49.6 175.54 48.6C175.54 48.2 175.24 47.8667 174.64 47.6C174.04 47.3333 173.393 47.2 172.7 47.2C172.233 47.2 171.64 47.2533 170.92 47.36C170.347 47.44 169.787 47.4933 169.24 47.52C169.267 48.32 169.28 48.8267 169.28 49.04C169.28 49.4533 169.273 49.7667 169.26 49.98L169.24 51.02Z" fill="white"/>
<path d="M342.3 262.9C342.3 275.7 331.9 286.1 319.1 286.1C306.3 286.1 295.9 275.7 295.9 262.9C295.9 250.1 306.3 239.7 319.1 239.7C331.9 239.8 342.3 250.1 342.3 262.9Z" fill="white"/>
<path d="M344.4 263.2C344.4 276 334 286.4 321.2 286.4C308.4 286.4 298 276 298 263.2C298 250.4 308.4 240 321.2 240C334.1 240.1 344.4 250.4 344.4 263.2Z" fill="#007AFF"/>
<path d="M330.934 258.376C330.774 261.512 330.694 264.008 330.694 265.864C330.694 266.824 330.718 267.736 330.766 268.6C330.894 268.696 331.142 268.744 331.51 268.744L332.062 268.72C332.286 268.688 332.494 268.672 332.686 268.672C333.102 268.672 333.422 268.744 333.646 268.888C333.886 269.032 334.006 269.312 334.006 269.728C334.006 270.128 333.886 270.44 333.646 270.664C333.422 270.888 332.95 271 332.23 271C331.622 271 330.886 270.952 330.022 270.856C329.814 270.84 329.614 270.824 329.422 270.808C329.23 270.792 329.054 270.784 328.894 270.784C328.014 270.8 327.358 270.832 326.926 270.88C326.494 270.928 326.006 270.952 325.462 270.952C324.966 270.952 324.718 270.576 324.718 269.824C324.718 269.104 325.182 268.744 326.11 268.744C326.254 268.744 326.486 268.76 326.806 268.792C327.078 268.84 327.366 268.864 327.67 268.864C327.846 268.864 327.99 268.856 328.102 268.84C328.118 267.768 328.174 266.208 328.27 264.16C328.366 261.76 328.414 259.984 328.414 258.832C328.334 258.848 328.054 258.96 327.574 259.168C326.838 259.536 326.294 259.72 325.942 259.72C325.75 259.72 325.574 259.624 325.414 259.432C325.254 259.224 325.174 258.984 325.174 258.712C325.174 258.44 325.342 258.176 325.678 257.92C326.014 257.664 326.558 257.328 327.31 256.912C327.726 256.704 328.126 256.472 328.51 256.216C328.606 256.152 328.742 256.088 328.918 256.024C329.11 255.96 329.254 255.928 329.35 255.928C329.766 255.928 330.142 256.016 330.478 256.192C330.83 256.352 331.006 256.568 331.006 256.84L330.934 258.376Z" fill="white"/>
<path d="M321.44 257.68C321.68 257.968 321.848 258.2 321.944 258.376C322.04 258.552 322.088 258.72 322.088 258.88C322.088 259.072 321.96 259.296 321.704 259.552C321.464 259.808 321.224 259.936 320.984 259.936C320.664 259.936 320.408 259.888 320.216 259.792C320.024 259.696 319.864 259.544 319.736 259.336C319.48 258.952 319.168 258.624 318.8 258.352C318.432 258.064 317.856 257.92 317.072 257.92C316.4 257.92 315.632 258.072 314.768 258.376C313.92 258.68 313.312 259.056 312.944 259.504C312.624 259.904 312.344 260.512 312.104 261.328C311.88 262.144 311.768 262.936 311.768 263.704C311.768 264.632 311.968 265.488 312.368 266.272C312.784 267.04 313.376 267.656 314.144 268.12C314.928 268.584 315.864 268.816 316.952 268.816C317.544 268.816 318.152 268.704 318.776 268.48C319.416 268.24 319.968 267.856 320.432 267.328H320.408C320.696 267.024 321.056 266.872 321.488 266.872C321.744 266.872 321.984 266.984 322.208 267.208C322.448 267.432 322.568 267.656 322.568 267.88C322.568 268.12 322.528 268.336 322.448 268.528C322.384 268.704 322.256 268.904 322.064 269.128C321.408 269.864 320.632 270.368 319.736 270.64C318.84 270.912 317.768 271.048 316.52 271.048C315.416 271.048 314.296 270.784 313.16 270.256C312.04 269.728 311.176 269.088 310.568 268.336C310.248 267.872 309.936 267.208 309.632 266.344C309.344 265.464 309.2 264.752 309.2 264.208C309.2 262.816 309.408 261.496 309.824 260.248C310.256 258.984 310.896 257.976 311.744 257.224C312.304 256.712 313.112 256.328 314.168 256.072C315.224 255.816 316.192 255.688 317.072 255.688C318.144 255.688 318.984 255.84 319.592 256.144C320.216 256.432 320.832 256.944 321.44 257.68Z" fill="white"/>
<path d="M79.3037 219.578C79.3718 203.727 66.5777 190.822 50.7271 190.754C34.8765 190.686 21.9718 203.48 21.9037 219.331C21.8355 235.181 34.6297 248.086 50.4803 248.154C66.3308 248.222 79.2355 235.428 79.3037 219.578Z" fill="white"/>
<path d="M78.5234 215.547C78.5916 199.696 65.7974 186.792 49.9468 186.723C34.0962 186.655 21.1916 199.449 21.1234 215.3C21.0553 231.151 33.8494 244.055 49.7 244.123C65.5506 244.192 78.4553 231.397 78.5234 215.547Z" fill="#007AFF"/>
<path d="M55.4336 221.924C56.0683 221.961 56.4883 221.98 56.6936 221.98C57.3283 221.98 57.8883 221.971 58.3736 221.952C58.8776 221.933 59.3069 221.915 59.6616 221.896C60.5763 221.84 61.3976 221.812 62.1256 221.812C62.8349 221.812 63.3576 221.999 63.6936 222.372C64.0296 222.745 64.1976 223.24 64.1976 223.856C64.1976 224.155 64.0016 224.397 63.6096 224.584C63.2176 224.752 62.8163 224.836 62.4056 224.836C62.0509 224.836 61.3136 224.799 60.1936 224.724C58.8496 224.612 57.7949 224.556 57.0296 224.556C56.6189 224.556 56.1336 224.584 55.5736 224.64C55.3496 224.659 55.0789 224.677 54.7616 224.696C54.4443 224.715 54.0896 224.724 53.6976 224.724C52.9509 224.724 52.3816 224.621 51.9896 224.416C51.5976 224.211 51.4016 223.837 51.4016 223.296C51.4016 222.829 51.5883 222.353 51.9616 221.868C52.3349 221.383 52.8576 220.804 53.5296 220.132L54.2016 219.46C54.5003 219.143 55.0509 218.601 55.8536 217.836C57.1789 216.641 58.2056 215.587 58.9336 214.672C59.6803 213.757 60.0536 212.852 60.0536 211.956C60.0536 211.377 59.7736 210.911 59.2136 210.556C58.6723 210.183 58.0469 209.996 57.3376 209.996C56.2549 209.996 55.4709 210.239 54.9856 210.724C54.5189 211.191 54.2856 211.872 54.2856 212.768C54.2856 212.992 54.1549 213.197 53.8936 213.384C53.6509 213.552 53.3429 213.636 52.9696 213.636C52.4469 213.636 52.0829 213.449 51.8776 213.076C51.6723 212.703 51.5696 212.245 51.5696 211.704C51.5696 210.845 51.8309 210.089 52.3536 209.436C52.8763 208.764 53.5856 208.241 54.4816 207.868C55.3963 207.495 56.4043 207.308 57.5056 207.308C58.2896 207.308 59.1016 207.504 59.9416 207.896C60.8003 208.269 61.5096 208.783 62.0696 209.436C62.6483 210.071 62.9376 210.771 62.9376 211.536C62.9376 212.693 62.6483 213.795 62.0696 214.84C61.4909 215.885 60.8096 216.819 60.0256 217.64C59.2603 218.443 58.2616 219.395 57.0296 220.496C56.4323 221 55.9003 221.476 55.4336 221.924Z" fill="white"/>
<path d="M44.948 215.372C46.3107 215.54 47.3187 215.979 47.972 216.688C48.644 217.379 48.98 218.237 48.98 219.264C48.98 220.291 48.5973 221.261 47.832 222.176C47.0853 223.091 46.124 223.8 44.948 224.304C44.4253 224.509 43.7347 224.659 42.876 224.752C42.036 224.845 41.168 224.892 40.272 224.892C38.7787 224.892 37.248 224.752 35.68 224.472C35.4 224.416 35.1013 224.276 34.784 224.052C34.4853 223.828 34.336 223.501 34.336 223.072C34.3173 221.355 34.252 218.965 34.14 215.904L34.112 214.364C34.0373 211.975 34 210.099 34 208.736C34 208.493 34.14 208.213 34.42 207.896C34.7187 207.56 35.0733 207.373 35.484 207.336C35.7267 207.336 35.96 207.327 36.184 207.308C38.2933 207.103 39.7027 207 40.412 207C41.812 207 43.044 207.14 44.108 207.42C45.1907 207.681 46.0867 208.167 46.796 208.876C47.0573 209.175 47.272 209.557 47.44 210.024C47.608 210.472 47.692 210.911 47.692 211.34C47.7107 212.255 47.468 213.095 46.964 213.86C46.4787 214.625 45.8067 215.129 44.948 215.372ZM40.58 209.38C39.9453 209.38 39.2827 209.417 38.592 209.492C37.92 209.567 37.3507 209.66 36.884 209.772L37.052 215.064L38.06 215.036C39.684 214.868 40.8787 214.728 41.644 214.616C42.1293 214.504 42.6053 214.289 43.072 213.972C43.5387 213.636 43.9213 213.291 44.22 212.936C44.5373 212.563 44.696 212.283 44.696 212.096C44.696 211.816 44.64 211.536 44.528 211.256C44.416 210.957 44.2947 210.743 44.164 210.612C43.66 210.127 43.1467 209.8 42.624 209.632C42.1013 209.464 41.42 209.38 40.58 209.38ZM37.136 222.428C38.088 222.559 38.9933 222.624 39.852 222.624C41.7373 222.624 43.2213 222.381 44.304 221.896C45.4053 221.392 45.956 220.44 45.956 219.04C45.956 218.48 45.536 218.013 44.696 217.64C43.856 217.267 42.9507 217.08 41.98 217.08C41.3267 217.08 40.496 217.155 39.488 217.304C38.6853 217.416 37.9013 217.491 37.136 217.528C37.1733 218.648 37.192 219.357 37.192 219.656C37.192 220.235 37.1827 220.673 37.164 220.972L37.136 222.428Z" fill="white"/>
<path d="M337.6 182.1C347.155 182.1 354.9 174.355 354.9 164.8C354.9 155.245 347.155 147.5 337.6 147.5C328.046 147.5 320.3 155.245 320.3 164.8C320.3 174.355 328.046 182.1 337.6 182.1Z" fill="#131313"/>
<path d="M339.3 182.6C348.855 182.6 356.6 174.855 356.6 165.3C356.6 155.745 348.855 148 339.3 148C329.745 148 322 155.745 322 165.3C322 174.855 329.745 182.6 339.3 182.6Z" fill="#007AFF"/>
<path d="M344.613 168.92C345.066 168.947 345.366 168.96 345.513 168.96C345.966 168.96 346.366 168.953 346.713 168.94C347.073 168.927 347.38 168.913 347.633 168.9C348.286 168.86 348.873 168.84 349.393 168.84C349.9 168.84 350.273 168.973 350.513 169.24C350.753 169.507 350.873 169.86 350.873 170.3C350.873 170.513 350.733 170.687 350.453 170.82C350.173 170.94 349.886 171 349.593 171C349.34 171 348.813 170.973 348.013 170.92C347.053 170.84 346.3 170.8 345.753 170.8C345.46 170.8 345.113 170.82 344.713 170.86C344.553 170.873 344.36 170.887 344.133 170.9C343.906 170.913 343.653 170.92 343.373 170.92C342.84 170.92 342.433 170.847 342.153 170.7C341.873 170.553 341.733 170.287 341.733 169.9C341.733 169.567 341.866 169.227 342.133 168.88C342.4 168.533 342.773 168.12 343.253 167.64L343.733 167.16C343.946 166.933 344.34 166.547 344.913 166C345.86 165.147 346.593 164.393 347.113 163.74C347.646 163.087 347.913 162.44 347.913 161.8C347.913 161.387 347.713 161.053 347.313 160.8C346.926 160.533 346.48 160.4 345.973 160.4C345.2 160.4 344.64 160.573 344.293 160.92C343.96 161.253 343.793 161.74 343.793 162.38C343.793 162.54 343.7 162.687 343.513 162.82C343.34 162.94 343.12 163 342.853 163C342.48 163 342.22 162.867 342.073 162.6C341.926 162.333 341.853 162.007 341.853 161.62C341.853 161.007 342.04 160.467 342.413 160C342.786 159.52 343.293 159.147 343.933 158.88C344.586 158.613 345.306 158.48 346.093 158.48C346.653 158.48 347.233 158.62 347.833 158.9C348.446 159.167 348.953 159.533 349.353 160C349.766 160.453 349.973 160.953 349.973 161.5C349.973 162.327 349.766 163.113 349.353 163.86C348.94 164.607 348.453 165.273 347.893 165.86C347.346 166.433 346.633 167.113 345.753 167.9C345.326 168.26 344.946 168.6 344.613 168.92Z" fill="white"/>
<path d="M338.56 170.7C338.387 170.473 338.24 170.227 338.12 169.96C338 169.68 337.873 169.347 337.74 168.96C337.713 168.893 337.633 168.693 337.5 168.36C337.38 168.027 337.24 167.74 337.08 167.5C336.24 167.62 335.553 167.68 335.02 167.68C334.727 167.68 334.4 167.673 334.04 167.66C333.693 167.633 333.433 167.62 333.26 167.62C332.593 167.567 332.06 167.54 331.66 167.54C331.5 167.753 331.36 167.98 331.24 168.22C331.133 168.46 330.993 168.82 330.82 169.3C330.58 169.993 330.373 170.487 330.2 170.78C330.08 170.98 329.847 171.08 329.5 171.08C329.207 171.08 328.933 171.02 328.68 170.9C328.44 170.767 328.32 170.587 328.32 170.36C328.427 169.853 328.593 169.32 328.82 168.76C329.06 168.187 329.4 167.427 329.84 166.48L330.64 164.52C331.08 163.4 331.48 162.44 331.84 161.64C332.213 160.84 332.7 159.893 333.3 158.8C333.38 158.64 333.513 158.507 333.7 158.4C333.887 158.28 334.093 158.22 334.32 158.22C334.573 158.22 334.753 158.24 334.86 158.28C334.98 158.307 335.073 158.36 335.14 158.44C335.207 158.507 335.307 158.653 335.44 158.88C335.893 159.587 336.28 160.313 336.6 161.06C336.933 161.807 337.353 162.84 337.86 164.16L338.28 165.22C338.653 166.18 338.973 166.987 339.24 167.64C339.52 168.28 339.827 168.867 340.16 169.4C340.373 169.747 340.48 169.987 340.48 170.12C340.48 170.44 340.38 170.687 340.18 170.86C339.993 171.02 339.747 171.1 339.44 171.1C339.053 171.1 338.76 170.967 338.56 170.7ZM336.5 165.86C336.287 165.407 335.98 164.62 335.58 163.5C335.167 162.3 334.753 161.347 334.34 160.64C334.087 161.28 333.713 162.107 333.22 163.12C332.887 163.747 332.507 164.653 332.08 165.84C332.933 165.947 333.853 166 334.84 166C335.547 166 336.1 165.953 336.5 165.86Z" fill="white"/>
<path d="M310.807 92.5468C331.007 91.7747 346.756 74.7738 345.983 54.5744C345.211 34.3749 328.21 18.6259 308.011 19.3981C287.811 20.1702 272.062 37.171 272.835 57.3705C273.607 77.57 290.608 93.319 310.807 92.5468Z" fill="white"/>
<path d="M310.371 89.7507C330.57 88.9785 346.319 71.9777 345.547 51.7782C344.775 31.5788 327.774 15.8298 307.574 16.6019C287.375 17.3741 271.626 34.3749 272.398 54.5744C273.17 74.7739 290.171 90.5228 310.371 89.7507Z" fill="#007AFF"/>
<path d="M325.466 44.5199C325.199 49.7466 325.066 53.9066 325.066 56.9999C325.066 58.5999 325.106 60.1199 325.186 61.5599C325.399 61.7199 325.813 61.7999 326.426 61.7999L327.346 61.7599C327.719 61.7066 328.066 61.6799 328.386 61.6799C329.079 61.6799 329.613 61.7999 329.986 62.0399C330.386 62.2799 330.586 62.7466 330.586 63.4399C330.586 64.1066 330.386 64.6266 329.986 64.9999C329.613 65.3733 328.826 65.5599 327.626 65.5599C326.613 65.5599 325.386 65.4799 323.946 65.3199C323.599 65.2933 323.266 65.2666 322.946 65.2399C322.626 65.2133 322.333 65.1999 322.066 65.1999C320.599 65.2266 319.506 65.2799 318.786 65.3599C318.066 65.4399 317.253 65.4799 316.346 65.4799C315.519 65.4799 315.106 64.8533 315.106 63.5999C315.106 62.3999 315.879 61.7999 317.426 61.7999C317.666 61.7999 318.053 61.8266 318.586 61.8799C319.039 61.9599 319.519 61.9999 320.026 61.9999C320.319 61.9999 320.559 61.9866 320.746 61.9599C320.773 60.1733 320.866 57.5733 321.026 54.1599C321.186 50.1599 321.266 47.1999 321.266 45.2799C321.133 45.3066 320.666 45.4933 319.866 45.8399C318.639 46.4533 317.733 46.7599 317.146 46.7599C316.826 46.7599 316.533 46.5999 316.266 46.2799C315.999 45.9333 315.866 45.5333 315.866 45.0799C315.866 44.6266 316.146 44.1866 316.706 43.7599C317.266 43.3333 318.173 42.7733 319.426 42.0799C320.119 41.7333 320.786 41.3466 321.426 40.9199C321.586 40.8133 321.813 40.7066 322.106 40.5999C322.426 40.4933 322.666 40.4399 322.826 40.4399C323.519 40.4399 324.146 40.5866 324.706 40.8799C325.293 41.1466 325.586 41.5066 325.586 41.9599L325.466 44.5199Z" fill="white"/>
<path d="M308.48 64.96C308.133 64.5067 307.84 64.0133 307.6 63.48C307.36 62.92 307.107 62.2533 306.84 61.48C306.787 61.3467 306.627 60.9467 306.36 60.28C306.12 59.6133 305.84 59.04 305.52 58.56C303.84 58.8 302.467 58.92 301.4 58.92C300.813 58.92 300.16 58.9067 299.44 58.88C298.747 58.8267 298.227 58.8 297.88 58.8C296.547 58.6933 295.48 58.64 294.68 58.64C294.36 59.0667 294.08 59.52 293.84 60C293.627 60.48 293.347 61.2 293 62.16C292.52 63.5467 292.107 64.5333 291.76 65.12C291.52 65.52 291.053 65.72 290.36 65.72C289.773 65.72 289.227 65.6 288.72 65.36C288.24 65.0933 288 64.7333 288 64.28C288.213 63.2667 288.547 62.2 289 61.08C289.48 59.9333 290.16 58.4133 291.04 56.52L292.64 52.6C293.52 50.36 294.32 48.44 295.04 46.84C295.787 45.24 296.76 43.3467 297.96 41.16C298.12 40.84 298.387 40.5733 298.76 40.36C299.133 40.12 299.547 40 300 40C300.507 40 300.867 40.04 301.08 40.12C301.32 40.1733 301.507 40.28 301.64 40.44C301.773 40.5733 301.973 40.8667 302.24 41.32C303.147 42.7333 303.92 44.1867 304.56 45.68C305.227 47.1733 306.067 49.24 307.08 51.88L307.92 54C308.667 55.92 309.307 57.5333 309.84 58.84C310.4 60.12 311.013 61.2933 311.68 62.36C312.107 63.0533 312.32 63.5333 312.32 63.8C312.32 64.44 312.12 64.9333 311.72 65.28C311.347 65.6 310.853 65.76 310.24 65.76C309.467 65.76 308.88 65.4933 308.48 64.96ZM304.36 55.28C303.933 54.3733 303.32 52.8 302.52 50.56C301.693 48.16 300.867 46.2533 300.04 44.84C299.533 46.12 298.787 47.7733 297.8 49.8C297.133 51.0533 296.373 52.8667 295.52 55.24C297.227 55.4533 299.067 55.56 301.04 55.56C302.453 55.56 303.56 55.4667 304.36 55.28Z" fill="white"/>
<path d="M184.69 137.006C184.69 137.006 175.023 136.461 158.684 124.751C160.318 119.169 160.862 113.178 160.045 107.187C156.641 80.6358 129.137 62.2544 98.5017 66.0668C67.8659 70.0155 45.9444 94.6602 49.3484 121.347C52.7523 147.898 80.2564 166.28 110.892 162.467C125.597 160.561 138.26 153.889 147.11 144.63C156.369 145.72 169.576 145.175 184.69 137.006Z" fill="white"/>
<path d="M185.915 131.559C185.915 131.559 176.384 129.789 161.679 116.037C163.994 110.727 165.355 104.872 165.355 98.7449C165.355 71.9216 140.302 50.1362 109.53 50.1362C78.7585 50.1362 53.7053 71.9216 53.7053 98.7449C53.7053 125.568 78.7585 147.354 109.53 147.354C124.372 147.354 137.715 142.316 147.655 134.146C156.777 136.733 169.985 137.686 185.915 131.559Z" fill="#007AFF"/>
<path d="M147.408 90.72C148.235 91.84 148.648 93.04 148.648 94.32C148.648 95.2267 148.448 96.04 148.048 96.76C147.648 97.48 147.021 98.2933 146.168 99.2C145.421 99.9733 144.875 100.707 144.528 101.4C144.181 102.067 143.955 102.693 143.848 103.28C143.768 103.84 143.675 104.733 143.568 105.96C143.568 106.573 143.355 107.027 142.928 107.32C142.501 107.587 142.061 107.72 141.608 107.72C140.408 107.72 139.808 107 139.808 105.56C139.808 104.787 139.941 103.867 140.208 102.8C140.475 101.733 140.968 100.573 141.688 99.32C141.928 98.8933 142.235 98.4667 142.608 98.04C143.008 97.6133 143.261 97.3333 143.368 97.2C143.795 96.7467 144.155 96.28 144.448 95.8C144.741 95.2933 144.888 94.8533 144.888 94.48C144.888 94.0533 144.821 93.72 144.688 93.48C144.581 93.24 144.408 92.9733 144.168 92.68C143.821 92.28 143.368 91.96 142.808 91.72C142.248 91.48 141.728 91.36 141.248 91.36C140.475 91.36 139.755 91.5067 139.088 91.8C138.448 92.0667 137.928 92.4267 137.528 92.88C137.155 93.3067 136.968 93.7467 136.968 94.2C136.968 94.9467 137.115 95.5067 137.408 95.88C137.701 96.2267 137.848 96.5467 137.848 96.84C137.848 97 137.808 97.1867 137.728 97.4C137.408 98.1467 136.861 98.52 136.088 98.52C135.101 98.52 134.381 98.1467 133.928 97.4C133.475 96.6533 133.248 95.7067 133.248 94.56C133.248 93.4667 133.595 92.4267 134.288 91.44C134.981 90.4267 135.995 89.6 137.328 88.96C138.661 88.32 140.248 88 142.088 88C143.155 88 144.155 88.24 145.088 88.72C146.021 89.1733 146.795 89.84 147.408 90.72ZM141.608 109.24C142.408 109.24 143.048 109.52 143.528 110.08C143.928 110.48 144.128 111.027 144.128 111.72C144.128 112.307 143.848 112.8 143.288 113.2C142.728 113.573 142.115 113.76 141.448 113.76C140.968 113.76 140.501 113.627 140.048 113.36C139.488 112.96 139.208 112.253 139.208 111.24C139.208 110.707 139.448 110.24 139.928 109.84C140.435 109.44 140.995 109.24 141.608 109.24Z" fill="white"/>
<path d="M126.175 112.16C125.775 111.413 125.522 110.587 125.415 109.68C125.309 108.747 125.255 107.467 125.255 105.84C125.255 104.293 125.042 102.947 124.615 101.8C124.189 100.653 123.309 100.08 121.975 100.08C121.469 100.08 120.962 100.24 120.455 100.56C119.975 100.853 119.615 101.227 119.375 101.68C119.002 102.4 118.749 103.187 118.615 104.04C118.482 104.867 118.415 105.827 118.415 106.92C118.415 107.613 118.455 108.32 118.535 109.04C118.535 109.253 118.549 109.6 118.575 110.08C118.629 110.533 118.655 110.947 118.655 111.32C118.655 112.92 118.095 113.72 116.975 113.72C115.509 113.72 114.735 112.947 114.655 111.4C114.655 110.307 114.669 109.72 114.695 109.64V107.92C114.695 106.96 114.655 106.027 114.575 105.12C114.495 104.213 114.402 103.533 114.295 103.08C114.055 102.2 113.735 101.52 113.335 101.04C112.962 100.56 112.362 100.32 111.535 100.32C110.362 100.32 109.415 100.827 108.695 101.84C108.189 102.64 107.855 103.613 107.695 104.76C107.535 106.227 107.415 107.387 107.335 108.24C107.282 109.067 107.255 110.027 107.255 111.12C107.255 111.893 107.122 112.52 106.855 113C106.615 113.48 106.149 113.72 105.455 113.72C104.949 113.72 104.415 113.587 103.855 113.32C103.322 113.027 103.055 112.64 103.055 112.16C103.055 111.653 103.109 111.147 103.215 110.64C103.455 109.12 103.575 106.4 103.575 102.48C103.575 101.84 103.415 101.227 103.095 100.64C102.802 100.027 102.442 99.72 102.015 99.72C101.909 99.72 101.709 99.7734 101.415 99.88C101.149 99.9867 100.949 100.04 100.815 100.04C100.469 100.04 100.149 99.88 99.8553 99.56C99.5887 99.24 99.4553 98.9734 99.4553 98.76C99.4553 98.0934 99.7753 97.5334 100.415 97.08C101.082 96.6 101.775 96.36 102.495 96.36C103.482 96.36 104.322 96.6667 105.015 97.28C105.709 97.8934 106.242 98.7467 106.615 99.84C107.229 98.7734 108.055 97.92 109.095 97.28C110.135 96.6134 111.295 96.28 112.575 96.28C113.375 96.28 114.015 96.3867 114.495 96.6C115.002 96.7867 115.415 97.0667 115.735 97.44C116.055 97.7867 116.469 98.32 116.975 99.04C117.642 98.1867 118.495 97.52 119.535 97.04C120.602 96.56 121.695 96.32 122.815 96.32C124.149 96.32 125.349 96.8667 126.415 97.96C127.482 99.0267 128.202 100.267 128.575 101.68C128.762 102.4 128.855 103.787 128.855 105.84L129.015 108.16C129.149 109.547 129.602 110.387 130.375 110.68C131.282 110.947 131.735 111.227 131.735 111.52C131.735 112.16 131.575 112.627 131.255 112.92C131.015 113.08 130.682 113.253 130.255 113.44C129.829 113.627 129.495 113.72 129.255 113.72C127.815 113.72 126.789 113.2 126.175 112.16Z" fill="white"/>
<path d="M91.64 99.2399C91.6133 98.8132 91.6 98.1732 91.6 97.3199V95.7999C91.6 94.7866 91.5733 94.0266 91.52 93.5199C91.4667 93.0932 91.44 91.9866 91.44 90.1999C91.44 89.5599 91.6267 89.0666 92 88.7199C92.4 88.3466 92.9333 88.1599 93.6 88.1599C94.4533 88.1599 95.0267 88.3466 95.32 88.7199C95.6133 89.0932 95.76 89.7066 95.76 90.5599V92.0799L95.72 96.4799C95.6933 97.3332 95.68 98.6132 95.68 100.32L95.72 103.6C95.7467 104.107 95.76 104.813 95.76 105.72C95.76 106.44 95.7867 107.467 95.84 108.8C95.8933 110.027 95.92 110.947 95.92 111.56C95.92 112.067 95.7733 112.533 95.48 112.96C95.2133 113.387 94.84 113.6 94.36 113.6C92.4933 113.6 91.56 112.973 91.56 111.72C91.56 111.027 91.5867 110.253 91.64 109.4C91.6933 108.787 91.72 107.853 91.72 106.6C91.72 105.72 91.6933 104.453 91.64 102.8C90.3867 102.907 88.2267 102.96 85.16 102.96C83.24 102.96 81.7467 102.96 80.68 102.96C79.6133 102.933 78.84 102.867 78.36 102.76L78.32 107.36C78.32 107.653 78.3867 108.44 78.52 109.72C78.6533 110.573 78.72 111.32 78.72 111.96C78.72 112.36 78.48 112.747 78 113.12C77.5467 113.467 77.12 113.64 76.72 113.64C75.76 113.64 75.1067 113.413 74.76 112.96C74.4133 112.48 74.24 111.76 74.24 110.8L74.2 107.64C74.1733 107.267 74.16 106.747 74.16 106.08C74.16 105.093 74.1333 103.747 74.08 102.04C74.0267 100.493 74 99.3732 74 98.6799C74 97.6399 74.0267 96.1866 74.08 94.3199C74.1333 92.5599 74.16 91.2532 74.16 90.3999C74.16 89.5466 74.3733 88.9732 74.8 88.6799C75.2267 88.3866 75.7067 88.2399 76.24 88.2399C77.7333 88.2399 78.48 88.7332 78.48 89.7199C78.48 91.4799 78.44 93.1599 78.36 94.7599C78.3067 96.7866 78.28 98.2666 78.28 99.1999C79.0533 99.3866 79.8667 99.5066 80.72 99.5599C81.5733 99.6132 82.7733 99.6399 84.32 99.6399C87.4667 99.6399 89.9067 99.5066 91.64 99.2399Z" fill="white"/>
<path d="M103.736 300.556C105.178 303.681 105.899 306.925 105.899 310.049C106.139 319.423 100.852 328.435 91.8389 332.521C82.8262 336.607 72.6119 334.804 65.6421 328.555C63.2387 326.392 61.316 323.749 59.874 320.624C59.2731 319.182 58.6723 317.74 58.3118 316.178C55.6681 305.123 61.0757 293.466 71.7707 288.539C82.4657 283.612 94.8431 287.217 101.452 296.47C102.294 297.792 103.135 299.114 103.736 300.556Z" fill="#00254C"/>
<path d="M98.0877 293.226C99.5297 296.35 100.251 299.595 100.251 302.719C100.491 312.092 95.2036 321.105 86.191 325.191C77.1783 329.276 66.9639 327.474 59.9941 321.225C57.5908 319.062 55.6681 316.418 54.226 313.294C53.6252 311.852 53.0244 310.41 52.6638 308.848C50.0201 297.792 55.4277 286.136 66.1228 281.209C76.8178 276.282 89.1952 279.887 95.8045 289.14C96.6457 290.462 97.4868 291.784 98.0877 293.226Z" fill="#D53F36"/>
<path d="M95.8045 289.14L52.6638 308.848C50.0201 297.792 55.4277 286.136 66.1228 281.209C76.8178 276.402 89.1952 280.007 95.8045 289.14Z" fill="#131313"/>
<path d="M100.251 302.719C100.491 312.092 95.2036 321.105 86.191 325.191C77.1783 329.277 66.9639 327.474 59.9941 321.225L100.251 302.719Z" fill="#FDDA5F"/>
<path d="M66.5258 36.0598C65.6133 38.2168 64.2859 40.042 62.7925 41.5353C58.2296 45.9323 51.2607 47.4257 45.0385 44.7708C38.8163 42.116 35.083 36.1427 35 29.7546C35 27.5976 35.4148 25.3576 36.3274 23.2005C36.7422 22.205 37.24 21.2924 37.8207 20.3798C42.1348 13.9917 50.514 11.3369 57.8148 14.4065C65.1984 17.5591 69.0977 25.3576 67.5214 32.9072C67.2725 34.0687 66.9407 35.1472 66.5258 36.0598Z" fill="white"/>
<path d="M67.1896 30.833C63.8711 37.3871 56.8192 40.7886 49.9333 39.71C49.2696 39.6271 48.6889 39.4612 48.0252 39.2952C47.0296 39.0463 46.0341 38.6315 45.0385 38.1337C42.9645 37.0552 41.2222 35.6449 39.8119 33.9856C35.7467 29.0908 34.6682 22.1219 37.7378 16.0657C40.8074 10.0094 47.0296 6.69086 53.3348 7.02271C55.4918 7.18864 57.6489 7.68641 59.7229 8.76493C60.7185 9.26271 61.5481 9.84345 62.3777 10.4242C63.2074 11.0879 63.954 11.7516 64.6177 12.4983C69.0977 17.3931 70.2592 24.6108 67.1896 30.833Z" fill="white"/>
<path d="M67.1896 30.8329C63.8711 37.387 56.8193 40.7885 49.9333 39.71L63.9541 11.8345C64.203 12.0834 64.5348 12.2493 64.7837 12.4982C69.0978 17.393 70.2592 24.6107 67.1896 30.8329Z" fill="#D53F36"/>
<path d="M39.8949 33.9856C35.8297 29.0908 34.7512 22.1219 37.8208 16.0657C40.8904 10.0094 47.1126 6.69086 53.4178 7.02271L39.8949 33.9856Z" fill="#4887FC"/>
<path d="M376.102 113.223C375.847 114.923 375.252 116.453 374.402 117.728C371.938 121.637 367.263 123.932 362.419 123.167C357.574 122.402 353.835 118.833 352.645 114.328C352.22 112.798 352.135 111.184 352.39 109.484C352.475 108.719 352.73 107.954 352.985 107.274C354.855 102.004 360.379 98.6048 366.073 99.5397C371.853 100.475 376.017 105.319 376.187 110.929C376.272 111.693 376.272 112.458 376.102 113.223Z" fill="white"/>
<path d="M369.218 117.303C368.623 117.643 368.028 117.983 367.433 118.238C366.838 118.493 366.158 118.663 365.478 118.833C365.138 118.918 364.713 119.003 364.373 119.003C363.014 119.173 361.569 119.088 360.209 118.748C357.489 118.068 354.939 116.453 353.24 114.158C352.815 113.648 352.475 113.053 352.22 112.373C352.05 112.118 351.965 111.863 351.88 111.524C351.71 111.184 351.625 110.844 351.54 110.504C351.37 109.909 351.2 109.314 351.115 108.719C350.69 105.659 351.455 102.514 353.24 100.05C354.005 98.9448 355.024 97.9249 356.214 97.16C356.384 97.075 356.554 96.9051 356.724 96.8201C357.319 96.4801 357.914 96.1401 358.509 95.8852C359.189 95.6302 359.784 95.4602 360.464 95.2902C365.308 94.1853 370.323 96.3101 373.043 100.39C373.297 100.73 373.467 101.155 373.722 101.495C373.892 101.835 374.062 102.175 374.147 102.514C374.317 102.939 374.487 103.449 374.572 103.874C374.742 104.384 374.827 104.894 374.912 105.404C375.422 110.164 373.297 114.838 369.218 117.303Z" fill="#007AFF"/>
<path d="M364.373 119.003C363.014 119.173 361.569 119.088 360.209 118.748L357.064 110.504L355.704 106.934L353.07 100.05C353.835 98.9447 354.854 97.9248 356.044 97.1599L359.274 105.574L360.634 109.144L364.373 119.003Z" fill="#FDDA5F"/>
<path d="M374.487 103.959L360.634 109.229L357.064 110.589L352.135 112.458C351.965 112.203 351.88 111.948 351.795 111.608C351.625 111.268 351.54 110.929 351.455 110.589C351.285 109.994 351.115 109.399 351.03 108.804L355.704 107.019L359.274 105.659L372.958 100.475C373.212 100.815 373.382 101.24 373.637 101.579C373.807 101.919 373.977 102.259 374.062 102.599C374.232 103.024 374.402 103.534 374.487 103.959Z" fill="#FDDA5F"/>
</svg>
