<svg width="3065" height="3065" viewBox="0 0 3065 3065" fill="none" xmlns="http://www.w3.org/2000/svg">
<path d="M1197.13 314.959C1200.32 292.094 1167.95 273.275 1143.67 271.314C1132.09 270.333 1120.07 272.111 1109.1 268.31C1085.38 260.035 1075.88 229.323 1052.64 219.27C1035.3 211.975 1015.37 218.473 998.578 226.933C981.781 235.392 965.108 246.058 946.35 247.284C930.044 248.326 912.267 242.258 897.984 250.227C887.318 256.357 881.74 268.617 871.932 275.666C861.725 281.977 849.907 285.192 837.91 284.922C825.948 284.598 814.031 286.532 802.785 290.623C791.935 295.589 782.986 307.113 785.254 318.821L1197.13 314.959Z" fill="#4C4C4C"/>
<path d="M2824.7 1667.91C2829.98 1629.84 2776.22 1598.52 2735.82 1595.27C2716.57 1593.68 2696.59 1596.62 2678.32 1590.24C2638.84 1576.51 2623.15 1525.45 2584.47 1509.14C2555.66 1496.88 2522.43 1507.86 2494.48 1521.9C2466.53 1535.93 2438.94 1553.65 2407.68 1555.67C2380.52 1557.39 2351.04 1547.33 2327.25 1560.64C2309.54 1570.51 2300.28 1590.92 2283.98 1602.93C2267.67 1614.95 2247.2 1617.22 2227.34 1618.32C2207.47 1619.42 2187 1619.55 2168.98 1627.82C2150.96 1636.1 2136 1655.16 2139.74 1674.65L2824.7 1667.91Z" fill="#4C4C4C"/>
<path d="M780.962 738.849C784.947 709.731 743.814 685.763 712.919 683.25C698.207 682.085 682.944 684.353 668.967 679.449C638.746 668.906 626.67 629.858 597.124 617.414C575.117 608.096 549.677 616.433 528.284 627.16C506.89 637.888 485.803 651.68 461.896 653.029C441.115 654.316 418.557 646.899 400.596 656.768C387.048 664.369 379.999 679.94 367.494 689.135C354.989 698.33 339.357 700.107 324.155 700.904C308.952 701.701 293.505 701.885 279.528 708.199C265.552 714.513 254.334 729.102 257.154 743.998L780.962 738.849Z" fill="#4C4C4C"/>
<path d="M2408.29 2325.6L2271.9 2917.76L2329.58 2917.57L2466.22 2331.18L2408.29 2325.6Z" fill="#454545"/>
<path d="M2657.05 2325.6L2793.93 2917.76H2848.73L2716.33 2325.6H2657.05Z" fill="#454545"/>
<path d="M2316.22 1880.87L2393.89 2288.57H2482.1L2399.16 1880.87H2316.22Z" fill="#E0E0E0"/>
<path d="M963.758 2325.6L852.499 2917.76H909.14L1025.37 2325.6H963.758Z" fill="#454545"/>
<path d="M1197.68 2325.6L1324.82 2914.51H1380.78L1258 2325.6H1197.68Z" fill="#454545"/>
<path d="M871.687 1880.87L949.354 2288.57H1037.56L954.625 1880.87H871.687Z" fill="#E0E0E0"/>
<path d="M696.981 1843.84L712.858 1917.95H2484.73L2464.08 1843.84H696.981Z" fill="#4C4C4C"/>
<path d="M730.819 1987.77L749.577 2061.89H2509.44L2493.44 1987.77H730.819Z" fill="#4C4C4C"/>
<path d="M765.821 2136.8L783.23 2210.91H2537.7L2521.09 2136.8H765.821Z" fill="#4C4C4C"/>
<path d="M2791.85 2288.57H899.945V2362.69H2791.85V2288.57Z" fill="#4C4C4C"/>
<path d="M2025.23 1370.67C2010.61 1370.67 1996.25 1366.83 1983.58 1359.54C1970.91 1352.24 1960.39 1341.74 1953.06 1329.09C1945.73 1316.44 1941.86 1302.08 1941.83 1287.47C1941.8 1272.85 1945.62 1258.48 1952.9 1245.8L2191.97 828.96C2199.18 816.205 2209.66 805.602 2222.33 798.243C2235 790.885 2249.4 787.035 2264.05 787.092C2278.66 787.005 2293.03 790.795 2305.7 798.075C2318.36 805.355 2328.87 815.864 2336.14 828.531L2577.67 1243.96C2585.01 1256.62 2588.89 1270.98 2588.93 1285.62C2588.97 1300.25 2585.16 1314.63 2577.88 1327.33C2570.6 1340.02 2560.11 1350.58 2547.46 1357.94C2534.82 1365.3 2520.45 1369.2 2505.82 1369.26L2025.29 1370.73L2025.23 1370.67ZM2264.3 811.918C2254.02 811.887 2243.91 814.596 2235.02 819.768C2226.13 824.94 2218.78 832.387 2213.73 841.342L1974.66 1258.18C1969.55 1267.07 1966.87 1277.15 1966.89 1287.4C1966.91 1297.65 1969.62 1307.72 1974.76 1316.59C1979.89 1325.47 1987.27 1332.83 1996.15 1337.96C2005.03 1343.08 2015.1 1345.78 2025.35 1345.78L2505.88 1344.31C2516.11 1344.25 2526.15 1341.5 2534.98 1336.35C2543.82 1331.2 2551.15 1323.82 2556.25 1314.95C2561.34 1306.08 2564.02 1296.02 2564.01 1285.79C2564 1275.56 2561.31 1265.52 2556.21 1256.65L2314.69 841.281C2309.64 832.355 2302.3 824.932 2293.44 819.772C2284.57 814.613 2274.49 811.902 2264.24 811.918H2264.3Z" fill="#4C4C4C"/>
<path d="M2217.34 992.263L2228.56 1147.78C2228.99 1153.92 2231.65 1159.68 2236.05 1163.99C2240.44 1168.29 2246.26 1170.84 2252.41 1171.14C2258.87 1171.47 2265.22 1169.31 2270.13 1165.1C2275.05 1160.89 2278.16 1154.95 2278.83 1148.52L2294.77 992.018C2295.04 989.224 2294.73 986.402 2293.83 983.74C2292.94 981.077 2291.49 978.634 2289.59 976.572C2287.68 974.51 2285.36 972.875 2282.78 971.776C2280.19 970.677 2277.41 970.138 2274.6 970.195L2236.65 971.053C2233.97 971.113 2231.33 971.717 2228.89 972.828C2226.45 973.94 2224.26 975.535 2222.45 977.519C2220.65 979.502 2219.26 981.832 2218.38 984.367C2217.51 986.901 2217.15 989.588 2217.34 992.263Z" fill="#4C4C4C"/>
<path d="M2294.4 1258.31C2292.09 1265.44 2287.72 1271.73 2281.83 1276.39C2275.95 1281.04 2268.82 1283.84 2261.35 1284.45C2253.87 1285.05 2246.38 1283.42 2239.83 1279.77C2233.28 1276.12 2227.95 1270.61 2224.53 1263.94C2221.11 1257.27 2219.74 1249.73 2220.6 1242.28C2221.46 1234.83 2224.51 1227.8 2229.36 1222.08C2234.21 1216.36 2240.65 1212.2 2247.86 1210.14C2255.07 1208.08 2262.74 1208.2 2269.88 1210.49C2274.63 1212.01 2279.04 1214.46 2282.84 1217.69C2286.65 1220.92 2289.78 1224.87 2292.06 1229.31C2294.34 1233.75 2295.72 1238.6 2296.12 1243.57C2296.52 1248.55 2295.93 1253.56 2294.4 1258.31Z" fill="#4C4C4C"/>
<path d="M2879.94 2917.02C2879.94 2917.88 2276.62 2918.62 1532.56 2918.62C788.502 2918.62 185.064 2917.88 185.064 2917.02C185.064 2916.16 788.256 2915.43 1532.56 2915.43C2276.87 2915.43 2879.94 2916.1 2879.94 2917.02Z" fill="#263238"/>
<path d="M1946.4 2259.4L1327.27 2258.97C1252.85 2258.97 1192.41 2195.52 1192.41 2117.3V486.722C1192.41 408.503 1252.85 345.058 1327.27 345.119L1946.09 345.487C2020.57 345.487 2080.95 408.932 2080.95 487.151L2080.64 2117.73C2081.26 2196.01 2020.88 2259.4 1946.4 2259.4Z" fill="#263238"/>
<path d="M1946.21 403.231H1826.19C1818.09 403.629 1810.48 407.219 1805.02 413.216C1799.56 419.214 1796.7 427.13 1797.07 435.23V458.095C1797.44 466.206 1794.57 474.13 1789.1 480.129C1783.63 486.129 1776 489.712 1767.89 490.094H1534.03C1525.92 489.697 1518.3 486.098 1512.84 480.087C1507.38 474.076 1504.53 466.145 1504.91 458.034V435.23C1505.28 427.13 1502.42 419.214 1496.97 413.216C1491.51 407.219 1483.9 403.629 1475.8 403.231H1328.68C1276.51 403.231 1234.21 447.674 1234.21 502.476V2093.95C1234.21 2148.69 1276.45 2193.13 1328.55 2193.19L1946.21 2193.56C1998.38 2193.56 2040.68 2149.18 2040.68 2094.38L2040.55 502.66C2040.55 447.49 1998.38 403.231 1946.21 403.231Z" fill="#131313"/>
<path d="M1402.54 2042.95V2081.87C1402.54 2082.63 1402.33 2083.38 1401.94 2084.04C1401.55 2084.69 1400.99 2085.23 1400.32 2085.6C1399.66 2085.97 1398.9 2086.15 1398.14 2086.13C1397.38 2086.11 1396.63 2085.89 1395.98 2085.49L1365.33 2065.99C1364.73 2065.61 1364.23 2065.07 1363.88 2064.44C1363.53 2063.81 1363.35 2063.1 1363.35 2062.38C1363.35 2061.66 1363.53 2060.95 1363.88 2060.32C1364.23 2059.68 1364.73 2059.15 1365.33 2058.76L1395.98 2039.27C1396.64 2038.86 1397.39 2038.64 1398.15 2038.62C1398.92 2038.6 1399.68 2038.79 1400.35 2039.17C1401.02 2039.54 1401.58 2040.09 1401.96 2040.76C1402.35 2041.42 1402.55 2042.18 1402.54 2042.95Z" fill="#E0E0E0"/>
<path d="M1654.24 2062.01C1654.23 2067.32 1652.64 2072.5 1649.69 2076.91C1646.73 2081.32 1642.53 2084.75 1637.62 2086.77C1632.72 2088.79 1627.32 2089.32 1622.12 2088.27C1616.91 2087.23 1612.13 2084.67 1608.39 2080.91C1604.64 2077.15 1602.09 2072.37 1601.05 2067.16C1600.02 2061.96 1600.56 2056.56 1602.59 2051.66C1604.63 2046.76 1608.07 2042.57 1612.48 2039.62C1616.9 2036.67 1622.08 2035.1 1627.39 2035.1C1634.52 2035.11 1641.35 2037.96 1646.38 2043C1651.41 2048.05 1654.24 2054.88 1654.24 2062.01Z" fill="#E0E0E0"/>
<path d="M1885.16 2038.59H1858.55C1852.22 2038.59 1847.09 2043.72 1847.09 2050.06V2076.78C1847.09 2083.11 1852.22 2088.25 1858.55 2088.25H1885.16C1891.49 2088.25 1896.62 2083.11 1896.62 2076.78V2050.06C1896.62 2043.72 1891.49 2038.59 1885.16 2038.59Z" fill="#E0E0E0"/>
<path d="M1935.85 1177.95C1975.39 1014.26 1874.75 849.51 1711.06 809.971C1547.38 770.431 1382.63 871.072 1343.09 1034.76C1303.55 1198.45 1404.19 1363.19 1567.88 1402.73C1731.56 1442.27 1896.31 1341.63 1935.85 1177.95Z" fill="#4C4C4C"/>
<path d="M1653.08 1240.59C1653.06 1245.58 1651.57 1250.44 1648.79 1254.58C1646.01 1258.72 1642.06 1261.94 1637.45 1263.83C1632.84 1265.73 1627.77 1266.21 1622.88 1265.22C1618 1264.23 1613.52 1261.82 1610 1258.28C1606.49 1254.74 1604.11 1250.24 1603.15 1245.35C1602.2 1240.45 1602.72 1235.39 1604.65 1230.79C1606.57 1226.19 1609.82 1222.27 1613.98 1219.52C1618.14 1216.77 1623.02 1215.31 1628.01 1215.33C1634.67 1215.38 1641.05 1218.06 1645.74 1222.8C1650.44 1227.53 1653.08 1233.92 1653.08 1240.59Z" fill="#E6F7FF"/>
<path d="M1577.55 1208.22C1583.98 1201.3 1591.75 1195.76 1600.38 1191.93C1609.01 1188.1 1618.33 1186.05 1627.78 1185.93C1637.22 1185.8 1646.59 1187.59 1655.32 1191.19C1664.06 1194.79 1671.97 1200.13 1678.58 1206.87C1691.45 1219.87 1711.56 1199.95 1698.68 1186.95C1689.43 1177.63 1678.4 1170.25 1666.26 1165.24C1654.11 1160.24 1641.08 1157.72 1627.94 1157.83C1614.81 1157.94 1601.82 1160.68 1589.76 1165.88C1577.69 1171.08 1566.79 1178.64 1557.69 1188.12C1545.13 1201.3 1565.05 1221.46 1577.68 1208.22H1577.55Z" fill="#E6F7FF"/>
<path d="M1491.98 1091.14C1530.29 1058.04 1576.02 1037.2 1627.21 1037.07C1678.3 1036.34 1727.75 1055.16 1765.44 1089.67C1778.68 1101.93 1798.85 1082.25 1785.55 1069.75C1742.58 1029.96 1686.07 1008.03 1627.51 1008.45C1568.61 1008.45 1516.26 1032.97 1472.18 1070.79C1458.39 1082.74 1478.31 1102.79 1492.16 1090.89L1491.98 1091.14Z" fill="#E6F7FF"/>
<path d="M1525.76 1155.93C1538.53 1141.68 1554.12 1130.22 1571.54 1122.29C1588.96 1114.36 1607.84 1110.13 1626.97 1109.86C1646.11 1109.59 1665.1 1113.29 1682.74 1120.72C1700.38 1128.16 1716.28 1139.16 1729.46 1153.05C1742.21 1166.11 1762.31 1146.19 1749.56 1133.07C1733.76 1116.55 1714.73 1103.46 1693.66 1094.6C1672.59 1085.74 1649.93 1081.3 1627.07 1081.56C1604.21 1081.82 1581.65 1086.77 1560.79 1096.1C1539.92 1105.44 1521.2 1118.96 1505.77 1135.83C1493.51 1149.19 1513.31 1169.36 1525.76 1155.93Z" fill="#E6F7FF"/>
<path d="M1865.93 1037.73C1873.36 995.694 1845.31 955.587 1803.27 948.152C1761.23 940.717 1721.13 968.769 1713.69 1010.81C1706.25 1052.85 1734.31 1092.95 1776.35 1100.39C1818.38 1107.82 1858.49 1079.77 1865.93 1037.73Z" fill="#007AFF"/>
<path d="M1821.67 1002.66L1810.7 991.689L1761.59 1040.8L1772.56 1051.77L1821.67 1002.66Z" fill="white"/>
<path d="M1772.58 991.632L1761.62 1002.6L1810.73 1051.71L1821.69 1040.74L1772.58 991.632Z" fill="white"/>
<path d="M1359.76 619.13C1353.63 619.13 1345.11 619.13 1336.95 619.13C1327.21 619.13 1317.46 619.13 1310.65 619.13C1309.84 619.13 1309.06 618.807 1308.49 618.232C1307.91 617.657 1307.59 616.878 1307.59 616.065C1307.58 615.665 1307.65 615.268 1307.8 614.897C1307.95 614.525 1308.17 614.187 1308.45 613.901C1308.73 613.616 1309.06 613.389 1309.43 613.234C1309.8 613.079 1310.19 613 1310.59 613C1317.4 613 1327.27 613 1337.07 613C1346.88 613 1356.57 613.368 1363.37 613C1363.77 612.992 1364.17 613.063 1364.54 613.211C1364.91 613.358 1365.25 613.578 1365.54 613.858C1365.82 614.137 1366.05 614.471 1366.2 614.84C1366.36 615.208 1366.44 615.604 1366.44 616.004C1366.45 616.406 1366.37 616.806 1366.23 617.181C1366.08 617.556 1365.86 617.899 1365.58 618.189C1365.3 618.479 1364.97 618.712 1364.6 618.873C1364.23 619.035 1363.84 619.122 1363.43 619.13H1359.76Z" fill="#E6F7FF"/>
<path d="M1329.29 639.727C1328.86 639.718 1328.44 639.621 1328.05 639.442C1327.66 639.263 1327.31 639.005 1327.02 638.685L1308.63 617.659C1308.13 617.08 1307.86 616.34 1307.86 615.575C1307.86 614.809 1308.13 614.069 1308.63 613.49L1327.02 594.365C1327.29 594.039 1327.62 593.773 1328 593.582C1328.38 593.392 1328.79 593.28 1329.21 593.256C1329.63 593.231 1330.05 593.294 1330.45 593.439C1330.84 593.585 1331.2 593.811 1331.51 594.103C1331.81 594.394 1332.05 594.746 1332.21 595.135C1332.38 595.524 1332.46 595.942 1332.45 596.364C1332.44 596.786 1332.35 597.201 1332.18 597.585C1332 597.969 1331.75 598.312 1331.44 598.594L1315.19 615.697L1331.99 634.639C1332.38 635.083 1332.63 635.631 1332.72 636.217C1332.8 636.802 1332.72 637.4 1332.47 637.938C1332.23 638.476 1331.83 638.931 1331.33 639.248C1330.83 639.566 1330.25 639.732 1329.66 639.727H1329.29Z" fill="#E6F7FF"/>
<path d="M1961.17 601.292C1966.42 601.292 1970.67 597.038 1970.67 591.79C1970.67 586.543 1966.42 582.289 1961.17 582.289C1955.92 582.289 1951.67 586.543 1951.67 591.79C1951.67 597.038 1955.92 601.292 1961.17 601.292Z" fill="#E6F7FF"/>
<path d="M1970.67 621.827C1970.68 623.724 1970.13 625.581 1969.09 627.163C1968.04 628.745 1966.55 629.98 1964.8 630.711C1963.05 631.443 1961.12 631.637 1959.26 631.27C1957.4 630.903 1955.69 629.991 1954.35 628.65C1953.01 627.309 1952.09 625.6 1951.73 623.739C1951.36 621.878 1951.56 619.95 1952.29 618.201C1953.02 616.451 1954.25 614.958 1955.84 613.912C1957.42 612.866 1959.27 612.314 1961.17 612.326C1963.69 612.326 1966.11 613.327 1967.89 615.109C1969.67 616.89 1970.67 619.307 1970.67 621.827Z" fill="#E6F7FF"/>
<path d="M1961.17 661.366C1966.42 661.366 1970.67 657.112 1970.67 651.864C1970.67 646.616 1966.42 642.363 1961.17 642.363C1955.92 642.363 1951.67 646.616 1951.67 651.864C1951.67 657.112 1955.92 661.366 1961.17 661.366Z" fill="#E6F7FF"/>
<path d="M2633.88 510.369C2642.68 455.891 2605.64 404.598 2551.16 395.804C2496.68 387.009 2445.39 424.044 2436.6 478.522C2427.8 533.001 2464.84 584.293 2519.32 593.088C2573.79 601.882 2625.09 564.848 2633.88 510.369Z" fill="#007AFF"/>
<path d="M2521.02 717.884C2520.47 717.884 2519.98 699.494 2519.98 676.629C2519.98 653.764 2520.47 635.436 2521.02 635.436C2522.09 649.14 2522.43 662.889 2522.07 676.629C2522.44 690.39 2522.09 704.16 2521.02 717.884Z" fill="#007AFF"/>
<path d="M2463.46 612.203C2463.95 612.203 2454.57 629.735 2442.5 650.638C2430.42 671.542 2420.19 688.338 2419.7 688.031C2419.2 687.725 2428.58 670.561 2440.66 649.596C2452.74 628.632 2462.97 611.897 2463.46 612.203Z" fill="#007AFF"/>
<path d="M2404.37 575.423C2397.08 582.577 2389.29 589.213 2381.08 595.284C2373.3 601.927 2365.11 608.069 2356.56 613.674C2363.85 606.521 2371.63 599.884 2379.85 593.813C2387.6 587.137 2395.79 580.993 2404.37 575.423Z" fill="#007AFF"/>
<path d="M2620.7 677.243C2619.5 673.962 2618.62 670.575 2618.06 667.128C2616.65 660.998 2614.57 652.171 2611.93 642.608C2609.3 633.045 2606.78 624.586 2604.88 618.456C2603.61 615.187 2602.66 611.799 2602.06 608.341C2603.81 611.391 2605.23 614.617 2606.29 617.965C2608.56 624.095 2611.38 632.494 2613.95 642.056C2616.53 651.619 2618.31 660.446 2619.41 666.576C2620.22 670.076 2620.65 673.652 2620.7 677.243Z" fill="#007AFF"/>
<path d="M2722.03 605.338C2711.74 597.705 2701.88 589.52 2692.48 580.818C2682.63 572.673 2673.24 563.997 2664.34 554.826C2674.63 562.459 2684.49 570.645 2693.89 579.346C2703.74 587.491 2713.13 596.167 2722.03 605.338Z" fill="#007AFF"/>
<path d="M2760.83 506.522C2756.7 506.269 2752.61 505.695 2748.57 504.806C2741.15 503.58 2730.91 501.986 2719.57 500.698C2708.23 499.411 2697.87 498.614 2690.4 498.124C2686.29 498.115 2682.19 497.767 2678.14 497.082C2682.2 496.529 2686.31 496.385 2690.4 496.653C2697.94 496.653 2708.36 497.327 2719.76 498.614C2731.16 499.902 2741.46 501.741 2748.81 503.334C2752.91 504.025 2756.93 505.092 2760.83 506.522Z" fill="#007AFF"/>
<path d="M2760.95 409.361C2760.95 409.974 2739.5 415.491 2712.65 422.234C2685.8 428.977 2663.97 433.575 2663.61 433.023C2663.24 432.472 2685.12 426.893 2711.91 420.212C2738.7 413.53 2760.83 408.81 2760.95 409.361Z" fill="#007AFF"/>
<path d="M2648.16 296.202C2648.59 296.202 2638.29 312.998 2625.05 332.982C2611.81 352.965 2600.53 369.026 2600.16 368.658C2599.79 368.29 2610.03 351.862 2623.27 331.878C2630.96 319.572 2639.26 307.664 2648.16 296.202Z" fill="#007AFF"/>
<path d="M2536.04 272.54C2536.36 277.111 2536.36 281.7 2536.04 286.271C2536.04 294.73 2536.04 306.377 2536.04 319.25C2536.04 332.123 2536.04 343.77 2536.41 352.352C2536.73 356.903 2536.73 361.471 2536.41 366.022C2535.54 361.537 2535.07 356.983 2535 352.414C2534.51 343.954 2534.08 332.246 2534.08 319.312C2534.08 306.377 2534.45 294.792 2534.94 286.21C2534.89 281.629 2535.26 277.054 2536.04 272.54Z" fill="#007AFF"/>
<path d="M2451.2 378.16C2450.71 378.466 2440.17 362.16 2427.73 341.747C2415.28 321.335 2405.47 304.477 2405.96 304.17C2406.45 303.864 2417 320.231 2429.5 340.95C2442.01 361.67 2452 377.914 2451.2 378.16Z" fill="#007AFF"/>
<path d="M2400.51 421.254C2396.92 421.108 2393.36 420.552 2389.9 419.599C2383.41 418.189 2374.52 416.043 2364.77 413.469C2355.02 410.894 2346.38 407.339 2340.25 405.193C2336.82 404.104 2333.52 402.666 2330.38 400.902C2333.92 401.546 2337.39 402.531 2340.74 403.844C2346.87 405.806 2355.76 408.626 2365.26 411.446C2374.76 414.266 2383.65 416.718 2390.15 418.434C2393.68 419.044 2397.15 419.989 2400.51 421.254Z" fill="#007AFF"/>
<path d="M2378.44 498.001C2367.92 500.104 2357.27 501.477 2346.56 502.108C2335.93 503.476 2325.22 504.172 2314.5 504.193C2325.02 502.08 2335.67 500.687 2346.38 500.024C2357.01 498.692 2367.72 498.016 2378.44 498.001Z" fill="#007AFF"/>
<path d="M2310.27 2278.77L2399.65 2915.49L2422.94 2916.22C2408.11 2699.96 2392.29 2479.4 2310.27 2278.77Z" fill="#CEDEE5"/>
<path d="M2558.6 2248.91C2496.14 2317.14 2471 2411.48 2455.19 2502.76C2432.75 2632.16 2430.67 2785.04 2437.47 2916.22L2470.08 2916.96C2457.16 2690.69 2487.19 2464.01 2558.6 2248.91Z" fill="#CEDEE5"/>
<path d="M2326.7 2655.46C2319.53 2623.89 2311.32 2591.83 2293.29 2564.92C2268.77 2528.63 2229.36 2505.7 2189.45 2487.8C2149.55 2469.9 2107.68 2455.68 2071.63 2430.91C2111.85 2496.81 2203.06 2514.34 2249.4 2576.01C2272.51 2606.66 2282.14 2645.16 2291.15 2682.49C2310.95 2763.9 2323.09 2834.33 2342.82 2915.43H2369.31C2360.6 2827.96 2346.37 2741.13 2326.7 2655.46Z" fill="#CEDEE5"/>
<path d="M2493.93 2916.23C2493.93 2916.23 2516.3 2663.36 2532.92 2616.9C2549.53 2570.43 2706.46 2442.19 2704.99 2448.26C2703.51 2454.33 2587.23 2594.65 2570.62 2623.64C2554 2652.64 2525.56 2916.23 2525.56 2916.23H2493.93Z" fill="#CEDEE5"/>
<path d="M1752.08 2651.78C1758.27 2654.25 1763.91 2657.96 1768.64 2662.67C1773.37 2667.38 1777.1 2672.99 1779.6 2679.18C1784.6 2691.6 1786.7 2705 1785.73 2718.35C1784.44 2744.09 1771.63 2770.88 1757.29 2792.34C1734.55 2774.93 1727.5 2742.5 1724.92 2725.77C1720.88 2699.41 1729.58 2649.26 1752.2 2651.78" fill="#007AFF"/>
<path d="M1784.93 2832.86C1783 2825.64 1783 2818.04 1784.95 2810.83C1786.9 2803.61 1790.72 2797.04 1796.03 2791.79C1801.4 2786.62 1807.76 2782.59 1814.72 2779.91C1821.68 2777.24 1829.1 2775.98 1836.55 2776.22C1839.93 2775.99 1843.32 2776.5 1846.49 2777.69C1849.66 2778.89 1852.54 2780.74 1854.94 2783.14C1856.82 2785.79 1857.95 2788.9 1858.2 2792.14C1858.46 2795.37 1857.84 2798.62 1856.41 2801.53C1853.52 2807.32 1849.14 2812.23 1843.72 2815.75C1825.82 2828.69 1806.14 2837.88 1784.63 2832.92" fill="#007AFF"/>
<path d="M1762.44 2913.04C1762.44 2911.27 1762.58 2909.51 1762.87 2907.77C1763.29 2904.03 1763.85 2899.18 1764.52 2893.42C1765.92 2877.45 1769.88 2861.8 1776.23 2847.08C1782.9 2832.34 1793.37 2819.65 1806.57 2810.3C1810.59 2807.58 1814.91 2805.33 1819.45 2803.62C1820.66 2803.12 1821.91 2802.71 1823.18 2802.39L1824.53 2802.08C1818.5 2804.62 1812.73 2807.74 1807.31 2811.4C1794.62 2820.88 1784.52 2833.4 1777.95 2847.81C1771.6 2862.36 1767.47 2877.78 1765.69 2893.54C1764.77 2899.67 1764.03 2904.45 1763.42 2907.83C1763.27 2909.59 1762.94 2911.34 1762.44 2913.04Z" fill="#E6F7FF"/>
<path d="M1748.77 2690.52C1749.01 2691.25 1749.15 2692.02 1749.2 2692.79L1749.99 2699.35C1750.73 2705.11 1751.59 2713.32 1752.57 2723.56C1754.59 2744.03 1756.92 2772.29 1758.7 2803.56C1760.47 2834.82 1761.7 2863.2 1762.19 2883.74C1762.19 2894.03 1762.56 2902.13 1762.56 2908.26V2914.88C1762.56 2916.41 1762.56 2917.21 1762.56 2917.21C1762.49 2916.43 1762.49 2915.65 1762.56 2914.88L1762.25 2908.26C1762.25 2902.13 1761.7 2894.1 1761.27 2883.74C1760.41 2863.2 1759.19 2834.7 1757.29 2803.62C1755.39 2772.54 1753.24 2744.09 1751.59 2723.62C1750.73 2713.57 1750.12 2705.23 1749.62 2699.41C1749.62 2696.71 1749.26 2694.5 1749.13 2692.79C1748.96 2692.04 1748.84 2691.28 1748.77 2690.52Z" fill="#E6F7FF"/>
<path d="M1748.71 2850.88C1745.11 2835.56 1737.92 2821.31 1727.71 2809.33C1717.51 2797.35 1704.59 2787.97 1690.04 2781.98C1682.62 2778.97 1673.06 2777.32 1667.48 2783.08C1661.9 2788.84 1663.87 2798.35 1667.48 2805.58C1674.81 2820.61 1686.42 2833.13 1700.85 2841.58C1715.28 2850.02 1731.89 2854 1748.58 2853.02" fill="#007AFF"/>
<path d="M1695.07 2805.95C1696.7 2806.36 1698.28 2806.93 1699.79 2807.66C1701.26 2808.28 1703.1 2809.01 1705.12 2810.05C1707.14 2811.1 1709.53 2812.2 1711.99 2813.79C1714.7 2815.35 1717.32 2817.07 1719.83 2818.94C1722.77 2821.03 1725.6 2823.29 1728.29 2825.68C1734.47 2831.17 1740 2837.34 1744.78 2844.07C1749.48 2850.93 1753.34 2858.32 1756.31 2866.08C1757.56 2869.45 1758.62 2872.89 1759.49 2876.38C1760.28 2879.43 1760.92 2882.52 1761.39 2885.64C1761.83 2888.19 1762.12 2890.77 1762.25 2893.36C1762.41 2895.4 1762.41 2897.45 1762.25 2899.49C1762.41 2901.14 1762.41 2902.8 1762.25 2904.46C1761.82 2904.46 1762.25 2897.34 1760.11 2886.07C1759.58 2883.01 1758.88 2879.98 1758.02 2876.99C1757.08 2873.56 1755.96 2870.19 1754.65 2866.88C1751.66 2859.28 1747.84 2852.05 1743.25 2845.3C1738.55 2838.63 1733.17 2832.46 1727.19 2826.91C1724.56 2824.49 1721.79 2822.22 1718.91 2820.11C1716.34 2818.02 1713.64 2816.43 1711.25 2814.83C1701.56 2808.89 1694.94 2806.31 1695.07 2805.95Z" fill="#E6F7FF"/>
<path d="M674.729 2579.5L502.292 2720.92L677.181 2936.27C696.736 2918.31 647.573 2773.33 647.573 2773.33L761.775 2687.51L674.729 2579.5Z" fill="#455A64"/>
<g opacity="0.6">
<path d="M602.825 2699.22C600.518 2697.67 597.719 2697.01 594.961 2697.38C592.202 2697.76 589.678 2699.13 587.867 2701.25C586.217 2703.5 585.494 2706.3 585.848 2709.07C586.201 2711.84 587.604 2714.37 589.768 2716.14C592.245 2717.73 595.213 2718.38 598.128 2717.96C601.044 2717.55 603.712 2716.1 605.644 2713.87C607.113 2711.34 607.544 2708.33 606.847 2705.49C606.15 2702.64 604.379 2700.18 601.905 2698.61" fill="white"/>
</g>
<g opacity="0.6">
<path d="M502.967 2720.31L520.315 2705.97L680.43 2919.53C680.43 2919.53 683.986 2932.53 676.323 2936.88L502.967 2720.31Z" fill="white"/>
</g>
<path d="M651.496 2775.97C650.454 2776.83 645.366 2771.92 638.071 2769.53C630.777 2767.14 623.85 2767.94 623.482 2766.59C623.114 2765.24 630.47 2761.93 639.604 2765.06C648.738 2768.19 652.661 2775.42 651.496 2775.97Z" fill="#263238"/>
<path d="M660.507 2806.19C659.71 2807.23 654.377 2804.17 646.837 2804.17C639.297 2804.17 633.964 2806.99 633.167 2805.95C632.371 2804.9 637.765 2799.33 646.899 2799.45C656.032 2799.57 661.488 2805.33 660.507 2806.19Z" fill="#263238"/>
<path d="M643.65 2840.95C642.608 2840.21 646.715 2834.45 654.684 2832.49C662.653 2830.53 668.905 2833.59 668.354 2834.7C667.802 2835.8 662.224 2835.31 656.094 2837.03C649.964 2838.74 644.814 2841.93 643.65 2840.95Z" fill="#263238"/>
<path d="M675.342 2753.47C674.055 2753.84 671.603 2747.83 666.331 2742.19C661.059 2736.55 655.481 2733.49 655.91 2732.2C656.339 2730.91 663.756 2732.2 669.825 2739.01C675.894 2745.81 676.629 2753.35 675.342 2753.47Z" fill="#263238"/>
<path d="M696.735 2727.85C696.306 2728.22 692.322 2724.6 688.031 2717C685.577 2712.54 683.664 2707.81 682.33 2702.9C681.547 2700 680.973 2697.05 680.613 2694.07C680.329 2692.31 680.329 2690.51 680.613 2688.74C680.836 2687.46 681.461 2686.28 682.397 2685.38C683.334 2684.47 684.534 2683.89 685.824 2683.71C686.982 2683.63 688.142 2683.83 689.208 2684.29C690.274 2684.75 691.215 2685.45 691.954 2686.35C693.075 2687.73 694.003 2689.26 694.712 2690.89C696.013 2693.65 697.06 2696.52 697.839 2699.47C699.163 2704.42 699.681 2709.55 699.371 2714.67C699.614 2719.43 698.348 2724.15 695.755 2728.16C695.08 2728.16 696.368 2722.88 695.755 2714.67C695.563 2709.91 694.759 2705.19 693.364 2700.63C692.523 2697.98 691.478 2695.4 690.238 2692.91C689.012 2690.15 687.418 2688.19 685.947 2688.43C684.475 2688.68 685.211 2688.43 684.904 2689.66C684.727 2690.94 684.727 2692.24 684.904 2693.52C685.21 2696.32 685.66 2699.1 686.253 2701.86C687.319 2706.54 688.817 2711.12 690.728 2715.53C693.043 2719.48 695.051 2723.59 696.735 2727.85Z" fill="#263238"/>
<path d="M694.161 2727.48C693.671 2727.48 695.755 2722.09 702.253 2716.14C706.101 2712.74 710.494 2710 715.249 2708.05C718.08 2706.91 721.016 2706.05 724.014 2705.48C725.91 2704.91 727.919 2704.84 729.851 2705.26C731.782 2705.69 733.572 2706.61 735.048 2707.93C735.811 2708.91 736.28 2710.09 736.399 2711.32C736.519 2712.56 736.284 2713.81 735.723 2714.92C734.898 2716.48 733.867 2717.92 732.658 2719.21C730.579 2721.61 728.139 2723.68 725.424 2725.34C720.904 2728.03 715.787 2729.57 710.528 2729.81C701.517 2730.12 696.675 2726.75 696.981 2726.38C701.392 2726.61 705.811 2726.61 710.222 2726.38C714.878 2725.78 719.351 2724.19 723.34 2721.72C725.647 2720.29 727.716 2718.52 729.47 2716.45C731.493 2714.24 732.658 2711.91 731.738 2711.24C730.764 2710.62 729.669 2710.22 728.527 2710.06C727.386 2709.9 726.223 2709.99 725.118 2710.32C722.391 2710.8 719.706 2711.5 717.088 2712.4C712.71 2714.05 708.584 2716.3 704.828 2719.08C697.778 2723.62 694.774 2727.85 694.161 2727.48Z" fill="#263238"/>
<path d="M596.633 2694.99L598.717 2917.88L876.161 2916.72C874.444 2890.23 730.635 2837.58 730.635 2837.58L735.171 2694.69L596.633 2694.99Z" fill="#455A64"/>
<g opacity="0.6">
<path d="M644.815 2825.93C642.144 2826.76 639.871 2828.54 638.434 2830.94C636.997 2833.34 636.497 2836.18 637.03 2838.93C637.767 2841.61 639.505 2843.92 641.887 2845.37C644.27 2846.81 647.116 2847.3 649.842 2846.71C652.617 2845.77 654.965 2843.87 656.46 2841.35C657.956 2838.84 658.5 2835.86 657.995 2832.98C656.946 2830.24 654.879 2828.02 652.229 2826.78C649.578 2825.53 646.548 2825.36 643.773 2826.3" fill="white"/>
</g>
<g opacity="0.6">
<path d="M598.655 2917.14V2894.59L865.494 2903.66C865.494 2903.66 877.754 2909.05 876.406 2917.76L598.655 2917.14Z" fill="white"/>
</g>
<path d="M735.171 2836.29C735.171 2837.64 728.367 2838.31 721.685 2842.42C715.003 2846.53 711.509 2852.53 710.283 2851.98C709.057 2851.43 711.019 2843.65 719.171 2838.44C727.324 2833.22 735.6 2835.06 735.171 2836.29Z" fill="#263238"/>
<path d="M764.288 2848.18C764.288 2849.53 758.771 2851.86 754.174 2857.62C749.576 2863.38 748.044 2869.39 746.94 2869.39C745.837 2869.39 744.734 2861.67 750.557 2854.62C756.381 2847.57 764.288 2846.89 764.288 2848.18Z" fill="#263238"/>
<path d="M780.962 2883C779.736 2883 777.835 2876.5 780.962 2869.09C784.088 2861.67 790.77 2858.66 791.321 2859.77C791.873 2860.87 788.011 2864.92 785.191 2871.05C782.371 2877.18 782.31 2882.82 780.962 2883Z" fill="#263238"/>
<path d="M732.597 2803.62C731.984 2804.84 725.792 2803 718.13 2803.62C710.467 2804.23 704.521 2806.62 703.786 2805.46C703.05 2804.29 708.812 2799.33 717.823 2798.9C726.835 2798.47 733.21 2802.51 732.597 2803.62Z" fill="#263238"/>
<path d="M725.792 2770.76C721.258 2772.01 716.472 2772.01 711.938 2770.76C703.946 2769.34 696.292 2766.43 689.38 2762.18C687.819 2761.31 686.395 2760.21 685.15 2758.93C684.291 2757.95 683.768 2756.71 683.658 2755.41C683.547 2754.11 683.855 2752.81 684.537 2751.7C685.226 2750.71 686.145 2749.92 687.214 2749.37C688.282 2748.83 689.468 2748.55 690.667 2748.57C692.43 2748.56 694.185 2748.81 695.877 2749.31C703.899 2751.16 711.309 2755.04 717.394 2760.58C723.83 2766.71 726.098 2771.56 725.608 2771.8C725.118 2772.05 721.869 2768.06 715.248 2763.16C711.488 2760.32 707.365 2757.99 702.988 2756.23C700.383 2755.2 697.697 2754.38 694.958 2753.78C692.016 2753.04 689.564 2753.04 688.828 2754.33C688.092 2755.62 688.828 2755.01 689.196 2755.86C690.084 2756.82 691.118 2757.63 692.261 2758.26C694.64 2759.77 697.095 2761.16 699.617 2762.42C703.942 2764.54 708.458 2766.24 713.103 2767.51C717.399 2768.32 721.638 2769.4 725.792 2770.76Z" fill="#263238"/>
<path d="M724.076 2772.66C723.585 2772.66 720.888 2768.06 720.336 2759.24C720.078 2754.1 720.699 2748.96 722.175 2744.03C723.06 2741.11 724.23 2738.27 725.67 2735.57C726.407 2733.74 727.608 2732.12 729.154 2730.89C730.701 2729.65 732.542 2728.84 734.497 2728.52C735.787 2728.49 737.058 2728.83 738.15 2729.52C739.242 2730.21 740.104 2731.21 740.627 2732.39C741.33 2734.01 741.824 2735.72 742.098 2737.47C742.702 2741.64 742.471 2745.88 741.418 2749.95C740.366 2754.03 738.513 2757.85 735.968 2761.2C730.574 2768.43 724.934 2770.09 724.811 2769.6C724.689 2769.1 729.041 2766.29 733.148 2759.36C735.558 2755.39 737.046 2750.92 737.5 2746.3C737.897 2743.64 737.897 2740.93 737.5 2738.27C737.01 2735.33 735.907 2732.94 734.803 2733.24C733.7 2733.55 731.064 2735.45 729.961 2737.84C728.604 2740.25 727.455 2742.78 726.528 2745.38C725.001 2749.85 724.113 2754.52 723.892 2759.24C723.34 2767.39 724.811 2772.48 724.076 2772.66Z" fill="#263238"/>
<path d="M620.417 1403.22C620.417 1403.22 581.492 1444.84 562.428 1484.75C543.363 1524.65 531.103 1619.61 531.103 1619.61C531.103 1619.61 477.405 1739.2 485.557 1800.38C493.71 1861.56 548.39 2280.36 548.39 2280.36C548.39 2280.36 545.693 2687.15 584.434 2759.66L593.078 2798.84L749.515 2770.76L748.534 2747.28L785.314 1949.65L879.471 1406.59L620.417 1403.22Z" fill="#263238"/>
<path d="M965.598 1521.83C965.598 1521.83 1059.08 2036.75 1067.36 2126.07C1075.63 2215.38 757.239 2686.66 757.239 2686.66L611.713 2535.06L820.623 2146.73L752.703 1755.33L847.166 1409.53L946.35 1413.03L965.598 1521.83Z" fill="#263238"/>
<path d="M560.159 2632.96C560.318 2636.78 560.686 2640.58 561.263 2644.36C562.243 2651.84 564.082 2662.75 566.657 2676.97C571.868 2705.29 580.327 2746.36 591.667 2797.67V2798.77H592.771L749.27 2771.31H750.434V2770.09C754.787 2662.75 759.997 2534.45 765.576 2396.83C771.338 2248.79 776.671 2111.48 781.084 1998.87C792.793 1908.39 802.478 1833.36 809.282 1781.19C812.531 1755.2 815.106 1734.79 816.884 1720.69C817.68 1713.83 818.355 1708.43 818.784 1704.81C819.213 1701.2 819.274 1699.36 819.274 1699.36C819.274 1699.36 818.906 1701.14 818.355 1704.75C817.803 1708.37 817.006 1713.76 816.025 1720.57C814.064 1734.61 811.244 1755.02 807.627 1780.95C800.762 1832.87 790.77 1907.84 778.51 1998.38C773.974 2110.99 768.395 2248.3 762.388 2396.34C756.994 2533.96 751.967 2662.26 747.798 2769.6L749.025 2768.19L592.71 2796.32L593.997 2797.18C582.35 2745.93 573.584 2704.92 568.006 2676.73C565.247 2662.57 563.224 2651.65 561.876 2644.24C561.201 2640.56 560.833 2637.74 560.588 2635.84C560.495 2634.87 560.352 2633.91 560.159 2632.96Z" fill="#455A64"/>
<path d="M378.527 1190.14C378.527 1190.14 475.381 981.352 498.246 970.257C521.111 959.161 586.825 955.422 595.713 967.927L422.112 1217.91L378.527 1190.14Z" fill="#455A64"/>
<path d="M383.554 1161.94C379.276 1159.57 374.26 1158.92 369.516 1160.1C339.418 1167.58 229.446 1196.88 217.186 1228.33C202.964 1264.56 289.949 1735.34 301.167 1748.09C312.385 1760.84 485.373 1739.45 490.706 1719.34C496.04 1699.24 434.433 1191.79 434.433 1191.79L383.554 1161.94Z" fill="#455A64"/>
<path d="M247.039 1482.6C247.039 1482.6 237.231 1483.21 227.484 1504.85C217.737 1526.49 234.901 1702.18 247.836 1720.14C260.77 1738.1 298.531 1741.9 298.531 1741.9L247.039 1482.6Z" fill="#455A64"/>
<path d="M439.827 1728.97C439.478 1728.63 439.188 1728.24 438.969 1727.8L436.64 1724.19C434.617 1721 431.92 1716.15 428.732 1709.72C419.961 1691.48 413.318 1672.29 408.932 1652.53C402.565 1623.26 397.979 1593.64 395.201 1563.82C391.645 1530.23 387.722 1493.33 383.554 1454.59C375.217 1377.1 368.29 1306.85 367.125 1255.67C366.512 1230.11 367.125 1209.45 367.8 1195.17C368.168 1188.06 368.597 1182.48 368.964 1178.74C368.964 1177.02 369.271 1175.67 369.394 1174.51C369.329 1174.02 369.329 1173.53 369.394 1173.04C369.462 1173.52 369.462 1174.02 369.394 1174.51C369.394 1175.67 369.394 1177.08 369.394 1178.8C369.394 1182.78 369.394 1188.3 368.842 1195.23C368.474 1209.45 368.29 1230.11 369.21 1255.61C370.926 1306.61 378.221 1376.8 386.558 1454.28C390.603 1492.96 394.465 1529.86 397.959 1563.46C400.574 1593.21 404.913 1622.79 410.955 1652.04C415.115 1671.72 421.383 1690.89 429.651 1709.23C432.655 1715.66 435.168 1720.57 437.007 1723.88L439.03 1727.62C439.643 1728.66 439.889 1728.66 439.827 1728.97Z" fill="#263238"/>
<path d="M384.657 1449.75C377.887 1451.4 371.032 1452.69 364.122 1453.61C351.494 1455.75 334.023 1459.12 315.082 1463.84C296.14 1468.56 279.037 1473.71 266.839 1477.7C260.325 1480.13 253.673 1482.18 246.916 1483.83C248.43 1482.72 250.105 1481.85 251.881 1481.25C255.192 1479.78 260.034 1477.82 266.103 1475.55C297.775 1463.73 330.675 1455.51 364.183 1451.03C370.313 1450.24 375.769 1449.68 379.385 1449.5C381.145 1449.33 382.921 1449.41 384.657 1449.75Z" fill="#263238"/>
<path d="M244.771 1463.17C245.161 1464.09 245.409 1465.06 245.507 1466.05C245.936 1468.32 246.426 1471.08 247.039 1474.39L252.127 1505.04C256.479 1530.97 262.793 1566.77 270.517 1606.12C278.241 1645.48 286.455 1680.97 292.462 1706.59C295.405 1718.85 297.795 1729.27 299.634 1736.94L301.473 1745.21C301.753 1746.17 301.898 1747.16 301.903 1748.15C301.407 1747.3 301.055 1746.37 300.86 1745.4L298.408 1737.24C296.386 1730.19 293.566 1719.89 290.256 1707.14C283.696 1681.64 275.298 1646.21 267.391 1606.8C259.483 1567.38 253.537 1531.46 249.736 1505.34C247.836 1492.35 246.426 1481.74 245.629 1474.69C245.261 1471.32 244.955 1468.56 244.71 1466.23C244.612 1465.21 244.633 1464.19 244.771 1463.17Z" fill="#263238"/>
<path d="M367.8 1251.19C367.536 1246.82 367.866 1242.43 368.781 1238.14C371.886 1217.31 377.293 1196.9 384.903 1177.27C386.232 1173.09 388.108 1169.12 390.481 1165.44C391.339 1165.8 384.351 1184.44 378.221 1208.35C372.091 1232.25 368.904 1251.32 367.8 1251.19Z" fill="#263238"/>
<path d="M975.528 804.195C974.548 786.479 972.341 699.985 971.299 687.112C970.199 669.17 962.464 652.28 949.599 639.727C943.256 633.51 935.226 629.295 926.506 627.606C917.787 625.917 908.764 626.827 900.559 630.225C895.377 631.535 890.634 634.193 886.812 637.929C882.99 641.665 880.224 646.346 878.797 651.496C842.507 780.226 848.147 917.967 832.209 1051.36C879.594 1059.08 943.346 1055.95 991.221 1053.44C991.099 946.901 982.088 919.5 975.528 804.195Z" fill="#263238"/>
<path d="M955.606 986.072C955.326 984.95 955.202 983.795 955.238 982.639C955.238 980.064 954.932 976.509 954.748 972.77C954.748 963.759 954.073 951.376 953.644 936.358C952.97 905.217 952.112 862.798 951.131 816.271C950.763 792.793 950.395 770.48 950.089 750.128C950.089 739.952 950.089 730.328 949.782 721.256C949.891 713.049 949.317 704.847 948.066 696.736C947.34 690.818 945.315 685.133 942.136 680.089C938.957 675.044 934.702 670.765 929.676 667.557C925.887 665.477 921.717 664.184 917.416 663.756C917.416 663.756 917.416 663.756 918.274 663.756C919.13 663.662 919.993 663.662 920.849 663.756C924.216 664.067 927.488 665.047 930.473 666.638C935.19 669.144 939.261 672.711 942.365 677.058C946.487 682.83 949.273 689.447 950.518 696.429C951.959 704.75 952.677 713.179 952.664 721.624C952.664 730.696 953.031 740.381 953.276 750.496C953.644 770.848 954.073 793.406 954.564 816.639C955.177 863.349 955.728 905.646 956.158 936.725C956.158 951.805 956.158 964.126 956.158 973.138C956.158 977.183 956.158 980.432 956.158 983.068C956.057 984.083 955.873 985.088 955.606 986.072Z" fill="#455A64"/>
<path d="M912.512 937.154C912.099 934.601 911.914 932.016 911.96 929.431C911.96 924.404 911.653 917.171 911.653 908.221C911.653 890.321 912.021 865.311 912.695 838.278C913.37 811.244 914.105 786.908 914.657 768.396C914.657 759.936 915.147 752.825 915.331 747.247C915.275 744.635 915.501 742.025 916.006 739.462C916.42 742.035 916.604 744.641 916.557 747.247C916.557 752.212 916.557 759.507 916.557 768.457C916.557 786.356 916.19 811.367 915.515 838.339C914.841 865.311 914.044 889.708 913.554 908.221C913.247 916.68 913.063 923.791 912.879 929.431C913.035 932.011 912.912 934.601 912.512 937.154Z" fill="#455A64"/>
<path d="M600.372 970.256C594.242 970.256 478.631 978.471 451.781 1102.3C424.932 1226.12 417.208 1399.6 417.208 1399.6L542.567 1387.34L600.372 970.256Z" fill="#007AFF"/>
<path d="M657.136 942.855L677.487 905.278L855.258 900.436L867.518 932.434L972.279 970.256L963.513 1434.42L1041.12 1862.97C1041.12 1862.97 1040.32 1924.82 833.68 1944.44L817.313 1720.45L714.022 1717.99L716.842 1936.77C716.842 1936.77 534.536 1933.83 476.73 1892.58C476.73 1892.58 459.198 1684.16 508.974 1534.03C552.558 1402.61 569.538 1368.52 569.538 1368.52L573.094 974.67L657.136 942.855Z" fill="#007AFF"/>
<g opacity="0.3">
<path d="M602.212 975.59C566.494 1128.47 530.736 1281.42 494.937 1434.42L531.287 1472.98C549.913 1464.29 565.692 1450.5 576.793 1433.2C587.893 1415.91 593.859 1395.82 593.997 1375.27C593.997 1354.06 587.254 1333.4 586.396 1312.19C584.435 1264.37 610.916 1220.54 623.176 1174.26C640.034 1108.73 627.712 1038.36 602.212 975.59Z" fill="black"/>
</g>
<path d="M949.599 964.31C992.509 972.218 1025.55 1017.58 1035.42 1066.25C1041.12 1094.76 1057.73 1232.19 1057.73 1232.19L1066.87 1282.58C1066.87 1282.58 1074.53 1455.75 1037.81 1475.12C994.899 1497.68 970.379 1472.92 956.158 1454.77C941.936 1436.63 926.795 1318.56 926.795 1318.56L942.794 1035.97L949.599 964.31Z" fill="#007AFF"/>
<path d="M969.889 1033.82C969.877 1035.49 969.712 1037.15 969.398 1038.79C968.908 1042.26 968.234 1046.98 967.375 1052.95C965.414 1065.21 962.717 1083.17 959.345 1104.87C955.974 1126.57 951.621 1152.99 947.085 1181.93C944.694 1196.39 942.242 1211.59 939.668 1227.35C937.093 1243.1 933.906 1259.35 932.557 1276.39C931.73 1286.02 931.73 1295.7 932.557 1305.32C945.859 1364.84 958.303 1417.38 967.682 1455.02C972.402 1473.41 976.203 1488.61 978.961 1499.34C980.248 1504.3 981.29 1508.23 982.087 1511.23C982.563 1512.6 982.872 1514.02 983.007 1515.46C982.376 1514.17 981.883 1512.81 981.536 1511.41L977.858 1499.64C974.793 1489.34 970.502 1474.33 965.598 1455.57C955.667 1418.05 942.855 1365.52 929.492 1306.06C928.665 1296.27 928.665 1286.42 929.492 1276.63C930.841 1259.59 934.028 1243.29 936.664 1227.59C939.3 1211.9 941.874 1196.94 944.265 1182.17C949.169 1153.3 953.583 1127 957.261 1105.24C960.939 1083.48 964.126 1066.01 966.333 1053.44C967.437 1047.62 968.295 1042.9 968.969 1039.4C969.068 1037.52 969.377 1035.64 969.889 1033.82Z" fill="#263238"/>
<path d="M514.92 999.19L547.409 1434.42C547.409 1434.42 608.219 1157.16 610.671 1086.24C612.533 1045.56 608.402 1004.83 598.411 965.353C598.411 965.353 539.44 955.851 514.92 999.19Z" fill="#455A64"/>
<path d="M496.162 971.605C500.177 972.847 503.877 974.937 507.012 977.735C510.672 980.662 513.416 984.576 514.92 989.014C516.648 994.259 517.739 999.692 518.169 1005.2C519.211 1016.72 519.15 1027.14 519.15 1034.68C519.413 1038.78 519.249 1042.88 518.659 1046.94C517.443 1042.97 516.843 1038.84 516.882 1034.68C516.269 1027.2 516.024 1016.78 514.981 1005.44C513.939 994.102 511.365 983.926 505.848 979.206C500.331 974.486 495.856 972.095 496.162 971.605Z" fill="#263238"/>
<path d="M721.623 987.359C721.623 987.359 720.214 986.194 717.945 983.559C715.677 980.923 712.49 977.429 708.505 972.218H710.344C705.931 985.03 699.188 1003.6 691.525 1024.45L690.422 1027.39L688.767 1024.87C687.847 1023.46 686.744 1022.05 685.886 1020.58C680.745 1011.36 676.496 1001.68 673.196 991.65C669.948 982.516 667.067 974.302 664.982 967.13C662.898 959.958 660.814 954.87 659.404 950.886C658.559 948.908 657.902 946.856 657.442 944.756C658.772 946.439 659.827 948.321 660.569 950.334C662.346 954.012 664.553 959.529 667.128 966.333C669.702 973.138 672.706 981.474 675.955 990.302C679.367 1000.08 683.591 1009.55 688.583 1018.62C689.441 1020.03 690.422 1021.32 691.28 1022.61L688.521 1023.04C696.307 1002.26 703.356 983.804 708.383 971.176L709.057 969.398L710.222 970.931C714.395 976.139 718.205 981.628 721.623 987.359Z" fill="#263238"/>
<path d="M862.613 957.445C862.143 959.468 861.422 961.424 860.468 963.268C858.874 966.946 856.422 972.157 853.357 978.593C850.292 985.03 846.492 992.631 842.017 1001.03C837.32 1010.24 831.952 1019.09 825.956 1027.51L823.933 1030.27L823.136 1026.9L822.83 1025.49C817.803 1004.09 813.451 984.662 810.57 970.318L812.531 970.808C808.26 974.889 803.553 978.486 798.494 981.536C795.183 983.926 793.651 985.643 793.467 985.459C793.283 985.275 794.509 983.375 797.697 980.555C802.377 977.169 806.765 973.396 810.815 969.276L812.225 967.621L812.838 969.766C816.393 983.804 821.113 1003.17 826.14 1024.57V1025.98L823.32 1025.37C829.196 1017.07 834.54 1008.41 839.319 999.435L851.212 977.429L859.242 962.533C860.149 960.703 861.282 958.994 862.613 957.445Z" fill="#263238"/>
<path d="M724.689 985.643C724.689 985.643 707.464 1209.39 702.989 1238.2C698.514 1267.01 713.839 1717.99 713.839 1717.99L814.616 1724.49C814.616 1724.49 815.658 1352.09 814.616 1349.52C813.574 1346.94 815.106 1086.6 815.106 1086.6L792.242 982.884L753.255 1029.04L724.689 985.643Z" fill="white"/>
<path d="M837.174 1198.35C837.174 1198.84 833.618 1199.64 831.84 1204.48C831.323 1205.78 831.094 1207.18 831.168 1208.58C831.242 1209.97 831.618 1211.34 832.27 1212.58C833.205 1213.94 834.532 1214.98 836.076 1215.58C837.62 1216.17 839.306 1216.28 840.913 1215.89C842.551 1215.7 844.091 1215.01 845.32 1213.91C846.55 1212.81 847.409 1211.36 847.778 1209.76C847.956 1208.37 847.828 1206.96 847.405 1205.62C846.982 1204.29 846.272 1203.06 845.326 1202.03C843.376 1200.07 840.875 1198.74 838.154 1198.23C838.154 1198.23 838.951 1197.62 840.606 1197.62C842.915 1197.86 845.074 1198.88 846.736 1200.5C848.075 1201.72 849.11 1203.24 849.759 1204.93C850.408 1206.62 850.654 1208.44 850.476 1210.25C849.979 1212.46 848.841 1214.48 847.204 1216.06C845.567 1217.63 843.504 1218.69 841.27 1219.11C839.036 1219.52 836.73 1219.26 834.639 1218.37C832.549 1217.49 830.765 1216 829.511 1214.11C828.687 1212.48 828.258 1210.69 828.258 1208.87C828.258 1207.05 828.687 1205.25 829.511 1203.63C830.517 1201.46 832.254 1199.73 834.415 1198.72C836.193 1198.05 837.112 1198.17 837.174 1198.35Z" fill="#263238"/>
<path d="M837.174 1393.66C837.174 1394.15 833.619 1395 831.841 1399.79C831.324 1401.09 831.095 1402.48 831.169 1403.88C831.243 1405.28 831.618 1406.64 832.27 1407.88C833.259 1409.18 834.592 1410.18 836.118 1410.77C837.644 1411.36 839.304 1411.52 840.913 1411.22C842.521 1410.92 844.015 1410.18 845.228 1409.08C846.44 1407.98 847.324 1406.57 847.779 1405C847.961 1403.61 847.835 1402.2 847.411 1400.86C846.988 1399.53 846.276 1398.3 845.327 1397.27C841.894 1393.41 838.093 1393.96 838.155 1393.41C838.216 1392.86 838.952 1392.8 840.607 1392.86C842.911 1393.07 845.074 1394.07 846.737 1395.68C848.064 1396.91 849.091 1398.43 849.74 1400.12C850.388 1401.81 850.64 1403.62 850.476 1405.43C849.979 1407.64 848.841 1409.66 847.205 1411.24C845.568 1412.81 843.504 1413.87 841.27 1414.28C839.036 1414.7 836.73 1414.44 834.64 1413.55C832.549 1412.66 830.766 1411.18 829.512 1409.29C828.688 1407.67 828.259 1405.89 828.259 1404.08C828.259 1402.27 828.688 1400.48 829.512 1398.87C830.517 1396.7 832.254 1394.97 834.415 1393.96C836.193 1393.35 837.113 1393.53 837.174 1393.66Z" fill="#263238"/>
<path d="M845.94 1629.91C845.94 1630.4 842.384 1631.25 840.607 1636.04C840.09 1637.34 839.86 1638.73 839.934 1640.13C840.009 1641.53 840.384 1642.89 841.036 1644.13C842.025 1645.43 843.357 1646.43 844.884 1647.02C846.41 1647.61 848.07 1647.77 849.679 1647.47C851.287 1647.17 852.781 1646.43 853.994 1645.33C855.206 1644.23 856.089 1642.82 856.545 1641.25C856.726 1639.86 856.601 1638.45 856.177 1637.11C855.754 1635.78 855.042 1634.55 854.093 1633.52C850.66 1629.66 846.859 1630.21 846.921 1629.66C846.982 1629.11 847.718 1629.05 849.373 1629.11C851.682 1629.3 853.851 1630.3 855.503 1631.93C856.852 1633.14 857.899 1634.66 858.559 1636.35C859.219 1638.04 859.474 1639.87 859.303 1641.68C858.817 1643.91 857.682 1645.95 856.04 1647.54C854.398 1649.12 852.323 1650.19 850.076 1650.61C847.829 1651.02 845.51 1650.76 843.41 1649.86C841.311 1648.95 839.525 1647.45 838.277 1645.54C837.468 1643.92 837.047 1642.14 837.047 1640.33C837.047 1638.52 837.468 1636.73 838.277 1635.12C839.283 1632.95 841.02 1631.22 843.181 1630.21C845.143 1629.6 845.94 1629.78 845.94 1629.91Z" fill="#263238"/>
<g opacity="0.3">
<path d="M976.754 1196.58C974.547 1178.74 969.827 1161.27 968.662 1143.31C967.191 1121.85 970.93 1100.4 966.701 1079C952.111 1103.52 948.801 1132.76 948.74 1161.14C948.679 1189.53 951.314 1218.03 947.269 1246.11C944.51 1265.35 938.257 1288.46 935.928 1307.77C933.599 1327.08 939.116 1337.69 944.755 1366.68C964.187 1311.82 983.865 1254.38 976.754 1196.58Z" fill="black"/>
</g>
<path d="M942.732 1150.97C954.308 1184.06 958.058 1219.37 953.686 1254.15C949.315 1288.93 936.942 1322.23 917.538 1351.42" fill="#007AFF"/>
<path d="M917.539 1351.42C916.987 1351.05 923.669 1341.37 931.76 1324.33C936.425 1314.39 940.399 1304.15 943.653 1293.68C947.505 1280.74 950.333 1267.52 952.112 1254.14C953.68 1240.73 954.213 1227.23 953.706 1213.74C953.179 1202.73 951.889 1191.77 949.844 1180.94C946.227 1162.55 942.12 1151.4 942.733 1151.15C944.066 1153.59 945.135 1156.15 945.921 1158.82C946.84 1161.33 947.882 1164.39 948.863 1168.01C949.844 1171.63 951.192 1175.8 952.051 1180.27C954.437 1191.19 955.974 1202.28 956.648 1213.43C958.274 1240.8 954.824 1268.24 946.472 1294.35C943.02 1304.87 938.778 1315.12 933.783 1325C931.76 1329.35 929.492 1333.03 927.653 1336.28C926.059 1339.1 924.32 1341.85 922.443 1344.49C921.058 1346.97 919.414 1349.29 917.539 1351.42Z" fill="#263238"/>
<path d="M638.255 1446.68C633.951 1444.02 629.998 1440.82 626.486 1437.18C608.573 1420.57 592.855 1401.74 579.714 1381.15C576.716 1377.03 574.264 1372.54 572.419 1367.79C575.813 1371.6 578.869 1375.7 581.553 1380.05C587.008 1387.59 594.671 1397.89 603.743 1408.8C612.816 1419.71 621.582 1429.03 628.263 1435.77C631.893 1439.12 635.236 1442.77 638.255 1446.68Z" fill="#263238"/>
<path d="M597.92 1453.12C595.328 1449.59 593.263 1445.71 591.79 1441.59C583.161 1422.29 576.983 1401.99 573.4 1381.15C572.348 1376.88 571.915 1372.48 572.113 1368.09C573.033 1368.09 576.588 1387.53 583.76 1411C590.932 1434.48 598.779 1452.81 597.92 1453.12Z" fill="#263238"/>
<path d="M795.061 1336.34C795.061 1336.77 791.322 1334.38 785.253 1331.99C777.332 1328.9 768.821 1327.61 760.339 1328.21C751.857 1328.81 743.616 1331.3 736.213 1335.48C730.573 1338.73 727.57 1341.61 727.141 1341.12C729.123 1338 731.837 1335.41 735.048 1333.58C742.5 1328.61 751.122 1325.67 760.059 1325.06C768.984 1324.38 777.931 1326.07 785.989 1329.97C789.489 1331.32 792.604 1333.5 795.061 1336.34Z" fill="#263238"/>
<path d="M454.723 1321.81C454.723 1321.81 409.668 1370.85 413.101 1405.06C416.534 1439.26 432.472 1514.54 474.401 1512.27C516.33 1510 554.765 1442.14 560.221 1388.32C565.676 1334.5 560.221 1207.86 560.221 1207.86L500.085 1221.4L454.723 1321.81Z" fill="#FFBE9D"/>
<path d="M365.225 1007.96C396.366 1047.74 473.542 1143.67 473.542 1143.67L546.183 1125.28C548.777 1124.64 551.115 1123.22 552.887 1121.21C554.66 1119.21 555.785 1116.72 556.113 1114.07C556.327 1112.33 556.194 1110.57 555.72 1108.88C555.247 1107.2 554.443 1105.63 553.355 1104.26L451.536 975.528C447.736 970.698 442.498 967.204 436.579 965.551C430.661 963.897 424.37 964.171 418.618 966.333L372.091 983.804C369.808 984.666 367.758 986.051 366.107 987.848C364.455 989.645 363.247 991.804 362.58 994.152C361.913 996.5 361.804 998.971 362.264 1001.37C362.723 1003.76 363.737 1006.02 365.225 1007.96Z" fill="#263238"/>
<path d="M548.389 1108.98C545.886 1106.94 543.549 1104.71 541.401 1102.3C537.049 1097.76 530.858 1091.2 523.44 1082.93C508.606 1066.31 488.744 1042.71 468.27 1015.5C463.182 1008.69 458.278 1002.01 453.62 995.451C449.768 989.031 444.583 983.513 438.417 979.268C435.422 977.875 432.158 977.153 428.854 977.153C425.551 977.153 422.287 977.875 419.292 979.268L402.128 985.398L377.056 993.673C374.039 994.84 370.919 995.723 367.738 996.309C370.602 994.821 373.573 993.551 376.627 992.508L401.147 983.252L418.249 977.122C421.53 975.897 424.947 975.074 428.425 974.67C432.311 974.349 436.206 975.158 439.643 977C446.278 981.366 451.867 987.143 456.01 993.918L470.661 1013.9C491.013 1041.06 510.506 1064.78 524.911 1081.7C531.838 1089.85 537.662 1096.6 542.075 1101.75C544.37 1103.98 546.481 1106.4 548.389 1108.98Z" fill="#455A64"/>
<path d="M406.48 994.592C407.57 994.056 408.795 993.856 409.999 994.017C411.204 994.178 412.333 994.693 413.244 995.497C414.154 996.301 414.806 997.358 415.115 998.533C415.424 999.708 415.377 1000.95 414.98 1002.1C414.583 1003.24 413.853 1004.25 412.884 1004.98C411.915 1005.71 410.751 1006.14 409.538 1006.21C408.325 1006.28 407.118 1005.99 406.072 1005.37C405.025 1004.76 404.186 1003.84 403.66 1002.75C402.961 1001.29 402.865 999.616 403.393 998.089C403.921 996.562 405.031 995.306 406.48 994.592Z" fill="white"/>
<path d="M468.761 1081.58L435.168 1087.16L422.908 1098.19C421.175 1099.69 419.842 1101.59 419.028 1103.73C418.215 1105.87 417.947 1108.18 418.25 1110.45C419.204 1116.49 421.838 1122.14 425.851 1126.76C430.178 1132.13 435.069 1137.02 440.44 1141.34C440.44 1141.34 428.671 1160.47 446.938 1170.16C446.938 1170.16 445.712 1189.96 464.899 1191.98C464.899 1191.98 470.477 1210.8 484.944 1211.84L499.84 1226.61L495.304 1235.62L561.937 1237.71C562.274 1219.93 561.394 1202.16 559.301 1184.5C558.169 1177.31 556.426 1170.24 554.09 1163.35C557.462 1144.59 543.424 1136.75 541.279 1138.1C541.279 1138.1 573.093 1129.76 569.047 1107.87L538.397 1115.72L482.431 1127.37L518.352 1103.4C520.133 1101.77 521.698 1099.91 523.011 1097.88C526.076 1093.04 530.612 1084.27 526.75 1079.13C525.095 1076.98 480.959 1095.43 480.959 1095.43L453.62 1120.63L445.038 1108.37C445.038 1108.37 473.174 1102.6 468.761 1081.58Z" fill="#FFBE9D"/>
<path d="M545.57 1138.34C545.57 1139.32 533.739 1140.98 519.578 1145.15C505.418 1149.31 494.384 1154.16 493.955 1153.3C501.311 1147.98 509.643 1144.17 518.475 1142.08C527.165 1139.03 536.379 1137.76 545.57 1138.34Z" fill="#EB996E"/>
<path d="M530.183 1196.02C534.19 1192.38 537.9 1188.42 541.279 1184.19L542.443 1182.66L543.24 1184.44C544.342 1186.78 546.291 1188.62 548.696 1189.59C549.959 1190.22 551.367 1190.51 552.777 1190.42C554.187 1190.33 555.549 1189.88 556.726 1189.1C557.235 1188.7 557.613 1188.16 557.81 1187.55C558.007 1186.94 558.014 1186.28 557.83 1185.66L556.91 1180.15C556.45 1176.31 555.692 1172.52 554.642 1168.81C554.139 1167.23 553.139 1165.86 551.791 1164.9C550.442 1163.93 548.819 1163.44 547.164 1163.47C543.699 1163.62 540.273 1164.26 536.988 1165.37L519.027 1169.79C513.561 1171.39 507.959 1172.47 502.292 1173.04C507.516 1170.75 512.931 1168.92 518.475 1167.58L536.13 1162.55C539.708 1161.23 543.474 1160.49 547.286 1160.35C549.467 1160.39 551.591 1161.05 553.416 1162.25C555.269 1163.63 556.676 1165.53 557.462 1167.7C558.57 1171.62 559.37 1175.62 559.853 1179.66C559.853 1181.56 560.404 1183.46 560.711 1185.3C560.936 1186.44 560.831 1187.62 560.408 1188.71C559.984 1189.8 559.26 1190.74 558.32 1191.43C556.721 1192.49 554.866 1193.11 552.948 1193.22C551.03 1193.32 549.117 1192.92 547.409 1192.04C544.605 1190.62 542.422 1188.22 541.279 1185.3H543.179C540.614 1188.51 537.6 1191.34 534.229 1193.69C531.716 1195.35 530.306 1196.21 530.183 1196.02Z" fill="#EB996E"/>
<path d="M471.274 1103.4C466.839 1110.32 461.836 1116.86 456.317 1122.95C451.662 1129.73 446.432 1136.08 440.686 1141.96C443.8 1134.34 448.172 1127.29 453.62 1121.12C458.412 1114.21 464.389 1108.22 471.274 1103.4Z" fill="#EB996E"/>
<path d="M485.128 1126.51C485.128 1127.43 478.14 1129.64 472.868 1136.81C470.112 1141.36 468.046 1146.3 466.738 1151.46C466.309 1151.46 465.696 1149.62 465.819 1146.43C466.196 1142.28 467.688 1138.3 470.137 1134.93C472.587 1131.55 475.902 1128.89 479.734 1127.25C483.044 1126.14 485.006 1126.14 485.128 1126.51Z" fill="#EB996E"/>
<path d="M844.714 632.677C839.565 619.191 841.588 604.173 839.565 589.767C835.151 558.32 809.834 533.065 780.533 520.743C753.254 509.342 719.968 511.794 687.112 522.337C664.289 529.23 643.899 542.476 628.325 560.527C618.4 572.77 611.551 587.211 608.352 602.643C605.153 618.075 605.695 634.049 609.935 649.228L770.909 625.996C785.927 638.256 801.559 651.19 819.642 658.178C824.911 660.525 830.7 661.455 836.439 660.875C839.245 660.49 841.886 659.318 844.055 657.496C846.225 655.674 847.834 653.275 848.699 650.577C850.538 644.508 846.982 638.562 844.714 632.677Z" fill="#263238"/>
<path d="M744.673 512.713C779.92 506.583 810.877 520.376 840.546 540.298C870.174 560.771 892.827 589.82 905.463 623.544C919.01 658.669 922.443 709.364 911.593 745.592C906.915 762.602 898.195 778.229 886.177 791.144C874.159 804.058 859.199 813.877 842.569 819.765C794.142 836.929 738.359 834.783 697.165 803.766C655.972 772.748 632.8 721.44 630.9 670.07C629.093 634.414 638.55 599.092 657.933 569.109C667.7 554.282 680.414 541.624 695.284 531.922C710.154 522.22 726.861 515.681 744.366 512.713" fill="#263238"/>
<path d="M688.705 896.022L689.993 924.71L753.254 1036.58L845.204 918.887L848.33 624.647C848.206 618.072 845.617 611.783 841.076 607.026C836.535 602.269 830.373 599.391 823.81 598.962L683.372 568.987C638.623 565.983 611.038 621.95 609.812 667.067C608.586 716.903 608.954 777.774 615.942 814.616C630.593 888.727 688.092 896.083 688.092 896.083" fill="#FFBE9D"/>
<path d="M630.286 728.796C630.334 731.294 631.365 733.673 633.155 735.417C634.945 737.161 637.35 738.13 639.849 738.113C641.072 738.162 642.292 737.967 643.438 737.538C644.585 737.11 645.634 736.457 646.524 735.618C647.415 734.778 648.129 733.77 648.625 732.651C649.121 731.532 649.388 730.326 649.412 729.102C649.317 726.625 648.27 724.279 646.488 722.555C644.707 720.83 642.328 719.86 639.849 719.846C638.629 719.788 637.41 719.976 636.264 720.397C635.118 720.819 634.069 721.466 633.177 722.301C632.285 723.135 631.57 724.14 631.074 725.255C630.577 726.371 630.309 727.575 630.286 728.796Z" fill="#263238"/>
<path d="M624.524 695.755C625.75 696.981 632.8 691.342 642.914 690.974C653.029 690.606 660.937 695.449 661.979 694.161C663.021 692.874 661.243 691.403 657.81 689.135C653.262 686.187 647.899 684.749 642.485 685.028C637.139 685.199 631.987 687.067 627.773 690.361C624.892 692.69 623.911 695.203 624.524 695.755Z" fill="#263238"/>
<path d="M723.646 727.018C723.711 729.522 724.755 731.901 726.554 733.644C728.354 735.386 730.766 736.353 733.271 736.336C734.485 736.385 735.698 736.191 736.836 735.766C737.975 735.34 739.018 734.692 739.903 733.858C740.788 733.025 741.497 732.023 741.99 730.911C742.483 729.8 742.749 728.601 742.772 727.386C742.724 724.887 741.693 722.508 739.903 720.764C738.113 719.02 735.708 718.052 733.209 718.068C731.99 718.011 730.771 718.198 729.625 718.62C728.479 719.042 727.429 719.689 726.537 720.523C725.646 721.357 724.931 722.362 724.434 723.478C723.937 724.593 723.67 725.797 723.646 727.018Z" fill="#263238"/>
<path d="M722.237 693.364C723.463 694.59 730.512 688.951 740.627 688.583C750.741 688.215 759.017 693.119 759.752 691.77C760.488 690.422 759.017 689.012 755.584 686.744C751.035 683.796 745.672 682.358 740.259 682.637C734.913 682.808 729.761 684.676 725.547 687.97C722.605 690.544 721.624 692.69 722.237 693.364Z" fill="#263238"/>
<path d="M691.219 771.583C685.741 770.091 680.099 769.287 674.422 769.192C671.786 769.192 669.273 768.579 668.783 766.802C668.442 764.097 668.956 761.353 670.254 758.955L677.242 738.665C686.989 709.793 693.916 686.07 692.751 685.702C691.586 685.334 682.759 708.383 673.013 737.316L666.331 757.729C664.816 760.965 664.469 764.626 665.35 768.089C665.779 768.994 666.403 769.792 667.177 770.428C667.95 771.064 668.854 771.521 669.825 771.767C671.292 772.103 672.796 772.247 674.3 772.196C679.942 772.74 685.631 772.534 691.219 771.583Z" fill="#263238"/>
<path d="M688.705 896.022C723.913 893.66 757.941 882.374 787.582 863.227C787.582 863.227 764.411 915.761 689.502 911.592L688.705 896.022Z" fill="#EB996E"/>
<path d="M699.126 793.712C700.994 791.66 703.349 790.112 705.975 789.211C708.6 788.311 711.41 788.088 714.145 788.563C716.104 788.747 717.99 789.401 719.644 790.468C721.298 791.534 722.671 792.984 723.646 794.693C725.061 796.763 725.893 799.176 726.055 801.678C726.216 804.18 725.702 806.68 724.566 808.915C722.999 810.847 720.882 812.258 718.495 812.958C716.108 813.659 713.565 813.617 711.202 812.838C706.749 811.822 702.567 809.856 698.942 807.076C697.773 805.946 696.963 804.496 696.613 802.907C696.368 801.271 696.494 799.6 696.982 798.019C697.47 796.438 698.308 794.987 699.433 793.774" fill="#EB996E"/>
<path d="M722.849 669.273C723.953 672.032 734.19 670.315 746.266 671.358C758.342 672.4 768.334 675.281 769.805 672.706C770.479 671.48 768.702 668.906 764.656 666.576C759.311 663.378 753.279 661.508 747.063 661.12C740.791 660.599 734.485 661.587 728.673 664.002C724.504 665.657 722.359 668.17 722.849 669.273Z" fill="#263238"/>
<path d="M625.811 650.638C627.712 652.906 634.7 650.209 643.221 649.78C651.741 649.351 659.036 650.761 660.568 648.248C661.243 647.083 660.017 644.754 656.829 642.669C652.486 640.173 647.501 639.021 642.503 639.36C637.505 639.698 632.72 641.511 628.754 644.57C625.873 647.083 625.26 649.78 625.811 650.638Z" fill="#263238"/>
<path d="M870.46 611.038C855.932 568.128 792.425 509.832 747.369 513.817L676.2 558.32C678.769 570.562 684.597 581.882 693.067 591.085C701.537 600.289 712.335 607.034 724.321 610.609C737.132 614.226 752.457 615.023 760.242 625.812C768.028 636.6 763.982 653.213 771.399 664.615C781.636 680.43 808.853 679.143 816.7 696.307C820.071 703.785 818.539 712.796 822.094 720.275C826.814 730.144 852.315 742.343 862.736 738.665C873.157 734.987 872.789 717.333 876.038 708.015C880.138 697.414 880.463 685.725 876.958 674.913C872.054 654.01 877.448 631.39 870.46 611.038Z" fill="#263238"/>
<path d="M832.086 748.228C832.086 742.649 837.848 729.347 843.304 728.244C857.832 725.424 884.252 725.608 886.214 762.817C888.482 813.635 837.174 805.359 836.806 803.949C836.438 802.539 832.76 767.415 832.086 748.228Z" fill="#FFBE9D"/>
<path d="M851.212 783.966C851.212 783.966 852.131 784.579 853.602 785.192C854.661 785.632 855.797 785.858 856.943 785.858C858.09 785.858 859.225 785.632 860.284 785.192C865.556 782.985 869.663 774.28 869.54 765.147C869.5 760.778 868.451 756.477 866.475 752.58C865.946 751.01 865.036 749.595 863.828 748.462C862.619 747.328 861.149 746.511 859.548 746.082C858.517 745.841 857.434 745.974 856.491 746.456C855.548 746.939 854.807 747.74 854.399 748.718C853.786 750.189 854.399 751.17 853.909 751.231C853.418 751.293 852.744 750.435 853.112 748.35C853.305 747.061 853.958 745.885 854.951 745.04C856.31 743.934 858.049 743.405 859.794 743.569C861.9 743.878 863.889 744.73 865.566 746.042C867.242 747.353 868.549 749.078 869.356 751.048C871.71 755.36 872.992 760.174 873.096 765.085C873.096 775.322 868.376 785.13 860.836 787.582C859.49 788.039 858.059 788.188 856.648 788.018C855.237 787.848 853.882 787.364 852.683 786.602C851.334 785.192 851.028 784.088 851.212 783.966Z" fill="#EB996E"/>
<path d="M916.558 678.714C918.095 673.779 918.759 668.613 918.519 663.45C918.656 638.319 910.369 613.866 894.98 593.997C892.053 589.757 888.426 586.046 884.252 583.024C883.272 583.637 900.313 600.556 909.263 627.835C914.3 644.318 916.761 661.48 916.558 678.714Z" fill="#007AFF"/>
<path d="M691.035 542.995C686.315 563.654 654.868 590.135 641.014 606.257C614.655 636.907 609.69 641.443 609.874 734.068C596.236 705.315 589.019 673.939 588.726 642.118C589.343 615.059 599.829 589.159 618.211 569.293C627.475 559.56 638.88 552.121 651.522 547.567C664.163 543.013 677.693 541.468 691.035 543.057" fill="#263238"/>
<path d="M896.39 610.364C893.612 611.378 890.736 612.097 887.808 612.51C884.988 613.123 881.678 613.797 877.509 614.287C873.341 614.778 868.866 615.636 863.717 615.881C851.739 616.758 839.712 616.758 827.734 615.881C813.031 614.818 798.436 612.584 784.088 609.199C769.787 605.612 755.804 600.856 742.282 594.978C731.271 590.138 720.636 584.482 710.467 578.059C705.992 575.484 702.314 572.665 699.004 570.335C696.12 568.438 693.338 566.392 690.667 564.205C688.283 562.339 686.049 560.29 683.985 558.075C686.601 559.482 689.084 561.123 691.403 562.979C693.671 564.696 696.491 566.718 699.923 569.109C703.356 571.5 707.095 573.952 711.57 576.404C721.789 582.526 732.419 587.933 743.385 592.587C756.75 598.398 770.543 603.173 784.64 606.87C798.756 610.207 813.098 612.502 827.55 613.736C839.422 614.625 851.341 614.727 863.227 614.042C868.314 614.042 872.912 613.245 876.896 612.939C880.881 612.632 884.375 612.08 887.195 611.651C890.22 610.975 893.295 610.544 896.39 610.364Z" fill="#455A64"/>
<path d="M901.662 646.838C899.687 647.569 897.627 648.043 895.532 648.248C890.122 649.264 884.657 649.96 879.165 650.332C842.619 653.013 806.026 645.791 773.238 629.428C768.286 627.007 763.477 624.306 758.833 621.337C757.043 620.357 755.394 619.14 753.929 617.72C753.929 617.291 761.591 621.766 774.158 627.528C806.991 642.621 842.938 649.701 879.042 648.186C893.08 647.635 901.6 646.286 901.662 646.838Z" fill="#455A64"/>
<path d="M914.535 648.064C915.412 650.54 915.988 653.113 916.251 655.726C917.048 660.753 917.845 667.986 918.335 676.997C918.887 687.554 918.887 698.133 918.335 708.689C917.853 721.66 916.108 734.553 913.125 747.186C907.14 770.4 893.189 790.774 873.709 804.747C867.796 808.785 861.466 812.176 854.828 814.861C852.469 816.002 849.978 816.846 847.411 817.374C849.615 815.978 851.932 814.768 854.338 813.758C860.667 810.692 866.718 807.082 872.422 802.969C880.785 796.784 888.075 789.267 893.999 780.717C901.457 770.397 906.925 758.776 910.121 746.45C913.02 733.983 914.825 721.287 915.515 708.506C916.251 696.675 916.374 686.008 916.19 677.059C916.006 668.109 915.577 660.875 915.086 655.91C914.668 653.316 914.484 650.69 914.535 648.064Z" fill="#455A64"/>
<path d="M711.816 812.715C714.568 812.742 717.284 812.089 719.723 810.815C720.917 810.081 721.94 809.099 722.723 807.936C723.505 806.772 724.029 805.455 724.26 804.072C724.534 802.378 724.436 800.644 723.97 798.992C723.504 797.34 722.682 795.81 721.562 794.509C719.179 791.954 715.915 790.398 712.429 790.157C709.493 789.981 706.566 790.617 703.969 791.996C699.433 794.387 697.839 797.329 697.104 797.023C696.368 796.716 698.023 793.345 702.805 790.034C705.682 788.105 709.088 787.119 712.551 787.215C714.706 787.264 716.828 787.751 718.788 788.647C720.748 789.543 722.506 790.828 723.953 792.425C725.4 794.081 726.441 796.051 726.994 798.179C727.548 800.307 727.598 802.534 727.141 804.685C726.804 806.42 726.078 808.056 725.016 809.468C723.954 810.881 722.584 812.033 721.011 812.838C715.248 815.29 711.509 812.961 711.816 812.715Z" fill="#263238"/>
<path d="M1025.37 1231.27L1052.7 1172.98C1057.24 1154.59 1075.75 1148.46 1098.43 1146.98L1122.4 1137.18C1122.4 1137.18 1139.87 1111.98 1156.06 1112.66C1157.33 1112.7 1158.55 1113.14 1159.56 1113.9C1160.57 1114.67 1161.32 1115.74 1161.7 1116.95C1161.97 1117.77 1162.05 1118.65 1161.93 1119.51C1161.82 1120.37 1161.51 1121.19 1161.02 1121.91L1141.34 1152.19L1125.65 1159.92C1125.65 1159.92 1140.36 1163.47 1146.19 1158.02C1152.01 1152.56 1171.69 1136.99 1171.69 1136.99C1171.69 1136.99 1186.71 1109.96 1206.2 1111.98C1206.78 1112.03 1207.35 1112.23 1207.84 1112.55C1208.33 1112.88 1208.73 1113.31 1209.01 1113.83C1209.29 1114.35 1209.43 1114.92 1209.44 1115.51C1209.44 1116.1 1209.3 1116.67 1209.02 1117.19L1194.06 1146.06C1194.06 1146.06 1221.34 1105.06 1247.33 1120.38L1218.52 1151.7C1218.52 1151.7 1260.33 1127.98 1277 1147.84L1171.2 1191.55L1110.2 1203.5L1088.87 1261.37L1070.11 1250.52L1025.37 1231.27Z" fill="#FFBE9D"/>
<path d="M1088.75 1306.98C1088.75 1306.98 1092 1410.57 1072.87 1439.14C1053.75 1467.71 1018.19 1506.57 974.18 1475.43L946.656 1371.22C946.656 1371.22 991.467 1322.18 999.62 1301.95C1019.91 1251.75 1052.71 1173.22 1052.71 1173.22L1111.06 1199.21L1088.75 1306.98Z" fill="#FFBE9D"/>
<path d="M1006.24 1292.45C1004.44 1297.01 1002.22 1301.4 999.619 1305.57C995.328 1313.48 989.566 1324.51 983.865 1337.01C978.164 1349.52 973.566 1361.11 970.317 1369.56C968.9 1374.25 967.032 1378.79 964.739 1383.11C965.313 1378.23 966.487 1373.43 968.233 1368.83C971.734 1357.53 975.973 1346.47 980.922 1335.73C985.851 1324.95 991.44 1314.49 997.657 1304.4C1000.02 1300.09 1002.91 1296.07 1006.24 1292.45Z" fill="#EB996E"/>
<path d="M1141.34 1151.89C1137.15 1155.56 1132.31 1158.41 1127.06 1160.29C1122.27 1163.11 1116.99 1164.98 1111.49 1165.8C1115.67 1162.14 1120.49 1159.29 1125.71 1157.41C1130.52 1154.59 1135.83 1152.72 1141.34 1151.89Z" fill="#EB996E"/>
<path d="M1150.11 1179.29C1150.11 1178.86 1152.87 1177.02 1157.83 1174.88L1166.66 1171.26L1171.75 1169.11C1173.45 1168.47 1174.95 1167.39 1176.1 1165.99C1181.43 1159.86 1185.79 1153.73 1189.28 1149.62C1192.78 1145.51 1195.41 1142.94 1195.72 1143.49C1195.37 1144.21 1194.98 1144.9 1194.55 1145.57L1191.12 1150.97C1187.28 1156.97 1183.04 1162.7 1178.43 1168.13C1177.69 1168.98 1176.87 1169.76 1175.98 1170.46C1175.06 1171.08 1174.07 1171.59 1173.04 1171.99L1167.7 1174.02C1164.33 1175.24 1161.21 1176.16 1158.63 1177.02C1155.89 1178.12 1153.03 1178.88 1150.11 1179.29Z" fill="#EB996E"/>
</svg>
