<svg width="393" height="400" viewBox="0 0 393 400" fill="none" xmlns="http://www.w3.org/2000/svg">
<g clip-path="url(#clip0_236_35379)">
<path d="M36.8942 67.5991C-18.9078 112.744 -31.294 224.862 17.1017 278.316C27.7002 289.975 40.9803 299.276 55.6651 305.354C70.8606 311.555 82.2253 308.082 98.0592 307.958C120.789 307.71 127.556 330.034 138.283 344.917C152.457 364.389 173.143 379.768 195.745 388.822C315.265 436.323 442.065 308.454 419.335 193.732C411.163 152.308 389.838 124.278 349.998 106.419C315.776 91.0397 277.468 86.6988 239.799 83.5982C223.071 82.234 204.3 80.6216 189.871 71.3198C183.741 67.351 175.808 61.4028 169.934 57.806C163.805 54.0853 158.203 50.7318 151.307 48.0033C140.07 43.6624 128.067 41.43 115.936 41.0579C92.313 40.3138 68.4344 46.763 48.5142 59.1654C44.6834 61.77 40.725 64.6225 36.8942 67.5991Z" fill="#E6F2FF"/>
<path fill-rule="evenodd" clip-rule="evenodd" d="M386.477 204.764C384.444 203.994 381.948 203.756 378.856 204.192C378.445 204.25 378.066 203.964 378.008 203.554C377.951 203.144 378.236 202.765 378.646 202.707C381.921 202.245 384.683 202.48 387.009 203.362C387.396 203.508 387.591 203.941 387.444 204.329C387.297 204.716 386.864 204.911 386.477 204.764ZM371.629 205.276C371.772 205.665 371.574 206.096 371.185 206.239C368.925 207.072 366.457 208.147 363.763 209.481C363.392 209.665 362.942 209.513 362.758 209.142C362.574 208.771 362.726 208.321 363.097 208.137C365.83 206.783 368.347 205.687 370.666 204.832C371.055 204.689 371.486 204.888 371.629 205.276ZM392.354 208.645C392.708 208.43 393.17 208.543 393.384 208.898C394.694 211.06 395.651 213.687 396.375 216.659C396.473 217.062 396.226 217.468 395.824 217.566C395.421 217.664 395.016 217.417 394.918 217.014C394.215 214.129 393.305 211.661 392.101 209.675C391.887 209.321 392 208.86 392.354 208.645ZM356.98 212.255C357.186 212.614 357.063 213.073 356.704 213.28C355.55 213.945 354.362 214.648 353.14 215.391C352.01 216.078 350.894 216.772 349.794 217.472C349.444 217.695 348.981 217.592 348.758 217.242C348.536 216.893 348.639 216.429 348.988 216.207C350.098 215.501 351.222 214.801 352.361 214.109C353.593 213.36 354.791 212.651 355.955 211.98C356.314 211.773 356.773 211.897 356.98 212.255ZM343.461 220.773C343.697 221.113 343.614 221.58 343.274 221.817C341.107 223.327 338.998 224.865 336.942 226.427C336.612 226.678 336.142 226.614 335.891 226.284C335.64 225.954 335.705 225.484 336.034 225.233C338.107 223.658 340.232 222.109 342.417 220.586C342.756 220.35 343.224 220.433 343.461 220.773ZM396.936 224.123C397.348 224.074 397.721 224.368 397.77 224.779C398.076 227.347 398.31 230.073 398.511 232.918C398.54 233.331 398.229 233.689 397.816 233.719C397.402 233.748 397.044 233.437 397.015 233.023C396.815 230.191 396.583 227.491 396.281 224.957C396.231 224.546 396.525 224.172 396.936 224.123ZM-1.94598 230.561C-1.93896 230.147 -1.59754 229.817 -1.18339 229.824C1.55933 229.87 4.284 229.99 6.98005 230.189C7.39314 230.22 7.70322 230.58 7.67263 230.993C7.64205 231.406 7.28239 231.716 6.86931 231.685C4.20345 231.488 1.50731 231.37 -1.20877 231.324C-1.62292 231.317 -1.95299 230.975 -1.94598 230.561ZM-8.58141 230.618C-8.56783 231.032 -8.89242 231.379 -9.30641 231.392C-11.998 231.481 -14.6986 231.632 -17.3983 231.84C-17.8113 231.871 -18.1718 231.562 -18.2036 231.149C-18.2353 230.736 -17.9263 230.376 -17.5133 230.344C-14.7929 230.135 -12.0704 229.982 -9.3556 229.893C-8.9416 229.88 -8.59499 230.204 -8.58141 230.618ZM330.902 230.237C331.166 230.556 331.12 231.029 330.801 231.292C328.765 232.972 326.782 234.677 324.845 236.404C324.536 236.679 324.062 236.652 323.786 236.343C323.511 236.034 323.538 235.56 323.847 235.284C325.797 233.545 327.795 231.828 329.846 230.135C330.166 229.872 330.638 229.917 330.902 230.237ZM14.2746 231.695C14.3325 231.285 14.7118 230.999 15.122 231.057C17.8572 231.443 20.5503 231.923 23.1892 232.507C23.5936 232.597 23.8489 232.997 23.7595 233.401C23.67 233.806 23.2696 234.061 22.8652 233.972C20.2668 233.397 17.612 232.923 14.9125 232.542C14.5024 232.484 14.2168 232.105 14.2746 231.695ZM-24.8076 231.791C-24.7596 232.202 -25.0542 232.575 -25.4656 232.623C-28.1596 232.937 -30.8425 233.301 -33.5046 233.709C-33.9141 233.771 -34.2968 233.49 -34.3595 233.081C-34.4222 232.671 -34.1411 232.289 -33.7317 232.226C-31.0527 231.816 -28.352 231.449 -25.6394 231.133C-25.228 231.085 -24.8556 231.379 -24.8076 231.791ZM-40.9051 234.196C-40.8288 234.603 -41.0971 234.995 -41.5042 235.071C-44.1899 235.574 -46.8427 236.116 -49.4518 236.689C-49.8563 236.778 -50.2564 236.522 -50.3452 236.117C-50.4341 235.713 -50.1782 235.313 -49.7737 235.224C-47.1499 234.647 -44.4818 234.103 -41.7803 233.597C-41.3731 233.521 -40.9813 233.789 -40.9051 234.196ZM30.161 235.117C30.287 234.723 30.7091 234.505 31.1036 234.631C33.7409 235.473 36.3056 236.438 38.7838 237.536C39.1625 237.704 39.3336 238.147 39.1658 238.525C38.9981 238.904 38.5551 239.075 38.1764 238.907C35.7508 237.833 33.2367 236.887 30.6473 236.06C30.2527 235.934 30.035 235.512 30.161 235.117ZM-56.7933 237.636C-56.6923 238.038 -56.9361 238.446 -57.3378 238.547C-60.0249 239.222 -62.6488 239.925 -65.1964 240.647C-65.5949 240.76 -66.0095 240.529 -66.1224 240.13C-66.2354 239.732 -66.0039 239.317 -65.6053 239.204C-63.0437 238.478 -60.4053 237.771 -57.7036 237.092C-57.3018 236.991 -56.8943 237.235 -56.7933 237.636ZM398.221 240.33C398.635 240.306 398.989 240.622 399.013 241.036L399.025 241.238C399.173 243.817 399.325 246.457 399.505 249.141C399.533 249.554 399.22 249.912 398.807 249.94C398.393 249.967 398.036 249.655 398.008 249.241C397.828 246.547 397.675 243.898 397.527 241.318L397.515 241.122C397.492 240.709 397.808 240.354 398.221 240.33ZM319.108 240.669C319.394 240.968 319.384 241.443 319.085 241.729C317.185 243.549 315.329 245.389 313.51 247.248C313.221 247.544 312.746 247.549 312.45 247.259C312.154 246.97 312.149 246.495 312.438 246.199C314.267 244.329 316.135 242.478 318.047 240.646C318.347 240.36 318.821 240.37 319.108 240.669ZM45.0566 241.575C45.2704 241.22 45.7312 241.106 46.0861 241.32C48.4446 242.741 50.6957 244.313 52.8237 246.046C53.1448 246.308 53.1931 246.78 52.9315 247.101C52.6698 247.422 52.1974 247.471 51.8763 247.209C49.8058 245.522 47.613 243.991 45.312 242.605C44.9572 242.391 44.8429 241.93 45.0566 241.575ZM-72.4697 242.033C-72.3446 242.428 -72.5633 242.849 -72.9582 242.975C-75.6498 243.827 -78.2247 244.692 -80.6635 245.555C-81.0539 245.693 -81.4825 245.489 -81.6208 245.098C-81.759 244.708 -81.5545 244.279 -81.1641 244.141C-78.7092 243.272 -76.1184 242.402 -73.4112 241.545C-73.0163 241.419 -72.5948 241.638 -72.4697 242.033ZM-87.8045 247.421C-87.6508 247.805 -87.838 248.242 -88.2226 248.395C-89.5283 248.917 -90.7737 249.433 -91.954 249.939C-92.3347 250.103 -92.7757 249.927 -92.939 249.546C-93.1024 249.165 -92.9262 248.724 -92.5456 248.561C-91.353 248.049 -90.096 247.529 -88.7792 247.002C-88.3946 246.849 -87.9582 247.036 -87.8045 247.421ZM57.7358 251.658C58.0431 251.38 58.5174 251.404 58.7952 251.711C60.6117 253.72 62.2959 255.891 63.8337 258.232C64.0611 258.578 63.9648 259.043 63.6186 259.271C63.2724 259.498 62.8074 259.402 62.58 259.055C61.0847 256.779 59.4477 254.67 57.6825 252.717C57.4047 252.41 57.4286 251.936 57.7358 251.658ZM308.065 251.875C308.369 252.156 308.388 252.63 308.107 252.935C306.323 254.865 304.573 256.811 302.849 258.77C302.575 259.081 302.101 259.111 301.79 258.838C301.479 258.564 301.449 258.09 301.723 257.779C303.454 255.812 305.212 253.857 307.005 251.917C307.286 251.612 307.761 251.594 308.065 251.875ZM399.329 256.553C399.741 256.514 400.107 256.817 400.146 257.23C400.397 259.901 400.698 262.591 401.07 265.28C401.126 265.69 400.84 266.069 400.429 266.125C400.019 266.182 399.641 265.895 399.584 265.485C399.209 262.77 398.906 260.059 398.652 257.37C398.613 256.958 398.916 256.592 399.329 256.553ZM297.631 263.664C297.947 263.932 297.987 264.405 297.719 264.721C296.025 266.725 294.351 268.739 292.691 270.761C292.429 271.081 291.956 271.127 291.636 270.865C291.316 270.602 291.269 270.129 291.532 269.809C293.195 267.783 294.874 265.763 296.574 263.753C296.841 263.436 297.315 263.397 297.631 263.664ZM66.843 265.076C67.2186 264.901 67.6647 265.064 67.8393 265.44C68.9568 267.843 69.9448 270.389 70.7938 273.085C70.9182 273.48 70.6988 273.901 70.3037 274.026C69.9086 274.15 69.4875 273.931 69.3631 273.536C68.533 270.9 67.5683 268.414 66.4792 266.072C66.3045 265.697 66.4674 265.251 66.843 265.076ZM401.523 272.666C401.929 272.584 402.324 272.848 402.405 273.254C402.934 275.898 403.554 278.52 404.286 281.103C404.399 281.502 404.168 281.916 403.77 282.029C403.371 282.142 402.956 281.911 402.843 281.512C402.099 278.887 401.47 276.226 400.934 273.548C400.853 273.142 401.116 272.747 401.523 272.666ZM287.62 275.809C287.943 276.069 287.994 276.541 287.734 276.864C286.088 278.908 284.451 280.956 282.814 283.005C282.556 283.328 282.084 283.381 281.76 283.123C281.437 282.864 281.384 282.392 281.642 282.069C283.279 280.019 284.918 277.97 286.566 275.923C286.825 275.601 287.298 275.55 287.62 275.809ZM71.9211 280.441C72.3276 280.362 72.7215 280.628 72.8007 281.034C73.0615 282.373 73.2924 283.742 73.4927 285.144C73.6786 286.445 73.8759 287.733 74.0845 289.006C74.1515 289.415 73.8744 289.801 73.4656 289.868C73.0569 289.935 72.6712 289.658 72.6042 289.249C72.394 287.965 72.1951 286.668 72.0077 285.356C71.811 283.979 71.5842 282.634 71.3284 281.321C71.2491 280.915 71.5145 280.521 71.9211 280.441ZM277.785 288.1C278.108 288.359 278.16 288.831 277.901 289.155C276.261 291.202 274.616 293.248 272.96 295.288C272.699 295.61 272.227 295.659 271.905 295.398C271.584 295.137 271.534 294.664 271.796 294.343C273.449 292.306 275.092 290.263 276.73 288.217C276.989 287.894 277.461 287.841 277.785 288.1ZM405.878 288.314C406.263 288.162 406.699 288.352 406.851 288.737C407.341 289.982 407.866 291.212 408.426 292.425C408.981 293.533 409.56 294.615 410.163 295.666C410.369 296.026 410.245 296.484 409.886 296.69C409.527 296.896 409.069 296.772 408.862 296.413C408.242 295.332 407.648 294.222 407.079 293.085L407.074 293.075L407.069 293.065C406.495 291.821 405.957 290.561 405.455 289.287C405.303 288.902 405.493 288.466 405.878 288.314ZM494.295 288.735C494.58 289.035 494.566 289.51 494.266 289.795C493.337 290.673 492.415 291.529 491.5 292.361C491.194 292.64 490.719 292.618 490.44 292.312C490.162 292.005 490.184 291.531 490.49 291.252C491.398 290.426 492.313 289.577 493.235 288.705C493.536 288.42 494.01 288.434 494.295 288.735ZM485.972 296.211C486.237 296.529 486.194 297.002 485.876 297.267C483.877 298.934 481.912 300.489 479.983 301.935C479.651 302.183 479.181 302.116 478.933 301.784C478.685 301.453 478.752 300.983 479.083 300.734C480.991 299.305 482.935 297.767 484.915 296.115C485.233 295.85 485.706 295.893 485.972 296.211ZM74.6123 296.04C75.0177 295.955 75.4151 296.215 75.4997 296.62C76.0377 299.196 76.6248 301.708 77.2598 304.156C77.3638 304.557 77.1231 304.966 76.7222 305.07C76.3212 305.174 75.9119 304.934 75.8079 304.533C75.1667 302.061 74.5741 299.525 74.0314 296.927C73.9467 296.522 74.2068 296.124 74.6123 296.04ZM267.863 300.321C268.181 300.586 268.225 301.058 267.96 301.377C266.282 303.392 264.587 305.399 262.868 307.394C262.597 307.708 262.124 307.743 261.81 307.473C261.496 307.202 261.461 306.729 261.731 306.415C263.445 304.427 265.134 302.427 266.807 300.417C267.072 300.099 267.544 300.056 267.863 300.321ZM413.173 301.65C413.502 301.397 413.973 301.459 414.225 301.787C415.749 303.769 417.388 305.585 419.142 307.212C419.446 307.493 419.464 307.968 419.182 308.271C418.9 308.575 418.426 308.593 418.122 308.311C416.302 306.624 414.607 304.744 413.036 302.702C412.784 302.373 412.845 301.902 413.173 301.65ZM474.073 305.202C474.3 305.548 474.203 306.013 473.857 306.24C471.668 307.674 469.527 308.963 467.434 310.112C467.071 310.311 466.615 310.178 466.416 309.815C466.216 309.452 466.349 308.996 466.712 308.797C468.769 307.668 470.876 306.4 473.034 304.986C473.381 304.759 473.846 304.855 474.073 305.202ZM78.4534 311.096C78.8482 310.971 79.2697 311.19 79.3949 311.584C80.1887 314.09 81.0369 316.519 81.9379 318.872C82.086 319.259 81.8925 319.693 81.5057 319.841C81.1189 319.989 80.6852 319.795 80.5371 319.409C79.6252 317.027 78.7673 314.57 77.9649 312.037C77.8398 311.643 78.0585 311.221 78.4534 311.096ZM423.922 311.87C424.136 311.516 424.597 311.402 424.952 311.617C427.025 312.871 429.226 313.892 431.556 314.649C431.95 314.778 432.165 315.201 432.037 315.595C431.909 315.989 431.486 316.204 431.092 316.076C428.649 315.281 426.344 314.212 424.175 312.9C423.821 312.686 423.707 312.225 423.922 311.87ZM461.065 312.434C461.227 312.815 461.05 313.255 460.669 313.418C458.23 314.459 455.861 315.3 453.562 315.953C453.163 316.066 452.748 315.835 452.635 315.436C452.522 315.038 452.753 314.623 453.152 314.51C455.386 313.875 457.695 313.056 460.081 312.038C460.462 311.876 460.902 312.053 461.065 312.434ZM257.599 312.254C257.907 312.532 257.931 313.006 257.654 313.314C255.899 315.26 254.115 317.192 252.293 319.106C252.008 319.406 251.533 319.418 251.233 319.133C250.933 318.847 250.921 318.373 251.207 318.072C253.018 316.169 254.793 314.247 256.54 312.309C256.817 312.002 257.292 311.977 257.599 312.254ZM446.793 316.618C446.84 317.03 446.545 317.401 446.133 317.449C443.499 317.752 440.971 317.788 438.549 317.579C438.136 317.544 437.83 317.18 437.866 316.768C437.902 316.355 438.265 316.049 438.678 316.085C440.995 316.285 443.423 316.25 445.962 315.959C446.373 315.911 446.745 316.207 446.793 316.618ZM246.776 323.678C247.067 323.973 247.064 324.448 246.769 324.739C244.909 326.577 243.007 328.395 241.059 330.19C240.754 330.471 240.28 330.451 239.999 330.147C239.719 329.842 239.738 329.368 240.043 329.087C241.977 327.304 243.866 325.498 245.715 323.672C246.01 323.381 246.485 323.384 246.776 323.678ZM83.9457 325.646C84.322 325.473 84.7674 325.637 84.9407 326.014C86.0418 328.405 87.2036 330.704 88.4236 332.911C88.624 333.273 88.4926 333.729 88.1301 333.93C87.7676 334.13 87.3113 333.999 87.1109 333.636C85.8724 331.396 84.6942 329.064 83.5782 326.641C83.405 326.265 83.5695 325.819 83.9457 325.646ZM235.234 334.377C235.503 334.692 235.465 335.166 235.15 335.435C233.164 337.132 231.127 338.804 229.036 340.45C228.711 340.706 228.239 340.65 227.983 340.324C227.727 339.999 227.783 339.527 228.109 339.271C230.183 337.638 232.204 335.978 234.176 334.294C234.491 334.025 234.965 334.062 235.234 334.377ZM91.377 339.286C91.7219 339.056 92.1874 339.15 92.4168 339.495C93.8705 341.681 95.3904 343.758 96.9733 345.724C97.2331 346.046 97.1822 346.518 96.8596 346.778C96.5369 347.038 96.0648 346.987 95.805 346.664C94.1926 344.662 92.6459 342.548 91.1677 340.325C90.9383 339.98 91.032 339.515 91.377 339.286ZM222.903 344.156C223.145 344.491 223.07 344.96 222.734 345.203C220.624 346.725 218.46 348.221 216.236 349.687C215.89 349.915 215.425 349.82 215.197 349.474C214.969 349.128 215.064 348.663 215.41 348.435C217.616 346.98 219.763 345.497 221.856 343.986C222.192 343.744 222.66 343.82 222.903 344.156ZM101.03 351.465C101.325 351.174 101.8 351.178 102.091 351.473C103.919 353.327 105.816 355.054 107.778 356.653C108.099 356.915 108.147 357.387 107.886 357.709C107.624 358.03 107.152 358.078 106.831 357.816C104.825 356.182 102.888 354.418 101.022 352.526C100.732 352.231 100.735 351.756 101.03 351.465ZM209.808 352.864C210.021 353.219 209.906 353.68 209.551 353.893C208.423 354.57 207.28 355.239 206.122 355.901C204.972 356.558 203.825 357.196 202.681 357.815C202.317 358.012 201.862 357.876 201.665 357.512C201.468 357.148 201.603 356.693 201.968 356.495C203.101 355.883 204.238 355.25 205.378 354.599C206.527 353.942 207.661 353.278 208.779 352.607C209.135 352.394 209.595 352.509 209.808 352.864ZM196.074 360.361C196.253 360.735 196.095 361.183 195.721 361.361C193.326 362.507 190.947 363.565 188.587 364.537C188.204 364.695 187.766 364.512 187.608 364.129C187.45 363.746 187.633 363.308 188.016 363.15C190.349 362.189 192.703 361.142 195.074 360.008C195.448 359.829 195.896 359.988 196.074 360.361ZM112.969 361.386C113.192 361.037 113.656 360.935 114.005 361.157C116.177 362.542 118.416 363.789 120.719 364.894C121.092 365.074 121.249 365.522 121.07 365.895C120.891 366.269 120.443 366.426 120.069 366.247C117.712 365.115 115.42 363.839 113.198 362.422C112.849 362.199 112.747 361.736 112.969 361.386ZM181.741 366.343C181.875 366.735 181.666 367.161 181.274 367.295C178.748 368.159 176.246 368.921 173.77 369.582C173.37 369.689 172.958 369.451 172.852 369.051C172.745 368.651 172.983 368.24 173.383 368.133C175.825 367.481 178.294 366.729 180.789 365.876C181.181 365.742 181.607 365.951 181.741 366.343ZM126.883 368.266C127.016 367.874 127.442 367.663 127.834 367.796C130.244 368.614 132.714 369.292 135.241 369.829C135.646 369.915 135.905 370.313 135.819 370.718C135.733 371.124 135.334 371.382 134.929 371.296C132.346 370.747 129.819 370.054 127.352 369.217C126.96 369.084 126.75 368.658 126.883 368.266ZM166.731 370.443C166.807 370.85 166.538 371.242 166.131 371.318C163.516 371.806 160.933 372.178 158.386 372.433C157.974 372.474 157.606 372.173 157.565 371.761C157.524 371.349 157.824 370.981 158.237 370.94C160.74 370.689 163.281 370.324 165.856 369.843C166.263 369.767 166.655 370.036 166.731 370.443ZM142.03 371.675C142.071 371.263 142.438 370.962 142.85 371.002C145.362 371.249 147.922 371.366 150.528 371.352C150.942 371.349 151.28 371.683 151.282 372.098C151.284 372.512 150.95 372.849 150.536 372.852C147.88 372.866 145.268 372.747 142.703 372.495C142.291 372.455 141.99 372.088 142.03 371.675Z" fill="#007AFF"/>
<path fill-rule="evenodd" clip-rule="evenodd" d="M436.75 -61C437.164 -61 437.5 -60.6642 437.5 -60.25C437.5 -59.1585 437.364 -57.8435 437.106 -56.3394C437.036 -55.9311 436.649 -55.6568 436.24 -55.7268C435.832 -55.7967 435.558 -56.1844 435.628 -56.5927C435.877 -58.0484 436 -59.2729 436 -60.25C436 -60.6642 436.336 -61 436.75 -61ZM434.739 -49.5951C435.136 -49.4781 435.363 -49.0612 435.246 -48.6638C434.578 -46.3937 433.767 -43.9112 432.82 -41.2513C432.681 -40.8611 432.252 -40.6573 431.862 -40.7961C431.472 -40.935 431.268 -41.3639 431.407 -41.7542C432.346 -44.3921 433.148 -46.848 433.807 -49.0875C433.924 -49.4848 434.341 -49.7121 434.739 -49.5951ZM429.621 -34.8805C430.006 -34.7268 430.193 -34.2904 430.039 -33.9057C429.113 -31.5874 428.106 -29.1767 427.024 -26.6907C426.858 -26.3109 426.417 -26.1371 426.037 -26.3025C425.657 -26.4679 425.483 -26.9098 425.649 -27.2896C426.725 -29.7622 427.726 -32.1588 428.646 -34.4624C428.8 -34.847 429.236 -35.0342 429.621 -34.8805ZM423.455 -20.5874C423.831 -20.4119 423.993 -19.9656 423.817 -19.5903C422.743 -17.2914 421.611 -14.9461 420.426 -12.5658C420.242 -12.1949 419.792 -12.044 419.421 -12.2286C419.05 -12.4132 418.899 -12.8634 419.084 -13.2342C420.263 -15.6036 421.389 -17.9378 422.458 -20.2255C422.634 -20.6008 423.08 -20.7628 423.455 -20.5874ZM416.552 -6.63516C416.919 -6.44181 417.059 -5.9881 416.866 -5.62179C415.668 -3.35324 414.426 -1.06387 413.141 1.23702C412.939 1.59867 412.482 1.72814 412.121 1.52619C411.759 1.32425 411.63 0.867363 411.832 0.505711C413.111 -1.78471 414.347 -4.06371 415.539 -6.32199C415.732 -6.6883 416.186 -6.82852 416.552 -6.63516ZM408.997 6.96646C409.354 7.17702 409.473 7.63687 409.262 7.99358C407.951 10.2154 406.602 12.4397 405.217 14.658C404.997 15.0094 404.535 15.1164 404.183 14.897C403.832 14.6777 403.725 14.215 403.944 13.8637C405.322 11.6562 406.665 9.4426 407.97 7.23111C408.181 6.8744 408.641 6.75591 408.997 6.96646ZM400.788 20.1826C401.133 20.4111 401.228 20.8764 401 21.2219C399.567 23.3883 398.101 25.5413 396.604 27.6728C396.366 28.0117 395.898 28.0935 395.559 27.8554C395.221 27.6174 395.139 27.1496 395.377 26.8106C396.866 24.691 398.323 22.5497 399.749 20.3945C399.977 20.049 400.442 19.9541 400.788 20.1826ZM391.87 32.9449C392.202 33.1932 392.269 33.6632 392.021 33.9948C390.456 36.0847 388.861 38.1452 387.237 40.1682C386.978 40.4912 386.506 40.543 386.183 40.2837C385.86 40.0245 385.808 39.5525 386.067 39.2294C387.68 37.22 389.265 35.1728 390.82 33.0956C391.068 32.7641 391.538 32.6966 391.87 32.9449ZM229.952 40.8262C227.133 40.6558 224.424 40.7425 221.821 41.0622C221.41 41.1127 221.036 40.8203 220.985 40.4092C220.935 39.9981 221.227 39.6238 221.638 39.5733C224.334 39.2422 227.134 39.1531 230.043 39.3289C230.456 39.3539 230.771 39.7094 230.746 40.1228C230.721 40.5363 230.366 40.8512 229.952 40.8262ZM237.51 41.0883C237.599 40.6838 238 40.4282 238.404 40.5174C241.002 41.0901 243.676 41.8621 246.43 42.8462C246.82 42.9855 247.023 43.4147 246.884 43.8048C246.745 44.1949 246.315 44.3981 245.925 44.2587C243.227 43.2945 240.613 42.5406 238.081 41.9822C237.677 41.893 237.421 41.4928 237.51 41.0883ZM214.334 41.8994C214.464 42.2927 214.251 42.7169 213.858 42.847C211.259 43.7064 208.776 44.8133 206.4 46.1389C206.039 46.3408 205.582 46.2112 205.38 45.8495C205.178 45.4878 205.308 45.031 205.669 44.8291C208.123 43.4596 210.694 42.3135 213.387 41.4229C213.78 41.2928 214.204 41.5062 214.334 41.8994ZM382.163 45.1111C382.476 45.3822 382.51 45.8559 382.239 46.169C380.522 48.1522 378.777 50.088 377.007 51.9676C376.723 52.2691 376.248 52.2833 375.947 51.9993C375.645 51.7152 375.631 51.2406 375.915 50.9391C377.67 49.0755 379.401 47.1555 381.105 45.1873C381.376 44.8741 381.85 44.84 382.163 45.1111ZM253.163 46.4312C253.342 46.0572 253.789 45.8984 254.163 46.0765C256.574 47.225 259.043 48.5282 261.569 49.9939C261.928 50.2017 262.049 50.6606 261.842 51.0189C261.634 51.3772 261.175 51.4992 260.817 51.2913C258.323 49.8448 255.891 48.5607 253.518 47.4308C253.144 47.2527 252.985 46.8052 253.163 46.4312ZM199.743 49.6642C200.002 49.9876 199.949 50.4596 199.626 50.7184C197.521 52.4032 195.512 54.2681 193.596 56.2864C193.31 56.5868 192.836 56.5991 192.535 56.3139C192.235 56.0286 192.223 55.5539 192.508 55.2536C194.467 53.1904 196.525 51.2786 198.689 49.5473C199.012 49.2885 199.484 49.3408 199.743 49.6642ZM267.612 54.6357C267.843 54.2918 268.309 54.2003 268.653 54.4312C270.873 55.922 273.136 57.5333 275.442 59.2694C275.773 59.5186 275.839 59.9888 275.59 60.3197C275.341 60.6506 274.871 60.7169 274.54 60.4678C272.254 58.747 270.013 57.1515 267.817 55.6765C267.473 55.4455 267.381 54.9796 267.612 54.6357ZM371.537 56.466C371.825 56.7642 371.816 57.239 371.518 57.5265C369.62 59.3567 367.695 61.1169 365.745 62.7971C365.431 63.0675 364.958 63.0324 364.687 62.7186C364.417 62.4049 364.452 61.9313 364.766 61.6609C366.693 60 368.597 58.2588 370.477 56.4466C370.775 56.1591 371.25 56.1678 371.537 56.466ZM188.139 61.5064C188.469 61.7572 188.533 62.2278 188.282 62.5574C186.64 64.7146 185.077 66.984 183.587 69.3429C183.366 69.6931 182.903 69.7977 182.553 69.5766C182.202 69.3554 182.098 68.8922 182.319 68.542C183.83 66.1499 185.418 63.8442 187.088 61.649C187.339 61.3194 187.81 61.2555 188.139 61.5064ZM280.92 64.5304C281.184 64.211 281.657 64.1659 281.976 64.4296C283.055 65.3204 284.142 66.2376 285.239 67.1815C286.259 68.0589 287.278 68.8921 288.298 69.682C288.625 69.9357 288.685 70.4068 288.432 70.7343C288.178 71.0617 287.707 71.1215 287.379 70.8678C286.339 70.0616 285.299 69.2122 284.261 68.3185C283.171 67.381 282.092 66.4704 281.021 65.5862C280.702 65.3225 280.656 64.8497 280.92 64.5304ZM359.805 66.6645C360.055 66.9953 359.988 67.4656 359.658 67.7149C357.538 69.3124 355.393 70.809 353.224 72.1927C352.875 72.4155 352.411 72.3131 352.189 71.9639C351.966 71.6147 352.068 71.151 352.417 70.9282C354.551 69.5669 356.664 68.0928 358.755 66.517C359.086 66.2677 359.556 66.3337 359.805 66.6645ZM293.583 74.2872C293.798 73.9328 294.259 73.8192 294.613 74.0336C296.883 75.4068 299.151 76.5764 301.413 77.554C301.794 77.7182 301.969 78.1597 301.805 78.5399C301.64 78.9202 301.199 79.0952 300.819 78.931C298.491 77.9252 296.163 76.724 293.837 75.3171C293.482 75.1027 293.369 74.6416 293.583 74.2872ZM346.744 75.1035C346.933 75.4719 346.788 75.924 346.42 76.1133C344.049 77.3315 341.653 78.4065 339.237 79.3234C338.85 79.4703 338.417 79.2755 338.27 78.8882C338.123 78.501 338.318 78.0679 338.705 77.9209C341.065 77.0253 343.409 75.9736 345.734 74.7791C346.103 74.5898 346.555 74.735 346.744 75.1035ZM179.129 75.4642C179.494 75.6602 179.631 76.115 179.435 76.4798C178.139 78.8921 176.908 81.3654 175.737 83.8793C175.562 84.2549 175.116 84.4176 174.741 84.2427C174.365 84.0679 174.203 83.6218 174.377 83.2463C175.559 80.7088 176.803 78.2097 178.114 75.7699C178.31 75.405 178.764 75.2681 179.129 75.4642ZM307.728 80.5815C307.832 80.1805 308.241 79.9393 308.642 80.0429C311.158 80.6925 313.667 81.1182 316.167 81.3352C316.579 81.371 316.885 81.7346 316.849 82.1472C316.813 82.5599 316.45 82.8654 316.037 82.8296C313.455 82.6054 310.864 82.1657 308.267 81.4952C307.866 81.3917 307.625 80.9826 307.728 80.5815ZM332.266 80.7356C332.361 81.1389 332.111 81.5424 331.707 81.6369C329.13 82.2406 326.533 82.6534 323.921 82.8579C323.508 82.8903 323.147 82.5817 323.114 82.1687C323.082 81.7558 323.39 81.3948 323.803 81.3625C326.336 81.1642 328.858 80.7637 331.365 80.1764C331.768 80.082 332.172 80.3323 332.266 80.7356ZM172.018 90.4892C172.401 90.646 172.585 91.0839 172.428 91.4673C171.379 94.032 170.387 96.6162 169.448 99.1997C169.306 99.589 168.876 99.7898 168.487 99.6483C168.098 99.5069 167.897 99.0766 168.038 98.6873C168.983 96.0869 169.982 93.4841 171.04 90.8994C171.196 90.516 171.634 90.3324 172.018 90.4892ZM166.271 106.089C166.665 106.217 166.88 106.641 166.751 107.035C165.879 109.709 165.06 112.36 164.291 114.964C164.173 115.362 163.756 115.588 163.359 115.471C162.962 115.354 162.735 114.937 162.852 114.539C163.625 111.923 164.448 109.259 165.325 106.569C165.454 106.176 165.877 105.961 166.271 106.089ZM161.509 122.02C161.909 122.128 162.145 122.54 162.037 122.94C161.67 124.295 161.317 125.63 160.976 126.939C160.628 128.273 160.245 129.583 159.827 130.868C159.699 131.262 159.276 131.478 158.882 131.349C158.488 131.221 158.273 130.798 158.401 130.404C158.809 129.148 159.184 127.867 159.524 126.561C159.866 125.248 160.221 123.909 160.589 122.548C160.698 122.148 161.109 121.912 161.509 122.02ZM156.467 137.462C156.842 137.638 157.003 138.085 156.826 138.46C155.653 140.954 154.334 143.335 152.881 145.6C152.658 145.948 152.194 146.05 151.845 145.826C151.496 145.602 151.395 145.138 151.619 144.79C153.037 142.58 154.323 140.257 155.469 137.821C155.645 137.446 156.092 137.285 156.467 137.462ZM10.6506 147.799C10.8996 147.468 11.3698 147.402 11.7008 147.651C12.7817 148.463 13.8669 149.258 14.9562 150.033C15.2936 150.274 15.3723 150.742 15.132 151.079C14.8917 151.417 14.4234 151.496 14.086 151.255C12.9862 150.472 11.8905 149.67 10.7993 148.849C10.4682 148.6 10.4017 148.13 10.6506 147.799ZM147.934 151.112C148.25 151.38 148.288 151.853 148.02 152.169C146.255 154.25 144.357 156.206 142.34 158.033C142.033 158.311 141.559 158.288 141.281 157.981C141.003 157.674 141.026 157.2 141.333 156.922C143.302 155.137 145.154 153.229 146.877 151.198C147.145 150.883 147.618 150.844 147.934 151.112ZM20.5817 154.749C20.8038 154.399 21.2673 154.296 21.6169 154.518C23.9005 155.969 26.1975 157.341 28.5038 158.635C28.865 158.838 28.9935 159.295 28.7908 159.656C28.588 160.018 28.1309 160.146 27.7697 159.943C25.4394 158.635 23.1191 157.249 20.8126 155.784C20.4629 155.562 20.3596 155.098 20.5817 154.749ZM136.138 162.075C136.375 162.414 136.292 162.882 135.952 163.119C133.737 164.667 131.416 166.088 128.999 167.38C128.634 167.575 128.179 167.437 127.984 167.072C127.789 166.706 127.927 166.252 128.292 166.057C130.658 164.792 132.928 163.403 135.093 161.89C135.433 161.652 135.9 161.735 136.138 162.075ZM34.6139 162.714C34.796 162.341 35.2452 162.187 35.6172 162.37C38.0517 163.561 40.4923 164.667 42.9347 165.691C43.3167 165.851 43.4967 166.29 43.3367 166.672C43.1766 167.054 42.7372 167.234 42.3551 167.074C39.8856 166.04 37.4184 164.921 34.9579 163.717C34.5859 163.535 34.4318 163.086 34.6139 162.714ZM49.4722 169.029C49.6088 168.638 50.0366 168.432 50.4276 168.568C52.9805 169.461 55.5304 170.263 58.0724 170.975C58.4712 171.087 58.7039 171.501 58.592 171.9C58.4802 172.299 58.0662 172.532 57.6674 172.42C55.0948 171.698 52.5149 170.887 49.9327 169.984C49.5417 169.848 49.3355 169.42 49.4722 169.029ZM122.024 169.838C122.177 170.223 121.99 170.659 121.605 170.813C119.108 171.81 116.532 172.685 113.886 173.438C113.488 173.551 113.073 173.32 112.96 172.921C112.846 172.523 113.077 172.108 113.476 171.995C116.073 171.256 118.601 170.397 121.049 169.42C121.434 169.266 121.87 169.453 122.024 169.838ZM64.9855 173.47C65.0709 173.065 65.4686 172.806 65.874 172.891C68.5239 173.449 71.1595 173.91 73.7748 174.275C74.185 174.332 74.4712 174.711 74.4139 175.121C74.3567 175.532 73.9777 175.818 73.5675 175.761C70.9176 175.391 68.2481 174.924 65.5648 174.359C65.1595 174.273 64.9001 173.876 64.9855 173.47ZM106.565 174.41C106.64 174.817 106.371 175.208 105.963 175.283C103.324 175.768 100.631 176.14 97.8906 176.397C97.4782 176.436 97.1125 176.133 97.0738 175.72C97.0352 175.308 97.3382 174.942 97.7506 174.904C100.448 174.651 103.098 174.285 105.692 173.808C106.099 173.733 106.49 174.002 106.565 174.41ZM80.9451 175.795C80.9724 175.381 81.3296 175.069 81.743 175.096C84.4476 175.275 87.1232 175.348 89.763 175.319C90.1772 175.314 90.5167 175.646 90.5214 176.06C90.526 176.474 90.1941 176.814 89.7799 176.818C87.1008 176.849 84.3866 176.774 81.6441 176.593C81.2307 176.565 80.9178 176.208 80.9451 175.795Z" fill="#007AFF"/>
<path d="M136.424 340.952H87.92V347.616H136.424V340.952Z" fill="#263238"/>
<path d="M136.512 347.696H87.8401V340.864H136.512V347.696ZM88.0081 347.528H136.344V341.032H88.0081V347.528Z" fill="#263238"/>
<path d="M92.416 345.392L99.4 379.84H125.232L131.984 347.616L92.416 345.392Z" fill="#263238"/>
<path d="M92.416 376.584L96.144 381.704H127.544L131.984 376.584H92.416Z" fill="#455A64"/>
<path d="M110.352 346.4C110.256 346.4 110.136 330.44 110.08 310.76C110.024 291.08 110.08 275.12 110.152 275.12C110.224 275.12 110.368 291.072 110.424 310.76C110.48 330.448 110.448 346.4 110.352 346.4Z" fill="#263238"/>
<path d="M121.2 306.464C121.166 306.593 121.121 306.719 121.064 306.84L120.632 307.872L120.32 308.616C120.216 308.896 120.112 309.2 119.992 309.52C119.872 309.84 119.752 310.192 119.624 310.56C119.496 310.928 119.392 311.36 119.264 311.744C118.688 313.692 118.234 315.675 117.904 317.68C117.528 320.143 117.277 322.623 117.152 325.112C116.974 329.649 117.102 334.192 117.536 338.712C117.696 340.44 117.848 341.84 117.968 342.808C118.016 343.256 118.056 343.608 118.088 343.92C118.099 344.05 118.099 344.181 118.088 344.312C118.037 344.19 118.008 344.06 118 343.928C117.944 343.64 117.888 343.272 117.808 342.824C117.656 341.864 117.456 340.464 117.272 338.736C116.766 334.221 116.602 329.675 116.784 325.136C116.912 322.635 117.179 320.143 117.584 317.672C117.924 315.654 118.406 313.663 119.024 311.712C119.16 311.296 119.264 310.912 119.408 310.528C119.552 310.144 119.68 309.816 119.808 309.496C119.936 309.176 120.048 308.872 120.16 308.592C120.272 308.312 120.4 308.08 120.504 307.856C120.704 307.448 120.864 307.112 121 306.848C121.046 306.71 121.113 306.581 121.2 306.464Z" fill="#263238"/>
<path d="M119.92 293.6C119.878 293.779 119.824 293.955 119.76 294.128C119.64 294.496 119.472 294.992 119.256 295.608C119.144 295.936 119.024 296.296 118.888 296.68C118.752 297.064 118.64 297.48 118.496 297.968C118.216 298.896 117.888 299.944 117.592 301.12C117.44 301.712 117.272 302.328 117.104 302.968C116.936 303.608 116.808 304.288 116.648 304.984C116.312 306.376 116.072 307.88 115.752 309.456C115.224 312.656 114.752 316.128 114.424 319.856C114.096 323.584 113.984 327.056 113.936 330.304C113.888 333.552 113.936 336.424 114.104 338.848C114.144 340.064 114.224 341.16 114.288 342.128C114.352 343.096 114.4 343.92 114.464 344.6C114.528 345.28 114.552 345.776 114.584 346.16C114.598 346.343 114.598 346.528 114.584 346.712C114.538 346.533 114.508 346.351 114.496 346.168C114.448 345.784 114.392 345.264 114.312 344.616C114.232 343.968 114.152 343.104 114.08 342.144C114.008 341.184 113.896 340.08 113.84 338.864C113.68 336.464 113.608 333.528 113.6 330.304C113.592 327.08 113.76 323.536 114.064 319.832C114.368 316.128 114.864 312.632 115.424 309.432C115.744 307.832 116 306.344 116.352 304.952C116.517 304.253 116.677 303.581 116.832 302.936C117.008 302.296 117.176 301.68 117.344 301.088C117.648 299.912 117.992 298.864 118.296 297.944C118.448 297.488 118.584 297.056 118.712 296.656C118.84 296.256 118.992 295.92 119.112 295.6C119.352 294.984 119.544 294.496 119.68 294.136C119.742 293.949 119.822 293.77 119.92 293.6Z" fill="#263238"/>
<path d="M107.288 349.224C107.28 349.163 107.28 349.101 107.288 349.04C107.288 348.896 107.272 348.712 107.24 348.488C107.24 347.976 107.16 347.272 107.104 346.376C106.984 344.512 106.816 341.864 106.616 338.6C106.192 332.04 105.584 322.976 104.48 313C103.92 308.016 103.264 303.28 102.584 298.984C102.224 296.848 101.896 294.808 101.52 292.912C101.144 291.016 100.808 289.248 100.472 287.64C100.136 286.032 99.8 284.584 99.512 283.312C99.224 282.04 98.96 280.912 98.712 280.048C98.464 279.184 98.328 278.488 98.208 277.992C98.152 277.776 98.112 277.6 98.08 277.456C98.048 277.312 98.08 277.272 98.08 277.272C98.1135 277.326 98.1378 277.386 98.152 277.448L98.304 277.976L98.8 280C99.048 280.888 99.336 281.976 99.6 283.248C99.864 284.52 100.272 285.96 100.608 287.568C100.944 289.176 101.344 290.936 101.696 292.84C102.048 294.744 102.424 296.776 102.792 298.92C103.488 303.216 104.152 307.952 104.72 312.944C105.824 322.92 106.392 332 106.752 338.544C106.936 341.832 107.056 344.488 107.128 346.328C107.168 347.224 107.192 347.928 107.208 348.448C107.208 348.672 107.208 348.848 107.208 348.992C107.24 349.067 107.267 349.145 107.288 349.224Z" fill="#263238"/>
<path d="M110 282.792C109.784 280.536 107.504 278.792 105.2 278.792C104.063 278.845 102.953 279.155 101.953 279.698C100.952 280.241 100.088 281.003 99.424 281.928C98.1165 283.794 97.1721 285.889 96.64 288.104C94.9883 293.411 94.4091 298.995 94.936 304.528C95.584 310.032 97.816 315.448 101.768 319.336C102.408 319.968 103.24 320.6 104.12 320.408C104.598 320.258 105.027 319.982 105.36 319.608C109.227 316.071 112.293 311.747 114.351 306.927C116.41 302.108 117.414 296.904 117.296 291.664C117.232 289.568 116.96 287.392 115.8 285.648C114.64 283.904 111.936 282.056 109.968 282.752" fill="#455A64"/>
<path d="M110.152 275.12L81.3521 258.104C81.0354 257.965 80.7837 257.71 80.6481 257.392C80.5361 256.968 80.8561 256.592 81.1681 256.24C83.1504 254.183 85.5528 252.577 88.2117 251.532C90.8706 250.487 93.7235 250.027 96.5761 250.184C99.428 250.387 102.187 251.283 104.616 252.792C107.044 254.302 109.068 256.38 110.512 258.848C113.296 263.824 113.384 270.4 110.192 275.12" fill="#455A64"/>
<path d="M85.472 252.672L85.848 252.624C86.096 252.624 86.464 252.568 86.936 252.576C88.2762 252.554 89.6155 252.659 90.936 252.888C95.3346 253.633 99.4287 255.619 102.737 258.612C106.045 261.606 108.429 265.482 109.608 269.784C109.965 271.074 110.203 272.395 110.32 273.728C110.334 273.995 110.334 274.262 110.32 274.528C110.299 274.753 110.225 274.969 110.104 275.16C110.178 274.678 110.178 274.187 110.104 273.704C109.944 272.386 109.676 271.083 109.304 269.808C108.094 265.574 105.722 261.764 102.457 258.809C99.1924 255.854 95.1653 253.872 90.832 253.088C89.5119 252.842 88.1744 252.7 86.832 252.664C86 252.688 85.472 252.704 85.472 252.672Z" fill="#263238"/>
<path d="M106.248 263.376C105.79 263.653 105.301 263.876 104.792 264.04C103.872 264.4 102.592 264.84 101.152 265.32C99.7121 265.8 98.4001 266.12 97.4401 266.376C96.9207 266.539 96.3834 266.638 95.8401 266.672C96.325 266.443 96.8315 266.264 97.3521 266.136L101.024 264.992L104.688 263.808C105.191 263.608 105.714 263.463 106.248 263.376Z" fill="#263238"/>
<path d="M101.704 251.2C101.964 252.246 102.08 253.322 102.048 254.4C102.128 255.47 102.068 256.545 101.872 257.6C101.733 256.539 101.677 255.469 101.704 254.4C101.619 253.335 101.619 252.265 101.704 251.2Z" fill="#263238"/>
<path d="M81.0641 257.784C81.7385 257.474 82.4402 257.228 83.1601 257.048C84.4641 256.64 86.2881 256.128 88.3281 255.64C90.3681 255.152 92.2161 254.776 93.5681 254.536C94.2909 254.37 95.0273 254.271 95.7681 254.24C95.0646 254.47 94.3454 254.649 93.6161 254.776C92.2801 255.072 90.4161 255.488 88.4081 255.976C86.4001 256.464 84.5521 256.936 83.2241 257.28C82.5171 257.499 81.7952 257.668 81.0641 257.784Z" fill="#263238"/>
<path d="M98 277.888C95.52 276.008 92.904 275.64 89.792 275.76C86.6764 275.967 83.6268 276.753 80.8 278.08C75.936 280.208 71.368 283.352 68.464 287.792C65.56 292.232 64.544 298.12 66.72 302.992C66.8891 303.497 67.2397 303.922 67.704 304.184C68.2353 304.329 68.8003 304.286 69.304 304.064C74.832 302.256 80.4 300.44 85.488 297.608C90.576 294.776 95.2 290.856 97.928 285.72C98.6331 284.51 99.0798 283.167 99.24 281.776C99.3146 281.08 99.2397 280.375 99.0204 279.71C98.801 279.045 98.4422 278.435 97.968 277.92" fill="#455A64"/>
<path d="M98.04 277.304C97.9108 277.367 97.7771 277.42 97.64 277.464L96.48 277.864L95.68 278.144L94.704 278.528C94 278.808 93.192 279.096 92.304 279.504L90.944 280.128C90.472 280.344 90.008 280.608 89.504 280.864C88.504 281.352 87.488 281.984 86.408 282.624C81.7699 285.498 77.6439 289.127 74.2 293.36C73.4 294.344 72.68 295.272 72.064 296.208C71.744 296.664 71.424 297.096 71.144 297.536C70.864 297.976 70.616 298.4 70.344 298.8C69.824 299.6 69.44 300.4 69.072 301.024C68.888 301.36 68.712 301.664 68.568 301.952L68.184 302.752C67.96 303.208 67.784 303.552 67.64 303.848C67.5842 303.98 67.5145 304.106 67.432 304.224C67.4635 304.085 67.5119 303.951 67.576 303.824L68.064 302.696C68.1707 302.445 68.2907 302.178 68.424 301.896C68.56 301.608 68.728 301.296 68.904 300.96C69.256 300.288 69.624 299.512 70.136 298.704L70.936 297.416C71.208 296.968 71.528 296.536 71.84 296.064C72.456 295.12 73.2 294.184 73.968 293.176C75.6887 291.042 77.5717 289.044 79.6 287.2C81.6729 285.409 83.8823 283.783 86.208 282.336C87.304 281.704 88.328 281.08 89.344 280.592C89.848 280.344 90.32 280.08 90.8 279.872L92.168 279.264C93.04 278.864 93.864 278.6 94.568 278.328C94.928 278.2 95.256 278.072 95.56 277.976L96.416 277.72L97.592 277.384C97.7386 277.343 97.8885 277.317 98.04 277.304Z" fill="#263238"/>
<path d="M78.6561 287.8C76.6816 288.555 74.6681 289.204 72.6241 289.744C70.6119 290.388 68.5662 290.922 66.4961 291.344C68.4711 290.59 70.4846 289.941 72.5281 289.4C74.5389 288.751 76.5849 288.217 78.6561 287.8Z" fill="#263238"/>
<path d="M78.408 301.112C78.3105 300.49 78.2677 299.861 78.28 299.232C78.28 298.072 78.28 296.464 78.28 294.688C78.28 292.912 78.432 291.312 78.528 290.152C78.5454 289.522 78.6231 288.895 78.76 288.28C78.8137 288.908 78.8137 289.54 78.76 290.168C78.76 291.44 78.672 292.984 78.624 294.696C78.576 296.408 78.536 297.96 78.504 299.232C78.5359 299.86 78.5038 300.49 78.408 301.112Z" fill="#263238"/>
<path d="M89.816 295.296C89.72 295.296 89.416 292.04 89.136 288.008C88.856 283.976 88.712 280.704 88.808 280.696C88.904 280.688 89.208 283.952 89.48 287.984C89.752 292.016 89.912 295.296 89.816 295.296Z" fill="#263238"/>
<path d="M75.6 280.376C76.2424 280.3 76.8903 280.281 77.536 280.32C78.728 280.32 80.376 280.36 82.192 280.424C84.008 280.488 85.656 280.56 86.848 280.624C87.4952 280.628 88.1406 280.692 88.776 280.816C88.1336 280.891 87.4857 280.91 86.84 280.872C85.648 280.872 84 280.824 82.184 280.768C80.368 280.712 78.72 280.632 77.528 280.56C76.8809 280.56 76.2353 280.498 75.6 280.376Z" fill="#263238"/>
<path d="M103 320.096C102.962 319.972 102.946 319.842 102.952 319.712C102.952 319.424 102.936 319.056 102.904 318.608C102.904 317.64 102.848 316.248 102.904 314.52C102.96 312.792 103.056 310.744 103.256 308.472C103.456 306.2 103.808 303.712 104.272 301.12C104.736 298.528 105.328 296.08 105.912 293.872C106.496 291.664 107.136 289.704 107.712 288.072C108.288 286.44 108.792 285.136 109.168 284.248C109.352 283.832 109.496 283.488 109.608 283.224C109.656 283.102 109.715 282.984 109.784 282.872C109.763 283.002 109.725 283.128 109.672 283.248C109.576 283.52 109.448 283.864 109.296 284.296C108.952 285.192 108.496 286.512 107.944 288.152C107.392 289.792 106.808 291.752 106.224 293.952C105.64 296.152 105.088 298.592 104.624 301.152C104.16 303.712 103.824 306.216 103.584 308.48C103.344 310.744 103.216 312.784 103.152 314.504C103.088 316.224 103.064 317.616 103.064 318.576C103.064 319.032 103.064 319.376 103.064 319.688C103.055 319.826 103.033 319.962 103 320.096Z" fill="#263238"/>
<path d="M104.52 301.216C104.181 301.676 103.795 302.1 103.368 302.48C102.624 303.224 101.56 304.224 100.352 305.28C99.1441 306.336 98.0161 307.264 97.1521 307.904C96.7232 308.28 96.2536 308.608 95.7521 308.88C96.1299 308.454 96.5478 308.066 97.0001 307.72L100.104 305.024L103.176 302.304C103.587 301.898 104.037 301.533 104.52 301.216Z" fill="#263238"/>
<path d="M113.648 308.568C113.189 308.041 112.779 307.474 112.424 306.872L109.568 302.712L106.664 298.6C106.229 298.051 105.838 297.468 105.496 296.856C105.996 297.348 106.451 297.883 106.856 298.456C107.656 299.472 108.728 300.904 109.856 302.528C110.984 304.152 111.952 305.648 112.624 306.752C113.019 307.325 113.362 307.933 113.648 308.568Z" fill="#263238"/>
<path d="M108.864 285.448C108.912 285.528 105.88 287.568 102.088 290.008C98.2961 292.448 95.1841 294.352 95.1361 294.272C95.0881 294.192 98.1121 292.152 101.904 289.712C105.696 287.272 108.808 285.368 108.864 285.448Z" fill="#263238"/>
<path d="M117.416 294.672C115.806 293.35 114.273 291.937 112.824 290.44C111.299 289.02 109.849 287.522 108.48 285.952C110.089 287.278 111.622 288.694 113.072 290.192C114.598 291.607 116.048 293.102 117.416 294.672Z" fill="#263238"/>
<path d="M119.6 294.488L122.208 294.272C124.055 294.125 125.848 293.579 127.464 292.672C128.253 292.21 129.071 291.799 129.912 291.44C133.112 290.152 136.72 290.384 140.184 290.208C145.856 289.922 151.414 288.502 156.528 286.032C156.826 285.894 157.075 285.668 157.24 285.384C157.776 284.408 156.784 283.544 155.928 282.984C151.544 280.28 147.08 277.544 142.104 276.2C137.128 274.856 131.488 275.088 127.24 278.008C122.264 281.44 120.448 288.48 119.6 294.464" fill="#455A64"/>
<path d="M157.256 285.056C157.104 284.999 156.957 284.93 156.816 284.848L155.584 284.2C154.512 283.64 152.968 282.808 151.024 281.88C148.759 280.762 146.397 279.852 143.968 279.16C140.993 278.299 137.876 278.04 134.8 278.4C131.728 278.745 128.827 279.992 126.464 281.984C124.616 283.698 123.137 285.773 122.12 288.08C121.208 290.024 120.648 291.688 120.232 292.824L119.768 294.136C119.723 294.29 119.664 294.44 119.592 294.584C119.61 294.423 119.648 294.264 119.704 294.112C119.808 293.776 119.944 293.312 120.104 292.776C120.611 291.142 121.212 289.54 121.904 287.976C122.903 285.619 124.382 283.496 126.248 281.744C128.668 279.693 131.646 278.414 134.8 278.072C137.913 277.712 141.067 277.984 144.072 278.872C146.512 279.591 148.882 280.531 151.152 281.68C153.088 282.648 154.616 283.512 155.664 284.08L156.864 284.784C157.003 284.862 157.135 284.953 157.256 285.056Z" fill="#263238"/>
<path d="M151.008 288.416C150.952 288.496 147.552 286.288 143.4 283.496C139.248 280.704 135.936 278.368 135.992 278.288C136.048 278.208 139.448 280.416 143.6 283.208C147.752 286 151.056 288.336 151.008 288.416Z" fill="#263238"/>
<path d="M147.376 278.112C146.576 278.381 145.74 278.532 144.896 278.56C144.056 278.675 143.204 278.662 142.368 278.52C143.193 278.375 144.027 278.292 144.864 278.272C145.696 278.156 146.536 278.102 147.376 278.112Z" fill="#263238"/>
<path d="M132.472 276.168C132.193 276.805 131.815 277.393 131.352 277.912C130.962 278.51 130.488 279.049 129.944 279.512C130.218 278.874 130.593 278.285 131.056 277.768C131.45 277.17 131.927 276.632 132.472 276.168Z" fill="#263238"/>
<path d="M135.52 290.4C134.943 290.164 134.393 289.866 133.88 289.512C132.904 288.92 131.568 288.04 130.152 287.016C128.736 285.992 127.48 285.008 126.576 284.296C126.07 283.936 125.598 283.529 125.168 283.08C125.719 283.369 126.241 283.709 126.728 284.096L130.352 286.736C131.768 287.76 133.072 288.664 134.016 289.312C134.546 289.633 135.049 289.997 135.52 290.4Z" fill="#263238"/>
<path d="M123.4 305.552C120.912 304.896 117.952 307.304 117.44 309.824C116.928 312.344 117.872 314.912 118.976 317.232C121.343 322.427 124.855 327.019 129.248 330.664C133.678 334.307 139.209 336.346 144.944 336.448C143.896 331.568 145.224 326.48 144.64 321.528C144.124 317.163 142.143 313.103 139.02 310.011C135.897 306.918 131.817 304.977 127.448 304.504C125.848 304.336 124.032 304.088 123.4 305.552Z" fill="#455A64"/>
<path d="M144.944 336.448C144.821 336.405 144.703 336.349 144.592 336.28C144.264 336.101 143.953 335.892 143.664 335.656C142.62 334.751 141.782 333.632 141.208 332.376C140.816 331.576 140.408 330.776 139.944 329.848C139.48 328.92 139.072 327.936 138.608 326.896C138.122 325.813 137.572 324.761 136.96 323.744C136.288 322.663 135.534 321.636 134.704 320.672C133.008 318.672 131.184 316.944 129.6 315.296C128.167 313.858 126.865 312.295 125.712 310.624C124.933 309.495 124.293 308.275 123.808 306.992C123.678 306.643 123.566 306.288 123.472 305.928C123.427 305.807 123.403 305.68 123.4 305.552C123.4 305.552 123.568 306.056 123.928 306.944C124.46 308.193 125.125 309.381 125.912 310.488C127.089 312.122 128.4 313.655 129.832 315.072C131.432 316.672 133.248 318.432 134.968 320.448C135.81 321.427 136.575 322.47 137.256 323.568C137.867 324.6 138.415 325.669 138.896 326.768L140.2 329.728C140.616 330.648 141.048 331.496 141.432 332.264C141.97 333.508 142.76 334.628 143.752 335.552C144.472 336.176 144.968 336.408 144.944 336.448Z" fill="#263238"/>
<path d="M132.104 332.392C132.119 331.828 132.197 331.267 132.336 330.72C132.528 329.696 132.848 328.32 133.28 326.768C133.712 325.216 134.168 323.872 134.536 322.904C134.704 322.365 134.932 321.847 135.216 321.36C135.115 321.906 134.965 322.441 134.768 322.96C134.464 323.952 134.04 325.32 133.608 326.848C133.176 328.376 132.808 329.752 132.576 330.76C132.472 331.318 132.314 331.864 132.104 332.392Z" fill="#263238"/>
<path d="M144.472 320.424C143.88 320.344 143.296 320.21 142.728 320.024C141.656 319.744 140.176 319.36 138.536 318.992C136.896 318.624 135.392 318.336 134.304 318.128C133.71 318.049 133.124 317.92 132.552 317.744C133.153 317.726 133.754 317.774 134.344 317.888C135.448 318.032 136.96 318.28 138.608 318.688C140.256 319.096 141.736 319.488 142.792 319.824C143.372 319.964 143.935 320.165 144.472 320.424Z" fill="#263238"/>
<path d="M122.896 323.904C122.919 323.252 123.008 322.603 123.16 321.968C123.376 320.784 123.728 319.152 124.192 317.376C124.656 315.6 125.152 314 125.536 312.864C125.719 312.236 125.957 311.626 126.248 311.04C126.145 311.684 125.988 312.319 125.776 312.936C125.44 314.088 124.976 315.688 124.528 317.464C124.08 319.24 123.68 320.848 123.4 322.024C123.282 322.663 123.113 323.292 122.896 323.904Z" fill="#263238"/>
<path d="M138.8 310C138.8 310.096 135.696 309.84 131.88 309.44C128.064 309.04 124.984 308.64 124.992 308.536C127.309 308.604 129.622 308.791 131.92 309.096C134.227 309.279 136.524 309.581 138.8 310Z" fill="#263238"/>
<path d="M136.504 347.584C136.504 347.68 125.616 347.76 112.176 347.76C98.7361 347.76 87.8401 347.68 87.8401 347.584C87.8401 347.488 98.7361 347.416 112.176 347.416C125.616 347.416 136.504 347.488 136.504 347.584Z" fill="#455A64"/>
<path d="M128.928 361.6C128.928 361.696 121.584 361.768 112.536 361.768C103.488 361.768 96.136 361.696 96.136 361.6C96.136 361.504 103.48 361.424 112.536 361.424C121.592 361.424 128.928 361.512 128.928 361.6Z" fill="#455A64"/>
<path d="M128.64 363.608C128.64 363.704 121.44 363.784 112.536 363.784C103.632 363.784 96.4241 363.704 96.4241 363.608C96.4241 363.512 103.624 363.44 112.536 363.44C121.448 363.44 128.64 363.512 128.64 363.608Z" fill="#455A64"/>
<path d="M129.2 359.952C129.2 360.048 121.608 360.128 112.24 360.128C102.872 360.128 95.28 360.048 95.28 359.952C95.28 359.856 102.872 359.784 112.24 359.784C121.608 359.784 129.2 359.856 129.2 359.952Z" fill="#455A64"/>
<path d="M251.064 85.5041L257.104 74.8641C253.371 68.8036 252.04 61.5662 253.373 54.5742C254.705 47.5823 258.604 41.3415 264.304 37.0786C270.004 32.8157 277.093 30.839 284.176 31.5369C291.26 32.2348 297.826 35.5569 302.584 40.8503C307.343 46.1437 309.949 53.0254 309.892 60.143C309.834 67.2605 307.116 74.099 302.272 79.3144C297.428 84.5298 290.809 87.7449 283.715 88.3277C276.621 88.9106 269.566 86.819 263.936 82.4641L251.064 85.5041Z" fill="white"/>
<path d="M251.064 85.5041L263.92 82.4001L263.872 82.5441C263.863 82.5352 263.856 82.5246 263.851 82.5129C263.846 82.5012 263.844 82.4887 263.844 82.4761C263.844 82.4634 263.846 82.4509 263.851 82.4393C263.856 82.4276 263.863 82.417 263.872 82.4081C263.888 82.3964 263.908 82.3901 263.928 82.3901C263.948 82.3901 263.968 82.3964 263.984 82.4081C265.787 83.7899 267.744 84.9577 269.816 85.8881C272.288 86.9728 274.9 87.7053 277.576 88.0641C279.055 88.2634 280.549 88.333 282.04 88.2721C282.84 88.2241 283.592 88.2081 284.376 88.1361L286.776 87.7681C293.871 86.3654 300.165 82.3117 304.376 76.4321C306.715 73.1852 308.333 69.4756 309.12 65.5521C309.928 61.4097 309.811 57.1398 308.776 53.0481C307.716 48.7682 305.651 44.8026 302.752 41.4801L301.6 40.2161C301.224 39.7921 300.8 39.4161 300.36 39.0561C299.957 38.6622 299.532 38.291 299.088 37.9441L297.744 36.9361C297.291 36.5889 296.812 36.276 296.312 36.0001L294.888 35.1361L293.392 34.4001C292.904 34.1466 292.402 33.9222 291.888 33.7281C287.883 32.1457 283.575 31.4814 279.28 31.7841C275.214 32.0567 271.259 33.2231 267.696 35.2001C261.291 38.7586 256.492 44.6362 254.288 51.6241C253.408 54.6017 252.985 57.6955 253.032 60.8001C253.17 65.7565 254.607 70.5897 257.2 74.8161C257.208 74.8309 257.212 74.8474 257.212 74.8641C257.212 74.8808 257.208 74.8973 257.2 74.9121C253.304 81.6641 251.4 84.9521 251.08 85.5041L257.04 74.8161V74.9121C254.398 70.6667 252.927 65.7979 252.776 60.8001C252.709 57.6625 253.122 54.5331 254 51.5201C256.206 44.4449 261.046 38.4877 267.52 34.8801C271.127 32.8781 275.132 31.6954 279.248 31.4161C283.608 31.0927 287.985 31.7628 292.048 33.3761C292.572 33.568 293.083 33.7952 293.576 34.0561L295.088 34.7921L296.536 35.6641C297.025 35.949 297.498 36.2615 297.952 36.6001L299.296 37.6001C299.744 37.9543 300.174 38.3308 300.584 38.7281C301 39.1201 301.456 39.4801 301.84 39.9041L303 41.1921C305.939 44.5535 308.032 48.5692 309.104 52.9041C310.156 57.0589 310.27 61.3955 309.44 65.6001C308.642 69.5692 307.005 73.3222 304.64 76.6081C300.362 82.5473 293.983 86.6349 286.8 88.0401L284.4 88.4001C283.6 88.4641 282.8 88.4881 282.04 88.5281C280.532 88.5878 279.022 88.5129 277.528 88.3041C274.833 87.9326 272.204 87.1811 269.72 86.0721C267.638 85.1237 265.673 83.9371 263.864 82.5361L263.992 82.4081C264.001 82.417 264.008 82.4276 264.013 82.4393C264.018 82.4509 264.02 82.4634 264.02 82.4761C264.02 82.4887 264.018 82.5012 264.013 82.5129C264.008 82.5246 264.001 82.5352 263.992 82.5441L251.064 85.5041Z" fill="#263238"/>
<path d="M276.48 56.4883H278.336L282.384 50.8883V47.1523C282.384 47.1523 285.248 46.9683 284.912 51.8163C284.576 56.6643 284.912 55.4243 284.912 55.4243C284.912 55.4243 290.992 55.4243 291.496 55.9763C291.864 56.3603 292.032 62.3763 292.096 65.6803C292.136 66.4711 291.91 67.2524 291.455 67.9003C291 68.5482 290.341 69.0255 289.584 69.2563C289.37 69.313 289.149 69.3426 288.928 69.3443C287.408 69.3443 279.656 68.1123 279.656 68.1123H276.456L276.48 56.4883Z" fill="#007AFF"/>
<path d="M271.176 55.4722L272.32 68.1442H275.488V55.7282L271.176 55.4722Z" fill="#007AFF"/>
<path d="M182.712 82.688C178.251 85.5324 173.058 87.0142 167.768 86.952C166.095 86.8493 164.418 86.8307 162.744 86.896C161.058 86.9655 159.443 87.593 158.152 88.68C157.518 89.2339 157.066 89.9662 156.855 90.7811C156.643 91.5961 156.683 92.4558 156.968 93.248C157.912 95.408 160.968 96.264 161.432 98.576C161.768 100.24 160.528 101.824 159.128 102.792C157.728 103.76 156.096 104.392 154.92 105.624C154.21 106.361 153.709 107.274 153.467 108.269C153.225 109.263 153.252 110.304 153.544 111.285C153.836 112.266 154.383 113.152 155.129 113.852C155.876 114.553 156.794 115.043 157.792 115.272C158.984 115.552 160.448 115.56 161.096 116.6C161.44 117.39 161.502 118.274 161.272 119.104C160.958 120.887 161.195 122.723 161.952 124.368C162.342 125.182 162.95 125.873 163.708 126.363C164.466 126.853 165.345 127.123 166.248 127.144C166.952 127.144 167.64 126.904 168.344 126.92C168.695 126.898 169.045 126.984 169.346 127.165C169.647 127.347 169.887 127.616 170.032 127.936C170.106 128.415 170.085 128.905 169.968 129.376C169.712 131.736 172.064 133.584 174.344 134.256C178.896 135.616 183.944 134.304 187.816 131.504C191.688 128.704 194.336 124.56 196.136 120.16C197.936 115.76 198.904 111.088 199.864 106.432" fill="#263238"/>
<path d="M233.56 200.36C233.05 199.099 232.285 197.958 231.312 197.008C225.288 190.608 216.16 187.528 207.384 188.032C198.608 188.536 190.2 192.352 183.384 197.88C179.744 200.832 174.832 206.52 173.552 211.032C178.896 212.32 186.88 210.528 191.952 208.328C197.024 206.128 201.984 203.472 207.448 202.912C213.784 202.264 220.008 204.512 226.248 205.784C227.496 206.088 228.784 206.19 230.064 206.088C230.704 206.03 231.324 205.838 231.883 205.524C232.443 205.209 232.93 204.78 233.312 204.264C233.648 203.675 233.844 203.017 233.887 202.34C233.93 201.664 233.818 200.986 233.56 200.36Z" fill="#007AFF"/>
<g opacity="0.3">
<path d="M233.56 200.36C233.05 199.099 232.285 197.958 231.312 197.008C225.288 190.608 216.16 187.528 207.384 188.032C198.608 188.536 190.2 192.352 183.384 197.88C179.744 200.832 174.832 206.52 173.552 211.032C178.896 212.32 186.88 210.528 191.952 208.328C197.024 206.128 201.984 203.472 207.448 202.912C213.784 202.264 220.008 204.512 226.248 205.784C227.496 206.088 228.784 206.19 230.064 206.088C230.704 206.03 231.324 205.838 231.883 205.524C232.443 205.209 232.93 204.78 233.312 204.264C233.648 203.675 233.844 203.017 233.887 202.34C233.93 201.664 233.818 200.986 233.56 200.36Z" fill="black"/>
</g>
<path d="M229.2 276.68L244.456 266.8C244.456 266.8 259.656 278.984 262.624 277.432L244.512 247.2L220.104 261.6L229.2 276.68Z" fill="#007AFF"/>
<path d="M237.536 258.224C237.449 257.879 237.492 257.515 237.657 257.2C237.823 256.886 238.099 256.643 238.432 256.52C238.774 256.421 239.14 256.456 239.456 256.62C239.772 256.784 240.013 257.063 240.128 257.4C240.217 257.765 240.169 258.149 239.992 258.48C239.814 258.811 239.521 259.065 239.168 259.192C238.802 259.259 238.424 259.181 238.114 258.975C237.803 258.769 237.585 258.451 237.504 258.088" fill="#E0E0E0"/>
<g opacity="0.6">
<path d="M244.512 247.2L242.112 248.752L260.4 277.152C260.4 277.152 261.792 278.152 262.648 277.432L244.512 247.2Z" fill="white"/>
</g>
<path d="M244.584 267.376C244.728 267.288 244.352 266.504 244.392 265.496C244.432 264.488 244.824 263.728 244.688 263.624C244.552 263.52 243.824 264.256 243.8 265.48C243.776 266.704 244.472 267.496 244.584 267.376Z" fill="#263238"/>
<path d="M247.8 269.768C247.96 269.72 247.8 268.968 248.152 268.048C248.504 267.128 249.056 266.632 248.952 266.488C248.848 266.344 247.968 266.752 247.584 267.848C247.2 268.944 247.656 269.848 247.8 269.768Z" fill="#263238"/>
<path d="M252.68 269.296C252.624 269.144 251.768 269.384 251.184 270.248C250.6 271.112 250.696 271.992 250.856 271.984C251.016 271.976 251.192 271.288 251.656 270.584C252.12 269.88 252.752 269.456 252.68 269.296Z" fill="#263238"/>
<path d="M240.856 269.248C240.96 269.104 240.344 268.544 239.904 267.648C239.464 266.752 239.336 265.968 239.16 265.968C238.984 265.968 238.84 266.904 239.376 267.928C239.912 268.952 240.784 269.392 240.856 269.248Z" fill="#263238"/>
<path opacity="0.3" d="M231.608 254.792L238.544 270.616L236.216 272.264L228.216 256.832L231.608 254.792Z" fill="black"/>
<path d="M222.52 192.704C221.896 192.704 201.376 192.248 190.296 199.568L181.496 204.512L181.728 213.392C181.728 213.392 179.848 216.528 180.264 218.408C180.68 220.288 180.208 228.232 180.208 228.232C180.208 228.232 176.92 228.44 176.504 234.088C176.504 234.088 171.944 235.968 169.944 239.312C167.944 242.656 147.448 280.28 146.2 286.344C144.952 292.408 144.104 303.064 148.704 306.616C153.304 310.168 163.6 308.912 163.6 308.912C163.6 308.912 165.064 313.304 174.056 313.512C183.048 313.72 196.832 303.272 196.832 303.272L238.224 275.056L228.4 254.088L213.944 262.928L229.408 244.952C229.408 244.952 236.52 232.832 234.424 220.08C232.88 210.616 222.52 192.704 222.52 192.704Z" fill="#263238"/>
<path d="M226.064 199.2H225.576H224.184C222.968 199.2 221.224 199.2 219.064 199.2C216.904 199.2 214.328 199.304 211.496 199.608C208.422 199.902 205.39 200.535 202.456 201.496C196.208 203.608 191.184 206.96 187.608 209.352L183.4 212.264L182.256 213.064C182.129 213.165 181.989 213.249 181.84 213.312C181.84 213.312 181.952 213.192 182.2 212.992L183.304 212.144C184.272 211.408 185.704 210.36 187.44 209.112C190.984 206.656 196.008 203.24 202.32 201.112C205.284 200.14 208.349 199.509 211.456 199.232C213.985 198.998 216.524 198.894 219.064 198.92C221.224 198.92 222.976 199 224.184 199.064L225.576 199.144C225.74 199.141 225.905 199.16 226.064 199.2Z" fill="#455A64"/>
<path d="M183.832 205.728C183.505 206.057 183.279 206.473 183.184 206.928C183.143 207.161 183.161 207.401 183.237 207.626C183.312 207.851 183.442 208.054 183.616 208.216C183.828 208.41 184.088 208.544 184.37 208.603C184.651 208.662 184.944 208.645 185.216 208.552C185.477 208.432 185.701 208.243 185.864 208.007C186.028 207.77 186.124 207.494 186.144 207.208C186.16 206.97 186.116 206.732 186.017 206.516C185.918 206.299 185.766 206.111 185.576 205.968C185.193 205.701 184.739 205.556 184.272 205.552C184.272 205.552 184.392 205.448 184.664 205.432C185.048 205.409 185.428 205.516 185.744 205.736C185.996 205.892 186.202 206.112 186.342 206.373C186.483 206.634 186.552 206.927 186.544 207.224C186.551 207.598 186.443 207.965 186.236 208.276C186.029 208.587 185.732 208.828 185.384 208.966C185.036 209.105 184.655 209.134 184.291 209.049C183.926 208.965 183.596 208.772 183.344 208.496C183.139 208.289 182.989 208.034 182.908 207.755C182.826 207.475 182.817 207.18 182.88 206.896C182.964 206.52 183.166 206.181 183.456 205.928C183.68 205.736 183.824 205.704 183.832 205.728Z" fill="#455A64"/>
<path d="M191.2 206.808C191.16 206.848 190.872 206.632 190.464 206.216C189.869 205.696 189.452 205.002 189.273 204.233C189.093 203.463 189.16 202.657 189.464 201.928C189.648 201.368 189.816 201.048 189.864 201.064C189.912 201.08 189.864 201.44 189.752 202C189.583 202.699 189.559 203.426 189.68 204.136C189.888 204.826 190.23 205.467 190.688 206.024C191.024 206.48 191.24 206.768 191.2 206.808Z" fill="#455A64"/>
<path d="M192.936 205.744C192.936 205.784 192.616 205.608 192.24 205.216C191.757 204.686 191.399 204.054 191.192 203.368C190.871 202.415 190.857 201.385 191.152 200.424C191.296 200.424 191.152 201.752 191.592 203.248C191.938 204.131 192.389 204.969 192.936 205.744Z" fill="#455A64"/>
<path d="M215.088 199.2C215.024 199.2 215 198.824 214.944 198.232C214.883 197.478 214.713 196.737 214.44 196.032C214.14 195.34 213.717 194.709 213.192 194.168C212.792 193.736 212.536 193.464 212.576 193.416C212.616 193.368 212.936 193.56 213.376 193.952C213.995 194.471 214.483 195.129 214.8 195.872C215.097 196.619 215.239 197.42 215.216 198.224C215.251 198.555 215.207 198.889 215.088 199.2Z" fill="#455A64"/>
<path d="M217.776 199.2C217.712 199.2 217.704 198.824 217.712 198.24C217.758 197.499 217.696 196.755 217.528 196.032C217.26 195.337 216.911 194.677 216.488 194.064C216.176 193.568 216.008 193.264 216.056 193.208C216.104 193.152 216.36 193.44 216.728 193.896C217.243 194.492 217.649 195.175 217.928 195.912C218.12 196.681 218.145 197.484 218 198.264C217.92 198.808 217.832 199.2 217.776 199.2Z" fill="#455A64"/>
<path d="M182.392 290.064C182.477 289.737 182.604 289.423 182.768 289.128C183.048 288.528 183.48 287.656 184.048 286.544C185.184 284.312 186.856 281.104 188.952 277.152C193.144 269.248 199 258.36 205.52 246.368L210.32 237.608C211.779 234.896 212.91 232.019 213.688 229.04C215.01 223.975 215.282 218.694 214.488 213.52C213.964 210.034 212.971 206.635 211.536 203.416C211.032 202.272 210.592 201.408 210.288 200.824L209.936 200.16C209.895 200.086 209.86 200.008 209.832 199.928C209.887 199.995 209.935 200.067 209.976 200.144L210.36 200.784C210.688 201.352 211.16 202.208 211.688 203.344C215.426 211.413 216.243 220.53 214 229.136C213.223 232.151 212.086 235.063 210.616 237.808C209.08 240.632 207.488 243.56 205.864 246.56L189.2 277.288L184.176 286.616L182.824 289.16L182.488 289.832C182.463 289.912 182.431 289.989 182.392 290.064Z" fill="#455A64"/>
<path d="M228.56 262.992C228.419 263.11 228.269 263.217 228.112 263.312L226.784 264.112L221.88 267.2C217.744 269.76 212.048 273.32 205.816 277.352C199.584 281.384 194 285.088 190 287.792L185.2 290.992L183.88 291.84C183.731 291.947 183.573 292.041 183.408 292.12C183.536 291.989 183.678 291.874 183.832 291.776L185.104 290.856L189.824 287.552C193.824 284.792 199.424 281.016 205.624 276.976C211.824 272.936 217.584 269.416 221.76 266.928C223.848 265.68 225.552 264.688 226.728 264.016L228.096 263.216C228.244 263.128 228.399 263.053 228.56 262.992Z" fill="#455A64"/>
<path d="M235.032 277.2C234.877 276.947 234.748 276.679 234.648 276.4L233.648 274.128C232.784 272.216 231.552 269.592 230.168 266.704C228.784 263.816 227.584 261.28 226.64 259.296L225.592 257.04C225.448 256.771 225.335 256.486 225.256 256.192C225.45 256.436 225.612 256.705 225.736 256.992C226.024 257.512 226.424 258.256 226.904 259.192C227.864 261.056 229.168 263.656 230.544 266.552C231.92 269.448 233.12 272.088 233.92 274.04C234.32 275.008 234.616 275.808 234.8 276.368C234.906 276.636 234.984 276.915 235.032 277.2Z" fill="#455A64"/>
<path d="M182.392 290.064C182.32 289.976 189.392 283.72 198.2 276.088C207.008 268.456 214.2 262.344 214.28 262.432C214.36 262.52 207.28 268.8 198.472 276.4C189.664 284 182.472 290.152 182.392 290.064Z" fill="#455A64"/>
<path d="M173.624 304.728C174.271 304.171 174.843 303.534 175.328 302.832C176.184 301.504 177.232 299.552 178.416 297.432C179.6 295.312 180.6 293.336 181.336 291.92C181.694 291.134 182.111 290.378 182.584 289.656C182.328 290.484 181.999 291.287 181.6 292.056C180.928 293.512 179.952 295.496 178.784 297.656C177.616 299.816 176.512 301.704 175.584 303.024C175.212 303.548 174.764 304.014 174.256 304.408C174.069 304.555 173.854 304.664 173.624 304.728Z" fill="#455A64"/>
<path d="M181.12 306.992C181.056 306.992 181.512 306.088 182.016 304.592C182.645 302.629 183.079 300.608 183.312 298.56C183.597 296.522 183.597 294.454 183.312 292.416C183.218 291.807 183.037 291.214 182.776 290.656C182.64 290.473 182.522 290.277 182.424 290.072C182.424 290.072 182.632 290.208 182.912 290.576C183.245 291.125 183.478 291.729 183.6 292.36C183.987 294.421 184.041 296.53 183.76 298.608C183.529 300.688 183.046 302.733 182.32 304.696C182.096 305.288 181.829 305.863 181.52 306.416C181.28 306.8 181.144 307.008 181.12 306.992Z" fill="#455A64"/>
<path d="M172.456 294.84C172.967 294.607 173.504 294.435 174.056 294.328C175.317 293.986 176.55 293.547 177.744 293.016C180.52 291.72 182.336 289.936 182.432 290.064C182.084 290.505 181.668 290.888 181.2 291.2C180.187 292.07 179.059 292.797 177.848 293.36C176.633 293.908 175.362 294.318 174.056 294.584C173.537 294.741 172.998 294.827 172.456 294.84Z" fill="#455A64"/>
<path d="M183.04 236.712C183.01 236.772 182.972 236.829 182.928 236.88L182.576 237.352C182.264 237.768 181.816 238.384 181.28 239.2C179.773 241.526 178.502 243.997 177.488 246.576C176.019 250.414 174.798 254.342 173.832 258.336C172.64 262.824 171.432 267.824 169.424 272.816C167.416 277.808 164.808 282.24 163.16 286.576C161.611 290.378 160.768 294.431 160.672 298.536C160.671 300.106 160.849 301.67 161.2 303.2C161.482 304.354 161.864 305.481 162.344 306.568C162.65 307.256 162.994 307.927 163.376 308.576C163.488 308.784 163.584 308.952 163.664 309.088C163.699 309.146 163.728 309.208 163.752 309.272C163.703 309.224 163.66 309.17 163.624 309.112L163.304 308.624C162.892 307.987 162.521 307.324 162.192 306.64C161.683 305.552 161.276 304.419 160.976 303.256C160.597 301.708 160.395 300.122 160.376 298.528C160.418 294.382 161.232 290.28 162.776 286.432C164.416 282.056 166.952 277.584 169.008 272.648C171.064 267.712 172.208 262.712 173.424 258.248C174.415 254.244 175.671 250.31 177.184 246.472C178.226 243.887 179.543 241.423 181.112 239.12C181.672 238.32 182.144 237.704 182.48 237.312L182.864 236.864C182.984 236.8 183.032 236.704 183.04 236.712Z" fill="#455A64"/>
<path d="M184.4 211.464C184.283 211.798 184.144 212.124 183.984 212.44C183.602 213.32 183.333 214.244 183.184 215.192C183.005 216.599 183.054 218.025 183.328 219.416C183.576 221.016 184.24 222.616 184.688 224.488C184.915 225.392 184.993 226.327 184.92 227.256C184.851 228.111 184.714 228.959 184.512 229.792C184.173 231.192 183.759 232.573 183.272 233.928C182.864 235.088 182.472 236.008 182.248 236.648C182.138 236.986 181.99 237.311 181.808 237.616C181.873 237.267 181.969 236.924 182.096 236.592C182.336 235.864 182.632 234.936 182.992 233.832C183.352 232.728 183.792 231.28 184.136 229.704C184.594 228.034 184.644 226.277 184.28 224.584C183.848 222.8 183.176 221.112 182.952 219.48C182.684 218.049 182.663 216.582 182.888 215.144C183.059 214.179 183.374 213.246 183.824 212.376C183.94 212.138 184.071 211.909 184.216 211.688C184.312 211.536 184.4 211.456 184.4 211.464Z" fill="#455A64"/>
<path d="M185.36 235.536C186.249 234.543 186.935 233.385 187.376 232.128C187.821 230.76 188.032 229.326 188 227.888C187.937 226.117 187.718 224.356 187.344 222.624C186.955 220.878 186.659 219.113 186.456 217.336C186.328 215.87 186.358 214.395 186.544 212.936C186.659 211.951 186.896 210.983 187.248 210.056C187.342 209.805 187.454 209.562 187.584 209.328C187.68 209.168 187.728 209.088 187.744 209.088C187.76 209.088 187.608 209.456 187.4 210.112C187.112 211.044 186.922 212.004 186.832 212.976C186.696 214.413 186.696 215.859 186.832 217.296C186.984 218.896 187.384 220.68 187.744 222.544C188.125 224.301 188.336 226.09 188.376 227.888C188.392 229.366 188.143 230.834 187.64 232.224C187.304 233.166 186.8 234.038 186.152 234.8C185.973 235.002 185.78 235.192 185.576 235.368C185.448 235.488 185.368 235.544 185.36 235.536Z" fill="#455A64"/>
<path d="M205.648 229.232C205.332 229.321 205.008 229.38 204.68 229.408C204.056 229.488 203.152 229.632 202.048 229.824C199.163 230.324 196.322 231.052 193.552 232C190.785 232.96 188.097 234.134 185.512 235.512C184.52 236.048 183.728 236.488 183.184 236.808C182.912 236.994 182.62 237.147 182.312 237.264C182.556 237.038 182.824 236.839 183.112 236.672C183.632 236.312 184.408 235.824 185.384 235.256C190.512 232.317 196.15 230.373 202 229.528C203.12 229.376 204.032 229.28 204.664 229.248C204.99 229.202 205.321 229.197 205.648 229.232Z" fill="#455A64"/>
<path d="M206.952 220.504C206.952 220.584 205.768 220.568 203.904 220.856C202.82 221.028 201.751 221.28 200.704 221.608C198.121 222.419 195.704 223.687 193.568 225.352C192.696 226.032 191.875 226.775 191.112 227.576C189.816 228.944 189.16 229.928 189.096 229.88C189.2 229.621 189.34 229.378 189.512 229.16C189.928 228.531 190.39 227.935 190.896 227.376C191.629 226.533 192.431 225.754 193.296 225.048C194.374 224.195 195.525 223.44 196.736 222.792C197.963 222.163 199.242 221.644 200.56 221.24C201.635 220.922 202.735 220.698 203.848 220.568C204.598 220.468 205.355 220.425 206.112 220.44C206.394 220.428 206.675 220.45 206.952 220.504Z" fill="#455A64"/>
<path d="M208.736 238.808C208.451 238.955 208.151 239.071 207.84 239.152C207.248 239.344 206.408 239.632 205.36 240C202.652 240.968 199.999 242.087 197.416 243.352C194.84 244.626 192.34 246.047 189.928 247.608C189 248.208 188.256 248.704 187.744 249.056C187.496 249.252 187.228 249.421 186.944 249.56C187.161 249.321 187.405 249.109 187.672 248.928C188.152 248.536 188.872 248 189.784 247.328C192.162 245.68 194.659 244.212 197.256 242.936C199.841 241.659 202.514 240.571 205.256 239.68C206.312 239.352 207.176 239.104 207.776 238.96C208.088 238.869 208.411 238.818 208.736 238.808Z" fill="#455A64"/>
<path d="M234 217.872C233.724 217.815 233.456 217.726 233.2 217.608C232.704 217.416 231.976 217.144 231.032 216.808C228.431 215.956 225.751 215.369 223.032 215.056L223.232 214.872C223.328 218.32 223.304 222.408 223 226.768C222.713 231.016 222.149 235.241 221.312 239.416V239.328C222.052 241.749 222.941 244.122 223.976 246.432C224.352 247.232 224.696 247.888 224.928 248.32C225.067 248.528 225.192 248.744 225.304 248.968C225.129 248.784 224.974 248.583 224.84 248.368C224.455 247.773 224.105 247.156 223.792 246.52C222.689 244.227 221.751 241.858 220.984 239.432V239.392V239.344C221.766 235.176 222.3 230.966 222.584 226.736C222.888 222.392 222.928 218.32 222.88 214.88V214.672H223.088C225.816 215.012 228.499 215.65 231.088 216.576C232.024 216.92 232.736 217.232 233.224 217.448C233.495 217.566 233.755 217.707 234 217.872Z" fill="#455A64"/>
<path d="M234.608 221.344C234.036 221.238 233.474 221.082 232.928 220.88C231.904 220.576 230.472 220.176 228.88 219.808C225.68 219.056 223.072 218.576 223.088 218.456C223.673 218.433 224.259 218.484 224.832 218.608C225.904 218.76 227.368 219.016 228.976 219.408C232.2 220.128 234.664 221.232 234.608 221.344Z" fill="#455A64"/>
<path d="M230.8 209.032C230.8 209.088 229.824 208.808 228.264 208.44C226.231 207.965 224.167 207.636 222.088 207.456C220.007 207.293 217.917 207.267 215.832 207.376C214.965 207.457 214.094 207.489 213.224 207.472C213.444 207.385 213.676 207.331 213.912 207.312C214.36 207.24 215.008 207.152 215.808 207.08C217.907 206.886 220.019 206.873 222.12 207.04C224.222 207.216 226.303 207.589 228.336 208.152C229.136 208.376 229.736 208.576 230.152 208.744C230.382 208.805 230.601 208.902 230.8 209.032Z" fill="#455A64"/>
<path d="M214.488 212.64C214.145 212.783 213.788 212.892 213.424 212.968C212.736 213.152 211.728 213.376 210.464 213.6C207.177 214.174 203.832 214.341 200.504 214.096C198.576 213.904 196.648 213.696 195.144 212.752C194.435 212.309 193.858 211.685 193.472 210.944C193.153 210.277 193.057 209.525 193.2 208.8C193.362 207.796 193.661 206.818 194.088 205.896C194.223 205.546 194.415 205.222 194.656 204.936C194.656 204.936 194.496 205.296 194.24 205.952C193.879 206.882 193.627 207.851 193.488 208.84C193.386 209.498 193.492 210.172 193.792 210.768C194.171 211.436 194.724 211.989 195.392 212.368C196.792 213.232 198.672 213.44 200.584 213.624C203.884 213.863 207.2 213.737 210.472 213.248C211.728 213.072 212.744 212.888 213.44 212.752C213.785 212.683 214.136 212.645 214.488 212.64Z" fill="#455A64"/>
<path d="M212.448 69.2476C208.624 60.9596 199.16 62.5916 194.632 64.7916C190.081 66.94 186.508 70.725 184.624 75.3916C183.296 78.5916 182.224 82.2396 179.552 84.1916C178.323 84.9212 177.055 85.5809 175.752 86.1676C175.083 86.4921 174.496 86.9636 174.035 87.5468C173.573 88.13 173.25 88.8098 173.088 89.5356C172.688 92.2956 175.488 94.2076 177.792 95.3196C176.408 96.2636 176.048 98.3996 176.536 100.12C177.127 101.763 178.059 103.263 179.272 104.52C183.353 109.026 188.022 112.962 193.152 116.224C197.52 118.944 200.352 119.264 205.04 117.312C206.944 116.512 208.72 115.216 210.752 114.984C213.112 114.72 215.368 115.928 217.704 116.416C220.04 116.904 222.984 116.232 223.744 113.776C223.932 112.797 224.039 111.804 224.064 110.808C224.184 109.824 224.672 108.752 225.56 108.528C226.28 108.344 227 108.784 227.704 109.016C229.392 109.576 231.936 122.104 233.552 121.344C233.552 121.344 235.904 100.112 231.376 87.6876C229.928 83.6876 226.84 75.2716 224.376 71.9836C220.984 67.4716 212.856 68.4716 212.448 69.2716" fill="#263238"/>
<path d="M207.6 70.6235C201.576 68.5195 193.448 73.1435 191.6 79.2475C189.544 86.0235 187.312 94.3835 186.92 99.7115C186.12 110.424 193.744 113.6 193.744 113.6L190.648 130.344L216.752 121.904L225.864 82.4475L226.712 79.1355L207.6 70.6235Z" fill="#FFBE9D"/>
<path d="M191.6 87.5039C191.688 87.7359 192.928 87.3999 194.288 87.9359C195.648 88.4719 196.384 89.5359 196.592 89.4399C196.8 89.3439 196.656 89.0399 196.344 88.5519C195.915 87.9102 195.297 87.418 194.576 87.1439C193.87 86.8568 193.089 86.8063 192.352 86.9999C191.816 87.1999 191.6 87.3999 191.6 87.5039Z" fill="#263238"/>
<path d="M205.112 91.0638C205.272 91.2478 206.352 90.5598 207.808 90.6638C209.264 90.7678 210.288 91.5678 210.464 91.3998C210.64 91.2318 210.4 90.9918 209.952 90.5998C209.349 90.1236 208.615 89.8443 207.848 89.7998C207.087 89.7452 206.328 89.9328 205.68 90.3358C205.2 90.6638 205.04 90.9758 205.112 91.0638Z" fill="#263238"/>
<path d="M199.048 97.0559C198.353 96.6428 197.609 96.3202 196.832 96.0959C196.48 95.9679 196.152 95.8159 196.152 95.5519C196.207 95.1697 196.381 94.8144 196.648 94.5359L198.368 92.0159C200.768 88.4239 202.632 85.4319 202.488 85.3359C202.344 85.2399 200.264 88.0719 197.84 91.6639C197.256 92.5599 196.696 93.3999 196.16 94.2159C195.824 94.5991 195.637 95.0902 195.632 95.5999C195.656 95.7398 195.711 95.8727 195.792 95.9889C195.874 96.1051 195.98 96.2017 196.104 96.2719C196.296 96.3689 196.497 96.4466 196.704 96.5039C197.459 96.7869 198.246 96.9724 199.048 97.0559Z" fill="#263238"/>
<path d="M193.752 113.6C198.709 114.847 203.912 114.717 208.8 113.224C208.8 113.224 203.736 119.672 193.264 116.216L193.752 113.6Z" fill="#EB996E"/>
<path d="M198.272 101.84C198.136 101.663 198.337 102.057 198.272 101.84V101.84Z" fill="#EB996E"/>
<path d="M202.92 101.144C202.763 100.814 202.54 100.521 202.265 100.281C201.99 100.042 201.668 99.8614 201.32 99.7518C200.849 99.583 200.343 99.5362 199.849 99.616C199.355 99.6957 198.89 99.8993 198.496 100.208C198.335 100.438 198.229 100.701 198.186 100.979C198.143 101.256 198.164 101.54 198.248 101.808C198.752 102.456 198.8 103 199.504 103.408C200.011 103.575 200.548 103.63 201.079 103.569C201.609 103.508 202.12 103.333 202.576 103.056C202.822 102.811 202.987 102.496 203.049 102.154C203.11 101.812 203.065 101.459 202.92 101.144Z" fill="#EB996E"/>
<path d="M203.016 99.0239C202.784 98.9599 202.416 100.504 200.84 101.288C199.264 102.072 197.64 101.52 197.584 101.736C197.584 101.824 197.88 102.12 198.576 102.304C199.477 102.53 200.429 102.431 201.264 102.024C202.069 101.63 202.688 100.939 202.992 100.096C203.208 99.4639 203.12 99.0399 203.016 99.0239Z" fill="#263238"/>
<path d="M208.056 83.52C207.976 83.928 209.168 84.32 210.376 85.232C211.584 86.144 212.408 87.08 212.776 86.832C212.936 86.72 212.928 86.296 212.688 85.728C212.364 85.0224 211.859 84.4152 211.224 83.968C210.607 83.5116 209.876 83.2348 209.112 83.168C208.48 83.2 208.096 83.328 208.056 83.52Z" fill="#263238"/>
<path d="M192.48 82.0236C192.792 82.3276 193.888 81.8716 195.232 81.7276C196.576 81.5836 197.752 81.7276 197.984 81.3436C198.08 81.1596 197.872 80.8476 197.336 80.5436C196.617 80.221 195.821 80.1073 195.04 80.2156C194.26 80.2974 193.519 80.5999 192.904 81.0876C192.456 81.5196 192.336 81.8716 192.48 82.0236Z" fill="#263238"/>
<path d="M228.184 79.1118C227.735 78.3109 227.031 77.683 226.184 77.3278C220.991 74.4777 215.613 71.9762 210.088 69.8398L207.816 71.1278C207.518 73.3409 207.883 75.5927 208.866 77.5979C209.849 79.6031 211.404 81.2716 213.336 82.3918C214.888 83.2558 216.904 84.0718 217.104 85.8398C217.304 87.6078 215.392 88.9198 214.312 90.4078C213.652 91.3367 213.282 92.4407 213.249 93.5799C213.216 94.7192 213.522 95.8425 214.128 96.8078C214.824 97.8878 215.88 98.7038 216.528 99.8158C216.93 100.571 217.157 101.405 217.195 102.259C217.232 103.113 217.078 103.965 216.744 104.752C216.096 106.352 215.016 108.456 213.544 109.344C215.531 109.79 217.608 109.606 219.485 108.816C221.363 108.025 222.946 106.669 224.016 104.936C225.232 102.872 225.328 100.368 225.488 97.9758C225.855 92.5349 226.72 87.139 228.072 81.8558C228.413 80.9789 228.452 80.0136 228.184 79.1118Z" fill="#263238"/>
<path d="M210.448 70.0877C209.049 71.9392 207.367 73.559 205.464 74.8877C203.496 76.1117 200.984 76.6877 198.832 75.8237C199.368 75.2317 199.912 74.6397 200.432 74.0397C196.602 76.6621 192.267 78.4551 187.704 79.3037C190.568 75.8237 193.52 72.2717 197.432 70.0237C201.344 67.7757 206.472 67.0877 210.288 69.4797" fill="#263238"/>
<path d="M228.712 90.3198L216.52 99.7918C217.92 101.32 217.376 105.208 216 106.752C214.624 108.296 212.8 109.616 212.264 111.616C211.672 113.8 212.832 116.064 212.864 118.328C212.912 121.528 210.76 124.28 209.096 127.016C207.432 129.752 206.232 133.416 208.088 136.032C210.176 138.976 214.904 138.552 217.76 136.352C220.616 134.152 222.248 130.752 224.368 127.84C226.488 124.928 229.8 122.696 233.392 123.04C234.506 111.915 232.9 100.686 228.712 90.3198Z" fill="#263238"/>
<path d="M230.752 116.728C230.68 116.592 231.4 116.072 232.632 115.08C234.371 113.737 235.921 112.165 237.24 110.408C238.111 109.21 238.803 107.892 239.296 106.496C239.864 104.929 240.109 103.264 240.016 101.6C239.889 99.7866 239.314 98.033 238.344 96.4959C237.26 94.812 235.887 93.3332 234.288 92.1279C231.008 89.5759 227.088 88.1279 223.664 86.5999C220.477 85.3687 217.469 83.7167 214.72 81.6879C212.844 80.288 211.292 78.5009 210.168 76.4479C209.424 74.9679 209.304 74.0479 209.416 74.0479C209.528 74.0479 209.952 74.7919 210.856 76.0559C212.163 77.8126 213.765 79.3286 215.592 80.5359C218.355 82.2907 221.31 83.7215 224.4 84.7999C226.144 85.4959 228.008 86.2159 229.912 87.0959C231.931 88.004 233.839 89.1393 235.6 90.4799C237.395 91.8426 238.926 93.5206 240.12 95.4319C241.239 97.2672 241.875 99.3562 241.968 101.504C242.021 103.422 241.672 105.329 240.944 107.104C240.329 108.625 239.482 110.042 238.432 111.304C236.938 113.086 235.139 114.589 233.12 115.744C231.672 116.56 230.8 116.84 230.752 116.728Z" fill="#263238"/>
<path d="M230.984 87.9999C230.618 87.924 230.261 87.8087 229.92 87.6559C229.248 87.4079 228.32 87.0319 227.096 86.5359C223.974 85.2987 221.041 83.629 218.384 81.5759C215.715 79.4789 213.707 76.6569 212.6 73.4479C212.278 72.4776 212.087 71.4687 212.032 70.4479C212.018 70.1814 212.018 69.9143 212.032 69.6479C212.019 69.5523 212.019 69.4554 212.032 69.3599C212.155 70.7179 212.423 72.0589 212.832 73.3599C214.01 76.4649 216.005 79.1933 218.608 81.2559C221.243 83.279 224.122 84.9641 227.176 86.2719L229.944 87.5039C230.305 87.6367 230.653 87.8028 230.984 87.9999Z" fill="#455A64"/>
<path d="M231.368 100.112C231.32 100.112 231.568 99.632 231.696 98.736C231.838 97.4544 231.613 96.1588 231.048 95C230.221 93.2751 228.944 91.8049 227.352 90.744C225.6 89.472 223.424 88.464 221.248 87.16C219.191 85.9372 217.348 84.386 215.792 82.568C214.518 81.0845 213.442 79.4413 212.592 77.68C212.026 76.4979 211.578 75.2625 211.256 73.992C211.128 73.544 211.08 73.192 211.032 72.952C210.995 72.833 210.978 72.7085 210.984 72.584C211.151 73.0317 211.292 73.4884 211.408 73.952C211.789 75.1903 212.274 76.3945 212.856 77.552C213.717 79.2802 214.792 80.8929 216.056 82.352C217.596 84.1284 219.411 85.6463 221.432 86.848C223.576 88.128 225.768 89.16 227.544 90.472C229.176 91.5833 230.471 93.1221 231.288 94.92C231.847 96.1315 232.034 97.4821 231.824 98.8C231.762 99.1528 231.657 99.4967 231.512 99.824C231.44 100 231.384 100.12 231.368 100.112Z" fill="#455A64"/>
<path d="M163.952 91.9999C163.952 91.9999 163.952 91.9519 164.024 91.8719C164.104 91.7488 164.192 91.6312 164.288 91.5199C164.655 91.0808 165.121 90.7353 165.648 90.5119C166.497 90.2146 167.389 90.0605 168.288 90.0559C169.32 89.9999 170.504 89.9199 171.808 89.9199C173.218 89.945 174.627 89.8135 176.008 89.5279C177.567 89.1273 179.01 88.3685 180.224 87.3119C181.561 86.1248 182.72 84.7506 183.664 83.2319C184.668 81.5856 185.584 79.8872 186.408 78.1439C187.249 76.3885 188.212 74.6937 189.288 73.0719C190.305 71.5478 191.583 70.2154 193.064 69.1359C195.615 67.357 198.635 66.3717 201.744 66.3039C203.823 66.2315 205.895 66.5968 207.824 67.3759L208.72 67.7679L209.336 68.1199C209.512 68.2099 209.681 68.3143 209.84 68.4319C209.654 68.3704 209.474 68.29 209.304 68.1919L208.664 67.8799L207.768 67.5279C205.845 66.8197 203.799 66.5042 201.752 66.5999C198.715 66.7101 195.774 67.6995 193.288 69.4479C191.85 70.5079 190.609 71.8132 189.624 73.3039C188.568 74.9032 187.625 76.5739 186.8 78.3039C185.966 80.0614 185.04 81.7731 184.024 83.4319C183.055 84.979 181.863 86.3752 180.488 87.5759C179.225 88.6642 177.723 89.4398 176.104 89.8399C174.695 90.1192 173.259 90.2373 171.824 90.1919C170.52 90.1919 169.352 90.1919 168.312 90.2639C167.436 90.2469 166.563 90.3739 165.728 90.6399C165.211 90.8357 164.745 91.1477 164.368 91.5519C164.239 91.7096 164.1 91.8592 163.952 91.9999Z" fill="#455A64"/>
<path d="M159.056 81.2078C154.256 69.0878 147.856 57.2078 146.976 48.1758L137.416 48.5598C137.616 52.0558 138.872 81.1518 145.648 92.6558C152.424 104.16 175.048 131.056 175.048 131.056L183.008 110.584C183.008 110.584 163.864 93.3358 159.056 81.2078Z" fill="#FFBE9D"/>
<path d="M143.12 29.3599H138.936C138.936 29.3599 139.344 31.8239 141.24 31.9599C143.136 32.0959 142.768 31.6639 142.768 31.6639L142.344 32.0559L139.736 32.5679C139.736 32.5679 139.864 34.5999 141.584 34.9199L144.12 32.5679L143.12 29.3599Z" fill="#FFBE9D"/>
<path d="M154.576 28.9918C154.192 32.1438 154.152 31.9518 154.152 31.9518L150.328 35.1038L149.352 30.4638C149.289 30.1563 149.126 29.8782 148.889 29.6728C148.652 29.4674 148.353 29.3461 148.04 29.3278L146.304 29.2158C146.304 29.2158 146.976 26.8158 144.792 27.0158C144.792 27.0158 143.592 26.6878 142.624 30.7038C141.568 35.0958 137.024 45.4158 137.416 48.8638L147.112 49.2558C147.008 46.0558 149.648 42.6398 150.952 41.1678C151.346 40.7295 151.621 40.1981 151.752 39.6238C151.931 38.8348 152.305 38.1032 152.84 37.4958C154.04 36.1678 156.56 33.7758 156.56 33.7758V26.4718C156.56 26.4718 154.944 25.9518 154.576 28.9918ZM146.8 36.0478L144.808 36.9518L145.144 34.9198L146.8 34.7598V36.0478Z" fill="#FFBE9D"/>
<path d="M144.704 37.1679C144.703 36.8798 144.735 36.5926 144.8 36.3119C144.896 35.7599 145.032 34.9759 145.216 33.9999L145.888 30.5919C146.046 29.9368 146.155 29.271 146.216 28.5999C146.216 27.9519 145.976 27.2079 145.28 27.1679C144.584 27.1279 144.072 27.5999 143.736 28.1679C143.576 28.463 143.447 28.774 143.352 29.0959L143.04 30.0479L142 33.3599C141.688 34.3039 141.4 35.0559 141.2 35.5679C141.109 35.8522 140.977 36.1217 140.808 36.3679C140.854 36.0923 140.935 35.8236 141.048 35.5679C141.216 35.0399 141.464 34.2799 141.736 33.3359C142.008 32.3919 142.336 31.2239 142.688 29.9919C142.792 29.6719 142.888 29.3519 142.992 29.0239C143.089 28.6735 143.226 28.3354 143.4 28.0159C143.594 27.6783 143.849 27.3799 144.152 27.1359C144.321 27.0029 144.515 26.9052 144.723 26.8489C144.93 26.7925 145.147 26.7786 145.36 26.8079C145.574 26.8425 145.78 26.9157 145.968 27.0239C146.149 27.1501 146.297 27.3174 146.4 27.5119C146.574 27.87 146.657 28.2659 146.64 28.6639C146.574 29.3576 146.453 30.045 146.28 30.7199L145.48 34.1199C145.264 35.0799 145.08 35.8639 144.936 36.3999C144.892 36.6649 144.814 36.923 144.704 37.1679Z" fill="#EB996E"/>
<path d="M146.688 36.0717C146.591 35.2916 146.551 34.5055 146.568 33.7197C146.568 33.3997 146.52 33.0957 146.496 32.8157C146.509 32.605 146.443 32.397 146.312 32.2317C146.04 32.0317 145.712 32.0317 145.728 31.9597C145.744 31.8877 145.8 31.9037 145.928 31.8877C146.121 31.8605 146.318 31.897 146.488 31.9917C146.607 32.088 146.704 32.2099 146.77 32.3483C146.837 32.4867 146.871 32.6381 146.872 32.7917C146.932 33.1005 146.969 33.4134 146.984 33.7277C147.096 34.5214 146.993 35.3306 146.688 36.0717Z" fill="#EB996E"/>
<path d="M151.44 34.288C151.44 34.288 151.176 34.64 150.64 35.088C149.963 35.6881 149.21 36.1964 148.4 36.6C147.556 36.9659 146.654 37.1799 145.736 37.232C145.364 37.3047 144.981 37.3047 144.608 37.232C144.954 37.0846 145.321 36.9954 145.696 36.968C146.566 36.8368 147.416 36.5948 148.224 36.248C149.02 35.8625 149.78 35.4074 150.496 34.888C151.04 34.472 151.4 34.24 151.44 34.288Z" fill="#EB996E"/>
<path d="M227.464 125.152C227.464 125.152 238.232 124.832 244.68 122.912C251.128 120.992 275.88 115.104 275.88 115.104L315.6 108.48L316.4 118.752C316.4 118.752 279.496 129.544 272.328 132C265.16 134.456 232.4 145.696 226.208 144.272L222.368 136.376L227.464 125.152Z" fill="#FFBE9D"/>
<path d="M334.696 96.4C334.048 96.256 330.832 97.72 330.832 97.72C331.138 97.3483 331.311 96.8846 331.323 96.403C331.334 95.9215 331.184 95.45 330.896 95.064L326.48 97.232C325.313 98.4157 324.082 99.5347 322.792 100.584C320.761 102.455 318.887 104.492 317.192 106.672L314.552 109.128L316.192 118.848C317.347 118.944 318.509 118.792 319.6 118.4C320.968 117.768 322.968 115.2 322.968 115.2L326.736 114.88C327.175 114.848 327.593 114.683 327.936 114.408C328.276 114.077 328.537 113.673 328.699 113.227C328.861 112.781 328.92 112.304 328.872 111.832C331.272 110.472 329.872 108.744 329.872 108.744C330.63 108.651 331.323 108.27 331.808 107.68C332.013 107.36 332.113 106.984 332.091 106.604C332.069 106.225 331.928 105.862 331.688 105.568C331.24 104.768 327.784 105.016 327.784 105.016L327.6 104C327.6 104 332.88 99.808 334.064 98.896C335.248 97.984 335.304 96.536 334.696 96.4Z" fill="#FFBE9D"/>
<path d="M330.896 97.5996C330.516 98.3578 329.969 99.0197 329.296 99.5356C328.612 100.121 327.967 100.752 327.368 101.424C326.702 102.288 326.221 103.279 325.952 104.336C325.674 105.442 325.277 106.515 324.768 107.536C324.332 108.352 323.794 109.11 323.168 109.792C322.745 110.246 322.282 110.661 321.784 111.032C321.611 111.179 321.413 111.295 321.2 111.376C321.152 111.32 321.952 110.768 322.952 109.592C323.529 108.907 324.026 108.158 324.432 107.36C324.91 106.364 325.29 105.325 325.568 104.256C325.849 103.146 326.364 102.109 327.08 101.216C327.706 100.541 328.386 99.9172 329.112 99.3516C329.742 98.8042 330.337 98.2191 330.896 97.5996Z" fill="#EB996E"/>
<path d="M328.952 111.808C328.415 112.172 327.82 112.442 327.192 112.608C326.513 112.836 325.81 112.981 325.096 113.04C324.673 113.072 324.247 113.072 323.824 113.04C323.34 113.006 322.874 112.846 322.472 112.576C322.263 112.427 322.093 112.23 321.976 112.002C321.859 111.773 321.799 111.52 321.8 111.264C321.889 110.803 322.139 110.39 322.504 110.096C322.796 109.817 323.154 109.616 323.544 109.512C323.896 109.416 324.216 109.344 324.512 109.288C325.139 109.098 325.794 109.022 326.448 109.064C326.448 109.112 325.728 109.256 324.576 109.568L323.648 109.84C323.314 109.942 323.012 110.126 322.768 110.376C322.489 110.612 322.293 110.932 322.208 111.288C322.21 111.476 322.257 111.661 322.346 111.827C322.435 111.993 322.564 112.135 322.72 112.24C323.443 112.616 324.262 112.766 325.072 112.672C325.759 112.632 326.44 112.519 327.104 112.336C328.248 112.04 328.928 111.744 328.952 111.808Z" fill="#EB996E"/>
<path d="M330 108.744C329.582 108.977 329.118 109.117 328.64 109.152C328.13 109.239 327.613 109.276 327.096 109.264C326.756 109.288 326.416 109.238 326.098 109.116C325.78 108.994 325.493 108.804 325.256 108.56C325.053 108.272 324.938 107.931 324.924 107.579C324.91 107.228 324.997 106.879 325.176 106.576C325.446 106.1 325.857 105.72 326.352 105.488C326.771 105.244 327.244 105.109 327.728 105.096C327.728 105.16 327.224 105.32 326.496 105.744C326.082 105.981 325.744 106.33 325.52 106.752C325.385 106.989 325.319 107.259 325.329 107.532C325.339 107.804 325.424 108.069 325.576 108.296C325.779 108.492 326.02 108.645 326.284 108.746C326.548 108.846 326.83 108.892 327.112 108.88C327.61 108.913 328.11 108.913 328.608 108.88C329.068 108.8 329.533 108.754 330 108.744Z" fill="#EB996E"/>
<path d="M327.392 114.744C327.043 114.918 326.667 115.035 326.28 115.088C325.369 115.341 324.425 115.454 323.48 115.424C323.319 115.431 323.159 115.403 323.011 115.34C322.863 115.278 322.731 115.184 322.624 115.064C322.451 114.834 322.363 114.551 322.376 114.264C322.394 114.029 322.464 113.801 322.58 113.597C322.696 113.392 322.856 113.216 323.048 113.08C323.752 112.656 324.264 112.92 324.232 112.952C323.871 112.99 323.525 113.116 323.224 113.32C323.084 113.439 322.971 113.586 322.891 113.751C322.811 113.916 322.766 114.096 322.76 114.28C322.756 114.478 322.818 114.672 322.936 114.832C323.008 114.908 323.097 114.966 323.196 115.002C323.294 115.039 323.4 115.051 323.504 115.04C324.415 115.06 325.326 114.991 326.224 114.832C326.604 114.728 327.001 114.698 327.392 114.744Z" fill="#EB996E"/>
<path d="M209.2 159.256C208.97 159.433 208.717 159.578 208.448 159.688C207.739 160.018 207.003 160.286 206.248 160.488C203.733 161.223 201.08 161.354 198.504 160.872C195.932 160.387 193.514 159.289 191.456 157.672C190.838 157.189 190.262 156.653 189.736 156.072C189.532 155.866 189.354 155.634 189.208 155.384C189.272 155.328 190.056 156.28 191.608 157.448C193.67 158.968 196.045 160.009 198.56 160.496C201.076 160.968 203.665 160.884 206.144 160.248C208.056 159.76 209.152 159.2 209.2 159.256Z" fill="#007AFF"/>
<path d="M191.016 129.672C191.016 129.672 216.328 121.576 217.272 121.32C218.216 121.064 240.544 123.056 240.544 123.056C240.544 123.056 239.6 137.848 245.2 142.64L228.776 148.56L223.6 162.808C223.6 162.808 220.712 168.616 223.008 174.064C227.352 184.376 234.888 200.648 233.776 202.512C233.656 202.704 232.976 196.912 222.264 193.84C219.016 192.92 213.12 192.904 207.784 193.984C184.824 198.608 175.96 209.184 173.384 211.032C173.384 211.032 178.112 173.936 175.88 168.144C173.648 162.352 171.28 158.544 173.12 153.416C174.96 148.288 177.72 140 177.72 140L168.672 129.76L181.312 108.744L192.88 118.344L191.016 129.672Z" fill="#007AFF"/>
<path d="M199.432 164.04C199.143 164.077 198.849 164.077 198.56 164.04C197.766 164.008 196.976 163.906 196.2 163.736C193.616 163.174 191.232 161.922 189.304 160.112C187.382 158.29 186.029 155.95 185.408 153.376C185.224 152.588 185.116 151.784 185.088 150.976C185.063 150.687 185.079 150.396 185.136 150.112C185.262 151.172 185.449 152.225 185.696 153.264C186.382 155.747 187.729 157.997 189.592 159.776C191.476 161.531 193.774 162.781 196.272 163.408C198.192 164 199.432 164 199.432 164.04Z" fill="#263238"/>
<path d="M175.664 132.68C176.65 133.938 177.26 135.45 177.424 137.04C177.724 138.611 177.58 140.234 177.008 141.728C177.164 140.19 177.164 138.641 177.008 137.104C176.71 135.587 176.26 134.105 175.664 132.68Z" fill="#263238"/>
<path d="M229.384 137.064C229.384 137.128 228.864 137.488 228.096 138.232C227.102 139.194 226.301 140.337 225.736 141.6C225.175 142.861 224.87 144.22 224.84 145.6C224.84 146.664 224.944 147.32 224.84 147.336C224.612 146.786 224.501 146.195 224.512 145.6C224.452 144.162 224.726 142.73 225.312 141.416C225.892 140.1 226.758 138.93 227.848 137.992C228.292 137.582 228.815 137.267 229.384 137.064Z" fill="#263238"/>
<g opacity="0.3">
<path d="M195.672 163.488C193.231 163.003 191.009 161.747 189.336 159.904C188.2 158.813 187.271 157.525 186.592 156.104C186.016 158.616 189.512 163.072 192.92 164.712C194.647 165.517 196.539 165.909 198.444 165.856C200.349 165.803 202.216 165.307 203.896 164.408C201.131 164.379 198.375 164.07 195.672 163.488Z" fill="black"/>
</g>
<path d="M226.672 181.872C226.672 181.92 226.008 181.416 224.696 180.824C222.829 180.018 220.818 179.599 218.784 179.592C215.759 179.573 212.763 180.181 209.984 181.376C206.613 182.894 203.398 184.738 200.384 186.88C194.828 190.731 188.903 194.019 182.696 196.696C180.296 197.712 178.344 198.44 176.976 198.912C176.296 199.16 175.76 199.328 175.376 199.44C175.195 199.51 175.008 199.561 174.816 199.592C174.986 199.495 175.165 199.417 175.352 199.36L176.904 198.76C178.256 198.24 180.2 197.48 182.56 196.424C188.722 193.683 194.614 190.373 200.16 186.536C203.195 184.374 206.441 182.525 209.848 181.016C212.679 179.822 215.728 179.236 218.8 179.296C220.867 179.33 222.904 179.802 224.776 180.68C225.455 180.997 226.092 181.398 226.672 181.872Z" fill="white"/>
<path d="M222.096 168.608C221.615 168.181 221.108 167.785 220.576 167.424C219.083 166.509 217.388 165.976 215.64 165.872C213.044 165.749 210.454 166.225 208.072 167.264C205.143 168.536 202.283 169.962 199.504 171.536C196.699 173.094 193.806 174.489 190.84 175.712C188.397 176.691 185.846 177.373 183.24 177.744C181.485 177.989 179.706 178.019 177.944 177.832C177.466 177.779 176.99 177.702 176.52 177.6C176.353 177.576 176.189 177.533 176.032 177.472C176.032 177.432 176.72 177.568 177.96 177.672C179.709 177.791 181.466 177.719 183.2 177.456C185.77 177.045 188.285 176.342 190.696 175.36C193.637 174.128 196.511 172.739 199.304 171.2C202.098 169.621 204.977 168.198 207.928 166.936C210.368 165.897 213.017 165.443 215.664 165.608C217.45 165.738 219.173 166.328 220.664 167.32C221.212 167.663 221.697 168.099 222.096 168.608Z" fill="white"/>
<path d="M188.304 158.528C188.304 158.528 188.136 158.696 187.792 158.944C187.584 159.098 187.365 159.237 187.136 159.36C186.845 159.538 186.543 159.698 186.232 159.84C185.424 160.22 184.58 160.517 183.712 160.728C182.647 160.981 181.558 161.12 180.464 161.144C179.367 161.142 178.273 161.026 177.2 160.8C176.327 160.619 175.475 160.351 174.656 160C174.341 159.868 174.034 159.718 173.736 159.552C173.504 159.437 173.282 159.303 173.072 159.152C172.72 158.92 172.536 158.776 172.552 158.752C172.568 158.728 173.352 159.192 174.768 159.728C175.581 160.034 176.419 160.272 177.272 160.44C178.328 160.633 179.399 160.726 180.472 160.72C181.535 160.695 182.593 160.569 183.632 160.344C184.483 160.151 185.316 159.883 186.12 159.544C187.488 158.992 188.256 158.464 188.304 158.528Z" fill="white"/>
<path d="M225.912 156.52C225.82 156.624 225.715 156.715 225.6 156.792C225.283 157.031 224.945 157.242 224.592 157.424C223.289 158.101 221.864 158.512 220.4 158.632C218.235 158.803 216.057 158.602 213.96 158.04C211.56 157.464 209.072 156.528 206.392 155.768C201.796 154.491 196.986 154.18 192.264 154.856C190.831 155.06 189.413 155.351 188.016 155.728C187.032 155.992 186.488 156.16 186.48 156.128C186.472 156.096 186.6 156.056 186.856 155.96C187.112 155.864 187.48 155.72 187.976 155.576C189.363 155.136 190.78 154.799 192.216 154.568C196.98 153.795 201.856 154.068 206.504 155.368C209.208 156.168 211.704 157.08 214.048 157.664C216.106 158.236 218.244 158.464 220.376 158.336C221.811 158.243 223.216 157.885 224.52 157.28C225.44 156.84 225.888 156.48 225.912 156.52Z" fill="white"/>
<path d="M225.248 144.512C225.081 144.557 224.909 144.584 224.736 144.592C224.4 144.592 223.936 144.688 223.256 144.736C221.437 144.78 219.618 144.649 217.824 144.344C215.552 143.976 212.896 143.304 209.968 142.512C206.829 141.581 203.618 140.912 200.368 140.512C199.514 140.442 198.657 140.415 197.8 140.432C197.376 140.432 196.96 140.432 196.544 140.472L195.32 140.616C193.762 140.837 192.231 141.22 190.752 141.76C187.904 142.768 185.416 143.928 183.232 144.664C181.522 145.291 179.735 145.684 177.92 145.832C177.428 145.876 176.932 145.876 176.44 145.832C176.265 145.836 176.091 145.82 175.92 145.784C176.093 145.77 176.267 145.77 176.44 145.784C176.929 145.786 177.418 145.757 177.904 145.696C179.695 145.488 181.453 145.055 183.136 144.408C185.288 143.648 187.752 142.464 190.624 141.424C192.122 140.866 193.675 140.467 195.256 140.232L196.512 140.08C196.936 140.08 197.36 140.08 197.792 140.08C198.662 140.063 199.532 140.089 200.4 140.16C203.679 140.563 206.917 141.246 210.08 142.2C213 143 215.632 143.72 217.888 144.12C219.661 144.45 221.46 144.621 223.264 144.632L224.736 144.576C224.903 144.534 225.075 144.513 225.248 144.512Z" fill="white"/>
<path d="M233.2 123.048C233.272 123.088 232.456 124.256 231.688 126.376C230.682 129.142 230.407 132.12 230.888 135.024C231.41 137.918 232.654 140.634 234.504 142.92C235.928 144.672 237.072 145.52 237.016 145.584C236.728 145.424 236.459 145.23 236.216 145.008C235.519 144.431 234.873 143.794 234.288 143.104C232.33 140.823 231.016 138.062 230.48 135.104C229.984 132.142 230.299 129.101 231.392 126.304C231.723 125.47 232.127 124.667 232.6 123.904C232.766 123.596 232.967 123.309 233.2 123.048Z" fill="white"/>
<path d="M191 125.6C190.776 125.693 190.538 125.747 190.296 125.76C189.642 125.869 188.982 125.941 188.32 125.976C187.33 126.04 186.336 125.962 185.368 125.744C184.149 125.467 183.038 124.841 182.168 123.944C181.24 123.032 180.568 122.04 179.824 121.216C179.208 120.481 178.479 119.849 177.664 119.344C176.899 118.905 176.041 118.653 175.16 118.608C175.393 118.525 175.642 118.498 175.888 118.528C176.562 118.566 177.219 118.758 177.808 119.088C178.681 119.573 179.462 120.21 180.112 120.968C180.856 121.768 181.568 122.776 182.456 123.648C183.268 124.486 184.295 125.084 185.424 125.376C186.356 125.6 187.314 125.703 188.272 125.68C190 125.6 191 125.496 191 125.6Z" fill="white"/>
<path d="M189.392 369.216C189.28 369.216 189.184 360.832 189.184 350.488C189.184 340.144 189.28 331.76 189.392 331.76C189.504 331.76 189.6 340.144 189.6 350.488C189.6 360.832 189.512 369.216 189.392 369.216Z" fill="#263238"/>
<path d="M192.936 359.592C192.816 359.592 192.728 351.208 192.728 340.864C192.728 330.52 192.816 322.136 192.936 322.136C193.056 322.136 193.144 330.52 193.144 340.864C193.144 351.208 193.048 359.592 192.936 359.592Z" fill="#263238"/>
<path d="M358.256 381.704C358.256 381.816 286.496 381.912 198.008 381.912C109.52 381.912 37.744 381.816 37.744 381.704C37.744 381.592 109.488 381.496 198.008 381.496C286.528 381.496 358.256 381.6 358.256 381.704Z" fill="#263238"/>
</g>
<defs>
<clipPath id="clip0_236_35379">
<rect width="400" height="400" fill="white" transform="translate(-2)"/>
</clipPath>
</defs>
</svg>
