<svg width="393" height="464" viewBox="0 0 393 464" fill="none" xmlns="http://www.w3.org/2000/svg">
<path d="M391.6 254.5C391.6 297.8 378.5 338 356 371.4C343 390.7 326.8 407.7 308.3 421.7C306.7 422.9 305.1 424.1 303.5 425.2C296.5 430.2 289.2 434.8 281.6 438.9C266.2 447.2 249.7 453.7 232.2 457.9C231.2 458.2 230.1 458.4 229.1 458.6C225.6 459.4 222.1 460.1 218.5 460.7C206.7 462.8 194.5 463.9 182.1 463.9C174.3 463.9 166.6 463.5 159 462.6C155.6 462.2 152.2 461.8 148.9 461.2C48.9 445.4 -27.4 358.9 -27.4 254.5C-27.4 138.8 66.4 45 182.1 45C297.8 45 391.6 138.8 391.6 254.5Z" fill="#00254C"/>
<path fill-rule="evenodd" clip-rule="evenodd" d="M351.227 266.014C349.194 265.244 346.698 265.006 343.605 265.442C343.195 265.5 342.816 265.214 342.758 264.804C342.7 264.394 342.986 264.015 343.396 263.957C346.671 263.495 349.433 263.73 351.758 264.612C352.146 264.758 352.341 265.191 352.194 265.579C352.047 265.966 351.614 266.161 351.227 266.014ZM336.379 266.526C336.522 266.915 336.323 267.346 335.935 267.489C333.674 268.322 331.207 269.397 328.513 270.731C328.141 270.915 327.692 270.763 327.508 270.392C327.324 270.021 327.476 269.571 327.847 269.387C330.579 268.033 333.096 266.937 335.416 266.082C335.805 265.939 336.236 266.138 336.379 266.526ZM357.104 269.895C357.458 269.68 357.919 269.793 358.134 270.148C359.444 272.31 360.401 274.937 361.125 277.909C361.223 278.312 360.976 278.718 360.574 278.816C360.171 278.914 359.765 278.667 359.667 278.264C358.965 275.379 358.055 272.911 356.851 270.925C356.637 270.571 356.75 270.11 357.104 269.895ZM321.729 273.505C321.936 273.864 321.813 274.323 321.454 274.53C320.3 275.195 319.112 275.898 317.889 276.641C316.759 277.328 315.644 278.022 314.544 278.722C314.194 278.945 313.731 278.842 313.508 278.492C313.286 278.143 313.389 277.679 313.738 277.457C314.847 276.751 315.971 276.051 317.11 275.359C318.342 274.61 319.54 273.901 320.705 273.23C321.064 273.023 321.523 273.147 321.729 273.505ZM308.21 282.023C308.447 282.363 308.364 282.83 308.024 283.067C305.857 284.577 303.748 286.115 301.692 287.677C301.362 287.928 300.891 287.864 300.641 287.534C300.39 287.204 300.454 286.734 300.784 286.483C302.856 284.908 304.982 283.359 307.166 281.836C307.506 281.6 307.974 281.683 308.21 282.023ZM361.686 285.373C362.097 285.324 362.471 285.618 362.52 286.029C362.826 288.597 363.06 291.323 363.261 294.168C363.29 294.581 362.978 294.939 362.565 294.969C362.152 294.998 361.793 294.687 361.764 294.273C361.564 291.441 361.333 288.741 361.03 286.207C360.981 285.796 361.275 285.422 361.686 285.373ZM-37.1962 291.811C-37.1892 291.397 -36.8478 291.067 -36.4336 291.074C-33.6909 291.12 -30.9662 291.24 -28.2702 291.439C-27.8571 291.47 -27.547 291.83 -27.5776 292.243C-27.6082 292.656 -27.9679 292.966 -28.3809 292.935C-31.0468 292.738 -33.7429 292.62 -36.459 292.574C-36.8732 292.567 -37.2032 292.225 -37.1962 291.811ZM-43.8316 291.868C-43.8181 292.282 -44.1427 292.629 -44.5567 292.642C-47.2483 292.731 -49.9488 292.882 -52.6485 293.09C-53.0615 293.121 -53.422 292.812 -53.4538 292.399C-53.4856 291.986 -53.1765 291.626 -52.7635 291.594C-50.0431 291.385 -47.3206 291.232 -44.6058 291.143C-44.1918 291.13 -43.8452 291.454 -43.8316 291.868ZM295.652 291.487C295.916 291.806 295.87 292.279 295.551 292.542C293.515 294.222 291.532 295.927 289.595 297.654C289.286 297.929 288.812 297.902 288.536 297.593C288.26 297.284 288.288 296.81 288.597 296.534C290.547 294.795 292.545 293.078 294.596 291.385C294.916 291.122 295.388 291.167 295.652 291.487ZM-20.9756 292.945C-20.9178 292.535 -20.5384 292.249 -20.1283 292.307C-17.393 292.693 -14.7 293.173 -12.0611 293.757C-11.6566 293.847 -11.4013 294.247 -11.4908 294.651C-11.5803 295.056 -11.9807 295.311 -12.3851 295.222C-14.9835 294.647 -17.6382 294.173 -20.3377 293.792C-20.7479 293.734 -21.0335 293.355 -20.9756 292.945ZM-60.0578 293.041C-60.0098 293.452 -60.3045 293.825 -60.7159 293.873C-63.4098 294.187 -66.0928 294.551 -68.7549 294.959C-69.1643 295.021 -69.547 294.74 -69.6097 294.331C-69.6724 293.921 -69.3913 293.539 -68.9819 293.476C-66.3029 293.066 -63.6022 292.699 -60.8897 292.383C-60.4782 292.335 -60.1058 292.629 -60.0578 293.041ZM-76.1553 295.446C-76.0791 295.853 -76.3473 296.245 -76.7545 296.321C-79.4402 296.824 -82.0929 297.366 -84.702 297.939C-85.1066 298.028 -85.5066 297.772 -85.5955 297.367C-85.6844 296.963 -85.4285 296.563 -85.0239 296.474C-82.4001 295.897 -79.7321 295.353 -77.0305 294.847C-76.6234 294.771 -76.2315 295.039 -76.1553 295.446ZM-5.08923 296.367C-4.96321 295.973 -4.54118 295.755 -4.1466 295.881C-1.50938 296.723 1.05534 297.688 3.53351 298.786C3.91225 298.954 4.08331 299.397 3.9156 299.775C3.74788 300.154 3.30489 300.325 2.92615 300.157C0.50058 299.083 -2.0135 298.137 -4.60297 297.31C-4.99754 297.184 -5.21525 296.762 -5.08923 296.367ZM-92.0436 298.886C-91.9426 299.288 -92.1864 299.696 -92.5881 299.797C-95.2751 300.472 -97.8991 301.175 -100.447 301.897C-100.845 302.01 -101.26 301.779 -101.373 301.38C-101.486 300.982 -101.254 300.567 -100.856 300.454C-98.2939 299.728 -95.6556 299.021 -92.9538 298.342C-92.5521 298.241 -92.1446 298.485 -92.0436 298.886ZM362.971 301.58C363.384 301.556 363.739 301.872 363.763 302.286L363.774 302.488C363.923 305.067 364.075 307.707 364.255 310.391C364.282 310.804 363.97 311.162 363.556 311.19C363.143 311.217 362.786 310.905 362.758 310.491C362.577 307.797 362.425 305.148 362.276 302.568L362.265 302.372C362.241 301.959 362.557 301.604 362.971 301.58ZM283.858 301.919C284.144 302.218 284.134 302.693 283.835 302.979C281.935 304.799 280.079 306.639 278.26 308.498C277.97 308.794 277.496 308.799 277.2 308.509C276.904 308.22 276.898 307.745 277.188 307.449C279.017 305.579 280.885 303.728 282.797 301.896C283.096 301.61 283.571 301.62 283.858 301.919ZM9.80637 302.825C10.0201 302.47 10.481 302.356 10.8358 302.57C13.1944 303.991 15.4455 305.563 17.5734 307.296C17.8946 307.558 17.9428 308.03 17.6812 308.351C17.4196 308.672 16.9472 308.721 16.6261 308.459C14.5556 306.772 12.3628 305.241 10.0618 303.855C9.70699 303.641 9.59264 303.18 9.80637 302.825ZM-107.72 303.283C-107.595 303.678 -107.814 304.099 -108.208 304.225C-110.9 305.077 -113.475 305.942 -115.914 306.805C-116.304 306.943 -116.733 306.739 -116.871 306.348C-117.009 305.958 -116.805 305.529 -116.414 305.391C-113.959 304.522 -111.369 303.652 -108.661 302.795C-108.267 302.669 -107.845 302.888 -107.72 303.283ZM-123.055 308.671C-122.901 309.055 -123.088 309.492 -123.473 309.645C-124.779 310.167 -126.024 310.683 -127.204 311.189C-127.585 311.353 -128.026 311.177 -128.189 310.796C-128.353 310.415 -128.176 309.974 -127.796 309.811C-126.603 309.299 -125.346 308.779 -124.029 308.252C-123.645 308.099 -123.208 308.286 -123.055 308.671ZM22.4856 312.908C22.7928 312.63 23.2671 312.654 23.5449 312.961C25.3614 314.97 27.0456 317.141 28.5834 319.482C28.8109 319.828 28.7146 320.293 28.3684 320.521C28.0222 320.748 27.5572 320.652 27.3297 320.305C25.8344 318.029 24.1975 315.92 22.4323 313.967C22.1545 313.66 22.1783 313.186 22.4856 312.908ZM272.815 313.125C273.119 313.406 273.138 313.88 272.856 314.185C271.073 316.115 269.322 318.061 267.598 320.02C267.325 320.331 266.851 320.361 266.54 320.088C266.229 319.814 266.199 319.34 266.472 319.029C268.203 317.062 269.962 315.107 271.755 313.167C272.036 312.862 272.51 312.844 272.815 313.125ZM364.078 317.803C364.491 317.764 364.857 318.067 364.895 318.48C365.147 321.151 365.448 323.841 365.819 326.53C365.876 326.94 365.59 327.319 365.179 327.375C364.769 327.432 364.39 327.145 364.334 326.735C363.958 324.02 363.655 321.309 363.402 318.62C363.363 318.208 363.666 317.842 364.078 317.803ZM262.381 324.914C262.697 325.182 262.737 325.655 262.469 325.971C260.774 327.975 259.101 329.989 257.441 332.011C257.178 332.331 256.706 332.377 256.386 332.115C256.066 331.852 256.019 331.379 256.282 331.059C257.945 329.033 259.623 327.013 261.324 325.003C261.591 324.686 262.064 324.647 262.381 324.914ZM31.5928 326.326C31.9684 326.151 32.4144 326.314 32.5891 326.69C33.7065 329.093 34.6946 331.639 35.5436 334.335C35.668 334.73 35.4486 335.151 35.0535 335.276C34.6584 335.4 34.2373 335.181 34.1128 334.786C33.2828 332.15 32.318 329.664 31.2289 327.322C31.0543 326.947 31.2172 326.501 31.5928 326.326ZM366.272 333.916C366.679 333.834 367.074 334.098 367.155 334.504C367.684 337.148 368.304 339.77 369.036 342.353C369.149 342.752 368.918 343.166 368.519 343.279C368.121 343.392 367.706 343.161 367.593 342.762C366.849 340.137 366.22 337.476 365.684 334.798C365.603 334.392 365.866 333.997 366.272 333.916ZM252.37 337.059C252.693 337.319 252.743 337.791 252.484 338.114C250.838 340.158 249.2 342.206 247.564 344.255C247.306 344.578 246.834 344.631 246.51 344.373C246.186 344.114 246.134 343.642 246.392 343.319C248.028 341.269 249.668 339.22 251.315 337.173C251.575 336.851 252.047 336.8 252.37 337.059ZM36.6708 341.691C37.0774 341.612 37.4712 341.878 37.5504 342.284C37.8112 343.623 38.0422 344.992 38.2424 346.394C38.4284 347.695 38.6257 348.983 38.8343 350.256C38.9012 350.665 38.6241 351.051 38.2154 351.118C37.8066 351.185 37.421 350.908 37.354 350.499C37.1437 349.215 36.9449 347.918 36.7575 346.606C36.5608 345.229 36.334 343.884 36.0781 342.571C35.9989 342.165 36.2643 341.771 36.6708 341.691ZM242.534 349.35C242.858 349.609 242.91 350.081 242.651 350.405C241.011 352.452 239.366 354.498 237.71 356.538C237.449 356.86 236.976 356.909 236.655 356.648C236.333 356.387 236.284 355.914 236.545 355.593C238.199 353.556 239.841 351.513 241.48 349.467C241.739 349.144 242.211 349.091 242.534 349.35ZM370.628 349.564C371.013 349.412 371.449 349.602 371.6 349.987C372.091 351.232 372.616 352.462 373.176 353.675C373.73 354.783 374.309 355.865 374.913 356.916C375.119 357.276 374.995 357.734 374.636 357.94C374.277 358.146 373.818 358.022 373.612 357.663C372.992 356.582 372.397 355.472 371.829 354.335L371.824 354.325L371.819 354.315C371.244 353.071 370.707 351.811 370.205 350.537C370.053 350.152 370.242 349.716 370.628 349.564ZM459.045 349.985C459.329 350.285 459.316 350.76 459.015 351.045C458.086 351.923 457.165 352.779 456.25 353.611C455.943 353.89 455.469 353.868 455.19 353.562C454.911 353.255 454.934 352.781 455.24 352.502C456.148 351.676 457.063 350.827 457.985 349.955C458.285 349.67 458.76 349.684 459.045 349.985ZM450.721 357.461C450.987 357.779 450.944 358.252 450.626 358.517C448.626 360.184 446.662 361.739 444.733 363.185C444.401 363.433 443.931 363.366 443.683 363.034C443.434 362.703 443.502 362.233 443.833 361.984C445.741 360.555 447.685 359.017 449.665 357.365C449.983 357.1 450.456 357.143 450.721 357.461ZM39.362 357.29C39.7675 357.205 40.1648 357.465 40.2495 357.87C40.7874 360.446 41.3746 362.958 42.0096 365.406C42.1136 365.807 41.8729 366.216 41.4719 366.32C41.071 366.424 40.6616 366.184 40.5576 365.783C39.9164 363.311 39.3239 360.775 38.7812 358.177C38.6965 357.772 38.9566 357.374 39.362 357.29ZM232.613 361.571C232.931 361.836 232.974 362.308 232.709 362.627C231.032 364.642 229.337 366.649 227.617 368.644C227.347 368.958 226.873 368.993 226.56 368.723C226.246 368.452 226.211 367.979 226.481 367.665C228.194 365.677 229.884 363.677 231.556 361.667C231.821 361.349 232.294 361.306 232.613 361.571ZM377.923 362.9C378.252 362.647 378.722 362.709 378.975 363.037C380.499 365.019 382.138 366.835 383.892 368.462C384.195 368.743 384.213 369.218 383.932 369.521C383.65 369.825 383.176 369.843 382.872 369.561C381.051 367.874 379.357 365.994 377.786 363.952C377.533 363.623 377.595 363.152 377.923 362.9ZM438.823 366.452C439.05 366.798 438.953 367.263 438.606 367.49C436.418 368.924 434.277 370.213 432.184 371.362C431.821 371.561 431.365 371.428 431.165 371.065C430.966 370.702 431.099 370.246 431.462 370.047C433.519 368.918 435.626 367.65 437.784 366.236C438.131 366.009 438.596 366.105 438.823 366.452ZM43.2031 372.346C43.598 372.221 44.0195 372.44 44.1446 372.834C44.9384 375.34 45.7867 377.769 46.6877 380.122C46.8358 380.509 46.6423 380.943 46.2555 381.091C45.8687 381.239 45.435 381.045 45.2869 380.659C44.375 378.277 43.5171 375.82 42.7147 373.287C42.5896 372.893 42.8082 372.471 43.2031 372.346ZM388.671 373.12C388.886 372.766 389.347 372.652 389.701 372.867C391.775 374.121 393.976 375.142 396.305 375.899C396.699 376.028 396.915 376.451 396.787 376.845C396.659 377.239 396.235 377.454 395.841 377.326C393.398 376.531 391.093 375.462 388.925 374.15C388.571 373.936 388.457 373.475 388.671 373.12ZM425.815 373.684C425.977 374.065 425.8 374.505 425.419 374.668C422.979 375.709 420.61 376.55 418.311 377.203C417.913 377.316 417.498 377.085 417.385 376.686C417.272 376.288 417.503 375.873 417.902 375.76C420.135 375.125 422.445 374.306 424.83 373.288C425.211 373.126 425.652 373.303 425.815 373.684ZM222.349 373.504C222.657 373.782 222.681 374.256 222.404 374.564C220.649 376.51 218.864 378.442 217.043 380.356C216.758 380.656 216.283 380.668 215.983 380.383C215.683 380.097 215.671 379.623 215.956 379.322C217.768 377.419 219.543 375.497 221.29 373.559C221.567 373.252 222.041 373.227 222.349 373.504ZM411.542 377.868C411.59 378.28 411.295 378.651 410.883 378.699C408.249 379.002 405.721 379.038 403.298 378.829C402.886 378.794 402.58 378.43 402.616 378.018C402.651 377.605 403.015 377.299 403.427 377.335C405.745 377.535 408.172 377.5 410.712 377.209C411.123 377.161 411.495 377.457 411.542 377.868ZM211.526 384.928C211.817 385.223 211.814 385.698 211.519 385.989C209.658 387.827 207.757 389.645 205.809 391.44C205.504 391.721 205.03 391.701 204.749 391.397C204.468 391.092 204.488 390.618 204.792 390.337C206.727 388.554 208.616 386.748 210.465 384.922C210.76 384.631 211.234 384.634 211.526 384.928ZM48.6955 386.896C49.0717 386.723 49.5172 386.887 49.6905 387.264C50.7916 389.655 51.9533 391.954 53.1733 394.161C53.3737 394.523 53.2424 394.979 52.8799 395.18C52.5173 395.38 52.061 395.249 51.8606 394.886C50.6222 392.646 49.444 390.314 48.328 387.891C48.1547 387.515 48.3193 387.069 48.6955 386.896ZM199.983 395.627C200.252 395.942 200.215 396.416 199.9 396.685C197.913 398.382 195.877 400.054 193.786 401.7C193.461 401.956 192.989 401.9 192.733 401.574C192.477 401.249 192.533 400.777 192.858 400.521C194.933 398.888 196.954 397.228 198.926 395.544C199.241 395.275 199.714 395.312 199.983 395.627ZM56.1267 400.536C56.4716 400.306 56.9372 400.4 57.1665 400.745C58.6203 402.931 60.1401 405.008 61.7231 406.974C61.9829 407.296 61.9319 407.768 61.6093 408.028C61.2867 408.288 60.8146 408.237 60.5548 407.914C58.9423 405.912 57.3956 403.798 55.9174 401.575C55.6881 401.23 55.7818 400.765 56.1267 400.536ZM187.653 405.406C187.895 405.741 187.819 406.21 187.483 406.453C185.374 407.975 183.21 409.471 180.986 410.937C180.64 411.165 180.175 411.07 179.947 410.724C179.719 410.378 179.814 409.913 180.16 409.685C182.366 408.23 184.513 406.747 186.606 405.236C186.941 404.994 187.41 405.07 187.653 405.406ZM65.7797 412.715C66.0747 412.424 66.5495 412.428 66.8403 412.723C68.6684 414.577 70.5653 416.304 72.5278 417.903C72.849 418.165 72.8972 418.637 72.6356 418.959C72.374 419.28 71.9016 419.328 71.5804 419.066C69.5747 417.432 67.6375 415.668 65.7721 413.776C65.4813 413.481 65.4847 413.006 65.7797 412.715ZM174.558 414.114C174.771 414.469 174.656 414.93 174.301 415.143C173.173 415.82 172.03 416.489 170.872 417.151C169.722 417.808 168.575 418.446 167.431 419.065C167.067 419.262 166.612 419.126 166.414 418.762C166.217 418.398 166.353 417.943 166.717 417.745C167.851 417.133 168.987 416.5 170.128 415.849C171.277 415.192 172.41 414.528 173.529 413.857C173.884 413.644 174.345 413.759 174.558 414.114ZM160.824 421.611C161.003 421.985 160.845 422.433 160.471 422.611C158.075 423.757 155.697 424.815 153.337 425.787C152.954 425.945 152.516 425.762 152.358 425.379C152.2 424.996 152.383 424.558 152.766 424.4C155.099 423.439 157.452 422.392 159.824 421.258C160.198 421.079 160.645 421.238 160.824 421.611ZM77.7192 422.636C77.942 422.287 78.4057 422.185 78.7549 422.407C80.9265 423.792 83.1656 425.039 85.4683 426.144C85.8417 426.324 85.999 426.772 85.8197 427.145C85.6404 427.519 85.1924 427.676 84.819 427.497C82.4617 426.365 80.1702 425.089 77.9482 423.672C77.599 423.449 77.4965 422.986 77.7192 422.636ZM146.491 427.593C146.625 427.985 146.416 428.411 146.024 428.545C143.498 429.409 140.996 430.171 138.52 430.832C138.119 430.939 137.708 430.701 137.601 430.301C137.495 429.901 137.732 429.49 138.133 429.383C140.574 428.731 143.044 427.979 145.538 427.126C145.93 426.992 146.357 427.201 146.491 427.593ZM91.6327 429.516C91.7658 429.124 92.1916 428.913 92.5839 429.046C94.9941 429.864 97.4642 430.542 99.9907 431.079C100.396 431.165 100.655 431.563 100.568 431.968C100.482 432.374 100.084 432.632 99.6789 432.546C97.0956 431.997 94.5687 431.304 92.1021 430.467C91.7098 430.334 91.4997 429.908 91.6327 429.516ZM131.48 431.693C131.556 432.1 131.288 432.492 130.881 432.568C128.265 433.056 125.683 433.428 123.136 433.683C122.724 433.724 122.356 433.423 122.315 433.011C122.274 432.599 122.574 432.231 122.986 432.19C125.49 431.939 128.03 431.574 130.605 431.093C131.013 431.017 131.404 431.286 131.48 431.693ZM106.78 432.925C106.82 432.513 107.187 432.212 107.6 432.252C110.111 432.499 112.672 432.616 115.278 432.602C115.692 432.599 116.03 432.933 116.032 433.348C116.034 433.762 115.7 434.099 115.286 434.102C112.63 434.116 110.018 433.997 107.453 433.745C107.041 433.705 106.739 433.338 106.78 432.925Z" fill="#007AFF"/>
<path fill-rule="evenodd" clip-rule="evenodd" d="M401.5 0.25C401.914 0.25 402.25 0.585786 402.25 1C402.25 2.09148 402.114 3.40647 401.856 4.91063C401.786 5.3189 401.398 5.59316 400.99 5.52322C400.582 5.45327 400.308 5.06561 400.378 4.65734C400.627 3.20163 400.75 1.9771 400.75 1C400.75 0.585786 401.086 0.25 401.5 0.25ZM399.489 11.6549C399.886 11.7719 400.113 12.1888 399.996 12.5862C399.328 14.8563 398.516 17.3388 397.57 19.9987C397.431 20.3889 397.002 20.5927 396.612 20.4539C396.222 20.315 396.018 19.8861 396.157 19.4958C397.095 16.8579 397.898 14.402 398.557 12.1625C398.674 11.7652 399.091 11.5379 399.489 11.6549ZM394.371 26.3695C394.755 26.5232 394.943 26.9596 394.789 27.3443C393.863 29.6626 392.856 32.0733 391.774 34.5593C391.608 34.9391 391.166 35.1129 390.787 34.9475C390.407 34.7821 390.233 34.3402 390.398 33.9604C391.475 31.4878 392.476 29.0912 393.396 26.7876C393.55 26.403 393.986 26.2158 394.371 26.3695ZM388.205 40.6626C388.58 40.8381 388.742 41.2844 388.567 41.6597C387.492 43.9586 386.361 46.3039 385.176 48.6842C384.992 49.0551 384.542 49.206 384.171 49.0214C383.8 48.8368 383.649 48.3866 383.834 48.0158C385.013 45.6464 386.139 43.3122 387.208 41.0245C387.384 40.6492 387.83 40.4872 388.205 40.6626ZM381.302 54.6148C381.669 54.8082 381.809 55.2619 381.616 55.6282C380.418 57.8968 379.176 60.1861 377.891 62.487C377.689 62.8487 377.232 62.9781 376.871 62.7762C376.509 62.5742 376.38 62.1174 376.582 61.7557C377.86 59.4653 379.097 57.1863 380.289 54.928C380.482 54.5617 380.936 54.4215 381.302 54.6148ZM373.747 68.2165C374.104 68.427 374.222 68.8869 374.012 69.2436C372.7 71.4654 371.351 73.6897 369.967 75.908C369.747 76.2594 369.285 76.3664 368.933 76.147C368.582 75.9277 368.475 75.465 368.694 75.1137C370.072 72.9062 371.415 70.6926 372.72 68.4811C372.931 68.1244 373.391 68.0059 373.747 68.2165ZM365.538 81.4326C365.883 81.6611 365.978 82.1264 365.75 82.4719C364.317 84.6383 362.851 86.7913 361.354 88.9228C361.116 89.2617 360.648 89.3435 360.309 89.1054C359.97 88.8674 359.889 88.3996 360.127 88.0606C361.615 85.941 363.073 83.7997 364.499 81.6445C364.727 81.299 365.192 81.2041 365.538 81.4326ZM356.62 94.1949C356.951 94.4432 357.019 94.9132 356.771 95.2448C355.206 97.3347 353.611 99.3952 351.987 101.418C351.728 101.741 351.256 101.793 350.933 101.534C350.61 101.275 350.558 100.802 350.817 100.479C352.43 98.47 354.014 96.4228 355.57 94.3456C355.818 94.0141 356.288 93.9466 356.62 94.1949ZM194.702 102.076C191.882 101.906 189.174 101.992 186.571 102.312C186.16 102.363 185.785 102.07 185.735 101.659C185.685 101.248 185.977 100.874 186.388 100.823C189.084 100.492 191.884 100.403 194.792 100.579C195.206 100.604 195.521 100.959 195.496 101.373C195.471 101.786 195.115 102.101 194.702 102.076ZM202.26 102.338C202.349 101.934 202.749 101.678 203.154 101.767C205.751 102.34 208.426 103.112 211.18 104.096C211.57 104.236 211.773 104.665 211.634 105.055C211.495 105.445 211.065 105.648 210.675 105.509C207.977 104.545 205.363 103.791 202.831 103.232C202.426 103.143 202.171 102.743 202.26 102.338ZM179.084 103.149C179.214 103.543 179.001 103.967 178.608 104.097C176.009 104.956 173.525 106.063 171.15 107.389C170.789 107.591 170.332 107.461 170.13 107.1C169.928 106.738 170.058 106.281 170.419 106.079C172.873 104.71 175.444 103.564 178.137 102.673C178.53 102.543 178.954 102.756 179.084 103.149ZM346.913 106.361C347.226 106.632 347.26 107.106 346.989 107.419C345.272 109.402 343.527 111.338 341.757 113.218C341.473 113.519 340.998 113.533 340.696 113.249C340.395 112.965 340.381 112.491 340.665 112.189C342.42 110.326 344.151 108.405 345.855 106.437C346.126 106.124 346.599 106.09 346.913 106.361ZM217.913 107.681C218.091 107.307 218.539 107.148 218.913 107.327C221.324 108.475 223.793 109.778 226.319 111.244C226.677 111.452 226.799 111.911 226.591 112.269C226.384 112.627 225.925 112.749 225.566 112.541C223.073 111.095 220.64 109.811 218.268 108.681C217.894 108.503 217.735 108.055 217.913 107.681ZM164.493 110.914C164.752 111.238 164.699 111.71 164.376 111.968C162.271 113.653 160.262 115.518 158.346 117.536C158.06 117.837 157.586 117.849 157.285 117.564C156.985 117.279 156.973 116.804 157.258 116.504C159.217 114.44 161.275 112.529 163.439 110.797C163.762 110.538 164.234 110.591 164.493 110.914ZM232.362 115.886C232.593 115.542 233.059 115.45 233.403 115.681C235.623 117.172 237.886 118.783 240.192 120.519C240.523 120.769 240.589 121.239 240.34 121.57C240.091 121.901 239.621 121.967 239.29 121.718C237.004 119.997 234.763 118.401 232.567 116.926C232.223 116.696 232.131 116.23 232.362 115.886ZM336.287 117.716C336.575 118.014 336.566 118.489 336.268 118.776C334.369 120.607 332.444 122.367 330.495 124.047C330.181 124.318 329.708 124.282 329.437 123.969C329.167 123.655 329.202 123.181 329.516 122.911C331.443 121.25 333.347 119.509 335.227 117.697C335.525 117.409 336 117.418 336.287 117.716ZM152.889 122.756C153.219 123.007 153.283 123.478 153.032 123.807C151.39 125.965 149.827 128.234 148.337 130.593C148.116 130.943 147.653 131.048 147.303 130.827C146.952 130.605 146.848 130.142 147.069 129.792C148.579 127.4 150.168 125.094 151.838 122.899C152.089 122.569 152.56 122.506 152.889 122.756ZM245.67 125.78C245.934 125.461 246.407 125.416 246.726 125.68C247.805 126.57 248.892 127.488 249.989 128.432C251.009 129.309 252.028 130.142 253.048 130.932C253.375 131.186 253.435 131.657 253.181 131.984C252.928 132.312 252.457 132.371 252.129 132.118C251.089 131.312 250.049 130.462 249.011 129.568C247.921 128.631 246.841 127.72 245.771 126.836C245.451 126.572 245.406 126.1 245.67 125.78ZM324.555 127.915C324.804 128.245 324.738 128.716 324.408 128.965C322.288 130.562 320.143 132.059 317.974 133.443C317.625 133.666 317.161 133.563 316.939 133.214C316.716 132.865 316.818 132.401 317.167 132.178C319.301 130.817 321.414 129.343 323.505 127.767C323.836 127.518 324.306 127.584 324.555 127.915ZM258.333 135.537C258.548 135.183 259.009 135.069 259.363 135.284C261.633 136.657 263.901 137.826 266.163 138.804C266.544 138.968 266.719 139.41 266.554 139.79C266.39 140.17 265.949 140.345 265.568 140.181C263.241 139.175 260.912 137.974 258.587 136.567C258.232 136.353 258.119 135.892 258.333 135.537ZM311.494 136.353C311.683 136.722 311.538 137.174 311.17 137.363C308.799 138.581 306.403 139.656 303.987 140.573C303.6 140.72 303.167 140.525 303.02 140.138C302.873 139.751 303.068 139.318 303.455 139.171C305.815 138.275 308.159 137.224 310.484 136.029C310.852 135.84 311.305 135.985 311.494 136.353ZM143.879 136.714C144.244 136.91 144.381 137.365 144.185 137.73C142.889 140.142 141.657 142.615 140.487 145.129C140.312 145.505 139.866 145.668 139.491 145.493C139.115 145.318 138.952 144.872 139.127 144.496C140.309 141.959 141.553 139.46 142.863 137.02C143.06 136.655 143.514 136.518 143.879 136.714ZM272.478 141.832C272.582 141.43 272.991 141.189 273.392 141.293C275.908 141.942 278.417 142.368 280.917 142.585C281.329 142.621 281.635 142.985 281.599 143.397C281.563 143.81 281.2 144.115 280.787 144.08C278.205 143.855 275.614 143.416 273.017 142.745C272.616 142.642 272.375 142.233 272.478 141.832ZM297.016 141.986C297.111 142.389 296.86 142.792 296.457 142.887C293.88 143.491 291.283 143.903 288.67 144.108C288.257 144.14 287.896 143.832 287.864 143.419C287.832 143.006 288.14 142.645 288.553 142.612C291.086 142.414 293.608 142.014 296.115 141.426C296.518 141.332 296.922 141.582 297.016 141.986ZM136.768 151.739C137.151 151.896 137.335 152.334 137.178 152.717C136.129 155.282 135.137 157.866 134.198 160.45C134.056 160.839 133.626 161.04 133.237 160.898C132.847 160.757 132.647 160.327 132.788 159.937C133.733 157.337 134.732 154.734 135.79 152.149C135.946 151.766 136.384 151.582 136.768 151.739ZM131.021 167.339C131.415 167.467 131.63 167.891 131.501 168.285C130.629 170.959 129.81 173.61 129.041 176.214C128.923 176.612 128.506 176.838 128.109 176.721C127.712 176.604 127.485 176.187 127.602 175.789C128.375 173.173 129.198 170.509 130.075 167.819C130.204 167.426 130.627 167.211 131.021 167.339ZM126.259 183.27C126.659 183.378 126.895 183.79 126.787 184.19C126.42 185.545 126.067 186.88 125.726 188.189C125.378 189.523 124.995 190.833 124.577 192.118C124.449 192.512 124.026 192.728 123.632 192.599C123.238 192.471 123.022 192.048 123.151 191.654C123.559 190.398 123.934 189.117 124.274 187.811C124.616 186.498 124.971 185.159 125.339 183.798C125.447 183.398 125.859 183.162 126.259 183.27ZM121.217 198.712C121.591 198.888 121.752 199.335 121.576 199.71C120.403 202.204 119.084 204.585 117.631 206.85C117.407 207.198 116.943 207.3 116.595 207.076C116.246 206.852 116.145 206.388 116.369 206.04C117.786 203.83 119.073 201.507 120.219 199.071C120.395 198.696 120.842 198.535 121.217 198.712ZM-24.5995 209.049C-24.3505 208.718 -23.8803 208.652 -23.5493 208.901C-22.4684 209.713 -21.3832 210.508 -20.294 211.283C-19.9566 211.524 -19.8778 211.992 -20.1181 212.329C-20.3584 212.667 -20.8267 212.746 -21.1641 212.505C-22.2639 211.722 -23.3597 210.92 -24.4509 210.099C-24.7819 209.85 -24.8484 209.38 -24.5995 209.049ZM112.684 212.362C112.999 212.63 113.038 213.103 112.77 213.419C111.004 215.5 109.107 217.456 107.09 219.283C106.783 219.561 106.309 219.538 106.031 219.231C105.753 218.924 105.776 218.45 106.083 218.172C108.052 216.387 109.904 214.479 111.626 212.448C111.894 212.133 112.368 212.094 112.684 212.362ZM-14.6684 215.999C-14.4463 215.649 -13.9828 215.546 -13.6332 215.768C-11.3496 217.219 -9.05267 218.591 -6.74628 219.885C-6.38508 220.088 -6.25661 220.545 -6.45934 220.906C-6.66208 221.268 -7.11924 221.396 -7.48045 221.193C-9.81071 219.885 -12.131 218.499 -14.4376 217.034C-14.7872 216.812 -14.8905 216.348 -14.6684 215.999ZM100.888 223.325C101.125 223.664 101.042 224.132 100.702 224.369C98.487 225.917 96.1656 227.338 93.7489 228.63C93.3836 228.825 92.9292 228.687 92.7339 228.322C92.5387 227.956 92.6765 227.502 93.0418 227.307C95.4074 226.042 97.6779 224.653 99.8432 223.14C100.183 222.902 100.65 222.985 100.888 223.325ZM-0.636219 223.964C-0.454161 223.591 -0.00496101 223.437 0.367098 223.62C2.80155 224.811 5.24216 225.917 7.68457 226.941C8.06661 227.101 8.24658 227.54 8.08653 227.922C7.92648 228.304 7.48703 228.484 7.10499 228.324C4.63549 227.29 2.16831 226.171 -0.292192 224.967C-0.664251 224.785 -0.818277 224.336 -0.636219 223.964ZM14.222 230.279C14.3587 229.888 14.7865 229.682 15.1775 229.818C17.7303 230.711 20.2803 231.513 22.8223 232.225C23.2211 232.337 23.4537 232.751 23.3419 233.15C23.2301 233.549 22.8161 233.782 22.4172 233.67C19.8447 232.948 17.2648 232.137 14.6826 231.234C14.2916 231.098 14.0854 230.67 14.222 230.279ZM86.7734 231.088C86.927 231.473 86.7397 231.909 86.355 232.063C83.8576 233.06 81.2814 233.935 78.6359 234.688C78.2375 234.801 77.8227 234.57 77.7094 234.171C77.5961 233.773 77.8273 233.358 78.2257 233.245C80.8231 232.506 83.3504 231.647 85.7988 230.67C86.1835 230.516 86.6198 230.703 86.7734 231.088ZM29.7354 234.72C29.8207 234.315 30.2185 234.056 30.6238 234.141C33.2738 234.699 35.9093 235.16 38.5247 235.525C38.9349 235.582 39.2211 235.961 39.1638 236.371C39.1066 236.782 38.7276 237.068 38.3174 237.011C35.6675 236.641 32.9979 236.174 30.3147 235.609C29.9093 235.523 29.65 235.126 29.7354 234.72ZM71.3151 235.66C71.39 236.067 71.1205 236.458 70.7132 236.533C68.0743 237.018 65.3807 237.39 62.6404 237.647C62.228 237.686 61.8624 237.383 61.8237 236.97C61.7851 236.558 62.0881 236.192 62.5005 236.154C65.1977 235.901 67.8474 235.535 70.4418 235.058C70.8492 234.983 71.2402 235.252 71.3151 235.66ZM45.695 237.045C45.7223 236.631 46.0795 236.319 46.4928 236.346C49.1975 236.525 51.8731 236.598 54.5129 236.569C54.927 236.564 55.2666 236.896 55.2713 237.31C55.2759 237.724 54.9439 238.064 54.5297 238.068C51.8506 238.099 49.1364 238.024 46.3939 237.843C45.9806 237.815 45.6677 237.458 45.695 237.045Z" fill="#007AFF"/>
<path d="M271.5 387.3C271.5 387.3 275 310.6 273.4 308.5C271.9 306.4 247.4 274.4 247.4 274.4L232.8 314L271.5 387.3Z" fill="#007AFF"/>
<path d="M58.3 178.3C60.5 185.6 62.6 193 64.8 200.3C64.8 200.3 86.7001 194.5 86.5 193.6C86.2001 192.7 77.2001 173.7 77.2001 173.7C75 173.6 72.1001 173.7 68.9001 174.3C64.3001 175.3 60.7 176.9 58.3 178.3Z" fill="#FFA07F"/>
<path d="M169.5 283.4L119.8 250.7L91.1001 177.8L49.1001 184.9C49.1001 184.9 70.3001 262.8 85.6001 285.3C94.1001 297.8 153.6 332.8 153.6 332.8L169.5 283.4Z" fill="#007AFF"/>
<path opacity="0.2" d="M106 255.4C109 254.4 112 253.3 115.1 252.3C116.8 251.8 118.3 253.7 117.1 255.1C115.8 256.7 114.7 258.4 113.8 260.3C113 262 112.7 263.9 111.9 265.6C111.5 266.4 110.3 266.2 110.2 265.3C109.9 262.7 110.7 259.8 111.9 257.3C110.5 257.8 109.1 258.3 107.7 258.8C106.4 259.3 103.4 260.8 102.6 258.6C101.9 256.6 104.7 255.8 106 255.4Z" fill="#131313"/>
<path d="M62.3 114.7C64.6 114.2 79.1 148.2 79.1 148.2C80.9 142.6 84.6 137.6 89.6 134.4L89.7 134.3C90.2 134 90.7 133.8 91.1 134.1C91.3 134.2 91.5 134.4 91.6 134.6C92.7 136.4 92.5 138.7 91.8 140.7C91.1 142.7 90 144.5 89.1 146.3C87.4 149.9 87.1 154 86.8 158C86.4 164.8 75.9376 170.656 75.9376 170.656C75.9376 170.656 76.7188 172.438 77.3594 174.109L58.3 178.5L56 170.6L51.9 167.4C49.3 164.8 38.6 131 40.6 129.7C41.1 129.3 41.7 129 42.4 128.7C43.3 128.2 44.3 127.9 44.9 127.6C45.4 127.4 45.6 127.3 45.6 127.3C45.6 127.3 46.4 126.3 47.5 125.2C48.1 124.5 48.9 123.9 49.6 123.4C50.4 122.9 51.1 122.6 51.7 122.8C52.3 123 53.6 124.8 55.2 127.3C59.2 133.4 64.9 143.4 65.3 142.6C65.8 141.5 59.1 116.9 59.1 116.9C59.1 116.9 59.5 116.2 60.4 115.6C60.8 115.2 61.4 114.9 62.3 114.7Z" fill="#FFA07F"/>
<path d="M47.4 125.2C47.7 125.8 47.9 126.4 48.2 127.1C49.9 130.7 51.9 133.8 53.4 135.9C54.8 137.9 55.9 139.1 56 139.3C55.9 139.1 55.4 137.6 54.6 135.3C53.7 132.8 52.3 129.5 50.7 125.9C50.3 125 49.9 124.2 49.5 123.4C48.8 123.9 48.1 124.6 47.4 125.2Z" fill="#FF7D6F"/>
<path d="M42.3 128.7C44.9 134.5 48.0001 138.7 48.2001 139C48.1001 138.7 47.2 133.5 44.8 127.6C44.2 127.8 43.3 128.2 42.3 128.7Z" fill="#FF7D6F"/>
<path d="M281.5 438.9C266.1 447.2 249.6 453.7 232.1 457.9C231.1 458.2 230 458.4 229 458.6C225.5 459.4 222 460.1 218.4 460.7C206.6 462.8 194.4 463.9 182 463.9C174.2 463.9 166.5 463.5 158.9 462.6C155.5 462.2 152.1 461.8 148.8 461.2C148.9 451.3 148.9 438.7 148.1 425.6C147 407.9 147.9 365.2 151.1 331.1C153.3 308 156.5 288.8 160.9 283.9C159.7 281.6 159 279.1 159.1 276.4C159.1 275.2 159.3 273.9 159.7 272.5C161.6 265.9 167.9 261 174.7 260.6C175.1 260.6 175.6 260.6 176 260.6C176 260.6 176 260.6 176 260.5C176.3 255.7 178.2 251.3 181.1 247.4C182.3 245.8 183.7 244.2 185.2 242.8C188.7 239.6 192.9 237 197.4 235.4C198.5 235 199.5 234.6 200.6 234.3C205.6 232.8 210.8 232.2 216.1 232.1C219 232 222 232.1 224.9 232.2C225.4 232.2 225.9 232.2 226.4 232.3C227 232.3 227.6 232.4 228.2 232.4C228.4 232.4 228.6 232.4 228.8 232.4C229 232.4 229.3 232.4 229.5 232.5C230.3 232.5 231.1 232.6 231.8 232.7C232.9 232.8 233.9 232.9 235 233C235.4 233 235.8 233.1 236.2 233.1C236.5 233.1 236.7 233.2 237 233.2C240.9 233.7 244.8 234.7 248.1 237.1C250 238.5 251.7 240.2 252.6 242.4C256.3 250.6 249.5 258.3 243 263.6C247.3 264.7 250.5 268.1 252.2 272.1C253.6 275.3 254.1 279 253.6 282.5C253.6 282.6 253.6 282.7 253.6 282.8C253.4 283.9 253.1 285 252.8 286.1C251.8 289.2 250.2 292.1 248.2 294.8C248.4 295.1 248.5 295.4 248.6 295.6C248.7 296.1 253.2 313.5 258.5 334.4C259.3 337.4 260 340.4 260.8 343.4C264.7 358.7 268.7 374.9 271.6 387.2C271.8 388.1 272 389 272.2 389.9C272.3 390.4 272.4 390.9 272.6 391.4V391.5C274.3 398.7 275.4 404.1 275.7 406.5C276.3 411.5 278.1 421.2 280 431.1C280.5 433.8 281 436.4 281.5 438.9Z" fill="#007AFF"/>
<path opacity="0.2" d="M193.9 265.5C193.9 265.5 184.3 269.2 183.2 277.4C182.1 285.6 190.7 288.4 190.7 288.4L218.3 276.8C218.3 276.8 234.3 273.1 236.2 265.2C238.1 257.3 218.9 255.2 218.9 255.2L193.9 265.5Z" fill="#131313"/>
<g opacity="0.2">
<path d="M243 452.8C241.2 453.6 237.2 455.1 231.9 456.8C230.9 457.1 229.8 457.5 228.6 457.8C225.5 458.8 222.1 459.8 218.5 460.8C206.7 462.9 194.5 464 182.1 464C174.3 464 166.6 463.6 159 462.7C158.1 453.3 155.7 423.1 160.7 418C164.9 413.7 191.7 409.1 209.2 406.3C213.2 405.7 216.6 405.1 219.3 404.7C219.8 404.6 220.3 404.5 220.8 404.5C222.2 404.3 223.3 404.1 223.9 403.9C225.3 403.6 227.6 405.8 230.1 409.5C230.5 410.2 231 410.8 231.4 411.6C235.2 417.7 239.4 426.4 242.1 434.3C242.8 436.4 243.5 438.5 244 440.4C245.5 446.7 245.6 451.6 243 452.8Z" fill="#131313"/>
</g>
<path opacity="0.2" d="M238.7 289.1C223.8 301.6 204.2 306.8 185.8 311.7C177.8 305.6 171.5 300 166.4 291.2C166 290.6 165.2 291 165.4 291.7C168.4 300.8 177 308.2 184.4 313.8C185.1 314.3 185.8 314 186.1 313.4C204.2 310.8 226.9 304.1 240.3 291.1C241.6 290 240 288 238.7 289.1Z" fill="#131313"/>
<path d="M190.7 288.5C200.7 284.4 210.8 280.3 220.8 276.2C219.9 269.1 219.4 263.4 219.2 259.3C218.9 254.2 218.4 246 218.4 246L192.4 251.2L193.8 268C193.7 269.6 193.6 271.2 193.4 272.8C192.6 278 191.6 283.2 190.7 288.5Z" fill="#FFA07F"/>
<path d="M192.4 251.2L193.8 268C199.4 268.9 205.1 267.4 210.2 264.9C213.4 263.3 216.2 261.4 219.1 259.3C218.9 252.1 218.3 246 218.3 246L192.4 251.2Z" fill="#FF7D6F"/>
<path d="M224 247.7C224 247.7 223.1 249.6 219.7 252C219.4 252.2 219 252.5 218.6 252.7C218.6 252.7 218 253.1 217.3 253.5C206.5 259.5 197.3 260.7 197.3 260.7C190.4 261.6 183 262.6 177.4 258.1C173 254.6 171.7 249.5 170.4 244.4C169.7 241.7 169.7 240.6 169.4 227.5C169.1 213.8 168.9 208.1 171.4 200.6C171.8 199.3 172.2 198.3 172.5 197.6C174.4 194.3 177.3 190.2 182.1 187.2C195.4 178.6 215.3 183 228.1 194.8C232.4 198.7 224 247.7 224 247.7Z" fill="#FFA07F"/>
<path d="M171.5 214C171.8 213.4 175.1 207.4 178.3 207.8C179.2 207.9 181.2 208.7 181.1 209.2C181.1 209.3 181 209.4 180.9 209.4L171.5 214Z" fill="#131313"/>
<path d="M213.9 213.2C211.5 211.8 201 205.5 198.9 207.3C198.5 207.6 198.2 208.2 198.1 208.9C198.1 208.9 198.1 209.1 198.4 210.5L213.9 213.2Z" fill="#131313"/>
<path d="M183.4 233.7C183.5 234.5 184.3 235 184.7 235.2C185.5 235.7 186.3 235.7 187.5 235.6C188.4 235.6 189.6 235.5 191 234.7C191.5 234.4 191.9 234.2 192.2 233.7C192.8 232.7 192.5 231.4 192.4 231.1C191 231.7 188.7 232.5 185.9 232.1C185.4 232 184.9 231.9 184.4 231.7C183.7 232.3 183.3 233 183.4 233.7Z" fill="#FF7D6F"/>
<path d="M213.8 223.2C213.8 223.2 205.5 213.1 196.2 222C196.2 222 205 219.6 213.8 223.2Z" fill="#131313"/>
<path d="M181.2 222.3C181.2 222.3 176.5 215.8 171 221.7C171 221.7 176.1 220.1 181.2 222.3Z" fill="#131313"/>
<path d="M179.5 244.2C182.5 244.2 186.2 243.9 190.4 243.1C194.9 242.2 198.7 240.9 201.6 239.6C201.7 240.2 202.7 245.9 198.9 249.6C197.5 250.9 195.5 252 192.5 252.2C181.3 253.2 179.5 244.2 179.5 244.2Z" fill="white"/>
<path d="M186.7 172.5C186.7 172.5 201.5 165.9 215.3 172.5C229.1 179.1 231.8 188.5 231.8 188.5C231.8 188.5 242.2 190.9 244.6 196.3C246.9 201.7 241 211.3 241 211.3L186.7 172.5Z" fill="#131313"/>
<path d="M172.1 185.5C168.8 186.6 166.4 189.6 165.3 192.9C164.2 196.2 164.1 199.7 164.1 203.2C164.1 206.7 164.2 210.2 163.3 213.6C167.6 212.5 170.8 207 171.8 202.7C177.7 202.8 186.7 194.1 186.7 194.1L187.9 198.4C188.5 200.3 190.3 201.6 192.3 201.5C199.9 200.9 212 196.6 212 196.6L212.8 198.3C213.7 200.3 215.9 201.6 218.1 201.2C222.3 200.5 225.1 199 225.1 199L223.3 211C223 212.8 223.2 214.6 223.7 216.3L226.7 226.7C228.5 224.6 231.3 224.2 233.1 225.3C234.9 226.4 235 228.7 235.1 229C235.8 226.8 236.4 224.6 237.1 222.4C237.8 220.4 239 217.2 239.7 215.2L240.8 212.6C240.8 212.5 240.9 212.4 240.9 212.2C241 211.7 241.2 211 241.1 210.2C241.1 209.8 241 209.1 240.6 208.4C239.8 205.5 238.4 203.7 237.4 202.7C236.3 201.5 234.6 200.4 231.4 198C230.8 197.5 230.2 197.1 229.6 196.6C228.8 196 228.1 195.3 227.4 194.6C224.3 191.6 221.7 188.2 218.6 185.2C212.9 179.6 205.8 175.4 197.9 173.6C190.1 171.8 181.7 172.6 174.5 176.1C172.3 177.2 170.2 178.5 167.9 179.4C167.8 179.4 167.7 179.5 167.6 179.5C165.4 180.3 162.9 180.7 160.7 180.1C162.8 183.8 167.6 186.3 172.1 185.5Z" fill="#131313"/>
<path d="M203.4 178.9C203.9 182.1 203.8 185.4 203.1 188.5C207.9 187.7 212.5 185.7 216.4 182.8C211.1 178.3 204.8 174.9 198 173.3C190.8 171.7 183.1 172.2 176.3 175C180.8 177.3 185.8 178.7 190.8 178.1C189.6 179.9 188.3 181.6 187.1 183.3C192.8 183.1 198.4 181.5 203.4 178.9Z" fill="#131313"/>
<path d="M219.4 248.4C221.2 248.2 224.1 247.7 227.1 246.1C228.9 245.2 231.6 243.8 233.6 240.9C237.8 234.9 235.6 227.7 234.4 225.1C233.8 223.8 233.2 223 232.2 222.7C230 222.1 227.7 225.2 227.6 225.4C227 226.1 226.7 226.6 226.7 226.6L219.4 248.4Z" fill="#FFA07F"/>
<path fill-rule="evenodd" clip-rule="evenodd" d="M230.662 227.107C231.004 227.308 231.103 227.724 230.883 228.036L226.692 233.99L229.45 239.027C229.631 239.359 229.484 239.763 229.12 239.929C228.757 240.095 228.314 239.96 228.133 239.628L225 233.907L229.644 227.309C229.864 226.996 230.32 226.906 230.662 227.107Z" fill="#FF7D6F"/>
<mask id="mask0_85_74240" style="mask-type:luminance" maskUnits="userSpaceOnUse" x="187" y="313" width="43" height="38">
<path d="M222.115 313.771L187.979 323.52L195.777 350.829L229.914 341.081L222.115 313.771Z" fill="white"/>
</mask>
<g mask="url(#mask0_85_74240)">
<mask id="mask1_85_74240" style="mask-type:luminance" maskUnits="userSpaceOnUse" x="188" y="318" width="42" height="29">
<path d="M223.6 318.9L229.9 340.7C227.1 340.9 225.2 341.8 223.4 342.5C221.6 343.3 219.8 344.1 217 344.3C214.2 344.5 213.2 344 212.2 343.5C211.2 343 210.1 342.4 207.3 342.6C204.5 342.8 202.6 343.7 200.8 344.4C199 345.2 197.2 346 194.4 346.2L188.1 324.4C190.9 324.2 192.7 323.4 194.5 322.6C196.3 321.8 198.1 321 201 320.8C203.8 320.6 204.9 321.1 205.9 321.7C206.9 322.2 207.9 322.8 210.7 322.5C213.5 322.3 215.3 321.5 217.1 320.7C218.9 320 220.8 319.2 223.6 318.9Z" fill="white"/>
</mask>
<g mask="url(#mask1_85_74240)">
<path d="M189.4 328.9C192.3 329.7 194.3 330.1 197.1 330.5C197 330.5 196.9 330.6 196.9 330.6C195.1 331.4 193.3 332.2 190.5 332.4L189.4 328.9ZM192.2 338.5C195 338.3 196.8 337.5 198.6 336.7C198.7 336.7 198.8 336.6 198.8 336.6C197 339 195.7 340.6 193.2 342.1L192.2 338.5ZM224.8 323.2L225.9 326.9C223.1 327.1 221.2 328 219.4 328.7C219.3 328.8 219.2 328.8 219 328.9C221 326.2 222.3 324.6 224.8 323.2ZM227.7 332.9L228.8 336.6C226.1 335.8 225.3 335.7 220.9 334.9C221 334.8 221.2 334.8 221.3 334.7C223 333.9 224.8 333.1 227.7 332.9ZM207.9 322.5C208.6 322.6 209.5 322.7 210.7 322.6C213.5 322.4 215.3 321.6 217.1 320.8C217.3 320.7 217.5 320.6 217.7 320.5C215.6 323.3 215.2 323.8 214.1 324.8C212.7 326 211 326.8 209.4 327.9L207.9 322.5ZM194.5 322.7C196.3 321.9 198.1 321.1 201 320.9C202.1 320.8 203 320.8 203.7 320.9L205.2 326.2C203.3 324.9 200.8 324.3 193.8 323C194 322.9 194.3 322.8 194.5 322.7ZM212.7 339.1C213.9 340 215.2 340.9 223.9 342.4C223.8 342.5 223.6 342.5 223.5 342.6C221.7 343.4 219.9 344.2 217.1 344.4C215.9 344.5 215 344.5 214.3 344.3L212.7 339.1ZM208.5 337.5L210 342.7C209.3 342.6 208.5 342.6 207.3 342.7C204.5 342.9 202.6 343.8 200.8 344.5C200.6 344.6 200.4 344.7 200.2 344.7C201.7 342.7 202.6 341.6 203.9 340.4C204.6 339.8 205.3 339.3 205.5 339.2C206.5 338.6 207.5 338.1 208.5 337.5Z" fill="#253B78"/>
<mask id="mask2_85_74240" style="mask-type:luminance" maskUnits="userSpaceOnUse" x="188" y="319" width="42" height="28">
<path d="M188.1 324.5C190.9 324.3 192.7 323.5 194.5 322.7C196.3 321.9 198.1 321.1 201 320.9C203.8 320.7 204.9 321.2 205.9 321.8C206.9 322.3 207.9 322.9 210.7 322.6C213.5 322.4 215.3 321.6 217.1 320.8C218.9 320 220.7 319.2 223.6 319L229.9 340.8C227.1 341 225.2 341.9 223.4 342.6C221.6 343.4 219.8 344.2 217 344.4C214.2 344.6 213.2 344.1 212.2 343.6C211.2 343.1 210.1 342.5 207.3 342.7C204.5 342.9 202.6 343.8 200.8 344.5C199 345.3 197.2 346.1 194.4 346.3L188.1 324.5Z" fill="white"/>
</mask>
<g mask="url(#mask2_85_74240)">
<path d="M193.8 323C193.9 323 201.8 323.9 205.2 326.2L205.6 327.7C204.1 326.7 203.1 326.4 201.3 325.9C198 325 194.6 324.6 191.3 323.9C192.2 323.7 193 323.4 193.8 323ZM188.4 325.6C193.3 327 198.4 327.5 203.3 328.8C200.6 329 198.8 329.8 197.1 330.5C193.6 329.9 191.9 329.6 189.4 328.9L188.4 325.6ZM220.8 334.9C220.8 334.9 224.5 335.4 228.7 336.6L229.6 339.7C224.9 338.4 220 337.9 215.3 336.5C217.6 336.2 219.3 335.6 220.8 334.9ZM212.2 337.3C213.6 338.4 214.8 338.7 216.3 339.2C219.7 340.1 223.3 340.6 226.7 341.4C225.6 341.7 224.7 342.1 223.8 342.5C215.2 341.1 213.9 340.1 212.6 339.2L212.2 337.3Z" fill="white"/>
</g>
<mask id="mask3_85_74240" style="mask-type:luminance" maskUnits="userSpaceOnUse" x="188" y="319" width="42" height="28">
<path d="M188.1 324.5C190.9 324.3 192.7 323.5 194.5 322.7C196.3 321.9 198.1 321.1 201 320.9C203.8 320.7 204.9 321.2 205.9 321.8C206.9 322.3 207.9 322.9 210.7 322.6C213.5 322.4 215.3 321.6 217.1 320.8C218.9 320 220.7 319.2 223.6 319L229.9 340.8C227.1 341 225.2 341.9 223.4 342.6C221.6 343.4 219.8 344.2 217 344.4C214.2 344.6 213.2 344.1 212.2 343.6C211.2 343.1 210.1 342.5 207.3 342.7C204.5 342.9 202.6 343.8 200.8 344.5C199 345.3 197.2 346.1 194.4 346.3L188.1 324.5Z" fill="white"/>
</mask>
<g mask="url(#mask3_85_74240)">
<path d="M188.1 324.5C189.3 324.4 190.3 324.2 191.3 323.9C194.6 324.6 198 325 201.3 325.9C203.1 326.4 204.2 326.7 205.6 327.7L205.9 328.9C205.2 328.8 204.4 328.8 203.2 328.9C198.3 327.5 193.2 327.1 188.3 325.7L188.1 324.5Z" fill="#FC4F62"/>
</g>
<mask id="mask4_85_74240" style="mask-type:luminance" maskUnits="userSpaceOnUse" x="188" y="319" width="42" height="28">
<path d="M188.1 324.5C190.9 324.3 192.7 323.5 194.5 322.7C196.3 321.9 198.1 321.1 201 320.9C203.8 320.7 204.9 321.2 205.9 321.8C206.9 322.3 207.9 322.9 210.7 322.6C213.5 322.4 215.3 321.6 217.1 320.8C218.9 320 220.7 319.2 223.6 319L229.9 340.8C227.1 341 225.2 341.9 223.4 342.6C221.6 343.4 219.8 344.2 217 344.4C214.2 344.6 213.2 344.1 212.2 343.6C211.2 343.1 210.1 342.5 207.3 342.7C204.5 342.9 202.6 343.8 200.8 344.5C199 345.3 197.2 346.1 194.4 346.3L188.1 324.5Z" fill="white"/>
</mask>
<g mask="url(#mask4_85_74240)">
<path d="M212 336.5C212.7 336.6 213.6 336.7 214.8 336.6C215 336.6 215.1 336.6 215.3 336.5C220 337.8 224.9 338.3 229.6 339.7L229.9 340.8C228.7 340.9 227.6 341.1 226.7 341.4C223.2 340.7 219.7 340.2 216.3 339.2C214.8 338.8 213.6 338.4 212.2 337.3L212 336.5Z" fill="#FC4F62"/>
</g>
<mask id="mask5_85_74240" style="mask-type:luminance" maskUnits="userSpaceOnUse" x="188" y="319" width="42" height="28">
<path d="M188.1 324.5C190.9 324.3 192.7 323.5 194.5 322.7C196.3 321.9 198.1 321.1 201 320.9C203.8 320.7 204.9 321.2 205.9 321.8C206.9 322.3 207.9 322.9 210.7 322.6C213.5 322.4 215.3 321.6 217.1 320.8C218.9 320 220.7 319.2 223.6 319L229.9 340.8C227.1 341 225.2 341.9 223.4 342.6C221.6 343.4 219.8 344.2 217 344.4C214.2 344.6 213.2 344.1 212.2 343.6C211.2 343.1 210.1 342.5 207.3 342.7C204.5 342.9 202.6 343.8 200.8 344.5C199 345.3 197.2 346.1 194.4 346.3L188.1 324.5Z" fill="white"/>
</mask>
<g mask="url(#mask5_85_74240)">
<path d="M209.4 327.8C210.9 326.8 212.6 326.1 213.9 324.9C215.2 323.8 215.6 323.2 217.7 320.5C218.6 320.1 219.6 319.7 220.8 319.4C219 321 217.7 323.1 216.1 325C215 326.2 214.2 326.9 213.7 327.3C212.5 328.2 211.2 328.8 209.9 329.6L209.4 327.8ZM224 320.2L224.9 323.2C222.4 324.6 221.1 326.3 219.1 328.9C217.6 329.6 215.9 330.2 213.6 330.5C217.8 327.8 219.6 322.7 224 320.2ZM193.2 342.1C195.7 340.7 197.1 338.9 198.8 336.6C200.4 335.9 202.1 335.2 204.5 334.9C200.2 337.6 198.5 342.7 194.1 345.3L193.2 342.1ZM208 335.8L208.5 337.5C207.5 338.2 206.4 338.7 205.4 339.4C204.7 339.9 204.1 340.4 203.9 340.6C202.7 341.7 201.7 343 200.4 344.8C199.6 345.2 198.7 345.5 197.7 345.8C199.7 343.7 201.2 341.1 203.3 339.1C203.8 338.6 204.5 338.1 204.8 337.9C205.8 337.1 206.9 336.5 208 335.8Z" fill="white"/>
</g>
<mask id="mask6_85_74240" style="mask-type:luminance" maskUnits="userSpaceOnUse" x="188" y="319" width="42" height="28">
<path d="M188.1 324.5C190.9 324.3 192.7 323.5 194.5 322.7C196.3 321.9 198.1 321.1 201 320.9C203.8 320.7 204.9 321.2 205.9 321.8C206.9 322.3 207.9 322.9 210.7 322.6C213.5 322.4 215.3 321.6 217.1 320.8C218.9 320 220.7 319.2 223.6 319L229.9 340.8C227.1 341 225.2 341.9 223.4 342.6C221.6 343.4 219.8 344.2 217 344.4C214.2 344.6 213.2 344.1 212.2 343.6C211.2 343.1 210.1 342.5 207.3 342.7C204.5 342.9 202.6 343.8 200.8 344.5C199 345.3 197.2 346.1 194.4 346.3L188.1 324.5Z" fill="white"/>
</mask>
<g mask="url(#mask6_85_74240)">
<path d="M210 329.6C211.2 328.8 212.6 328.2 213.8 327.3C214.3 326.9 215.2 326.2 216.2 325C217.8 323.2 219.1 321.1 220.9 319.4C221.7 319.2 222.6 319 223.7 318.9L224.1 320.2C219.7 322.7 217.9 327.8 213.7 330.5C213.5 330.5 213.4 330.5 213.2 330.5C212 330.6 211.1 330.6 210.4 330.4L210 329.6Z" fill="#FC4F62"/>
</g>
<mask id="mask7_85_74240" style="mask-type:luminance" maskUnits="userSpaceOnUse" x="188" y="319" width="42" height="28">
<path d="M188.1 324.5C190.9 324.3 192.7 323.5 194.5 322.7C196.3 321.9 198.1 321.1 201 320.9C203.8 320.7 204.9 321.2 205.9 321.8C206.9 322.3 207.9 322.9 210.7 322.6C213.5 322.4 215.3 321.6 217.1 320.8C218.9 320 220.7 319.2 223.6 319L229.9 340.8C227.1 341 225.2 341.9 223.4 342.6C221.6 343.4 219.8 344.2 217 344.4C214.2 344.6 213.2 344.1 212.2 343.6C211.2 343.1 210.1 342.5 207.3 342.7C204.5 342.9 202.6 343.8 200.8 344.5C199 345.3 197.2 346.1 194.4 346.3L188.1 324.5Z" fill="white"/>
</mask>
<g mask="url(#mask7_85_74240)">
<path d="M194.2 345.3C198.5 342.7 200.3 337.6 204.6 334.9C204.8 334.9 204.9 334.9 205.1 334.8C206.2 334.7 207.1 334.7 207.8 334.8L208.1 335.7C203.6 338.7 203.6 338.7 203.3 338.9C201.2 340.9 199.8 343.5 197.7 345.6C196.8 345.9 195.8 346.1 194.5 346.2L194.2 345.3Z" fill="#FC4F62"/>
</g>
<mask id="mask8_85_74240" style="mask-type:luminance" maskUnits="userSpaceOnUse" x="188" y="319" width="42" height="28">
<path d="M188.1 324.5C190.9 324.3 192.7 323.5 194.5 322.7C196.3 321.9 198.1 321.1 201 320.9C203.8 320.7 204.9 321.2 205.9 321.8C206.9 322.3 207.9 322.9 210.7 322.6C213.5 322.4 215.3 321.6 217.1 320.8C218.9 320 220.7 319.2 223.6 319L229.9 340.8C227.1 341 225.2 341.9 223.4 342.6C221.6 343.4 219.8 344.2 217 344.4C214.2 344.6 213.2 344.1 212.2 343.6C211.2 343.1 210.1 342.5 207.3 342.7C204.5 342.9 202.6 343.8 200.8 344.5C199 345.3 197.2 346.1 194.4 346.3L188.1 324.5Z" fill="white"/>
</mask>
<g mask="url(#mask8_85_74240)">
<path d="M190.4 332.5C193.2 332.3 195 331.5 196.8 330.7C196.9 330.7 197 330.6 197 330.6C198.7 329.9 200.5 329.1 203.2 328.9C204.3 328.8 205.2 328.8 205.9 328.9L206.2 330C200.5 329.1 196 333.1 190.7 333.6L190.4 332.5ZM210.2 330.4C210.9 330.5 211.8 330.6 213 330.5C213.2 330.5 213.3 330.5 213.5 330.5C215.8 330.2 217.5 329.6 219 328.9C219.1 328.8 219.3 328.8 219.4 328.7C221.2 327.9 223 327.1 225.9 326.9L226.2 328C223.4 328.2 221.5 329.1 219.7 329.8C217.9 330.6 216.1 331.4 213.3 331.6C212.1 331.7 211.2 331.7 210.5 331.5L210.2 330.4ZM211.6 335.4C212.3 335.5 213.2 335.6 214.4 335.5C217.2 335.3 219 334.5 220.8 333.7C222.6 332.9 224.4 332.1 227.3 331.9L227.6 333C224.8 333.2 222.9 334.1 221.1 334.8C221 334.9 220.8 334.9 220.7 335C219.2 335.7 217.5 336.3 215.2 336.6C215 336.6 214.9 336.6 214.7 336.7C213.5 336.8 212.6 336.8 211.9 336.6L211.6 335.4ZM191.9 337.4C194.7 337.2 196.5 336.4 198.3 335.6C200.1 334.8 201.9 334 204.8 333.8C205.9 333.7 206.8 333.7 207.5 333.8L207.8 334.9C207.1 334.8 206.3 334.8 205.1 334.9C204.9 334.9 204.7 334.9 204.6 335C202.2 335.3 200.5 336 198.9 336.7C198.8 336.7 198.7 336.8 198.7 336.8C196.9 337.6 195.1 338.4 192.3 338.6L191.9 337.4Z" fill="white"/>
</g>
<mask id="mask9_85_74240" style="mask-type:luminance" maskUnits="userSpaceOnUse" x="188" y="319" width="42" height="28">
<path d="M188.1 324.5C190.9 324.3 192.7 323.5 194.5 322.7C196.3 321.9 198.1 321.1 201 320.9C203.8 320.7 204.9 321.2 205.9 321.8C206.9 322.3 207.9 322.9 210.7 322.6C213.5 322.4 215.3 321.6 217.1 320.8C218.9 320 220.7 319.2 223.6 319L229.9 340.8C227.1 341 225.2 341.9 223.4 342.6C221.6 343.4 219.8 344.2 217 344.4C214.2 344.6 213.2 344.1 212.2 343.6C211.2 343.1 210.1 342.5 207.3 342.7C204.5 342.9 202.6 343.8 200.8 344.5C199 345.3 197.2 346.1 194.4 346.3L188.1 324.5Z" fill="white"/>
</mask>
<g mask="url(#mask9_85_74240)">
<path d="M207 322.2C207.3 322.3 207.6 322.4 207.9 322.5L209.4 327.8L209.9 329.6L210.1 330.4L210.4 331.5C210 331.4 209.7 331.3 209.5 331.2C208.7 328.2 207.8 325.2 207 322.2ZM206 328.8L205.7 327.6L205.3 326.1L203.8 320.8C204.2 320.9 204.5 320.9 204.8 321L207.4 330C207.1 329.9 206.8 329.8 206.4 329.8L206 328.8ZM210.7 335.1C211 335.2 211.3 335.3 211.6 335.4L211.9 336.5L212.1 337.3L212.6 339.1L214.1 344.3C213.7 344.2 213.4 344.1 213.2 344L210.7 335.1ZM208.5 337.5L208 335.8L207.7 334.9L207.4 333.8C207.8 333.9 208.1 333.9 208.4 334L211 342.9C210.7 342.8 210.4 342.7 210 342.7L208.5 337.5Z" fill="white"/>
</g>
<mask id="mask10_85_74240" style="mask-type:luminance" maskUnits="userSpaceOnUse" x="188" y="319" width="42" height="28">
<path d="M188.1 324.5C190.9 324.3 192.7 323.5 194.5 322.7C196.3 321.9 198.1 321.1 201 320.9C203.8 320.7 204.9 321.2 205.9 321.8C206.9 322.3 207.9 322.9 210.7 322.6C213.5 322.4 215.3 321.6 217.1 320.8C218.9 320 220.7 319.2 223.6 319L229.9 340.8C227.1 341 225.2 341.9 223.4 342.6C221.6 343.4 219.8 344.2 217 344.4C214.2 344.6 213.2 344.1 212.2 343.6C211.2 343.1 210.1 342.5 207.3 342.7C204.5 342.9 202.6 343.8 200.8 344.5C199 345.3 197.2 346.1 194.4 346.3L188.1 324.5Z" fill="white"/>
</mask>
<g mask="url(#mask10_85_74240)">
<path d="M204.7 321.1C205.2 321.3 205.6 321.5 205.9 321.7C206.2 321.9 206.6 322.1 207 322.2C207.9 325.2 208.7 328.2 209.6 331.2C209.2 331 208.9 330.9 208.5 330.7C208.1 330.5 207.7 330.3 207.3 330.1L204.7 321.1ZM208.4 334.1C208.9 334.3 209.3 334.5 209.6 334.7C209.9 334.9 210.3 335.1 210.7 335.2L213.3 344.1C212.9 343.9 212.6 343.8 212.2 343.6C211.8 343.4 211.4 343.2 211 343L208.4 334.1Z" fill="#FC4F62"/>
</g>
<path d="M190.7 333.5C196 333 200.6 329 206.2 329.9C206.6 330 206.9 330 207.2 330.1C207.7 330.3 208.1 330.5 208.4 330.7C208.7 330.9 209.1 331.1 209.5 331.2C209.8 331.3 210.1 331.4 210.4 331.5C211.1 331.6 212 331.7 213.2 331.6C216 331.4 217.8 330.6 219.6 329.8C221.4 329 223.2 328.2 226.1 328L227.2 331.9C224.4 332.1 222.5 333 220.7 333.7C218.9 334.5 217.1 335.3 214.3 335.5C213.1 335.6 212.2 335.6 211.5 335.4C211.1 335.3 210.8 335.2 210.6 335.1C210.2 334.9 209.9 334.8 209.5 334.6C209.1 334.4 208.7 334.2 208.3 334C208 333.9 207.7 333.8 207.3 333.8C206.6 333.7 205.8 333.7 204.6 333.8C201.8 334 199.9 334.9 198.1 335.6C196.3 336.4 194.5 337.2 191.7 337.4L190.7 333.5Z" fill="#FC4F62"/>
</g>
<path d="M199.4 364.7C199 364.8 198.5 364.6 198.4 364.1L186.6 322.7L188.2 322.3L200 363.7C200.1 364.1 199.9 364.6 199.4 364.7Z" fill="#557E8A"/>
<path d="M188.7 321.3C188.5 320.4 187.5 319.9 186.7 320.2C185.8 320.4 185.3 321.4 185.6 322.2C185.8 323.1 186.8 323.6 187.6 323.3C188.5 323.1 189 322.2 188.7 321.3Z" fill="#557E8A"/>
</g>
<path d="M303.5 425.3C296.5 430.3 289.2 434.9 281.6 439C266.2 447.3 249.7 453.8 232.2 458C231.2 458.3 230.1 458.5 229.1 458.7C229 458.5 228.8 458.2 228.6 457.9C227.6 455.9 226.3 453 224.8 449.3C224.4 448.3 224 447.3 223.5 446.2C223.2 445.5 223 444.8 222.7 444.1C222.3 442.9 221.8 441.7 221.3 440.5C221 439.8 220.7 439 220.4 438.2C220.4 438.1 220.3 438 220.3 437.8C219.9 436.7 219.5 435.6 219.1 434.5C218.5 432.9 217.9 431.2 217.2 429.5C216.4 427.3 215.6 425 214.7 422.6C212.8 417.3 210.9 411.8 209 406.3C200.5 381.8 192.8 358.2 193 357.5C193 357.5 224.2 346 245.7 338.7C250.6 337 254.9 335.6 258.4 334.6C262.5 333.3 265.2 332.6 265.6 332.9C265.9 333.1 267.2 335.7 269.1 340C270.2 342.5 271.5 345.6 273 349C276.8 358 281.6 369.8 286.5 381.9C286.9 382.8 287.3 383.8 287.6 384.7C287.6 384.8 287.7 384.9 287.7 384.9C293.5 399.4 299.1 413.9 302.8 423.7C303.1 424.2 303.3 424.8 303.5 425.3Z" fill="#F8F8F8"/>
<path d="M269.2 339.9L260.8 343.6L250.8 348L209.8 366L218.3 400.9L218.7 402.5V402.6L219.2 404.8L222.3 417.6L224.5 426.5L225.2 429.4L226.5 434.7L226.7 435.6L227.7 439.6L228.2 441.7L228.4 442.3L229.7 447.5L232 456.9L232.3 458C231.3 458.3 230.2 458.5 229.2 458.7C229.1 458.5 228.9 458.2 228.7 457.9C227.7 455.9 226.4 453 224.9 449.3C224.5 448.3 224.1 447.3 223.6 446.2C223.3 445.5 223.1 444.8 222.8 444.1C222.4 442.9 221.9 441.7 221.4 440.5C221.1 439.8 220.8 439 220.5 438.2C220.5 438.1 220.4 438 220.4 437.8C220 436.7 219.6 435.6 219.2 434.5C218.6 432.9 218 431.2 217.3 429.5C216.5 427.3 215.7 425 214.8 422.6C212.9 417.3 211 411.8 209.1 406.3C200.6 381.8 192.9 358.2 193.1 357.5C193.1 357.5 224.3 346 245.8 338.7C250.7 337 255 335.6 258.5 334.6C262.6 333.3 265.3 332.6 265.7 332.9C266 333 267.3 335.6 269.2 339.9Z" fill="white"/>
<path d="M242.2 386.9C237.9 389 235.4 394 235.7 398.7C236.1 403.4 239.2 407.8 243.5 409.9C246.2 411.2 249.5 411.7 252.2 410.4C254 409.5 255.4 407.9 256.5 406.1C259.1 401.8 260.8 393.7 257.2 389.4C254.2 385.7 246.2 384.9 242.2 386.9Z" fill="#E6F2FF"/>
<path d="M273.5 421.4L258.3 428.7L255.9 433.1C253.8 436 223.3 451.4 221.8 449.8C221.4 449.4 221 448.8 220.6 448.3C220 447.5 219.5 446.7 219.2 446.1C219 445.7 218.8 445.4 218.8 445.4C218.8 445.4 217.7 444.8 216.5 443.9C215.8 443.4 215 442.8 214.5 442.2C213.9 441.6 213.5 440.9 213.6 440.3C213.7 439.7 215.2 438.2 217.3 436.2C222.4 431.5 231.1 424.4 230.3 424.2C229.2 423.9 206.9 434.1 206.9 434.1C206.9 434.1 206.2 433.8 205.5 433.1C205.1 432.7 204.6 432.1 204.3 431.3C203.5 429.2 233.5 410.1 233.5 410.1C227.9 409.3 222.6 406.5 218.8 402.3L218.7 402.2C218.4 401.8 218.1 401.3 218.2 400.9C218.3 400.7 218.5 400.5 218.6 400.3C220.1 399 222.3 398.8 224.3 399.1C226.3 399.4 228.2 400.3 230.1 400.8C233.8 401.9 237.7 401.5 241.5 401.1C248 400.5 255.4 409.7 255.4 409.7C255.4 409.7 263.8 406.3 264.4 406.7C265.6 407.5 266.7 408.4 267.7 409.4C269.4 411.1 270.6 413.1 271.5 414.9C271.6 415.1 271.7 415.4 271.8 415.6C273.1 418.9 273.5 421.4 273.5 421.4Z" fill="#FFA07F"/>
<path d="M216.5 444C217 443.7 217.6 443.3 218.1 442.9C221.3 440.7 223.9 438.4 225.7 436.6C227.4 434.9 228.4 433.7 228.5 433.6C228.3 433.7 227 434.4 224.9 435.6C222.7 436.9 219.8 438.7 216.6 440.8C215.8 441.3 215.1 441.8 214.4 442.3C215 442.9 215.8 443.5 216.5 444Z" fill="#FF7D6F"/>
<path d="M220.6 448.3C225.7 444.9 229.2 441.3 229.5 441.1C229.2 441.2 224.5 442.9 219.2 446.1C219.5 446.6 220 447.5 220.6 448.3Z" fill="#FF7D6F"/>
<path d="M269.4 434.3C269.4 434.3 357.3 410.8 360.6 387.9C364 365 289.8 285.6 275.3 275.5C260.8 265.4 247.5 274.5 247.5 274.5L272.5 329.2C284 344.2 295.5 359.3 307 374.3C290.4 382.4 273.9 390.5 257.3 398.6L267.3 428.1L269.4 434.3Z" fill="#007AFF"/>
<path d="M257.3 398.5L309.7 374.6C309.7 374.6 270.3 325.8 266.1 316.2C266.1 316.2 269.3 329.2 282.2 346.9C295.1 364.6 302.4 372.9 302.4 372.9L257.3 398.5Z" fill="#0371D6"/>
<path d="M157.35 155.55C157.35 164.828 149.828 172.35 140.55 172.35C131.272 172.35 123.75 164.828 123.75 155.55C123.75 146.272 131.272 138.75 140.55 138.75C149.828 138.75 157.35 146.272 157.35 155.55Z" fill="#262626" stroke="#007AFF" stroke-width="1.5"/>
<path d="M147.245 151C147.245 147.165 143.995 144.045 140.095 144.305C136.65 144.5 133.92 147.36 133.79 150.805C133.725 152.3 134.18 153.73 135.025 154.9C136.13 156.46 136.715 158.41 136.715 160.36V160.425H144.385V160.36C144.385 158.345 145.035 156.395 146.14 154.77C146.855 153.665 147.245 152.365 147.245 151Z" fill="#FFBC00"/>
<path d="M140.16 154.12C139.965 154.055 139.64 153.86 139.51 153.795C139.9 153.405 140.095 152.755 139.835 152.235C139.51 151.325 138.145 151.065 137.82 152.17C137.69 152.755 137.885 153.34 138.34 153.795C138.08 153.86 137.82 153.795 137.56 153.665C136.91 153.34 136.65 152.69 136.52 152.04C136.455 151.715 135.935 151.65 135.935 152.04C136 153.275 136.78 154.51 138.145 154.51C138.405 154.51 138.6 154.445 138.86 154.315C139.055 154.445 139.315 154.575 139.575 154.64V161.01C139.575 161.4 140.16 161.4 140.16 161.01C140.16 161.01 140.355 154.25 140.16 154.12ZM139.25 152.885C139.25 153.145 139.12 153.34 138.99 153.47C138.86 153.34 138.795 153.275 138.665 153.145C138.535 152.95 138.34 152.56 138.47 152.365C138.795 151.585 139.315 152.495 139.25 152.885Z" fill="white"/>
<path d="M140.875 161.01C140.875 161.4 141.46 161.4 141.46 161.01V154.575C141.72 154.51 141.915 154.38 142.175 154.25C142.37 154.38 142.63 154.38 142.89 154.445C144.255 154.445 145.035 153.275 145.1 151.975C145.1 151.585 144.58 151.65 144.515 151.975C144.45 152.625 144.125 153.34 143.475 153.6C143.215 153.73 142.955 153.73 142.695 153.73C143.085 153.275 143.345 152.69 143.215 152.105C142.955 151 141.525 151.325 141.2 152.17C141.005 152.755 141.135 153.34 141.525 153.73C141.33 153.86 141.005 153.99 140.875 154.055C140.745 154.25 140.875 161.01 140.875 161.01ZM142.565 152.3C142.695 152.495 142.5 152.885 142.37 153.08C142.305 153.21 142.175 153.34 142.045 153.405C141.915 153.275 141.785 153.08 141.785 152.82C141.72 152.495 142.24 151.585 142.565 152.3Z" fill="white"/>
<path d="M145.88 160.425H135.22V163.025H145.88V160.425Z" fill="white"/>
<path d="M142.76 166.86H138.34C137.495 166.86 136.845 166.21 136.845 165.365V161.725H144.255V165.365C144.255 166.21 143.54 166.86 142.76 166.86Z" fill="white"/>
<path d="M147.245 151C147.245 147.165 143.995 144.045 140.095 144.305C136.65 144.5 133.92 147.36 133.79 150.805C133.79 151.195 133.79 151.585 133.855 151.975C134.31 148.855 136.91 146.385 140.095 146.19C140.485 146.19 140.81 146.19 141.135 146.19C141.07 146.385 141.005 146.58 141.005 146.775C141.005 147.23 141.265 147.685 141.59 148.075C142.045 148.595 142.565 148.985 143.15 149.245C143.54 149.44 143.995 149.505 144.385 149.44C144.905 149.375 145.425 148.92 145.62 148.465C146.465 149.44 146.985 150.61 147.18 151.91C147.245 151.65 147.245 151.325 147.245 151Z" fill="#FFD75D"/>
<path d="M345.589 108.425C345.637 97.2408 336.609 88.1352 325.425 88.0871C314.241 88.039 305.135 97.0666 305.087 108.251C305.039 119.435 314.067 128.541 325.251 128.589C336.435 128.637 345.541 119.609 345.589 108.425Z" fill="white"/>
<path d="M346.589 105.425C346.637 94.2408 337.609 85.1352 326.425 85.0871C315.241 85.039 306.135 94.0666 306.087 105.251C306.039 116.435 315.067 125.541 326.251 125.589C337.435 125.637 346.541 116.609 346.589 105.425Z" fill="#00254C"/>
<path d="M340.408 105.32C340.408 113.077 334.121 119.365 326.363 119.365C318.606 119.365 312.318 113.077 312.318 105.32C312.318 97.5622 318.606 91.2747 326.363 91.2747C334.121 91.2747 340.408 97.5622 340.408 105.32Z" fill="#D53F36"/>
<path d="M337.959 105.32C337.959 111.689 332.733 116.915 326.363 116.915C319.994 116.915 314.768 111.689 314.768 105.32C314.768 98.9504 319.994 93.7244 326.363 93.7244C332.733 93.7244 337.959 98.8687 337.959 105.32Z" fill="white"/>
<path d="M335.345 105.32C335.345 110.301 331.344 114.302 326.363 114.302C321.382 114.302 317.381 110.301 317.381 105.32C317.381 100.339 321.382 96.3374 326.363 96.3374C331.344 96.3374 335.345 100.339 335.345 105.32Z" fill="#D53F36"/>
<path d="M332.732 105.32C332.732 108.831 329.874 111.689 326.363 111.689C322.852 111.689 319.994 108.831 319.994 105.32C319.994 101.808 322.852 98.9504 326.363 98.9504C329.874 98.9504 332.732 101.808 332.732 105.32Z" fill="white"/>
<path d="M330.201 105.32C330.201 107.443 328.486 109.157 326.363 109.157C324.24 109.157 322.525 107.443 322.525 105.32C322.525 103.196 324.24 101.482 326.363 101.482C328.486 101.482 330.201 103.196 330.201 105.32Z" fill="#D53F36"/>
<path d="M331.426 110.382V115.445L335.754 119.773V114.71L331.426 110.382Z" fill="#FFBC00"/>
<path d="M331.426 110.382H336.489L340.816 114.71H335.754L331.426 110.382Z" fill="#FFBC00"/>
<path d="M336.897 116.996C336.57 116.996 336.325 116.915 336.08 116.67L325.057 105.728C324.567 105.238 324.567 104.585 325.057 104.095C325.465 103.605 326.2 103.605 326.69 104.095L337.713 115.118C338.203 115.527 338.203 116.262 337.713 116.752C337.468 116.915 337.223 116.996 336.897 116.996Z" fill="#131313"/>
<path d="M27.85 222.8C27.85 233.873 18.8733 242.85 7.8 242.85C-3.27331 242.85 -12.25 233.873 -12.25 222.8C-12.25 211.727 -3.27331 202.75 7.8 202.75C18.8733 202.75 27.85 211.727 27.85 222.8Z" fill="#262626" stroke="#007AFF" stroke-width="1.5"/>
<path d="M17.7999 209.5H-2.30005V236H12.2L17.7999 230.6V209.5Z" fill="#B8DAFF"/>
<path d="M12.2 236L17.8 230.6H12.2V236Z" fill="#007AFF"/>
<path d="M14.5999 213.3H0.899902V214.9H14.5999V213.3Z" fill="#007AFF"/>
<path d="M14.5999 216.8H0.899902V218.4H14.5999V216.8Z" fill="#007AFF"/>
<path d="M14.5999 220.2H0.899902V221.8H14.5999V220.2Z" fill="#007AFF"/>
<path d="M14.5999 223.6H0.899902V225.2H14.5999V223.6Z" fill="#007AFF"/>
<path d="M14.5999 227H0.899902V228.6H14.5999V227Z" fill="#007AFF"/>
<path d="M104.4 423.601C104.4 436.701 93.8 447.201 80.8 447.201C67.7 447.201 57.2 436.601 57.2 423.601C57.2 410.501 67.8 400.001 80.8 400.001C93.9 399.901 104.4 410.501 104.4 423.601Z" fill="white"/>
<path d="M102.2 425.101C102.2 438.201 91.6 448.701 78.6 448.701C65.5 448.701 55 438.101 55 425.101C55 412.001 65.6 401.501 78.6 401.501C91.6 401.501 102.2 412.001 102.2 425.101Z" fill="#00254C"/>
<path d="M71.8 426.301C69.2 425.401 67.4 423.801 66.5 421.701C64.8 418.001 66.3 413.901 66.3 413.701L66.7 412.601L72.6 416.001L71.7 417.701L67.7 415.401C67.4 416.701 67.2 418.901 68.1 420.801C68.9 422.501 70.3 423.701 72.4 424.401L71.8 426.301Z" fill="#EC8B1E"/>
<path d="M84.7 426.101C87.3 425.401 89.3 424.001 90.4 421.901C92.4 418.301 91.3 414.101 91.2 413.901L90.9 412.801L84.7 415.701L85.5 417.401L89.6 415.401C89.8 416.701 89.8 418.901 88.7 420.801C87.8 422.401 86.3 423.501 84.1 424.101L84.7 426.101Z" fill="#FFBC00"/>
<path d="M80.5 436.401C79.2 437.101 78 437.101 77.2 437.001C76.5 436.901 76.1 436.601 76.1 436.601C77.4 435.101 77.5 426.001 77.5 426.001L80.9 425.701C80.7 426.301 80.7 427.001 80.6 427.701C80.4 431.101 80.5 436.401 80.5 436.401Z" fill="#FFBC00"/>
<path d="M80.5 427.701C78.9 429.901 77 434.201 77.1 437.001C76.4 436.901 76 436.601 76 436.601C77.3 435.101 77.4 426.001 77.4 426.001L80.8 425.701C80.6 426.301 80.6 427.001 80.5 427.701Z" fill="#EC8B1E"/>
<path d="M85.6 439.301C78.1 443.601 71.2 438.701 71.2 438.701C71.4 438.501 71.6 438.301 71.9 438.201C78.2 433.201 83.1 436.801 84.9 438.501C85.4 439.001 85.6 439.301 85.6 439.301Z" fill="#FFBC00"/>
<path d="M85.6 439.301C78.1 443.601 71.2 438.701 71.2 438.701C71.4 438.501 71.6 438.301 71.9 438.201C73.9 439.301 76.1 440.001 78.6 440.101C80.8 440.101 83 439.601 84.9 438.601C85.4 439.001 85.6 439.301 85.6 439.301Z" fill="#EC8B1E"/>
<path d="M81 439.101C81.6 439.001 82.1 438.701 82.3 438.301C82.5 437.901 82.2 437.401 81.9 437.101C81.2 436.601 80 436.501 79.1 436.401C78 436.301 76.8 436.301 75.8 436.501C74.1 436.801 74.1 438.001 75.7 438.701C77.3 439.401 79.2 439.501 81 439.101Z" fill="#FFCC5E"/>
<path d="M87.7 425.501C87.5 426.401 84 429.201 80.1 429.901C79.6 430.001 79.2 430.001 78.7 430.001C78.6 430.001 78.6 430.001 78.5 430.001C74 430.001 70.6 427.401 70.2 425.601C69.8 423.801 72.2 411.601 72.2 411.601C76.7 410.901 86.3 411.201 86.3 411.201C86.3 411.201 86.4 411.601 86.4 412.301C86.5 413.301 86.7 415.001 86.9 416.801C87.4 420.501 87.8 424.901 87.7 425.501Z" fill="#FFBC00"/>
<path d="M73 413.401C73 413.401 68.3 425.301 78.7 429.901C78.6 429.901 78.6 429.901 78.5 429.901C74 429.901 70.6 427.301 70.2 425.501C69.8 423.701 72.2 411.501 72.2 411.501C76.7 410.801 86.3 411.101 86.3 411.101C86.3 411.101 86.4 411.501 86.4 412.201C84.3 414.501 79.7 417.501 73 413.401Z" fill="#EC8B1E"/>
<path d="M72.2 411.601C72.2 411.601 78.4 406.201 86.3 411.201C86.3 411.201 79.2 415.601 72.2 411.601Z" fill="#FFBC00"/>
<path d="M84.6 411.601C84.6 411.601 83.6 412.101 82.1 412.401C80.5 412.701 78.4 412.901 76.2 412.501C75.5 412.301 74.7 412.101 74 411.801C73.9 411.701 78.6 408.601 84.6 411.601Z" fill="#EC8B1E"/>
<path d="M82.1 412.401C80.5 412.701 78.4 412.901 76.2 412.501C77.6 412.001 79.7 411.701 82.1 412.401Z" fill="#D1730C"/>
<path d="M87.7 425.5C87.5 426.4 84 429.2 80.1 429.9C78.9 428.8 78 427.5 77.2 426C76.7 425.1 76.3 424.2 76.2 423.2C76 421.4 76.8 419.6 78.1 418.3C79.4 417.1 81.2 416.5 82.9 416.3C84.3 416.2 85.6 416.3 86.9 416.8C87.4 420.5 87.8 424.9 87.7 425.5Z" fill="#FFCC5E"/>
<path d="M25.4 307.3C26.3 309.3 26.8 311.3 26.8 313.4C26.9 319.4 23.6 325.1 17.8 327.8C12 330.5 5.50002 329.2 1.00002 325.2C-0.499979 323.8 -1.79998 322.1 -2.69998 320.2C-3.09998 319.3 -3.39998 318.3 -3.69998 317.4C-5.39998 310.4 -1.99998 302.9 4.90002 299.7C11.7 296.6 19.7 298.9 23.9 304.7C24.5 305.5 25 306.3 25.4 307.3Z" fill="#131313"/>
<path d="M23.8001 305.5C24.7001 307.5 25.2 309.5 25.2 311.6C25.3 317.6 22 323.3 16.2 326C10.4 328.6 3.90005 327.4 -0.599948 323.4C-2.09995 322 -3.39995 320.3 -4.29995 318.4C-4.69995 317.5 -4.99995 316.5 -5.29995 315.6C-6.99995 308.6 -3.59995 301.1 3.30005 297.9C10.1001 294.8 18.1001 297.1 22.3001 302.9C22.8001 303.8 23.3001 304.6 23.8001 305.5Z" fill="#D53F36"/>
<path d="M22.3 303L-5.19998 315.6C-6.89998 308.6 -3.49998 301.1 3.40002 297.9C10.1 294.8 18.1 297.1 22.3 303Z" fill="#131313"/>
<path d="M25.2 311.6C25.3 317.6 22 323.3 16.2 326C10.4 328.6 3.90002 327.4 -0.599976 323.4L25.2 311.6Z" fill="#FDDA5F"/>
<path d="M241.9 127.721C241.1 129.621 240 131.221 238.6 132.521C234.5 136.421 228.4 137.721 222.9 135.421C217.4 133.121 214.1 127.821 214 122.121C214 120.221 214.4 118.221 215.1 116.321C215.5 115.421 215.9 114.621 216.4 113.821C220.2 108.121 227.6 105.821 234.1 108.521C240.6 111.321 244.1 118.221 242.7 124.921C242.5 126.021 242.2 126.821 241.9 127.721Z" fill="#131313"/>
<path d="M241.4 126.121C238.5 131.921 232.2 134.921 226.2 133.921C225.6 133.821 225.1 133.721 224.5 133.521C223.6 133.321 222.7 132.921 221.9 132.521C220.1 131.621 218.5 130.321 217.3 128.921C213.7 124.621 212.8 118.421 215.5 113.021C218.2 107.721 223.7 104.721 229.3 105.021C231.2 105.121 233.2 105.621 235 106.521C235.9 106.921 236.6 107.421 237.4 108.021C238.1 108.621 238.8 109.221 239.4 109.821C243.2 114.221 244.2 120.621 241.4 126.121Z" fill="white"/>
<path d="M241.4 126.121C238.5 131.921 232.2 134.921 226.2 133.921L238.6 109.321C238.9 109.521 239.1 109.721 239.3 109.921C243.2 114.221 244.2 120.621 241.4 126.121Z" fill="#D53F36"/>
<path d="M217.3 128.921C213.7 124.621 212.8 118.421 215.5 113.021C218.2 107.721 223.7 104.721 229.3 105.021L217.3 128.921Z" fill="#007AFF"/>
<path d="M379.735 290.94C379.435 292.94 378.735 294.84 377.635 296.44C374.635 301.24 368.935 304.04 363.035 303.04C357.135 302.14 352.535 297.74 351.135 292.24C350.635 290.34 350.535 288.34 350.835 286.34C350.935 285.44 351.235 284.44 351.535 283.64C353.835 277.14 360.535 273.04 367.535 274.14C374.535 275.24 379.635 281.24 379.835 288.04C379.935 289.14 379.935 290.04 379.735 290.94Z" fill="#131313"/>
<path d="M371.334 299.04C370.634 299.44 369.935 299.84 369.135 300.14C368.335 300.44 367.535 300.74 366.735 300.84C366.235 300.94 365.834 301.04 365.334 301.04C363.634 301.24 361.934 301.14 360.334 300.74C356.934 299.94 353.934 297.94 351.834 295.14C351.334 294.44 350.934 293.74 350.534 293.04C350.334 292.74 350.234 292.34 350.034 292.04C349.834 291.64 349.735 291.24 349.635 290.74C349.435 290.04 349.235 289.34 349.135 288.64C348.635 284.84 349.535 281.14 351.735 278.14C352.735 276.74 353.934 275.54 355.334 274.54C355.534 274.34 355.734 274.24 356.034 274.14C356.734 273.74 357.435 273.34 358.235 273.04C359.035 272.74 359.835 272.44 360.635 272.34C366.535 271.04 372.634 273.54 375.934 278.54C376.234 278.94 376.435 279.44 376.735 279.94C376.935 280.34 377.134 280.74 377.334 281.14C377.534 281.64 377.734 282.24 377.934 282.74C378.134 283.34 378.234 283.94 378.334 284.54C378.934 290.24 376.334 295.94 371.334 299.04Z" fill="#007AFF"/>
<path d="M365.434 301.04C363.734 301.24 362.034 301.14 360.434 300.74L356.634 290.74L355.034 286.44L351.834 278.04C352.834 276.64 354.034 275.44 355.434 274.44L359.334 284.74L360.934 289.04L365.434 301.04Z" fill="#FDDA5F"/>
<path d="M377.834 282.74L360.934 289.14L356.634 290.74L350.634 293.04C350.434 292.74 350.334 292.34 350.134 292.04C349.934 291.64 349.834 291.24 349.734 290.74C349.534 290.04 349.334 289.34 349.234 288.64L354.934 286.44L359.234 284.84L375.934 278.54C376.234 278.94 376.434 279.44 376.734 279.94C376.934 280.34 377.134 280.74 377.334 281.14C377.434 281.64 377.634 282.14 377.834 282.74Z" fill="#FDDA5F"/>
<path d="M253 229.073C253 229.073 260.7 228.173 273.1 218.073C271.5 213.673 270.8 208.973 271.2 204.173C272.7 182.873 293.7 167.073 318.2 168.773C342.6 170.473 361.3 189.073 359.8 210.373C358.3 231.673 337.3 247.473 312.8 245.773C301.1 244.973 290.7 240.273 283.2 233.273C275.8 234.673 265.3 234.773 253 229.073Z" fill="white"/>
<path d="M253.4 227.373C253.4 227.373 260.9 225.373 271.6 213.573C269.4 209.473 268 204.973 267.6 200.173C265.9 178.973 284.3 160.073 308.7 158.173C333.1 156.173 354.3 171.773 356 193.073C357.7 214.273 339.3 233.173 314.9 235.073C303.2 235.973 292.2 232.873 283.8 227.073C276.8 229.573 266.4 231.273 253.4 227.373Z" fill="#007AFF"/>
<path d="M343.85 182.319C344.071 183.155 344.347 184.389 344.68 186.022C344.996 187.594 345.262 188.789 345.479 189.609C345.536 189.826 345.67 190.27 345.881 190.943C345.935 191.21 345.895 191.435 345.762 191.62C345.625 191.788 345.44 191.903 345.208 191.965C344.96 192.03 344.72 192.027 344.486 191.957C344.252 191.886 344.085 191.757 343.986 191.568C343.465 190.348 342.971 188.857 342.505 187.093L341.572 183.468C341.42 182.895 341.367 182.413 341.413 182.02C341.469 181.608 341.745 181.337 342.24 181.206C342.658 181.095 343.004 181.153 343.278 181.378C343.549 181.588 343.74 181.902 343.85 182.319ZM345.411 193.202C346.463 192.924 347.093 193.179 347.301 193.968C347.408 194.37 347.374 194.776 347.201 195.186C347.04 195.576 346.765 195.823 346.379 195.925C345.915 196.048 345.499 196.008 345.131 195.808C344.76 195.592 344.523 195.29 344.421 194.903C344.331 194.563 344.373 194.221 344.547 193.877C344.736 193.529 345.024 193.304 345.411 193.202Z" fill="white"/>
<path d="M341.289 189.426C341.47 189.61 341.655 189.9 341.842 190.297C342.026 190.679 342.161 191.032 342.247 191.357C342.357 191.775 342.433 192.251 342.475 192.786C342.518 193.321 342.537 193.738 342.533 194.037C341.981 196.268 340.661 197.66 338.572 198.212C337.799 198.416 336.943 198.369 336.003 198.072C335.064 197.774 334.352 197.333 333.867 196.75C333.101 195.545 332.67 194.757 332.572 194.386C332.408 193.767 332.366 193.075 332.445 192.31C332.539 191.54 332.728 190.845 333.01 190.224C333.195 189.794 333.595 189.366 334.21 188.939C334.821 188.496 335.405 188.201 335.962 188.054C337.045 187.767 338.013 187.735 338.865 187.956C339.73 188.158 340.538 188.648 341.289 189.426ZM340.258 193.695C340.295 193.52 340.196 192.991 339.963 192.11C339.845 191.661 339.643 191.243 339.358 190.855C339.089 190.462 338.759 190.152 338.368 189.925C338.329 189.902 338.231 189.878 338.076 189.853C337.916 189.813 337.704 189.794 337.441 189.798C337.188 189.782 336.907 189.814 336.598 189.896C335.732 190.125 335.189 190.641 334.971 191.443C334.753 192.246 334.76 193.088 334.993 193.969C335.03 194.109 335.152 194.383 335.36 194.791C335.567 195.2 335.71 195.46 335.789 195.571C335.97 195.755 336.285 195.945 336.734 196.141C337.194 196.317 337.649 196.346 338.097 196.227C338.794 196.043 339.3 195.736 339.616 195.304C339.944 194.854 340.158 194.317 340.258 193.695Z" fill="white"/>
<path d="M325.26 201.259C325.091 201.055 324.965 200.799 324.883 200.489C324.806 200.195 324.906 199.697 325.183 198.995C324.375 198.944 323.671 198.658 323.07 198.139C322.485 197.615 322.08 196.927 321.855 196.077C321.708 195.52 321.706 194.982 321.851 194.464C321.991 193.931 322.238 193.394 322.592 192.853C323.193 191.933 324.189 191.289 325.581 190.921C326.138 190.774 326.859 190.716 327.745 190.747C328.498 189.654 329.246 189.009 329.989 188.813C330.453 188.69 330.81 188.695 331.06 188.828C331.322 188.941 331.51 189.214 331.624 189.647C331.669 189.817 331.643 189.998 331.544 190.189C331.457 190.361 331.313 190.474 331.112 190.527L330.271 190.724C329.745 190.863 329.392 191.064 329.214 191.327C329.601 191.605 329.962 191.998 330.295 192.505C330.643 193.009 330.911 193.617 331.099 194.328C331.349 195.272 330.932 196.325 329.849 197.489C329.159 198.134 328.283 198.606 327.22 198.904C327.129 199.06 327.051 199.205 326.987 199.338C326.934 199.451 326.916 199.538 326.932 199.6C326.977 199.77 327.159 199.863 327.477 199.878C327.796 199.893 328.263 199.844 328.878 199.731C329.335 199.644 329.864 199.611 330.466 199.634C331.079 199.638 331.575 199.697 331.953 199.812C332.433 200 332.795 200.243 333.04 200.543C333.3 200.838 333.497 201.241 333.632 201.752C333.808 202.417 333.646 203.055 333.146 203.667C332.665 204.291 332.043 204.819 331.281 205.253C330.518 205.686 329.828 205.984 329.209 206.148C328.466 206.344 327.808 206.419 327.233 206.372C326.677 206.337 326.127 206.226 325.581 206.039C325.195 205.893 324.862 205.667 324.582 205.36C324.302 205.053 324.111 204.707 324.009 204.32C323.927 204.011 324.049 203.532 324.374 202.883C324.715 202.23 325.083 201.744 325.478 201.424C325.419 201.39 325.347 201.335 325.26 201.259ZM326.647 197.019C327.374 196.827 327.934 196.472 328.327 195.955C328.716 195.422 328.818 194.807 328.634 194.111C328.487 193.554 328.208 193.156 327.797 192.917C327.382 192.663 326.881 192.613 326.293 192.769C325.071 193.092 324.346 193.573 324.118 194.213C324.058 194.361 324.028 194.625 324.03 195.005C324.027 195.37 324.05 195.646 324.099 195.831C324.168 196.094 324.333 196.34 324.592 196.57C324.863 196.779 325.185 196.934 325.559 197.034C325.929 197.118 326.291 197.113 326.647 197.019ZM326.233 203.906C326.303 204.169 326.602 204.33 327.13 204.389C327.678 204.459 328.231 204.42 328.788 204.273C329.407 204.11 330.01 203.826 330.598 203.422C331.206 203.03 331.461 202.648 331.363 202.277C331.22 201.735 330.649 201.514 329.649 201.613C328.548 201.705 327.675 201.754 327.031 201.759C327.026 201.992 326.891 202.325 326.625 202.76C326.455 203.053 326.331 203.276 326.256 203.428C326.2 203.592 326.192 203.751 326.233 203.906Z" fill="white"/>
<path d="M316.024 198.71C316.169 198.755 316.447 198.838 316.86 198.961C317.285 199.064 317.595 199.238 317.793 199.484C317.99 199.73 318.154 200.1 318.285 200.595C318.432 201.152 318.401 201.69 318.19 202.209C317.976 202.712 317.644 203.148 317.195 203.515C316.88 203.763 316.518 203.958 316.108 204.1C315.714 204.237 315.231 204.381 314.659 204.532C314.349 204.614 313.935 204.674 313.415 204.712C312.911 204.746 312.556 204.749 312.35 204.721C311.782 204.573 311.278 204.359 310.84 204.077C310.401 203.796 310.131 203.462 310.029 203.075C309.947 202.766 309.982 202.492 310.134 202.253C310.286 202.014 310.525 201.852 310.849 201.766C311.02 201.721 311.194 201.725 311.373 201.776C311.564 201.809 311.705 201.871 311.795 201.963C312.072 202.32 312.437 202.546 312.893 202.641C313.348 202.736 313.785 202.728 314.202 202.618C315.672 202.229 316.337 201.772 316.198 201.246C316.161 201.107 316.094 201.009 315.996 200.952C315.91 200.875 315.792 200.807 315.644 200.747C315.406 200.661 315.081 200.59 314.669 200.533C314.272 200.472 313.925 200.44 313.626 200.436C312.955 200.465 312.281 200.42 311.604 200.301C310.974 200.169 310.421 199.926 309.947 199.572C309.468 199.202 309.141 198.684 308.965 198.019C308.859 197.617 308.902 197.184 309.093 196.719C309.297 196.235 309.573 195.84 309.922 195.532C310.171 195.35 310.597 195.114 311.199 194.822C311.8 194.531 312.217 194.355 312.449 194.293C312.805 194.199 313.202 194.136 313.64 194.103C314.074 194.054 314.419 194.079 314.677 194.176C315.16 194.313 315.57 194.486 315.906 194.695C316.239 194.888 316.45 195.155 316.54 195.496C316.585 195.666 316.595 195.862 316.571 196.083C316.543 196.289 316.481 196.43 316.385 196.505C316.181 196.674 315.925 196.8 315.616 196.882C315.476 196.919 315.35 196.911 315.237 196.858C315.139 196.801 314.998 196.706 314.814 196.573C314.574 196.355 314.371 196.243 314.204 196.237C314.006 196.24 313.721 196.257 313.349 196.289C312.973 196.306 312.723 196.331 312.599 196.364C312.212 196.466 311.861 196.641 311.547 196.89C311.247 197.135 311.132 197.388 311.202 197.651C311.283 197.961 311.608 198.156 312.176 198.238C312.542 198.307 312.932 198.344 313.347 198.35C313.778 198.352 314.044 198.356 314.145 198.363C314.374 198.352 314.681 198.387 315.066 198.467C315.467 198.543 315.786 198.624 316.024 198.71Z" fill="white"/>
<path d="M305.16 193.613C304.99 193.658 304.858 193.66 304.765 193.619C304.531 193.548 304.322 193.446 304.138 193.313C303.969 193.175 303.842 192.944 303.756 192.619C303.71 192.383 303.711 192.168 303.759 191.973C303.802 191.763 303.899 191.597 304.049 191.474C304.329 191.218 304.724 191.023 305.234 190.888C305.606 190.79 305.929 190.853 306.203 191.079C306.489 191.284 306.684 191.581 306.786 191.967C306.908 192.431 306.912 193.01 306.797 193.702C306.694 194.375 306.556 194.916 306.383 195.326C306.243 195.611 306.072 195.871 305.869 196.107C305.667 196.343 305.473 196.485 305.287 196.534C304.916 196.632 304.669 196.639 304.548 196.555C304.438 196.452 304.344 196.254 304.266 195.96C304.234 195.836 304.345 195.6 304.6 195.251C304.802 194.949 304.921 194.744 304.959 194.635C305.109 194.264 305.199 193.917 305.23 193.595L305.16 193.613Z" fill="white"/>
<path d="M298.304 200.167C298.079 200.193 297.877 200.147 297.697 200.029C297.532 199.907 297.421 199.738 297.364 199.522C297.335 199.413 297.328 199.291 297.342 199.155C297.371 199.015 297.427 198.884 297.511 198.763C297.659 198.509 298.174 198.265 299.056 198.032C299.02 197.396 298.92 196.768 298.757 196.15C298.695 195.918 298.634 195.719 298.574 195.553C298.514 195.387 298.471 195.257 298.447 195.164C298.357 194.824 298.413 194.536 298.615 194.3C298.833 194.061 299.105 193.898 299.43 193.812C299.832 193.706 300.129 193.735 300.321 193.899C300.529 194.059 300.705 194.41 300.848 194.952C301.061 195.756 301.199 196.563 301.265 197.373C301.512 197.308 301.848 197.203 302.273 197.057C302.853 196.871 303.274 196.743 303.537 196.674C303.8 196.604 304.043 196.614 304.265 196.704C304.499 196.775 304.647 196.926 304.708 197.158C304.867 197.762 304.691 198.189 304.178 198.44C303.642 198.731 302.775 199.051 301.577 199.401C301.69 200.016 301.841 200.68 302.029 201.392C302.323 202.505 302.634 203.4 302.961 204.074C303.185 204.545 303.436 204.867 303.714 205.042C304.003 205.198 304.372 205.216 304.82 205.097C305.083 205.028 305.336 204.887 305.577 204.674C305.734 204.516 305.89 204.417 306.045 204.376C306.261 204.319 306.435 204.348 306.564 204.463C306.709 204.573 306.812 204.745 306.874 204.977C306.988 205.41 306.852 205.835 306.466 206.251C306.075 206.652 305.517 206.949 304.79 207.141C304.341 207.26 303.856 207.272 303.335 207.178C302.829 207.08 302.378 206.909 301.983 206.666C301.925 206.632 301.792 206.477 301.587 206.2C301.381 205.924 301.185 205.62 300.998 205.288C300.652 204.602 300.304 203.602 299.957 202.287C299.805 201.714 299.634 200.941 299.442 199.965L298.304 200.167Z" fill="white"/>
<path d="M289.275 205.88C289.119 205.292 289.072 204.676 289.133 204.031C289.191 203.37 289.332 202.745 289.556 202.156C289.781 201.567 290.24 201.016 290.931 200.502C291.619 199.973 292.264 199.628 292.868 199.469C293.486 199.305 294.135 199.225 294.815 199.227C295.509 199.226 296.027 199.37 296.369 199.66C297.154 200.314 297.649 201.027 297.853 201.8C297.963 202.218 297.965 202.598 297.857 202.941C297.764 203.28 297.601 203.663 297.366 204.089C297.176 204.437 296.808 204.733 296.26 204.977C295.728 205.217 295.183 205.41 294.626 205.558C294.27 205.652 293.829 205.735 293.302 205.808C292.771 205.866 292.252 205.904 291.744 205.922C291.856 206.224 292.013 206.505 292.215 206.766C292.416 207.027 292.622 207.213 292.833 207.322C293.221 207.534 293.587 207.636 293.932 207.628C294.293 207.615 294.736 207.539 295.262 207.4C295.819 207.253 296.313 207.023 296.743 206.711C297.093 206.47 297.392 206.316 297.639 206.251C297.933 206.173 298.182 206.207 298.386 206.351C298.585 206.481 298.722 206.684 298.796 206.963C298.898 207.35 298.757 207.726 298.374 208.092C297.991 208.458 297.522 208.781 296.967 209.06C296.423 209.319 295.973 209.496 295.617 209.59C294.89 209.782 294.152 209.837 293.402 209.754C292.652 209.671 291.989 209.449 291.413 209.088C290.928 208.753 290.497 208.312 290.121 207.766C289.741 207.205 289.459 206.576 289.275 205.88ZM293.505 201.41C293.165 201.5 292.843 201.66 292.539 201.889C292.232 202.103 292 202.354 291.845 202.644C291.644 203.011 291.514 203.302 291.455 203.516C291.407 203.711 291.409 203.967 291.46 204.285C291.879 204.306 292.7 204.155 293.922 203.832C294.587 203.657 295.071 203.421 295.373 203.126C295.692 202.827 295.808 202.515 295.722 202.19C295.636 201.865 295.357 201.624 294.885 201.468C294.414 201.311 293.954 201.292 293.505 201.41Z" fill="white"/>
<path d="M278.168 198.315C278.462 198.237 278.745 198.245 279.018 198.339C279.306 198.428 279.525 198.66 279.673 199.034C280.182 200.207 280.621 201.399 280.99 202.608C281.371 203.798 281.764 205.159 282.169 206.691C282.341 207.34 282.599 208.538 282.945 210.284C283.642 210.166 284.176 210.058 284.547 209.959C284.81 209.89 285.395 209.694 286.303 209.371C286.824 209.151 287.286 208.987 287.688 208.881C288.059 208.783 288.41 208.732 288.739 208.727C289.065 208.707 289.411 208.732 289.777 208.801C290.15 208.9 290.389 209.144 290.491 209.53C290.573 209.84 290.546 210.145 290.41 210.445C290.29 210.742 290.098 210.925 289.835 210.995C289.65 211.044 289.347 211.09 288.929 211.135C288.173 211.219 287.463 211.349 286.798 211.524C286.581 211.582 286.338 211.662 286.067 211.767C285.809 211.852 285.617 211.911 285.494 211.944C285.135 212.088 284.769 212.209 284.398 212.308C283.64 212.508 282.949 212.649 282.326 212.731C282.008 212.782 281.668 212.748 281.305 212.628C280.939 212.494 280.702 212.225 280.596 211.823C280.535 211.591 280.408 210.987 280.217 210.012C279.904 208.39 279.637 207.161 279.416 206.326C279.244 205.676 279.034 205.004 278.784 204.309C278.534 203.613 278.377 203.175 278.312 202.994C277.825 201.715 277.469 200.651 277.245 199.8C277.138 199.398 277.153 199.08 277.29 198.845C277.442 198.606 277.735 198.43 278.168 198.315Z" fill="white"/>
</svg>
