<svg width="68" height="17" viewBox="0 0 68 17" fill="none" xmlns="http://www.w3.org/2000/svg">
<path d="M64.0746 11.5441L61.4286 11.9851C60.3086 12.1811 59.7486 12.6151 59.7486 13.2871C59.7486 14.0571 60.3016 14.4421 61.4076 14.4421C62.2616 14.4421 62.9196 14.2181 63.3816 13.7701C63.8436 13.3221 64.0746 12.7271 64.0746 11.9851V11.5441ZM60.7356 16.7521C59.5036 16.7521 58.5516 16.4441 57.8796 15.8281C57.2076 15.2121 56.8716 14.3931 56.8716 13.3711C56.8716 12.4051 57.2146 11.6351 57.9006 11.0611C58.6006 10.4871 59.6786 10.0881 61.1346 9.86414L64.0746 9.42314V9.31814C64.0746 8.24014 63.4166 7.70114 62.1006 7.70114C60.8686 7.70114 60.1896 8.14914 60.0636 9.04514H57.1236C57.2216 7.96714 57.6696 7.06414 58.4676 6.33614C59.2656 5.60814 60.4696 5.24414 62.0796 5.24414C63.6756 5.24414 64.8796 5.60114 65.6916 6.31514C66.5036 7.02914 66.9096 8.03714 66.9096 9.33914V14.5261C66.9096 15.3521 67.0146 16.0101 67.2246 16.5001H64.3476C64.3336 16.5001 64.3196 16.4511 64.3056 16.3531C64.2916 16.2551 64.2706 16.1081 64.2426 15.9121C64.2286 15.7021 64.2216 15.4921 64.2216 15.2821C63.5356 16.2621 62.3736 16.7521 60.7356 16.7521Z" fill="#080808"/>
<path d="M46.4666 15.1141C45.4306 14.0081 44.9126 12.6361 44.9126 10.9981C44.9126 9.36014 45.4306 7.99514 46.4666 6.90314C47.5166 5.79714 48.8396 5.24414 50.4356 5.24414C52.0036 5.24414 53.2356 5.68514 54.1316 6.56714C55.0416 7.44914 55.5596 8.43614 55.6856 9.52814H52.6196C52.5076 9.05214 52.2486 8.66014 51.8426 8.35214C51.4366 8.04414 50.9606 7.89014 50.4146 7.89014C49.6306 7.89014 49.0146 8.17714 48.5666 8.75114C48.1186 9.31114 47.8946 10.0601 47.8946 10.9981C47.8946 11.9361 48.1186 12.6921 48.5666 13.2661C49.0146 13.8261 49.6306 14.1061 50.4146 14.1061C50.9606 14.1061 51.4366 13.9521 51.8426 13.6441C52.2486 13.3361 52.5076 12.9441 52.6196 12.4681H55.6856C55.5596 13.5601 55.0416 14.5471 54.1316 15.4291C53.2356 16.3111 52.0036 16.7521 50.4356 16.7521C48.8396 16.7521 47.5166 16.2061 46.4666 15.1141Z" fill="#080808"/>
<path d="M36.2953 5.49605H37.9963V7.84805H36.2953V16.5001H33.3133V7.84805H31.7383V5.49605H33.3133V4.61405C33.3133 3.32605 33.6423 2.36005 34.3003 1.71605C34.9723 1.07205 35.8893 0.75005 37.0513 0.75005L37.9333 0.79205V3.35405C37.8493 3.34005 37.6953 3.33305 37.4713 3.33305C36.6873 3.33305 36.2953 3.73905 36.2953 4.55105V5.49605ZM42.3643 3.56405C42.0283 3.90005 41.5943 4.06805 41.0623 4.06805C40.5303 4.06805 40.0963 3.90005 39.7603 3.56405C39.4243 3.22805 39.2563 2.80105 39.2563 2.28305C39.2563 1.76505 39.4243 1.33805 39.7603 1.00205C40.0963 0.652051 40.5303 0.477051 41.0623 0.477051C41.5943 0.477051 42.0283 0.652051 42.3643 1.00205C42.7003 1.33805 42.8683 1.76505 42.8683 2.28305C42.8683 2.80105 42.7003 3.22805 42.3643 3.56405ZM39.5713 16.5001V5.49605H42.5533V16.5001H39.5713Z" fill="#080808"/>
<path d="M29.839 3.56405C29.503 3.90005 29.069 4.06805 28.537 4.06805C28.005 4.06805 27.571 3.90005 27.235 3.56405C26.899 3.22805 26.731 2.80105 26.731 2.28305C26.731 1.76505 26.899 1.33805 27.235 1.00205C27.571 0.652051 28.005 0.477051 28.537 0.477051C29.069 0.477051 29.503 0.652051 29.839 1.00205C30.175 1.33805 30.343 1.76505 30.343 2.28305C30.343 2.80105 30.175 3.22805 29.839 3.56405ZM27.046 16.5001V5.49605H30.028V16.5001H27.046Z" fill="#080808"/>
<path d="M21.339 6.672V0.75H24.321V16.5H21.5699V15.156C20.8419 16.22 19.6799 16.752 18.0839 16.752C16.5299 16.752 15.2979 16.206 14.3879 15.114C13.4779 14.022 13.0229 12.65 13.0229 10.998C13.0229 9.346 13.4779 7.974 14.3879 6.882C15.2979 5.79 16.5299 5.244 18.0839 5.244C18.8119 5.244 19.456 5.384 20.016 5.664C20.59 5.93 21.0309 6.266 21.339 6.672ZM20.6669 13.245C21.1709 12.657 21.4229 11.908 21.4229 10.998C21.4229 10.088 21.1709 9.339 20.6669 8.751C20.1769 8.163 19.526 7.869 18.714 7.869C17.902 7.869 17.2439 8.163 16.7399 8.751C16.2499 9.339 16.0049 10.088 16.0049 10.998C16.0049 11.908 16.2499 12.657 16.7399 13.245C17.2439 13.833 17.902 14.127 18.714 14.127C19.526 14.127 20.1769 13.833 20.6669 13.245Z" fill="#080808"/>
<path d="M11.3062 13.6861V16.5001H0.575195V1.59009H11.3062V4.40409H3.6412V7.53309H10.9912V10.3471H3.6412V13.6861H11.3062Z" fill="#080808"/>
</svg>
