<svg width="56" height="14" viewBox="0 0 56 14" fill="none" xmlns="http://www.w3.org/2000/svg">
<path d="M53.5152 4.092H55.7422V13H53.5152V11.912C52.9259 12.7733 51.9852 13.204 50.6932 13.204C49.4352 13.204 48.4379 12.762 47.7012 11.878C46.9645 10.994 46.5962 9.88333 46.5962 8.546C46.5962 7.20867 46.9645 6.098 47.7012 5.214C48.4379 4.33 49.4352 3.888 50.6932 3.888C51.9852 3.888 52.9259 4.31867 53.5152 5.18V4.092ZM52.7842 10.365C53.1922 9.889 53.3962 9.28267 53.3962 8.546C53.3962 7.80933 53.1922 7.203 52.7842 6.727C52.3875 6.251 51.8605 6.013 51.2032 6.013C50.5459 6.013 50.0132 6.251 49.6052 6.727C49.2085 7.203 49.0102 7.80933 49.0102 8.546C49.0102 9.28267 49.2085 9.889 49.6052 10.365C50.0132 10.841 50.5459 11.079 51.2032 11.079C51.8605 11.079 52.3875 10.841 52.7842 10.365Z" fill="#131313"/>
<path d="M38.105 11.878C37.2664 10.9827 36.847 9.872 36.847 8.546C36.847 7.22 37.2664 6.115 38.105 5.231C38.955 4.33567 40.026 3.888 41.318 3.888C42.5874 3.888 43.5847 4.245 44.31 4.959C45.0467 5.673 45.466 6.472 45.568 7.356H43.086C42.9954 6.97067 42.7857 6.65333 42.457 6.404C42.1284 6.15467 41.743 6.03 41.301 6.03C40.6664 6.03 40.1677 6.26233 39.805 6.727C39.4424 7.18033 39.261 7.78667 39.261 8.546C39.261 9.30533 39.4424 9.91733 39.805 10.382C40.1677 10.8353 40.6664 11.062 41.301 11.062C41.743 11.062 42.1284 10.9373 42.457 10.688C42.7857 10.4387 42.9954 10.1213 43.086 9.736H45.568C45.466 10.62 45.0467 11.419 44.31 12.133C43.5847 12.847 42.5874 13.204 41.318 13.204C40.026 13.204 38.955 12.762 38.105 11.878Z" fill="#131313"/>
<path d="M29.7015 4.09201H31.0785V5.99601H29.7015V13H27.2875V5.99601H26.0125V4.09201H27.2875V3.37801C27.2875 2.33534 27.5538 1.55334 28.0865 1.03201C28.6305 0.510673 29.3728 0.250006 30.3135 0.250006L31.0275 0.284007V2.35801C30.9595 2.34667 30.8348 2.34101 30.6535 2.34101C30.0188 2.34101 29.7015 2.66967 29.7015 3.32701V4.09201ZM34.6145 2.52801C34.3425 2.80001 33.9911 2.93601 33.5605 2.93601C33.1298 2.93601 32.7785 2.80001 32.5065 2.52801C32.2345 2.25601 32.0985 1.91034 32.0985 1.49101C32.0985 1.07167 32.2345 0.726007 32.5065 0.454007C32.7785 0.170674 33.1298 0.029007 33.5605 0.029007C33.9911 0.029007 34.3425 0.170674 34.6145 0.454007C34.8865 0.726007 35.0225 1.07167 35.0225 1.49101C35.0225 1.91034 34.8865 2.25601 34.6145 2.52801ZM32.3535 13V4.09201H34.7675V13H32.3535Z" fill="#131313"/>
<path d="M24.3046 2.52801C24.0326 2.80001 23.6812 2.93601 23.2506 2.93601C22.8199 2.93601 22.4686 2.80001 22.1966 2.52801C21.9246 2.25601 21.7886 1.91034 21.7886 1.49101C21.7886 1.07167 21.9246 0.726007 22.1966 0.454007C22.4686 0.170674 22.8199 0.029007 23.2506 0.029007C23.6812 0.029007 24.0326 0.170674 24.3046 0.454007C24.5766 0.726007 24.7126 1.07167 24.7126 1.49101C24.7126 1.91034 24.5766 2.25601 24.3046 2.52801ZM22.0436 13V4.09201H24.4576V13H22.0436Z" fill="#131313"/>
<path d="M17.2536 5.044V0.25H19.6676V13H17.4406V11.912C16.8513 12.7733 15.9106 13.204 14.6186 13.204C13.3606 13.204 12.3633 12.762 11.6266 11.878C10.8899 10.994 10.5216 9.88333 10.5216 8.546C10.5216 7.20867 10.8899 6.098 11.6266 5.214C12.3633 4.33 13.3606 3.888 14.6186 3.888C15.2079 3.888 15.7293 4.00133 16.1826 4.228C16.6473 4.44333 17.0043 4.71533 17.2536 5.044ZM16.7096 10.365C17.1176 9.889 17.3216 9.28267 17.3216 8.546C17.3216 7.80933 17.1176 7.203 16.7096 6.727C16.3129 6.251 15.7859 6.013 15.1286 6.013C14.4713 6.013 13.9386 6.251 13.5306 6.727C13.1339 7.203 12.9356 7.80933 12.9356 8.546C12.9356 9.28267 13.1339 9.889 13.5306 10.365C13.9386 10.841 14.4713 11.079 15.1286 11.079C15.7859 11.079 16.3129 10.841 16.7096 10.365Z" fill="#131313"/>
<path d="M8.96202 10.722V13H0.275024V0.929993H8.96202V3.20799H2.75702V5.74099H8.70703V8.01899H2.75702V10.722H8.96202Z" fill="#131313"/>
</svg>
