<svg width="140" height="143" viewBox="0 0 140 143" fill="none" xmlns="http://www.w3.org/2000/svg">
<mask id="mask0_129_29194" style="mask-type:luminance" maskUnits="userSpaceOnUse" x="0" y="0" width="140" height="143">
<path d="M0 70C0 31.3401 31.3401 0 70 0C108.66 0 140 31.3401 140 70V72.2329C140 110.893 108.66 142.233 70 142.233C31.3401 142.233 0 110.893 0 72.2329V70Z" fill="white"/>
</mask>
<g mask="url(#mask0_129_29194)">
<path fill-rule="evenodd" clip-rule="evenodd" d="M0 0V142.233H140V0H0Z" fill="#2E42A5"/>
<mask id="mask1_129_29194" style="mask-type:luminance" maskUnits="userSpaceOnUse" x="0" y="0" width="140" height="143">
<path fill-rule="evenodd" clip-rule="evenodd" d="M0 0V142.233H140V0H0Z" fill="white"/>
</mask>
<g mask="url(#mask1_129_29194)">
<mask id="mask2_129_29194" style="mask-type:luminance" maskUnits="userSpaceOnUse" x="0" y="0" width="140" height="143">
<path d="M0 0H140V142.233H0V0Z" fill="white"/>
</mask>
<g mask="url(#mask2_129_29194)">
<path d="M-15.5891 132.071L15.2183 149.72L140.699 19.1879L156.949 -7.03912L124.005 -12.938L72.8245 43.312L31.6293 81.2115L-15.5891 132.071Z" fill="white"/>
<path d="M-11.3716 144.435L4.32335 154.677L151.113 -9.47705H129.076L-11.3716 144.435Z" fill="#F50100"/>
<path d="M155.588 132.071L124.781 149.72L-0.699745 19.1879L-16.95 -7.03912L15.9941 -12.938L67.1745 43.312L108.369 81.2115L155.588 132.071Z" fill="white"/>
<path d="M154.537 140.947L138.842 151.189L76.3377 80.9063L57.8061 73.0533L-18.5132 -6.94775H3.52433L79.801 71.1545L100.062 80.5709L154.537 140.947Z" fill="#F50100"/>
<path fill-rule="evenodd" clip-rule="evenodd" d="M86.5274 -11.8525H53.4721V47.4112H-8.62988V94.8221H53.4721V154.086H86.5274V94.8221H148.87V47.4112H86.5274V-11.8525Z" fill="#F50100"/>
<mask id="mask3_129_29194" style="mask-type:luminance" maskUnits="userSpaceOnUse" x="-9" y="-12" width="158" height="167">
<path fill-rule="evenodd" clip-rule="evenodd" d="M86.5274 -11.8525H53.4721V47.4112H-8.62988V94.8221H53.4721V154.086H86.5274V94.8221H148.87V47.4112H86.5274V-11.8525Z" fill="white"/>
</mask>
<g mask="url(#mask3_129_29194)">
<path d="M53.4721 -11.8528V-23.7056H44.7221V-11.8528H53.4721ZM86.5274 -11.8528H95.2774V-23.7056H86.5274V-11.8528ZM53.4721 47.4109V59.2636H62.2221V47.4109H53.4721ZM-8.62988 47.4109V35.5581H-17.3799V47.4109H-8.62988ZM-8.62988 94.8218H-17.3799V106.675H-8.62988V94.8218ZM53.4721 94.8218H62.2221V82.9691H53.4721V94.8218ZM53.4721 154.086H44.7221V165.938H53.4721V154.086ZM86.5274 154.086V165.938H95.2774V154.086H86.5274ZM86.5274 94.8218V82.9691H77.7774V94.8218H86.5274ZM148.87 94.8218V106.675H157.62V94.8218H148.87ZM148.87 47.4109H157.62V35.5581H148.87V47.4109ZM86.5274 47.4109H77.7774V59.2636H86.5274V47.4109ZM53.4721 -8.39233e-05H86.5274V-23.7056H53.4721V-8.39233e-05ZM62.2221 47.4109V-11.8528H44.7221V47.4109H62.2221ZM-8.62988 59.2636H53.4721V35.5581H-8.62988V59.2636ZM0.120098 94.8218V47.4109H-17.3799V94.8218H0.120098ZM53.4721 82.9691H-8.62988V106.675H53.4721V82.9691ZM62.2221 154.086V94.8218H44.7221V154.086H62.2221ZM86.5274 142.233H53.4721V165.938H86.5274V142.233ZM77.7774 94.8218V154.086H95.2774V94.8218H77.7774ZM148.87 82.9691H86.5274V106.675H148.87V82.9691ZM140.12 47.4109V94.8218H157.62V47.4109H140.12ZM86.5274 59.2636H148.87V35.5581H86.5274V59.2636ZM77.7774 -11.8528V47.4109H95.2774V-11.8528H77.7774Z" fill="white"/>
</g>
</g>
</g>
</g>
</svg>
