<svg width="35" height="35" viewBox="0 0 35 35" fill="none" xmlns="http://www.w3.org/2000/svg">
<mask id="mask0_519_30392" style="mask-type:luminance" maskUnits="userSpaceOnUse" x="0" y="0" width="35" height="35">
<path d="M0 17.1166C0 7.77283 7.5746 0.198242 16.9183 0.198242H17.2882C26.6319 0.198242 34.2065 7.77283 34.2065 17.1166V17.1166C34.2065 26.4603 26.6319 34.0349 17.2882 34.0349H16.9183C7.5746 34.0349 0 26.4603 0 17.1166V17.1166Z" fill="white"/>
</mask>
<g mask="url(#mask0_519_30392)">
<path fill-rule="evenodd" clip-rule="evenodd" d="M0 0.198242V34.0349H34.2065V0.198242H0Z" fill="#FFB400"/>
<mask id="mask1_519_30392" style="mask-type:luminance" maskUnits="userSpaceOnUse" x="0" y="0" width="35" height="35">
<path fill-rule="evenodd" clip-rule="evenodd" d="M0 0.199219V34.0359H34.2065V0.199219H0Z" fill="white"/>
</mask>
<g mask="url(#mask1_519_30392)">
<path fill-rule="evenodd" clip-rule="evenodd" d="M0 0.199219V8.65838H34.2065V0.199219H0Z" fill="#C51918"/>
<path fill-rule="evenodd" clip-rule="evenodd" d="M0 25.5762V34.0353H34.2065V25.5762H0Z" fill="#C51918"/>
<path d="M5.35303 14.6807H6.55025V22.8917H5.35303V14.6807Z" fill="#F1F9FF"/>
<path fill-rule="evenodd" clip-rule="evenodd" d="M7.02952 13.2598H4.87451V14.0493H5.23368V14.6809H6.67035V14.0493H7.02952V13.2598Z" fill="#C88A02"/>
<path fill-rule="evenodd" clip-rule="evenodd" d="M6.67035 23.366H7.02952V24.1555H4.87451V23.366H5.23368V22.7344H6.67035V23.366Z" fill="#C88A02"/>
<path fill-rule="evenodd" clip-rule="evenodd" d="M5.95207 13.4176C6.21261 13.4176 6.23909 13.2882 6.3928 13.095C6.51215 12.9449 6.79013 12.7588 6.79013 12.5491C6.79013 12.0695 6.41492 11.6807 5.95207 11.6807C5.48923 11.6807 5.11401 12.0695 5.11401 12.5491C5.11401 12.7827 5.30544 12.9389 5.45018 13.095C5.60267 13.2594 5.71462 13.4176 5.95207 13.4176Z" fill="#AD1619"/>
<path fill-rule="evenodd" clip-rule="evenodd" d="M4.87451 24.1543H7.02952V25.4175C7.02952 25.4175 6.76014 25.2596 6.49077 25.2596C6.22139 25.2596 5.95202 25.4175 5.95202 25.4175C5.95202 25.4175 5.68264 25.2596 5.41326 25.2596C5.14389 25.2596 4.87451 25.4175 4.87451 25.4175V24.1543Z" fill="#005BBF"/>
<mask id="mask2_519_30392" style="mask-type:luminance" maskUnits="userSpaceOnUse" x="4" y="24" width="4" height="2">
<path fill-rule="evenodd" clip-rule="evenodd" d="M4.87451 24.1553H7.02952V25.4185C7.02952 25.4185 6.76014 25.2606 6.49077 25.2606C6.22139 25.2606 5.95202 25.4185 5.95202 25.4185C5.95202 25.4185 5.68264 25.2606 5.41326 25.2606C5.14389 25.2606 4.87451 25.4185 4.87451 25.4185V24.1553Z" fill="white"/>
</mask>
<g mask="url(#mask2_519_30392)">
<path d="M4.85491 25.1709L4.80786 25.0197C5.00196 24.9057 5.19676 24.8486 5.39184 24.8486C5.51788 24.8486 5.5837 24.8718 5.69558 24.9375C5.79386 24.9951 5.84481 25.013 5.95229 25.013C6.05978 25.013 6.11072 24.9951 6.209 24.9375C6.32089 24.8718 6.3867 24.8486 6.51274 24.8486C6.70783 24.8486 6.90262 24.9057 7.09672 25.0197L7.04968 25.1709C6.87015 25.0656 6.6913 25.013 6.51274 25.013C6.40526 25.013 6.35432 25.0311 6.25604 25.0887C6.14415 25.1544 6.07833 25.1776 5.95229 25.1776C5.82625 25.1776 5.76044 25.1544 5.64855 25.0887C5.55027 25.0311 5.49932 25.013 5.39184 25.013C5.21328 25.013 5.03444 25.0656 4.85491 25.1709Z" fill="white"/>
<path d="M4.85491 24.6974L4.80786 24.5462C5.00196 24.4322 5.19676 24.375 5.39184 24.375C5.51788 24.375 5.5837 24.3983 5.69558 24.4638C5.79386 24.5216 5.84481 24.5395 5.95229 24.5395C6.05978 24.5395 6.11072 24.5216 6.209 24.4638C6.32089 24.3983 6.3867 24.375 6.51274 24.375C6.70783 24.375 6.90262 24.4322 7.09672 24.5462L7.04968 24.6974C6.87015 24.592 6.6913 24.5395 6.51274 24.5395C6.40526 24.5395 6.35432 24.5574 6.25604 24.6151C6.14415 24.6808 6.07833 24.7041 5.95229 24.7041C5.82625 24.7041 5.76044 24.6808 5.64855 24.6151C5.55027 24.5574 5.49932 24.5395 5.39184 24.5395C5.21328 24.5395 5.03444 24.592 4.85491 24.6974Z" fill="white"/>
</g>
<path d="M17.0862 14.6807H18.2834V22.8917H17.0862V14.6807Z" fill="#F1F9FF"/>
<path fill-rule="evenodd" clip-rule="evenodd" d="M18.7622 13.2598H16.6072V14.0493H16.9663V14.6809H18.403V14.0493H18.7622V13.2598Z" fill="#C88A02"/>
<path fill-rule="evenodd" clip-rule="evenodd" d="M18.403 23.366H18.7622V24.1555H16.6072V23.366H16.9663V22.7344H18.403V23.366Z" fill="#C88A02"/>
<path fill-rule="evenodd" clip-rule="evenodd" d="M17.6847 13.4176C17.9452 13.4176 17.9718 13.2882 18.1255 13.095C18.2449 12.9449 18.5228 12.7588 18.5228 12.5491C18.5228 12.0695 18.1476 11.6807 17.6847 11.6807C17.2219 11.6807 16.8467 12.0695 16.8467 12.5491C16.8467 12.7827 17.0381 12.9389 17.1829 13.095C17.3353 13.2594 17.4473 13.4176 17.6847 13.4176Z" fill="#AD1619"/>
<path fill-rule="evenodd" clip-rule="evenodd" d="M16.6072 24.1543H18.7622V25.4175C18.7622 25.4175 18.4928 25.2596 18.2234 25.2596C17.9541 25.2596 17.6847 25.4175 17.6847 25.4175C17.6847 25.4175 17.4153 25.2596 17.1459 25.2596C16.8766 25.2596 16.6072 25.4175 16.6072 25.4175V24.1543Z" fill="#005BBF"/>
<mask id="mask3_519_30392" style="mask-type:luminance" maskUnits="userSpaceOnUse" x="16" y="24" width="3" height="2">
<path fill-rule="evenodd" clip-rule="evenodd" d="M16.6074 24.1553H18.7624V25.4185C18.7624 25.4185 18.4931 25.2606 18.2237 25.2606C17.9543 25.2606 17.6849 25.4185 17.6849 25.4185C17.6849 25.4185 17.4156 25.2606 17.1462 25.2606C16.8768 25.2606 16.6074 25.4185 16.6074 25.4185V24.1553Z" fill="white"/>
</mask>
<g mask="url(#mask3_519_30392)">
<path d="M16.5876 25.1709L16.5405 25.0197C16.7345 24.9057 16.9294 24.8486 17.1245 24.8486C17.2505 24.8486 17.3163 24.8718 17.4282 24.9375C17.5265 24.9951 17.5774 25.013 17.6849 25.013C17.7924 25.013 17.8434 24.9951 17.9416 24.9375C18.0535 24.8718 18.1194 24.8486 18.2454 24.8486C18.4405 24.8486 18.6352 24.9057 18.8294 25.0197L18.7823 25.1709C18.6028 25.0656 18.4239 25.013 18.2454 25.013C18.1379 25.013 18.087 25.0311 17.9886 25.0887C17.8767 25.1544 17.811 25.1776 17.6849 25.1776C17.5589 25.1776 17.4931 25.1544 17.3812 25.0887C17.2829 25.0311 17.2319 25.013 17.1245 25.013C16.9459 25.013 16.767 25.0656 16.5876 25.1709Z" fill="white"/>
<path d="M16.5876 24.6974L16.5405 24.5462C16.7345 24.4322 16.9294 24.375 17.1245 24.375C17.2505 24.375 17.3163 24.3983 17.4282 24.4638C17.5265 24.5216 17.5774 24.5395 17.6849 24.5395C17.7924 24.5395 17.8434 24.5216 17.9416 24.4638C18.0535 24.3983 18.1194 24.375 18.2454 24.375C18.4405 24.375 18.6352 24.4322 18.8294 24.5462L18.7823 24.6974C18.6028 24.592 18.4239 24.5395 18.2454 24.5395C18.1379 24.5395 18.087 24.5574 17.9886 24.6151C17.8767 24.6808 17.811 24.7041 17.6849 24.7041C17.5589 24.7041 17.4931 24.6808 17.3812 24.6151C17.2829 24.5574 17.2319 24.5395 17.1245 24.5395C16.9459 24.5395 16.767 24.592 16.5876 24.6974Z" fill="white"/>
</g>
<path fill-rule="evenodd" clip-rule="evenodd" d="M5.33209 22.3056C5.54794 21.9605 5.66865 21.6465 5.66865 21.313C5.66865 21.1028 5.6212 20.9212 5.53807 20.7727L5.55212 20.7644C5.55083 20.7652 5.78892 20.6283 5.8718 20.5759C6.0259 20.4785 6.16165 20.3753 6.29402 20.2482C6.37852 20.1672 6.49174 20.0789 6.66433 19.9567C6.69416 19.9355 6.77499 19.879 6.82655 19.8429L6.87031 19.8123C6.9542 19.7532 7.01666 19.708 7.07469 19.6636C7.25553 19.5253 7.37504 19.4109 7.46643 19.258C7.68292 18.8959 7.63797 18.4051 7.33461 18.1327C7.18598 17.9992 6.98542 17.9227 6.69142 17.8625L6.63063 17.8501C6.5302 17.8295 6.33722 17.7901 6.27095 17.7765C6.13025 17.7473 6.00473 17.7201 5.8928 17.6943C6.62884 17.5328 7.67988 17.5922 8.1422 17.907L8.5816 16.7845C7.63949 16.143 5.49289 16.2086 4.69103 16.9368C4.1029 17.4711 4.18182 18.2785 4.79374 18.6263C5.04943 18.7715 5.38277 18.868 5.99961 18.9987C5.89624 19.0778 5.81054 19.1501 5.73069 19.2267C5.64971 19.3043 5.56295 19.3703 5.45771 19.4369C5.40738 19.4686 5.25838 19.5549 5.19006 19.5945L5.15567 19.6145C4.65724 19.9134 4.41533 20.3269 4.48761 21.0734L4.52675 21.4775L4.59694 21.5058L5.33209 22.3056ZM4.71596 21.2614L4.71445 21.2671L4.7156 21.2631L4.71596 21.2614ZM17.8581 21.313C17.8581 21.6465 17.9788 21.9605 18.1946 22.3056L18.9298 21.5058L18.9999 21.4775L19.0391 21.0734C19.1114 20.3269 18.8695 19.9134 18.3711 19.6145L18.3368 19.5945C18.2684 19.555 18.1193 19.4686 18.069 19.4369C17.9638 19.3703 17.877 19.3043 17.7961 19.2267C17.7162 19.1501 17.6305 19.0778 17.5271 18.9987C18.1439 18.868 18.4773 18.7715 18.733 18.6263C19.3449 18.2785 19.4238 17.4711 18.8356 16.9368C18.0338 16.2086 15.8872 16.143 14.9451 16.7845L15.3845 17.907C15.8468 17.5922 16.8978 17.5328 17.6339 17.6943C17.522 17.7201 17.3965 17.7473 17.2557 17.7765C17.1896 17.7901 16.9966 17.8295 16.8961 17.8499L16.8353 17.8625C16.5413 17.9227 16.3407 17.9992 16.1921 18.1327C15.8887 18.4051 15.8439 18.8959 16.0603 19.258C16.1517 19.4109 16.2712 19.5253 16.452 19.6636C16.51 19.708 16.5726 19.7532 16.6564 19.8123L16.7 19.8428C16.7515 19.8789 16.8325 19.9355 16.8623 19.9567C17.035 20.0789 17.1482 20.1672 17.2327 20.2482C17.3651 20.3753 17.5008 20.4785 17.6549 20.5759C17.7378 20.6283 17.9759 20.7652 17.9746 20.7644L17.9886 20.7727C17.9055 20.9212 17.8581 21.1028 17.8581 21.313Z" fill="#AD1619"/>
<path d="M5.25783 17.342C5.41156 17.2822 5.50865 17.1925 5.4601 17.043C5.42774 16.9433 5.34683 16.9433 5.23356 16.9832L5.02319 17.0828L5.20928 17.6609L5.27401 17.631L5.33874 17.6011L5.25783 17.342ZM5.16074 17.0729L5.21738 17.043C5.25783 17.023 5.31447 17.0529 5.33065 17.1227C5.34683 17.1725 5.34683 17.2224 5.29019 17.2722C5.27465 17.2837 5.25842 17.2937 5.24165 17.3021L5.16074 17.0729ZM5.75138 16.8237L5.67856 16.8536H5.61383L5.71901 17.4616L6.06692 17.3819L6.05074 17.342V17.3021L5.84847 17.3619L5.75138 16.8237ZM6.43102 17.342C6.49574 17.1227 6.56856 16.9134 6.64947 16.7041C6.62256 16.7072 6.59547 16.7072 6.56856 16.7041C6.52561 16.8595 6.47702 17.0125 6.42292 17.1626L6.22874 16.734L6.14783 16.744H6.06692C6.16559 16.9402 6.26002 17.1396 6.35011 17.342H6.43102ZM7.14302 16.8735L7.17538 16.7838C7.13474 16.749 7.08722 16.7284 7.03784 16.724C6.90029 16.7141 6.81938 16.7838 6.81129 16.8935C6.79511 17.1028 7.0702 17.0928 7.05402 17.2323C7.05402 17.2921 6.99738 17.322 6.94074 17.3121C6.87602 17.3121 6.82747 17.2622 6.82747 17.1925H6.8032C6.79481 17.23 6.78399 17.2667 6.77083 17.3021C6.81478 17.3362 6.86474 17.3567 6.91647 17.3619C7.05402 17.3819 7.1592 17.3121 7.17538 17.1925C7.19156 16.9931 6.90838 16.9832 6.92456 16.8536C6.92456 16.8038 6.95693 16.7739 7.02974 16.7838C7.08638 16.7838 7.11065 16.8237 7.12684 16.8735H7.14302Z" fill="#C8B100"/>
<path d="M16.4243 17.3674C16.472 17.1363 16.5356 16.9252 16.5913 16.7041H16.5515C16.5384 16.7083 16.5251 16.7117 16.5118 16.7142C16.4807 16.8771 16.4436 17.0381 16.4005 17.1966C16.321 17.0559 16.2415 16.9252 16.1858 16.7845L16.1063 16.8046H16.0269C16.1368 16.992 16.2429 17.183 16.3448 17.3775H16.3846L16.4243 17.3674ZM16.9013 16.7041H16.8218C16.8006 16.7054 16.7794 16.7054 16.7582 16.7041V17.3272H17.0921V17.2569H16.8854L16.9013 16.7041ZM17.4419 16.8046L17.6008 16.8348V16.7644L17.1398 16.7142V16.7946C17.1927 16.791 17.2458 16.791 17.2988 16.7946L17.267 17.3574H17.3942L17.4339 16.8147M17.6247 17.4177C17.6485 17.4177 17.6644 17.4177 17.6883 17.4378L17.7519 17.4579L17.8075 17.1664L17.8552 17.287L17.9188 17.4981L17.9983 17.5182C18.0301 17.5182 18.054 17.5383 18.0778 17.5484L18.054 17.478C18.0222 17.3775 17.9745 17.287 17.9506 17.1865C18.0301 17.1865 18.1017 17.1564 18.1176 17.0659C18.1255 17.0056 18.1176 16.9654 18.0619 16.9152C18.0301 16.885 17.9665 16.875 17.9268 16.8649L17.736 16.8147L17.6247 17.4177ZM17.8632 16.8951C17.9188 16.9152 17.9824 16.9252 17.9824 16.9956V17.0458C17.9586 17.1363 17.9029 17.1664 17.8234 17.1363L17.8632 16.8951ZM18.4991 17.5986L18.4832 17.7996L18.5468 17.8499L18.6184 17.9001L18.6581 17.1966C18.6387 17.1892 18.6201 17.1791 18.6025 17.1664L18.1176 17.5484L18.1573 17.5785L18.1891 17.5986L18.3242 17.478L18.5071 17.6087L18.4991 17.5986ZM18.364 17.4479L18.523 17.3071L18.5071 17.5383L18.364 17.4479Z" fill="#C8B100"/>
<path d="M6.33149 17.6816L6.68488 17.7781V18.4727C6.3085 18.8689 5.35303 19.5365 5.35303 19.5365V17.6816H6.33149Z" fill="#F1F9FF"/>
<path d="M17.4396 17.6816L17.0862 17.7781V18.4727C17.4626 18.8689 18.4181 19.5365 18.4181 19.5365V17.6816H17.4396Z" fill="#F1F9FF"/>
<path fill-rule="evenodd" clip-rule="evenodd" d="M15.795 10.3559V10.1247C15.1793 9.5418 14.5344 9.25035 13.8604 9.25035C13.2144 8.87326 12.5604 8.72687 11.8985 8.81121L11.8988 8.80715C10.9036 8.67872 9.90069 9.25035 9.90069 9.25035C8.88977 9.25035 7.96606 10.1247 7.96606 10.1247V10.3559L9.17359 11.9554C9.17359 11.9554 9.51347 13.495 11.8939 13.1331V13.1371C11.8939 13.1371 13.4698 13.0803 13.5806 13.0317C13.6245 13.0125 13.6702 12.9949 13.7167 12.977C14.0254 12.8581 14.3778 12.7224 14.5875 11.9554L15.795 10.3559ZM12.054 8.89057C12.054 8.89057 12.054 10.9611 12.054 13.1309V8.89057Z" fill="#AD1619"/>
<path fill-rule="evenodd" clip-rule="evenodd" d="M8.88704 11.6873L8.88784 11.6825L8.03833 10.6283L8.12036 10.5133L8.91751 11.5025L8.93791 11.3787C9.06832 11.4161 9.16364 11.4299 9.2192 11.4221V11.2075L9.3959 11.3337C9.48282 11.3957 9.60729 11.4124 9.77123 11.3772C9.89164 11.3513 9.97289 11.1669 9.99945 10.7739L10.0531 9.98047L10.233 10.7409C10.3144 11.085 10.4386 11.2367 10.6154 11.2367C10.7881 11.2367 10.8575 11.1531 10.8652 10.9427L10.8869 10.3458L11.0916 10.8789C11.1653 11.071 11.267 11.1582 11.4115 11.1582C11.6184 11.1582 11.7565 10.9308 11.7565 10.574H11.7603H11.9959H11.9998C11.9998 10.9308 12.138 11.1582 12.3447 11.1582C12.4894 11.1582 12.591 11.071 12.6648 10.8789L12.8694 10.3458L12.8912 10.9427C12.8988 11.1531 12.9683 11.2367 13.1409 11.2367C13.3177 11.2367 13.4419 11.085 13.5233 10.7409L13.7032 9.98047L13.7568 10.7739C13.7834 11.1669 13.8647 11.3513 13.985 11.3772C14.149 11.4124 14.2734 11.3957 14.3604 11.3337L14.5371 11.2075V11.4221C14.5926 11.4299 14.688 11.4161 14.8184 11.3787L14.8562 11.6084L15.7387 10.5133L15.8208 10.6283L14.7226 11.991C14.5624 12.3801 14.4817 12.637 14.4817 12.7437C14.4817 12.9065 14.1606 13.0031 13.5339 13.1024C13.043 13.1801 12.4636 13.2323 11.9896 13.2401L11.9296 13.2408L11.8695 13.2411C11.3955 13.2333 10.8161 13.1801 10.3251 13.1024C9.69846 13.0031 9.37736 12.9065 9.37736 12.7437C9.37736 12.7235 9.37447 12.698 9.36871 12.6672C9.30551 12.561 9.26108 12.3874 9.23152 12.2307C9.20378 12.1575 9.17208 12.0775 9.13647 11.991L8.89317 11.6891L8.88704 11.6873ZM14.7721 11.7128C14.5761 11.7585 14.4344 11.7539 14.3593 11.6732C14.2418 11.7183 14.104 11.7227 13.9466 11.6889C13.7785 11.6528 13.6615 11.5054 13.591 11.2608C13.4991 11.4153 13.3828 11.5106 13.2436 11.5415C14.0097 11.6848 14.5464 11.8862 14.5464 11.8862C14.5464 11.8862 14.5332 12.0359 14.501 12.2118C14.535 12.1197 14.5754 12.0174 14.622 11.9044L14.6336 11.8847L14.7721 11.7128ZM12.8821 11.4814C12.8154 11.4378 12.7622 11.3745 12.7238 11.2929C12.6666 11.3594 12.6017 11.4081 12.5296 11.4381C12.6499 11.4502 12.7677 11.4649 12.8821 11.4814ZM12.1069 11.4074C12.0136 11.3505 11.9361 11.2595 11.8781 11.1429C11.8206 11.2587 11.7438 11.3492 11.6514 11.4061C11.7061 11.404 11.7612 11.4025 11.8165 11.4017L11.8645 11.4011L11.9125 11.4009C11.9777 11.4019 12.0425 11.4046 12.1069 11.4074ZM9.21678 11.8738L9.10516 11.7353C9.23915 11.7529 9.33833 11.7362 9.39698 11.6732C9.51449 11.7183 9.65232 11.7227 9.80968 11.6889C9.97776 11.6528 10.0948 11.5054 10.1652 11.2608C10.2545 11.4108 10.3667 11.5051 10.5007 11.5386C9.84011 11.661 9.34727 11.8276 9.21678 11.8738ZM11.2216 11.4359C11.1056 11.4472 10.9921 11.461 10.8817 11.4765C10.9448 11.4331 10.9955 11.3715 11.0326 11.2929C11.0883 11.3578 11.1515 11.4057 11.2216 11.4359ZM14.167 12.7468C14.2508 12.7986 14.318 12.7469 14.3713 12.6478C14.3667 12.6752 14.3638 12.6999 14.3626 12.7221C14.3555 12.7282 14.3447 12.7355 14.3306 12.7433C14.2912 12.7652 14.231 12.7885 14.1527 12.812C13.9986 12.8584 13.7795 12.9044 13.5196 12.9456C13.0123 13.0259 12.4091 13.0788 11.9296 13.0829C11.4499 13.0788 10.8467 13.0259 10.3394 12.9456C10.0796 12.9044 9.86042 12.8584 9.70642 12.812C9.64075 12.7923 9.58781 12.7727 9.54918 12.754C9.55342 12.7519 9.55772 12.7495 9.56207 12.7468C9.8236 12.5854 11.5531 12.4339 11.8645 12.4078C12.1759 12.4339 13.9054 12.5854 14.167 12.7468Z" fill="#C88A02"/>
<path fill-rule="evenodd" clip-rule="evenodd" d="M11.8787 7.73747C12.077 7.73747 12.2379 7.52538 12.2379 7.26375C12.2379 7.00212 12.077 6.79004 11.8787 6.79004C11.6803 6.79004 11.5195 7.00212 11.5195 7.26375C11.5195 7.52538 11.6803 7.73747 11.8787 7.73747Z" fill="#005BBF"/>
<path fill-rule="evenodd" clip-rule="evenodd" d="M11.645 10.0623C11.6526 10.1143 11.6645 10.1627 11.6797 10.2058C11.6333 10.1825 11.5783 10.1689 11.5191 10.1689C11.3539 10.1689 11.2198 10.275 11.2198 10.4058C11.2198 10.5366 11.3539 10.6426 11.5191 10.6426C11.6844 10.6426 11.8185 10.5366 11.8185 10.4058C11.8185 10.5366 11.9525 10.6426 12.1178 10.6426C12.283 10.6426 12.4171 10.5366 12.4171 10.4058C12.4171 10.275 12.283 10.1689 12.1178 10.1689C12.0762 10.1689 12.0365 10.1757 12.0005 10.1878C12.0092 10.123 12.0088 10.0488 11.9975 9.97193C11.966 9.75792 11.8614 9.60465 11.764 9.62962C11.6668 9.65457 11.6133 9.8483 11.645 10.0623ZM9.88383 10.3637C9.8687 10.3206 9.85673 10.2722 9.84907 10.2202C9.81753 10.0062 9.87089 9.81248 9.96825 9.78752C10.0656 9.76255 10.1701 9.91582 10.2016 10.1298C10.213 10.2067 10.2133 10.2809 10.2047 10.3457C10.2407 10.3336 10.2803 10.3268 10.3219 10.3268C10.4872 10.3268 10.6212 10.4329 10.6212 10.5637C10.6212 10.6945 10.4872 10.8005 10.3219 10.8005C10.1566 10.8005 10.0226 10.6945 10.0226 10.5637C10.0226 10.6945 9.8886 10.8005 9.7233 10.8005C9.55799 10.8005 9.42399 10.6945 9.42399 10.5637C9.42399 10.4329 9.55799 10.3268 9.7233 10.3268C9.78237 10.3268 9.83744 10.3404 9.88383 10.3637ZM13.6334 10.5081C13.6196 10.6376 13.4758 10.718 13.3121 10.6877C13.1483 10.6574 13.0269 10.5278 13.0407 10.3982C13.0545 10.2687 13.1984 10.1883 13.362 10.2186C13.4206 10.2294 13.4736 10.253 13.5171 10.2846C13.5067 10.2391 13.4999 10.189 13.4979 10.1361C13.4892 9.91839 13.5624 9.73633 13.6615 9.72949C13.7605 9.72264 13.8479 9.89359 13.8565 10.1113C13.8596 10.1895 13.8521 10.2631 13.8367 10.3256C13.8737 10.3202 13.9136 10.3208 13.9549 10.3285C14.1185 10.3588 14.2401 10.4884 14.2263 10.618C14.2125 10.7475 14.0686 10.8279 13.9048 10.7976C13.7412 10.7672 13.6196 10.6376 13.6334 10.5081ZM14.7734 11.1344C14.9194 11.2368 15.0754 11.2261 15.1219 11.1106L15.1244 11.1042C15.1388 11.1242 15.1558 11.1388 15.1753 11.1467C15.2701 11.1849 15.3862 11.0469 15.4345 10.8384C15.4828 10.6299 15.4451 10.4299 15.3503 10.3916C15.2555 10.3534 15.1394 10.4914 15.0911 10.6999C15.0793 10.7506 15.0727 10.8007 15.0706 10.8482C15.038 10.7988 14.9942 10.7527 14.942 10.7162C14.796 10.6138 14.64 10.6245 14.5935 10.74C14.5468 10.8555 14.6274 11.0321 14.7734 11.1344ZM8.89894 11.1828C8.75299 11.2852 8.59692 11.2745 8.55036 11.159C8.5495 11.1569 8.54869 11.1547 8.54791 11.1525C8.53353 11.1726 8.51651 11.1872 8.49709 11.195C8.40224 11.2333 8.28617 11.0953 8.23785 10.8868C8.18952 10.6783 8.22723 10.4783 8.32208 10.44C8.41693 10.4018 8.53299 10.5398 8.58132 10.7483C8.59306 10.7989 8.59973 10.8491 8.60173 10.8965C8.63436 10.8472 8.67817 10.8011 8.73032 10.7645C8.87628 10.6622 9.03234 10.6728 9.07891 10.7883C9.12547 10.9038 9.04489 11.0804 8.89894 11.1828Z" fill="#C88A02"/>
<path fill-rule="evenodd" clip-rule="evenodd" d="M11.7447 5.94531H11.9941V6.15313H12.1571V6.48209H11.9941V7.14003H12.1571V7.46899H11.5791V7.14003H11.7447V6.48209H11.5791V6.15313H11.7447V5.94531Z" fill="#C88A02"/>
<path d="M11.6985 7.7334H12.1774V9.78616H11.6985V7.7334Z" fill="#C88A02"/>
<path d="M9.77104 8.07721L9.76896 8.2351C8.70738 8.21065 8.09844 8.41497 7.94387 8.8222C7.78406 9.24323 7.81378 9.75504 8.03771 10.363L7.93002 10.432C7.6911 9.78333 7.65847 9.22138 7.83682 8.75153C8.02039 8.26789 8.66456 8.05173 9.77104 8.07721Z" fill="white"/>
<path d="M9.97638 9.47738L9.915 9.61295C9.68382 9.43089 9.56812 9.12019 9.56812 8.69201C9.56812 8.07664 9.80846 7.71579 10.3401 7.46883C10.6794 7.31123 11.143 7.37584 11.732 7.6575L11.6911 7.80595C11.1257 7.53556 10.6882 7.47457 10.3799 7.61777C9.89223 7.84428 9.68784 8.15116 9.68784 8.69201C9.68784 9.06776 9.78394 9.32583 9.97638 9.47738Z" fill="white"/>
<path d="M8.18846 10.1206L7.96254 10.2252C7.72814 9.345 7.79508 8.7472 8.19561 8.48932C8.54854 8.2621 9.0629 8.16962 9.74126 8.20589L9.73157 8.52143C9.0893 8.48711 8.61147 8.57301 8.30064 8.77313C8.03742 8.94259 7.98927 9.37259 8.18846 10.1206Z" fill="#C88A02"/>
<path d="M10.828 7.86757C10.2806 7.86757 10.0557 8.04342 9.92731 8.56266C9.84546 8.89355 9.92484 9.17597 10.1822 9.43959L10.0354 9.68902C9.70213 9.34772 9.58465 8.92973 9.69968 8.46471C9.86335 7.803 10.1845 7.55176 10.828 7.55176C11.2498 7.55176 11.5783 7.6979 11.8071 7.99533L11.8428 8.04171V9.5643H11.6033V8.17669C11.4247 7.97201 11.168 7.86757 10.828 7.86757Z" fill="#C88A02"/>
<path d="M13.9487 8.23443L13.9509 8.39231C15.0124 8.36788 15.6214 8.57219 15.776 8.97943C15.9358 9.40046 15.9061 9.91227 15.6821 10.5202L15.7898 10.5892C16.0287 9.94056 16.0613 9.37861 15.883 8.90874C15.6995 8.4251 15.0553 8.20896 13.9487 8.23443Z" fill="white"/>
<path d="M13.5739 9.5096L13.6353 9.64519C13.8665 9.46312 13.9821 9.15243 13.9821 8.72425C13.9821 8.10888 13.7418 7.74801 13.2101 7.50106C12.8709 7.34345 12.4074 7.40808 11.8184 7.68974L11.8592 7.83818C12.4246 7.5678 12.8621 7.5068 13.1704 7.64999C13.658 7.8765 13.8624 8.1834 13.8624 8.72425C13.8624 9.09999 13.7663 9.35805 13.5739 9.5096Z" fill="white"/>
<path d="M15.6057 10.2778L15.8317 10.3825C16.0661 9.50222 15.9991 8.90443 15.5986 8.64655C15.2457 8.41932 14.7313 8.32685 14.053 8.36311L14.0627 8.67867C14.7049 8.64434 15.1828 8.73024 15.4936 8.93036C15.7568 9.09982 15.805 9.52981 15.6057 10.2778Z" fill="#C88A02"/>
<path d="M12.9532 7.89003C13.5008 7.89003 13.7256 8.06589 13.8539 8.58512C13.9358 8.91603 13.8564 9.19843 13.599 9.46206L13.7459 9.7115C14.0792 9.3702 14.1966 8.95219 14.0816 8.48717C13.9179 7.82546 13.5967 7.57422 12.9532 7.57422C12.5315 7.57422 12.2029 7.72036 11.9742 8.01779L11.9385 8.06417V9.58678H12.1779V8.19915C12.3567 7.99448 12.6132 7.89003 12.9532 7.89003Z" fill="#C88A02"/>
<path opacity="0.3" fill-rule="evenodd" clip-rule="evenodd" d="M7.9873 13.2598H15.7692V22.4814C15.7692 22.4814 15.1912 25.5763 11.8782 25.5763C8.56536 25.5763 7.9873 22.3999 7.9873 22.3999V13.2598Z" fill="#E1E5E8"/>
<mask id="mask4_519_30392" style="mask-type:luminance" maskUnits="userSpaceOnUse" x="7" y="13" width="9" height="13">
<path fill-rule="evenodd" clip-rule="evenodd" d="M7.9873 13.2617H15.7692V22.4833C15.7692 22.4833 15.1912 25.5782 11.8782 25.5782C8.56536 25.5782 7.9873 22.4018 7.9873 22.4018V13.2617Z" fill="white"/>
</mask>
<g mask="url(#mask4_519_30392)">
<path d="M7.9873 18.9453H11.9382V25.1036H7.9873V18.9453Z" fill="#FFC034"/>
<path d="M8.46631 19.2627H8.9452V25.1052H8.46631V19.2627Z" fill="#AD1619"/>
<path d="M10.1421 19.2627H10.621V25.1052H10.1421V19.2627Z" fill="#AD1619"/>
<path d="M9.3042 19.2627H9.78309V25.1052H9.3042V19.2627Z" fill="#AD1619"/>
<path d="M10.9805 19.2627H11.4594V25.1052H10.9805V19.2627Z" fill="#AD1619"/>
<path d="M7.9873 13.1035H11.9382V19.1039H7.9873V13.1035Z" fill="#AD1619"/>
<path d="M11.8184 18.7881H15.7692V24.7885H11.8184V18.7881Z" fill="#AD1619"/>
<path d="M9.19215 14.6833H9.09535V14.5866H8.95014V14.9347H9.10503V15.1764H8.77589V15.8531H8.95014V17.2356H8.61133V17.9414H11.2444V17.2356H10.9056V15.8531H11.0798V15.1764H10.7507V14.9347H10.9056V14.5963H10.7507V14.6833H10.6732V14.5866H10.5184V14.6833H10.4119V14.5866H10.257V14.9347H10.4119V15.1764H10.0924V14.4223H10.257V14.0839H10.0924V14.1709H9.99562V14.0742H9.85042V14.1709H9.76329V14.0742H9.60841V14.4223H9.77297V15.1764H9.45352V14.9347H9.60841V14.5963H9.45352V14.6833H9.3664V14.5866H9.19215V14.6833ZM8.61133 17.9414H11.2541ZM8.61133 17.7674H11.2541ZM8.61133 17.5933H11.2541ZM8.61133 17.429H11.2541ZM8.61133 17.2356H11.2541ZM8.95014 17.0809H10.9056ZM8.95014 16.9069H10.9056ZM8.95014 16.7136H10.9056ZM8.95014 16.5492H10.9056ZM8.95014 16.3752H10.9056ZM8.95014 16.2012H10.9056ZM8.95014 16.0368H10.9056ZM8.77589 15.8628H11.0798ZM8.77589 15.6888H11.0798ZM8.77589 15.5147H11.0798ZM8.77589 15.3407H11.0798ZM9.10503 15.1764H10.7507ZM9.76329 15.0023H10.0924ZM9.76329 14.8283H10.0924ZM9.76329 14.6543H10.0924ZM9.76329 14.4899H10.0924ZM9.59873 14.2772H10.257ZM9.09535 15.0023H9.44384ZM8.95982 14.7896H9.59873ZM8.95014 17.9414V17.7674ZM8.95014 17.5933V17.429ZM8.77589 17.5933V17.7674ZM9.10503 17.7674V17.5933ZM9.26959 17.9414V17.7674ZM9.26959 17.5933V17.429ZM9.26959 17.2356V17.0809ZM9.26959 16.9069V16.7136ZM9.10503 17.429V17.2356ZM8.77589 17.429V17.2356ZM9.45352 17.2356V17.429ZM9.59873 17.2356V17.0809ZM9.10503 16.9069V17.0809ZM9.44384 16.9069V17.0809ZM9.76329 16.9069V17.0809ZM9.60841 16.9166V16.7232ZM9.77297 16.5589V16.7232ZM9.77297 16.2108V16.3849ZM9.60841 16.0368V16.2108ZM9.77297 15.8725V16.0368ZM9.45352 15.8725V16.0368ZM9.11471 15.8725V16.0368ZM8.95982 15.6984V15.8725ZM9.27928 15.6984V15.8725ZM9.60841 15.6984V15.8725ZM9.77297 15.5244V15.6984ZM9.45352 15.5244V15.6984ZM9.11471 15.5244V15.6984ZM8.95982 15.3504V15.5244ZM9.60841 15.3504V15.5244ZM9.27928 15.012V15.186ZM10.7604 15.012H10.4216ZM10.9056 14.7993H10.2667ZM10.9153 17.9511V17.777ZM10.9153 17.603V17.4387ZM11.0895 17.603V17.777ZM10.7604 17.777V17.5933ZM10.5958 17.9414V17.7674ZM10.5958 17.5933V17.429ZM10.5958 17.2356V17.0809ZM10.5958 16.9069V16.7136ZM10.7604 17.429V17.2356ZM11.0895 17.429V17.2356ZM10.4119 17.2356V17.429ZM10.2667 17.2356V17.0809ZM10.7604 16.9069V17.0809ZM10.4216 16.9069V17.0809ZM10.1021 16.9069V17.0809ZM10.2667 16.9069V16.7136ZM10.1021 16.5492V16.7136ZM10.1021 16.2012V16.3752ZM10.2667 16.0271V16.2012ZM10.1021 15.8628V16.0271ZM10.4216 15.8628V16.0271ZM10.7604 15.8628V16.0271ZM10.9153 15.6888V15.8628ZM10.5958 15.6888V15.8628ZM10.2667 15.6888V15.8628ZM10.1021 15.5147V15.6888ZM10.4216 15.5147V15.6888ZM10.7604 15.5147V15.6888ZM10.9153 15.3407V15.5147ZM10.2667 15.3407V15.5147ZM10.5958 15.0023V15.1764ZM9.91818 16.9166V16.7232ZM9.91818 16.2012V16.0271ZM9.91818 16.5492V16.3752ZM9.91818 15.8628V15.6888ZM9.91818 15.5147V15.3504ZM9.91818 15.0023V14.8283ZM9.91818 14.664V14.4899ZM9.11471 14.9347H9.45352ZM9.77297 14.4223H10.1021ZM10.4216 14.9347H10.7604Z" fill="#C8B100"/>
<path d="M10.2182 17.9423V17.5556C10.2182 17.4879 10.1698 17.2945 9.91816 17.2945C9.68583 17.2945 9.63743 17.4879 9.63743 17.5556V17.9423H10.2182ZM9.5503 16.7144V16.3084C9.5503 16.2117 9.49222 16.0957 9.35669 16.0957C9.22117 16.0957 9.16309 16.202 9.16309 16.3084V16.7241H9.5503V16.7144ZM10.3054 16.7144V16.3084C10.3054 16.2117 10.3731 16.0957 10.499 16.0957C10.6248 16.0957 10.6926 16.202 10.6926 16.3084V16.7241H10.3054V16.7144Z" fill="#0039F0"/>
<path d="M11.8186 13.2607H16.0089V19.1032H11.8186V13.2607Z" fill="#F1F9FF"/>
<path fill-rule="evenodd" clip-rule="evenodd" d="M15.3507 22.955V19.498H12.3577V22.9261L12.3624 22.9528C12.5138 23.8043 13.0298 24.2352 13.8542 24.2352C14.6776 24.2352 15.1936 23.8155 15.3457 22.9824L15.3507 22.955ZM13.8542 23.7615C13.1928 23.7615 12.8316 23.4676 12.7168 22.8703V19.9718H14.9916V22.8978C14.877 23.4755 14.5158 23.7615 13.8542 23.7615Z" fill="#FFC034"/>
<path fill-rule="evenodd" clip-rule="evenodd" d="M13.9775 19.7871H13.7281V21.3545L12.7449 19.944L12.5686 20.1578L13.4578 21.4333H12.6521V21.907H13.271H13.4773L12.5686 23.2107L12.7449 23.4244L13.7281 22.014V23.846H13.9775V22.1788L14.8458 23.4244L15.0221 23.2107L14.1132 21.907H15.1277V21.4333H14.1329L15.0221 20.1578L14.8458 19.944L13.9775 21.1896V19.7871Z" fill="#FFC034"/>
<path d="M13.6348 21.7343C13.6371 21.6687 13.6634 21.6066 13.708 21.5611C13.7526 21.5156 13.8121 21.4902 13.874 21.4902C13.9359 21.4902 13.9953 21.5156 14.0399 21.5611C14.0845 21.6066 14.1108 21.6687 14.1132 21.7343C14.1085 21.7982 14.0813 21.8579 14.0369 21.9013C13.9926 21.9448 13.9344 21.9688 13.874 21.9686C13.7452 21.9686 13.6348 21.871 13.6348 21.7343Z" fill="#058E6E"/>
<path fill-rule="evenodd" clip-rule="evenodd" d="M14.4126 24.7926C14.4126 24.7926 11.8768 25.0555 11.8768 22.8984C11.8768 22.8984 11.8527 24.7926 9.20483 24.7926V26.4954H14.4126V24.7926Z" fill="#F1F9FF"/>
<path fill-rule="evenodd" clip-rule="evenodd" d="M11.8784 20.2091C12.3743 20.2091 12.7763 19.6435 12.7763 18.9459C12.7763 18.2483 12.3743 17.6826 11.8784 17.6826C11.3825 17.6826 10.9805 18.2483 10.9805 18.9459C10.9805 19.6435 11.3825 20.2091 11.8784 20.2091Z" fill="#005BBF" stroke="#AD1619" stroke-width="0.5"/>
<path d="M13.9809 14.6559V14.5979L13.9906 14.5689L13.7679 14.5592C13.686 14.5375 13.6099 14.4979 13.5453 14.4432C13.4678 14.3755 13.4388 14.3465 13.3904 14.3272C13.2645 14.3079 13.1677 14.3659 13.1677 14.3659C13.1677 14.3659 13.2645 14.4045 13.3323 14.4915C13.4001 14.5786 13.4775 14.6172 13.5065 14.6269C13.5646 14.6462 13.7582 14.6269 13.8066 14.6366L13.9809 14.6559Z" fill="#DB4446"/>
<path d="M14.6779 14.4434V14.5787C14.6973 14.6367 14.6682 14.6947 14.6779 14.7237C14.6779 14.7624 14.6876 14.7817 14.7069 14.8107L14.7263 14.8977L14.6585 14.8494L14.6005 14.8107V14.9074C14.6101 14.9268 14.6295 14.9848 14.6585 15.0138L14.7553 15.1394C14.7747 15.1878 14.765 15.2748 14.765 15.2748C14.765 15.2748 14.7263 15.2071 14.6876 15.1975L14.5714 15.1298C14.5714 15.1298 14.6392 15.2071 14.6392 15.2748C14.6392 15.3521 14.6101 15.4295 14.6101 15.4295C14.6101 15.4295 14.5811 15.3618 14.5327 15.3231L14.4359 15.2361C14.4359 15.2361 14.4746 15.3521 14.4746 15.4295V15.6518L14.3875 15.5552L14.2907 15.4875C14.2907 15.4682 14.3391 15.5455 14.3488 15.5938C14.3488 15.6422 14.3778 15.8162 14.523 16.0289C14.6198 16.1546 14.7457 16.3769 15.0361 16.3093C15.3265 16.2319 15.22 15.8452 15.1619 15.6615C15.1089 15.5185 15.0763 15.3688 15.0651 15.2168C15.0651 15.1394 15.1232 14.9364 15.1135 14.8977C15.1003 14.7975 15.1069 14.6957 15.1329 14.598C15.1716 14.4724 15.2006 14.424 15.22 14.3757C15.2394 14.3177 15.2587 14.2887 15.2587 14.25L15.2684 14.1243L15.3362 14.25L15.3459 14.395C15.3459 14.395 15.3555 14.2983 15.4427 14.2403C15.5201 14.1823 15.6169 14.134 15.6363 14.105C15.6653 14.076 15.6653 14.0566 15.6653 14.0566C15.6653 14.0566 15.6653 14.2307 15.6072 14.308L15.4427 14.5014C15.4427 14.5014 15.5104 14.4724 15.5588 14.4724H15.6459C15.6459 14.4724 15.5879 14.511 15.5104 14.627C15.433 14.7237 15.462 14.7431 15.4136 14.8301C15.3555 14.9268 15.3168 14.9268 15.249 14.9751C15.1522 15.0524 15.2006 15.3811 15.2103 15.4295C15.2297 15.4778 15.4039 15.8645 15.4039 15.9612C15.4039 16.0579 15.4233 16.2706 15.2587 16.4059C15.1522 16.5026 14.9683 16.5026 14.9296 16.522C14.8909 16.551 14.8134 16.6283 14.8134 16.7927C14.8134 16.957 14.8715 16.986 14.9102 17.0247C14.9683 17.073 15.0264 17.044 15.0361 17.0827C15.0554 17.1117 15.0554 17.131 15.0845 17.1504C15.1038 17.1697 15.1135 17.189 15.1038 17.2277C15.1038 17.2567 15.0264 17.3341 14.9974 17.3921L14.9199 17.6241C14.9199 17.6434 14.9102 17.7208 14.9296 17.7498C14.9296 17.7498 15.0167 17.8465 14.9586 17.8658C14.9199 17.8851 14.8812 17.8465 14.8618 17.8465L14.7747 17.8948C14.7457 17.8851 14.7457 17.8658 14.736 17.8175L14.7263 17.7498C14.7069 17.7498 14.6973 17.7691 14.6876 17.7981C14.6876 17.8175 14.6876 17.8755 14.6585 17.8755C14.6392 17.8755 14.6101 17.8368 14.5811 17.8271C14.5617 17.8271 14.5037 17.8078 14.5037 17.7885C14.5037 17.7595 14.5424 17.7014 14.5714 17.6918C14.6101 17.6918 14.6489 17.6628 14.6198 17.6434C14.5908 17.6241 14.5714 17.6241 14.5521 17.6434C14.5327 17.6628 14.4746 17.6434 14.4843 17.6241V17.5468C14.4843 17.5274 14.4456 17.4984 14.494 17.4694C14.5521 17.4404 14.5714 17.4888 14.6295 17.4791C14.6876 17.4791 14.7069 17.4501 14.7263 17.4211C14.7457 17.3921 14.7457 17.3244 14.7069 17.2857C14.6682 17.2374 14.6392 17.2374 14.6198 17.2084L14.5908 17.1214V17.3341L14.523 17.2567C14.494 17.2277 14.4649 17.131 14.4649 17.131V17.2567C14.4649 17.2954 14.494 17.3244 14.4843 17.3341C14.4746 17.3437 14.4069 17.2664 14.3875 17.2567C14.3493 17.231 14.3164 17.1982 14.2907 17.16L14.252 17.0247C14.2433 16.9767 14.2433 16.9276 14.252 16.8797L14.2907 16.783H14.1552C14.0874 16.783 14.039 16.754 14.01 16.8023C13.9809 16.8507 13.9906 16.9473 14.0293 17.073C14.0584 17.189 14.0777 17.2567 14.068 17.2761C14.0502 17.3057 14.0273 17.3319 14.0003 17.3534H13.9132C13.8775 17.3342 13.8375 17.3242 13.797 17.3244H13.6711L13.5647 17.2954C13.5356 17.3051 13.4872 17.3244 13.5066 17.3631C13.5259 17.4211 13.4872 17.4307 13.4582 17.4307L13.3711 17.4114C13.3323 17.4017 13.2839 17.4114 13.2936 17.3727C13.2936 17.3341 13.313 17.3341 13.3323 17.3051C13.3517 17.2761 13.3517 17.2567 13.3323 17.2567H13.2743C13.2549 17.2761 13.2258 17.3051 13.1968 17.2954C13.1774 17.2857 13.1581 17.2567 13.1581 17.1987C13.1581 17.1407 13.0903 17.0827 13.1581 17.0924C13.2065 17.0924 13.2839 17.131 13.2936 17.0924C13.313 17.0634 13.2936 17.0537 13.2743 17.0247C13.2549 16.9957 13.1968 16.986 13.2452 16.957L13.313 16.9087C13.3227 16.8893 13.3517 16.8313 13.3807 16.8507C13.4388 16.87 13.3807 16.9183 13.4388 16.9764C13.4969 17.044 13.5356 17.073 13.6324 17.0537C13.7292 17.0537 13.7583 17.0344 13.7583 17.0054L13.7486 16.9087V16.812C13.7486 16.812 13.7099 16.841 13.7002 16.87L13.6615 16.9473V16.754C13.6563 16.7279 13.6499 16.7021 13.6421 16.6766L13.6131 16.7637L13.6034 16.8603C13.6034 16.8603 13.5356 16.812 13.555 16.7153C13.5647 16.6476 13.5453 16.5606 13.5647 16.522C13.584 16.493 13.6324 16.3769 13.7583 16.3673H14.01L14.2036 16.3383C14.2036 16.3383 13.9325 16.2029 13.8648 16.1546C13.7909 16.1001 13.7257 16.035 13.6711 15.9612L13.6131 15.8065C13.6131 15.8065 13.5647 15.8065 13.5163 15.8355C13.4727 15.8615 13.4335 15.8941 13.4001 15.9322L13.3323 16.0289L13.342 15.9129V15.8355C13.342 15.8355 13.3033 15.9516 13.2452 15.9999L13.1097 16.0966V16.0192L13.129 15.9225C13.129 15.9225 13.0903 15.9999 13.0226 16.0192C12.9548 16.0192 12.8483 16.0192 12.8386 16.0579C12.8386 16.1062 12.858 16.1546 12.8386 16.1933C12.8386 16.2223 12.7999 16.2416 12.7999 16.2416L12.7225 16.2029C12.6837 16.2029 12.6547 16.2223 12.6547 16.2223C12.6547 16.2223 12.6257 16.1836 12.6353 16.1546C12.645 16.1352 12.7031 16.0966 12.6837 16.0772L12.6063 16.0966C12.5773 16.1062 12.5289 16.1256 12.5289 16.0772C12.5289 16.0386 12.5482 16.0096 12.5289 15.9806C12.5289 15.9516 12.5289 15.9322 12.5482 15.9225L12.6644 15.9129C12.6644 15.8935 12.645 15.8645 12.5869 15.8549C12.5289 15.8452 12.5095 15.8065 12.5385 15.7775C12.5676 15.7582 12.5676 15.7485 12.5869 15.7195C12.5966 15.7002 12.6063 15.6518 12.6547 15.6712C12.7031 15.7002 12.6934 15.7485 12.7515 15.7679C12.8166 15.778 12.8833 15.7713 12.9451 15.7485L13.0903 15.6518L13.2355 15.5552L13.1387 15.4778C13.1097 15.4488 13.071 15.3908 13.0419 15.3811C12.9862 15.3552 12.9278 15.3358 12.8677 15.3231C12.8114 15.3125 12.7562 15.2963 12.7031 15.2748L12.7806 15.2458C12.7999 15.2265 12.8386 15.1878 12.858 15.1878H12.887H12.7515C12.7225 15.1781 12.6547 15.1298 12.6257 15.1298L12.5482 15.1394C12.5482 15.1394 12.6257 15.1008 12.6837 15.0911L12.7806 15.0814C12.7806 15.0814 12.6934 15.0524 12.6741 15.0234L12.616 14.9268C12.5966 14.9171 12.5869 14.8784 12.5579 14.8784L12.4611 14.9074C12.4224 14.9074 12.403 14.8881 12.403 14.8494L12.3933 14.8011C12.374 14.7721 12.3353 14.7237 12.374 14.7044H12.5095C12.5095 14.6851 12.4611 14.6464 12.4321 14.627C12.3933 14.6077 12.3353 14.5787 12.3643 14.5497L12.4417 14.5014C12.4611 14.4724 12.4708 14.4047 12.5095 14.4337C12.5482 14.453 12.5869 14.5497 12.616 14.54C12.645 14.54 12.645 14.4627 12.645 14.4434C12.645 14.4047 12.645 14.3467 12.6644 14.3563C12.6934 14.3563 12.7128 14.395 12.7612 14.4047C12.7999 14.4047 12.858 14.395 12.858 14.424C12.858 14.453 12.829 14.4917 12.7999 14.5207C12.7709 14.5497 12.7612 14.6174 12.7709 14.6561C12.7902 14.7044 12.8386 14.7721 12.887 14.7914C12.9258 14.8204 13.0032 14.8397 13.0516 14.8784C13.1 14.9074 13.2162 14.9944 13.2549 15.0041L13.3323 15.0428C13.3323 15.0428 13.3807 15.0234 13.4388 15.0234C13.5066 15.0234 13.6421 15.0234 13.6905 15.0041C13.7486 14.9848 13.8164 14.9461 13.7873 14.9074C13.7776 14.8494 13.6615 14.8107 13.6711 14.7721C13.6711 14.7334 13.7195 14.7334 13.7873 14.7334C13.8648 14.7334 13.9616 14.7431 13.9809 14.6367C14.0003 14.54 14.0003 14.4917 13.9035 14.4627C13.8067 14.4434 13.7292 14.4434 13.7099 14.366C13.6905 14.2983 13.6711 14.279 13.6905 14.2597C13.7195 14.2403 13.7486 14.2307 13.826 14.221C13.9035 14.221 13.9809 14.221 14.01 14.2017C14.0293 14.1823 14.039 14.134 14.068 14.1146C14.0971 14.0953 14.2036 14.076 14.2036 14.076C14.2036 14.076 14.3391 14.1437 14.4649 14.2403C14.5426 14.3006 14.614 14.3687 14.6779 14.4434Z" fill="#ED72AA"/>
<path d="M13.71 14.3769L13.6904 14.3183V14.2891C13.6904 14.2891 13.7686 14.2891 13.7588 14.3183C13.7588 14.3379 13.7393 14.3379 13.7295 14.3476L13.71 14.3769Z" fill="black"/>
<path d="M14.0872 14.2408V14.2021C14.0872 14.2021 14.1549 14.2021 14.184 14.2312C14.2324 14.2698 14.2711 14.3278 14.2711 14.3278L14.1936 14.2892H14.1452L14.1162 14.2795V14.2505L14.0872 14.2408Z" fill="black"/>
<path d="M12.6738 14.3566C12.6738 14.3566 12.7222 14.3953 12.7513 14.3953H12.8287C12.8287 14.3953 12.8481 14.347 12.8384 14.318C12.819 14.202 12.7222 14.1826 12.7222 14.1826C12.7222 14.1826 12.7513 14.2503 12.7319 14.2793C12.7194 14.3096 12.6994 14.3362 12.6738 14.3566Z" fill="#DB4446"/>
<path d="M12.4608 14.4535C12.4608 14.4535 12.4221 14.3858 12.335 14.3955C12.2575 14.3955 12.1995 14.4728 12.1995 14.4728H12.3156C12.3447 14.5018 12.3543 14.5695 12.3543 14.5695L12.4221 14.5115C12.436 14.4928 12.4489 14.4735 12.4608 14.4535Z" fill="#DB4446"/>
<path d="M12.3643 14.7432C12.3643 14.7432 12.2869 14.7528 12.2481 14.8012C12.2094 14.8495 12.2191 14.9269 12.2191 14.9269C12.2191 14.9269 12.2578 14.8785 12.3062 14.8785L12.403 14.8978L12.3933 14.8205L12.3643 14.7432Z" fill="#DB4446"/>
<path d="M12.5964 15.6908C12.5964 15.6908 12.5577 15.6425 12.4899 15.6618C12.4222 15.6618 12.3738 15.7488 12.3738 15.7488C12.3738 15.7488 12.4319 15.7295 12.4706 15.7391C12.5093 15.7488 12.5287 15.7778 12.5287 15.7778L12.5674 15.7391L12.5964 15.6908Z" fill="#DB4446"/>
<path d="M12.5191 15.9619C12.5191 15.9619 12.4611 15.9619 12.4127 15.9909C12.3643 16.0296 12.3643 16.1069 12.3643 16.1069C12.3643 16.1069 12.403 16.0683 12.4417 16.0779L12.5288 16.0973V16.0393C12.5482 16.0006 12.5191 15.9619 12.5191 15.9619Z" fill="#DB4446"/>
<path d="M12.6545 16.2129C12.6545 16.2129 12.6545 16.2902 12.6836 16.3386C12.7223 16.3869 12.7901 16.3869 12.7901 16.3869L12.761 16.3192C12.761 16.2806 12.7901 16.2419 12.7901 16.2419C12.7901 16.2419 12.761 16.2129 12.7223 16.2129H12.6545Z" fill="#DB4446"/>
<path d="M13.3321 16.8695C13.3321 16.8695 13.2934 16.8115 13.2256 16.8115C13.1579 16.8115 13.0901 16.8792 13.0901 16.8792C13.0901 16.8792 13.1675 16.8695 13.1869 16.8985L13.2353 16.9565L13.2837 16.9275L13.3321 16.8695Z" fill="#DB4446"/>
<path d="M13.1386 17.131C13.1386 17.131 13.0418 17.1213 13.0031 17.16C12.9644 17.2083 12.9644 17.2856 12.9644 17.2856C12.9644 17.2856 13.0224 17.2276 13.0612 17.2373C13.1096 17.2373 13.158 17.2663 13.158 17.2663V17.1986L13.1289 17.131" fill="#DB4446"/>
<path d="M13.313 17.4033C13.313 17.4033 13.2839 17.471 13.313 17.5097C13.342 17.558 13.4098 17.587 13.4098 17.587C13.4098 17.587 13.3807 17.5483 13.3904 17.5097C13.4001 17.4807 13.4582 17.4323 13.4582 17.4323L13.3226 17.413" fill="#DB4446"/>
<path d="M14.4746 17.5184C14.4746 17.5184 14.3972 17.499 14.3584 17.5184C14.31 17.5474 14.281 17.6537 14.281 17.6537C14.281 17.6537 14.3488 17.5957 14.3972 17.6054C14.4456 17.6054 14.494 17.6344 14.494 17.6344V17.557L14.4746 17.5184Z" fill="#DB4446"/>
<path d="M14.5134 17.7988C14.5134 17.7988 14.4553 17.8568 14.4747 17.9052L14.5327 18.0019C14.5327 18.0019 14.5327 17.9342 14.5521 17.9052L14.6489 17.8762L14.5811 17.8278C14.5583 17.8187 14.5357 17.809 14.5134 17.7988Z" fill="#DB4446"/>
<path d="M14.8036 17.8758C14.8036 17.8758 14.7745 17.9531 14.8229 18.0015C14.881 18.0498 14.9197 18.0498 14.9197 18.0498C14.9197 18.0498 14.8907 17.9821 14.9004 17.9435C14.91 17.8951 14.9488 17.8758 14.9488 17.8758L14.8713 17.8564L14.8036 17.8855" fill="#DB4446"/>
<path d="M14.6294 14.0467H14.6003C14.5929 14.0611 14.5831 14.0742 14.5713 14.0854C14.5519 14.1047 14.5132 14.1047 14.4939 14.0854C14.4896 14.08 14.4865 14.0737 14.4848 14.0671C14.4832 14.0604 14.4829 14.0534 14.4842 14.0467C14.4768 14.0509 14.4685 14.0532 14.46 14.0532C14.4515 14.0532 14.4431 14.0509 14.4358 14.0467C14.4067 14.037 14.4067 13.9983 14.4261 13.979V13.9307H14.3971L14.3874 13.95C14.368 13.979 14.339 13.979 14.3196 13.9693C14.3185 13.9629 14.3185 13.9564 14.3196 13.95H14.2906C14.2422 13.9693 14.2228 13.8533 14.2228 13.834L14.2034 13.8533C14.2034 13.8533 14.2228 13.921 14.2131 13.9693C14.2131 14.0273 14.1841 14.0854 14.1841 14.0854C14.2864 14.1191 14.3816 14.1716 14.4648 14.24C14.5485 14.3009 14.6206 14.3762 14.6778 14.4624L14.7939 14.4141C14.852 14.3947 14.9198 14.3947 14.9198 14.3947L14.9392 14.3754C14.9101 14.3754 14.7939 14.3851 14.7939 14.3367V14.3174C14.7875 14.3183 14.781 14.3183 14.7746 14.3174C14.7552 14.298 14.7552 14.2787 14.7746 14.2497L14.7939 14.24V14.211H14.7649L14.7455 14.2207C14.7262 14.2497 14.6875 14.2497 14.6681 14.2207C14.6631 14.2157 14.6596 14.2095 14.6579 14.2027C14.6562 14.1959 14.6564 14.1887 14.6584 14.182C14.6508 14.1855 14.6426 14.1873 14.6342 14.1873C14.6259 14.1873 14.6176 14.1855 14.61 14.182C14.5907 14.1627 14.581 14.1337 14.61 14.1047L14.6294 14.0757V14.0467Z" fill="#C8B100"/>
</g>
<path d="M12.0712 24.2932C12.2648 24.3512 12.3616 24.4865 12.3616 24.6605C12.3616 24.8829 12.1486 25.0473 11.8776 25.0473C11.5872 25.0473 11.3645 24.8829 11.3645 24.6605C11.3645 24.4962 11.4613 24.3125 11.6549 24.2932L11.6356 24.2545L11.5678 24.1868H11.684L11.7614 24.2352L11.8098 24.1675C11.8388 24.1288 11.8679 24.1191 11.8679 24.1191L11.926 24.1771L11.955 24.2255L12.0228 24.1868L12.1002 24.1578C12.1002 24.1578 12.1002 24.1965 12.0808 24.2255L12.0712 24.2932Z" fill="#FFD691"/>
<path d="M11.8292 25.2896C11.8292 25.2896 11.4614 25.0383 11.2968 24.9996C11.1032 24.9609 10.8612 24.9996 10.7644 24.9996C10.7644 24.9996 10.8806 25.077 10.9387 25.135C10.9871 25.1833 11.1613 25.28 11.2581 25.309C11.5485 25.3863 11.8389 25.2896 11.8389 25.2896M11.9357 25.309C11.9357 25.309 12.1681 25.0673 12.4197 25.0286C12.7102 24.9899 12.9038 25.0576 13.0199 25.0866L12.8747 25.164C12.8263 25.193 12.6811 25.309 12.4875 25.3186C12.2939 25.3186 12.0616 25.2896 12.0229 25.2993L11.9357 25.309Z" fill="#058E6E"/>
<path d="M11.868 25.0097C11.8201 24.9662 11.7819 24.9132 11.7557 24.8541C11.7296 24.795 11.7161 24.7311 11.7161 24.6665C11.7161 24.6018 11.7296 24.5379 11.7557 24.4788C11.7819 24.4197 11.8201 24.3667 11.868 24.3232C11.914 24.3668 11.9506 24.4192 11.9756 24.4774C12.0006 24.5356 12.0134 24.5983 12.0132 24.6616C12.0141 24.7265 12.0017 24.7908 11.9767 24.8507C11.9518 24.9106 11.9147 24.9647 11.868 25.0097Z" fill="#AD1519"/>
<path d="M11.7712 25.5119C11.7712 25.5119 11.8293 25.3669 11.8293 25.2509L11.8196 25.0479H11.8971C11.8971 25.0479 11.9261 25.1542 11.9261 25.2412L11.9164 25.4732L11.8487 25.4829L11.7712 25.5119Z" fill="#058E6E"/>
</g>
</g>
</svg>
