<svg width="143" height="143" viewBox="0 0 143 143" fill="none" xmlns="http://www.w3.org/2000/svg">
<mask id="mask0_129_29170" style="mask-type:luminance" maskUnits="userSpaceOnUse" x="0" y="0" width="143" height="143">
<path d="M0 0H143V142.233H0V0Z" fill="white"/>
</mask>
<g mask="url(#mask0_129_29170)">
<path fill-rule="evenodd" clip-rule="evenodd" d="M70.5 0C31.5639 0 0 32.1804 0 71.1164C0 110.053 31.5639 142.233 70.5 142.233C109.436 142.233 141 110.053 141 71.1164C141 32.1804 109.436 0 70.5 0Z" fill="#E31D1C"/>
<mask id="mask1_129_29170" style="mask-type:luminance" maskUnits="userSpaceOnUse" x="0" y="0" width="141" height="143">
<path fill-rule="evenodd" clip-rule="evenodd" d="M70.5 0C31.5639 0 0 32.1804 0 71.1164C0 110.053 31.5639 142.233 70.5 142.233C109.436 142.233 141 110.053 141 71.1164C141 32.1804 109.436 0 70.5 0Z" fill="white"/>
</mask>
<g mask="url(#mask1_129_29170)">
<path fill-rule="evenodd" clip-rule="evenodd" d="M69.4897 100.127C56.9609 97.0081 47.1486 86.4094 47.2627 70.8723C47.3691 56.3287 56.0815 44.0355 69.8536 40.7076C83.6263 37.3797 95.7514 44.444 95.7514 44.444C91.9449 35.362 78.721 28.9817 67.8796 29C47.6991 29.0342 26.1867 45.5756 26.0012 70.8723C25.809 97.0986 49.0378 112.034 69.4674 112C85.8455 111.972 93.6141 100.647 95.223 95.8296C95.223 95.8296 82.0179 103.247 69.4897 100.127ZM98.0285 65.9068L85.5465 70.5406L99.6304 75.5623L99.39 90.5672L108.67 79.3103L124 80.4362L111.852 69.8818L119.827 58.6239L106.841 63.0412L97.5598 52.6122L98.0285 65.9068Z" fill="#F7FCFF"/>
</g>
</g>
</svg>
