<svg width="24" height="24" viewBox="0 0 24 24" fill="none" xmlns="http://www.w3.org/2000/svg">
<g clip-path="url(#clip0_235_28813)">
<path d="M10.8 18H13.2V10.8H10.8V18ZM12 0C5.37 0 0 5.37 0 12C0 18.63 5.37 24 12 24C18.63 24 24 18.63 24 12C24 5.37 18.63 0 12 0ZM12 21.6C6.708 21.6 2.4 17.292 2.4 12C2.4 6.708 6.708 2.4 12 2.4C17.292 2.4 21.6 6.708 21.6 12C21.6 17.292 17.292 21.6 12 21.6ZM10.8 8.4H13.2V6H10.8V8.4Z" fill="#D53F36"/>
</g>
<defs>
<clipPath id="clip0_235_28813">
<rect width="24" height="24" fill="white"/>
</clipPath>
</defs>
</svg>
