<svg width="16" height="20" viewBox="0 0 16 20" fill="none" xmlns="http://www.w3.org/2000/svg">
<path fill-rule="evenodd" clip-rule="evenodd" d="M7.01697 14.1976C7.6266 13.8556 8.37052 13.8567 8.97912 14.2005L13.7388 16.8892V4.15344C13.7388 3.2797 13.4698 2.95596 13.2436 2.78265C12.9242 2.5379 12.2816 2.2998 11.1503 2.2998H4.79143C3.68956 2.2998 3.01963 2.52378 2.67612 2.76984C2.44175 2.93771 2.19995 3.21462 2.19995 3.96998V16.8997L7.01697 14.1976ZM14.3223 19.5158L7.99544 15.9419L1.61348 19.5219C0.980904 19.8767 0.199951 19.4196 0.199951 18.6938V3.96998C0.199951 1.32737 2.16687 0.299805 4.79143 0.299805H11.1503C13.8581 0.299805 15.7388 1.40256 15.7388 4.15344V18.6888C15.7388 19.4156 14.9558 19.8727 14.3223 19.5158Z" fill="#131313"/>
</svg>
