<svg width="31" height="30" viewBox="0 0 31 30" fill="none" xmlns="http://www.w3.org/2000/svg">
<path d="M23 12.2809C23.002 11.0438 22.698 9.82543 22.1151 8.73431C21.5321 7.6432 20.6883 6.71323 19.6589 6.02725C18.6294 5.34128 17.4462 4.9206 16.2148 4.8027C14.9834 4.6848 13.7419 4.87333 12.6009 5.35151C11.46 5.82969 10.4551 6.58267 9.67571 7.54334C8.89632 8.50402 8.36666 9.64257 8.13392 10.8576C7.90119 12.0725 7.97261 13.3262 8.34181 14.5069C8.71102 15.6876 9.36654 16.7587 10.25 17.6246C10.7126 18.0586 11.0836 18.5808 11.3412 19.1605C11.5988 19.7401 11.7378 20.3654 11.75 20.9996V21.5621H19.25V21.0652C19.263 20.4162 19.4048 19.7761 19.6671 19.1823C19.9294 18.5884 20.3071 18.0526 20.7781 17.6059C21.4817 16.9089 22.0403 16.0795 22.4216 15.1656C22.803 14.2516 22.9995 13.2712 23 12.2809Z" stroke="black" stroke-width="2" stroke-linecap="round" stroke-linejoin="round"/>
<path d="M11.75 24.375H19.25" stroke="black" stroke-width="2" stroke-linecap="round" stroke-linejoin="round"/>
<path d="M12.6875 25.3125H18.3125" stroke="black" stroke-width="2" stroke-linecap="round" stroke-linejoin="round"/>
<path d="M15.5 26.25V25.3125" stroke="black" stroke-width="2" stroke-linecap="round" stroke-linejoin="round"/>
<path d="M15.5 11.6436L14.5625 14.2967H16.4375L15.5 17.0342" stroke="black" stroke-linecap="round" stroke-linejoin="round"/>
</svg>
