<svg width="27" height="27" viewBox="0 0 27 27" fill="none" xmlns="http://www.w3.org/2000/svg">
<path d="M4.5 16.0031H5.76562L6.4125 14.1469H9.3375L10.0125 16.0031H11.25L8.52187 8.74687H7.22812L4.5 16.0031ZM6.77812 13.1062L7.84687 10.0969H7.90312L8.97187 13.1062H6.77812ZM15.75 11.1375V9.225C16.3687 8.9625 17.0016 8.76562 17.6484 8.63438C18.2953 8.50312 18.975 8.4375 19.6875 8.4375C20.175 8.4375 20.6531 8.475 21.1219 8.55C21.5906 8.625 22.05 8.71875 22.5 8.83125V10.6312C22.05 10.4625 21.5953 10.3359 21.1359 10.2516C20.6766 10.1672 20.1938 10.125 19.6875 10.125C18.975 10.125 18.2906 10.2141 17.6344 10.3922C16.9781 10.5703 16.35 10.8187 15.75 11.1375ZM15.75 17.325V15.4125C16.3687 15.15 17.0016 14.9531 17.6484 14.8219C18.2953 14.6906 18.975 14.625 19.6875 14.625C20.175 14.625 20.6531 14.6625 21.1219 14.7375C21.5906 14.8125 22.05 14.9062 22.5 15.0188V16.8187C22.05 16.65 21.5953 16.5234 21.1359 16.4391C20.6766 16.3547 20.1938 16.3125 19.6875 16.3125C18.975 16.3125 18.2906 16.3969 17.6344 16.5656C16.9781 16.7344 16.35 16.9875 15.75 17.325ZM15.75 14.2312V12.3187C16.3687 12.0562 17.0016 11.8594 17.6484 11.7281C18.2953 11.5969 18.975 11.5312 19.6875 11.5312C20.175 11.5312 20.6531 11.5687 21.1219 11.6437C21.5906 11.7188 22.05 11.8125 22.5 11.925V13.725C22.05 13.5562 21.5953 13.4297 21.1359 13.3453C20.6766 13.2609 20.1938 13.2188 19.6875 13.2188C18.975 13.2188 18.2906 13.3078 17.6344 13.4859C16.9781 13.6641 16.35 13.9125 15.75 14.2312ZM7.3125 18C8.19375 18 9.05156 18.0984 9.88594 18.2953C10.7203 18.4922 11.55 18.7875 12.375 19.1812V8.1C11.6062 7.65 10.7906 7.3125 9.92812 7.0875C9.06562 6.8625 8.19375 6.75 7.3125 6.75C6.6375 6.75 5.96719 6.81562 5.30156 6.94687C4.63594 7.07812 3.99375 7.275 3.375 7.5375V18.675C4.03125 18.45 4.68281 18.2812 5.32969 18.1687C5.97656 18.0562 6.6375 18 7.3125 18ZM14.625 19.1812C15.45 18.7875 16.2797 18.4922 17.1141 18.2953C17.9484 18.0984 18.8062 18 19.6875 18C20.3625 18 21.0234 18.0562 21.6703 18.1687C22.3172 18.2812 22.9688 18.45 23.625 18.675V7.5375C23.0062 7.275 22.3641 7.07812 21.6984 6.94687C21.0328 6.81562 20.3625 6.75 19.6875 6.75C18.8062 6.75 17.9344 6.8625 17.0719 7.0875C16.2094 7.3125 15.3937 7.65 14.625 8.1V19.1812ZM13.5 22.5C12.6 21.7875 11.625 21.2344 10.575 20.8406C9.525 20.4469 8.4375 20.25 7.3125 20.25C6.525 20.25 5.75156 20.3531 4.99219 20.5594C4.23281 20.7656 3.50625 21.0562 2.8125 21.4312C2.41875 21.6375 2.03906 21.6281 1.67344 21.4031C1.30781 21.1781 1.125 20.85 1.125 20.4187V6.8625C1.125 6.65625 1.17656 6.45937 1.27969 6.27187C1.38281 6.08437 1.5375 5.94375 1.74375 5.85C2.60625 5.4 3.50625 5.0625 4.44375 4.8375C5.38125 4.6125 6.3375 4.5 7.3125 4.5C8.4 4.5 9.46406 4.64062 10.5047 4.92188C11.5453 5.20312 12.5437 5.625 13.5 6.1875C14.4562 5.625 15.4547 5.20312 16.4953 4.92188C17.5359 4.64062 18.6 4.5 19.6875 4.5C20.6625 4.5 21.6187 4.6125 22.5562 4.8375C23.4937 5.0625 24.3937 5.4 25.2562 5.85C25.4625 5.94375 25.6172 6.08437 25.7203 6.27187C25.8234 6.45937 25.875 6.65625 25.875 6.8625V20.4187C25.875 20.85 25.6922 21.1781 25.3266 21.4031C24.9609 21.6281 24.5812 21.6375 24.1875 21.4312C23.4937 21.0562 22.7672 20.7656 22.0078 20.5594C21.2484 20.3531 20.475 20.25 19.6875 20.25C18.5625 20.25 17.475 20.4469 16.425 20.8406C15.375 21.2344 14.4 21.7875 13.5 22.5Z" fill="black"/>
</svg>
