<svg width="28" height="28" viewBox="0 0 28 28" fill="none" xmlns="http://www.w3.org/2000/svg">
<path d="M25 9.42857L14 14.9143C12.3004 14.0314 4.6996 10.3115 3 9.42857M6.91111 22H21.0889C22.4579 22 23.1425 22 23.6653 21.7509C24.1253 21.5318 24.4993 21.1821 24.7336 20.752C25 20.2631 25 19.623 25 18.3429V9.65714C25 8.37703 25 7.73696 24.7336 7.24802C24.4993 6.81793 24.1253 6.46826 23.6653 6.24913C23.1425 6 22.4579 6 21.0889 6H6.91111C5.5421 6 4.85758 6 4.33469 6.24913C3.87473 6.46826 3.50078 6.81793 3.26643 7.24802C3 7.73696 3 8.37702 3 9.65714V18.3429C3 19.623 3 20.2631 3.26643 20.752C3.50078 21.1821 3.87473 21.5318 4.33469 21.7509C4.85758 22 5.54209 22 6.91111 22Z" stroke="#131313" stroke-width="2.5" stroke-linecap="round" stroke-linejoin="round"/>
</svg>
