<svg width="21" height="20" viewBox="0 0 21 20" fill="none" xmlns="http://www.w3.org/2000/svg">
<path d="M18.3765 3.18182H11.3759H11.9885L12.5135 2.27273C12.6885 2 12.9511 1.81818 13.2573 1.81818C13.3886 1.81818 13.5636 1.86364 13.6949 1.95455L14.8325 2.63636C15.0512 2.72727 15.1825 2.95455 15.2262 3.18182H16.9764C16.9764 3 16.9326 2.86364 16.8889 2.68182C16.7139 2 16.2763 1.40909 15.6638 1.04545L14.5262 0.363636C14.1324 0.136364 13.6949 0 13.2136 0C12.2948 0 11.4197 0.5 10.9384 1.36364L10.5009 2.22727L10.0196 1.36364C9.53828 0.545455 8.66321 0 7.74438 0C7.30684 0 6.82556 0.136364 6.43177 0.363636L5.29418 1.04545C4.68163 1.40909 4.2441 2 4.06908 2.68182C4.02533 2.86364 3.98157 3 3.98157 3.18182H5.73172C5.77547 2.95455 5.95048 2.72727 6.1255 2.63636L7.26309 1.95455C7.43811 1.86364 7.56937 1.81818 7.74438 1.81818C8.05066 1.81818 8.35693 2 8.48819 2.27273L9.01323 3.18182H9.62578H2.62521C1.18135 3.18182 0 4.40909 0 5.90909V7.72727C0 8.72727 0.525043 9.59091 1.31261 10.0909V16.3636C1.31261 18.3636 2.88773 20 4.81289 20H16.1888C18.114 20 19.6891 18.3636 19.6891 16.3636V10.0909C20.4767 9.63636 21.0017 8.72727 21.0017 7.72727V5.90909C21.0017 4.40909 19.8204 3.18182 18.3765 3.18182ZM18.3765 5C18.8578 5 19.2516 5.40909 19.2516 5.90909V7.72727C19.2516 8.22727 18.8578 8.63636 18.3765 8.63636H11.3759V5H18.3765ZM1.75014 5.90909C1.75014 5.40909 2.14392 5 2.62521 5H9.62578V8.63636H2.62521C2.14392 8.63636 1.75014 8.22727 1.75014 7.72727V5.90909ZM16.1888 18.1818H4.81289C3.85031 18.1818 3.06275 17.3636 3.06275 16.3636V10.4545H9.62578V18.1818H11.3759V10.4545H17.939V16.3636C17.939 17.3636 17.1514 18.1818 16.1888 18.1818Z" fill="white"/>
</svg>
