<svg width="28" height="20" viewBox="0 0 28 20" fill="none" xmlns="http://www.w3.org/2000/svg">
<path d="M18.3765 3.18182H11.3759H11.9885L12.5135 2.27273C12.6885 2 12.9511 1.81818 13.2573 1.81818C13.3886 1.81818 13.5636 1.86364 13.6949 1.95455L14.8325 2.63636C15.0512 2.72727 15.1825 2.95455 15.2262 3.18182H16.9764C16.9764 3 16.9326 2.86364 16.8889 2.68182C16.7139 2 16.2763 1.40909 15.6638 1.04545L14.5262 0.363636C14.1324 0.136364 13.6949 0 13.2136 0C12.2948 0 11.4197 0.5 10.9384 1.36364L10.5009 2.22727L10.0196 1.36364C9.53828 0.545455 8.66321 0 7.74438 0C7.30684 0 6.82556 0.136364 6.43177 0.363636L5.29418 1.04545C4.68163 1.40909 4.2441 2 4.06908 2.68182C4.02533 2.86364 3.98157 3 3.98157 3.18182H5.73172C5.77547 2.95455 5.95048 2.72727 6.1255 2.63636L7.26309 1.95455C7.43811 1.86364 7.56937 1.81818 7.74438 1.81818C8.05066 1.81818 8.35693 2 8.48819 2.27273L9.01323 3.18182H9.62578H2.62521C1.18135 3.18182 0 4.40909 0 5.90909V7.72727C0 8.72727 0.525043 9.59091 1.31261 10.0909V16.3636C1.31261 18.3636 2.88773 20 4.81289 20H16.1888C18.114 20 19.6891 18.3636 19.6891 16.3636V10.0909C20.4767 9.63636 21.0017 8.72727 21.0017 7.72727V5.90909C21.0017 4.40909 19.8204 3.18182 18.3765 3.18182ZM18.3765 5C18.8578 5 19.2516 5.40909 19.2516 5.90909V7.72727C19.2516 8.22727 18.8578 8.63636 18.3765 8.63636H11.3759V5H18.3765ZM1.75014 5.90909C1.75014 5.40909 2.14392 5 2.62521 5H9.62578V8.63636H2.62521C2.14392 8.63636 1.75014 8.22727 1.75014 7.72727V5.90909ZM16.1888 18.1818H4.81289C3.85031 18.1818 3.06275 17.3636 3.06275 16.3636V10.4545H9.62578V18.1818H11.3759V10.4545H17.939V16.3636C17.939 17.3636 17.1514 18.1818 16.1888 18.1818Z" fill="white"/>
<path d="M23.9135 17.382C23.9135 17.8111 24.0808 18.2227 24.3787 18.5261C24.6765 18.8295 25.0805 19 25.5017 19C25.9229 19 26.3269 18.8295 26.6248 18.5261C26.9226 18.2227 27.0899 17.8111 27.0899 17.382C27.0899 17.1695 27.0489 16.9592 26.969 16.7629C26.8892 16.5665 26.7722 16.3882 26.6248 16.2379C26.4773 16.0877 26.3022 15.9685 26.1095 15.8872C25.9168 15.8059 25.7103 15.764 25.5017 15.764C25.2931 15.764 25.0866 15.8059 24.8939 15.8872C24.7012 15.9685 24.5261 16.0877 24.3787 16.2379C24.2312 16.3882 24.1142 16.5665 24.0344 16.7629C23.9546 16.9592 23.9135 17.1695 23.9135 17.382ZM24.7076 13.1348H26.2958C26.405 13.1348 26.4944 13.0438 26.4944 12.9326V1.20225C26.4944 1.09101 26.405 1 26.2958 1H24.7076C24.5984 1 24.5091 1.09101 24.5091 1.20225V12.9326C24.5091 13.0438 24.5984 13.1348 24.7076 13.1348Z" fill="white"/>
</svg>
