<svg width="22" height="19" viewBox="0 0 22 19" fill="none" xmlns="http://www.w3.org/2000/svg">
<path fill-rule="evenodd" clip-rule="evenodd" d="M10.9996 6.97266C9.80047 6.97266 8.83557 7.93732 8.83557 9.13866C8.83557 9.73718 9.07208 10.2656 9.46706 10.6599C9.85793 11.0501 9.85848 11.6833 9.46829 12.0741C9.07811 12.465 8.44494 12.4656 8.05408 12.0754C7.29906 11.3217 6.83557 10.2901 6.83557 9.13866C6.83557 6.83399 8.69467 4.97266 10.9996 4.97266C12.1377 4.97266 13.1915 5.43343 13.9422 6.19616C14.3297 6.58976 14.3247 7.2229 13.9311 7.61033C13.5375 7.99775 12.9043 7.99275 12.5169 7.59915C12.1377 7.21388 11.5955 6.97266 10.9996 6.97266Z" fill="#131313"/>
<path fill-rule="evenodd" clip-rule="evenodd" d="M14.2818 8.71518C14.8254 8.81294 15.1868 9.33283 15.089 9.8764C14.7832 11.5768 13.4463 12.9167 11.7464 13.2253C11.203 13.324 10.6825 12.9634 10.5839 12.42C10.4852 11.8766 10.8458 11.3561 11.3892 11.2575C12.2673 11.0981 12.9624 10.4019 13.1206 9.52238C13.2183 8.97882 13.7382 8.61742 14.2818 8.71518Z" fill="#131313"/>
<path fill-rule="evenodd" clip-rule="evenodd" d="M10.9996 2.83496C9.34976 2.83496 7.73336 3.42598 6.30416 4.5571L6.30177 4.55899L6.30176 4.55899C4.94804 5.62365 3.75525 7.1721 2.84445 9.13904C3.74577 11.0947 4.92926 12.6321 6.27211 13.6864C6.7065 14.0275 6.78217 14.6561 6.44111 15.0905C6.10006 15.5249 5.47143 15.6006 5.03704 15.2595C3.29516 13.8919 1.85801 11.9257 0.830658 9.53242C0.722255 9.27988 0.722557 8.99387 0.831494 8.74156C1.86857 6.33964 3.31389 4.36482 5.06419 2.98787C6.80873 1.60758 8.85389 0.834961 10.9996 0.834961C13.1602 0.834961 15.2045 1.62035 16.9565 3.00808C17.3894 3.35101 17.4624 3.97995 17.1194 4.41288C16.7765 4.8458 16.1476 4.91876 15.7147 4.57584C14.2726 3.43358 12.6569 2.83496 10.9996 2.83496Z" fill="#131313"/>
<path fill-rule="evenodd" clip-rule="evenodd" d="M17.8462 5.19232C18.2874 4.86018 18.9144 4.94862 19.2465 5.38987C19.9871 6.37377 20.6305 7.49883 21.1674 8.74034C21.2768 8.99341 21.2769 9.28043 21.1677 9.53357C19.1008 14.3218 15.3346 17.4393 10.9996 17.4393C10.0276 17.4393 9.0698 17.2815 8.15098 16.9748C7.6271 16.8 7.34415 16.2336 7.51899 15.7097C7.69383 15.1858 8.26025 14.9029 8.78413 15.0777C9.50131 15.3171 10.2455 15.4393 10.9996 15.4393C14.1769 15.4393 17.2667 13.2115 19.1541 9.13754C18.713 8.18634 18.2074 7.33503 17.6486 6.59267C17.3165 6.15142 17.4049 5.52446 17.8462 5.19232Z" fill="#131313"/>
<path fill-rule="evenodd" clip-rule="evenodd" d="M19.5941 0.542893C19.9846 0.933417 19.9846 1.56658 19.5941 1.95711L3.82008 17.7311C3.42956 18.1216 2.79639 18.1216 2.40587 17.7311C2.01534 17.3406 2.01534 16.7074 2.40587 16.3169L18.1799 0.542893C18.5704 0.152369 19.2036 0.152369 19.5941 0.542893Z" fill="#131313"/>
</svg>
