<svg width="24" height="24" viewBox="0 0 24 24" fill="none" xmlns="http://www.w3.org/2000/svg">
<path d="M9.76057 14.3677C9.18557 13.7937 8.83557 13.0137 8.83557 12.1387C8.83557 10.3857 10.2476 8.97266 11.9996 8.97266C12.8666 8.97266 13.6646 9.32366 14.2296 9.89766" stroke="white" stroke-width="2" stroke-linecap="round" stroke-linejoin="round"/>
<path d="M15.1047 12.6992C14.8727 13.9892 13.8567 15.0072 12.5677 15.2412" stroke="white" stroke-width="2" stroke-linecap="round" stroke-linejoin="round"/>
<path d="M6.65457 17.473C5.06757 16.227 3.72357 14.407 2.74957 12.138C3.73357 9.85896 5.08657 8.02896 6.68357 6.77296C8.27057 5.51696 10.1016 4.83496 11.9996 4.83496C13.9086 4.83496 15.7386 5.52696 17.3356 6.79196" stroke="white" stroke-width="2" stroke-linecap="round" stroke-linejoin="round"/>
<path d="M19.4476 8.99121C20.1356 9.90521 20.7406 10.9602 21.2496 12.1372C19.2826 16.6942 15.8066 19.4392 11.9996 19.4392C11.1366 19.4392 10.2856 19.2992 9.46759 19.0262" stroke="white" stroke-width="2" stroke-linecap="round" stroke-linejoin="round"/>
<path d="M19.887 4.25L4.11298 20.024" stroke="white" stroke-width="2" stroke-linecap="round" stroke-linejoin="round"/>
</svg>
