<svg width="24" height="24" viewBox="0 0 24 24" fill="none" xmlns="http://www.w3.org/2000/svg">
<path fill-rule="evenodd" clip-rule="evenodd" d="M11.9996 9.97266C10.8005 9.97266 9.83557 10.9373 9.83557 12.1387C9.83557 12.7372 10.0721 13.2656 10.4671 13.6599C10.8579 14.0501 10.8585 14.6833 10.4683 15.0741C10.0781 15.465 9.44494 15.4656 9.05408 15.0754C8.29906 14.3217 7.83557 13.2901 7.83557 12.1387C7.83557 9.83399 9.69467 7.97266 11.9996 7.97266C13.1377 7.97266 14.1915 8.43343 14.9422 9.19616C15.3297 9.58976 15.3247 10.2229 14.9311 10.6103C14.5375 10.9978 13.9043 10.9928 13.5169 10.5992C13.1377 10.2139 12.5955 9.97266 11.9996 9.97266Z" fill="#131313"/>
<path fill-rule="evenodd" clip-rule="evenodd" d="M15.2818 11.7152C15.8254 11.8129 16.1868 12.3328 16.089 12.8764C15.7832 14.5768 14.4463 15.9167 12.7464 16.2253C12.203 16.324 11.6825 15.9634 11.5839 15.42C11.4852 14.8766 11.8458 14.3561 12.3892 14.2575C13.2673 14.0981 13.9624 13.4019 14.1206 12.5224C14.2183 11.9788 14.7382 11.6174 15.2818 11.7152Z" fill="#131313"/>
<path fill-rule="evenodd" clip-rule="evenodd" d="M11.9996 5.83496C10.3498 5.83496 8.73336 6.42598 7.30416 7.5571L7.30177 7.55899L7.30176 7.55899C5.94804 8.62365 4.75525 10.1721 3.84445 12.139C4.74577 14.0947 5.92926 15.6321 7.27211 16.6864C7.7065 17.0275 7.78217 17.6561 7.44111 18.0905C7.10006 18.5249 6.47143 18.6006 6.03704 18.2595C4.29516 16.8919 2.85801 14.9257 1.83066 12.5324C1.72225 12.2799 1.72256 11.9939 1.83149 11.7416C2.86857 9.33964 4.31389 7.36482 6.06419 5.98787C7.80873 4.60758 9.85389 3.83496 11.9996 3.83496C14.1602 3.83496 16.2045 4.62035 17.9565 6.00808C18.3894 6.35101 18.4624 6.97995 18.1194 7.41288C17.7765 7.8458 17.1476 7.91876 16.7147 7.57584C15.2726 6.43358 13.6569 5.83496 11.9996 5.83496Z" fill="#131313"/>
<path fill-rule="evenodd" clip-rule="evenodd" d="M18.8462 8.19232C19.2874 7.86018 19.9144 7.94862 20.2465 8.38987C20.9871 9.37377 21.6305 10.4988 22.1674 11.7403C22.2768 11.9934 22.2769 12.2804 22.1677 12.5336C20.1008 17.3218 16.3346 20.4393 11.9996 20.4393C11.0276 20.4393 10.0698 20.2815 9.15098 19.9748C8.6271 19.8 8.34415 19.2336 8.51899 18.7097C8.69383 18.1858 9.26025 17.9029 9.78413 18.0777C10.5013 18.3171 11.2455 18.4393 11.9996 18.4393C15.1769 18.4393 18.2667 16.2115 20.1541 12.1375C19.713 11.1863 19.2074 10.335 18.6486 9.59267C18.3165 9.15142 18.4049 8.52446 18.8462 8.19232Z" fill="#131313"/>
<path fill-rule="evenodd" clip-rule="evenodd" d="M20.5941 3.54289C20.9846 3.93342 20.9846 4.56658 20.5941 4.95711L4.82008 20.7311C4.42956 21.1216 3.79639 21.1216 3.40587 20.7311C3.01534 20.3406 3.01534 19.7074 3.40587 19.3169L19.1799 3.54289C19.5704 3.15237 20.2036 3.15237 20.5941 3.54289Z" fill="#131313"/>
</svg>
