<svg width="22" height="19" viewBox="0 0 22 19" fill="none" xmlns="http://www.w3.org/2000/svg">
<path d="M8.76057 11.3677C8.18557 10.7937 7.83557 10.0137 7.83557 9.13866C7.83557 7.38566 9.24757 5.97266 10.9996 5.97266C11.8666 5.97266 12.6646 6.32366 13.2296 6.89766" stroke="white" stroke-width="2" stroke-linecap="round" stroke-linejoin="round"/>
<path d="M14.1047 9.69922C13.8727 10.9892 12.8567 12.0072 11.5677 12.2412" stroke="white" stroke-width="2" stroke-linecap="round" stroke-linejoin="round"/>
<path d="M5.65457 14.473C4.06757 13.227 2.72357 11.407 1.74957 9.13796C2.73357 6.85896 4.08657 5.02896 5.68357 3.77296C7.27057 2.51696 9.10157 1.83496 10.9996 1.83496C12.9086 1.83496 14.7386 2.52696 16.3356 3.79196" stroke="white" stroke-width="2" stroke-linecap="round" stroke-linejoin="round"/>
<path d="M18.4476 5.99121C19.1356 6.90521 19.7406 7.96021 20.2496 9.13721C18.2826 13.6942 14.8066 16.4392 10.9996 16.4392C10.1366 16.4392 9.28559 16.2992 8.46759 16.0262" stroke="white" stroke-width="2" stroke-linecap="round" stroke-linejoin="round"/>
<path d="M18.887 1.25L3.11298 17.024" stroke="white" stroke-width="2" stroke-linecap="round" stroke-linejoin="round"/>
</svg>
