<svg width="18" height="18" viewBox="0 0 18 18" fill="none" xmlns="http://www.w3.org/2000/svg">
<g clip-path="url(#clip0_647_27215)">
<path d="M9 0C8.68174 -9.2923e-07 8.37651 0.126416 8.15145 0.351445L0.351445 8.15145C0.126416 8.37651 -9.2923e-07 8.68174 0 9L0 16.8C3.18202e-05 17.1182 0.12647 17.4235 0.351507 17.6485C0.576544 17.8735 0.88175 18 1.2 18H6.13998C6.45823 18 6.76344 17.8735 6.98847 17.6485C7.21351 17.4235 7.33995 17.1182 7.33998 16.8V12.8H10.66V16.8C10.6601 17.1182 10.7865 17.4235 11.0115 17.6485C11.2366 17.8735 11.5418 18 11.86 18H16.8C17.1182 18 17.4235 17.8735 17.6485 17.6485C17.8735 17.4235 18 17.1182 18 16.8V9C18 8.68174 17.8736 8.37651 17.6486 8.15145L9.84855 0.351445C9.62349 0.126416 9.31826 -9.2923e-07 9 0ZM9 2.89705L15.6 9.49705V15.6H13.06V11.6C13.06 11.2817 12.9335 10.9765 12.7085 10.7515C12.4835 10.5265 12.1783 10.4 11.86 10.4H6.13998C5.82173 10.4 5.51652 10.5265 5.29149 10.7515C5.06645 10.9765 4.94001 11.2817 4.93998 11.6V15.6H2.4V9.49705L9 2.89705Z" fill="#007AFF"/>
</g>
<defs>
<clipPath id="clip0_647_27215">
<rect width="18" height="18" fill="white"/>
</clipPath>
</defs>
</svg>
