<svg width="27" height="26" viewBox="0 0 27 26" fill="none" xmlns="http://www.w3.org/2000/svg">
<path d="M1.62731 5.93135L1.6273 5.93142C1.20705 8.19852 2.56625 10.3443 4.80046 11.0235V22.3746C4.80046 23.1287 5.43623 23.7367 6.21463 23.7367C6.99303 23.7367 7.6288 23.1287 7.6288 22.3746V21.1326H8.92838C9.11094 21.1326 9.25921 20.9933 9.25921 20.8121V19.7705C9.25921 19.5893 9.11094 19.4501 8.92838 19.4501H7.63421V19.0492H10.0117C10.1943 19.0492 10.3425 18.91 10.3425 18.7288V17.1663C10.3425 16.9851 10.1943 16.8459 10.0117 16.8459H7.63421V11.0182C9.55794 10.4308 10.8842 8.71108 10.8842 6.74964C10.8842 5.40264 10.2633 4.14071 9.18226 3.28591C8.10115 2.43108 6.68052 2.08861 5.28272 2.35213C3.42862 2.70025 1.96247 4.13512 1.62731 5.93135ZM7.21862 10.4674L7.21774 10.4676C7.0755 10.5049 6.96713 10.6305 6.96713 10.7757V17.1663V18.7288V19.7705V20.8121V22.3746C6.96713 22.7716 6.63331 23.0959 6.21463 23.0959C5.79594 23.0959 5.46213 22.7716 5.46213 22.3746V10.7809C5.46213 10.6332 5.36159 10.5047 5.20972 10.4724C3.16508 9.96368 1.90307 8.0609 2.27613 6.04703L2.27613 6.04698C2.55851 4.51524 3.81683 3.28342 5.40237 2.9857L5.40263 2.98565C5.66979 2.93427 5.93683 2.9086 6.20379 2.9086C7.13333 2.9086 8.0354 3.21166 8.75555 3.78613L8.75554 3.78613L8.75605 3.78653C9.68975 4.51502 10.2225 5.59669 10.2225 6.74964C10.2225 8.50183 8.99158 10.031 7.21862 10.4674ZM8.59755 20.0909V20.4917H7.63421V20.0909H8.59755ZM9.68088 17.4867V18.4084H7.63421V17.4867H9.68088Z" fill="black" stroke="black" stroke-width="0.12"/>
<path d="M6.21997 4.34625C4.84574 4.34625 3.72247 5.423 3.72247 6.75C3.72247 8.077 4.84574 9.15375 6.21997 9.15375C7.5942 9.15375 8.71747 8.077 8.71747 6.75C8.71747 5.423 7.5942 4.34625 6.21997 4.34625ZM6.21997 8.51292C5.20545 8.51292 4.38414 7.71987 4.38414 6.75C4.38414 5.78012 5.20545 4.98708 6.21997 4.98708C7.23449 4.98708 8.0558 5.78012 8.0558 6.75C8.0558 7.71987 7.23449 8.51292 6.21997 8.51292Z" fill="black" stroke="black" stroke-width="0.12"/>
</svg>
