<svg width="10" height="22" viewBox="0 0 10 22" fill="none" xmlns="http://www.w3.org/2000/svg">
<path d="M0.627313 3.93135L0.6273 3.93142C0.207046 6.19852 1.56625 8.34435 3.80046 9.02349V20.3746C3.80046 21.1287 4.43623 21.7367 5.21463 21.7367C5.99303 21.7367 6.6288 21.1287 6.6288 20.3746V19.1326H7.92838C8.11094 19.1326 8.25921 18.9933 8.25921 18.8121V17.7705C8.25921 17.5893 8.11094 17.4501 7.92838 17.4501H6.63421V17.0492H9.01171C9.19428 17.0492 9.34255 16.91 9.34255 16.7288V15.1663C9.34255 14.9851 9.19428 14.8459 9.01171 14.8459H6.63421V9.01823C8.55794 8.43079 9.88421 6.71108 9.88421 4.74964C9.88421 3.40264 9.26332 2.14071 8.18226 1.28591C7.10115 0.431076 5.68052 0.0886098 4.28272 0.352133C2.42862 0.700251 0.962469 2.13512 0.627313 3.93135ZM6.21862 8.46742L6.21774 8.46765C6.0755 8.50495 5.96713 8.63055 5.96713 8.77569V15.1663V16.7288V17.7705V18.8121V20.3746C5.96713 20.7716 5.63331 21.0959 5.21463 21.0959C4.79594 21.0959 4.46213 20.7716 4.46213 20.3746V8.78089C4.46213 8.63319 4.36159 8.50469 4.20972 8.47241C2.16508 7.96368 0.903073 6.0609 1.27613 4.04703L1.27613 4.04698C1.55851 2.51524 2.81683 1.28342 4.40237 0.985697L4.40263 0.985648C4.66979 0.934269 4.93683 0.908602 5.20379 0.908602C6.13333 0.908602 7.0354 1.21166 7.75555 1.78613L7.75554 1.78613L7.75605 1.78653C8.68975 2.51502 9.22255 3.59669 9.22255 4.74964C9.22255 6.50183 7.99158 8.03096 6.21862 8.46742ZM7.59755 18.0909V18.4917H6.63421V18.0909H7.59755ZM8.68088 15.4867V16.4084H6.63421V15.4867H8.68088Z" fill="black" stroke="black" stroke-width="0.12"/>
</svg>
