<svg width="45" height="45" viewBox="0 0 45 45" fill="none" xmlns="http://www.w3.org/2000/svg">
<path d="M20.25 33.75H24.75V24.75H33.75V20.25H24.75V11.25H20.25V20.25H11.25V24.75H20.25V33.75ZM22.5 45C19.3875 45 16.4625 44.4188 13.725 43.2563C10.9875 42.0563 8.60625 40.4437 6.58125 38.4187C4.55625 36.3937 2.94375 34.0125 1.74375 31.275C0.58125 28.5375 0 25.6125 0 22.5C0 19.3875 0.58125 16.4625 1.74375 13.725C2.94375 10.9875 4.55625 8.60625 6.58125 6.58125C8.60625 4.55625 10.9875 2.9625 13.725 1.8C16.4625 0.599999 19.3875 0 22.5 0C25.6125 0 28.5375 0.599999 31.275 1.8C34.0125 2.9625 36.3938 4.55625 38.4188 6.58125C40.4438 8.60625 42.0375 10.9875 43.2 13.725C44.4 16.4625 45 19.3875 45 22.5C45 25.6125 44.4 28.5375 43.2 31.275C42.0375 34.0125 40.4438 36.3937 38.4188 38.4187C36.3938 40.4437 34.0125 42.0563 31.275 43.2563C28.5375 44.4188 25.6125 45 22.5 45ZM22.5 40.5C27.525 40.5 31.7813 38.7562 35.2688 35.2687C38.7563 31.7812 40.5 27.525 40.5 22.5C40.5 17.475 38.7563 13.2188 35.2688 9.73125C31.7813 6.24375 27.525 4.5 22.5 4.5C17.475 4.5 13.2188 6.24375 9.73125 9.73125C6.24375 13.2188 4.5 17.475 4.5 22.5C4.5 27.525 6.24375 31.7812 9.73125 35.2687C13.2188 38.7562 17.475 40.5 22.5 40.5Z" fill="white"/>
</svg>
