<svg width="33" height="32" viewBox="0 0 33 32" fill="none" xmlns="http://www.w3.org/2000/svg">
<path d="M15.76 29.1091C15.9791 29.2553 16.2366 29.3333 16.5 29.3333C16.7634 29.3333 17.0209 29.2553 17.24 29.1091L29.24 21.1091C29.3911 21.0088 29.5202 20.8786 29.6191 20.7265C29.7181 20.5745 29.7849 20.4038 29.8155 20.225C29.8461 20.0462 29.8398 19.863 29.797 19.6867C29.7542 19.5104 29.6758 19.3447 29.5667 19.1998L17.5667 3.1998C17.064 2.5278 15.936 2.5278 15.4333 3.1998L3.43333 19.1998C3.32453 19.3448 3.24645 19.5105 3.20386 19.6868C3.16128 19.863 3.15509 20.0461 3.18566 20.2248C3.21624 20.4035 3.28294 20.5741 3.38169 20.7262C3.48044 20.8782 3.60917 21.0085 3.76 21.1091L15.76 29.1091ZM17.8333 25.5078V7.9998L26.5867 19.6718L17.8333 25.5078ZM15.1667 7.9998V25.5078L6.41333 19.6718L15.1667 7.9998Z" fill="white"/>
</svg>
