<svg width="48" height="48" viewBox="0 0 48 48" fill="none" xmlns="http://www.w3.org/2000/svg">
<path d="M22.8899 43.6639C23.2186 43.8832 23.6048 44.0002 23.9999 44.0002C24.395 44.0002 24.7812 43.8832 25.1099 43.6639L43.1099 31.6639C43.3366 31.5134 43.5301 31.3181 43.6786 31.09C43.8271 30.862 43.9273 30.606 43.9732 30.3377C44.0191 30.0695 44.0097 29.7947 43.9455 29.5303C43.8813 29.2658 43.7637 29.0173 43.5999 28.7999L25.5999 4.79995C24.8459 3.79195 23.1539 3.79195 22.3999 4.79995L4.39991 28.7999C4.2367 29.0175 4.11958 29.266 4.0557 29.5304C3.99183 29.7948 3.98254 30.0694 4.0284 30.3374C4.07426 30.6055 4.17432 30.8614 4.32244 31.0895C4.47057 31.3176 4.66366 31.513 4.88991 31.6639L22.8899 43.6639ZM39.1299 29.5079L23.9999 39.5959V9.33394L39.1299 29.5079Z" fill="#007AFF"/>
</svg>
