<svg width="32" height="32" viewBox="0 0 32 32" fill="none" xmlns="http://www.w3.org/2000/svg">
<path d="M15.2599 29.1096C15.479 29.2558 15.7365 29.3338 15.9999 29.3338C16.2633 29.3338 16.5208 29.2558 16.7399 29.1096L28.7399 21.1096C28.8911 21.0093 29.0201 20.8791 29.1191 20.727C29.218 20.575 29.2849 20.4043 29.3155 20.2255C29.3461 20.0467 29.3398 19.8635 29.297 19.6872C29.2542 19.5109 29.1758 19.3452 29.0666 19.2003L17.0666 3.20029C16.5639 2.52829 15.4359 2.52829 14.9333 3.20029L2.93327 19.2003C2.82447 19.3453 2.74639 19.511 2.7038 19.6873C2.66122 19.8635 2.65502 20.0466 2.6856 20.2253C2.71618 20.404 2.78288 20.5746 2.88163 20.7266C2.98038 20.8787 3.10911 21.009 3.25994 21.1096L15.2599 29.1096ZM26.0866 19.6723L15.9999 26.3976V6.22296L26.0866 19.6723Z" fill="#007AFF"/>
</svg>
