<svg width="48" height="48" viewBox="0 0 48 48" fill="none" xmlns="http://www.w3.org/2000/svg">
<path d="M22.8901 43.6639C23.2188 43.8832 23.6051 44.0002 24.0001 44.0002C24.3952 44.0002 24.7815 43.8832 25.1101 43.6639L43.1101 31.6639C43.3369 31.5134 43.5304 31.3181 43.6788 31.09C43.8273 30.862 43.9276 30.606 43.9735 30.3377C44.0193 30.0695 44.0099 29.7947 43.9457 29.5303C43.8815 29.2658 43.7639 29.0173 43.6001 28.7999L25.6001 4.79995C24.8461 3.79195 23.1541 3.79195 22.4001 4.79995L4.40015 28.7999C4.23695 29.0175 4.11982 29.266 4.05595 29.5304C3.99207 29.7948 3.98278 30.0694 4.02864 30.3374C4.07451 30.6055 4.17456 30.8614 4.32269 31.0895C4.47082 31.3176 4.6639 31.513 4.89015 31.6639L22.8901 43.6639ZM39.1301 29.5079L24.0001 39.5959V9.33394L39.1301 29.5079Z" fill="#131313"/>
</svg>
