<svg width="33" height="32" viewBox="0 0 33 32" fill="none" xmlns="http://www.w3.org/2000/svg">
<path d="M28.5001 4H19.1667C18.1795 4.00334 17.2289 4.37409 16.5001 5.04C15.7713 4.37409 14.8206 4.00334 13.8334 4H4.50008C4.14646 4 3.80732 4.14048 3.55727 4.39052C3.30722 4.64057 3.16675 4.97971 3.16675 5.33333V25.3333C3.16675 25.687 3.30722 26.0261 3.55727 26.2761C3.80732 26.5262 4.14646 26.6667 4.50008 26.6667H12.1774C12.8787 26.6667 13.5667 26.952 14.0627 27.448L15.5574 28.9427C15.5694 28.9547 15.5854 28.9587 15.5974 28.9707C15.7121 29.076 15.8401 29.1693 15.9894 29.232H15.9921C16.3174 29.3667 16.6828 29.3667 17.0081 29.232H17.0107C17.1601 29.1693 17.2881 29.076 17.4027 28.9707C17.4147 28.9587 17.4307 28.9547 17.4427 28.9427L18.9374 27.448C19.4386 26.9497 20.116 26.669 20.8227 26.6667H28.5001C28.8537 26.6667 29.1928 26.5262 29.4429 26.2761C29.6929 26.0261 29.8334 25.687 29.8334 25.3333V5.33333C29.8334 4.97971 29.6929 4.64057 29.4429 4.39052C29.1928 4.14048 28.8537 4 28.5001 4ZM12.1774 24H5.83341V6.66667H13.8334C14.5694 6.66667 15.1667 7.26533 15.1667 8V24.9187C14.2834 24.323 13.2429 24.0032 12.1774 24ZM27.1667 24H20.8227C19.7574 24 18.7107 24.328 17.8334 24.9187V8C17.8334 7.26533 18.4307 6.66667 19.1667 6.66667H27.1667V24Z" fill="white"/>
</svg>
