<svg width="32" height="32" viewBox="0 0 32 32" fill="none" xmlns="http://www.w3.org/2000/svg">
<path d="M28 4H18.6667C17.6795 4.00334 16.7288 4.37409 16 5.04C15.2712 4.37409 14.3206 4.00334 13.3334 4H4.00002C3.6464 4 3.30726 4.14048 3.05721 4.39052C2.80716 4.64057 2.66669 4.97971 2.66669 5.33333V25.3333C2.66669 25.687 2.80716 26.0261 3.05721 26.2761C3.30726 26.5262 3.6464 26.6667 4.00002 26.6667H11.6774C12.3842 26.6683 13.0619 26.9491 13.5627 27.448L15.0574 28.9427C15.0694 28.9547 15.0854 28.9587 15.0974 28.9707C15.212 29.0773 15.34 29.1707 15.4894 29.232H15.492C15.8173 29.3667 16.1827 29.3667 16.508 29.232H16.5107C16.66 29.1707 16.788 29.076 16.9027 28.9707C16.9147 28.9587 16.9307 28.9547 16.9427 28.9427L18.4374 27.448C18.9382 26.9491 19.6158 26.6683 20.3227 26.6667H28C28.3536 26.6667 28.6928 26.5262 28.9428 26.2761C29.1929 26.0261 29.3334 25.687 29.3334 25.3333V5.33333C29.3334 4.97971 29.1929 4.64057 28.9428 4.39052C28.6928 4.14048 28.3536 4 28 4ZM26.6667 24H20.3227C19.2572 24.0031 18.2167 24.3228 17.3334 24.9187V8C17.3334 7.26533 17.9307 6.66667 18.6667 6.66667H26.6667V24Z" fill="white"/>
</svg>
