<svg width="22" height="22" viewBox="0 0 22 22" fill="none" xmlns="http://www.w3.org/2000/svg">
<path fill-rule="evenodd" clip-rule="evenodd" d="M10.7666 2.77832C6.35468 2.77832 2.77808 6.35492 2.77808 10.7669C2.77808 15.1788 6.35468 18.7554 10.7666 18.7554C15.1786 18.7554 18.7552 15.1788 18.7552 10.7669C18.7552 6.35492 15.1786 2.77832 10.7666 2.77832ZM0.778076 10.7669C0.778076 5.25035 5.25011 0.77832 10.7666 0.77832C16.2832 0.77832 20.7552 5.25035 20.7552 10.7669C20.7552 16.2834 16.2832 20.7554 10.7666 20.7554C5.25011 20.7554 0.778076 16.2834 0.778076 10.7669Z" fill="white"/>
<path fill-rule="evenodd" clip-rule="evenodd" d="M16.3103 16.7792C16.7003 16.3881 17.3335 16.3873 17.7245 16.7773L21.2485 20.2922C21.6396 20.6822 21.6404 21.3154 21.2504 21.7064C20.8603 22.0974 20.2272 22.0983 19.8362 21.7083L16.3121 18.1934C15.9211 17.8034 15.9203 17.1702 16.3103 16.7792Z" fill="white"/>
</svg>
