<svg width="24" height="24" viewBox="0 0 24 24" fill="none" xmlns="http://www.w3.org/2000/svg">
<path fill-rule="evenodd" clip-rule="evenodd" d="M11.998 19.355C12.5054 19.355 13.007 19.3064 13.5 19.2113C14.0103 19.1129 14.5113 18.9648 15 18.7693C15.4527 18.5882 15.8948 18.3664 16.3239 18.1059C16.5447 17.9718 16.762 17.8274 16.9756 17.6731C17.1531 17.5448 17.328 17.4095 17.5 17.2675C17.921 16.9201 18.325 16.5321 18.7093 16.1059C18.949 15.84 19.181 15.5592 19.4046 15.264C19.5651 15.052 19.7214 14.8325 19.8731 14.6059C20.034 14.3653 20.1898 14.1166 20.3401 13.86C20.4833 13.6157 20.6214 13.3643 20.7543 13.1059C20.9288 12.7667 21.0942 12.4156 21.25 12.053C21.0942 11.6903 20.9288 11.3392 20.7543 11.0001C20.6214 10.7417 20.4833 10.4902 20.3401 10.2459C20.1898 9.98933 20.034 9.74064 19.8731 9.50008C19.6884 9.22417 19.497 8.95896 19.2993 8.70482C19.1084 8.45949 18.9116 8.22448 18.7093 8.00008C18.4797 7.74541 18.2431 7.50441 18 7.27757C17.8362 7.12471 17.6695 6.97828 17.5 6.83841C17.2937 6.66813 17.0833 6.50757 16.8692 6.35701C16.6899 6.23098 16.5081 6.11196 16.3239 6.00008C16.0958 5.86159 15.864 5.73406 15.629 5.61776C15.4218 5.51528 15.2121 5.42152 15 5.33668C14.7357 5.23095 14.4678 5.13907 14.1968 5.06142C13.9667 4.99549 13.7343 4.93982 13.5 4.89464C13.2427 4.84503 12.983 4.80806 12.7214 4.78406C12.4818 4.76208 12.2405 4.75098 11.998 4.75098H12.002C11.7595 4.75098 11.5182 4.76208 11.2786 4.78406C11.017 4.80806 10.7573 4.84503 10.5 4.89464C9.98974 4.99303 9.48869 5.14117 9 5.33668C8.60304 5.49549 8.21423 5.68555 7.83525 5.90559C7.37464 6.17302 6.92854 6.48473 6.5 6.83841C6.15475 7.12335 5.82089 7.43553 5.5 7.77375C5.14233 8.15073 4.80077 8.56006 4.47751 9.00008C4.2265 9.34175 3.98652 9.70192 3.7586 10.0798C3.58006 10.3758 3.40893 10.6827 3.24568 11.0001C3.07125 11.3392 2.90582 11.6903 2.75 12.053C2.90582 12.4156 3.07125 12.7667 3.24568 13.1059C3.40893 13.4233 3.58006 13.7301 3.7586 14.0261C3.98652 14.404 4.2265 14.7642 4.47751 15.1059C4.73715 15.4593 5.00859 15.7929 5.29071 16.1059C5.67496 16.5321 6.07902 16.9201 6.5 17.2675C6.87902 17.5803 7.27176 17.8603 7.67614 18.1059C8.10516 18.3664 8.54728 18.5882 9 18.7693C9.48869 18.9648 9.98974 19.1129 10.5 19.2113C10.993 19.3064 11.4946 19.355 12.002 19.355H11.998Z" stroke="#131313" stroke-width="2" stroke-linecap="round" stroke-linejoin="round"/>
<path fill-rule="evenodd" clip-rule="evenodd" d="M11.9994 9.8916C10.8059 9.8916 9.83838 10.8587 9.83838 12.0536C9.83838 13.2473 10.8057 14.2146 11.9994 14.2146C13.1935 14.2146 14.1614 13.2469 14.1614 12.0536C14.1614 10.8591 13.1933 9.8916 11.9994 9.8916ZM7.83838 12.0536C7.83838 9.75452 9.70089 7.8916 11.9994 7.8916C14.2975 7.8916 16.1614 9.75411 16.1614 12.0536C16.1614 14.3523 14.2973 16.2146 11.9994 16.2146C9.70109 16.2146 7.83838 14.3519 7.83838 12.0536Z" fill="#131313"/>
</svg>
