<svg width="22" height="18" viewBox="0 0 22 18" fill="none" xmlns="http://www.w3.org/2000/svg">
<path fill-rule="evenodd" clip-rule="evenodd" d="M10.998 16.355C11.5054 16.355 12.007 16.3064 12.5 16.2113C13.0103 16.1129 13.5113 15.9648 14 15.7693C14.4527 15.5882 14.8948 15.3664 15.3239 15.1059C15.5447 14.9718 15.762 14.8274 15.9756 14.6731C16.1531 14.5448 16.328 14.4095 16.5 14.2675C16.921 13.9201 17.325 13.5321 17.7093 13.1059C17.949 12.84 18.181 12.5592 18.4046 12.264C18.5651 12.052 18.7214 11.8325 18.8731 11.6059C19.034 11.3653 19.1898 11.1166 19.3401 10.86C19.4833 10.6157 19.6214 10.3643 19.7543 10.1059C19.9288 9.76674 20.0942 9.41563 20.25 9.05298C20.0942 8.69033 19.9288 8.33921 19.7543 8.00008C19.6214 7.74167 19.4833 7.49022 19.3401 7.24593C19.1898 6.98933 19.034 6.74064 18.8731 6.50008C18.6884 6.22417 18.497 5.95896 18.2993 5.70482C18.1084 5.45949 17.9116 5.22448 17.7093 5.00008C17.4797 4.74541 17.2431 4.50441 17 4.27757C16.8362 4.12471 16.6695 3.97828 16.5 3.83841C16.2937 3.66813 16.0833 3.50757 15.8692 3.35701C15.6899 3.23098 15.5081 3.11196 15.3239 3.00008C15.0958 2.86159 14.864 2.73406 14.629 2.61776C14.4218 2.51528 14.2121 2.42152 14 2.33668C13.7357 2.23095 13.4678 2.13907 13.1968 2.06142C12.9667 1.99549 12.7343 1.93982 12.5 1.89464C12.2427 1.84503 11.983 1.80806 11.7214 1.78406C11.4818 1.76208 11.2405 1.75098 10.998 1.75098H11.002C10.7595 1.75098 10.5182 1.76208 10.2786 1.78406C10.017 1.80806 9.75734 1.84503 9.5 1.89464C8.98974 1.99303 8.48869 2.14117 8 2.33668C7.60304 2.49549 7.21423 2.68555 6.83525 2.90559C6.37464 3.17302 5.92854 3.48473 5.5 3.83841C5.15475 4.12335 4.82089 4.43553 4.5 4.77375C4.14233 5.15073 3.80077 5.56006 3.47751 6.00008C3.2265 6.34175 2.98652 6.70192 2.7586 7.07981C2.58006 7.37582 2.40893 7.6827 2.24568 8.00008C2.07125 8.33921 1.90582 8.69033 1.75 9.05298C1.90582 9.41562 2.07125 9.76674 2.24568 10.1059C2.40893 10.4233 2.58006 10.7301 2.7586 11.0261C2.98652 11.404 3.2265 11.7642 3.47751 12.1059C3.73715 12.4593 4.00859 12.7929 4.29071 13.1059C4.67496 13.5321 5.07902 13.9201 5.5 14.2675C5.87902 14.5803 6.27176 14.8603 6.67614 15.1059C7.10516 15.3664 7.54728 15.5882 8 15.7693C8.48869 15.9648 8.98974 16.1129 9.5 16.2113C9.99301 16.3064 10.4946 16.355 11.002 16.355H10.998Z" stroke="#131313" stroke-width="2" stroke-linecap="round" stroke-linejoin="round"/>
<path fill-rule="evenodd" clip-rule="evenodd" d="M10.9994 6.8916C9.80587 6.8916 8.83838 7.85868 8.83838 9.0536C8.83838 10.2473 9.80566 11.2146 10.9994 11.2146C12.1935 11.2146 13.1614 10.2469 13.1614 9.0536C13.1614 7.85909 12.1933 6.8916 10.9994 6.8916ZM6.83838 9.0536C6.83838 6.75452 8.70089 4.8916 10.9994 4.8916C13.2975 4.8916 15.1614 6.75411 15.1614 9.0536C15.1614 11.3523 13.2973 13.2146 10.9994 13.2146C8.70109 13.2146 6.83838 11.3519 6.83838 9.0536Z" fill="#131313"/>
</svg>
