<svg width="24" height="22" viewBox="0 0 24 22" fill="none" xmlns="http://www.w3.org/2000/svg">
<path fill-rule="evenodd" clip-rule="evenodd" d="M12 2C7.02944 2 3 6.02944 3 11C3 15.9706 7.02944 20 12 20C16.9706 20 21 15.9706 21 11C21 6.02944 16.9706 2 12 2ZM1 11C1 4.92487 5.92487 0 12 0C18.0751 0 23 4.92487 23 11C23 17.0751 18.0751 22 12 22C5.92487 22 1 17.0751 1 11Z" fill="white"/>
<path fill-rule="evenodd" clip-rule="evenodd" d="M16.267 7.91985C16.6576 8.31037 16.6576 8.94354 16.267 9.33406L11.521 14.0801C11.1306 14.4705 10.4975 14.4706 10.107 14.0802L7.73298 11.7072C7.34238 11.3168 7.34224 10.6836 7.73269 10.293C8.12313 9.90239 8.75629 9.90226 9.1469 10.2927L10.8138 11.9589L14.8528 7.91985C15.2434 7.52932 15.8765 7.52932 16.267 7.91985Z" fill="white"/>
</svg>
