<svg width="30" height="22" viewBox="0 0 30 22" fill="none" xmlns="http://www.w3.org/2000/svg">
<path fill-rule="evenodd" clip-rule="evenodd" d="M15.005 0C8.94265 0 4 4.93565 4 10.997C4 17.0583 8.94365 22 15.005 22C21.0663 22 26 17.0583 26 10.997C26 4.93565 21.0663 0 15.005 0ZM15.005 1.99945C16.187 1.99748 17.3578 2.22887 18.4502 2.68037C19.5427 3.13186 20.5352 3.79457 21.3709 4.63049C22.2067 5.46641 22.8691 6.45909 23.3204 7.5516C23.7716 8.64412 24.0028 9.81497 24.0005 10.997C24.0029 12.1794 23.7719 13.3506 23.3208 14.4435C22.8696 15.5364 22.2073 16.5295 21.3716 17.3659C20.5359 18.2023 19.5434 18.8656 18.4509 19.3177C17.3583 19.7698 16.1874 20.0019 15.005 20.0005C13.8221 20.002 12.6506 19.7701 11.5575 19.3182C10.4644 18.8662 9.4711 18.2031 8.6346 17.3668C7.79809 16.5305 7.13476 15.5374 6.68259 14.4444C6.23041 13.3513 5.99827 12.1799 5.99945 10.997C5.99945 6.01636 10.0244 1.99945 15.005 1.99945ZM14.989 3.98491C14.8569 3.98621 14.7263 4.01369 14.6048 4.06576C14.4834 4.11784 14.3735 4.19348 14.2814 4.28831C14.1894 4.38313 14.1171 4.49527 14.0686 4.61822C14.0202 4.74118 13.9966 4.87251 13.9993 5.00463V10.997C13.9998 11.1286 14.0263 11.2587 14.0773 11.38C14.1282 11.5013 14.2026 11.6113 14.2962 11.7038L18.2951 15.7047C18.3876 15.7999 18.4981 15.8757 18.6202 15.9277C18.7423 15.9798 18.8736 16.0069 19.0063 16.0077C19.139 16.0085 19.2706 15.9828 19.3933 15.9322C19.516 15.8816 19.6274 15.807 19.721 15.7129C19.8146 15.6188 19.8885 15.507 19.9384 15.384C19.9883 15.261 20.0132 15.1293 20.0117 14.9966C20.0102 14.8639 19.9823 14.7328 19.9296 14.611C19.8769 14.4892 19.8004 14.3791 19.7047 14.2871L16.0007 10.5831V5.00463C16.0034 4.87066 15.9791 4.73751 15.9294 4.6131C15.8796 4.4887 15.8053 4.37557 15.7109 4.28044C15.6165 4.18531 15.504 4.11013 15.38 4.05937C15.2559 4.0086 15.123 3.98328 14.989 3.98491Z" fill="white"/>
</svg>
