<svg width="92" height="92" viewBox="0 0 92 92" fill="none" xmlns="http://www.w3.org/2000/svg">
<path fill-rule="evenodd" clip-rule="evenodd" d="M35.0714 20.4667H11.6071C10.1732 20.4667 9 21.5269 9 22.8333C9 24.1397 10.1732 25.2 11.6071 25.2H16.9257L19.22 75.1958C19.4025 78.9991 22.8439 82 27.0414 82H63.9585C68.156 82 71.5974 78.9991 71.7799 75.1958L74.0742 25.2H79.3929C80.8268 25.2 82 24.1397 82 22.8333C82 21.5269 80.8268 20.4667 79.3929 20.4667H55.9286V18.1C55.9286 16.2173 55.1073 14.4115 53.6343 13.0791C52.1743 11.7479 50.1798 11 48.1071 11C46.4255 11 44.5745 11 42.8929 11C40.8202 11 38.8257 11.7479 37.3657 13.0791C35.8927 14.4115 35.0714 16.2173 35.0714 18.1V20.4667ZM22.153 25.2L24.4342 74.9982C24.4864 76.2656 25.6466 77.2667 27.0414 77.2667H63.9585C65.3663 77.2667 66.5135 76.2656 66.5656 74.9982L68.8469 25.2H22.153ZM55.9286 34.6667V65.4333C55.9286 66.7397 57.1018 67.8 58.5357 67.8C59.9696 67.8 61.1429 66.7397 61.1429 65.4333V34.6667C61.1429 33.3603 59.9696 32.3 58.5357 32.3C57.1018 32.3 55.9286 33.3603 55.9286 34.6667ZM29.8571 34.6667V65.4333C29.8571 66.7397 31.0304 67.8 32.4643 67.8C33.8982 67.8 35.0714 66.7397 35.0714 65.4333V34.6667C35.0714 33.3603 33.8982 32.3 32.4643 32.3C31.0304 32.3 29.8571 33.3603 29.8571 34.6667ZM42.8929 34.6667V65.4333C42.8929 66.7397 44.0661 67.8 45.5 67.8C46.9339 67.8 48.1071 66.7397 48.1071 65.4333V34.6667C48.1071 33.3603 46.9339 32.3 45.5 32.3C44.0661 32.3 42.8929 33.3603 42.8929 34.6667ZM50.7143 20.4667H40.2857V18.1C40.2857 17.4728 40.5594 16.8705 41.0548 16.4268C41.5371 15.983 42.202 15.7333 42.8929 15.7333H48.1071C48.798 15.7333 49.4629 15.983 49.9452 16.4268C50.4406 16.8705 50.7143 17.4728 50.7143 18.1V20.4667Z" fill="#4C4C4C"/>
</svg>
