<svg width="32" height="32" viewBox="0 0 32 32" fill="none" xmlns="http://www.w3.org/2000/svg">
<path d="M3.99992 25.3671C3.26659 25.3671 2.63903 25.1062 2.11725 24.5845C1.59547 24.0627 1.33414 23.4347 1.33325 22.7005V20.0338C1.33325 19.656 1.46125 19.3396 1.71725 19.0845C1.97325 18.8293 2.2897 18.7013 2.66659 18.7005C3.04347 18.6996 3.36036 18.8276 3.61725 19.0845C3.87414 19.3413 4.0017 19.6578 3.99992 20.0338V22.7005H27.9999V20.0338C27.9999 19.656 28.1279 19.3391 28.3839 19.0831C28.6399 18.8271 28.9564 18.6996 29.3333 18.7005C29.7101 18.7013 30.027 18.8293 30.2839 19.0845C30.5408 19.3396 30.6684 19.656 30.6666 20.0338V22.7005C30.6666 23.4338 30.4057 24.0618 29.8839 24.5845C29.3621 25.1071 28.7341 25.368 27.9999 25.3671H3.99992ZM9.79992 20.3005C8.71103 20.3005 7.85547 20.0173 7.23325 19.4511C6.61103 18.8849 6.29992 18.1125 6.29992 17.1338C6.29992 16.2005 6.66125 15.4396 7.38392 14.8511C8.10659 14.2627 9.03414 13.968 10.1666 13.9671C10.6777 13.9671 11.1501 14.0062 11.5839 14.0845C12.0177 14.1627 12.3897 14.2902 12.6999 14.4671V14.0005C12.6999 13.4005 12.4946 12.9227 12.0839 12.5671C11.6733 12.2116 11.1119 12.0338 10.3999 12.0338C10.0666 12.0338 9.75014 12.084 9.45059 12.1845C9.15103 12.2849 8.87859 12.4236 8.63325 12.6005C8.43325 12.756 8.21681 12.8449 7.98392 12.8671C7.75103 12.8893 7.53414 12.8227 7.33325 12.6671C7.13236 12.5116 7.01014 12.3173 6.96659 12.0845C6.92303 11.8516 6.9897 11.6458 7.16659 11.4671C7.56659 11.0893 8.03903 10.8005 8.58392 10.6005C9.12881 10.4005 9.74525 10.3005 10.4333 10.3005C11.811 10.3005 12.8666 10.6285 13.5999 11.2845C14.3333 11.9405 14.6999 12.8902 14.6999 14.1338V19.0338C14.6999 19.3005 14.6053 19.5285 14.4159 19.7178C14.2266 19.9071 13.999 20.0013 13.7333 20.0005C13.4444 20.0005 13.2057 19.9058 13.0173 19.7165C12.8288 19.5271 12.7341 19.2885 12.7333 19.0005V18.8671H12.6333C12.3444 19.3116 11.9555 19.6618 11.4666 19.9178C10.9777 20.1738 10.4221 20.3013 9.79992 20.3005ZM10.5333 15.5338C9.82214 15.5338 9.2777 15.6729 8.89992 15.9511C8.52214 16.2293 8.33325 16.6236 8.33325 17.1338C8.33325 17.5782 8.49992 17.9396 8.83325 18.2178C9.16659 18.496 9.59992 18.6347 10.1333 18.6338C10.8444 18.6338 11.4501 18.384 11.9506 17.8845C12.451 17.3849 12.7008 16.7791 12.6999 16.0671C12.3888 15.8893 12.0333 15.756 11.6333 15.6671C11.2333 15.5782 10.8666 15.5338 10.5333 15.5338ZM21.7666 20.3005C20.8555 20.3005 20.1613 20.1005 19.6839 19.7005C19.2066 19.3005 18.9008 18.9893 18.7666 18.7671H18.6666V19.2005C18.6666 19.4671 18.5724 19.6951 18.3839 19.8845C18.1955 20.0738 17.9675 20.168 17.6999 20.1671C17.4324 20.1662 17.199 20.0662 16.9999 19.8671C16.8008 19.668 16.7008 19.4347 16.6999 19.1671V7.66712C16.6999 7.37823 16.7999 7.13379 16.9999 6.93379C17.1999 6.73379 17.4444 6.63379 17.7333 6.63379C18.0221 6.63379 18.2666 6.73379 18.4666 6.93379C18.6666 7.13379 18.7666 7.37823 18.7666 7.66712V10.4005L18.6666 11.7338H18.7666C18.8333 11.6227 19.0999 11.3391 19.5666 10.8831C20.0333 10.4271 20.7666 10.1996 21.7666 10.2005C23.1888 10.2005 24.311 10.7116 25.1333 11.7338C25.9555 12.756 26.3666 13.9338 26.3666 15.2671C26.3666 16.6005 25.9613 17.7729 25.1506 18.7845C24.3399 19.796 23.2119 20.3013 21.7666 20.3005ZM21.4666 12.0671C20.5777 12.0671 19.8888 12.3951 19.3999 13.0511C18.911 13.7071 18.6666 14.4347 18.6666 15.2338C18.6666 16.056 18.911 16.7893 19.3999 17.4338C19.8888 18.0782 20.5777 18.4005 21.4666 18.4005C22.3555 18.4005 23.0501 18.0782 23.5506 17.4338C24.051 16.7893 24.3008 16.056 24.2999 15.2338C24.299 14.4116 24.0493 13.6782 23.5506 13.0338C23.0519 12.3893 22.3573 12.0671 21.4666 12.0671Z" fill="black"/>
</svg>
