<svg width="48" height="48" viewBox="0 0 48 48" fill="none" xmlns="http://www.w3.org/2000/svg">
<path d="M6 38.0502C4.9 38.0502 3.95867 37.6589 3.176 36.8762C2.39333 36.0935 2.00133 35.1515 2 34.0502V30.0502C2 29.4835 2.192 29.0089 2.576 28.6262C2.96 28.2435 3.43467 28.0515 4 28.0502C4.56533 28.0489 5.04067 28.2409 5.426 28.6262C5.81133 29.0115 6.00267 29.4862 6 30.0502V34.0502H42V30.0502C42 29.4835 42.192 29.0082 42.576 28.6242C42.96 28.2402 43.4347 28.0489 44 28.0502C44.5653 28.0515 45.0407 28.2435 45.426 28.6262C45.8113 29.0089 46.0027 29.4835 46 30.0502V34.0502C46 35.1502 45.6087 36.0922 44.826 36.8762C44.0433 37.6602 43.1013 38.0515 42 38.0502H6ZM14.7 30.4502C13.0667 30.4502 11.7833 30.0255 10.85 29.1762C9.91667 28.3269 9.45 27.1682 9.45 25.7002C9.45 24.3002 9.992 23.1589 11.076 22.2762C12.16 21.3935 13.5513 20.9515 15.25 20.9502C16.0167 20.9502 16.7253 21.0089 17.376 21.1262C18.0267 21.2435 18.5847 21.4349 19.05 21.7002V21.0002C19.05 20.1002 18.742 19.3835 18.126 18.8502C17.51 18.3169 16.668 18.0502 15.6 18.0502C15.1 18.0502 14.6253 18.1255 14.176 18.2762C13.7267 18.4269 13.318 18.6349 12.95 18.9002C12.65 19.1335 12.3253 19.2669 11.976 19.3002C11.6267 19.3335 11.3013 19.2335 11 19.0002C10.6987 18.7669 10.5153 18.4755 10.45 18.1262C10.3847 17.7769 10.4847 17.4682 10.75 17.2002C11.35 16.6335 12.0587 16.2002 12.876 15.9002C13.6933 15.6002 14.618 15.4502 15.65 15.4502C17.7167 15.4502 19.3 15.9422 20.4 16.9262C21.5 17.9102 22.05 19.3349 22.05 21.2002V28.5502C22.05 28.9502 21.908 29.2922 21.624 29.5762C21.34 29.8602 20.9987 30.0015 20.6 30.0002C20.1667 30.0002 19.8087 29.8582 19.526 29.5742C19.2433 29.2902 19.1013 28.9322 19.1 28.5002V28.3002H18.95C18.5167 28.9669 17.9333 29.4922 17.2 29.8762C16.4667 30.2602 15.6333 30.4515 14.7 30.4502ZM15.8 23.3002C14.7333 23.3002 13.9167 23.5089 13.35 23.9262C12.7833 24.3435 12.5 24.9349 12.5 25.7002C12.5 26.3669 12.75 26.9089 13.25 27.3262C13.75 27.7435 14.4 27.9515 15.2 27.9502C16.2667 27.9502 17.1753 27.5755 17.926 26.8262C18.6767 26.0769 19.0513 25.1682 19.05 24.1002C18.5833 23.8335 18.05 23.6335 17.45 23.5002C16.85 23.3669 16.3 23.3002 15.8 23.3002ZM32.65 30.4502C31.2833 30.4502 30.242 30.1502 29.526 29.5502C28.81 28.9502 28.3513 28.4835 28.15 28.1502H28V28.8002C28 29.2002 27.8587 29.5422 27.576 29.8262C27.2933 30.1102 26.9513 30.2515 26.55 30.2502C26.1487 30.2489 25.7987 30.0989 25.5 29.8002C25.2013 29.5015 25.0513 29.1515 25.05 28.7502V11.5002C25.05 11.0669 25.2 10.7002 25.5 10.4002C25.8 10.1002 26.1667 9.9502 26.6 9.9502C27.0333 9.9502 27.4 10.1002 27.7 10.4002C28 10.7002 28.15 11.0669 28.15 11.5002V15.6002L28 17.6002H28.15C28.25 17.4335 28.65 17.0082 29.35 16.3242C30.05 15.6402 31.15 15.2989 32.65 15.3002C34.7833 15.3002 36.4667 16.0669 37.7 17.6002C38.9333 19.1335 39.55 20.9002 39.55 22.9002C39.55 24.9002 38.942 26.6589 37.726 28.1762C36.51 29.6935 34.818 30.4515 32.65 30.4502ZM32.2 18.1002C30.8667 18.1002 29.8333 18.5922 29.1 19.5762C28.3667 20.5602 28 21.6515 28 22.8502C28 24.0835 28.3667 25.1835 29.1 26.1502C29.8333 27.1169 30.8667 27.6002 32.2 27.6002C33.5333 27.6002 34.5753 27.1169 35.326 26.1502C36.0767 25.1835 36.4513 24.0835 36.45 22.8502C36.4487 21.6169 36.074 20.5169 35.326 19.5502C34.578 18.5835 33.536 18.1002 32.2 18.1002Z" fill="#007AFF"/>
</svg>
