<svg width="33" height="32" viewBox="0 0 33 32" fill="none" xmlns="http://www.w3.org/2000/svg">
<path d="M4.49999 25.3666C3.76666 25.3666 3.13911 25.1057 2.61733 24.584C2.09555 24.0622 1.83422 23.4342 1.83333 22.7V20.0333C1.83333 19.6555 1.96133 19.3391 2.21733 19.084C2.47333 18.8289 2.78977 18.7009 3.16666 18.7C3.54355 18.6991 3.86044 18.8271 4.11733 19.084C4.37422 19.3409 4.50177 19.6573 4.49999 20.0333V22.7H28.5V20.0333C28.5 19.6555 28.628 19.3386 28.884 19.0826C29.14 18.8266 29.4564 18.6991 29.8333 18.7C30.2102 18.7009 30.5271 18.8289 30.784 19.084C31.0409 19.3391 31.1684 19.6555 31.1667 20.0333V22.7C31.1667 23.4333 30.9058 24.0613 30.384 24.584C29.8622 25.1066 29.2342 25.3675 28.5 25.3666H4.49999ZM10.3 20.3C9.21111 20.3 8.35555 20.0169 7.73333 19.4506C7.11111 18.8844 6.79999 18.112 6.79999 17.1333C6.79999 16.2 7.16133 15.4391 7.884 14.8506C8.60666 14.2622 9.53422 13.9675 10.6667 13.9666C11.1778 13.9666 11.6502 14.0057 12.084 14.084C12.5178 14.1622 12.8898 14.2897 13.2 14.4666V14C13.2 13.4 12.9947 12.9222 12.584 12.5666C12.1733 12.2111 11.612 12.0333 10.9 12.0333C10.5667 12.0333 10.2502 12.0835 9.95066 12.184C9.65111 12.2844 9.37866 12.4231 9.13333 12.6C8.93333 12.7555 8.71688 12.8444 8.48399 12.8666C8.25111 12.8889 8.03422 12.8222 7.83333 12.6666C7.63244 12.5111 7.51022 12.3169 7.46666 12.084C7.42311 11.8511 7.48977 11.6453 7.66666 11.4666C8.06666 11.0889 8.53911 10.8 9.084 10.6C9.62888 10.4 10.2453 10.3 10.9333 10.3C12.3111 10.3 13.3667 10.628 14.1 11.284C14.8333 11.94 15.2 12.8897 15.2 14.1333V19.0333C15.2 19.3 15.1053 19.528 14.916 19.7173C14.7267 19.9066 14.4991 20.0009 14.2333 20C13.9444 20 13.7058 19.9053 13.5173 19.716C13.3289 19.5266 13.2342 19.288 13.2333 19V18.8666H13.1333C12.8444 19.3111 12.4556 19.6613 11.9667 19.9173C11.4778 20.1733 10.9222 20.3009 10.3 20.3ZM11.0333 15.5333C10.3222 15.5333 9.77777 15.6724 9.4 15.9506C9.02222 16.2289 8.83333 16.6231 8.83333 17.1333C8.83333 17.5777 9 17.9391 9.33333 18.2173C9.66666 18.4955 10.1 18.6342 10.6333 18.6333C11.3444 18.6333 11.9502 18.3835 12.4507 17.884C12.9511 17.3844 13.2009 16.7786 13.2 16.0666C12.8889 15.8889 12.5333 15.7555 12.1333 15.6666C11.7333 15.5777 11.3667 15.5333 11.0333 15.5333ZM22.2667 20.3C21.3556 20.3 20.6613 20.1 20.184 19.7C19.7067 19.3 19.4009 18.9889 19.2667 18.7666H19.1667V19.2C19.1667 19.4666 19.0724 19.6946 18.884 19.884C18.6956 20.0733 18.4676 20.1675 18.2 20.1666C17.9324 20.1657 17.6991 20.0657 17.5 19.8666C17.3009 19.6675 17.2009 19.4342 17.2 19.1666V7.66663C17.2 7.37775 17.3 7.1333 17.5 6.9333C17.7 6.7333 17.9444 6.6333 18.2333 6.6333C18.5222 6.6333 18.7667 6.7333 18.9667 6.9333C19.1667 7.1333 19.2667 7.37775 19.2667 7.66663V10.4L19.1667 11.7333H19.2667C19.3333 11.6222 19.6 11.3386 20.0667 10.8826C20.5333 10.4266 21.2667 10.1991 22.2667 10.2C23.6889 10.2 24.8111 10.7111 25.6333 11.7333C26.4556 12.7555 26.8667 13.9333 26.8667 15.2666C26.8667 16.6 26.4613 17.7724 25.6507 18.784C24.84 19.7955 23.712 20.3009 22.2667 20.3ZM21.9667 12.0666C21.0778 12.0666 20.3889 12.3946 19.9 13.0506C19.4111 13.7066 19.1667 14.4342 19.1667 15.2333C19.1667 16.0555 19.4111 16.7889 19.9 17.4333C20.3889 18.0777 21.0778 18.4 21.9667 18.4C22.8556 18.4 23.5502 18.0777 24.0507 17.4333C24.5511 16.7889 24.8009 16.0555 24.8 15.2333C24.7991 14.4111 24.5493 13.6777 24.0507 13.0333C23.552 12.3889 22.8573 12.0666 21.9667 12.0666Z" fill="#007AFF"/>
</svg>
