<svg width="32" height="32" viewBox="0 0 32 32" fill="none" xmlns="http://www.w3.org/2000/svg">
<path d="M5.33343 27.9999C5.43971 28.0127 5.54715 28.0127 5.65343 27.9999L10.9868 26.6665C11.2234 26.6103 11.4401 26.4904 11.6134 26.3199L28.0001 9.87987C28.4968 9.38024 28.7755 8.70437 28.7755 7.99987C28.7755 7.29538 28.4968 6.6195 28.0001 6.11987L25.8934 3.99987C25.6458 3.75193 25.3517 3.55524 25.0279 3.42105C24.7042 3.28685 24.3572 3.21777 24.0068 3.21777C23.6563 3.21777 23.3093 3.28685 22.9856 3.42105C22.6619 3.55524 22.3678 3.75193 22.1201 3.99987L5.73343 20.3865C5.56115 20.5607 5.43709 20.7766 5.37343 21.0132L4.0401 26.3465C3.99218 26.5191 3.97949 26.6995 4.0028 26.877C4.02611 27.0545 4.08494 27.2255 4.17578 27.3798C4.26662 27.5341 4.3876 27.6686 4.53152 27.7751C4.67543 27.8816 4.83933 27.9581 5.01343 27.9999C5.11971 28.0127 5.22715 28.0127 5.33343 27.9999ZM24.0001 5.87987L26.1201 7.99987L24.0001 10.1199L21.8934 7.99987L24.0001 5.87987ZM7.8801 22.0132L20.0001 9.87987L22.1201 11.9999L9.98677 24.1332L7.17343 24.8265L7.8801 22.0132Z" fill="black"/>
</svg>
