<svg width="32" height="32" viewBox="0 0 32 32" fill="none" xmlns="http://www.w3.org/2000/svg">
<path d="M5.33319 27.9999C5.43947 28.0127 5.54691 28.0127 5.65319 27.9999L10.9865 26.6665C11.2231 26.6103 11.4398 26.4904 11.6132 26.3199L27.9999 9.87987C28.4965 9.38024 28.7753 8.70437 28.7753 7.99987C28.7753 7.29538 28.4965 6.6195 27.9999 6.11987L25.8932 3.99987C25.6455 3.75193 25.3514 3.55524 25.0277 3.42105C24.704 3.28685 24.357 3.21777 24.0065 3.21777C23.6561 3.21777 23.3091 3.28685 22.9853 3.42105C22.6616 3.55524 22.3675 3.75193 22.1199 3.99987L5.73319 20.3865C5.56091 20.5607 5.43685 20.7766 5.37319 21.0132L4.03986 26.3465C3.99193 26.5191 3.97925 26.6995 4.00256 26.877C4.02587 27.0545 4.0847 27.2255 4.17554 27.3798C4.26637 27.5341 4.38736 27.6686 4.53127 27.7751C4.67519 27.8816 4.83909 27.9581 5.01319 27.9999C5.11947 28.0127 5.22691 28.0127 5.33319 27.9999ZM23.9999 5.87987L26.1199 7.99987L23.9999 10.1199L21.8932 7.99987L23.9999 5.87987ZM7.87985 22.0132L19.9999 9.87987L22.1199 11.9999L9.98652 24.1332L7.17319 24.8265L7.87985 22.0132Z" fill="white"/>
</svg>
