<svg width="33" height="32" viewBox="0 0 33 32" fill="none" xmlns="http://www.w3.org/2000/svg">
<path d="M12.1093 26.2755L24.5 13.8848L18.6147 7.99951L6.224 20.3902C6.05342 20.561 5.93225 20.7748 5.87333 21.0088L4.5 27.9995L11.4893 26.6262C11.724 26.5675 11.9387 26.4462 12.1093 26.2755ZM28.5 9.88485C28.9999 9.38477 29.2808 8.70662 29.2808 7.99951C29.2808 7.29241 28.9999 6.61425 28.5 6.11418L26.3853 3.99951C25.8853 3.49959 25.2071 3.21875 24.5 3.21875C23.7929 3.21875 23.1147 3.49959 22.6147 3.99951L20.5 6.11418L26.3853 11.9995L28.5 9.88485Z" fill="#131313"/>
</svg>
