<svg width="32" height="32" viewBox="0 0 32 32" fill="none" xmlns="http://www.w3.org/2000/svg">
<path d="M11.6093 26.2755L24 13.8848L18.1147 7.99951L5.724 20.3902C5.55342 20.561 5.43225 20.7748 5.37333 21.0088L4 27.9995L10.9893 26.6262C11.224 26.5675 11.4387 26.4462 11.6093 26.2755ZM28 9.88485C28.4999 9.38477 28.7808 8.70662 28.7808 7.99951C28.7808 7.29241 28.4999 6.61425 28 6.11418L25.8853 3.99951C25.3853 3.49959 24.7071 3.21875 24 3.21875C23.2929 3.21875 22.6147 3.49959 22.1147 3.99951L20 6.11418L25.8853 11.9995L28 9.88485Z" fill="#007AFF"/>
</svg>
