<svg width="26" height="26" viewBox="0 0 26 26" fill="none" xmlns="http://www.w3.org/2000/svg">
<g clip-path="url(#clip0_620_30159)">
<path d="M13.7936 23.6016C13.7936 23.6017 13.7936 23.6017 13.7936 23.6017C13.7911 23.6054 13.7853 23.6142 13.7763 23.6269C13.7578 23.6529 13.7283 23.6922 13.69 23.7362C13.605 23.8339 13.5172 23.9086 13.4478 23.9451C13.4378 23.9503 13.4299 23.9539 13.424 23.9562C13.4209 23.9547 13.4173 23.9528 13.413 23.9504C13.3974 23.9416 13.3726 23.9257 13.3395 23.8979C13.2732 23.8424 13.178 23.7434 13.0617 23.5734L6.53135 13.4677C6.27673 12.9624 6.2952 12.4256 6.50114 12.0997L13.0109 2.16751C13.174 1.94742 13.2965 1.7915 13.3982 1.68097C13.4902 1.77607 13.6157 1.92676 13.7769 2.15932L20.4493 12.2245L20.4499 12.2255C20.7147 12.6238 20.7289 13.0813 20.4444 13.5468L13.8091 23.5776L13.7991 23.5926L13.7936 23.6016ZM13.7936 23.6016C13.7944 23.6004 13.7948 23.5998 13.7948 23.5998L13.7945 23.6003L13.7936 23.6016Z" stroke="white" stroke-width="2"/>
<path d="M11.9123 9.81267C11.2476 10.7677 10.8749 11.3031 10.2103 12.2582C10.0292 12.8283 10.2636 13.0314 10.9042 13.9846C11.5449 14.9377 10.3594 13.2033 12.3594 16.2033" stroke="white" stroke-width="2" stroke-linecap="round" stroke-linejoin="round"/>
</g>
<defs>
<clipPath id="clip0_620_30159">
<rect width="25" height="25" fill="white" transform="translate(0.5 0.5)"/>
</clipPath>
</defs>
</svg>
